<svg xmlns="http://www.w3.org/2000/svg" viewBox="0 0 1038.48 778.86"><defs><style>.cls-1{fill:none;}.cls-2{fill:lime;}</style></defs><title>Element 17</title><g id="Ebene_2" data-name="Ebene 2"><g id="Ebene_1-2" data-name="Ebene 1"><path class="cls-1" d="M725.9,477.12l47.62,82.49a27.45,27.45,0,0,1,34,9.11l65.09-37.58a27.28,27.28,0,0,1-2.54-11.53,27.67,27.67,0,0,1,.8-6.6L735.1,466A27.77,27.77,0,0,1,725.9,477.12Z"/><path class="cls-1" d="M535,595.89l-135.76,47a27.29,27.29,0,0,1,0,13.2l135.76,47a27.55,27.55,0,0,1,22.55-16.06V612A27.55,27.55,0,0,1,535,595.89Z"/><path class="cls-1" d="M785.05,612.07a27.43,27.43,0,0,1-11.53-2.54L725.9,692a27.52,27.52,0,0,1,11.53,19.9l170.23-.34a27.37,27.37,0,0,1,5-13.55L804.13,604.34A27.38,27.38,0,0,1,785.05,612.07Z"/><path class="cls-1" d="M131.7,497.16,84.07,414.67a27.39,27.39,0,0,1-23,0L13.4,497.16a27.54,27.54,0,0,1,11.53,19.95h95.24A27.49,27.49,0,0,1,131.7,497.16Z"/><circle class="cls-1" cx="522.55" cy="259.81" r="22.5"/><path class="cls-1" d="M147.55,492.11A27.46,27.46,0,0,1,170,503.77l65.09-37.58a27.28,27.28,0,0,1-2.54-11.53,27.67,27.67,0,0,1,.8-6.6L97.6,401a27.64,27.64,0,0,1-9.2,11.13L136,494.66A27.32,27.32,0,0,1,147.55,492.11Z"/><path class="cls-1" d="M812.55,584.57a27.31,27.31,0,0,1-5.15,16L916,694.25a27.47,27.47,0,0,1,11.45-6.64L900.28,547c-.9.09-1.81.13-2.73.13a27.44,27.44,0,0,1-22.45-11.65L810,573A27.43,27.43,0,0,1,812.55,584.57Z"/><path class="cls-1" d="M545,244l65.09-37.58a27.42,27.42,0,0,1,0-23L545,145.75a27.52,27.52,0,0,1-20,11.54v75.14A27.47,27.47,0,0,1,545,244Z"/><path class="cls-1" d="M388.4,672,436,754.46a27.45,27.45,0,0,1,34,9.11L535.09,726a27.2,27.2,0,0,1-2.54-11.52,27.67,27.67,0,0,1,.8-6.6l-135.75-47A27.64,27.64,0,0,1,388.4,672Z"/><path class="cls-1" d="M282.5,308.91l65.09-37.58a27.42,27.42,0,0,1,0-23L282.5,210.71a27.51,27.51,0,0,1-19.95,11.53v75.14A27.47,27.47,0,0,1,282.5,308.91Z"/><path class="cls-1" d="M757.67,587.07H587.43a27.16,27.16,0,0,1-5.06,13.52L691,694.67a27.41,27.41,0,0,1,30.57-5.16L769.2,607A27.47,27.47,0,0,1,757.67,587.07Z"/><path class="cls-1" d="M195.17,652H24.93A27.51,27.51,0,0,1,13.4,672L61,754.46a27.41,27.41,0,0,1,30.57,5.16l108.62-94.07A27.31,27.31,0,0,1,195.17,652Z"/><path class="cls-1" d="M203.5,669.32,94.87,763.4a27.2,27.2,0,0,1,5.06,13.52h95.24A27.53,27.53,0,0,1,220.05,752V676.9A27.39,27.39,0,0,1,203.5,669.32Z"/><path class="cls-1" d="M372.55,677a27.41,27.41,0,0,1-19.05-7.7L244.87,763.4a27.2,27.2,0,0,1,5.06,13.52H420.17A27.47,27.47,0,0,1,431.7,757l-47.63-82.49A27.27,27.27,0,0,1,372.55,677Z"/><path class="cls-1" d="M345.17,652H249.93a27.53,27.53,0,0,1-24.88,24.88V752a27.39,27.39,0,0,1,16.55,7.58l108.62-94.07A27.31,27.31,0,0,1,345.17,652Z"/><path class="cls-1" d="M372.55,232.31A27.4,27.4,0,0,1,391.6,240l108.62-94.07a27.56,27.56,0,0,1-3.65-7L287.23,190.7A27.34,27.34,0,0,1,285,206.38L350.1,244A27.46,27.46,0,0,1,372.55,232.31Z"/><path class="cls-1" d="M562.55,612v75.14A27.53,27.53,0,0,1,587.43,712h95.24a27.31,27.31,0,0,1,5.05-13.53L579.1,604.37A27.39,27.39,0,0,1,562.55,612Z"/><path class="cls-1" d="M206.7,627.07l-47.63-82.5a27.42,27.42,0,0,1-30.57-5.15L19.87,633.49A27.23,27.23,0,0,1,24.93,647H195.17A27.47,27.47,0,0,1,206.7,627.07Z"/><path class="cls-1" d="M120.17,522.11H24.93A27.54,27.54,0,0,1,.05,547v75.14a27.39,27.39,0,0,1,16.55,7.58l108.62-94.08A27.31,27.31,0,0,1,120.17,522.11Z"/><path class="cls-1" d="M399.93,257.31h95.24a27.53,27.53,0,0,1,24.88-24.88V157.29a27.39,27.39,0,0,1-16.55-7.58L394.87,243.78A27.23,27.23,0,0,1,399.93,257.31Z"/><path class="cls-1" d="M237.6,470.51l-65.09,37.58a27.45,27.45,0,0,1-9.11,34L211,624.56a27.26,27.26,0,0,1,14.25-2.4l27.15-141.08A27.57,27.57,0,0,1,237.6,470.51Z"/><path class="cls-1" d="M447.55,417.21A27.28,27.28,0,0,1,436,414.67L388.4,497.16a27.7,27.7,0,0,1,9.2,11.13l135.75-47a27.55,27.55,0,0,1-.8-6.6,27.27,27.27,0,0,1,2.54-11.52L470,405.56A27.48,27.48,0,0,1,447.55,417.21Z"/><circle class="cls-1" cx="560.05" cy="584.57" r="22.5"/><path class="cls-1" d="M587.43,582.07H757.67a27.47,27.47,0,0,1,11.53-20l-47.63-82.5A27.42,27.42,0,0,1,691,474.47L582.37,568.54A27.23,27.23,0,0,1,587.43,582.07Z"/><circle class="cls-1" cx="372.55" cy="649.52" r="22.5"/><circle class="cls-1" cx="785.05" cy="584.57" r="22.5"/><path class="cls-1" d="M710.05,297.26a27.48,27.48,0,0,1,22.45,11.65l65.09-37.58a27.27,27.27,0,0,1-2.54-11.52,27.55,27.55,0,0,1,.8-6.6l-135.75-47a27.7,27.7,0,0,1-9.2,11.13l47.62,82.49A27.28,27.28,0,0,1,710.05,297.26Z"/><path class="cls-1" d="M87.6,210.71,22.51,248.28a27.43,27.43,0,0,1,2.54,11.53A27.49,27.49,0,0,1,13.4,282.26L61,364.75a27.26,27.26,0,0,1,14.25-2.4l27.15-141.08A27.6,27.6,0,0,1,87.6,210.71Z"/><circle class="cls-1" cx="260.05" cy="454.66" r="22.5"/><circle class="cls-1" cx="372.55" cy="519.61" r="22.5"/><path class="cls-1" d="M475.05,389.71a27.43,27.43,0,0,1-2.54,11.53l65.09,37.57a27.6,27.6,0,0,1,14.82-10.56L525.27,287.17a27.26,27.26,0,0,1-14.25-2.4L463.4,367.26A27.48,27.48,0,0,1,475.05,389.71Z"/><circle class="cls-1" cx="447.55" cy="389.71" r="22.5"/><circle class="cls-1" cx="222.55" cy="649.52" r="22.5"/><circle class="cls-1" cx="147.55" cy="519.61" r="22.5"/><path class="cls-1" d="M447.55,362.21a27.42,27.42,0,0,1,11.52,2.54l47.63-82.49a27.47,27.47,0,0,1-11.53-19.95H399.93a27.51,27.51,0,0,1-11.53,19.95L436,364.75A27.43,27.43,0,0,1,447.55,362.21Z"/><path class="cls-1" d="M375.05,547v75.14A27.55,27.55,0,0,1,397.6,638.2l135.75-47a27.63,27.63,0,0,1,0-13.2l-135.75-47A27.57,27.57,0,0,1,375.05,547Z"/><circle class="cls-1" cx="560.05" cy="454.66" r="22.5"/><circle class="cls-1" cx="635.05" cy="194.86" r="22.5"/><circle class="cls-1" cx="522.55" cy="129.9" r="22.5"/><circle class="cls-1" cx="260.05" cy="324.76" r="22.5"/><path class="cls-1" d="M920,503.77l65.09-37.58a27.42,27.42,0,0,1,0-23.05L920,405.56a27.47,27.47,0,0,1-20,11.53v75.14A27.52,27.52,0,0,1,920,503.77Z"/><circle class="cls-1" cx="260.05" cy="194.86" r="22.5"/><path class="cls-1" d="M257.55,297.38V222.24a27.54,27.54,0,0,1-24.88-24.88H137.43a27.23,27.23,0,0,1-5.06,13.52L241,305A27.43,27.43,0,0,1,257.55,297.38Z"/><path class="cls-1" d="M895.05,102.52V27.38A27.39,27.39,0,0,1,878.5,19.8L769.87,113.88a27.23,27.23,0,0,1,5.06,13.52h95.24A27.54,27.54,0,0,1,895.05,102.52Z"/><path class="cls-1" d="M232.55,324.76a27.36,27.36,0,0,1,5.17-16L129.1,214.66a27.41,27.41,0,0,1-19,7.7,27.06,27.06,0,0,1-2.72-.14L80.18,363.3A27.63,27.63,0,0,1,97.6,378.39l135.75-47A27.67,27.67,0,0,1,232.55,324.76Z"/><path class="cls-1" d="M916.6,110.1,1025.22,16a27.31,27.31,0,0,1-5.05-13.53H924.93a27.53,27.53,0,0,1-24.88,24.88v75.14A27.39,27.39,0,0,1,916.6,110.1Z"/><circle class="cls-1" cx="710.05" cy="454.66" r="22.5"/><circle class="cls-1" cx="710.05" cy="324.76" r="22.5"/><circle class="cls-1" cx="822.55" cy="259.81" r="22.5"/><path class="cls-1" d="M257.55,427.28V352.14A27.55,27.55,0,0,1,235,336.08l-135.76,47a27.29,27.29,0,0,1,0,13.2l135.76,47A27.55,27.55,0,0,1,257.55,427.28Z"/><path class="cls-1" d="M431.7,367.26l-47.63-82.49a27.44,27.44,0,0,1-34-9.11L285,313.24a27.36,27.36,0,0,1,1.73,18.12l135.76,47A27.64,27.64,0,0,1,431.7,367.26Z"/><circle class="cls-1" cx="560.05" cy="714.47" r="22.5"/><path class="cls-1" d="M587.43,452.16h95.24a27.54,27.54,0,0,1,24.88-24.88V352.14A27.39,27.39,0,0,1,691,344.56L582.37,438.64A27.23,27.23,0,0,1,587.43,452.16Z"/><circle class="cls-1" cx="710.05" cy="714.47" r="22.5"/><path class="cls-1" d="M562.55,482.05v75.14a27.43,27.43,0,0,1,16.55,7.57l108.62-94.07a27.31,27.31,0,0,1-5.05-13.53H587.43A27.54,27.54,0,0,1,562.55,482.05Z"/><path class="cls-1" d="M530.18,286.22,557.33,427.3a27.06,27.06,0,0,1,2.72-.14,27.41,27.41,0,0,1,19.05,7.7l108.62-94.07a27.49,27.49,0,0,1-4.37-22.63l-135.75-47A27.63,27.63,0,0,1,530.18,286.22Z"/><path class="cls-1" d="M345.05,519.61a27.27,27.27,0,0,1,2.54-11.52L282.5,470.51a27.48,27.48,0,0,1-22.45,11.65,27.08,27.08,0,0,1-2.72-.13L230.18,623.1a27.55,27.55,0,0,1,11.42,6.62l108.62-94.08A27.34,27.34,0,0,1,345.05,519.61Z"/><path class="cls-1" d="M137.43,192.36h95.24a27.51,27.51,0,0,1,11.53-20L196.57,89.91a27.42,27.42,0,0,1-23,0L125.9,172.4A27.55,27.55,0,0,1,137.43,192.36Z"/><circle class="cls-1" cx="72.55" cy="389.71" r="22.5"/><path class="cls-1" d="M110.05,167.36a27.27,27.27,0,0,1,11.52,2.54L169.2,87.4a27.44,27.44,0,0,1-9.11-34L95,15.85A27.55,27.55,0,0,1,80.18,26.41l27.15,141.08A27.08,27.08,0,0,1,110.05,167.36Z"/><path class="cls-1" d="M420.05,389.71a27.67,27.67,0,0,1,.8-6.6l-135.75-47a27.55,27.55,0,0,1-22.55,16.06v75.14a27.55,27.55,0,0,1,22.55,16.06l135.75-47A27.55,27.55,0,0,1,420.05,389.71Z"/><path class="cls-1" d="M372.55,492.11a27.28,27.28,0,0,1,11.52,2.55l47.63-82.5A27.64,27.64,0,0,1,422.5,401l-135.76,47A27.39,27.39,0,0,1,285,466.19l65.09,37.58A27.45,27.45,0,0,1,372.55,492.11Z"/><circle class="cls-1" cx="110.05" cy="194.86" r="22.5"/><path class="cls-1" d="M535,466,399.24,513a27.33,27.33,0,0,1,0,13.21l135.76,47a27.56,27.56,0,0,1,22.55-16V482.05A27.58,27.58,0,0,1,535,466Z"/><circle class="cls-1" cx="410.05" cy="64.95" r="22.5"/><circle class="cls-1" cx="747.55" cy="129.9" r="22.5"/><circle class="cls-1" cx="185.05" cy="64.95" r="22.5"/><circle class="cls-1" cx="897.55" cy="519.61" r="22.5"/><circle class="cls-1" cx="897.55" cy="129.9" r="22.5"/><circle class="cls-1" cx="935.05" cy="714.02" r="22.5"/><circle class="cls-1" cx="1010.05" cy="454.66" r="22.5"/><circle class="cls-1" cx="897.55" cy="389.71" r="22.5"/><circle class="cls-1" cx="1010.05" cy="194.86" r="22.5"/><circle class="cls-1" cx="372.55" cy="259.81" r="22.5"/><path class="cls-1" d="M286,185.85l209.33-51.79a28.48,28.48,0,0,1-.31-4.16,27.27,27.27,0,0,1,2.54-11.52L432.5,80.8a27.45,27.45,0,0,1-41.5,4L282.37,178.83A27.27,27.27,0,0,1,286,185.85Z"/><path class="cls-1" d="M737.55,454.66a27.06,27.06,0,0,1-.81,6.6l135.76,47a27.56,27.56,0,0,1,22.55-16.06V417.09A27.54,27.54,0,0,1,872.5,401l-135.76,47A27.18,27.18,0,0,1,737.55,454.66Z"/><path class="cls-1" d="M850.05,259.81a27.49,27.49,0,0,1-11.65,22.45L886,364.75a27.42,27.42,0,0,1,23.05,0L994.2,217.31a27.7,27.7,0,0,1-9.2-11.13l-135.76,47A27.06,27.06,0,0,1,850.05,259.81Z"/><path class="cls-1" d="M847.6,248.48l135.75-47a27.67,27.67,0,0,1-.8-6.6,27.28,27.28,0,0,1,2.54-11.53L920,145.75a27.45,27.45,0,0,1-34,9.11l-47.62,82.5A27.68,27.68,0,0,1,847.6,248.48Z"/><path class="cls-1" d="M662.55,194.86a27.18,27.18,0,0,1-.81,6.6l135.76,47a27.68,27.68,0,0,1,9.2-11.12l-47.63-82.5a27.44,27.44,0,0,1-34-9.11L660,183.33A27.43,27.43,0,0,1,662.55,194.86Z"/><path class="cls-1" d="M822.55,232.31a27.27,27.27,0,0,1,11.52,2.54l47.63-82.49a27.51,27.51,0,0,1-11.53-20H774.93a27.55,27.55,0,0,1-11.53,20L811,234.85A27.28,27.28,0,0,1,822.55,232.31Z"/><path class="cls-1" d="M541.6,110.1,650.22,16A27.31,27.31,0,0,1,645.17,2.5H549.93a27.53,27.53,0,0,1-24.88,24.88v75.14A27.39,27.39,0,0,1,541.6,110.1Z"/><path class="cls-1" d="M520.05,102.52V27.38A27.47,27.47,0,0,1,500.1,15.85L435,53.43a27.42,27.42,0,0,1,0,23.05l65.09,37.57A27.51,27.51,0,0,1,520.05,102.52Z"/><path class="cls-1" d="M657.5,179l65.09-37.58a27.45,27.45,0,0,1,9.11-34L684.07,25a27.27,27.27,0,0,1-11.52,2.54,27.06,27.06,0,0,1-2.72-.14L642.68,168.44A27.57,27.57,0,0,1,657.5,179Z"/><path class="cls-1" d="M353.5,539.42,244.87,633.49A27.23,27.23,0,0,1,249.93,647h95.24a27.53,27.53,0,0,1,24.88-24.88V547A27.39,27.39,0,0,1,353.5,539.42Z"/><path class="cls-1" d="M260.05,167.36a27.4,27.4,0,0,1,19.05,7.69L387.72,81a27.31,27.31,0,0,1-5.05-13.53H212.43a27.51,27.51,0,0,1-11.53,20l47.62,82.5A27.32,27.32,0,0,1,260.05,167.36Z"/><path class="cls-1" d="M712.55,352.14v75.14a27.55,27.55,0,0,1,22.55,16.06l135.75-47a27.63,27.63,0,0,1,0-13.2l-135.75-47A27.55,27.55,0,0,1,712.55,352.14Z"/><path class="cls-1" d="M550.05,259.81a27.18,27.18,0,0,1-.81,6.6l135.76,47a27.64,27.64,0,0,1,9.2-11.13l-47.63-82.49a27.44,27.44,0,0,1-34-9.11l-65.09,37.57A27.43,27.43,0,0,1,550.05,259.81Z"/><path class="cls-1" d="M822.55,287.31a27.46,27.46,0,0,1-22.45-11.65L735,313.24a27.36,27.36,0,0,1,1.73,18.12l135.76,47a27.64,27.64,0,0,1,9.2-11.13l-47.63-82.49A27.42,27.42,0,0,1,822.55,287.31Z"/><path class="cls-1" d="M550.05,129.9a27.43,27.43,0,0,1-2.54,11.53L612.6,179a27.55,27.55,0,0,1,25.17-11.52L664.92,26.41A27.36,27.36,0,0,1,653.5,19.8L544.87,113.88A27.34,27.34,0,0,1,550.05,129.9Z"/><path class="cls-2" d="M985.09,443.14a27.42,27.42,0,0,1,2.51-4.33l-65.09-37.57a28.11,28.11,0,0,1-2.51,4.32Z"/><path class="cls-2" d="M547.51,248.28l65.09-37.57a27.42,27.42,0,0,1-2.51-4.33L545,244A28.11,28.11,0,0,1,547.51,248.28Z"/><path class="cls-2" d="M397.6,508.29a27.45,27.45,0,0,1,1.64,4.72L535,466a27.29,27.29,0,0,1-1.65-4.73Z"/><path class="cls-2" d="M732.5,308.91a27.75,27.75,0,0,1,2.51,4.33l65.09-37.58a27.42,27.42,0,0,1-2.51-4.33Z"/><path class="cls-2" d="M560.05,482.16c-.84,0-1.68,0-2.5-.11v75.14c.82-.08,1.66-.12,2.5-.12s1.67,0,2.5.12V482.05C561.72,482.12,560.89,482.16,560.05,482.16Z"/><path class="cls-2" d="M849.24,253.21l135.76-47a27.48,27.48,0,0,1-1.65-4.72l-135.75,47A27.26,27.26,0,0,1,849.24,253.21Z"/><path class="cls-2" d="M388.4,282.26a28.21,28.21,0,0,1-4.33,2.51l47.63,82.49a28.11,28.11,0,0,1,4.32-2.51Z"/><path class="cls-2" d="M397.6,530.94l135.75,47a27.29,27.29,0,0,1,1.65-4.73l-135.76-47A27.45,27.45,0,0,1,397.6,530.94Z"/><path class="cls-2" d="M470,405.56l65.09,37.58a27.42,27.42,0,0,1,2.51-4.33l-65.09-37.57A28.11,28.11,0,0,1,470,405.56Z"/><path class="cls-2" d="M347.59,271.33,282.5,308.91a27.75,27.75,0,0,1,2.51,4.33l65.09-37.58A27.42,27.42,0,0,1,347.59,271.33Z"/><path class="cls-2" d="M422.5,378.39l-135.76-47a26.87,26.87,0,0,1-1.64,4.72l135.75,47A27.18,27.18,0,0,1,422.5,378.39Z"/><path class="cls-2" d="M399.93,262.31h95.24c-.08-.83-.12-1.66-.12-2.5s0-1.68.12-2.5H399.93c.07.82.12,1.65.12,2.5S400,261.48,399.93,262.31Z"/><path class="cls-2" d="M350.1,244,285,206.38a28.21,28.21,0,0,1-2.51,4.33l65.09,37.57A27.32,27.32,0,0,1,350.1,244Z"/><path class="cls-2" d="M810,573l65.09-37.58a26.88,26.88,0,0,1-2.51-4.32L807.5,568.72A27.65,27.65,0,0,1,810,573Z"/><path class="cls-2" d="M1038.48,571.08v-5.29L924.24,526.22a27.45,27.45,0,0,1-1.64,4.72Z"/><path class="cls-2" d="M610.09,183.33A26.88,26.88,0,0,1,612.6,179l-65.09-37.58a27.65,27.65,0,0,1-2.51,4.32Z"/><path class="cls-2" d="M500.1,114.05,435,76.48a28.11,28.11,0,0,1-2.51,4.32l65.09,37.58A27.42,27.42,0,0,1,500.1,114.05Z"/><path class="cls-2" d="M13.4,282.26a27.75,27.75,0,0,1-4.33,2.51L56.7,367.26A28.11,28.11,0,0,1,61,364.75Z"/><path class="cls-2" d="M870.05,129.9c0-.84,0-1.67.12-2.5H774.93c.07.83.12,1.66.12,2.5s0,1.68-.12,2.5h95.24C870.09,131.58,870.05,130.75,870.05,129.9Z"/><path class="cls-2" d="M769.2,562.12a26.57,26.57,0,0,1,4.32-2.51L725.9,477.12a27.36,27.36,0,0,1-4.33,2.5Z"/><path class="cls-2" d="M232.55,194.86c0-.85,0-1.68.12-2.5H137.43c.07.82.12,1.65.12,2.5s-.05,1.67-.12,2.5h95.24C232.59,196.53,232.55,195.7,232.55,194.86Z"/><path class="cls-2" d="M248.52,169.9,200.9,87.4a27.42,27.42,0,0,1-4.33,2.51L244.2,172.4A27.27,27.27,0,0,1,248.52,169.9Z"/><path class="cls-2" d="M350.1,503.77,285,466.19a27.65,27.65,0,0,1-2.51,4.32l65.09,37.58A26.88,26.88,0,0,1,350.1,503.77Z"/><path class="cls-2" d="M560.05,612.07c-.84,0-1.68-.05-2.5-.12v75.14c.82-.07,1.66-.12,2.5-.12s1.67,0,2.5.12V612C561.72,612,560.89,612.07,560.05,612.07Z"/><path class="cls-2" d="M397.6,660.84l135.75,47a27.18,27.18,0,0,1,1.65-4.72l-135.76-47A26.87,26.87,0,0,1,397.6,660.84Z"/><path class="cls-2" d="M496.57,138.91a28,28,0,0,1-1.21-4.85L286,185.85a27.08,27.08,0,0,1,1.2,4.85Z"/><path class="cls-2" d="M804.13,604.34,912.7,698a27.31,27.31,0,0,1,3.26-3.78L807.4,600.56A28,28,0,0,1,804.13,604.34Z"/><path class="cls-2" d="M397.6,638.2a26.87,26.87,0,0,1,1.64,4.72l135.76-47a27.18,27.18,0,0,1-1.65-4.72Z"/><path class="cls-2" d="M582.37,568.54,691,474.47a28.14,28.14,0,0,1-3.28-3.78L579.1,564.76A27.38,27.38,0,0,1,582.37,568.54Z"/><path class="cls-2" d="M436,414.67a27.32,27.32,0,0,1-4.32-2.51l-47.63,82.5a27.36,27.36,0,0,1,4.33,2.5Z"/><path class="cls-2" d="M420.85,396.31l-135.75,47a27.45,27.45,0,0,1,1.64,4.72L422.5,401A26.9,26.9,0,0,1,420.85,396.31Z"/><path class="cls-2" d="M394.87,243.78,503.5,149.71a28.14,28.14,0,0,1-3.28-3.78L391.6,240A27.38,27.38,0,0,1,394.87,243.78Z"/><path class="cls-2" d="M262.55,297.38V222.24c-.83.07-1.66.12-2.5.12s-1.68-.05-2.5-.12v75.14c.82-.08,1.66-.12,2.5-.12S261.72,297.3,262.55,297.38Z"/><path class="cls-2" d="M582.37,438.64,691,344.56a28.06,28.06,0,0,1-3.28-3.77L579.1,434.86A27.38,27.38,0,0,1,582.37,438.64Z"/><path class="cls-2" d="M924.93,132.4h113.55v-5H924.93c.07.83.12,1.66.12,2.5S925,131.58,924.93,132.4Z"/><path class="cls-2" d="M838.4,237.36,886,154.86a27.27,27.27,0,0,1-4.32-2.5l-47.63,82.49A26.66,26.66,0,0,1,838.4,237.36Z"/><path class="cls-2" d="M985.09,183.33A26.88,26.88,0,0,1,987.6,179l-65.09-37.58a27.65,27.65,0,0,1-2.51,4.32Z"/><path class="cls-2" d="M920,503.77a27.65,27.65,0,0,1,2.51,4.32l65.09-37.58a26.88,26.88,0,0,1-2.51-4.32Z"/><path class="cls-2" d="M795.85,253.21a27.29,27.29,0,0,1,1.65-4.73l-135.76-47a27.45,27.45,0,0,1-1.64,4.72Z"/><path class="cls-2" d="M1037.43,457.16h1v-5h-1c.07.83.12,1.66.12,2.5S1037.5,456.34,1037.43,457.16Z"/><path class="cls-2" d="M463.4,367.26,511,284.77a28.11,28.11,0,0,1-4.32-2.51l-47.63,82.49A28.21,28.21,0,0,1,463.4,367.26Z"/><path class="cls-2" d="M897.55,492.11c.84,0,1.67.05,2.5.12V417.09c-.83.08-1.66.12-2.5.12s-1.68,0-2.5-.12v75.14C895.87,492.16,896.71,492.11,897.55,492.11Z"/><path class="cls-2" d="M552.42,428.25a27.33,27.33,0,0,1,4.91-.95L530.18,286.22a26.81,26.81,0,0,1-4.91.95Z"/><path class="cls-2" d="M1038.48,249.11v-10l-12.58-21.8a28.21,28.21,0,0,1-4.33,2.51Z"/><path class="cls-2" d="M735.1,466l135.75,47a27.48,27.48,0,0,1,1.65-4.72l-135.76-47A27.26,27.26,0,0,1,735.1,466Z"/><path class="cls-2" d="M587.55,454.66c0,.85,0,1.68-.12,2.5h95.24c-.08-.82-.12-1.65-.12-2.5s0-1.67.12-2.5H587.43C587.5,453,587.55,453.82,587.55,454.66Z"/><path class="cls-2" d="M735.1,336.08l135.75,47a27.18,27.18,0,0,1,1.65-4.72l-135.76-47A26.87,26.87,0,0,1,735.1,336.08Z"/><path class="cls-2" d="M1038.48,343.54v-5.3L922.6,378.39a27.15,27.15,0,0,1,1.64,4.72Z"/><path class="cls-2" d="M707.55,352.14v75.14c.82-.07,1.66-.12,2.5-.12s1.67,0,2.5.12V352.14c-.83.08-1.66.12-2.5.12S708.37,352.22,707.55,352.14Z"/><path class="cls-2" d="M736.74,448.06,872.5,401a26.9,26.9,0,0,1-1.65-4.72l-135.75,47A27.45,27.45,0,0,1,736.74,448.06Z"/><path class="cls-2" d="M1038.48,181.32v-5.77l-6,3.46a27.65,27.65,0,0,1,2.51,4.32Z"/><path class="cls-2" d="M834.07,284.77l47.63,82.49a28.11,28.11,0,0,1,4.32-2.51L838.4,282.26A28.21,28.21,0,0,1,834.07,284.77Z"/><path class="cls-2" d="M547.6,271.13l135.75,47a26.9,26.9,0,0,1,1.65-4.72l-135.76-47A27.15,27.15,0,0,1,547.6,271.13Z"/><path class="cls-2" d="M1038.48,410.41v-10l-16.91,29.29a28.21,28.21,0,0,1,4.33,2.51Z"/><path class="cls-2" d="M909.07,364.75a28.21,28.21,0,0,1,4.33,2.51l85.12-147.44a28.11,28.11,0,0,1-4.32-2.51Z"/><path class="cls-2" d="M769.87,113.88,878.5,19.8A28.06,28.06,0,0,1,875.22,16L766.6,110.1A27.38,27.38,0,0,1,769.87,113.88Z"/><path class="cls-2" d="M120.05,519.61c0-.84,0-1.67.12-2.5H24.93c.07.83.12,1.66.12,2.5s-.05,1.68-.12,2.5h95.24C120.09,521.29,120.05,520.46,120.05,519.61Z"/><path class="cls-2" d="M160.09,53.43a27.42,27.42,0,0,1,2.51-4.33L97.51,11.52A27.75,27.75,0,0,1,95,15.85Z"/><path class="cls-2" d="M391,45.15,338.87,0h-7.64l56.49,48.92A28.06,28.06,0,0,1,391,45.15Z"/><path class="cls-2" d="M500.1,15.85a27,27,0,0,1-2.51-4.33L432.5,49.1A28.21,28.21,0,0,1,435,53.43Z"/><path class="cls-2" d="M350.22,535.64,241.6,629.72a27.29,27.29,0,0,1,3.27,3.77L353.5,539.42A28.14,28.14,0,0,1,350.22,535.64Z"/><path class="cls-2" d="M384.07,674.48,431.7,757a28.11,28.11,0,0,1,4.32-2.51L388.4,672A28.21,28.21,0,0,1,384.07,674.48Z"/><path class="cls-2" d="M195.05,649.52c0-.84,0-1.68.12-2.5H24.93c.07.82.12,1.66.12,2.5s-.05,1.68-.12,2.5H195.17C195.09,651.2,195.05,650.36,195.05,649.52Z"/><path class="cls-2" d="M91,175.05,0,96.24v6.62l87.72,76A28.14,28.14,0,0,1,91,175.05Z"/><path class="cls-2" d="M470,763.57a28.21,28.21,0,0,1,2.51,4.33l65.09-37.58a27,27,0,0,1-2.51-4.33Z"/><path class="cls-2" d="M907.66,711.58l-170.23.34c.07.84.12,1.69.12,2.55s0,1.64-.12,2.45l170.24-.34c-.08-.84-.12-1.7-.12-2.56S907.59,712.38,907.66,711.58Z"/><path class="cls-2" d="M660,183.33l65.09-37.58a26.88,26.88,0,0,1-2.51-4.32L657.5,179A27.65,27.65,0,0,1,660,183.33Z"/><path class="cls-2" d="M13.4,672a28.21,28.21,0,0,1-4.33,2.51L56.7,757A27.75,27.75,0,0,1,61,754.46Z"/><path class="cls-2" d="M249.93,776.92c.06.64.09,1.29.1,1.94h170c0-.65.05-1.3.11-1.94Z"/><path class="cls-2" d="M962.42,716.6l76.06.23v-5l-76-.23c.07.8.11,1.61.11,2.42S962.5,715.75,962.42,716.6Z"/><path class="cls-2" d="M729.1,734.28l51.48,44.58h7.64L732.37,730.5A27.38,27.38,0,0,1,729.1,734.28Z"/><path class="cls-2" d="M719.89,778.86H725l-7.31-38a28.61,28.61,0,0,1-4.91,1Z"/><path class="cls-2" d="M222.55,677c-.84,0-1.68,0-2.5-.12V752c.82-.07,1.66-.12,2.5-.12s1.67.05,2.5.12V676.9C224.22,677,223.39,677,222.55,677Z"/><path class="cls-2" d="M969.51,778.86h5.77l-24.4-42.37a27.36,27.36,0,0,1-4.33,2.5Z"/><path class="cls-2" d="M350.22,665.55,241.6,759.62a26.8,26.8,0,0,1,3.27,3.78L353.5,669.32A28.06,28.06,0,0,1,350.22,665.55Z"/><path class="cls-2" d="M1038.48,508.92v-10l-12.58-21.8a27.36,27.36,0,0,1-4.33,2.5Z"/><path class="cls-2" d="M957.4,698l81.08-70v-6.61l-84.35,72.8A28,28,0,0,1,957.4,698Z"/><path class="cls-2" d="M698.52,299.8,650.9,217.31a28.21,28.21,0,0,1-4.33,2.51l47.63,82.49A28.11,28.11,0,0,1,698.52,299.8Z"/><path class="cls-2" d="M927.41,687.61a27.33,27.33,0,0,1,4.91-1L905.19,546a27.33,27.33,0,0,1-4.91,1Z"/><path class="cls-2" d="M642.68,168.44,669.83,27.36a26.49,26.49,0,0,1-4.91-.95L637.77,167.49A27.68,27.68,0,0,1,642.68,168.44Z"/><path class="cls-2" d="M544.87,113.88,653.5,19.8A28.06,28.06,0,0,1,650.22,16L541.6,110.1A27.38,27.38,0,0,1,544.87,113.88Z"/><path class="cls-2" d="M522.55,102.4c.84,0,1.67,0,2.5.12V27.38c-.83.08-1.66.12-2.5.12s-1.68,0-2.5-.12v75.14C520.87,102.45,521.71,102.4,522.55,102.4Z"/><path class="cls-2" d="M1025.22,16,916.6,110.1a27.38,27.38,0,0,1,3.27,3.78L1028.5,19.8A28.06,28.06,0,0,1,1025.22,16Z"/><path class="cls-2" d="M897.55,102.4c.84,0,1.67,0,2.5.12V27.38c-.83.08-1.66.12-2.5.12s-1.68,0-2.5-.12v75.14C895.87,102.45,896.71,102.4,897.55,102.4Z"/><path class="cls-2" d="M811,234.85,763.4,152.36a27.36,27.36,0,0,1-4.33,2.5l47.63,82.5A26.57,26.57,0,0,1,811,234.85Z"/><path class="cls-2" d="M731.7,107.45a28.11,28.11,0,0,1,4.32-2.51L688.4,22.45A28.21,28.21,0,0,1,684.07,25Z"/><path class="cls-2" d="M125.9,172.4l47.62-82.49a27.32,27.32,0,0,1-4.32-2.51l-47.63,82.5A27.36,27.36,0,0,1,125.9,172.4Z"/><path class="cls-2" d="M241,305,132.37,210.88a27.38,27.38,0,0,1-3.27,3.78l108.62,94.07A28.78,28.78,0,0,1,241,305Z"/><path class="cls-2" d="M412.55,37.57V0h-5V37.57c.82-.07,1.66-.12,2.5-.12S411.72,37.5,412.55,37.57Z"/><path class="cls-2" d="M233.35,331.36l-135.75,47a27.15,27.15,0,0,1,1.64,4.72l135.76-47A26.9,26.9,0,0,1,233.35,331.36Z"/><path class="cls-2" d="M522.55,232.31c.84,0,1.67,0,2.5.12V157.29c-.83.07-1.66.11-2.5.11s-1.68,0-2.5-.11v75.14C520.87,232.35,521.71,232.31,522.55,232.31Z"/><path class="cls-2" d="M136,494.66,88.4,412.16a27.42,27.42,0,0,1-4.33,2.51l47.63,82.49A27.27,27.27,0,0,1,136,494.66Z"/><path class="cls-2" d="M212.43,67.45H382.67c-.08-.82-.12-1.65-.12-2.5s0-1.67.12-2.5H212.43c.07.83.12,1.66.12,2.5S212.5,66.63,212.43,67.45Z"/><path class="cls-2" d="M282.37,178.83,391,84.76A28.14,28.14,0,0,1,387.72,81L279.1,175.05A27.38,27.38,0,0,1,282.37,178.83Z"/><path class="cls-2" d="M757.67,582.07H587.43c.07.82.12,1.65.12,2.5s0,1.67-.12,2.5H757.67c-.08-.83-.12-1.66-.12-2.5S757.59,582.89,757.67,582.07Z"/><path class="cls-2" d="M237.6,470.51a26.88,26.88,0,0,1-2.51-4.32L170,503.77a27.65,27.65,0,0,1,2.51,4.32Z"/><path class="cls-2" d="M579.1,604.37l108.62,94.07a28.06,28.06,0,0,1,3.28-3.77L582.37,600.59A26.8,26.8,0,0,1,579.1,604.37Z"/><path class="cls-2" d="M372.55,547.11c-.84,0-1.68,0-2.5-.11v75.14c.82-.08,1.66-.12,2.5-.12s1.67,0,2.5.12V547C374.22,547.07,373.39,547.11,372.55,547.11Z"/><path class="cls-2" d="M682.67,712H587.43c.07.83.12,1.66.12,2.5s0,1.68-.12,2.5h95.24c-.08-.82-.12-1.66-.12-2.5S682.59,712.8,682.67,712Z"/><path class="cls-2" d="M235,443.34l-135.76-47A26.87,26.87,0,0,1,97.6,401l135.75,47A27.48,27.48,0,0,1,235,443.34Z"/><path class="cls-2" d="M262.55,427.28V352.14c-.83.08-1.66.12-2.5.12s-1.68,0-2.5-.12v75.14c.82-.07,1.66-.12,2.5-.12S261.72,427.21,262.55,427.28Z"/><path class="cls-2" d="M225.44,0h-5.78L196.57,40a28.21,28.21,0,0,1,4.33,2.51Z"/><path class="cls-2" d="M894.86,778.86h5.77L923.56,739a27.36,27.36,0,0,1-4.33-2.5Z"/><path class="cls-2" d="M670,778.86h5.78l22.76-39.43a27.32,27.32,0,0,1-4.32-2.51Z"/><path class="cls-2" d="M1020.17,2.5c-.08-.82-.12-1.66-.12-2.5h-95c0,.84,0,1.68-.12,2.5Z"/><path class="cls-2" d="M769.2,607l-47.63,82.49A28.21,28.21,0,0,1,725.9,692l47.62-82.49A28.11,28.11,0,0,1,769.2,607Z"/><path class="cls-2" d="M0,39v5.77L50.1,15.85a27,27,0,0,1-2.51-4.33Z"/><path class="cls-2" d="M645.17,2.5c-.08-.82-.12-1.66-.12-2.5h-95c0,.84,0,1.68-.12,2.5Z"/><path class="cls-2" d="M775.09,0H770L750.27,102.54a27.68,27.68,0,0,1,4.91.95Z"/><path class="cls-2" d="M80.18,26.41a26.65,26.65,0,0,1-4.91.95l27.15,141.08a27.33,27.33,0,0,1,4.91-.95Z"/><path class="cls-2" d="M200.22,665.55,91.6,759.62a26.8,26.8,0,0,1,3.27,3.78L203.5,669.32A28.06,28.06,0,0,1,200.22,665.55Z"/><path class="cls-2" d="M45.17,387.21H0v5H45.17c-.08-.82-.12-1.66-.12-2.5S45.09,388,45.17,387.21Z"/><path class="cls-2" d="M61,414.67a27,27,0,0,1-4.33-2.51L9.07,494.66a26.92,26.92,0,0,1,4.33,2.5Z"/><path class="cls-2" d="M102.42,221.27,75.27,362.35a26.65,26.65,0,0,1,4.91.95l27.15-141.08A27.33,27.33,0,0,1,102.42,221.27Z"/><path class="cls-2" d="M125.22,535.64,16.6,629.72a27.29,27.29,0,0,1,3.27,3.77L128.5,539.42A28.14,28.14,0,0,1,125.22,535.64Z"/><path class="cls-2" d="M87.6,210.71a27.42,27.42,0,0,1-2.51-4.33L20,244a28.11,28.11,0,0,1,2.51,4.32Z"/><path class="cls-2" d="M99.93,776.92c.06.64.09,1.29.1,1.94h95c0-.65.05-1.3.11-1.94Z"/><path class="cls-2" d="M594.34,778.86h5.77L575.9,736.92a27.42,27.42,0,0,1-4.33,2.51Z"/><path class="cls-2" d="M345.17,647H249.93c.07.82.12,1.66.12,2.5s-.05,1.68-.12,2.5h95.24c-.08-.82-.12-1.66-.12-2.5S345.09,647.84,345.17,647Z"/><path class="cls-2" d="M252.42,481.08,225.27,622.16a27.49,27.49,0,0,1,4.91.94L257.33,482A27.33,27.33,0,0,1,252.42,481.08Z"/><path class="cls-2" d="M.05,547H0v75.13H.05Z"/><path class="cls-2" d="M163.4,542.07a27.36,27.36,0,0,1-4.33,2.5l47.63,82.5a28.11,28.11,0,0,1,4.32-2.51Z"/><path class="cls-2" d="M157.55,65a27.5,27.5,0,0,0,54.88,2.5c.07-.82.12-1.65.12-2.5s-.05-1.67-.12-2.5a27.51,27.51,0,0,0-11.53-20A28.21,28.21,0,0,0,196.57,40a27.51,27.51,0,0,0-39,25Zm27.5-22.5A22.5,22.5,0,1,1,162.55,65,22.53,22.53,0,0,1,185.05,42.45Z"/><path class="cls-2" d="M382.67,67.45A27.31,27.31,0,0,0,387.72,81,28.14,28.14,0,0,0,391,84.76a27.45,27.45,0,0,0,41.5-4A28.11,28.11,0,0,0,435,76.48a27.42,27.42,0,0,0,0-23.05,28.21,28.21,0,0,0-2.51-4.33,27.51,27.51,0,0,0-19.95-11.53c-.83-.07-1.66-.12-2.5-.12s-1.68,0-2.5.12A27.39,27.39,0,0,0,391,45.15a28.06,28.06,0,0,0-3.28,3.77,27.31,27.31,0,0,0-5.05,13.53c-.08.83-.12,1.66-.12,2.5S382.59,66.63,382.67,67.45Zm27.38-25A22.5,22.5,0,1,1,387.55,65,22.53,22.53,0,0,1,410.05,42.45Z"/><path class="cls-2" d="M500.22,145.93a28.14,28.14,0,0,0,3.28,3.78,27.39,27.39,0,0,0,16.55,7.58c.82.07,1.66.11,2.5.11s1.67,0,2.5-.11a27.5,27.5,0,0,0,0-54.77c-.83-.07-1.66-.12-2.5-.12s-1.68,0-2.5.12a27.52,27.52,0,0,0-25,27.38,28.48,28.48,0,0,0,.31,4.16,28,28,0,0,0,1.21,4.85A27.56,27.56,0,0,0,500.22,145.93Zm22.33-38.53a22.5,22.5,0,1,1-22.5,22.5A22.53,22.53,0,0,1,522.55,107.4Z"/><path class="cls-2" d="M720.05,129.9a27.28,27.28,0,0,0,2.54,11.53,26.88,26.88,0,0,0,2.51,4.32,27.49,27.49,0,0,0,49.83-13.35c.07-.82.12-1.65.12-2.5s0-1.67-.12-2.5a27.62,27.62,0,0,0-8.33-17.3,27.48,27.48,0,0,0-16.33-7.56,27.26,27.26,0,0,0-14.25,2.4,28.11,28.11,0,0,0-4.32,2.51A27.49,27.49,0,0,0,720.05,129.9Zm50,0a22.5,22.5,0,1,1-22.5-22.5A22.53,22.53,0,0,1,770.05,129.9Z"/><path class="cls-2" d="M916.6,110.1a27.39,27.39,0,0,0-16.55-7.58c-.83-.07-1.66-.12-2.5-.12s-1.68,0-2.5.12a27.54,27.54,0,0,0-24.88,24.88c-.08.83-.12,1.66-.12,2.5s0,1.68.12,2.5a27.49,27.49,0,0,0,54.76,0c.07-.82.12-1.65.12-2.5s0-1.67-.12-2.5a27.62,27.62,0,0,0-8.33-17.3Zm-19.05,42.3a22.5,22.5,0,1,1,22.5-22.5A22.52,22.52,0,0,1,897.55,152.4Z"/><path class="cls-2" d="M102.42,221.27a27.33,27.33,0,0,0,4.91.95,27.06,27.06,0,0,0,2.72.14,27.56,27.56,0,0,0,27.38-25c.07-.83.12-1.66.12-2.5s-.05-1.68-.12-2.5a27.51,27.51,0,0,0-15.86-22.46,27.35,27.35,0,0,0-19.15-1.46A27.58,27.58,0,0,0,91,175.05a28.14,28.14,0,0,0-3.28,3.78,27.5,27.5,0,0,0,14.7,42.44Zm7.63-48.91a22.5,22.5,0,1,1-22.5,22.5A22.53,22.53,0,0,1,110.05,172.36Z"/><path class="cls-2" d="M232.67,197.36a27.54,27.54,0,0,0,24.88,24.88c.82.07,1.66.12,2.5.12s1.67-.05,2.5-.12a27.51,27.51,0,0,0,19.95-11.53,28.21,28.21,0,0,0,2.51-4.33,27.34,27.34,0,0,0,2.22-15.68,27.2,27.2,0,0,0-4.86-11.87,27.49,27.49,0,0,0-49.7,13.53c-.08.82-.12,1.65-.12,2.5S232.59,196.53,232.67,197.36Zm27.38-25a22.5,22.5,0,1,1-22.5,22.5A22.53,22.53,0,0,1,260.05,172.36Z"/><path class="cls-2" d="M607.55,194.86a27.48,27.48,0,0,0,39,25,28.21,28.21,0,0,0,4.33-2.51,27.52,27.52,0,0,0,10.84-15.85A27.39,27.39,0,0,0,660,183.33a27.54,27.54,0,0,0-22.24-15.84A27.55,27.55,0,0,0,612.6,179a26.88,26.88,0,0,0-2.51,4.32A27.28,27.28,0,0,0,607.55,194.86Zm27.5-22.5a22.5,22.5,0,1,1-22.5,22.5A22.53,22.53,0,0,1,635.05,172.36Z"/><path class="cls-2" d="M25.05,259.81a27.43,27.43,0,0,0-2.54-11.53A28.11,28.11,0,0,0,20,244,27.53,27.53,0,0,0,0,232.42v5a22.54,22.54,0,0,1,20.05,22.37A22.52,22.52,0,0,1,0,282.17v5a27.12,27.12,0,0,0,9.07-2.42,27.75,27.75,0,0,0,4.33-2.51A27.49,27.49,0,0,0,25.05,259.81Z"/><path class="cls-2" d="M372.55,287.31a27.42,27.42,0,0,0,11.52-2.54,28.21,28.21,0,0,0,4.33-2.51,27.51,27.51,0,0,0,11.53-19.95c.07-.83.12-1.66.12-2.5s-.05-1.68-.12-2.5a27.48,27.48,0,1,0-27.38,30Zm0-50a22.5,22.5,0,1,1-22.5,22.5A22.53,22.53,0,0,1,372.55,237.31Z"/><path class="cls-2" d="M495.17,262.31a27.47,27.47,0,0,0,11.53,19.95,28.11,28.11,0,0,0,4.32,2.51,27.26,27.26,0,0,0,14.25,2.4,26.81,26.81,0,0,0,4.91-.95,27.63,27.63,0,0,0,17.42-15.09,27.48,27.48,0,0,0,2.45-11.32,27.43,27.43,0,0,0-2.54-11.53A28.11,28.11,0,0,0,545,244a27.47,27.47,0,0,0-20-11.53c-.83-.08-1.66-.12-2.5-.12s-1.68,0-2.5.12a27.53,27.53,0,0,0-24.88,24.88c-.08.82-.12,1.65-.12,2.5S495.09,261.48,495.17,262.31Zm27.38-25a22.5,22.5,0,1,1-22.5,22.5A22.53,22.53,0,0,1,522.55,237.31Z"/><path class="cls-2" d="M795.05,259.81a27.48,27.48,0,0,0,39,25,28.21,28.21,0,0,0,4.33-2.51,27.49,27.49,0,0,0,11.65-22.45,27.59,27.59,0,0,0-2.45-11.33,27.68,27.68,0,0,0-9.2-11.12,26.66,26.66,0,0,0-4.33-2.51,27.42,27.42,0,0,0-23.05,0,26.57,26.57,0,0,0-4.32,2.51,27.68,27.68,0,0,0-9.2,11.12,27.16,27.16,0,0,0-2.45,11.33Zm27.5-22.5a22.5,22.5,0,1,1-22.5,22.5A22.53,22.53,0,0,1,822.55,237.31Z"/><path class="cls-2" d="M262.55,352.14a27.55,27.55,0,0,0,22.55-16.06,26.87,26.87,0,0,0,1.64-4.72A27.36,27.36,0,0,0,285,313.24a27.6,27.6,0,0,0-22.46-15.86c-.83-.08-1.66-.12-2.5-.12s-1.68,0-2.5.12A27.43,27.43,0,0,0,241,305a28.78,28.78,0,0,0-3.28,3.78,27.36,27.36,0,0,0-5.17,16,27.67,27.67,0,0,0,.8,6.6,26.9,26.9,0,0,0,1.65,4.72,27.55,27.55,0,0,0,22.55,16.06c.82.08,1.66.12,2.5.12S261.72,352.22,262.55,352.14Zm-25-27.38a22.5,22.5,0,1,1,22.5,22.5A22.52,22.52,0,0,1,237.55,324.76Z"/><path class="cls-2" d="M710.05,297.26a27.28,27.28,0,0,0-11.53,2.54,28.11,28.11,0,0,0-4.32,2.51,27.64,27.64,0,0,0-9.2,11.13,26.9,26.9,0,0,0-1.65,4.72,27.49,27.49,0,0,0,4.37,22.63,28.06,28.06,0,0,0,3.28,3.77,27.39,27.39,0,0,0,16.55,7.58c.82.08,1.66.12,2.5.12s1.67,0,2.5-.12a27.55,27.55,0,0,0,22.55-16.06,26.87,26.87,0,0,0,1.64-4.72A27.36,27.36,0,0,0,735,313.24a27.6,27.6,0,0,0-25-16Zm0,50a22.5,22.5,0,1,1,22.5-22.5A22.52,22.52,0,0,1,710.05,347.26Z"/><path class="cls-2" d="M72.55,417.21a27.41,27.41,0,0,0,15.85-5A27.64,27.64,0,0,0,97.6,401a27.48,27.48,0,0,0,2.45-11.32,27.48,27.48,0,0,0-2.45-11.32A27.63,27.63,0,0,0,80.18,363.3a26.65,26.65,0,0,0-4.91-.95A27.26,27.26,0,0,0,61,364.75a28.11,28.11,0,0,0-4.32,2.51,27.47,27.47,0,0,0-11.53,19.95c-.08.83-.12,1.66-.12,2.5s0,1.68.12,2.5a27.47,27.47,0,0,0,11.53,20,27.41,27.41,0,0,0,15.85,5Zm-22.5-27.5a22.5,22.5,0,1,1,22.5,22.5A22.53,22.53,0,0,1,50.05,389.71Z"/><path class="cls-2" d="M447.55,417.21A27.48,27.48,0,0,0,470,405.56a28.11,28.11,0,0,0,2.51-4.32,27.45,27.45,0,0,0-9.11-34,28.21,28.21,0,0,0-4.33-2.51,27.42,27.42,0,0,0-23.05,0,28.11,28.11,0,0,0-4.32,2.51,27.64,27.64,0,0,0-9.2,11.13,27.18,27.18,0,0,0-1.65,4.72,27.62,27.62,0,0,0,0,13.2A26.9,26.9,0,0,0,422.5,401a27.64,27.64,0,0,0,9.2,11.13,27.31,27.31,0,0,0,15.85,5Zm-22.5-27.5a22.5,22.5,0,1,1,22.5,22.5A22.53,22.53,0,0,1,425.05,389.71Z"/><path class="cls-2" d="M897.55,362.21A27.43,27.43,0,0,0,886,364.75a28.11,28.11,0,0,0-4.32,2.51,27.64,27.64,0,0,0-9.2,11.13,27.18,27.18,0,0,0-1.65,4.72,27.63,27.63,0,0,0,0,13.2A26.9,26.9,0,0,0,872.5,401a27.54,27.54,0,0,0,22.55,16.06c.82.08,1.66.12,2.5.12s1.67,0,2.5-.12a27.47,27.47,0,0,0,20-11.53,28.11,28.11,0,0,0,2.51-4.32,27.39,27.39,0,0,0,1.73-18.13,27.15,27.15,0,0,0-1.64-4.72,27.64,27.64,0,0,0-9.2-11.13,28.21,28.21,0,0,0-4.33-2.51A27.42,27.42,0,0,0,897.55,362.21Zm22.5,27.5a22.5,22.5,0,1,1-22.5-22.5A22.53,22.53,0,0,1,920.05,389.71Z"/><path class="cls-2" d="M252.42,481.08a27.46,27.46,0,0,0,30.08-10.57,27.31,27.31,0,0,0,5.05-15.85,27.48,27.48,0,0,0-2.45-11.32,27.55,27.55,0,0,0-22.55-16.06c-.83-.07-1.66-.12-2.5-.12s-1.68,0-2.5.12a27.48,27.48,0,0,0-22.46,38.91,26.88,26.88,0,0,0,2.51,4.32A27.57,27.57,0,0,0,252.42,481.08Zm7.63-48.92a22.5,22.5,0,1,1-22.5,22.5A22.53,22.53,0,0,1,260.05,432.16Z"/><path class="cls-2" d="M537.6,438.81a27.49,27.49,0,0,0,19.95,43.24c.82.07,1.66.11,2.5.11s1.67,0,2.5-.11a27.54,27.54,0,0,0,24.88-24.89c.07-.82.12-1.65.12-2.5s0-1.67-.12-2.5a27.47,27.47,0,0,0-35-23.91A27.6,27.6,0,0,0,537.6,438.81Zm44.95,15.85a22.5,22.5,0,1,1-22.5-22.5A22.53,22.53,0,0,1,582.55,454.66Z"/><path class="cls-2" d="M707.55,427.28a27.54,27.54,0,0,0-24.88,24.88c-.08.83-.12,1.66-.12,2.5s0,1.68.12,2.5a27.31,27.31,0,0,0,5.05,13.53,28.14,28.14,0,0,0,3.28,3.78,27.48,27.48,0,0,0,34.9,2.65A27.77,27.77,0,0,0,735.1,466a27.43,27.43,0,0,0,0-22.65,27.55,27.55,0,0,0-22.55-16.06c-.83-.07-1.66-.12-2.5-.12S708.37,427.21,707.55,427.28Zm25,27.38a22.5,22.5,0,1,1-22.5-22.5A22.53,22.53,0,0,1,732.55,454.66Z"/><path class="cls-2" d="M24.93,522.11c.07-.82.12-1.65.12-2.5s-.05-1.67-.12-2.5A27.54,27.54,0,0,0,13.4,497.16a26.92,26.92,0,0,0-4.33-2.5A27.37,27.37,0,0,0,0,492.23v5a22.53,22.53,0,0,1,20.05,22.36A22.54,22.54,0,0,1,0,542v5H.05A27.54,27.54,0,0,0,24.93,522.11Z"/><path class="cls-2" d="M175.05,519.61a27.5,27.5,0,0,0-54.88-2.5c-.08.83-.12,1.66-.12,2.5s0,1.68.12,2.5a27.31,27.31,0,0,0,5,13.53,28.14,28.14,0,0,0,3.28,3.78,27.49,27.49,0,0,0,46.55-19.81Zm-50,0a22.5,22.5,0,1,1,22.5,22.5A22.53,22.53,0,0,1,125.05,519.61Z"/><path class="cls-2" d="M388.4,497.16a27.43,27.43,0,0,0-38.3,6.61,26.88,26.88,0,0,0-2.51,4.32,27.42,27.42,0,0,0,2.63,27.55,28.14,28.14,0,0,0,3.28,3.78A27.39,27.39,0,0,0,370.05,547c.82.07,1.66.11,2.5.11s1.67,0,2.5-.11a27.54,27.54,0,0,0,24.19-20.78,27.43,27.43,0,0,0-1.64-17.93A27.7,27.7,0,0,0,388.4,497.16Zm-15.85,44.95a22.5,22.5,0,1,1,22.5-22.5A22.52,22.52,0,0,1,372.55,542.11Z"/><path class="cls-2" d="M900.05,492.23c-.83-.07-1.66-.12-2.5-.12s-1.68.05-2.5.12a27.47,27.47,0,0,0-25,27.38,27.28,27.28,0,0,0,2.54,11.53,26.88,26.88,0,0,0,2.51,4.32,27.44,27.44,0,0,0,22.45,11.65c.92,0,1.83,0,2.73-.13a27.33,27.33,0,0,0,4.91-1,27.55,27.55,0,0,0,19-19.81,27.39,27.39,0,0,0-1.73-18.13,27.67,27.67,0,0,0-22.46-15.86Zm-2.5,49.88a22.5,22.5,0,1,1,22.5-22.5A22.52,22.52,0,0,1,897.55,542.11Z"/><path class="cls-2" d="M587.43,582.07a27.53,27.53,0,0,0-24.88-24.88c-.83-.08-1.66-.12-2.5-.12s-1.68,0-2.5.12a27.51,27.51,0,0,0-24.2,34,27.18,27.18,0,0,0,1.65,4.72A27.55,27.55,0,0,0,557.55,612c.82.07,1.66.12,2.5.12s1.67-.05,2.5-.12a27.39,27.39,0,0,0,16.55-7.58,26.8,26.8,0,0,0,3.27-3.78,27.16,27.16,0,0,0,5.06-13.52c.07-.83.12-1.66.12-2.5S587.5,582.89,587.43,582.07Zm-27.38,25a22.5,22.5,0,1,1,22.5-22.5A22.53,22.53,0,0,1,560.05,607.07Z"/><path class="cls-2" d="M757.67,582.07c-.08.82-.12,1.65-.12,2.5s0,1.67.12,2.5A27.47,27.47,0,0,0,769.2,607a28.11,28.11,0,0,0,4.32,2.51,27.42,27.42,0,0,0,30.61-5.19,28,28,0,0,0,3.27-3.78A27.42,27.42,0,0,0,810,573a27.64,27.64,0,0,0-25-16,27.28,27.28,0,0,0-11.53,2.54,26.57,26.57,0,0,0-4.32,2.51A27.47,27.47,0,0,0,757.67,582.07Zm49.88,2.5a22.5,22.5,0,1,1-22.5-22.5A22.53,22.53,0,0,1,807.55,584.57Z"/><path class="cls-2" d="M24.93,652c.07-.82.12-1.66.12-2.5s-.05-1.68-.12-2.5a27.23,27.23,0,0,0-5.06-13.53,27.29,27.29,0,0,0-3.27-3.77A27.39,27.39,0,0,0,.05,622.14H0v5a22.52,22.52,0,0,1,20.05,22.36A22.52,22.52,0,0,1,0,671.88v5a27.12,27.12,0,0,0,9.07-2.42A28.21,28.21,0,0,0,13.4,672,27.51,27.51,0,0,0,24.93,652Z"/><path class="cls-2" d="M249.93,647a27.5,27.5,0,0,0-8.33-17.3,27.27,27.27,0,0,0-16.33-7.56,27.26,27.26,0,0,0-14.25,2.4,28.11,28.11,0,0,0-4.32,2.51A27.47,27.47,0,0,0,195.17,647c-.08.82-.12,1.66-.12,2.5s0,1.68.12,2.5a27.31,27.31,0,0,0,5.05,13.53,28.06,28.06,0,0,0,3.28,3.77,27.39,27.39,0,0,0,16.55,7.58c.82.08,1.66.12,2.5.12s1.67,0,2.5-.12A27.53,27.53,0,0,0,249.93,652c.07-.82.12-1.66.12-2.5S250,647.84,249.93,647Zm-27.38,25a22.5,22.5,0,1,1,22.5-22.5A22.52,22.52,0,0,1,222.55,672Z"/><path class="cls-2" d="M375.05,622.14c-.83-.08-1.66-.12-2.5-.12s-1.68,0-2.5.12A27.53,27.53,0,0,0,345.17,647c-.08.82-.12,1.66-.12,2.5s0,1.68.12,2.5a27.31,27.31,0,0,0,5.05,13.53,28.06,28.06,0,0,0,3.28,3.77,27.41,27.41,0,0,0,30.57,5.16A28.21,28.21,0,0,0,388.4,672a27.64,27.64,0,0,0,9.2-11.13,26.87,26.87,0,0,0,1.64-4.72,27.29,27.29,0,0,0,0-13.2,26.87,26.87,0,0,0-1.64-4.72A27.55,27.55,0,0,0,375.05,622.14ZM372.55,672a22.5,22.5,0,1,1,22.5-22.5A22.52,22.52,0,0,1,372.55,672Z"/><path class="cls-2" d="M587.43,712a27.53,27.53,0,0,0-24.88-24.88c-.83-.07-1.66-.12-2.5-.12s-1.68,0-2.5.12A27.55,27.55,0,0,0,535,703.15a27.18,27.18,0,0,0-1.65,4.72,27.67,27.67,0,0,0-.8,6.6,27.47,27.47,0,0,0,43.35,22.45A27.51,27.51,0,0,0,587.43,717c.07-.82.12-1.66.12-2.5S587.5,712.8,587.43,712Zm-27.38,25a22.5,22.5,0,1,1,22.5-22.5A22.52,22.52,0,0,1,560.05,737Z"/><path class="cls-2" d="M737.43,711.92A27.52,27.52,0,0,0,725.9,692a28.21,28.21,0,0,0-4.33-2.51A27.41,27.41,0,0,0,691,694.67a28.06,28.06,0,0,0-3.28,3.77A27.31,27.31,0,0,0,682.67,712c-.08.83-.12,1.66-.12,2.5s0,1.68.12,2.5a27.51,27.51,0,0,0,27.38,25c.92,0,1.82-.05,2.72-.13a28.61,28.61,0,0,0,4.91-1,27.53,27.53,0,0,0,14.69-10.39,27.18,27.18,0,0,0,5.06-13.58c.08-.81.12-1.62.12-2.45S737.5,712.76,737.43,711.92ZM710.05,737a22.5,22.5,0,1,1,22.5-22.5A22.52,22.52,0,0,1,710.05,737Z"/><path class="cls-2" d="M916,694.25a27.6,27.6,0,0,0-8.3,17.33c-.07.8-.11,1.62-.11,2.44s0,1.72.12,2.56a27.5,27.5,0,0,0,54.75,0c.08-.85.13-1.71.13-2.58s0-1.62-.11-2.42a27.39,27.39,0,0,0-5-13.57,28,28,0,0,0-3.27-3.78,27.38,27.38,0,0,0-19.08-7.73c-.92,0-1.83.05-2.73.14A27.48,27.48,0,0,0,916,694.25ZM957.55,714a22.5,22.5,0,1,1-22.5-22.5A22.53,22.53,0,0,1,957.55,714Z"/><path class="cls-2" d="M94.87,763.4a26.8,26.8,0,0,0-3.27-3.78A27.41,27.41,0,0,0,61,754.46,27.75,27.75,0,0,0,56.7,757a27.47,27.47,0,0,0-11.64,21.89h5a22.49,22.49,0,0,1,45,0h5c0-.65,0-1.3-.1-1.94A27.2,27.2,0,0,0,94.87,763.4Z"/><path class="cls-2" d="M244.87,763.4a26.8,26.8,0,0,0-3.27-3.78A27.39,27.39,0,0,0,225.05,752c-.83-.07-1.66-.12-2.5-.12s-1.68.05-2.5.12a27.53,27.53,0,0,0-24.88,24.88c-.06.64-.09,1.29-.11,1.94h5a22.49,22.49,0,0,1,45,0h5c0-.65,0-1.3-.1-1.94A27.2,27.2,0,0,0,244.87,763.4Z"/><path class="cls-2" d="M447.55,751.92A27.43,27.43,0,0,0,436,754.46,28.11,28.11,0,0,0,431.7,757a27.47,27.47,0,0,0-11.53,19.95c-.06.64-.09,1.29-.11,1.94h5a22.49,22.49,0,0,1,45,0h5a27.22,27.22,0,0,0-2.52-11,28.21,28.21,0,0,0-2.51-4.33A27.48,27.48,0,0,0,447.55,751.92Z"/><path class="cls-2" d="M982.55,194.86a27.51,27.51,0,0,0,11.65,22.45,28.11,28.11,0,0,0,4.32,2.51,27.42,27.42,0,0,0,23.05,0,28.21,28.21,0,0,0,4.33-2.51A27.48,27.48,0,1,0,987.6,179a26.88,26.88,0,0,0-2.51,4.32A27.28,27.28,0,0,0,982.55,194.86Zm27.5-22.5a22.5,22.5,0,1,1-22.5,22.5A22.53,22.53,0,0,1,1010.05,172.36Z"/><path class="cls-2" d="M47.59,11.52a27,27,0,0,0,2.51,4.33A27.46,27.46,0,0,0,72.55,27.5a27.22,27.22,0,0,0,2.72-.14,26.65,26.65,0,0,0,4.91-.95A27.55,27.55,0,0,0,95,15.85a27.75,27.75,0,0,0,2.51-4.33A27.39,27.39,0,0,0,100.05,0h-5a22.53,22.53,0,0,1-22.5,22.5A22.52,22.52,0,0,1,50.05,0h-5A27.24,27.24,0,0,0,47.59,11.52Z"/><path class="cls-2" d="M520.05,27.38c.82.08,1.66.12,2.5.12s1.67,0,2.5-.12A27.53,27.53,0,0,0,549.93,2.5c.07-.82.12-1.66.12-2.5h-5a22.53,22.53,0,0,1-22.5,22.5A22.52,22.52,0,0,1,500.05,0h-5a27.24,27.24,0,0,0,2.54,11.52,27,27,0,0,0,2.51,4.33A27.47,27.47,0,0,0,520.05,27.38Z"/><path class="cls-2" d="M650.22,16a28.06,28.06,0,0,0,3.28,3.77,27.36,27.36,0,0,0,11.42,6.61,26.49,26.49,0,0,0,4.91.95,27.06,27.06,0,0,0,2.72.14A27.27,27.27,0,0,0,684.07,25a28.21,28.21,0,0,0,4.33-2.51A27.48,27.48,0,0,0,700.05,0h-5a22.53,22.53,0,0,1-22.5,22.5A22.52,22.52,0,0,1,650.05,0h-5c0,.84,0,1.68.12,2.5A27.31,27.31,0,0,0,650.22,16Z"/><path class="cls-2" d="M878.5,19.8a27.39,27.39,0,0,0,16.55,7.58c.82.08,1.66.12,2.5.12s1.67,0,2.5-.12A27.53,27.53,0,0,0,924.93,2.5c.07-.82.12-1.66.12-2.5h-5a22.53,22.53,0,0,1-22.5,22.5A22.52,22.52,0,0,1,875.05,0h-5a27.36,27.36,0,0,0,5.17,16A28.06,28.06,0,0,0,878.5,19.8Z"/><path class="cls-2" d="M1025.22,16a28.06,28.06,0,0,0,3.28,3.77,27.44,27.44,0,0,0,10,6.16V20.59A22.54,22.54,0,0,1,1025.05,0h-5c0,.84,0,1.68.12,2.5A27.31,27.31,0,0,0,1025.22,16Z"/><path class="cls-2" d="M982.55,454.66a27.28,27.28,0,0,0,2.54,11.53,26.88,26.88,0,0,0,2.51,4.32,27.49,27.49,0,0,0,49.83-13.35c.07-.82.12-1.65.12-2.5s0-1.67-.12-2.5a27.51,27.51,0,0,0-11.53-20,28.21,28.21,0,0,0-4.33-2.51,27.51,27.51,0,0,0-39,25Zm27.5-22.5a22.5,22.5,0,1,1-22.5,22.5A22.53,22.53,0,0,1,1010.05,432.16Z"/></g></g></svg>