<svg xmlns="http://www.w3.org/2000/svg" viewBox="0 0 1038.48 778.86"><defs><style>.cls-1{fill:none;}.cls-2{fill:lime;}</style></defs><title>Element 18</title><g id="Ebene_2" data-name="Ebene 2"><g id="Ebene_1-2" data-name="Ebene 1"><path class="cls-1" d="M577.21,602.74a24.92,24.92,0,0,1-14.66,6.7V689.6A25,25,0,0,1,584.92,712H685.17a24.88,24.88,0,0,1,4.44-11.89Z"/><path class="cls-1" d="M545.34,140.18l69.42,40.08a25,25,0,0,1,20.29-10.4c.76,0,1.5,0,2.24.1l28.1-146a24.89,24.89,0,0,1-10-5.78L543,115.51a25,25,0,0,1,2.36,24.67Z"/><path class="cls-1" d="M1027.11,14.39a24.88,24.88,0,0,1-4.44-11.89H922.42a25,25,0,0,1-22.37,22.38V105a24.92,24.92,0,0,1,14.66,6.7Z"/><path class="cls-1" d="M352.11,663.91A24.88,24.88,0,0,1,347.67,652H247.42a25,25,0,0,1-22.37,22.37v80.16a24.92,24.92,0,0,1,14.66,6.7Z"/><path class="cls-1" d="M208,629.23l-50.13-86.82a25,25,0,0,1-27.43-4.63L18,635.13A24.78,24.78,0,0,1,22.42,647H197.67A25,25,0,0,1,208,629.23Z"/><path class="cls-1" d="M280.34,310.16l69.42-40.08a25,25,0,0,1,0-20.54l-69.42-40.08a25,25,0,0,1-17.79,10.27v80.15A25,25,0,0,1,280.34,310.16Z"/><path class="cls-1" d="M89.71,761.25l112.4-97.34A24.88,24.88,0,0,1,197.67,652H22.42a25,25,0,0,1-10.27,17.79l50.13,86.82a25,25,0,0,1,27.43,4.62Z"/><path class="cls-1" d="M689.61,469.06a24.92,24.92,0,0,1-4.44-11.9H584.92a25,25,0,0,1-22.37,22.38v80.15a24.88,24.88,0,0,1,14.66,6.71Z"/><path class="cls-1" d="M832.82,237,883,150.19a25,25,0,0,1-10.28-17.79H772.42a25,25,0,0,1-10.27,17.79L812.28,237a25,25,0,0,1,20.54,0Z"/><path class="cls-1" d="M712.55,349.63v80.16a25,25,0,0,1,20.18,14.37l140.5-48.67a24.91,24.91,0,0,1,0-11.56l-140.5-48.67A25,25,0,0,1,712.55,349.63Z"/><path class="cls-1" d="M22.42,522.11A25,25,0,0,1,.05,544.49v80.15a25,25,0,0,1,14.66,6.71L127.11,534a24.88,24.88,0,0,1-4.44-11.9Z"/><path class="cls-1" d="M93,765a24.78,24.78,0,0,1,4.44,11.89H197.67a25,25,0,0,1,22.38-22.37V674.39a24.9,24.9,0,0,1-14.66-6.7Z"/><path class="cls-1" d="M372.55,494.62a25,25,0,0,1,10.27,2.2L433,410a25.15,25.15,0,0,1-8.09-9.78L284.37,448.88a25,25,0,0,1-1.53,16.06L352.26,505A25,25,0,0,1,372.55,494.62Z"/><path class="cls-1" d="M542.84,245.21l69.42-40.08a25,25,0,0,1,0-20.55L542.84,144.5a25,25,0,0,1-17.79,10.28v80.15A25,25,0,0,1,542.84,245.21Z"/><path class="cls-1" d="M685.17,452.16a25,25,0,0,1,22.38-22.37V349.64a25,25,0,0,1-14.66-6.71L580.48,440.27a24.78,24.78,0,0,1,4.44,11.89Z"/><path class="cls-1" d="M239.76,469.26l-69.42,40.08a25,25,0,0,1-8.19,30.56l50.13,86.83a24.8,24.8,0,0,1,10.27-2.21c.76,0,1.5,0,2.24.1l28.1-146A25,25,0,0,1,239.76,469.26Z"/><path class="cls-1" d="M355.39,667.69,243,765a24.78,24.78,0,0,1,4.44,11.89H422.67A25,25,0,0,1,433,759.14l-50.13-86.83a25,25,0,0,1-27.43-4.62Z"/><path class="cls-1" d="M74.79,364.82l28.1-146a25,25,0,0,1-13.13-9.35L20.34,249.54a25,25,0,0,1,2.21,10.27,25,25,0,0,1-10.4,20.29l50.13,86.82a25,25,0,0,1,10.27-2.21C73.31,364.71,74.05,364.75,74.79,364.82Z"/><path class="cls-1" d="M472.55,389.71A25,25,0,0,1,470.34,400l69.42,40.08a25,25,0,0,1,13.13-9.35l-28.1-146c-.74.07-1.48.11-2.24.11a25,25,0,0,1-10.27-2.21l-50.13,86.82A25,25,0,0,1,472.55,389.71Z"/><path class="cls-1" d="M535.73,708.69,395.23,660a25,25,0,0,1-8.08,9.79l50.13,86.82a25,25,0,0,1,30.56,8.19l69.42-40.08a24.95,24.95,0,0,1-1.53-16Z"/><path class="cls-1" d="M120.32,172.06l50.13-86.82a25,25,0,0,1-8.19-30.56L92.84,14.6A25,25,0,0,1,79.71,24L107.8,170c.74-.06,1.49-.1,2.25-.1A25,25,0,0,1,120.32,172.06Z"/><path class="cls-1" d="M395.23,509.11l140.5-48.67a24.95,24.95,0,0,1,1.53-16.05l-69.42-40.08a25,25,0,0,1-30.56,8.19l-50.13,86.83A25,25,0,0,1,395.23,509.11Z"/><path class="cls-1" d="M724.65,475l50.13,86.83A25,25,0,0,1,805.34,570l69.42-40.08a24.95,24.95,0,0,1-1.53-16l-140.5-48.67A25,25,0,0,1,724.65,475Z"/><path class="cls-1" d="M22.42,517.11H122.67A25,25,0,0,1,133,499.33L82.82,412.5a25,25,0,0,1-20.54,0L12.15,499.33A24.93,24.93,0,0,1,22.42,517.11Z"/><path class="cls-1" d="M167.84,505l69.42-40.08a25,25,0,0,1-1.53-16.06L95.23,400.22A25,25,0,0,1,87.15,410l50.13,86.82a25,25,0,0,1,30.56,8.2Z"/><path class="cls-1" d="M432.84,75.22l69.42,40.08A25,25,0,0,1,520.05,105V24.88A25,25,0,0,1,502.26,14.6L432.84,54.68a25,25,0,0,1,0,20.54Z"/><path class="cls-1" d="M537.36,465.17,396.87,513.84a24.86,24.86,0,0,1,0,11.55l140.49,48.67a25,25,0,0,1,20.19-14.37V479.54A25,25,0,0,1,537.36,465.17Z"/><path class="cls-1" d="M802.26,274.41l-69.42,40.08a24.95,24.95,0,0,1,1.53,16.05l140.49,48.67a25.11,25.11,0,0,1,8.09-9.79L832.82,282.6a25,25,0,0,1-30.56-8.19Z"/><path class="cls-1" d="M649.65,215.14,699.78,302a25,25,0,0,1,30.56,8.19l69.42-40.08a24.95,24.95,0,0,1-1.53-16l-140.5-48.67A25,25,0,0,1,649.65,215.14Z"/><path class="cls-1" d="M239.61,310.37,127.21,213a24.91,24.91,0,0,1-17.16,6.83c-.76,0-1.51,0-2.25-.11l-28.09,146a25,25,0,0,1,15.52,13.45l140.5-48.67a25,25,0,0,1,3.88-20.17Z"/><path class="cls-1" d="M897.55,154.9a25,25,0,0,1-10.27-2.2l-50.13,86.82a25,25,0,0,1,8.08,9.78l140.5-48.66a25,25,0,0,1,1.53-16.06L917.84,144.5A25,25,0,0,1,897.55,154.9Z"/><path class="cls-1" d="M497.67,257.31a25,25,0,0,1,22.38-22.38V154.78a24.85,24.85,0,0,1-14.66-6.71L393,245.42a24.78,24.78,0,0,1,4.44,11.89Z"/><path class="cls-1" d="M802.24,602.71a25,25,0,0,1-27.46,4.65l-50.13,86.82a25,25,0,0,1,10.27,17.74l175.25-.35a24.79,24.79,0,0,1,4.42-11.9Z"/><path class="cls-1" d="M235.17,197.36H134.92a24.78,24.78,0,0,1-4.44,11.89l112.41,97.34a25,25,0,0,1,14.66-6.71V219.73A25,25,0,0,1,235.17,197.36Z"/><path class="cls-1" d="M457.82,366.92,508,280.1a25,25,0,0,1-10.28-17.79H397.42a25,25,0,0,1-10.27,17.79l50.13,86.82a25,25,0,0,1,20.54,0Z"/><path class="cls-1" d="M199.65,85.24l50.13,86.82a25,25,0,0,1,27.43,4.63l112.4-97.35a24.88,24.88,0,0,1-4.44-11.89H209.92A25,25,0,0,1,199.65,85.24Z"/><path class="cls-1" d="M134.92,192.36H235.17a25,25,0,0,1,10.28-17.79L195.32,87.74a25,25,0,0,1-20.54,0l-50.13,86.83A25,25,0,0,1,134.92,192.36Z"/><path class="cls-1" d="M537.36,595.07,396.87,643.74a24.91,24.91,0,0,1,0,11.56L537.36,704a25,25,0,0,1,20.19-14.37V609.44A25,25,0,0,1,537.36,595.07Z"/><path class="cls-1" d="M257.55,429.79V349.63a25,25,0,0,1-20.19-14.37L96.87,383.93a24.91,24.91,0,0,1,0,11.56l140.49,48.67A25,25,0,0,1,257.55,429.79Z"/><path class="cls-1" d="M987.36,205.36,846.87,254a25,25,0,0,1-9.72,26.07l50.13,86.82a25,25,0,0,1,20.54,0l87.63-151.78A25.08,25.08,0,0,1,987.36,205.36Z"/><path class="cls-1" d="M497.8,133.45a25.91,25.91,0,0,1-.25-3.55,24.84,24.84,0,0,1,2.21-10.27L430.34,79.55a25,25,0,0,1-37.45,3.57l-112.4,97.34a25.43,25.43,0,0,1,3.11,6Z"/><path class="cls-1" d="M284.79,191.31a24.42,24.42,0,0,1,.26,3.55,25,25,0,0,1-2.21,10.27l69.42,40.08a25,25,0,0,1,37.45-3.57l112.4-97.34a25.43,25.43,0,0,1-3.11-6Z"/><path class="cls-1" d="M808,239.52l-50.13-86.83a25,25,0,0,1-30.56-8.19l-69.42,40.08a25,25,0,0,1,1.53,16.06L799.86,249.3A25.15,25.15,0,0,1,808,239.52Z"/><path class="cls-1" d="M352.11,534a25,25,0,0,1-2.35-24.67l-69.42-40.08a25,25,0,0,1-20.29,10.4c-.76,0-1.51,0-2.25-.1l-28.09,146a25,25,0,0,1,10,5.79Z"/><path class="cls-1" d="M734.37,460.44l140.49,48.67a25,25,0,0,1,20.19-14.37V414.59a25,25,0,0,1-20.19-14.37L734.37,448.88a24.91,24.91,0,0,1,0,11.56Z"/><path class="cls-1" d="M546.87,265.59l140.49,48.67a25.11,25.11,0,0,1,8.09-9.79l-50.13-86.82a25,25,0,0,1-30.56-8.19l-69.42,40.08a24.95,24.95,0,0,1,1.53,16Z"/><path class="cls-1" d="M900.05,414.59v80.15A25,25,0,0,1,917.84,505l69.42-40.08a25,25,0,0,1,0-20.55l-69.42-40.08A25,25,0,0,1,900.05,414.59Z"/><path class="cls-1" d="M872.67,127.4A25,25,0,0,1,895.05,105V24.88a25,25,0,0,1-14.66-6.71L768,115.51a24.78,24.78,0,0,1,4.44,11.89Z"/><path class="cls-1" d="M423.23,383.93l-140.5-48.67a25,25,0,0,1-20.18,14.37v80.16a25,25,0,0,1,20.18,14.37l140.5-48.67a24.9,24.9,0,0,1,0-11.56Z"/><path class="cls-1" d="M370.05,624.64V544.49a24.85,24.85,0,0,1-14.66-6.71L243,635.13A24.87,24.87,0,0,1,247.42,647H347.67A25,25,0,0,1,370.05,624.64Z"/><path class="cls-1" d="M655.34,180.26l69.42-40.08A25,25,0,0,1,733,109.62L682.82,22.79A24.8,24.8,0,0,1,672.55,25c-.76,0-1.51,0-2.25-.11l-28.1,146A25,25,0,0,1,655.34,180.26Z"/><path class="cls-1" d="M529.7,283.76l28.1,146c.74-.07,1.49-.11,2.25-.11a24.91,24.91,0,0,1,17.16,6.83l112.4-97.34A25,25,0,0,1,685.73,319l-140.5-48.67A25,25,0,0,1,529.7,283.76Z"/><path class="cls-1" d="M760.17,587.07H584.92A24.78,24.78,0,0,1,580.48,599L692.89,696.3a25,25,0,0,1,27.43-4.62l50.13-86.82A25,25,0,0,1,760.17,587.07Z"/><path class="cls-1" d="M352.26,274.41l-69.42,40.08a24.95,24.95,0,0,1,1.53,16.05l140.49,48.67a25.11,25.11,0,0,1,8.09-9.79L382.82,282.6a25,25,0,0,1-30.56-8.19Z"/><path class="cls-1" d="M877.26,534.22,807.84,574.3a25,25,0,0,1-2.33,24.62l112.35,97a25,25,0,0,1,10-5.81L899.8,544.51c-.74.07-1.49.11-2.25.11A25,25,0,0,1,877.26,534.22Z"/><path class="cls-1" d="M692.89,472.83,580.48,570.18a24.78,24.78,0,0,1,4.44,11.89H760.17a25,25,0,0,1,10.28-17.79l-50.13-86.83a25,25,0,0,1-27.43-4.62Z"/><path class="cls-1" d="M652.11,14.39A24.88,24.88,0,0,1,647.67,2.5H547.42a25,25,0,0,1-22.37,22.38V105a24.92,24.92,0,0,1,14.66,6.7Z"/><path class="cls-1" d="M375.05,544.49v80.15A25,25,0,0,1,395.23,639l140.5-48.66a24.91,24.91,0,0,1,0-11.56l-140.5-48.67A25,25,0,0,1,375.05,544.49Z"/><path class="cls-2" d="M195.32,87.74,185.05,70,174.78,87.74a25,25,0,0,0,20.54,0Z"/><path class="cls-2" d="M209.92,67.45H189.38l10.27,17.79A25,25,0,0,0,209.92,67.45Z"/><path class="cls-2" d="M170.45,85.24l11.18-19.37L162.26,54.68a25,25,0,0,0,8.19,30.56Z"/><path class="cls-2" d="M209.92,62.45a25,25,0,0,0-10.27-17.79L189.38,62.45Z"/><path class="cls-2" d="M195.32,42.16a25,25,0,0,0-30.56,8.19l19.37,11.19Z"/><path class="cls-2" d="M389.61,50.56a24.88,24.88,0,0,0-4.44,11.89h18.17Z"/><path class="cls-2" d="M407.55,40.08a24.9,24.9,0,0,0-14.66,6.7l14.66,12.7Z"/><path class="cls-2" d="M430.34,50.35a25,25,0,0,0-17.79-10.27V60.62Z"/><path class="cls-2" d="M430.34,79.55,410.34,68,392.89,83.12a25,25,0,0,0,37.45-3.57Z"/><path class="cls-2" d="M435.05,65a25,25,0,0,0-2.21-10.27L415.05,65l17.79,10.27A25,25,0,0,0,435.05,65Z"/><path class="cls-2" d="M403.34,67.45H385.17a24.88,24.88,0,0,0,4.44,11.89Z"/><path class="cls-2" d="M497.8,133.45,515.93,129l-16.17-9.34a24.84,24.84,0,0,0-2.21,10.27A25.91,25.91,0,0,0,497.8,133.45Z"/><path class="cls-2" d="M502.11,144.3,513,134.83l-14,3.48A25.43,25.43,0,0,0,502.11,144.3Z"/><path class="cls-2" d="M520.05,135.38l-14.66,12.69a24.85,24.85,0,0,0,14.66,6.71Z"/><path class="cls-2" d="M547.55,129.9A24.82,24.82,0,0,0,543,115.51l-16.14,14,18.5,10.69A25,25,0,0,0,547.55,129.9Z"/><path class="cls-2" d="M525.05,105v19.4l14.66-12.7A24.92,24.92,0,0,0,525.05,105Z"/><path class="cls-2" d="M502.26,115.3l17.79,10.27V105A25,25,0,0,0,502.26,115.3Z"/><path class="cls-2" d="M542.84,144.5l-17.79-10.27v20.55A25,25,0,0,0,542.84,144.5Z"/><path class="cls-2" d="M772.42,132.4H751.88l10.27,17.79A25,25,0,0,0,772.42,132.4Z"/><path class="cls-2" d="M747.55,154.9a24.8,24.8,0,0,0,10.27-2.21l-11.19-19.37L727.26,144.5A25,25,0,0,0,747.55,154.9Z"/><path class="cls-2" d="M722.55,129.9a24.85,24.85,0,0,0,2.21,10.28L744.13,129,733,109.62A25,25,0,0,0,722.55,129.9Z"/><path class="cls-2" d="M764.71,111.73a25,25,0,0,0-10-5.78l-3.34,17.34Z"/><path class="cls-2" d="M768,115.51,754.25,127.4h18.17A24.78,24.78,0,0,0,768,115.51Z"/><path class="cls-2" d="M749.79,105c-.74-.07-1.48-.11-2.24-.11a25,25,0,0,0-10.27,2.21l9.08,15.74Z"/><path class="cls-2" d="M897.55,154.9a25,25,0,0,0,20.29-10.4l-19.38-11.18L887.28,152.7A25,25,0,0,0,897.55,154.9Z"/><path class="cls-2" d="M872.67,127.4h22.38V105A25,25,0,0,0,872.67,127.4Z"/><path class="cls-2" d="M883,150.19l10.27-17.79H872.67A25,25,0,0,0,883,150.19Z"/><path class="cls-2" d="M920.34,140.18a24.8,24.8,0,0,0,2.08-7.78H906.88Z"/><path class="cls-2" d="M900.05,105v19.4l14.66-12.7A24.92,24.92,0,0,0,900.05,105Z"/><path class="cls-2" d="M922.42,127.4A24.78,24.78,0,0,0,918,115.51L904.25,127.4Z"/><path class="cls-2" d="M110.05,169.86c-.76,0-1.51,0-2.25.1l3.44,17.84,9.08-15.74A25,25,0,0,0,110.05,169.86Z"/><path class="cls-2" d="M102.89,218.81l3.67-19.05-16.8,9.7A25,25,0,0,0,102.89,218.81Z"/><path class="cls-2" d="M116.75,197.36l13.73,11.89a24.78,24.78,0,0,0,4.44-11.89Z"/><path class="cls-2" d="M127.21,213l-15.52-13.45-3.89,20.17c.74.07,1.49.11,2.25.11A24.91,24.91,0,0,0,127.21,213Z"/><path class="cls-2" d="M102.89,170.9a24.91,24.91,0,0,0-10,5.79l13.34,11.55Z"/><path class="cls-2" d="M89.61,180.46a25,25,0,0,0-2.35,24.67l18.5-10.68Z"/><path class="cls-2" d="M124.65,174.57l-10.27,17.79h20.54A25,25,0,0,0,124.65,174.57Z"/><path class="cls-2" d="M280.49,180.46l-10.93,9.47,14-3.48A25.43,25.43,0,0,0,280.49,180.46Z"/><path class="cls-2" d="M280.34,209.46l-17.79-10.27v20.54A25,25,0,0,0,280.34,209.46Z"/><path class="cls-2" d="M284.79,191.31l-18.12,4.48,16.17,9.34a25,25,0,0,0,2.21-10.27A24.42,24.42,0,0,0,284.79,191.31Z"/><path class="cls-2" d="M260.05,169.86a25,25,0,0,0-10.27,2.2L260.7,191l16.51-14.29A24.86,24.86,0,0,0,260.05,169.86Z"/><path class="cls-2" d="M235.17,192.36h20.55l-10.27-17.79A25,25,0,0,0,235.17,192.36Z"/><path class="cls-2" d="M257.55,219.73V197.36H235.17A25,25,0,0,0,257.55,219.73Z"/><path class="cls-2" d="M612.26,205.13l17.79-10.27-17.79-10.28a25,25,0,0,0,0,20.55Z"/><path class="cls-2" d="M642.2,170.9l-3.66,19,16.8-9.69A25,25,0,0,0,642.2,170.9Z"/><path class="cls-2" d="M657.73,205.36l-17.16-6,9.08,15.73A25,25,0,0,0,657.73,205.36Z"/><path class="cls-2" d="M614.76,180.26l18.5,10.68,4-21c-.74-.06-1.48-.1-2.24-.1A25,25,0,0,0,614.76,180.26Z"/><path class="cls-2" d="M657.84,184.58l-16.8,9.7,18.33,6.36a25,25,0,0,0-1.53-16.06Z"/><path class="cls-2" d="M635.05,219.86a25,25,0,0,0,10.27-2.21l-11.19-19.38-19.37,11.19A25,25,0,0,0,635.05,219.86Z"/><path class="cls-2" d="M0,234.93v20.58l17.84-10.3A24.94,24.94,0,0,0,0,234.93Z"/><path class="cls-2" d="M22.55,259.81a25,25,0,0,0-2.21-10.27L1,260.72,12.15,280.1A25,25,0,0,0,22.55,259.81Z"/><path class="cls-2" d="M0,284.69a25.05,25.05,0,0,0,7.82-2.09L0,269.05Z"/><path class="cls-2" d="M349.76,270.08l17.79-10.27-17.79-10.27a25,25,0,0,0,0,20.54Z"/><path class="cls-2" d="M393,245.42l-13.73,11.89h18.17A24.78,24.78,0,0,0,393,245.42Z"/><path class="cls-2" d="M372.55,284.81a25,25,0,0,0,10.27-2.21l-11.19-19.38-19.37,11.19A25,25,0,0,0,372.55,284.81Z"/><path class="cls-2" d="M397.42,262.31H376.88l10.27,17.79A25,25,0,0,0,397.42,262.31Z"/><path class="cls-2" d="M352.26,245.21l20,11.54,17.45-15.11a25,25,0,0,0-37.45,3.57Z"/><path class="cls-2" d="M497.67,257.31h22.38V234.93A25,25,0,0,0,497.67,257.31Z"/><path class="cls-2" d="M545.23,270.31l-19.41-6.72,3.88,20.17A25,25,0,0,0,545.23,270.31Z"/><path class="cls-2" d="M508,280.1l10.27-17.79H497.67A25,25,0,0,0,508,280.1Z"/><path class="cls-2" d="M524.79,284.7l-3.43-17.84-9.08,15.74a25,25,0,0,0,10.27,2.21C523.31,284.81,524.05,284.77,524.79,284.7Z"/><path class="cls-2" d="M525.05,234.93v20.55l17.79-10.27A25,25,0,0,0,525.05,234.93Z"/><path class="cls-2" d="M547.55,259.81a25,25,0,0,0-2.21-10.27l-16.8,9.7,18.33,6.35A25.05,25.05,0,0,0,547.55,259.81Z"/><path class="cls-2" d="M822.55,234.81A24.8,24.8,0,0,0,812.28,237l10.27,17.79L832.82,237A24.8,24.8,0,0,0,822.55,234.81Z"/><path class="cls-2" d="M847.55,259.81a25,25,0,0,0-.68-5.78l-20.64,7.15,10.92,18.92A25,25,0,0,0,847.55,259.81Z"/><path class="cls-2" d="M822.55,284.81a25,25,0,0,0,10.27-2.21l-11.19-19.38-19.37,11.19A25,25,0,0,0,822.55,284.81Z"/><path class="cls-2" d="M799.76,270.08l16.8-9.7L798.23,254a24.95,24.95,0,0,0,1.53,16Z"/><path class="cls-2" d="M799.86,249.3,817,255.25,808,239.52A25.15,25.15,0,0,0,799.86,249.3Z"/><path class="cls-2" d="M837.15,239.52l-9.08,15.73,17.16-5.95A25,25,0,0,0,837.15,239.52Z"/><path class="cls-2" d="M257.55,349.63V328.27l-20.19,7A25,25,0,0,0,257.55,349.63Z"/><path class="cls-2" d="M235.05,324.76a25.05,25.05,0,0,0,.68,5.78l19.41-6.73-15.53-13.44A24.88,24.88,0,0,0,235.05,324.76Z"/><path class="cls-2" d="M282.84,314.49l-16.8,9.7,18.33,6.35a24.95,24.95,0,0,0-1.53-16.05Z"/><path class="cls-2" d="M262.55,299.88v20.55l17.79-10.27A25,25,0,0,0,262.55,299.88Z"/><path class="cls-2" d="M257.55,319.29V299.88a25,25,0,0,0-14.66,6.71Z"/><path class="cls-2" d="M282.73,335.26l-20.18-7v21.36A25,25,0,0,0,282.73,335.26Z"/><path class="cls-2" d="M732.73,335.26l-20.18-7v21.36A25,25,0,0,0,732.73,335.26Z"/><path class="cls-2" d="M732.84,314.49l-16.8,9.7,18.33,6.35a24.95,24.95,0,0,0-1.53-16.05Z"/><path class="cls-2" d="M687.36,314.26l17.17,5.94-9.08-15.73A25.11,25.11,0,0,0,687.36,314.26Z"/><path class="cls-2" d="M710.05,299.76A24.8,24.8,0,0,0,699.78,302L711,321.34l19.38-11.18A25,25,0,0,0,710.05,299.76Z"/><path class="cls-2" d="M707.55,330.23l-14.66,12.7a25,25,0,0,0,14.66,6.71Z"/><path class="cls-2" d="M689.61,339.15l15.53-13.45L685.73,319a25,25,0,0,0,3.88,20.17Z"/><path class="cls-2" d="M72.55,364.71a25,25,0,0,0-10.27,2.21l9.08,15.73,3.43-17.83C74.05,364.75,73.31,364.71,72.55,364.71Z"/><path class="cls-2" d="M82.82,412.5,72.55,394.71,62.28,412.5a25,25,0,0,0,20.54,0Z"/><path class="cls-2" d="M96.87,383.93l-16.68,5.78,16.68,5.78a24.91,24.91,0,0,0,0-11.56Z"/><path class="cls-2" d="M95.23,400.22l-17.16-6L87.15,410A25,25,0,0,0,95.23,400.22Z"/><path class="cls-2" d="M79.71,365.76l-3.89,20.17,19.41-6.72A25,25,0,0,0,79.71,365.76Z"/><path class="cls-2" d="M58,369.42a25,25,0,0,0-10.28,17.79H68.22Z"/><path class="cls-2" d="M47.67,392.21A25,25,0,0,0,58,410l10.27-17.79Z"/><path class="cls-2" d="M424.86,379.21,442,385.15,433,369.42A25.11,25.11,0,0,0,424.86,379.21Z"/><path class="cls-2" d="M433,410,442,394.27l-17.17,6A25.15,25.15,0,0,0,433,410Z"/><path class="cls-2" d="M447.55,364.71a25,25,0,0,0-10.27,2.21l10.27,17.79,10.27-17.79A25,25,0,0,0,447.55,364.71Z"/><path class="cls-2" d="M472.55,389.71a25,25,0,0,0-10.4-20.29L451,388.8,470.34,400A25,25,0,0,0,472.55,389.71Z"/><path class="cls-2" d="M467.84,404.31l-19.38-11.18L437.28,412.5a25,25,0,0,0,30.56-8.19Z"/><path class="cls-2" d="M422.55,389.71a25,25,0,0,0,.68,5.78l16.68-5.78-16.68-5.78A25.05,25.05,0,0,0,422.55,389.71Z"/><path class="cls-2" d="M895.05,414.59V393.22l-20.19,7A25,25,0,0,0,895.05,414.59Z"/><path class="cls-2" d="M920.23,379.21a25,25,0,0,0-8.08-9.79l-9.08,15.73Z"/><path class="cls-2" d="M920.34,400a24.95,24.95,0,0,0,1.53-16.05l-18.33,6.35Z"/><path class="cls-2" d="M887.28,366.92l10.27,17.79,10.27-17.79a25,25,0,0,0-20.54,0Z"/><path class="cls-2" d="M917.84,404.31,900.05,394v20.55A25,25,0,0,0,917.84,404.31Z"/><path class="cls-2" d="M873.23,395.49l16.68-5.78-16.68-5.78a24.91,24.91,0,0,0,0,11.56Z"/><path class="cls-2" d="M874.86,379.21,892,385.15,883,369.42A25.11,25.11,0,0,0,874.86,379.21Z"/><path class="cls-2" d="M237.26,464.94l16.8-9.7-18.33-6.36a25,25,0,0,0,1.53,16.06Z"/><path class="cls-2" d="M284.37,448.88,266,455.24l16.8,9.7a25,25,0,0,0,1.53-16.06Z"/><path class="cls-2" d="M237.36,444.16l20.19,7V429.79A25,25,0,0,0,237.36,444.16Z"/><path class="cls-2" d="M262.55,429.79v21.36l20.18-7A25,25,0,0,0,262.55,429.79Z"/><path class="cls-2" d="M280.34,469.26l-18.5-10.68-4,21c.74.06,1.49.1,2.25.1A25,25,0,0,0,280.34,469.26Z"/><path class="cls-2" d="M252.89,478.62l3.67-19.05-16.8,9.69A25,25,0,0,0,252.89,478.62Z"/><path class="cls-2" d="M580.48,440.27l-13.73,11.89h18.17A24.78,24.78,0,0,0,580.48,440.27Z"/><path class="cls-2" d="M584.92,457.16H562.55v22.38A25,25,0,0,0,584.92,457.16Z"/><path class="cls-2" d="M539.76,440.06l16.8,9.7-3.67-19.05A25,25,0,0,0,539.76,440.06Z"/><path class="cls-2" d="M557.55,479.54V458.18l-20.19,7A25,25,0,0,0,557.55,479.54Z"/><path class="cls-2" d="M557.8,429.77l3.89,20.17,15.52-13.45a24.91,24.91,0,0,0-17.16-6.83C559.29,429.66,558.54,429.7,557.8,429.77Z"/><path class="cls-2" d="M535.73,460.44l18.33-6.35-16.8-9.7a24.95,24.95,0,0,0-1.53,16.05Z"/><path class="cls-2" d="M732.73,465.17l-17.16-5.95L724.65,475A25,25,0,0,0,732.73,465.17Z"/><path class="cls-2" d="M712.55,429.79v21.36l20.18-7A25,25,0,0,0,712.55,429.79Z"/><path class="cls-2" d="M685.17,452.16h22.38V429.79A25,25,0,0,0,685.17,452.16Z"/><path class="cls-2" d="M710.05,479.66a24.8,24.8,0,0,0,10.27-2.21L709.4,458.54l-16.51,14.29A24.91,24.91,0,0,0,710.05,479.66Z"/><path class="cls-2" d="M703.34,457.16H685.17a24.92,24.92,0,0,0,4.44,11.9Z"/><path class="cls-2" d="M735.05,454.66a25.05,25.05,0,0,0-.68-5.78l-16.68,5.78,16.68,5.78A25,25,0,0,0,735.05,454.66Z"/><path class="cls-2" d="M0,494.74v15.63l7.82-13.55A25,25,0,0,0,0,494.74Z"/><path class="cls-2" d="M12.15,499.33,1.88,517.11H22.42A24.93,24.93,0,0,0,12.15,499.33Z"/><path class="cls-2" d="M22.42,522.11H.05v22.38A25,25,0,0,0,22.42,522.11Z"/><path class="cls-2" d="M127.11,534l13.73-11.9H122.67A24.88,24.88,0,0,0,127.11,534Z"/><path class="cls-2" d="M157.82,542.41,146.9,523.49l-16.51,14.29a25,25,0,0,0,27.43,4.63Z"/><path class="cls-2" d="M172.55,519.62a25,25,0,0,0-2.21-10.28L151,520.53l11.19,19.37A25,25,0,0,0,172.55,519.62Z"/><path class="cls-2" d="M147.55,494.62a25,25,0,0,0-10.27,2.2l11.18,19.38L167.84,505A25,25,0,0,0,147.55,494.62Z"/><path class="cls-2" d="M122.67,517.11h20.55L133,499.33A25,25,0,0,0,122.67,517.11Z"/><path class="cls-2" d="M396.87,513.84l-16.68,5.77,16.68,5.78a24.86,24.86,0,0,0,0-11.55Z"/><path class="cls-2" d="M370.05,525.09l-14.66,12.69a24.85,24.85,0,0,0,14.66,6.71Z"/><path class="cls-2" d="M372.55,494.62A25,25,0,0,0,352.26,505l19.37,11.18,11.19-19.38A25,25,0,0,0,372.55,494.62Z"/><path class="cls-2" d="M347.55,519.62A24.9,24.9,0,0,0,352.11,534l16.15-14-18.5-10.68A24.85,24.85,0,0,0,347.55,519.62Z"/><path class="cls-2" d="M395.23,530.12l-20.18-7v21.36A25,25,0,0,0,395.23,530.12Z"/><path class="cls-2" d="M387.15,499.33l-9.08,15.73,17.16-5.95A25,25,0,0,0,387.15,499.33Z"/><path class="cls-2" d="M897.55,544.62c.76,0,1.51,0,2.25-.11l-4-21-18.5,10.68A25,25,0,0,0,897.55,544.62Z"/><path class="cls-2" d="M874.76,529.89l16.8-9.7-18.33-6.35a24.95,24.95,0,0,0,1.53,16Z"/><path class="cls-2" d="M874.86,509.11l20.19,7V494.74A25,25,0,0,0,874.86,509.11Z"/><path class="cls-2" d="M921.87,525.39a24.95,24.95,0,0,0-1.53-16.05l-16.8,9.7Z"/><path class="cls-2" d="M904.72,543.57a25,25,0,0,0,15.51-13.45l-19.41-6.72Z"/><path class="cls-2" d="M900.05,494.74v20.54L917.84,505A25,25,0,0,0,900.05,494.74Z"/><path class="cls-2" d="M577.21,602.74,562.55,590v19.4A24.92,24.92,0,0,0,577.21,602.74Z"/><path class="cls-2" d="M562.55,559.69v19.4l14.66-12.69A24.88,24.88,0,0,0,562.55,559.69Z"/><path class="cls-2" d="M557.55,609.44V588.08l-20.19,7A25,25,0,0,0,557.55,609.44Z"/><path class="cls-2" d="M535.73,590.35l16.68-5.78-16.68-5.78a24.91,24.91,0,0,0,0,11.56Z"/><path class="cls-2" d="M566.75,582.07h18.17a24.78,24.78,0,0,0-4.44-11.89Z"/><path class="cls-2" d="M537.36,574.06l20.19,7V559.69A25,25,0,0,0,537.36,574.06Z"/><path class="cls-2" d="M566.75,587.07,580.48,599a24.78,24.78,0,0,0,4.44-11.89Z"/><path class="cls-2" d="M810.05,584.57a24.93,24.93,0,0,0-2.21-10.27L789.34,585l16.17,13.95A24.83,24.83,0,0,0,810.05,584.57Z"/><path class="cls-2" d="M770.45,604.86l10.27-17.79H760.17A25,25,0,0,0,770.45,604.86Z"/><path class="cls-2" d="M785.05,559.57a24.8,24.8,0,0,0-10.27,2.21L786,581.15,805.34,570A25,25,0,0,0,785.05,559.57Z"/><path class="cls-2" d="M760.17,582.07h20.55l-10.27-17.79A25,25,0,0,0,760.17,582.07Z"/><path class="cls-2" d="M785.05,609.57a24.9,24.9,0,0,0,17.19-6.86L785.7,588.43l-10.92,18.93A25,25,0,0,0,785.05,609.57Z"/><path class="cls-2" d="M0,674.4a24.78,24.78,0,0,0,7.82-2.09L0,658.77Z"/><path class="cls-2" d="M.05,644.05l14.66-12.7A25,25,0,0,0,.05,624.64Z"/><path class="cls-2" d="M22.42,652H1.88l10.27,17.79A25,25,0,0,0,22.42,652Z"/><path class="cls-2" d="M4.25,647H22.42A24.78,24.78,0,0,0,18,635.13Z"/><path class="cls-2" d="M197.67,647h20.55L208,629.23A25,25,0,0,0,197.67,647Z"/><path class="cls-2" d="M229.71,625.56l-3.34,17.35,13.34-11.56A25,25,0,0,0,229.71,625.56Z"/><path class="cls-2" d="M247.42,652H225.05v22.37A25,25,0,0,0,247.42,652Z"/><path class="cls-2" d="M220.05,674.39V655l-14.66,12.7A24.9,24.9,0,0,0,220.05,674.39Z"/><path class="cls-2" d="M215.84,652H197.67a24.88,24.88,0,0,0,4.44,11.89Z"/><path class="cls-2" d="M229.25,647h18.17A24.87,24.87,0,0,0,243,635.13Z"/><path class="cls-2" d="M212.28,626.73l9.08,15.73,3.43-17.84c-.74-.06-1.48-.1-2.24-.1A24.8,24.8,0,0,0,212.28,626.73Z"/><path class="cls-2" d="M375.05,624.64V646l20.18-7A25,25,0,0,0,375.05,624.64Z"/><path class="cls-2" d="M396.87,643.74l-16.68,5.78,16.68,5.78a24.91,24.91,0,0,0,0-11.56Z"/><path class="cls-2" d="M372.55,674.52a24.8,24.8,0,0,0,10.27-2.21L371.9,653.39l-16.51,14.3A24.91,24.91,0,0,0,372.55,674.52Z"/><path class="cls-2" d="M352.11,663.91,365.84,652H347.67A24.88,24.88,0,0,0,352.11,663.91Z"/><path class="cls-2" d="M347.67,647h22.38V624.64A25,25,0,0,0,347.67,647Z"/><path class="cls-2" d="M395.23,660l-17.16-5.94,9.08,15.73A25,25,0,0,0,395.23,660Z"/><path class="cls-2" d="M539.76,729.07a25,25,0,0,0,30.56,8.19l-11.19-19.37Z"/><path class="cls-2" d="M535.05,714.47a24.8,24.8,0,0,0,2.21,10.27l16.8-9.7-18.33-6.35A25.05,25.05,0,0,0,535.05,714.47Z"/><path class="cls-2" d="M574.65,734.76A25,25,0,0,0,584.92,717H564.38Z"/><path class="cls-2" d="M562.55,689.6V712h22.37A25,25,0,0,0,562.55,689.6Z"/><path class="cls-2" d="M537.36,704l20.19,7V689.6A25,25,0,0,0,537.36,704Z"/><path class="cls-2" d="M717.21,738.43a25,25,0,0,0,10-5.79l-13.34-11.55Z"/><path class="cls-2" d="M730.48,728.86a24.83,24.83,0,0,0,4.45-11.94l-18.19,0Z"/><path class="cls-2" d="M692.89,696.3l16.51,14.3,10.92-18.92a25,25,0,0,0-27.43,4.62Z"/><path class="cls-2" d="M699.78,737.26a24.8,24.8,0,0,0,10.27,2.21c.76,0,1.5,0,2.24-.1l-3.43-17.84Z"/><path class="cls-2" d="M724.65,694.18,714.38,712l20.54,0A25,25,0,0,0,724.65,694.18Z"/><path class="cls-2" d="M685.17,712h18.17l-13.73-11.89A24.88,24.88,0,0,0,685.17,712Z"/><path class="cls-2" d="M685.17,717a25,25,0,0,0,10.28,17.79L705.72,717Z"/><path class="cls-2" d="M931.23,707.42l-3.35-17.35a25,25,0,0,0-10,5.81Z"/><path class="cls-2" d="M910.18,716.57a25,25,0,0,0,10.3,17.76l10.24-17.8Z"/><path class="cls-2" d="M952.24,695.88A24.9,24.9,0,0,0,935.05,689c-.76,0-1.51,0-2.26.11l3.9,20.18Z"/><path class="cls-2" d="M910.17,711.57l18.17,0-13.75-11.87A24.79,24.79,0,0,0,910.17,711.57Z"/><path class="cls-2" d="M949.63,734.32a25,25,0,0,0,10.29-17.72l-20.54-.06Z"/><path class="cls-2" d="M959.93,711.6a24.86,24.86,0,0,0-4.42-11.93l-13.76,11.87Z"/><path class="cls-2" d="M924.81,736.83a25,25,0,0,0,20.49,0L935.05,719Z"/><path class="cls-2" d="M72.55,754.42a25,25,0,0,0-10.27,2.21L73.2,775.55l16.51-14.3A24.91,24.91,0,0,0,72.55,754.42Z"/><path class="cls-2" d="M79.25,776.92H97.42A24.78,24.78,0,0,0,93,765Z"/><path class="cls-2" d="M58,759.14a24.93,24.93,0,0,0-10.39,19.72h19l2.34-.81Z"/><path class="cls-2" d="M197.67,776.92h22.38V754.55A25,25,0,0,0,197.67,776.92Z"/><path class="cls-2" d="M229.25,776.92h18.17A24.78,24.78,0,0,0,243,765Z"/><path class="cls-2" d="M225.05,754.55V774l14.66-12.7A24.92,24.92,0,0,0,225.05,754.55Z"/><path class="cls-2" d="M447.55,754.42a25,25,0,0,0-10.27,2.21L448.46,776l19.38-11.19A25,25,0,0,0,447.55,754.42Z"/><path class="cls-2" d="M453.57,778.86h19a24.81,24.81,0,0,0-2.19-9.71l-16.8,9.7Z"/><path class="cls-2" d="M422.67,776.92h20.55L433,759.14A25,25,0,0,0,422.67,776.92Z"/><path class="cls-2" d="M985.73,200.64l18.33-6.36-16.8-9.7a25,25,0,0,0-1.53,16.06Z"/><path class="cls-2" d="M999.78,217.65a25,25,0,0,0,20.54,0l-10.27-17.79Z"/><path class="cls-2" d="M995.45,215.14l9.08-15.73-17.17,6A25.08,25.08,0,0,0,995.45,215.14Z"/><path class="cls-2" d="M1030.34,180.26a25,25,0,0,0-40.58,0L1010.05,192Z"/><path class="cls-2" d="M1024.65,215.14a25,25,0,0,0,8.19-30.56l-19.38,11.19Z"/><path class="cls-2" d="M95.34,10.27A25,25,0,0,0,97.55,0H80.19L78.54.57Z"/><path class="cls-2" d="M64.91,0H47.55a24.8,24.8,0,0,0,2.21,10.27L66.56.57Z"/><path class="cls-2" d="M52.26,14.6A25,25,0,0,0,72.55,25c.76,0,1.5,0,2.24-.11l-4-21Z"/><path class="cls-2" d="M92.84,14.6,76,4.9l3.67,19A25,25,0,0,0,92.84,14.6Z"/><path class="cls-2" d="M497.55,0a24.8,24.8,0,0,0,2.21,10.27L517.55,0Z"/><path class="cls-2" d="M520.05,24.88V4.33L502.26,14.6A25,25,0,0,0,520.05,24.88Z"/><path class="cls-2" d="M547.42,2.5H525.05V24.88A25,25,0,0,0,547.42,2.5Z"/><path class="cls-2" d="M682.82,22.79,673.74,7.06,670.3,24.89c.74.07,1.49.11,2.25.11A24.8,24.8,0,0,0,682.82,22.79Z"/><path class="cls-2" d="M687.15,20.29A25,25,0,0,0,697.55,0h-20L676,.91Z"/><path class="cls-2" d="M665.84,2.5H647.67a24.88,24.88,0,0,0,4.44,11.89Z"/><path class="cls-2" d="M668.73,6.61,655.39,18.17a24.89,24.89,0,0,0,10,5.78Z"/><path class="cls-2" d="M895.05,5.47l-14.66,12.7a25,25,0,0,0,14.66,6.71Z"/><path class="cls-2" d="M922.42,2.5H900.05V24.88A25,25,0,0,0,922.42,2.5Z"/><path class="cls-2" d="M892.55,0h-20a24.88,24.88,0,0,0,4.56,14.39l16.15-14Z"/><path class="cls-2" d="M1027.11,14.39l11.37-9.85v-2h-15.81A24.88,24.88,0,0,0,1027.11,14.39Z"/><path class="cls-2" d="M1038.48,23.3V11.16l-8.09,7A25,25,0,0,0,1038.48,23.3Z"/><path class="cls-2" d="M1024.65,475a25,25,0,0,0,10.27-17.79h-20.54Z"/><path class="cls-2" d="M987.26,464.94l17.79-10.28-17.79-10.27a25,25,0,0,0,0,20.55Z"/><path class="cls-2" d="M989.76,469.26a25,25,0,0,0,30.56,8.19l-11.19-19.37Z"/><path class="cls-2" d="M1020.32,431.87a25,25,0,0,0-30.56,8.19l19.37,11.19Z"/><path class="cls-2" d="M1034.92,452.16a24.93,24.93,0,0,0-10.27-17.78l-10.27,17.78Z"/><polygon class="cls-2" points="1011.3 192.69 1010.05 194.86 1012.21 193.61 1013.46 195.77 1032.84 184.59 1038.48 181.32 1038.48 175.55 1030.34 180.26 1010.05 191.97 1011.3 192.69"/><polygon class="cls-2" points="1012.21 193.61 1010.05 194.86 1012.21 196.11 1010.05 199.86 1020.32 217.65 1038.48 249.11 1038.48 239.11 1024.65 215.14 1013.46 195.77 1012.21 193.61"/><polygon class="cls-2" points="893.73 0 892.55 0 893.26 0.41 893.73 0"/><polygon class="cls-2" points="900.05 2.5 922.42 2.5 1022.67 2.5 1038.48 2.5 1038.48 0 900.05 0 900.05 2.5"/><polygon class="cls-2" points="914.71 111.73 900.05 124.43 900.05 127.4 904.25 127.4 917.99 115.51 1030.39 18.17 1038.48 11.16 1038.48 4.54 1027.11 14.39 914.71 111.73"/><polygon class="cls-2" points="900.05 127.4 900.05 128.46 906.88 132.4 922.42 132.4 1038.48 132.4 1038.48 127.4 922.42 127.4 904.25 127.4 900.05 127.4"/><polygon class="cls-2" points="900.05 128.46 900.05 129.9 897.55 129.9 899.71 131.15 898.46 133.32 917.84 144.5 987.26 184.58 1004.06 194.28 1009.23 192.49 1010.05 194.86 1011.3 192.69 1010.05 191.97 989.76 180.26 920.34 140.18 906.88 132.4 900.05 128.46"/><polygon class="cls-2" points="895.05 5.47 895.05 24.88 895.05 105.03 895.05 127.4 897.55 127.4 897.55 129.9 900.05 129.9 900.05 128.46 900.05 127.4 900.05 124.43 900.05 105.03 900.05 24.88 900.05 2.5 900.05 0 897.55 0 899.19 1.89 895.05 5.47"/><polygon class="cls-2" points="845.23 249.3 828.07 255.25 825.43 259.81 826.23 261.18 846.87 254.03 987.36 205.36 1004.53 199.41 1007.88 193.61 1010.05 194.86 1009.23 192.49 1004.06 194.28 985.73 200.63 845.23 249.3"/><polygon class="cls-2" points="837.15 280.1 826.23 261.18 825.43 259.81 824.71 261.06 822.55 259.81 823.8 261.97 821.63 263.22 832.82 282.6 882.95 369.42 892.03 385.15 896.42 386.67 897.55 384.71 887.28 366.92 837.15 280.1"/><polygon class="cls-2" points="1012.21 196.11 1010.05 194.86 1007.88 193.61 1004.53 199.41 995.45 215.14 907.82 366.92 897.55 384.71 896.42 386.67 897.55 387.07 903.07 385.15 912.15 369.42 999.78 217.65 1010.05 199.86 1012.21 196.11"/><polygon class="cls-2" points="897.55 387.07 898.37 387.35 897.55 389.71 898.8 387.55 903.54 390.28 921.87 383.93 1038.48 343.54 1038.48 338.24 920.23 379.21 903.07 385.15 897.55 387.07"/><polygon class="cls-2" points="898.8 387.55 897.55 389.71 900.05 389.71 900.05 394.04 917.84 404.31 987.26 444.39 1005.05 454.66 1008.22 452.83 1009.13 451.25 989.76 440.06 920.34 399.98 903.54 390.28 898.8 387.55"/><polygon class="cls-2" points="1008.22 452.83 1008.8 452.5 1010.05 454.66 1010.05 452.16 1014.38 452.16 1024.65 434.38 1038.48 410.41 1038.48 400.41 1020.32 431.87 1009.13 451.25 1008.22 452.83"/><polygon class="cls-2" points="1010.05 452.16 1010.05 454.66 1012.21 453.41 1014.38 457.16 1034.92 457.16 1038.48 457.16 1038.48 452.16 1034.92 452.16 1014.38 452.16 1010.05 452.16"/><polygon class="cls-2" points="1007.88 455.91 1010.05 454.66 1008.8 452.5 1008.22 452.83 1005.05 454.66 987.26 464.94 917.84 505.01 900.05 515.28 900.05 517.84 903.54 519.04 920.34 509.34 989.76 469.26 1009.13 458.08 1007.88 455.91"/><polygon class="cls-2" points="900.05 517.84 900.05 519.37 900.83 523.39 920.23 530.12 1038.48 571.08 1038.48 565.79 921.87 525.39 903.54 519.04 900.05 517.84"/><polygon class="cls-2" points="1012.21 453.41 1010.05 454.66 1007.88 455.91 1009.13 458.08 1020.32 477.45 1038.48 508.92 1038.48 498.92 1024.65 474.95 1014.38 457.16 1012.21 453.41"/><polygon class="cls-2" points="938.25 714.57 939.38 716.53 959.92 716.6 1038.48 716.83 1038.48 711.83 959.93 711.6 941.75 711.54 938.25 714.57"/><polygon class="cls-2" points="937.42 713.14 938.25 714.57 941.75 711.54 955.51 699.67 1038.48 628.06 1038.48 621.45 952.24 695.88 936.69 709.31 937.42 713.14"/><polygon class="cls-2" points="938.25 714.57 937.42 713.14 937.5 713.55 935.05 714.02 937.22 715.27 935.05 719.03 945.3 736.82 969.51 778.86 975.28 778.86 949.63 734.32 939.38 716.53 938.25 714.57"/><polygon class="cls-2" points="677.55 0 675.43 0 675.96 0.92 677.55 0"/><polygon class="cls-2" points="750.58 127.4 754.25 127.4 767.99 115.51 880.39 18.17 895.05 5.47 899.19 1.89 897.55 0 893.73 0 893.26 0.41 877.11 14.39 764.71 111.73 751.37 123.29 750.58 127.4"/><polygon class="cls-2" points="893.22 132.4 882.95 150.19 832.82 237.02 822.55 254.81 824.71 258.56 822.55 259.81 824.71 261.06 825.43 259.81 828.07 255.25 837.15 239.52 887.28 152.69 898.46 133.32 899.71 131.15 897.55 129.9 897.55 132.4 893.22 132.4"/><polygon class="cls-2" points="751.88 132.4 772.42 132.4 872.67 132.4 893.22 132.4 897.55 132.4 897.55 129.9 897.55 127.4 895.05 127.4 872.67 127.4 772.42 127.4 754.25 127.4 750.58 127.4 750.18 129.46 751.88 132.4"/><polygon class="cls-2" points="673.74 7.06 682.82 22.79 732.95 109.62 744.13 128.99 745.31 128.31 746.36 122.85 737.28 107.11 687.15 20.29 675.96 0.92 675.43 0 672.55 0 675 0.47 673.74 7.06"/><polygon class="cls-2" points="745.31 128.31 746.3 127.74 747.55 129.9 749.71 128.65 750.18 129.46 750.58 127.4 751.37 123.29 754.71 105.95 775.09 0 770 0 749.79 105.01 746.36 122.85 745.31 128.31"/><polygon class="cls-2" points="525.05 2.5 547.42 2.5 647.67 2.5 665.84 2.5 668.73 0 525.05 0 525.05 2.5"/><polygon class="cls-2" points="652.11 14.39 539.71 111.73 525.05 124.43 525.05 128.46 526.84 129.5 542.98 115.51 655.39 18.17 668.73 6.61 670 0 668.73 0 665.84 2.5 652.11 14.39"/><polygon class="cls-2" points="525.05 134.23 542.84 144.5 612.26 184.59 630.05 194.86 632.81 193.26 633.26 190.94 614.76 180.26 545.34 140.18 526.84 129.5 525.05 128.46 525.05 129.9 525.05 134.23"/><polygon class="cls-2" points="657.84 184.58 727.26 144.5 746.63 133.32 745.38 131.15 747.55 129.9 746.3 127.74 745.31 128.31 744.13 128.99 724.76 140.18 655.34 180.26 638.54 189.96 637.91 193.2 641.04 194.28 657.84 184.58"/><polygon class="cls-2" points="695.45 304.47 704.53 320.2 709.79 322.02 710.96 321.34 699.78 301.97 649.65 215.14 640.57 199.41 635.31 197.59 634.13 198.27 645.32 217.65 695.45 304.47"/><polygon class="cls-2" points="668.73 6.61 665.39 23.95 637.29 169.96 633.26 190.94 632.81 193.26 633.8 192.69 635.05 194.86 635.87 192.49 637.91 193.2 638.54 189.96 642.2 170.9 670.3 24.89 673.74 7.06 675 0.47 672.55 0 670 0 668.73 6.61"/><polygon class="cls-2" points="746.63 133.32 757.82 152.69 807.95 239.52 817.03 255.25 823.37 257.44 822.55 259.81 824.71 258.56 822.55 254.81 812.28 237.02 762.15 150.19 751.88 132.4 750.18 129.46 749.71 128.65 747.55 129.9 745.38 131.15 746.63 133.32"/><polygon class="cls-2" points="635.31 197.59 640.57 199.41 657.73 205.36 798.23 254.03 816.56 260.38 821.3 257.64 822.55 259.81 823.37 257.44 817.03 255.25 799.86 249.3 659.37 200.63 641.04 194.28 637.91 193.2 635.87 192.49 635.05 194.86 636.3 197.02 635.31 197.59"/><polygon class="cls-2" points="730.34 310.16 710.96 321.34 709.79 322.02 710.87 322.4 716.04 324.19 732.84 314.49 802.26 274.41 821.63 263.22 823.8 261.97 822.55 259.81 821.3 257.64 816.56 260.38 799.76 270.08 730.34 310.16"/><polygon class="cls-2" points="874.86 379.21 734.37 330.54 716.04 324.19 710.87 322.4 710.05 324.76 712.55 324.76 712.55 328.27 732.73 335.26 873.23 383.93 889.91 389.71 896.73 387.35 897.55 389.71 898.37 387.35 897.55 387.07 896.42 386.67 892.03 385.15 874.86 379.21"/><polygon class="cls-2" points="889.91 389.71 873.23 395.49 732.73 444.16 712.55 451.15 712.55 452.88 717.69 454.66 734.37 448.88 874.86 400.22 895.05 393.22 895.05 389.71 897.55 389.71 896.73 387.35 889.91 389.71"/><polygon class="cls-2" points="895.05 393.22 895.05 414.59 895.05 494.74 895.05 516.1 898.37 517.25 897.55 519.62 900 519.14 900.05 519.37 900.05 517.84 900.05 515.28 900.05 494.74 900.05 414.59 900.05 394.04 900.05 389.71 897.55 389.71 895.05 389.71 895.05 393.22"/><polygon class="cls-2" points="895.05 516.1 874.86 509.11 734.37 460.44 717.69 454.66 712.55 452.88 712.55 453.99 715.57 459.22 732.73 465.17 873.23 513.84 891.56 520.19 896.3 517.45 897.55 519.62 898.37 517.25 895.05 516.1"/><polygon class="cls-2" points="707.55 330.23 707.55 349.63 707.55 429.79 707.55 452.16 710.05 452.16 710.05 454.66 712.21 453.41 712.55 453.99 712.55 452.88 712.55 451.15 712.55 429.79 712.55 349.63 712.55 328.27 712.55 324.76 710.05 324.76 711.69 326.65 707.55 330.23"/><polygon class="cls-2" points="705.14 325.7 689.61 339.15 577.21 436.49 561.69 449.94 562.11 452.16 566.75 452.16 580.49 440.27 692.89 342.93 707.55 330.23 711.69 326.65 710.05 324.76 709.23 327.12 705.14 325.7"/><polygon class="cls-2" points="552.89 430.71 556.56 449.76 560.72 452.16 562.11 452.16 561.69 449.94 557.8 429.77 529.7 283.76 525.82 263.59 523.68 262.85 521.36 266.87 524.79 284.7 552.89 430.71"/><polygon class="cls-2" points="525.82 263.59 545.23 270.31 685.73 318.98 705.14 325.7 709.23 327.12 710.05 324.76 710.87 322.4 709.79 322.02 704.53 320.2 687.36 314.25 546.87 265.59 528.54 259.24 524.38 261.64 523.68 262.85 525.82 263.59"/><polygon class="cls-2" points="612.26 205.13 542.84 245.21 525.05 255.48 525.05 259.81 522.55 259.81 524.71 261.06 524.38 261.64 528.54 259.24 545.34 249.54 614.76 209.46 634.13 198.27 635.31 197.59 636.3 197.02 635.05 194.86 633.8 192.69 632.81 193.26 630.05 194.86 612.26 205.13"/><polygon class="cls-2" points="520.05 135.38 520.05 154.78 520.05 234.93 520.05 257.31 522.55 257.31 522.55 259.81 525.05 259.81 525.05 255.48 525.05 234.93 525.05 154.78 525.05 134.23 525.05 129.9 522.55 129.9 524.18 131.79 520.05 135.38"/><polygon class="cls-2" points="397.42 262.31 497.67 262.31 518.22 262.31 520.38 258.56 522.55 259.81 522.55 257.31 520.05 257.31 497.67 257.31 397.42 257.31 379.25 257.31 375.75 260.35 376.88 262.31 397.42 262.31"/><polygon class="cls-2" points="518.22 262.31 507.95 280.1 457.82 366.92 447.55 384.71 449.38 387.88 450.96 388.8 462.15 369.42 512.28 282.6 521.36 266.87 523.68 262.85 524.38 261.64 524.71 261.06 522.55 259.81 520.38 258.56 518.22 262.31"/><polygon class="cls-2" points="561.3 452.5 560.05 454.66 562.55 454.66 562.55 457.16 584.92 457.16 685.17 457.16 703.34 457.16 708.41 452.77 710.05 454.66 710.05 452.16 707.55 452.16 685.17 452.16 584.92 452.16 566.75 452.16 562.11 452.16 560.72 452.16 561.3 452.5"/><polygon class="cls-2" points="703.34 457.16 689.61 469.06 577.21 566.4 562.55 579.1 562.55 582.07 566.75 582.07 580.49 570.18 692.89 472.83 709.4 458.54 707.88 455.91 710.05 454.66 708.41 452.77 703.34 457.16"/><polygon class="cls-2" points="710.05 454.66 707.88 455.91 709.4 458.54 720.32 477.45 770.45 564.28 780.72 582.07 784.38 582.07 785.96 581.15 774.78 561.78 724.65 474.95 715.57 459.22 712.55 453.99 712.21 453.41 710.05 454.66"/><polygon class="cls-2" points="891.56 520.19 874.76 529.89 805.34 569.97 785.96 581.15 784.38 582.07 785.05 582.07 785.05 584.57 786.68 582.67 789.35 584.97 807.84 574.29 877.26 534.22 895.76 523.53 895.09 520.09 897.55 519.62 896.3 517.45 891.56 520.19"/><polygon class="cls-2" points="900.05 519.37 900 519.14 897.55 519.62 895.09 520.09 895.76 523.53 899.8 544.51 927.88 690.07 931.23 707.42 936.68 712.13 935.05 714.02 937.5 713.55 937.42 713.14 936.69 709.31 932.79 689.13 904.72 543.57 900.83 523.39 900.05 519.37"/><polygon class="cls-2" points="774.78 607.36 785.7 588.43 784.12 587.07 780.72 587.07 770.45 604.86 720.32 691.68 709.4 710.6 710.98 711.97 714.38 711.96 724.65 694.18 774.78 607.36"/><polygon class="cls-2" points="931.85 714.57 928.34 711.53 910.17 711.57 734.92 711.92 714.38 711.96 710.98 711.97 711.69 712.58 716.74 716.96 734.93 716.92 910.18 716.57 930.72 716.53 931.85 714.57"/><polygon class="cls-2" points="805.51 598.92 789.35 584.97 786.68 582.67 785.05 584.57 785.05 587.07 784.12 587.07 785.7 588.43 802.24 602.71 914.59 699.67 928.34 711.53 931.85 714.57 932.88 712.77 935.05 714.02 936.68 712.13 931.23 707.42 917.86 695.88 805.51 598.92"/><polygon class="cls-2" points="760.17 582.07 584.92 582.07 566.75 582.07 562.55 582.07 562.55 583.42 566.75 587.07 584.92 587.07 760.17 587.07 780.72 587.07 784.12 587.07 785.05 587.07 785.05 584.57 785.05 582.07 784.38 582.07 780.72 582.07 760.17 582.07"/><polygon class="cls-2" points="562.55 609.44 562.55 590.04 559.5 587.4 557.55 588.08 557.55 609.44 557.55 689.6 557.55 710.96 560.47 711.97 562.55 711.97 562.55 689.6 562.55 609.44"/><polygon class="cls-2" points="692.89 696.3 580.49 598.96 566.75 587.07 562.55 583.42 562.55 584.57 560.05 584.57 560.87 586.93 559.5 587.4 562.55 590.04 577.21 602.74 689.61 700.08 703.34 711.97 710.05 711.97 710.05 714.47 711.69 712.58 710.98 711.97 709.4 710.6 692.89 696.3"/><polygon class="cls-2" points="707.88 713.22 710.05 714.47 710.05 711.97 703.34 711.97 685.17 711.97 584.92 711.97 562.55 711.97 560.47 711.97 560.87 712.11 560.05 714.47 562.21 713.22 564.38 716.97 584.92 716.97 685.17 716.97 705.72 716.97 707.88 713.22"/><polygon class="cls-2" points="562.21 713.22 560.05 714.47 561.3 716.64 559.13 717.89 570.32 737.26 594.34 778.86 600.11 778.86 574.65 734.76 564.38 716.97 562.21 713.22"/><polygon class="cls-2" points="707.59 714.94 710.05 714.47 707.88 713.22 705.72 716.97 695.45 734.76 669.99 778.86 675.76 778.86 699.78 737.26 708.86 721.53 707.59 714.94"/><polygon class="cls-2" points="708.41 716.36 710.05 714.47 707.59 714.94 708.86 721.53 712.29 739.37 719.89 778.86 724.99 778.86 717.21 738.43 713.87 721.09 708.41 716.36"/><polygon class="cls-2" points="937.22 715.27 935.05 714.02 932.88 712.77 931.85 714.57 930.72 716.53 920.48 734.33 894.86 778.86 900.63 778.86 924.81 736.83 935.05 719.03 937.22 715.27"/><polygon class="cls-2" points="711.69 712.58 710.05 714.47 708.41 716.36 713.87 721.09 727.21 732.64 780.58 778.86 788.22 778.86 730.49 728.86 716.74 716.96 711.69 712.58"/><polygon class="cls-2" points="453.52 778.86 453.57 778.86 453.54 778.85 453.52 778.86"/><polygon class="cls-2" points="561.3 716.64 560.05 714.47 559.23 716.83 554.06 715.04 537.26 724.74 467.84 764.82 448.46 776.01 449.71 778.17 448.52 778.86 453.52 778.86 453.54 778.85 470.34 769.15 539.76 729.07 559.13 717.89 561.3 716.64"/><polygon class="cls-2" points="448.46 776.01 437.28 756.63 387.15 669.81 378.07 654.08 373.09 652.35 371.9 653.39 382.82 672.31 432.95 759.13 443.22 776.92 447.55 776.92 447.55 778.86 448.52 778.86 449.71 778.17 448.46 776.01"/><polygon class="cls-2" points="537.36 703.97 396.87 655.3 380.19 649.52 373.82 651.72 373.09 652.35 378.07 654.08 395.23 660.02 535.73 708.69 554.06 715.04 559.23 716.83 560.05 714.47 560.87 712.11 560.47 711.97 557.55 710.96 537.36 703.97"/><polygon class="cls-2" points="552.41 584.57 535.73 590.35 395.23 639.01 375.05 646.01 375.05 649.52 372.55 649.52 374.19 651.41 373.82 651.72 380.19 649.52 396.87 643.74 537.36 595.07 557.55 588.08 559.5 587.4 560.87 586.93 560.05 584.57 559.23 586.93 552.41 584.57"/><polygon class="cls-2" points="557.55 581.05 537.36 574.06 396.87 525.39 380.19 519.62 375.05 521.39 375.05 523.13 395.24 530.12 535.73 578.79 552.41 584.57 559.23 586.93 560.05 584.57 557.55 584.57 557.55 581.05"/><polygon class="cls-2" points="562.55 579.1 562.55 559.69 562.55 479.54 562.55 457.16 562.55 454.66 560.05 454.66 560.87 457.03 557.55 458.18 557.55 479.54 557.55 559.69 557.55 581.05 557.55 584.57 560.05 584.57 562.55 584.57 562.55 583.42 562.55 582.07 562.55 579.1"/><polygon class="cls-2" points="554.06 454.09 535.73 460.44 395.23 509.11 378.07 515.06 375.05 520.28 375.05 521.39 380.19 519.62 396.87 513.84 537.36 465.17 557.55 458.18 560.87 457.03 560.05 454.66 558.8 456.83 554.06 454.09"/><polygon class="cls-2" points="448.46 393.13 467.84 404.31 537.26 444.39 554.06 454.09 558.8 456.83 560.05 454.66 561.3 452.5 560.72 452.16 556.56 449.76 539.76 440.06 470.34 399.98 450.96 388.8 449.38 387.88 449.71 388.46 447.55 389.71 449.71 390.96 448.46 393.13"/><polygon class="cls-2" points="375.05 520.28 378.07 515.06 387.15 499.33 437.28 412.5 448.46 393.13 449.71 390.96 447.55 389.71 448.37 392.07 442.03 394.27 432.95 410 382.82 496.82 371.63 516.2 373.8 517.45 372.55 519.62 375.05 519.62 375.05 520.28"/><polygon class="cls-2" points="424.86 379.21 284.37 330.54 266.04 324.19 262.55 326.2 262.55 328.27 282.73 335.26 423.23 383.93 439.91 389.71 443.87 388.34 442.03 385.15 424.86 379.21"/><polygon class="cls-2" points="282.84 314.49 352.26 274.41 371.63 263.22 370.72 261.64 367.55 259.81 349.76 270.08 280.34 310.16 262.55 320.43 262.55 324.76 262.55 326.2 266.04 324.19 282.84 314.49"/><polygon class="cls-2" points="262.55 429.79 262.55 349.63 262.55 328.27 262.55 326.2 262.55 324.76 260.05 324.76 260.87 327.12 257.55 328.27 257.55 349.63 257.55 429.79 257.55 451.15 260.05 452.02 262.55 451.15 262.55 429.79"/><polygon class="cls-2" points="370.72 261.64 371.63 263.22 382.82 282.6 432.95 369.42 442.03 385.15 443.87 388.34 446.73 387.35 447.55 389.71 449.71 388.46 449.38 387.88 447.55 384.71 437.28 366.92 387.15 280.1 376.88 262.31 375.75 260.35 374.19 261.7 372.55 259.81 371.3 261.97 370.72 261.64"/><polygon class="cls-2" points="266.04 455.24 284.37 448.88 424.86 400.22 442.03 394.27 448.37 392.07 447.55 389.71 446.73 387.35 443.87 388.34 439.91 389.71 423.23 395.49 282.73 444.16 262.55 451.15 260.05 452.02 260.87 452.3 260.05 454.66 261.3 452.5 266.04 455.24"/><polygon class="cls-2" points="349.76 509.34 368.26 520.02 370.91 517.73 372.55 519.62 373.8 517.45 371.63 516.2 352.26 505.01 282.84 464.94 266.04 455.24 261.3 452.5 260.05 454.66 262.5 455.14 261.84 458.58 280.34 469.26 349.76 509.34"/><polygon class="cls-2" points="375.05 646.01 375.05 624.64 375.05 544.49 375.05 523.13 375.05 521.39 375.05 520.28 375.05 519.62 372.55 519.62 374.19 521.5 370.05 525.09 370.05 544.49 370.05 624.64 370.05 647.02 372.55 647.02 372.55 649.52 375.05 649.52 375.05 646.01"/><polygon class="cls-2" points="347.67 652.02 365.84 652.02 370.91 647.63 372.55 649.52 372.55 647.02 370.05 647.02 347.67 647.02 247.42 647.02 229.25 647.02 225.05 650.66 225.05 652.02 247.42 652.02 347.67 652.02"/><polygon class="cls-2" points="242.99 635.13 355.39 537.78 370.05 525.09 374.19 521.5 372.55 519.62 370.91 517.73 368.26 520.02 352.11 534.01 239.71 631.35 226.37 642.9 225.05 649.76 225.05 650.66 229.25 647.02 242.99 635.13"/><polygon class="cls-2" points="237.26 464.94 167.84 505.01 148.46 516.2 149.71 518.37 150.96 520.53 170.34 509.34 239.76 469.26 256.56 459.56 257.19 456.32 254.06 455.24 237.26 464.94"/><polygon class="cls-2" points="225.05 649.76 226.37 642.9 229.71 625.56 257.8 479.56 261.84 458.58 262.5 455.14 260.05 454.66 259.23 457.03 257.19 456.32 256.56 459.56 252.89 478.62 224.79 624.63 221.36 642.46 224.71 648.27 222.55 649.52 225.05 649.52 225.05 649.76"/><polygon class="cls-2" points="221.36 642.46 212.28 626.73 162.15 539.9 150.96 520.53 149.71 518.37 147.55 519.62 149.19 521.5 146.9 523.49 157.82 542.41 207.95 629.23 218.22 647.02 222.55 647.02 222.55 649.52 224.71 648.27 221.36 642.46"/><polygon class="cls-2" points="374.19 651.41 372.55 649.52 370.91 647.63 365.84 652.02 352.11 663.91 239.71 761.25 225.05 773.95 225.05 776.92 229.25 776.92 242.99 765.03 355.39 667.69 371.9 653.39 373.09 652.35 373.82 651.72 374.19 651.41"/><polygon class="cls-2" points="443.22 776.92 422.67 776.92 247.42 776.92 229.25 776.92 225.05 776.92 225.05 777.98 226.58 778.86 447.55 778.86 447.55 776.92 443.22 776.92"/><polygon class="cls-2" points="225.05 778.86 226.58 778.86 225.05 777.98 225.05 778.86"/><polygon class="cls-2" points="220.05 776.92 197.67 776.92 97.42 776.92 79.25 776.92 77.01 778.86 220.05 778.86 220.05 776.92"/><polygon class="cls-2" points="225.05 776.92 225.05 773.95 225.05 754.55 225.05 674.39 225.05 652.02 225.05 650.66 225.05 649.76 225.05 649.52 222.55 649.52 224.19 651.41 220.05 654.99 220.05 674.39 220.05 754.55 220.05 776.92 220.05 778.86 225.05 778.86 225.05 777.98 225.05 776.92"/><polygon class="cls-2" points="92.98 765.03 205.39 667.69 220.05 654.99 224.19 651.41 222.55 649.52 222.55 652.02 215.84 652.02 202.11 663.91 89.71 761.25 73.2 775.55 74.71 778.17 73.52 778.86 77.01 778.86 79.25 776.92 92.98 765.03"/><polygon class="cls-2" points="66.53 778.86 69.34 778.86 68.87 778.05 66.53 778.86"/><polygon class="cls-2" points="7.82 672.31 57.95 759.13 68.87 778.05 69.34 778.86 73.52 778.86 74.71 778.17 73.2 775.55 62.28 756.63 12.15 669.81 1.88 652.02 0 652.02 0 658.76 7.82 672.31"/><polygon class="cls-2" points="22.42 652.02 197.67 652.02 215.84 652.02 222.55 652.02 222.55 649.52 222.55 647.02 218.22 647.02 197.67 647.02 22.42 647.02 4.25 647.02 0 650.7 0 652.02 1.88 652.02 22.42 652.02"/><polygon class="cls-2" points="4.25 647.02 17.98 635.13 130.39 537.78 146.9 523.49 149.19 521.5 147.55 519.62 147.55 522.12 140.84 522.12 127.11 534.01 14.71 631.35 0.05 644.05 0.05 649.52 0 649.52 0 650.7 4.25 647.02"/><polygon class="cls-2" points="143.22 517.12 122.67 517.12 22.42 517.12 1.88 517.12 0.05 520.28 0.05 522.12 22.42 522.12 122.67 522.12 140.84 522.12 147.55 522.12 147.55 519.62 145.38 520.87 143.22 517.12"/><polygon class="cls-2" points="0.05 644.05 0.05 624.64 0.05 544.49 0.05 522.12 0.05 520.28 0 520.37 0 649.52 0.05 649.52 0.05 644.05"/><polygon class="cls-2" points="69.66 389.71 68.22 387.21 47.67 387.21 0 387.21 0 392.21 47.67 392.21 68.22 392.21 69.66 389.71"/><polygon class="cls-2" points="1.88 517.12 12.15 499.33 62.28 412.5 72.55 394.71 70.38 390.96 69.66 389.71 68.22 392.21 57.95 410 7.82 496.82 0 510.37 0 520.37 0.05 520.28 1.88 517.12"/><polygon class="cls-2" points="148.46 516.2 137.28 496.82 87.15 410 78.07 394.27 71.73 392.07 72.55 389.71 70.38 390.96 72.55 394.71 82.82 412.5 132.95 499.33 143.22 517.12 145.38 520.87 147.55 519.62 149.71 518.37 148.46 516.2"/><polygon class="cls-2" points="78.07 394.27 95.23 400.22 235.73 448.88 254.06 455.24 257.19 456.32 259.23 457.03 260.05 454.66 260.87 452.3 260.05 452.02 257.55 451.15 237.36 444.16 96.87 395.49 80.19 389.71 73.37 392.07 72.55 389.71 71.73 392.07 78.07 394.27"/><polygon class="cls-2" points="80.19 389.71 96.87 383.93 237.36 335.26 257.55 328.27 260.87 327.12 260.05 324.76 258.41 326.65 255.14 323.81 235.73 330.54 95.23 379.21 75.82 385.93 75 390.18 72.55 389.71 73.37 392.07 80.19 389.71"/><polygon class="cls-2" points="262.55 320.43 262.55 299.88 262.55 219.73 262.55 199.19 259.38 197.36 257.55 197.36 257.55 219.73 257.55 299.88 257.55 319.29 261.69 322.87 260.05 324.76 262.55 324.76 262.55 320.43"/><polygon class="cls-2" points="259.38 197.36 262.55 199.19 280.34 209.46 349.76 249.54 367.55 259.81 370.72 261.64 371.3 261.97 372.55 259.81 370.91 257.92 372.26 256.75 352.26 245.21 282.84 205.13 266.67 195.79 260.65 197.28 260.05 194.86 260.05 197.36 259.38 197.36"/><polygon class="cls-2" points="266.67 195.79 284.79 191.31 499 138.31 513.04 134.83 518.26 130.31 515.92 128.97 497.8 133.45 283.6 186.45 269.56 189.93 261.69 196.75 260.05 194.86 260.65 197.28 266.67 195.79"/><polygon class="cls-2" points="518.26 130.31 513.04 134.83 502.11 144.29 389.71 241.64 372.26 256.75 370.91 257.92 372.55 259.81 374.19 261.7 375.75 260.35 379.25 257.31 392.99 245.42 505.39 148.07 520.05 135.38 524.18 131.79 522.55 129.9 521.3 132.07 518.26 130.31"/><polygon class="cls-2" points="277.21 176.69 260.7 190.99 262.21 193.61 260.05 194.86 261.69 196.75 269.56 189.93 280.49 180.47 392.89 83.12 410.34 68.01 409.38 67.45 403.34 67.45 389.61 79.34 277.21 176.69"/><polygon class="cls-2" points="430.34 79.55 499.76 119.63 515.92 128.97 518.26 130.31 521.3 132.07 522.55 129.9 520.05 129.9 520.05 125.57 502.26 115.3 432.84 75.22 415.05 64.95 411.3 67.12 410.05 64.95 410.05 67.45 409.38 67.45 410.34 68.01 430.34 79.55"/><polygon class="cls-2" points="520.05 4.33 520.05 24.88 520.05 105.03 520.05 125.57 520.05 129.9 522.55 129.9 525.05 129.9 525.05 128.46 525.05 124.43 525.05 105.03 525.05 24.88 525.05 2.5 525.05 0 522.55 0 523.8 2.17 520.05 4.33"/><polygon class="cls-2" points="412.55 64.95 410.05 64.95 411.3 67.12 415.05 64.95 432.84 54.68 502.26 14.6 520.05 4.33 523.8 2.17 522.55 0 522.55 0 521.3 2.17 517.55 0 517.55 0 499.76 10.27 430.34 50.35 412.55 60.62 412.55 64.95"/><polygon class="cls-2" points="521.3 2.17 522.55 0 517.55 0 521.3 2.17"/><polygon class="cls-2" points="407.55 62.45 407.55 59.48 392.89 46.78 338.87 0 331.23 0 389.61 50.56 403.34 62.45 407.55 62.45"/><polygon class="cls-2" points="407.55 62.45 410.05 62.45 410.05 64.95 412.55 64.95 412.55 60.62 412.55 40.08 412.55 0 407.55 0 407.55 40.08 407.55 59.48 407.55 62.45"/><polygon class="cls-2" points="80.19 0 77.55 0 78.54 0.57 80.19 0"/><polygon class="cls-2" points="185.72 62.45 189.38 62.45 199.65 44.66 225.44 0 219.66 0 195.32 42.16 184.13 61.54 185.72 62.45"/><polygon class="cls-2" points="185.72 62.45 186.3 62.79 185.05 64.95 187.21 63.7 189.38 67.45 209.92 67.45 385.17 67.45 403.34 67.45 409.38 67.45 410.05 67.45 410.05 64.95 410.05 62.45 407.55 62.45 403.34 62.45 385.17 62.45 209.92 62.45 189.38 62.45 185.72 62.45"/><polygon class="cls-2" points="185.05 69.95 195.32 87.74 245.45 174.57 255.72 192.36 260.05 192.36 260.05 194.86 262.21 193.61 260.7 190.99 249.78 172.06 199.65 85.24 189.38 67.45 187.21 63.7 185.05 64.95 187.21 66.2 185.05 69.95"/><polygon class="cls-2" points="134.92 197.36 235.17 197.36 257.55 197.36 259.38 197.36 260.05 197.36 260.05 194.86 260.05 192.36 255.72 192.36 235.17 192.36 134.92 192.36 114.38 192.36 113.25 194.32 116.75 197.36 134.92 197.36"/><polygon class="cls-2" points="257.55 319.29 242.89 306.59 130.49 209.25 116.75 197.36 113.25 194.32 112.42 195.74 111.69 199.58 127.21 213.03 239.61 310.37 255.14 323.81 258.41 326.65 260.05 324.76 261.69 322.87 257.55 319.29"/><polygon class="cls-2" points="75.82 385.93 79.7 365.76 107.8 219.75 111.69 199.58 112.42 195.74 112.21 196.11 110.05 194.86 111.3 197.02 106.56 199.76 102.89 218.81 74.79 364.82 71.36 382.65 74.71 388.46 72.55 389.71 75 390.18 75.82 385.93"/><polygon class="cls-2" points="20.34 249.54 89.76 209.46 106.56 199.76 111.3 197.02 110.05 194.86 108.41 196.75 105.76 194.45 87.26 205.13 17.84 245.21 0 255.51 0 259.05 0.96 260.72 20.34 249.54"/><polygon class="cls-2" points="69.66 389.71 70.38 390.96 72.55 389.71 74.71 388.46 71.36 382.65 62.28 366.92 12.15 280.1 0.96 260.72 0 259.05 0 259.32 0 259.33 0 259.34 0 269.05 7.82 282.6 57.95 369.42 68.22 387.21 69.66 389.71"/><polygon class="cls-2" points="0 259.32 0 259.34 0 259.33 0 259.32"/><polygon class="cls-2" points="108.41 196.75 110.05 194.86 107.59 195.33 106.23 188.24 92.89 176.69 0 96.24 0 102.86 89.61 180.47 105.76 194.45 108.41 196.75"/><polygon class="cls-2" points="70.37 1.89 66.56 0.57 49.76 10.27 0 39 0 44.77 52.26 14.6 70.76 3.92 70.37 1.89"/><polygon class="cls-2" points="107.59 195.33 110.05 194.86 107.88 193.61 111.24 187.8 107.8 169.96 79.7 23.95 76.04 4.9 71.5 2.28 70.37 1.89 70.76 3.92 74.79 24.89 102.89 170.9 106.23 188.24 107.59 195.33"/><polygon class="cls-2" points="112.42 195.74 113.25 194.32 114.38 192.36 124.65 174.57 174.78 87.74 185.05 69.95 187.21 66.2 185.05 64.95 183.8 67.12 181.63 65.87 170.45 85.24 120.32 172.06 111.24 187.8 107.88 193.61 110.05 194.86 112.21 196.11 112.42 195.74"/><polygon class="cls-2" points="71.5 2.28 76.04 4.9 92.84 14.6 162.26 54.68 181.63 65.87 183.8 67.12 185.05 64.95 186.3 62.79 185.72 62.45 184.13 61.54 164.76 50.35 95.34 10.27 78.54 0.57 77.55 0 72.55 0 71.73 2.36 71.5 2.28"/><polygon class="cls-2" points="70.37 1.89 71.5 2.28 71.73 2.36 72.55 0 64.91 0 66.56 0.57 70.37 1.89"/></g></g></svg>