<svg xmlns="http://www.w3.org/2000/svg" viewBox="0 0 1038.48 778.86"><defs><style>.cls-1,.cls-2{fill:lime;}.cls-1{stroke:lime;stroke-linecap:round;stroke-linejoin:round;stroke-width:0;}</style></defs><title>Element 19</title><g id="Ebene_2" data-name="Ebene 2"><g id="Ebene_1-2" data-name="Ebene 1"><line class="cls-1" x1="872.55" x2="775.09"/><polyline class="cls-2" points="872.55 0 1038.48 0 1038.48 23.3"/><polyline class="cls-1" points="1038.48 716.83 1038.48 778.86 975.28 778.86"/><line class="cls-2" x1="1038.48" y1="175.55" x2="1038.48" y2="181.33"/><line class="cls-2" x1="1038.48" y1="338.24" x2="1038.48" y2="343.54"/><line class="cls-1" x1="407.55" x2="338.87"/><line class="cls-1" x1="331.23" x2="225.44"/><line class="cls-2" x1="225.44" x2="219.66"/><line class="cls-2" x1="407.55" x2="412.55"/><line class="cls-2" x1="775.09" x2="770"/><line class="cls-2" x1="1038.48" y1="400.41" x2="1038.48" y2="410.41"/><line class="cls-1" x1="600.11" y1="778.86" x2="669.98" y2="778.86"/><line class="cls-1" x1="724.99" y1="778.86" x2="780.58" y2="778.86"/><line class="cls-1" x1="788.22" y1="778.86" x2="894.86" y2="778.86"/><line class="cls-1" x1="472.53" y1="778.86" x2="594.34" y2="778.86"/><line class="cls-2" x1="1038.48" y1="565.79" x2="1038.48" y2="571.08"/><line class="cls-2" x1="1038.48" y1="498.92" x2="1038.48" y2="508.92"/><line class="cls-2" x1="1038.48" y1="621.45" x2="1038.48" y2="628.06"/><line class="cls-2" x1="1038.48" y1="716.83" x2="1038.48" y2="711.83"/><line class="cls-2" x1="1038.48" y1="239.11" x2="1038.48" y2="249.11"/><line class="cls-1" x1="1038.48" y1="457.16" x2="1038.48" y2="498.92"/><line class="cls-1" x1="1038.48" y1="621.45" x2="1038.48" y2="571.08"/><line class="cls-1" x1="900.63" y1="778.86" x2="969.51" y2="778.86"/><line class="cls-1" x1="1038.48" y1="565.79" x2="1038.48" y2="508.92"/><line class="cls-1" x1="1038.48" y1="711.83" x2="1038.48" y2="628.06"/><line class="cls-1" y1="284.68" y2="387.21"/><line class="cls-1" y1="392.21" y2="494.74"/><line class="cls-1" x1="675.76" y1="778.86" x2="719.89" y2="778.86"/><line class="cls-1" x1="97.55" x2="219.66"/><line class="cls-2" x1="1038.48" y1="457.16" x2="1038.48" y2="452.16"/><line class="cls-1" x1="1038.48" y1="127.4" x2="1038.48" y2="23.3"/><line class="cls-1" x1="697.55" x2="770"/><line class="cls-1" x1="497.55" x2="412.55"/><line class="cls-2" x1="338.87" x2="331.23"/><line class="cls-1" x1="1038.48" y1="452.16" x2="1038.48" y2="410.41"/><line class="cls-1" x1="1038.48" y1="338.24" x2="1038.48" y2="249.11"/><line class="cls-1" x1="1038.48" y1="400.41" x2="1038.48" y2="343.54"/><line class="cls-1" x1="1038.48" y1="175.55" x2="1038.48" y2="132.4"/><line class="cls-1" x1="1038.48" y1="239.11" x2="1038.48" y2="181.33"/><line class="cls-2" x1="1038.48" y1="127.4" x2="1038.48" y2="132.4"/><polyline class="cls-1" points="0 39 0 0 47.55 0"/><line class="cls-2" x1="97.55" x2="47.55"/><line class="cls-2" x1="675.76" y1="778.86" x2="669.98" y2="778.86"/><polyline class="cls-1" points="0 674.39 0 778.86 47.57 778.86"/><line class="cls-2" x1="724.99" y1="778.86" x2="719.89" y2="778.86"/><line class="cls-2" x1="600.11" y1="778.86" x2="594.34" y2="778.86"/><line class="cls-1" y1="44.77" y2="96.24"/><line class="cls-2" y1="44.77" y2="39"/><line class="cls-2" y1="102.86" y2="96.24"/><line class="cls-2" x1="697.55" x2="497.55"/><line class="cls-2" x1="472.53" y1="778.86" x2="47.57" y2="778.86"/><line class="cls-1" y1="102.86" y2="234.94"/><line class="cls-2" y1="234.94" y2="284.68"/><line class="cls-2" x1="975.28" y1="778.86" x2="969.51" y2="778.86"/><line class="cls-2" x1="900.63" y1="778.86" x2="894.86" y2="778.86"/><line class="cls-2" x1="788.22" y1="778.86" x2="780.58" y2="778.86"/><line class="cls-2" y1="674.39" y2="494.74"/><line class="cls-2" y1="392.21" y2="387.21"/><path class="cls-1" d="M237.36,444.16a25,25,0,0,1,20.19-14.37V349.63a25,25,0,0,1-20.19-14.37L96.87,383.93a24.91,24.91,0,0,1,0,11.56Z"/><path class="cls-1" d="M229.7,625.56a25,25,0,0,1,10,5.79L352.11,534a25,25,0,0,1-2.35-24.67l-69.42-40.08a25,25,0,0,1-20.29,10.4c-.76,0-1.51,0-2.25-.1Z"/><path class="cls-1" d="M243,635.13A24.78,24.78,0,0,1,247.42,647H347.67a25,25,0,0,1,22.38-22.38V544.49a24.85,24.85,0,0,1-14.66-6.71Z"/><path class="cls-1" d="M87.15,410l50.13,86.82a25,25,0,0,1,30.56,8.2l69.42-40.08a25,25,0,0,1-1.53-16.06L95.23,400.22A25,25,0,0,1,87.15,410Z"/><path class="cls-1" d="M396.87,655.3,537.36,704a25,25,0,0,1,20.19-14.37V609.44a25,25,0,0,1-20.19-14.37L396.87,643.74a24.91,24.91,0,0,1,0,11.56Z"/><path class="cls-1" d="M372.55,494.62a25,25,0,0,1,10.27,2.2L433,410a25.15,25.15,0,0,1-8.09-9.78L284.37,448.88a25,25,0,0,1-1.53,16.06L352.26,505A25,25,0,0,1,372.55,494.62Z"/><path class="cls-1" d="M375.05,624.64A25,25,0,0,1,395.23,639l140.5-48.66a24.91,24.91,0,0,1,0-11.56l-140.5-48.67a25,25,0,0,1-20.18,14.37Z"/><path class="cls-1" d="M195.32,87.74a25,25,0,0,1-20.54,0l-50.13,86.83a25,25,0,0,1,10.27,17.79H235.17a25,25,0,0,1,10.28-17.79Z"/><path class="cls-1" d="M349.76,249.54l-69.42-40.08a25,25,0,0,1-17.79,10.27v80.15a25,25,0,0,1,17.79,10.28l69.42-40.08a25,25,0,0,1,0-20.54Z"/><path class="cls-1" d="M424.86,379.21a25.11,25.11,0,0,1,8.09-9.79L382.82,282.6a25,25,0,0,1-30.56-8.19l-69.42,40.08a24.95,24.95,0,0,1,1.53,16.05Z"/><path class="cls-1" d="M520.05,234.93V154.78a24.85,24.85,0,0,1-14.66-6.71L393,245.42a24.78,24.78,0,0,1,4.44,11.89H497.67A25,25,0,0,1,520.05,234.93Z"/><path class="cls-1" d="M262.55,429.79a25,25,0,0,1,20.18,14.37l140.5-48.67a24.9,24.9,0,0,1,0-11.56l-140.5-48.67a25,25,0,0,1-20.18,14.37Z"/><path class="cls-1" d="M79.7,365.76a25,25,0,0,1,15.53,13.45l140.5-48.67a25,25,0,0,1,3.88-20.17L127.21,213a24.91,24.91,0,0,1-17.16,6.83c-.76,0-1.51,0-2.25-.11Z"/><path class="cls-1" d="M199.65,85.24l50.13,86.82a25,25,0,0,1,27.43,4.63l112.4-97.35a24.88,24.88,0,0,1-4.44-11.89H209.92A25,25,0,0,1,199.65,85.24Z"/><path class="cls-1" d="M557.55,559.69V479.54a25,25,0,0,1-20.19-14.37L396.87,513.84a24.86,24.86,0,0,1,0,11.55l140.49,48.67A25,25,0,0,1,557.55,559.69Z"/><path class="cls-1" d="M130.48,209.25l112.41,97.34a25,25,0,0,1,14.66-6.71V219.73a25,25,0,0,1-22.38-22.37H134.92A24.78,24.78,0,0,1,130.48,209.25Z"/><path class="cls-1" d="M580.48,570.18a24.78,24.78,0,0,1,4.44,11.89H760.17a25,25,0,0,1,10.28-17.79l-50.13-86.83a25,25,0,0,1-27.43-4.62Z"/><path class="cls-1" d="M917.86,695.88a25,25,0,0,1,10-5.81L899.8,544.51c-.74.07-1.49.11-2.25.11a25,25,0,0,1-20.29-10.4L807.84,574.3a25,25,0,0,1-2.33,24.62Z"/><path class="cls-1" d="M774.78,561.78A25,25,0,0,1,805.34,570l69.42-40.08a24.95,24.95,0,0,1-1.53-16l-140.5-48.67a25,25,0,0,1-8.08,9.78Z"/><path class="cls-1" d="M907.82,366.92l87.63-151.78a25.08,25.08,0,0,1-8.09-9.78L846.87,254a25,25,0,0,1-9.72,26.07l50.13,86.82a25,25,0,0,1,20.54,0Z"/><path class="cls-1" d="M1038.48,23.3a25.2,25.2,0,0,1-8.09-5.13L918,115.51a24.78,24.78,0,0,1,4.44,11.89h116.06"/><path class="cls-1" d="M1038.48,132.4H922.42a24.8,24.8,0,0,1-2.08,7.78l69.42,40.08a25,25,0,0,1,40.58,0l8.14-4.71"/><path class="cls-1" d="M457.82,366.92,508,280.1a25,25,0,0,1-10.28-17.79H397.42a25,25,0,0,1-10.27,17.79l50.13,86.82a25,25,0,0,1,20.54,0Z"/><path class="cls-1" d="M562.55,479.54v80.15a24.88,24.88,0,0,1,14.66,6.71l112.4-97.35a24.84,24.84,0,0,1-4.44-11.89H584.92A25,25,0,0,1,562.55,479.54Z"/><path class="cls-1" d="M657.73,205.36a25,25,0,0,1-8.08,9.78L699.78,302a25,25,0,0,1,30.56,8.19l69.42-40.08a24.95,24.95,0,0,1-1.53-16Z"/><path class="cls-1" d="M874.86,509.11a25,25,0,0,1,20.19-14.37V414.59a25,25,0,0,1-20.19-14.37L734.37,448.88a24.91,24.91,0,0,1,0,11.56Z"/><path class="cls-1" d="M883,369.42,832.82,282.6a25,25,0,0,1-30.56-8.19l-69.42,40.08a24.95,24.95,0,0,1,1.53,16.05l140.49,48.67A25.11,25.11,0,0,1,883,369.42Z"/><path class="cls-1" d="M562.55,689.6A25,25,0,0,1,584.92,712H685.17a24.88,24.88,0,0,1,4.44-11.89l-112.4-97.34a24.92,24.92,0,0,1-14.66,6.7Z"/><path class="cls-1" d="M732.73,335.26a25,25,0,0,1-20.18,14.37v80.16a25,25,0,0,1,20.18,14.37l140.5-48.67a24.91,24.91,0,0,1,0-11.56Z"/><path class="cls-1" d="M557.8,429.77c.74-.07,1.49-.11,2.25-.11a24.91,24.91,0,0,1,17.16,6.83l112.4-97.34A25,25,0,0,1,685.73,319l-140.5-48.67a25,25,0,0,1-15.53,13.45Z"/><path class="cls-1" d="M580.48,440.27a24.78,24.78,0,0,1,4.44,11.89H685.17a25,25,0,0,1,22.38-22.37V349.63a24.9,24.9,0,0,1-14.66-6.7Z"/><path class="cls-1" d="M645.32,217.65a25,25,0,0,1-30.56-8.19l-69.42,40.08a24.95,24.95,0,0,1,1.53,16l140.49,48.67a25.11,25.11,0,0,1,8.09-9.79Z"/><path class="cls-1" d="M1027.11,14.39a24.88,24.88,0,0,1-4.44-11.89H922.42a25,25,0,0,1-22.37,22.38V105a24.92,24.92,0,0,1,14.66,6.7Z"/><path class="cls-1" d="M1038.48,410.41l-13.83,24a24.93,24.93,0,0,1,10.27,17.78h3.56"/><path class="cls-1" d="M1038.48,457.16h-3.56A25,25,0,0,1,1024.65,475l13.83,24"/><path class="cls-1" d="M97.55,0a25,25,0,0,1-2.21,10.27l69.42,40.08a25,25,0,0,1,30.56-8.19L219.66,0"/><path class="cls-1" d="M89.76,209.46,20.34,249.54a25,25,0,0,1,2.21,10.27,25,25,0,0,1-10.4,20.29l50.13,86.82a25,25,0,0,1,10.27-2.21c.76,0,1.5,0,2.24.11l28.1-146A25,25,0,0,1,89.76,209.46Z"/><path class="cls-1" d="M0,102.86l89.61,77.6a25,25,0,0,0-2.35,24.67L17.84,245.21A24.93,24.93,0,0,0,0,234.94"/><path class="cls-1" d="M502.11,144.3a25.43,25.43,0,0,1-3.11-6l-214.21,53a24.42,24.42,0,0,1,.26,3.55,25,25,0,0,1-2.21,10.27l69.42,40.08a25,25,0,0,1,37.45-3.57Z"/><path class="cls-1" d="M697.55,0a25,25,0,0,1-10.4,20.29l50.13,86.82a25,25,0,0,1,10.27-2.21c.76,0,1.5,0,2.24.11L770,0"/><path class="cls-1" d="M537.26,444.39l-69.42-40.08a25,25,0,0,1-30.56,8.19l-50.13,86.83a25,25,0,0,1,8.08,9.78l140.5-48.67a24.95,24.95,0,0,1,1.53-16.05Z"/><path class="cls-1" d="M900.05,414.59v80.15A25,25,0,0,1,917.84,505l69.42-40.08a25,25,0,0,1,0-20.55l-69.42-40.08A25,25,0,0,1,900.05,414.59Z"/><path class="cls-1" d="M719.89,778.86l-7.6-39.49c-.74.06-1.48.1-2.24.1a24.8,24.8,0,0,1-10.27-2.21l-24,41.6"/><path class="cls-1" d="M1038.48,628.06l-83,71.61a24.86,24.86,0,0,1,4.42,11.93l78.55.23"/><path class="cls-1" d="M969.51,778.86l-24.21-42a25,25,0,0,1-20.49,0l-24.18,42"/><path class="cls-1" d="M93,765a24.78,24.78,0,0,1,4.44,11.89H197.67a25,25,0,0,1,22.38-22.37V674.39a24.9,24.9,0,0,1-14.66-6.7Z"/><path class="cls-1" d="M1038.48,716.83l-78.56-.23a25,25,0,0,1-10.29,17.72l25.65,44.54"/><path class="cls-1" d="M0,39,49.76,10.27A24.8,24.8,0,0,1,47.55,0"/><path class="cls-1" d="M0,96.24l92.89,80.45a24.91,24.91,0,0,1,10-5.79l-28.1-146c-.74.07-1.48.11-2.24.11A25,25,0,0,1,52.26,14.6L0,44.77"/><path class="cls-1" d="M0,494.74a25,25,0,0,1,7.82,2.08L58,410a25,25,0,0,1-10.28-17.79H0"/><path class="cls-1" d="M47.57,778.86A24.92,24.92,0,0,1,58,759.14L7.82,672.31A24.77,24.77,0,0,1,0,674.39"/><path class="cls-1" d="M0,387.21H47.67A25,25,0,0,1,58,369.42L7.82,282.6A25,25,0,0,1,0,284.68"/><path class="cls-1" d="M775.09,0,754.7,106a25,25,0,0,1,10,5.78l112.4-97.34A24.88,24.88,0,0,1,872.55,0"/><path class="cls-1" d="M780.58,778.86l-53.37-46.22a25,25,0,0,1-10,5.79L725,778.86"/><path class="cls-1" d="M12.15,669.81l50.13,86.82a25,25,0,0,1,27.43,4.62l112.4-97.34A24.88,24.88,0,0,1,197.67,652H22.42A25,25,0,0,1,12.15,669.81Z"/><path class="cls-1" d="M747.55,154.9a25,25,0,0,1-20.29-10.4l-69.42,40.08a25,25,0,0,1,1.53,16.06L799.86,249.3a25.15,25.15,0,0,1,8.09-9.78L757.82,152.7A25,25,0,0,1,747.55,154.9Z"/><path class="cls-1" d="M338.87,0l54,46.78a24.9,24.9,0,0,1,14.66-6.7V0"/><path class="cls-1" d="M225.44,0,199.65,44.66a25,25,0,0,1,10.27,17.79H385.17a24.88,24.88,0,0,1,4.44-11.89L331.23,0"/><path class="cls-1" d="M92.84,14.6A25.1,25.1,0,0,1,79.7,24l28.1,146c.74-.06,1.49-.1,2.25-.1a25,25,0,0,1,10.27,2.2l50.13-86.82a25,25,0,0,1-8.19-30.56Z"/><path class="cls-1" d="M499.76,119.63,430.34,79.55a25,25,0,0,1-37.45,3.57L280.48,180.46a25.1,25.1,0,0,1,3.12,6l214.2-53a25.91,25.91,0,0,1-.25-3.55A24.84,24.84,0,0,1,499.76,119.63Z"/><path class="cls-1" d="M130.39,537.78,18,635.13A24.78,24.78,0,0,1,22.42,647H197.67A25,25,0,0,1,208,629.23l-50.13-86.82a25,25,0,0,1-27.43-4.63Z"/><path class="cls-1" d="M222.55,624.52c.76,0,1.5,0,2.24.1l28.1-146a25,25,0,0,1-13.13-9.36l-69.42,40.08a25,25,0,0,1-8.19,30.56l50.13,86.83A24.8,24.8,0,0,1,222.55,624.52Z"/><path class="cls-1" d="M412.55,0V40.08a25,25,0,0,1,17.79,10.27l69.42-40.08A24.8,24.8,0,0,1,497.55,0"/><path class="cls-1" d="M.05,544.49v80.15a25,25,0,0,1,14.66,6.71L127.11,534a24.88,24.88,0,0,1-4.44-11.9H22.42A25,25,0,0,1,.05,544.49Z"/><path class="cls-1" d="M12.15,499.33a24.93,24.93,0,0,1,10.27,17.78H122.67A25,25,0,0,1,133,499.33L82.82,412.5a25,25,0,0,1-20.54,0Z"/><path class="cls-1" d="M652.11,14.39A24.88,24.88,0,0,1,647.67,2.5H547.42a25,25,0,0,1-22.37,22.38V105a24.92,24.92,0,0,1,14.66,6.7Z"/><path class="cls-1" d="M987.26,184.58,917.84,144.5a25,25,0,0,1-30.56,8.2l-50.13,86.82a25,25,0,0,1,8.08,9.78l140.5-48.66a25,25,0,0,1,1.53-16.06Z"/><path class="cls-1" d="M883,150.19a25,25,0,0,1-10.28-17.79H772.42a25,25,0,0,1-10.27,17.79L812.28,237a25,25,0,0,1,20.54,0Z"/><path class="cls-1" d="M895.05,24.88a25,25,0,0,1-14.66-6.71L768,115.51a24.78,24.78,0,0,1,4.44,11.89H872.67A25,25,0,0,1,895.05,105Z"/><path class="cls-1" d="M682.82,22.79A24.8,24.8,0,0,1,672.55,25c-.76,0-1.51,0-2.25-.11l-28.1,146a25,25,0,0,1,13.14,9.36l69.42-40.08A25,25,0,0,1,733,109.62Z"/><path class="cls-1" d="M524.79,284.7c-.74.07-1.48.11-2.24.11a25,25,0,0,1-10.27-2.21l-50.13,86.82A25,25,0,0,1,470.34,400l69.42,40.08a25,25,0,0,1,13.13-9.35Z"/><path class="cls-1" d="M665.39,24a24.89,24.89,0,0,1-10-5.78L543,115.51a25,25,0,0,1,2.36,24.67l69.42,40.08a25,25,0,0,1,20.29-10.4c.76,0,1.5,0,2.24.1Z"/><path class="cls-1" d="M520.05,24.88A25,25,0,0,1,502.26,14.6L432.84,54.68a25,25,0,0,1,0,20.54l69.42,40.08A25,25,0,0,1,520.05,105Z"/><path class="cls-1" d="M525.05,154.78v80.15a25,25,0,0,1,17.79,10.28l69.42-40.08a25,25,0,0,1,0-20.55L542.84,144.5A25,25,0,0,1,525.05,154.78Z"/><path class="cls-1" d="M225.05,754.55a24.92,24.92,0,0,1,14.66,6.7l112.4-97.34A24.88,24.88,0,0,1,347.67,652H247.42a25,25,0,0,1-22.37,22.37Z"/><path class="cls-1" d="M1038.48,249.11l-18.16-31.46a25,25,0,0,1-20.54,0L912.15,369.42a25,25,0,0,1,8.08,9.79l118.25-41"/><path class="cls-1" d="M1038.48,181.33l-5.64,3.25a25,25,0,0,1-8.19,30.56l13.83,24"/><path class="cls-1" d="M1038.48,343.54,921.87,383.93A24.95,24.95,0,0,1,920.34,400l69.42,40.08a25,25,0,0,1,30.56-8.19l18.16-31.46"/><path class="cls-1" d="M243,765a24.78,24.78,0,0,1,4.44,11.89H422.67A25,25,0,0,1,433,759.14l-50.13-86.83a25,25,0,0,1-27.43-4.62Z"/><path class="cls-1" d="M1038.48,508.92l-18.16-31.47a25,25,0,0,1-30.56-8.19l-69.42,40.08a24.95,24.95,0,0,1,1.53,16.05l116.61,40.4"/><path class="cls-1" d="M670,778.86l25.47-44.1A25,25,0,0,1,685.17,717H584.92a25,25,0,0,1-10.27,17.79l25.46,44.1"/><path class="cls-1" d="M594.34,778.86l-24-41.6a25,25,0,0,1-30.56-8.19l-69.42,40.08a24.81,24.81,0,0,1,2.19,9.71"/><path class="cls-1" d="M1038.48,571.08l-118.25-41a25,25,0,0,1-15.52,13.45l28.08,145.56c.75-.07,1.5-.11,2.26-.11a24.9,24.9,0,0,1,17.19,6.86l86.24-74.43"/><path class="cls-1" d="M437.28,756.63a25,25,0,0,1,30.56,8.19l69.42-40.08a24.95,24.95,0,0,1-1.53-16L395.23,660a25,25,0,0,1-8.08,9.79Z"/><path class="cls-1" d="M894.86,778.86l25.62-44.53a25,25,0,0,1-10.3-17.76l-175.25.35a24.83,24.83,0,0,1-4.45,11.94l57.74,50"/><path class="cls-1" d="M724.65,694.18a25,25,0,0,1,10.27,17.74l175.25-.35a24.79,24.79,0,0,1,4.42-11.9l-112.35-97a25,25,0,0,1-27.46,4.65Z"/><path class="cls-1" d="M692.89,696.3a25,25,0,0,1,27.43-4.62l50.13-86.82a25,25,0,0,1-10.28-17.79H584.92A24.78,24.78,0,0,1,580.48,599Z"/></g></g></svg>