<svg xmlns="http://www.w3.org/2000/svg" viewBox="0 0 1038.48 778.86"><defs><style>.cls-1{fill:lime;}</style></defs><title>Element 36</title><g id="Ebene_2" data-name="Ebene 2"><g id="Ebene_1-2" data-name="Ebene 1"><path class="cls-1" d="M1038.48,293.5v-52a59.74,59.74,0,0,0,0,52Z"/><path class="cls-1" d="M776.46,735l4.33,2.5a59.73,59.73,0,0,0-7,41.34h7.68a52,52,0,0,1,5.1-36.35,102.17,102.17,0,0,1,0-100,52.24,52.24,0,0,1,0-50,102.17,102.17,0,0,1,0-100,102.17,102.17,0,0,1,0-100,52.24,52.24,0,0,1,0-50,52.24,52.24,0,0,1,0-50,102.17,102.17,0,0,1,0-100,52.24,52.24,0,0,1,0-50,52.24,52.24,0,0,1,0-50A102.14,102.14,0,0,1,782.79,0H768.22A21.64,21.64,0,0,0,770,3.75l-4.33,2.5A27.26,27.26,0,0,1,763,0h-7.72a34.77,34.77,0,0,0,3.88,10l-4.33,2.5A40,40,0,0,1,750.14,0h-7.6a47.15,47.15,0,0,0,5.77,16.25l-2.19,1.26,2.19,1.26a47.29,47.29,0,0,0,0,47.48l-2.19,1.26,2.19,1.26a96.73,96.73,0,0,0-12.89,42.56l2.05,1.18a9.92,9.92,0,0,0,0,10l-2.05,1.18a96.77,96.77,0,0,0,12.89,42.57l-2.19,1.26,2.19,1.26a47.29,47.29,0,0,0,0,47.48l-2.19,1.26,2.19,1.26a47.29,47.29,0,0,0,0,47.48l-2.19,1.26,2.19,1.26a47.29,47.29,0,0,0,0,47.48l-2.19,1.26,2.19,1.26a96.73,96.73,0,0,0-12.89,42.56l2.05,1.18a9.92,9.92,0,0,0,0,10l-2.05,1.18a96.77,96.77,0,0,0,12.89,42.57l-2.19,1.26,2.19,1.26a47.29,47.29,0,0,0,0,47.48l-2.19,1.26,2.19,1.26a47.29,47.29,0,0,0,0,47.48l-2.19,1.26,2.19,1.26a47.29,47.29,0,0,0,0,47.48l-2.19,1.26,2.19,1.26a47.29,47.29,0,0,0,0,47.48l-2.19,1.26,2.19,1.26a47.29,47.29,0,0,0,0,47.48l-2.19,1.26,2.19,1.26a47.29,47.29,0,0,0,0,47.48l-2.19,1.26,2.19,1.26a96.73,96.73,0,0,0-12.89,42.56l2.05,1.18a9.92,9.92,0,0,0,0,10l-2.05,1.18c.11,1.74.27,3.47.47,5.18h7.56a90.53,90.53,0,0,1-.73-11.35,89.39,89.39,0,0,1,12.08-45l4.35,2.51a84.75,84.75,0,0,0-10.67,53.83h7.59a77,77,0,0,1,9.57-50.08l4.33,2.5a71.92,71.92,0,0,0-9.75,36.23,73.24,73.24,0,0,0,.9,11.35h7.61A64.64,64.64,0,0,1,776.46,735Zm0-150,4.32,2.49a9.92,9.92,0,0,0,0,10l-4.32,2.5a14.83,14.83,0,0,1,0-15Zm0,50,4.32,2.49a9.92,9.92,0,0,0,0,10l-4.32,2.5a14.83,14.83,0,0,1,0-15Zm0-150,4.32,2.49a9.92,9.92,0,0,0,0,10l-4.32,2.5a14.83,14.83,0,0,1,0-15Zm0-200,4.32,2.49a9.92,9.92,0,0,0,0,10l-4.32,2.5a14.83,14.83,0,0,1,0-15Zm4.32-97.51a9.92,9.92,0,0,0,0,10l-4.32,2.5a14.83,14.83,0,0,1,0-15ZM776.46,85h0l4.33,2.5a59.74,59.74,0,0,0,0,60l-4.33,2.5h0a64.74,64.74,0,0,1,0-65Zm-16.24,32.49A72,72,0,0,0,770,153.74l-4.33,2.5h0a77.19,77.19,0,0,1,0-77.46h0l4.33,2.5A71.92,71.92,0,0,0,760.22,117.51ZM770,303.75l-4.33,2.5a27.38,27.38,0,0,1,0-27.49l4.33,2.5a22.38,22.38,0,0,0,0,22.49Zm0-50-4.33,2.5a27.38,27.38,0,0,1,0-27.49l4.33,2.5a22.38,22.38,0,0,0,0,22.49Zm0-50-4.33,2.5a27.38,27.38,0,0,1,0-27.49l4.33,2.5a22.38,22.38,0,0,0,0,22.49Zm-4.33-175,4.33,2.5a22.38,22.38,0,0,0,0,22.49l-4.33,2.5a27.38,27.38,0,0,1,0-27.49ZM754.8,22.52l4.33,2.5a34.83,34.83,0,0,0,0,35l-4.33,2.5a39.83,39.83,0,0,1,0-40Zm-12.08,95a89.39,89.39,0,0,1,12.08-45h0L759.15,75a84.65,84.65,0,0,0,0,85l-4.35,2.51h0A89.42,89.42,0,0,1,742.72,117.51ZM759.13,210l-4.33,2.5a39.83,39.83,0,0,1,0-40l4.33,2.5a34.83,34.83,0,0,0,0,35Zm0,50-4.33,2.5a39.83,39.83,0,0,1,0-40l4.33,2.5a34.83,34.83,0,0,0,0,35Zm0,50-4.33,2.5a39.83,39.83,0,0,1,0-40l4.33,2.5a34.83,34.83,0,0,0,0,35Zm0,150-4.33,2.5a39.83,39.83,0,0,1,0-40l4.33,2.5a34.83,34.83,0,0,0,0,35Zm-4.33,12.52,4.33,2.5a34.83,34.83,0,0,0,0,35l-4.33,2.5a39.83,39.83,0,0,1,0-40Zm0,50,4.33,2.5a34.83,34.83,0,0,0,0,35l-4.33,2.5a39.83,39.83,0,0,1,0-40Zm0,50,4.33,2.5a34.83,34.83,0,0,0,0,35l-4.33,2.5a39.83,39.83,0,0,1,0-40Zm0,50,4.33,2.5a34.83,34.83,0,0,0,0,35l-4.33,2.5a39.83,39.83,0,0,1,0-40ZM759.13,710l-4.33,2.5a39.83,39.83,0,0,1,0-40l4.33,2.5a34.83,34.83,0,0,0,0,35ZM754.8,412.5a89.82,89.82,0,0,1,0-90l4.35,2.51a84.65,84.65,0,0,0,0,85ZM770,453.75l-4.33,2.5a27.38,27.38,0,0,1,0-27.49l4.33,2.5a22.38,22.38,0,0,0,0,22.49Zm-4.33,25,4.33,2.5a22.38,22.38,0,0,0,0,22.49l-4.33,2.5a27.38,27.38,0,0,1,0-27.49Zm0,50,4.33,2.5a22.38,22.38,0,0,0,0,22.49l-4.33,2.5a27.38,27.38,0,0,1,0-27.49Zm0,50,4.33,2.5a22.38,22.38,0,0,0,0,22.49l-4.33,2.5a27.38,27.38,0,0,1,0-27.49Zm0,50,4.33,2.5a22.38,22.38,0,0,0,0,22.49l-4.33,2.5a27.38,27.38,0,0,1,0-27.49Zm4.33,75-4.33,2.5a27.38,27.38,0,0,1,0-27.49l4.33,2.5a22.38,22.38,0,0,0,0,22.49Zm-4.31-297.51a77.19,77.19,0,0,1,0-77.46l4.33,2.5a72.19,72.19,0,0,0,0,72.46Zm2.08-38.73A64.65,64.65,0,0,1,776.46,335l4.33,2.5a59.74,59.74,0,0,0,0,60l-4.33,2.5A64.59,64.59,0,0,1,767.72,367.51Z"/><path class="cls-1" d="M838.07,778.86c1-2.16,2.14-4.28,3.33-6.34l4.35,2.51c-.73,1.26-1.42,2.54-2.08,3.83h8.52a.35.35,0,0,0,0-.08l.15.08h14.42a102.24,102.24,0,0,1,6.38-86.35,52.32,52.32,0,0,1,0-50,52.3,52.3,0,0,1,.14-50.25,52.28,52.28,0,0,1,0-49.5,52.3,52.3,0,0,1-.14-50.25,52.32,52.32,0,0,1,0-50,52.32,52.32,0,0,1,0-50,52.32,52.32,0,0,1,0-50,102.24,102.24,0,0,1,0-100,52.32,52.32,0,0,1,0-50,52.32,52.32,0,0,1,0-50,102.24,102.24,0,0,1,0-100A101.89,101.89,0,0,1,860.41,0h-5.59a21.64,21.64,0,0,0,1.73,3.75l-4.33,2.5A27.26,27.26,0,0,1,849.57,0h-7.72a34.77,34.77,0,0,0,3.88,10l-4.33,2.5A39.77,39.77,0,0,1,836.75,0h-7.61a47.36,47.36,0,0,0,5.77,16.25l-2.19,1.26,2.19,1.26a47.29,47.29,0,0,0,0,47.48l-2.19,1.26,2.19,1.26a47.29,47.29,0,0,0,0,47.48l-2.19,1.26,2.19,1.26a47.29,47.29,0,0,0,0,47.48l-2.19,1.26,2.19,1.26a47.29,47.29,0,0,0,0,47.48l-2.19,1.26,2.19,1.26a47.29,47.29,0,0,0,0,47.48l-2.19,1.26,2.19,1.26a47.29,47.29,0,0,0,0,47.48l-2.19,1.26,2.19,1.26A96.72,96.72,0,0,0,822,361.33l2,1.18a9.92,9.92,0,0,0,0,10l-2,1.18a96.76,96.76,0,0,0,12.88,42.57l-2.19,1.26,2.19,1.26a47.29,47.29,0,0,0,0,47.48l-2.19,1.26,2.19,1.26a47.29,47.29,0,0,0,0,47.48l-2.19,1.26,2.19,1.26a47.29,47.29,0,0,0,0,47.48l-2.19,1.26,2.19,1.26A96.72,96.72,0,0,0,822,611.33l2,1.18a9.92,9.92,0,0,0,0,10l-2,1.18a96.76,96.76,0,0,0,12.88,42.57l-2.19,1.26,2.19,1.26a47.29,47.29,0,0,0,0,47.48l-2.19,1.26,2.19,1.26a47.29,47.29,0,0,0,0,47.48l-2.19,1.26,2.19,1.26a97.2,97.2,0,0,0-5.09,10.09Zm25-643.84,4.32,2.49a9.92,9.92,0,0,0,0,10l-4.32,2.5a14.83,14.83,0,0,1,0-15Zm0,50,4.32,2.49a9.92,9.92,0,0,0,0,10l-4.32,2.5a14.83,14.83,0,0,1,0-15Zm0,50,4.32,2.49a9.92,9.92,0,0,0,0,10l-4.32,2.5a14.83,14.83,0,0,1,0-15Zm0-200,4.32,2.49a9.92,9.92,0,0,0,0,10L863.05,50a14.83,14.83,0,0,1,0-15ZM845.73,760l-4.33,2.5a39.83,39.83,0,0,1,0-40l4.33,2.5a34.83,34.83,0,0,0,0,35Zm0-50-4.33,2.5a39.83,39.83,0,0,1,0-40l4.33,2.5a34.83,34.83,0,0,0,0,35Zm10.82,43.75-4.33,2.5a27.38,27.38,0,0,1,0-27.49l4.33,2.5a22.38,22.38,0,0,0,0,22.49Zm-3-61.24a22.34,22.34,0,0,0,3,11.24l-4.33,2.5a27.38,27.38,0,0,1,0-27.49l4.33,2.5A22.35,22.35,0,0,0,853.52,692.51Zm-1.28-36.27a77.25,77.25,0,0,1,0-77.46l4.33,2.5a72.25,72.25,0,0,0,0,72.46Zm4.31-102.49-4.33,2.5a27.38,27.38,0,0,1,0-27.49l4.33,2.5a22.38,22.38,0,0,0,0,22.49Zm0-100-4.33,2.5a27.38,27.38,0,0,1,0-27.49l4.33,2.5a22.38,22.38,0,0,0,0,22.49Zm-4.33,25,4.33,2.5a22.38,22.38,0,0,0,0,22.49l-4.33,2.5a27.38,27.38,0,0,1,0-27.49Zm15.15,208.75a9.92,9.92,0,0,0,0,10l-4.32,2.5a14.83,14.83,0,0,1,0-15Zm0-100a59.81,59.81,0,0,0,0,60l-4.33,2.5a64.8,64.8,0,0,1,0-65Zm0-50a9.92,9.92,0,0,0,0,10l-4.32,2.5a14.83,14.83,0,0,1,0-15Zm0-50a9.92,9.92,0,0,0,0,10l-4.32,2.5a14.83,14.83,0,0,1,0-15Zm0-50a9.92,9.92,0,0,0,0,10l-4.32,2.5a14.83,14.83,0,0,1,0-15ZM863.06,335l4.33,2.5a59.81,59.81,0,0,0,0,60l-4.33,2.5a64.8,64.8,0,0,1,0-65Zm-16.23,32.49a72.07,72.07,0,0,0,9.74,36.23l-4.33,2.5a77.25,77.25,0,0,1,0-77.46l4.33,2.5A72,72,0,0,0,846.83,367.51Zm5.39-338.75,4.33,2.5a22.38,22.38,0,0,0,0,22.49l-4.33,2.5a27.38,27.38,0,0,1,0-27.49Zm0,50,4.33,2.5a22.38,22.38,0,0,0,0,22.49l-4.33,2.5a27.38,27.38,0,0,1,0-27.49Zm0,50,4.33,2.5a22.38,22.38,0,0,0,0,22.49l-4.33,2.5a27.38,27.38,0,0,1,0-27.49Zm0,50,4.33,2.5a22.38,22.38,0,0,0,0,22.49l-4.33,2.5a27.38,27.38,0,0,1,0-27.49Zm0,50,4.33,2.5a22.38,22.38,0,0,0,0,22.49l-4.33,2.5a27.38,27.38,0,0,1,0-27.49Zm0,50,4.33,2.5a22.38,22.38,0,0,0,0,22.49l-4.33,2.5a27.38,27.38,0,0,1,0-27.49ZM841.4,22.52l4.33,2.5a34.83,34.83,0,0,0,0,35l-4.33,2.5a39.83,39.83,0,0,1,0-40Zm0,50,4.33,2.5a34.83,34.83,0,0,0,0,35l-4.33,2.5a39.83,39.83,0,0,1,0-40Zm0,50,4.33,2.5a34.83,34.83,0,0,0,0,35l-4.33,2.5a39.83,39.83,0,0,1,0-40Zm0,50,4.33,2.5a34.83,34.83,0,0,0,0,35l-4.33,2.5a39.83,39.83,0,0,1,0-40Zm0,50,4.33,2.5a34.83,34.83,0,0,0,0,35l-4.33,2.5a39.83,39.83,0,0,1,0-40Zm0,50,4.33,2.5a34.83,34.83,0,0,0,0,35l-4.33,2.5a39.83,39.83,0,0,1,0-40Zm-12.07,95a89.49,89.49,0,0,1,12.07-45l4.35,2.51a84.72,84.72,0,0,0,0,85l-4.35,2.51A89.52,89.52,0,0,1,829.33,367.51ZM845.73,560l-4.33,2.5a39.83,39.83,0,0,1,0-40l4.33,2.5a34.83,34.83,0,0,0,0,35Zm0-100-4.33,2.5a39.83,39.83,0,0,1,0-40l4.33,2.5a34.83,34.83,0,0,0,0,35Zm-4.33,12.52,4.33,2.5a34.83,34.83,0,0,0,0,35l-4.33,2.5a39.83,39.83,0,0,1,0-40Zm-12.07,145a89.49,89.49,0,0,1,12.07-45l4.35,2.51a84.72,84.72,0,0,0,0,85l-4.35,2.51A89.52,89.52,0,0,1,829.33,617.51Z"/><path class="cls-1" d="M87.4,767.51a52.13,52.13,0,0,1,6.37-25,102.24,102.24,0,0,1,0-100,102.24,102.24,0,0,1,0-100,52.24,52.24,0,0,1,0-50,52.24,52.24,0,0,1,0-50,102.24,102.24,0,0,1,0-100,52.24,52.24,0,0,1,0-50,52.24,52.24,0,0,1,0-50,102.24,102.24,0,0,1,0-100,52.24,52.24,0,0,1,0-50,52.24,52.24,0,0,1,0-50A101.6,101.6,0,0,1,81,0H75.41a22.41,22.41,0,0,0,1.73,3.75l-4.33,2.5A27.23,27.23,0,0,1,70.17,0H62.44a35.06,35.06,0,0,0,3.88,10L62,12.5A39.77,39.77,0,0,1,57.34,0H49.73A47.57,47.57,0,0,0,55.5,16.25l-2.19,1.26,2.18,1.26a47.29,47.29,0,0,0,0,47.48L53.3,67.51l2.19,1.26A96.77,96.77,0,0,0,42.6,111.33l2,1.18a9.92,9.92,0,0,0,0,10l-2,1.19a96.77,96.77,0,0,0,12.89,42.56l-2.19,1.26,2.19,1.26a47.29,47.29,0,0,0,0,47.48l-2.19,1.26,2.19,1.26A96.77,96.77,0,0,0,42.6,261.33l2,1.18a9.92,9.92,0,0,0,0,10l-2,1.19a96.77,96.77,0,0,0,12.89,42.56l-2.19,1.26,2.19,1.26a47.29,47.29,0,0,0,0,47.48l-2.19,1.26,2.19,1.26a47.29,47.29,0,0,0,0,47.48l-2.19,1.26,2.19,1.26A96.77,96.77,0,0,0,42.6,461.33l2,1.18a9.92,9.92,0,0,0,0,10l-2,1.19a96.77,96.77,0,0,0,12.89,42.56l-2.19,1.26,2.19,1.26a47.29,47.29,0,0,0,0,47.48l-1.39.8,3,1.72a47.36,47.36,0,0,0,0,47.48l-3,1.72,1.39.8a47.29,47.29,0,0,0,0,47.48l-2.19,1.26,2.19,1.26a47.29,47.29,0,0,0,0,47.48l-2.19,1.26,2.19,1.26a47.29,47.29,0,0,0,0,47.48l-2.19,1.26,2.19,1.26a47.19,47.19,0,0,0-4.36,10.09H59A38.9,38.9,0,0,1,62,772.52l4.33,2.5a33.54,33.54,0,0,0-1.92,3.84h8.36a.41.41,0,0,1,0-.09l.17.09h15.7A52.43,52.43,0,0,1,87.4,767.51ZM83.63,635,88,637.51a9.92,9.92,0,0,0,0,10L83.63,650a14.83,14.83,0,0,1,0-15ZM88,537.51a9.92,9.92,0,0,0,0,10L83.63,550a14.83,14.83,0,0,1,0-15ZM83.64,435l4.33,2.5a59.74,59.74,0,0,0,0,60L83.64,500a64.74,64.74,0,0,1,0-65ZM77.13,553.75l-4.33,2.5a27.36,27.36,0,0,1,0-27.48l4.33,2.49a22.38,22.38,0,0,0,0,22.49Zm0,100-4.33,2.5a27.36,27.36,0,0,1,0-27.48l4.33,2.49a22.38,22.38,0,0,0,0,22.49ZM72.82,506.24a77.19,77.19,0,0,1,0-77.46l4.33,2.5a72.19,72.19,0,0,0,0,72.46Zm4.31-302.49-4.33,2.5a27.36,27.36,0,0,1,0-27.48l4.33,2.49a22.38,22.38,0,0,0,0,22.49Zm-4.31,25,4.33,2.5a72.19,72.19,0,0,0,0,72.46l-4.33,2.5a77.19,77.19,0,0,1,0-77.46Zm4.31,125-4.33,2.5a27.36,27.36,0,0,1,0-27.48l4.33,2.49a22.38,22.38,0,0,0,0,22.49Zm-4.33,25,4.33,2.49a22.38,22.38,0,0,0,0,22.49l-4.33,2.5a27.36,27.36,0,0,1,0-27.48ZM88,337.51a9.92,9.92,0,0,0,0,10L83.63,350a14.83,14.83,0,0,1,0-15ZM83.64,235l4.33,2.5a59.74,59.74,0,0,0,0,60L83.64,300a64.74,64.74,0,0,1,0-65ZM88,87.52a59.74,59.74,0,0,0,0,60L83.64,150a64.74,64.74,0,0,1,0-65ZM83.63,35,88,37.51a9.92,9.92,0,0,0,0,10L83.63,50a14.83,14.83,0,0,1,0-15ZM77.15,81.28a72.19,72.19,0,0,0,0,72.46l-4.33,2.5a77.19,77.19,0,0,1,0-77.46ZM72.8,28.77l4.33,2.49a22.38,22.38,0,0,0,0,22.49l-4.33,2.5a27.36,27.36,0,0,1,0-27.48ZM62,22.52,66.31,25a34.83,34.83,0,0,0,0,35L62,62.5a39.83,39.83,0,0,1,0-40Zm-12.08,95A89.39,89.39,0,0,1,62,72.52L66.33,75a84.65,84.65,0,0,0,0,85L62,162.5A89.42,89.42,0,0,1,49.9,117.51ZM66.31,210,62,212.5a39.83,39.83,0,0,1,0-40l4.33,2.5a34.83,34.83,0,0,0,0,35ZM49.9,267.51a89.39,89.39,0,0,1,12.08-45L66.33,225a84.65,84.65,0,0,0,0,85L62,312.5A89.42,89.42,0,0,1,49.9,267.51ZM66.31,360,62,362.5a39.83,39.83,0,0,1,0-40l4.33,2.5a34.83,34.83,0,0,0,0,35Zm0,50L62,412.5a39.83,39.83,0,0,1,0-40l4.33,2.5a34.83,34.83,0,0,0,0,35ZM49.9,467.51a89.39,89.39,0,0,1,12.08-45L66.33,425a84.65,84.65,0,0,0,0,85L62,512.5A89.42,89.42,0,0,1,49.9,467.51Zm6.7,75a39.74,39.74,0,0,1,5.38-20l4.33,2.5a34.83,34.83,0,0,0,0,35L62,562.5A39.77,39.77,0,0,1,56.6,542.51Zm5.38,80,4.33,2.5a34.83,34.83,0,0,0,0,35L62,662.5a39.83,39.83,0,0,1,0-40ZM66.31,760,62,762.5a39.83,39.83,0,0,1,0-40l4.33,2.5a34.83,34.83,0,0,0,0,35Zm0-50L62,712.5a39.83,39.83,0,0,1,0-40l4.33,2.5a34.83,34.83,0,0,0,0,35Zm1.6-100-4.33,2.5a39.89,39.89,0,0,1,0-40l4.33,2.5a34.89,34.89,0,0,0,0,35Zm9.22,143.75-4.33,2.5a27.36,27.36,0,0,1,0-27.48l4.33,2.49a22.38,22.38,0,0,0,0,22.49Zm-3-61.24a22.34,22.34,0,0,0,3,11.24l-4.33,2.5a27.36,27.36,0,0,1,0-27.48l4.33,2.49A22.38,22.38,0,0,0,74.1,692.51Zm4.63-88.76-4.33,2.5a27.43,27.43,0,0,1,0-27.48l4.33,2.49a22.45,22.45,0,0,0,0,22.49ZM81.6,742.51a14.86,14.86,0,0,1,2-7.49L88,737.51a9.92,9.92,0,0,0,0,10L83.63,750A14.89,14.89,0,0,1,81.6,742.51Z"/><path class="cls-1" d="M916.49,767.51a52.32,52.32,0,0,1,0-50,52.32,52.32,0,0,1,0-50,52.32,52.32,0,0,1,0-50,102.24,102.24,0,0,1,0-100,52.32,52.32,0,0,1,0-50,102.24,102.24,0,0,1,0-100,52.32,52.32,0,0,1,0-50,52.32,52.32,0,0,1,0-50,102.24,102.24,0,0,1,0-100,52.32,52.32,0,0,1,0-50,52.32,52.32,0,0,1,0-50,52.32,52.32,0,0,1,0-50A52.33,52.33,0,0,1,910.68,0H903.1a59.54,59.54,0,0,0,7.59,22.49L906.36,25a64.55,64.55,0,0,1-8.29-25h-7.55a71.9,71.9,0,0,0,9.35,28.74l-4.33,2.5A77.19,77.19,0,0,1,885.49,0H878a84.31,84.31,0,0,0,11.08,35L884.7,37.5A89.38,89.38,0,0,1,873,0h-7.52a96.88,96.88,0,0,0,12.78,41.25L876,42.51l2.19,1.26a96.85,96.85,0,0,0-12.88,42.56l2,1.18a9.92,9.92,0,0,0,0,10l-2,1.18a96.89,96.89,0,0,0,12.88,42.57L876,142.51l2.19,1.26a47.36,47.36,0,0,0,0,47.48L876,192.51l2.19,1.26a47.36,47.36,0,0,0,0,47.48L876,242.51l2.19,1.26a96.85,96.85,0,0,0-12.88,42.56l2,1.18a9.92,9.92,0,0,0,0,10l-2,1.18a96.89,96.89,0,0,0,12.88,42.57L876,342.51l2.19,1.26a47.36,47.36,0,0,0,0,47.48L876,392.51l2.19,1.26a47.36,47.36,0,0,0,0,47.48L876,442.51l2.19,1.26a47.36,47.36,0,0,0,0,47.48L876,492.51l2.19,1.26a47.36,47.36,0,0,0,0,47.48l-2.05,1.18,2.33,1.34a47.29,47.29,0,0,0,0,47.48l-2.33,1.34,2.05,1.18a47.36,47.36,0,0,0,0,47.48L876,642.51l2.19,1.26a47.36,47.36,0,0,0,0,47.48L876,692.51l2.19,1.26a96.85,96.85,0,0,0-12.88,42.56l2,1.18a9.92,9.92,0,0,0,0,10l-2,1.18a96.59,96.59,0,0,0,6.83,30.18h8.15a89.87,89.87,0,0,1,4.39-81.34l4.35,2.51a84.65,84.65,0,0,0-3.21,78.83h8.38a77.24,77.24,0,0,1,1.32-75.08l4.33,2.5a72.25,72.25,0,0,0,0,72.46l-.21.12H912A52.67,52.67,0,0,1,916.49,767.51ZM906.35,460l4.33,2.49a9.92,9.92,0,0,0,0,10l-4.33,2.5a14.9,14.9,0,0,1,0-15Zm0,50,4.33,2.49a9.92,9.92,0,0,0,0,10l-4.33,2.5a14.9,14.9,0,0,1,0-15Zm0,100,4.33,2.49a9.92,9.92,0,0,0,0,10l-4.33,2.5a14.9,14.9,0,0,1,0-15Zm0,50,4.33,2.49a9.92,9.92,0,0,0,0,10l-4.33,2.5a14.9,14.9,0,0,1,0-15Zm4.33-297.51a9.92,9.92,0,0,0,0,10l-4.33,2.5a14.9,14.9,0,0,1,0-15ZM906.36,260l4.33,2.5a59.81,59.81,0,0,0,0,60l-4.33,2.5a64.8,64.8,0,0,1,0-65Zm-6.51,268.73-4.33,2.5a27.44,27.44,0,0,1,0-27.49l4.33,2.5a22.45,22.45,0,0,0,0,22.49Zm0-50-4.33,2.5a27.44,27.44,0,0,1,0-27.49l4.33,2.5a22.45,22.45,0,0,0,0,22.49Zm0-50-4.33,2.5a27.44,27.44,0,0,1,0-27.49l4.33,2.5a22.45,22.45,0,0,0,0,22.49Zm0-50-4.33,2.5a27.44,27.44,0,0,1,0-27.49l4.33,2.5a22.45,22.45,0,0,0,0,22.49Zm-4.31-47.51a77.25,77.25,0,0,1,0-77.46l4.33,2.5a72.25,72.25,0,0,0,0,72.46Zm4.31-152.49-4.33,2.5a27.44,27.44,0,0,1,0-27.49l4.33,2.5a22.45,22.45,0,0,0,0,22.49Zm-4.33,25,4.33,2.5a22.45,22.45,0,0,0,0,22.49l-4.33,2.5a27.44,27.44,0,0,1,0-27.49Zm15.16-41.25a9.92,9.92,0,0,0,0,10l-4.33,2.5a14.9,14.9,0,0,1,0-15ZM906.36,60l4.33,2.5a59.81,59.81,0,0,0,0,60l-4.33,2.5a64.8,64.8,0,0,1,0-65Zm-10.82-6.24,4.33,2.5a72.25,72.25,0,0,0,0,72.46l-4.33,2.5a77.25,77.25,0,0,1,0-77.46ZM872.63,92.51a89.49,89.49,0,0,1,12.07-45L889.05,50a84.72,84.72,0,0,0,0,85l-4.35,2.51A89.52,89.52,0,0,1,872.63,92.51ZM889,185l-4.33,2.5a39.89,39.89,0,0,1,0-40L889,150a34.89,34.89,0,0,0,0,35Zm0,50-4.33,2.5a39.89,39.89,0,0,1,0-40L889,200a34.89,34.89,0,0,0,0,35Zm-16.4,57.51a89.49,89.49,0,0,1,12.07-45l4.35,2.51a84.72,84.72,0,0,0,0,85l-4.35,2.51A89.52,89.52,0,0,1,872.63,292.51ZM889,385l-4.33,2.5a39.89,39.89,0,0,1,0-40L889,350a34.89,34.89,0,0,0,0,35Zm0,50-4.33,2.5a39.89,39.89,0,0,1,0-40L889,400a34.89,34.89,0,0,0,0,35Zm0,50-4.33,2.5a39.89,39.89,0,0,1,0-40L889,450a34.89,34.89,0,0,0,0,35Zm0,50-4.33,2.5a39.89,39.89,0,0,1,0-40L889,500a34.89,34.89,0,0,0,0,35Zm0,150-4.33,2.5a39.89,39.89,0,0,1,0-40L889,650a34.89,34.89,0,0,0,0,35Zm0-50-4.33,2.5a39.89,39.89,0,0,1,0-40L889,600a34.89,34.89,0,0,0,0,35Zm.28-50L885,587.5a39.83,39.83,0,0,1,0-40l4.33,2.5a34.83,34.83,0,0,0,0,35Zm10.54,93.75-4.33,2.5a27.44,27.44,0,0,1,0-27.49l4.33,2.5a22.45,22.45,0,0,0,0,22.49Zm-3-61.24a22.33,22.33,0,0,0,3,11.24l-4.33,2.5a27.44,27.44,0,0,1,0-27.49l4.33,2.5A22.34,22.34,0,0,0,896.83,617.51Zm-1-36.26a27.38,27.38,0,0,1,0-27.49l4.33,2.5a22.38,22.38,0,0,0,0,22.49Zm1.83,161.26A64.65,64.65,0,0,1,906.36,710l4.33,2.5a59.81,59.81,0,0,0,0,60l-4.33,2.5A64.58,64.58,0,0,1,897.63,742.51Z"/><path class="cls-1" d="M1038.48,493.5v-52a59.74,59.74,0,0,0,0,52Z"/><path class="cls-1" d="M353.57,692.51a52.28,52.28,0,0,1,0-50,52.23,52.23,0,0,1,.14-50.25,52.31,52.31,0,0,1,0-49.5,102.24,102.24,0,0,1-.14-100.25,52.28,52.28,0,0,1,0-50,52.28,52.28,0,0,1,0-50,102.24,102.24,0,0,1,0-100,52.32,52.32,0,0,1,0-50,102.24,102.24,0,0,1,0-100,52.32,52.32,0,0,1,0-50A101.89,101.89,0,0,1,340.79,0H335.2a23.24,23.24,0,0,0,1.73,3.75l-4.32,2.5A27.26,27.26,0,0,1,330,0h-7.73a35.06,35.06,0,0,0,3.88,10l-4.32,2.5A39.55,39.55,0,0,1,317.13,0h-7.6a47.34,47.34,0,0,0,5.76,16.25l-2.18,1.26,2.18,1.26a96.89,96.89,0,0,0-12.88,42.56l2,1.18a9.92,9.92,0,0,0,0,10l-2,1.18a96.89,96.89,0,0,0,12.88,42.57l-2.18,1.26,2.18,1.26a47.36,47.36,0,0,0,0,47.48l-2.18,1.26,2.18,1.26a47.36,47.36,0,0,0,0,47.48l-2.18,1.26,2.18,1.26a47.36,47.36,0,0,0,0,47.48l-2.18,1.26,2.18,1.26a47.36,47.36,0,0,0,0,47.48l-2.18,1.26,2.18,1.26a47.36,47.36,0,0,0,0,47.48l-2.18,1.26,2.18,1.26a96.89,96.89,0,0,0-12.88,42.56l2,1.18a9.92,9.92,0,0,0,0,10l-2,1.18a96.89,96.89,0,0,0,12.88,42.57l-2.18,1.26,2.18,1.26a47.36,47.36,0,0,0,0,47.48l-2.18,1.26,2.18,1.26a47.36,47.36,0,0,0,0,47.48l-2.18,1.26,2.18,1.26a96.89,96.89,0,0,0-12.88,42.56l2,1.18a9.92,9.92,0,0,0,0,10l-2,1.18a96.89,96.89,0,0,0,12.88,42.57l-2.18,1.26,2.18,1.26a47.36,47.36,0,0,0,0,47.48l-2.18,1.26,2.18,1.26a47.36,47.36,0,0,0,0,47.48l-2.18,1.26,2.18,1.26a97.13,97.13,0,0,0-5.08,10.09h8.24c1-2.16,2.14-4.28,3.34-6.34l4.34,2.51c-.72,1.26-1.41,2.54-2.08,3.83h8.53l.05-.08.15.08H347.2a102.18,102.18,0,0,1,6.37-86.35ZM343.43,185l4.33,2.49a9.92,9.92,0,0,0,0,10l-4.33,2.5a14.9,14.9,0,0,1,0-15Zm0,50,4.33,2.49a9.92,9.92,0,0,0,0,10l-4.33,2.5a14.9,14.9,0,0,1,0-15Zm4.33,452.49a9.92,9.92,0,0,0,0,10l-4.33,2.5a14.9,14.9,0,0,1,0-15ZM343.43,535l4.33,2.49a9.92,9.92,0,0,0,0,10l-4.33,2.5a14.9,14.9,0,0,1,0-15Zm0,50,4.32,2.5a59.81,59.81,0,0,0,0,60l-4.32,2.5a64.74,64.74,0,0,1,0-65Zm-6.52-31.27-4.32,2.5a27.36,27.36,0,0,1,0-27.48l4.32,2.49a22.45,22.45,0,0,0,0,22.49Zm0-50-4.32,2.5a27.36,27.36,0,0,1,0-27.48l4.32,2.49a22.45,22.45,0,0,0,0,22.49Zm-4.3-47.51a77.19,77.19,0,0,1,0-77.46l4.32,2.5a72.25,72.25,0,0,0,0,72.46Zm4.3-102.49-4.32,2.5a27.36,27.36,0,0,1,0-27.48l4.32,2.49a22.45,22.45,0,0,0,0,22.49Zm0-50-4.32,2.5a27.36,27.36,0,0,1,0-27.48l4.32,2.49a22.45,22.45,0,0,0,0,22.49Zm0-150-4.32,2.5a27.36,27.36,0,0,1,0-27.48l4.32,2.49a22.45,22.45,0,0,0,0,22.49Zm-4.32,25,4.32,2.49a22.45,22.45,0,0,0,0,22.49l-4.32,2.5a27.36,27.36,0,0,1,0-27.48Zm0,50,4.32,2.49a22.45,22.45,0,0,0,0,22.49l-4.32,2.5a27.36,27.36,0,0,1,0-27.48ZM343.43,335l4.33,2.49a9.92,9.92,0,0,0,0,10l-4.33,2.5a14.9,14.9,0,0,1,0-15Zm0,50,4.32,2.5a59.81,59.81,0,0,0,0,60l-4.32,2.5a64.74,64.74,0,0,1,0-65Zm4.32-347.5a59.81,59.81,0,0,0,0,60l-4.32,2.5a64.74,64.74,0,0,1,0-65Zm-15.14-8.74,4.32,2.5a72.25,72.25,0,0,0,0,72.46l-4.32,2.5a77.19,77.19,0,0,1,0-77.46ZM309.71,67.51a89.39,89.39,0,0,1,12.08-45L326.13,25a84.72,84.72,0,0,0,0,85l-4.34,2.51A89.42,89.42,0,0,1,309.71,67.51ZM326.11,310l-4.32,2.5a39.83,39.83,0,0,1,0-40l4.32,2.5a34.89,34.89,0,0,0,0,35Zm0,50-4.32,2.5a39.83,39.83,0,0,1,0-40l4.32,2.5a34.89,34.89,0,0,0,0,35Zm0-200-4.32,2.5a39.83,39.83,0,0,1,0-40l4.32,2.5a34.89,34.89,0,0,0,0,35Zm-4.32,12.52,4.32,2.5a34.89,34.89,0,0,0,0,35l-4.32,2.5a39.83,39.83,0,0,1,0-40Zm0,50,4.32,2.5a34.89,34.89,0,0,0,0,35l-4.32,2.5a39.83,39.83,0,0,1,0-40Zm-12.08,195a89.39,89.39,0,0,1,12.08-45l4.34,2.51a84.72,84.72,0,0,0,0,85l-4.34,2.51A89.42,89.42,0,0,1,309.71,417.51ZM326.11,510l-4.32,2.5a39.83,39.83,0,0,1,0-40l4.32,2.5a34.89,34.89,0,0,0,0,35Zm0,50-4.32,2.5a39.83,39.83,0,0,1,0-40l4.32,2.5a34.89,34.89,0,0,0,0,35Zm0,200-4.32,2.5a39.83,39.83,0,0,1,0-40l4.32,2.5a34.89,34.89,0,0,0,0,35Zm0-50-4.32,2.5a39.83,39.83,0,0,1,0-40l4.32,2.5a34.89,34.89,0,0,0,0,35Zm-4.32-47.5a89.82,89.82,0,0,1,0-90l4.34,2.51a84.72,84.72,0,0,0,0,85Zm15.14,91.25-4.32,2.5a27.36,27.36,0,0,1,0-27.48l4.32,2.49a22.45,22.45,0,0,0,0,22.49Zm-3-61.24a22.33,22.33,0,0,0,3,11.24l-4.32,2.5a27.36,27.36,0,0,1,0-27.48l4.32,2.49A22.34,22.34,0,0,0,333.91,692.51Zm-1.28-36.27a77.19,77.19,0,0,1,0-77.46l4.32,2.5a72.25,72.25,0,0,0,0,72.46Z"/><path class="cls-1" d="M689.86,735l4.33,2.5a59.73,59.73,0,0,0-7,41.34h7.68a52,52,0,0,1,5.1-36.35,52.28,52.28,0,0,1,0-50,102.24,102.24,0,0,1,0-100,52.28,52.28,0,0,1,0-50,52.28,52.28,0,0,1,0-50,102.24,102.24,0,0,1,0-100,52.32,52.32,0,0,1,0-50,102.24,102.24,0,0,1,0-100,102.24,102.24,0,0,1,0-100,52.28,52.28,0,0,1,0-50,52.28,52.28,0,0,1,0-50A101.89,101.89,0,0,1,687.2,0h-5.59a23.24,23.24,0,0,0,1.73,3.75L679,6.25A27.26,27.26,0,0,1,676.37,0h-7.73a35.06,35.06,0,0,0,3.88,10l-4.32,2.5A39.55,39.55,0,0,1,663.54,0h-7.6a47.34,47.34,0,0,0,5.76,16.25l-2.18,1.26,2.18,1.26a96.85,96.85,0,0,0-12.88,42.56l2,1.18a9.92,9.92,0,0,0,0,10l-2,1.18a96.89,96.89,0,0,0,12.88,42.57l-2.18,1.26,2.18,1.26a47.36,47.36,0,0,0,0,47.48l-2.18,1.26,2.18,1.26a47.36,47.36,0,0,0,0,47.48l-2.18,1.26,2.18,1.26a47.36,47.36,0,0,0,0,47.48l-2.18,1.26,2.18,1.26a47.36,47.36,0,0,0,0,47.48l-2.18,1.26,2.18,1.26a47.36,47.36,0,0,0,0,47.48l-2.18,1.26,2.18,1.26a47.36,47.36,0,0,0,0,47.48l-2.18,1.26,2.18,1.26a47.36,47.36,0,0,0,0,47.48l-2.18,1.26,2.18,1.26a96.85,96.85,0,0,0-12.88,42.56l2,1.18a9.92,9.92,0,0,0,0,10l-2,1.18a96.89,96.89,0,0,0,12.88,42.57l-2.18,1.26,2.18,1.26a47.36,47.36,0,0,0,0,47.48l-2.18,1.26,2.18,1.26a47.36,47.36,0,0,0,0,47.48l-2.18,1.26,2.18,1.26a47.36,47.36,0,0,0,0,47.48l-2.18,1.26,2.18,1.26a96.85,96.85,0,0,0-12.88,42.56l2,1.18a9.92,9.92,0,0,0,0,10l-2,1.18c.11,1.74.27,3.47.47,5.18h7.55a90.54,90.54,0,0,1-.72-11.35,89.39,89.39,0,0,1,12.08-45l4.34,2.51a84.8,84.8,0,0,0-10.66,53.83h7.58a78.55,78.55,0,0,1-.84-11.35A77,77,0,0,1,679,728.78l4.32,2.5a72,72,0,0,0-9.74,36.23,73.24,73.24,0,0,0,.9,11.35h7.6a65.36,65.36,0,0,1-1-11.35A64.55,64.55,0,0,1,689.86,735Zm0-50,4.33,2.49a9.92,9.92,0,0,0,0,10l-4.33,2.5a14.9,14.9,0,0,1,0-15Zm0-350,4.33,2.49a9.92,9.92,0,0,0,0,10l-4.33,2.5a14.9,14.9,0,0,1,0-15Zm0,50,4.33,2.49a9.92,9.92,0,0,0,0,10l-4.33,2.5a14.9,14.9,0,0,1,0-15Zm0-150,4.33,2.49a9.92,9.92,0,0,0,0,10l-4.33,2.5a14.9,14.9,0,0,1,0-15Zm4.33,352.49a9.92,9.92,0,0,0,0,10l-4.33,2.5a14.9,14.9,0,0,1,0-15ZM689.86,485l4.33,2.5a59.74,59.74,0,0,0,0,60l-4.33,2.5a64.74,64.74,0,0,1,0-65Zm4.31-347.51a9.92,9.92,0,0,0,0,10l-4.33,2.5a14.9,14.9,0,0,1,0-15Zm0-100a59.74,59.74,0,0,0,0,60l-4.33,2.5a64.74,64.74,0,0,1,0-65ZM679,28.78l4.32,2.5a72.25,72.25,0,0,0,0,72.46l-4.32,2.5a77.19,77.19,0,0,1,0-77.46Zm4.3,425-4.32,2.5a27.38,27.38,0,0,1,0-27.49l4.32,2.5a22.45,22.45,0,0,0,0,22.49Zm0-250-4.32,2.5a27.38,27.38,0,0,1,0-27.49l4.32,2.5a22.45,22.45,0,0,0,0,22.49Zm-4.32,25,4.32,2.5a22.45,22.45,0,0,0,0,22.49l-4.32,2.5a27.38,27.38,0,0,1,0-27.49Zm0,50,4.32,2.5a22.45,22.45,0,0,0,0,22.49l-4.32,2.5a27.38,27.38,0,0,1,0-27.49Zm0,50,4.32,2.5a22.45,22.45,0,0,0,0,22.49l-4.32,2.5a27.38,27.38,0,0,1,0-27.49Zm0,50,4.32,2.5a22.45,22.45,0,0,0,0,22.49l-4.32,2.5a27.38,27.38,0,0,1,0-27.49Zm4.32-225-4.32,2.5a27.38,27.38,0,0,1,0-27.49l4.32,2.5a22.45,22.45,0,0,0,0,22.49ZM656.12,67.51a89.39,89.39,0,0,1,12.08-45L672.54,25a84.72,84.72,0,0,0,0,85l-4.34,2.51A89.42,89.42,0,0,1,656.12,67.51ZM672.52,160l-4.32,2.5a39.83,39.83,0,0,1,0-40l4.32,2.5a34.89,34.89,0,0,0,0,35Zm0,300-4.32,2.5a39.83,39.83,0,0,1,0-40l4.32,2.5a34.89,34.89,0,0,0,0,35Zm0-250-4.32,2.5a39.83,39.83,0,0,1,0-40l4.32,2.5a34.89,34.89,0,0,0,0,35Zm-4.32,12.52,4.32,2.5a34.89,34.89,0,0,0,0,35l-4.32,2.5a39.83,39.83,0,0,1,0-40Zm0,50,4.32,2.5a34.89,34.89,0,0,0,0,35l-4.32,2.5a39.83,39.83,0,0,1,0-40Zm0,50,4.32,2.5a34.89,34.89,0,0,0,0,35l-4.32,2.5a39.83,39.83,0,0,1,0-40Zm0,50,4.32,2.5a34.89,34.89,0,0,0,0,35l-4.32,2.5a39.83,39.83,0,0,1,0-40ZM672.52,710l-4.32,2.5a39.83,39.83,0,0,1,0-40l4.32,2.5a34.89,34.89,0,0,0,0,35Zm0-50-4.32,2.5a39.83,39.83,0,0,1,0-40l4.32,2.5a34.89,34.89,0,0,0,0,35Zm0-50-4.32,2.5a39.83,39.83,0,0,1,0-40l4.32,2.5a34.89,34.89,0,0,0,0,35Zm-4.32-47.5a89.82,89.82,0,0,1,0-90l4.34,2.51a84.72,84.72,0,0,0,0,85Zm15.14,141.25-4.32,2.5a27.38,27.38,0,0,1,0-27.49l4.32,2.5a22.45,22.45,0,0,0,0,22.49Zm-3-61.24a22.33,22.33,0,0,0,3,11.24l-4.32,2.5a27.38,27.38,0,0,1,0-27.49l4.32,2.5A22.34,22.34,0,0,0,680.32,642.51Zm0-50a22.33,22.33,0,0,0,3,11.24l-4.32,2.5a27.38,27.38,0,0,1,0-27.49l4.32,2.5A22.34,22.34,0,0,0,680.32,592.51ZM679,556.24a77.19,77.19,0,0,1,0-77.46l4.32,2.5a72.25,72.25,0,0,0,0,72.46Z"/><path class="cls-1" d="M1038.48,93.5v-52a59.74,59.74,0,0,0,0,52Z"/><path class="cls-1" d="M310.27,767.51a52.32,52.32,0,0,1,0-50,52.32,52.32,0,0,1,0-50,102.24,102.24,0,0,1,0-100,52.32,52.32,0,0,1,0-50,52.32,52.32,0,0,1,0-50,102.24,102.24,0,0,1,0-100,52.32,52.32,0,0,1,0-50,52.32,52.32,0,0,1,0-50,52.32,52.32,0,0,1,0-50,52.32,52.32,0,0,1,0-50,52.32,52.32,0,0,1,0-50,102.24,102.24,0,0,1,0-100A52.09,52.09,0,0,1,304.47,0H282.78l0,0a34.89,34.89,0,0,0,0,35l-4.33,2.5A39.84,39.84,0,0,1,277.17,0H269a47.28,47.28,0,0,0,3,41.25l-2.18,1.26L272,43.77a47.36,47.36,0,0,0,0,47.48l-2.18,1.26L272,93.77a47.36,47.36,0,0,0,0,47.48l-2.18,1.26,2.18,1.26a96.89,96.89,0,0,0-12.88,42.56l2.05,1.18a9.92,9.92,0,0,0,0,10l-2.05,1.19A96.89,96.89,0,0,0,272,241.25l-2.18,1.26,2.18,1.26a47.36,47.36,0,0,0,0,47.48l-2.18,1.26,2.18,1.26a96.89,96.89,0,0,0-12.88,42.56l2.05,1.18a9.92,9.92,0,0,0,0,10l-2.05,1.18A96.89,96.89,0,0,0,272,391.25l-2.18,1.26,2.18,1.26a47.36,47.36,0,0,0,0,47.48l-2.18,1.26,2.18,1.26a47.36,47.36,0,0,0,0,47.48l-2.18,1.26,2.18,1.26a96.89,96.89,0,0,0-12.88,42.56l2.05,1.18a9.92,9.92,0,0,0,0,10l-2.05,1.19A96.89,96.89,0,0,0,272,591.25l-2.18,1.26,2.18,1.26a47.36,47.36,0,0,0,0,47.48l-2.18,1.26,2.18,1.26a96.89,96.89,0,0,0-12.88,42.56l2.05,1.18a9.92,9.92,0,0,0,0,10l-2.05,1.18A96.89,96.89,0,0,0,272,741.25l-2.18,1.26,2.18,1.26a47.15,47.15,0,0,0-5,35.09h7.77a39.72,39.72,0,0,1,3.7-31.34l4.33,2.5a34.88,34.88,0,0,0-2.8,28.84h8.08a27.33,27.33,0,0,1,1.21-25.09l4.33,2.49a22.45,22.45,0,0,0,0,22.49l-.19.11h11.35A102.26,102.26,0,0,1,310.27,767.51ZM300.13,10l4.33,2.49a9.92,9.92,0,0,0,0,10L300.13,25a14.9,14.9,0,0,1,0-15Zm0,650,4.32,2.5a59.81,59.81,0,0,0,0,60l-4.32,2.5a64.74,64.74,0,0,1,0-65Zm0-200,4.33,2.49a9.92,9.92,0,0,0,0,10l-4.33,2.5a14.9,14.9,0,0,1,0-15Zm0,50,4.32,2.5a59.81,59.81,0,0,0,0,60l-4.32,2.5a64.74,64.74,0,0,1,0-65Zm-6.52,118.73-4.33,2.5a27.43,27.43,0,0,1,0-27.48l4.33,2.49a22.45,22.45,0,0,0,0,22.49Zm-4.3-47.51a77.19,77.19,0,0,1,0-77.46l4.32,2.5a72.25,72.25,0,0,0,0,72.46Zm4.3-302.49-4.33,2.5a27.43,27.43,0,0,1,0-27.48l4.33,2.49a22.45,22.45,0,0,0,0,22.49Zm-4.3,25,4.32,2.5a72.25,72.25,0,0,0,0,72.46l-4.32,2.5a77.19,77.19,0,0,1,0-77.46Zm4.3,125-4.33,2.5a27.43,27.43,0,0,1,0-27.48l4.33,2.49a22.45,22.45,0,0,0,0,22.49Zm-4.33,25,4.33,2.49a22.45,22.45,0,0,0,0,22.49l-4.33,2.5a27.43,27.43,0,0,1,0-27.48Zm15.17-141.25a59.81,59.81,0,0,0,0,60l-4.32,2.5a64.74,64.74,0,0,1,0-65Zm0-50a9.92,9.92,0,0,0,0,10l-4.33,2.5a14.9,14.9,0,0,1,0-15ZM300.13,110l4.33,2.49a9.92,9.92,0,0,0,0,10l-4.33,2.5a14.9,14.9,0,0,1,0-15Zm0,50,4.32,2.5a59.81,59.81,0,0,0,0,60l-4.32,2.5a64.74,64.74,0,0,1,0-65Zm-16.24,32.49a72.07,72.07,0,0,0,9.74,36.23l-4.32,2.5a77.19,77.19,0,0,1,0-77.46l4.32,2.5A72,72,0,0,0,283.91,192.51Zm9.72-63.76-4.33,2.5a27.43,27.43,0,0,1,0-27.48l4.33,2.49a22.45,22.45,0,0,0,0,22.49Zm-4.33-125,4.33,2.49a22.45,22.45,0,0,0,0,22.49l-4.33,2.5a27.43,27.43,0,0,1,0-27.48Zm0,50,4.33,2.49a22.45,22.45,0,0,0,0,22.49l-4.33,2.5a27.43,27.43,0,0,1,0-27.48ZM282.81,100a34.89,34.89,0,0,0,0,35l-4.33,2.5a39.89,39.89,0,0,1,0-40Zm-4.33-52.5,4.33,2.5a34.89,34.89,0,0,0,0,35l-4.33,2.5a39.89,39.89,0,0,1,0-40Zm-12.07,145a89.39,89.39,0,0,1,12.08-45l4.34,2.51a84.72,84.72,0,0,0,0,85l-4.34,2.51A89.42,89.42,0,0,1,266.41,192.51ZM282.81,285l-4.33,2.5a39.89,39.89,0,0,1,0-40l4.33,2.5a34.89,34.89,0,0,0,0,35Zm-16.4,57.51a89.39,89.39,0,0,1,12.08-45l4.34,2.51a84.72,84.72,0,0,0,0,85l-4.34,2.51A89.42,89.42,0,0,1,266.41,342.51ZM282.81,435l-4.33,2.5a39.89,39.89,0,0,1,0-40l4.33,2.5a34.89,34.89,0,0,0,0,35Zm0,50-4.33,2.5a39.89,39.89,0,0,1,0-40l4.33,2.5a34.89,34.89,0,0,0,0,35Zm-16.4,57.51a89.39,89.39,0,0,1,12.08-45l4.34,2.51a84.72,84.72,0,0,0,0,85l-4.34,2.51A89.42,89.42,0,0,1,266.41,542.51ZM282.81,635l-4.33,2.5a39.89,39.89,0,0,1,0-40l4.33,2.5a34.89,34.89,0,0,0,0,35Zm-4.32,102.5a89.82,89.82,0,0,1,0-90l4.34,2.51a84.72,84.72,0,0,0,0,85Zm10.84-6.26a77.19,77.19,0,0,1,0-77.46l4.32,2.5a72.25,72.25,0,0,0,0,72.46ZM300.13,775a14.9,14.9,0,0,1,0-15l4.33,2.49a9.92,9.92,0,0,0,0,10Z"/><path class="cls-1" d="M743.29,717.51a52.24,52.24,0,0,1,0-50,52.24,52.24,0,0,1,0-50,52.24,52.24,0,0,1,0-50,52.24,52.24,0,0,1,0-50,52.24,52.24,0,0,1,0-50,52.24,52.24,0,0,1,0-50,102.17,102.17,0,0,1,0-100,52.24,52.24,0,0,1,0-50,52.24,52.24,0,0,1,0-50,52.24,52.24,0,0,1,0-50,102.17,102.17,0,0,1,0-100,52.24,52.24,0,0,1,0-50A52.11,52.11,0,0,1,737.48,0H729.9a59.54,59.54,0,0,0,7.59,22.49L733.16,25a64.57,64.57,0,0,1-8.3-25h-7.55a72.07,72.07,0,0,0,9.36,28.74l-4.33,2.5A76.89,76.89,0,0,1,712.29,0h-7.53a84.47,84.47,0,0,0,11.09,35L711.5,37.5A89.39,89.39,0,0,1,699.74,0h-7.52A97,97,0,0,0,705,41.25l-2.18,1.26L705,43.77a47.36,47.36,0,0,0,0,47.48l-2.18,1.26L705,93.77a47.36,47.36,0,0,0,0,47.48l-2.18,1.26,2.18,1.26a96.85,96.85,0,0,0-12.88,42.56l2,1.18a9.92,9.92,0,0,0,0,10l-2,1.18A96.89,96.89,0,0,0,705,241.25l-2.18,1.26,2.18,1.26a96.85,96.85,0,0,0-12.88,42.56l2,1.18a9.92,9.92,0,0,0,0,10l-2,1.18A96.89,96.89,0,0,0,705,341.25l-2.18,1.26,2.18,1.26a47.36,47.36,0,0,0,0,47.48l-2.18,1.26,2.18,1.26a96.85,96.85,0,0,0-12.88,42.56l2,1.18a9.92,9.92,0,0,0,0,10l-2,1.18A96.89,96.89,0,0,0,705,491.25l-2.18,1.26,2.18,1.26a47.36,47.36,0,0,0,0,47.48l-2.18,1.26,2.18,1.26a47.36,47.36,0,0,0,0,47.48l-2.18,1.26,2.18,1.26a96.85,96.85,0,0,0-12.88,42.56l2,1.18a9.92,9.92,0,0,0,0,10l-2,1.18A96.89,96.89,0,0,0,705,691.25l-2.18,1.26,2.18,1.26a47.36,47.36,0,0,0,0,47.48l-2.18,1.26,2.18,1.26a47.15,47.15,0,0,0-5,35.09h7.77a39.68,39.68,0,0,1,3.71-31.34l4.33,2.5A34.84,34.84,0,0,0,713,778.86h8.08a27.32,27.32,0,0,1,1.22-25.1l4.33,2.5a22.38,22.38,0,0,0,0,22.49l-.2.11h4.41a103.74,103.74,0,0,1-.64-11.35A101.82,101.82,0,0,1,743.29,717.51ZM733.15,60l4.32,2.49a9.92,9.92,0,0,0,0,10L733.15,75a14.83,14.83,0,0,1,0-15Zm4.32,652.49a9.92,9.92,0,0,0,0,10l-4.32,2.5a14.83,14.83,0,0,1,0-15Zm0-100a59.74,59.74,0,0,0,0,60l-4.33,2.5a64.74,64.74,0,0,1,0-65Zm-10.84-33.77-4.33,2.5a27.38,27.38,0,0,1,0-27.49l4.33,2.5a22.38,22.38,0,0,0,0,22.49Zm0-50-4.33,2.5a27.38,27.38,0,0,1,0-27.49l4.33,2.5a22.38,22.38,0,0,0,0,22.49Zm-4.31-47.51a77.19,77.19,0,0,1,0-77.46l4.33,2.5a72.19,72.19,0,0,0,0,72.46Zm0-127.48,4.33,2.5a22.38,22.38,0,0,0,0,22.49l-4.33,2.5a27.38,27.38,0,0,1,0-27.49Zm-10.4-61.25a77,77,0,0,1,10.42-38.73l4.33,2.5a72.19,72.19,0,0,0,0,72.46l-4.33,2.5A77,77,0,0,1,711.92,292.51Zm25.55,270a9.92,9.92,0,0,0,0,10l-4.32,2.5a14.83,14.83,0,0,1,0-15Zm0-50a9.92,9.92,0,0,0,0,10l-4.32,2.5a14.83,14.83,0,0,1,0-15ZM733.16,410l4.33,2.5a59.74,59.74,0,0,0,0,60l-4.33,2.5a64.74,64.74,0,0,1,0-65Zm4.33-147.5a59.74,59.74,0,0,0,0,60l-4.33,2.5a64.74,64.74,0,0,1,0-65ZM733.16,160l4.33,2.5a59.74,59.74,0,0,0,0,60l-4.33,2.5a64.74,64.74,0,0,1,0-65ZM722.32,53.76l4.33,2.5a22.38,22.38,0,0,0,0,22.49l-4.33,2.5a27.38,27.38,0,0,1,0-27.49Zm0,50,4.33,2.5a22.38,22.38,0,0,0,0,22.49l-4.33,2.5a27.38,27.38,0,0,1,0-27.49Zm0,50,4.33,2.5a72.19,72.19,0,0,0,0,72.46l-4.33,2.5a77.19,77.19,0,0,1,0-77.46ZM711.5,47.52l4.33,2.5a34.83,34.83,0,0,0,0,35l-4.33,2.5a39.83,39.83,0,0,1,0-40Zm0,50,4.33,2.5a34.83,34.83,0,0,0,0,35l-4.33,2.5a39.83,39.83,0,0,1,0-40Zm-12.08,95a89.39,89.39,0,0,1,12.08-45l4.35,2.51a84.65,84.65,0,0,0,0,85l-4.35,2.51A89.42,89.42,0,0,1,699.42,192.51Zm0,100a89.39,89.39,0,0,1,12.08-45l4.35,2.51a84.65,84.65,0,0,0,0,85l-4.35,2.51A89.42,89.42,0,0,1,699.42,292.51ZM715.83,385l-4.33,2.5a39.83,39.83,0,0,1,0-40l4.33,2.5a34.83,34.83,0,0,0,0,35Zm-16.41,57.51a89.39,89.39,0,0,1,12.08-45l4.35,2.51a84.65,84.65,0,0,0,0,85l-4.35,2.51A89.42,89.42,0,0,1,699.42,442.51ZM715.83,535l-4.33,2.5a39.83,39.83,0,0,1,0-40l4.33,2.5a34.83,34.83,0,0,0,0,35Zm0,50-4.33,2.5a39.83,39.83,0,0,1,0-40l4.33,2.5a34.83,34.83,0,0,0,0,35Zm0,150-4.33,2.5a39.83,39.83,0,0,1,0-40l4.33,2.5a34.83,34.83,0,0,0,0,35Zm-4.33-47.5a89.82,89.82,0,0,1,0-90l4.35,2.51a84.65,84.65,0,0,0,0,85Zm12.12,30a22.34,22.34,0,0,0,3,11.24l-4.33,2.5a27.38,27.38,0,0,1,0-27.49l4.33,2.5A22.35,22.35,0,0,0,723.62,717.51Zm-1.28-36.27a77.19,77.19,0,0,1,0-77.46l4.33,2.5a72.19,72.19,0,0,0,0,72.46Z"/><path class="cls-1" d="M440.18,742.51a102.17,102.17,0,0,1,0-100,52.24,52.24,0,0,1,0-50,52.24,52.24,0,0,1,0-50,52.24,52.24,0,0,1,0-50,52.24,52.24,0,0,1,0-50,52.24,52.24,0,0,1,0-50,102.17,102.17,0,0,1,0-100,52.24,52.24,0,0,1,0-50,102.17,102.17,0,0,1,0-100,52.24,52.24,0,0,1,0-50A102.14,102.14,0,0,1,436.38,0H421.81a21.64,21.64,0,0,0,1.73,3.75l-4.33,2.5A27.26,27.26,0,0,1,416.56,0h-7.72a34.77,34.77,0,0,0,3.88,10l-4.33,2.5A40,40,0,0,1,403.73,0h-7.6a47.15,47.15,0,0,0,5.77,16.25l-2.19,1.26,2.19,1.26a47.29,47.29,0,0,0,0,47.48l-2.19,1.26,2.19,1.26a47.29,47.29,0,0,0,0,47.48l-2.19,1.26,2.19,1.26a47.29,47.29,0,0,0,0,47.48l-2.19,1.26,2.19,1.26a47.29,47.29,0,0,0,0,47.48l-2.19,1.26,2.19,1.26a47.29,47.29,0,0,0,0,47.48l-2.19,1.26,2.19,1.26a47.29,47.29,0,0,0,0,47.48l-2.19,1.26,2.19,1.26a47.29,47.29,0,0,0,0,47.48l-2.19,1.26,2.19,1.26A96.73,96.73,0,0,0,389,411.33l2.05,1.18a9.92,9.92,0,0,0,0,10L389,423.68a96.77,96.77,0,0,0,12.89,42.57l-2.19,1.26,2.19,1.26a47.29,47.29,0,0,0,0,47.48l-2.19,1.26,2.19,1.26A96.82,96.82,0,0,0,389,561.18l2.32,1.33a9.92,9.92,0,0,0,0,10L389,573.84a96.82,96.82,0,0,0,12.88,42.41l-2.19,1.26,2.19,1.26a47.29,47.29,0,0,0,0,47.48l-2.19,1.26,2.19,1.26a47.29,47.29,0,0,0,0,47.48l-2.19,1.26,2.19,1.26a47.29,47.29,0,0,0,0,47.48l-2.19,1.26,2.19,1.26a47.19,47.19,0,0,0-4.36,10.09h7.9a38.9,38.9,0,0,1,2.95-6.34l4.33,2.5a33.54,33.54,0,0,0-1.92,3.84h8.36a.41.41,0,0,1,0-.09l.17.09H428A101.64,101.64,0,0,1,440.18,742.51ZM430,235l4.32,2.49a9.92,9.92,0,0,0,0,10L430,250a14.83,14.83,0,0,1,0-15Zm0,50,4.32,2.49a9.92,9.92,0,0,0,0,10L430,300a14.83,14.83,0,0,1,0-15Zm0-200,4.32,2.49a9.92,9.92,0,0,0,0,10L430,100a14.83,14.83,0,0,1,0-15Zm0,50,4.32,2.49a9.92,9.92,0,0,0,0,10L430,150a14.83,14.83,0,0,1,0-15Zm4.32,502.49a9.92,9.92,0,0,0,0,10L430,650a14.83,14.83,0,0,1,0-15Zm0-100a59.74,59.74,0,0,0,0,60l-4.33,2.5a64.74,64.74,0,0,1,0-65Zm0-50a9.92,9.92,0,0,0,0,10L430,500a14.83,14.83,0,0,1,0-15ZM430.05,385l4.33,2.5a59.74,59.74,0,0,0,0,60l-4.33,2.5a64.74,64.74,0,0,1,0-65Zm-16.24,32.49a72,72,0,0,0,9.75,36.23l-4.33,2.5a77.19,77.19,0,0,1,0-77.46l4.33,2.5A71.92,71.92,0,0,0,413.81,417.51Zm9.73,86.24-4.33,2.5a27.36,27.36,0,0,1,0-27.48l4.33,2.49a22.38,22.38,0,0,0,0,22.49Zm0-150-4.33,2.5a27.36,27.36,0,0,1,0-27.48l4.33,2.49a22.38,22.38,0,0,0,0,22.49Zm-4.33-325,4.33,2.49a22.38,22.38,0,0,0,0,22.49l-4.33,2.5a27.36,27.36,0,0,1,0-27.48Zm0,50,4.33,2.49a22.38,22.38,0,0,0,0,22.49l-4.33,2.5a27.36,27.36,0,0,1,0-27.48Zm0,50,4.33,2.49a22.38,22.38,0,0,0,0,22.49l-4.33,2.5a27.36,27.36,0,0,1,0-27.48Zm0,50,4.33,2.49a22.38,22.38,0,0,0,0,22.49l-4.33,2.5a27.36,27.36,0,0,1,0-27.48Zm0,50,4.33,2.49a22.38,22.38,0,0,0,0,22.49l-4.33,2.5a27.36,27.36,0,0,1,0-27.48Zm0,50,4.33,2.49a22.38,22.38,0,0,0,0,22.49l-4.33,2.5a27.36,27.36,0,0,1,0-27.48ZM408.39,22.52l4.33,2.5a34.83,34.83,0,0,0,0,35l-4.33,2.5a39.83,39.83,0,0,1,0-40ZM412.72,360l-4.33,2.5a39.83,39.83,0,0,1,0-40l4.33,2.5a34.83,34.83,0,0,0,0,35ZM408.39,72.52l4.33,2.5a34.83,34.83,0,0,0,0,35l-4.33,2.5a39.83,39.83,0,0,1,0-40Zm0,50,4.33,2.5a34.83,34.83,0,0,0,0,35l-4.33,2.5a39.83,39.83,0,0,1,0-40Zm0,50,4.33,2.5a34.83,34.83,0,0,0,0,35l-4.33,2.5a39.83,39.83,0,0,1,0-40Zm0,50,4.33,2.5a34.83,34.83,0,0,0,0,35l-4.33,2.5a39.83,39.83,0,0,1,0-40Zm0,50,4.33,2.5a34.83,34.83,0,0,0,0,35l-4.33,2.5a39.83,39.83,0,0,1,0-40Zm-12.08,145a89.39,89.39,0,0,1,12.08-45l4.35,2.51a84.65,84.65,0,0,0,0,85l-4.35,2.51A89.42,89.42,0,0,1,396.31,417.51ZM412.72,510l-4.33,2.5a39.83,39.83,0,0,1,0-40l4.33,2.5a34.83,34.83,0,0,0,0,35Zm0,250-4.33,2.5a39.83,39.83,0,0,1,0-40l4.33,2.5a34.83,34.83,0,0,0,0,35Zm0-50-4.33,2.5a39.83,39.83,0,0,1,0-40l4.33,2.5a34.83,34.83,0,0,0,0,35Zm0-50-4.33,2.5a39.83,39.83,0,0,1,0-40l4.33,2.5a34.83,34.83,0,0,0,0,35Zm-4.33-47.5a89.82,89.82,0,0,1,0-90l4.35,2.51a84.65,84.65,0,0,0,0,85Zm15.15,141.25-4.33,2.5a27.36,27.36,0,0,1,0-27.48l4.33,2.49a22.38,22.38,0,0,0,0,22.49Zm-3-61.24a22.34,22.34,0,0,0,3,11.24l-4.33,2.5a27.36,27.36,0,0,1,0-27.48l4.33,2.49A22.35,22.35,0,0,0,420.51,692.51Zm0-50a22.34,22.34,0,0,0,3,11.24l-4.33,2.5a27.36,27.36,0,0,1,0-27.48l4.33,2.49A22.35,22.35,0,0,0,420.51,642.51Zm-1.28-36.27a77.19,77.19,0,0,1,0-77.46l4.33,2.5a72.19,72.19,0,0,0,0,72.46ZM430,735l4.32,2.49a9.92,9.92,0,0,0,0,10L430,750a14.83,14.83,0,0,1,0-15Z"/><path class="cls-1" d="M223.67,717.51a52.32,52.32,0,0,1,0-50,52.32,52.32,0,0,1,0-50,52.32,52.32,0,0,1,0-50,52.32,52.32,0,0,1,0-50,52.32,52.32,0,0,1,0-50,102.24,102.24,0,0,1,0-100,52.32,52.32,0,0,1,0-50,102.24,102.24,0,0,1,0-100,52.32,52.32,0,0,1,0-50,52.32,52.32,0,0,1,0-50,52.32,52.32,0,0,1,0-50,52.32,52.32,0,0,1,0-50A102.15,102.15,0,0,1,215.9,0H196.18l0,0a84.72,84.72,0,0,0,0,85l-4.35,2.51A89.88,89.88,0,0,1,190.5,0h-8.42a96.73,96.73,0,0,0-9.57,36.33l2,1.18a10,10,0,0,0,0,10l-2,1.19a96.89,96.89,0,0,0,12.88,42.56l-2.19,1.26,2.19,1.26a96.77,96.77,0,0,0-12.82,41.67l3.59,2.07a9.92,9.92,0,0,0,0,10l-3.59,2.08a96.77,96.77,0,0,0,12.82,41.67l-2.19,1.26,2.19,1.26a47.36,47.36,0,0,0,0,47.48l-2.18,1.26,2.18,1.26a47.36,47.36,0,0,0,0,47.48l-2.18,1.26,2.18,1.26a47.36,47.36,0,0,0,0,47.48l-2.18,1.26,2.18,1.26a47.36,47.36,0,0,0,0,47.48l-2.18,1.26,2.18,1.26a47.36,47.36,0,0,0,0,47.48l-2.18,1.26,2.18,1.26a47.36,47.36,0,0,0,0,47.48l-2.18,1.26,2.18,1.26a47.36,47.36,0,0,0,0,47.48l-2.18,1.26,2.18,1.26a47.36,47.36,0,0,0,0,47.48l-2.18,1.26,2.18,1.26a96.89,96.89,0,0,0-12.88,42.56l2,1.18a10,10,0,0,0,0,10l-2,1.19a96.89,96.89,0,0,0,12.88,42.56l-2.19,1.26,2.19,1.26a47.36,47.36,0,0,0,0,47.48l-2.18,1.26,2.18,1.26a47.15,47.15,0,0,0-5,35.09h7.76a39.8,39.8,0,0,1,3.71-31.34l4.33,2.5a34.94,34.94,0,0,0-2.81,28.84h8.08a27.38,27.38,0,0,1,1.22-25.09l4.33,2.49a22.45,22.45,0,0,0,0,22.49l-.19.11h4.41a102,102,0,0,1,12.42-61.35ZM213.53,310l4.33,2.49a9.92,9.92,0,0,0,0,10l-4.33,2.5a14.9,14.9,0,0,1,0-15Zm0,50,4.33,2.49a9.92,9.92,0,0,0,0,10l-4.33,2.5a14.9,14.9,0,0,1,0-15Zm4.33,352.49a9.92,9.92,0,0,0,0,10l-4.33,2.5a14.9,14.9,0,0,1,0-15ZM213.53,460l4.33,2.49a9.92,9.92,0,0,0,0,10l-4.33,2.5a14.9,14.9,0,0,1,0-15Zm0,50,4.33,2.49a9.92,9.92,0,0,0,0,10l-4.33,2.5a14.9,14.9,0,0,1,0-15Zm0,50,4.33,2.49a9.92,9.92,0,0,0,0,10l-4.33,2.5a14.9,14.9,0,0,1,0-15Zm0,50,4.33,2.5a59.81,59.81,0,0,0,0,60l-4.33,2.5a64.8,64.8,0,0,1,0-65ZM207,578.75l-4.33,2.5a27.43,27.43,0,0,1,0-27.48l4.33,2.49a22.45,22.45,0,0,0,0,22.49Zm0-50-4.33,2.5a27.43,27.43,0,0,1,0-27.48l4.33,2.49a22.45,22.45,0,0,0,0,22.49Zm0-50-4.33,2.5a27.43,27.43,0,0,1,0-27.48l4.33,2.49a22.45,22.45,0,0,0,0,22.49Zm0-50-4.33,2.5a27.43,27.43,0,0,1,0-27.48l4.33,2.49a22.45,22.45,0,0,0,0,22.49Zm0-50-4.33,2.5a27.43,27.43,0,0,1,0-27.48l4.33,2.49a22.45,22.45,0,0,0,0,22.49Zm0-50-4.33,2.5a27.43,27.43,0,0,1,0-27.48l4.33,2.49a22.45,22.45,0,0,0,0,22.49Zm0-50-4.33,2.5a27.43,27.43,0,0,1,0-27.48l4.33,2.49a22.45,22.45,0,0,0,0,22.49Zm0-50-4.33,2.5a27.43,27.43,0,0,1,0-27.48l4.33,2.49a22.45,22.45,0,0,0,0,22.49Zm-4.31-47.51a77.25,77.25,0,0,1,0-77.46l4.33,2.5a72.25,72.25,0,0,0,0,72.46Zm15.14,31.27a9.92,9.92,0,0,0,0,10l-4.33,2.5a14.9,14.9,0,0,1,0-15Zm0-100a59.81,59.81,0,0,0,0,60l-4.33,2.5a64.8,64.8,0,0,1,0-65Zm0-100a59.81,59.81,0,0,0,0,60L213.54,75a64.8,64.8,0,0,1,0-65Zm-25.56,30A77,77,0,0,1,202.72,3.78l4.33,2.5a72.25,72.25,0,0,0,0,72.46l-4.33,2.5A77,77,0,0,1,192.31,42.51Zm-12.5,100a89.49,89.49,0,0,1,12.07-45l4.35,2.51a84.72,84.72,0,0,0,0,85l-4.35,2.51A89.52,89.52,0,0,1,179.81,142.51ZM196.21,235l-4.33,2.5a39.89,39.89,0,0,1,0-40l4.33,2.5a34.89,34.89,0,0,0,0,35Zm0,50-4.33,2.5a39.89,39.89,0,0,1,0-40l4.33,2.5a34.89,34.89,0,0,0,0,35Zm0,50-4.33,2.5a39.89,39.89,0,0,1,0-40l4.33,2.5a34.89,34.89,0,0,0,0,35Zm0,50-4.33,2.5a39.89,39.89,0,0,1,0-40l4.33,2.5a34.89,34.89,0,0,0,0,35Zm0,50-4.33,2.5a39.89,39.89,0,0,1,0-40l4.33,2.5a34.89,34.89,0,0,0,0,35Zm0,50-4.33,2.5a39.89,39.89,0,0,1,0-40l4.33,2.5a34.89,34.89,0,0,0,0,35Zm0,50-4.33,2.5a39.89,39.89,0,0,1,0-40l4.33,2.5a34.89,34.89,0,0,0,0,35Zm0,50-4.33,2.5a39.89,39.89,0,0,1,0-40l4.33,2.5a34.89,34.89,0,0,0,0,35Zm0,150-4.33,2.5a39.89,39.89,0,0,1,0-40l4.33,2.5a34.89,34.89,0,0,0,0,35Zm-4.33-47.5a89.88,89.88,0,0,1,0-90l4.35,2.51a84.72,84.72,0,0,0,0,85Zm12.13,30a22.33,22.33,0,0,0,3,11.24l-4.33,2.5a27.43,27.43,0,0,1,0-27.48l4.33,2.49A22.37,22.37,0,0,0,204,717.51Zm-1.29-36.27a77.25,77.25,0,0,1,0-77.46l4.33,2.5a72.25,72.25,0,0,0,0,72.46Z"/><path class="cls-1" d="M256.84,735l4.33,2.5a59.78,59.78,0,0,0-7,41.34h7.68A52,52,0,0,1,267,742.51a102.24,102.24,0,0,1,0-100,52.32,52.32,0,0,1,0-50,102.24,102.24,0,0,1,0-100,52.32,52.32,0,0,1,0-50,52.32,52.32,0,0,1,0-50,102.24,102.24,0,0,1,0-100,52.32,52.32,0,0,1,0-50,102.24,102.24,0,0,1,0-100,52.32,52.32,0,0,1,0-50,52.32,52.32,0,0,1,0-50A52.17,52.17,0,0,1,263.65,0H248.33c.64,1.27,1.31,2.52,2,3.74L246,6.24c-1.17-2-2.25-4.11-3.24-6.24h-8.19a85.83,85.83,0,0,0,4.94,10l-4.35,2.51a90.94,90.94,0,0,1-6-12.5h-8a97,97,0,0,0,7.5,16.25l-2.18,1.26,2.18,1.26a47.36,47.36,0,0,0,0,47.48l-2.18,1.26,2.18,1.26a47.36,47.36,0,0,0,0,47.48l-2.18,1.26,2.18,1.26a47.36,47.36,0,0,0,0,47.48l-2.18,1.26,2.18,1.26a47.36,47.36,0,0,0,0,47.48l-2.18,1.26,2.18,1.26a96.89,96.89,0,0,0-12.88,42.56l2.05,1.18a9.92,9.92,0,0,0,0,10l-2.05,1.19a96.89,96.89,0,0,0,12.88,42.56l-2.18,1.26,2.18,1.26a47.36,47.36,0,0,0,0,47.48l-2.18,1.26,2.18,1.26a96.89,96.89,0,0,0-12.88,42.56l2.05,1.18a9.92,9.92,0,0,0,0,10l-2.05,1.19a96.89,96.89,0,0,0,12.88,42.56l-2.18,1.26,2.18,1.26a47.36,47.36,0,0,0,0,47.48l-2.18,1.26,2.18,1.26a47.36,47.36,0,0,0,0,47.48l-2.18,1.26,2.18,1.26a47.36,47.36,0,0,0,0,47.48l-2.18,1.26,2.18,1.26a47.36,47.36,0,0,0,0,47.48l-2.18,1.26,2.18,1.26a47.36,47.36,0,0,0,0,47.48l-2.18,1.26,2.18,1.26a96.89,96.89,0,0,0-12.88,42.56l2.05,1.18a9.92,9.92,0,0,0,0,10l-2.05,1.18c.11,1.74.27,3.47.47,5.18h7.55a90.54,90.54,0,0,1-.72-11.35,89.49,89.49,0,0,1,12.07-45l4.35,2.51a84.8,84.8,0,0,0-10.66,53.83h7.58A77.22,77.22,0,0,1,246,728.78l4.33,2.5a72.2,72.2,0,0,0-8.84,47.58h7.6A64.84,64.84,0,0,1,256.84,735Zm0-150,4.33,2.49a9.92,9.92,0,0,0,0,10l-4.33,2.5a14.9,14.9,0,0,1,0-15Zm0,50,4.33,2.49a9.92,9.92,0,0,0,0,10l-4.33,2.5a14.9,14.9,0,0,1,0-15Zm4.33-497.51a9.92,9.92,0,0,0,0,10l-4.33,2.5a14.9,14.9,0,0,1,0-15Zm0-50a9.92,9.92,0,0,0,0,10l-4.33,2.5a14.9,14.9,0,0,1,0-15ZM256.83,35l4.33,2.49a9.92,9.92,0,0,0,0,10L256.83,50a14.9,14.9,0,0,1,0-15Zm4.33,452.49a9.92,9.92,0,0,0,0,10l-4.33,2.5a14.9,14.9,0,0,1,0-15ZM256.84,235l4.33,2.5a59.81,59.81,0,0,0,0,60l-4.33,2.5a64.8,64.8,0,0,1,0-65Zm-6.49-3.74a72.25,72.25,0,0,0,0,72.46l-4.33,2.5a77.25,77.25,0,0,1,0-77.46Zm0,122.47-4.33,2.5a27.43,27.43,0,0,1,0-27.48l4.33,2.49a22.45,22.45,0,0,0,0,22.49Zm0-200-4.33,2.5a27.43,27.43,0,0,1,0-27.48l4.33,2.49a22.45,22.45,0,0,0,0,22.49Zm-4.33,25,4.33,2.49a22.45,22.45,0,0,0,0,22.49l-4.33,2.5a27.43,27.43,0,0,1,0-27.48Zm1.31-86.26a22.33,22.33,0,0,0,3,11.24l-4.33,2.5a27.43,27.43,0,0,1,0-27.48l4.33,2.49A22.34,22.34,0,0,0,247.31,92.51ZM246,28.77l4.33,2.49a22.45,22.45,0,0,0,0,22.49L246,56.25a27.43,27.43,0,0,1,0-27.48ZM239.51,110l-4.33,2.5a39.89,39.89,0,0,1,0-40l4.33,2.5a34.89,34.89,0,0,0,0,35Zm0,50-4.33,2.5a39.89,39.89,0,0,1,0-40l4.33,2.5a34.89,34.89,0,0,0,0,35Zm0,50-4.33,2.5a39.89,39.89,0,0,1,0-40l4.33,2.5a34.89,34.89,0,0,0,0,35ZM235.18,22.52l4.33,2.5a34.89,34.89,0,0,0,0,35l-4.33,2.5a39.89,39.89,0,0,1,0-40Zm-12.07,245a89.49,89.49,0,0,1,12.07-45l4.35,2.51a84.72,84.72,0,0,0,0,85l-4.35,2.51A89.52,89.52,0,0,1,223.11,267.51ZM239.51,360l-4.33,2.5a39.89,39.89,0,0,1,0-40l4.33,2.5a34.89,34.89,0,0,0,0,35Zm0,350-4.33,2.5a39.89,39.89,0,0,1,0-40l4.33,2.5a34.89,34.89,0,0,0,0,35Zm0-50-4.33,2.5a39.89,39.89,0,0,1,0-40l4.33,2.5a34.89,34.89,0,0,0,0,35Zm0-50-4.33,2.5a39.89,39.89,0,0,1,0-40l4.33,2.5a34.89,34.89,0,0,0,0,35Zm0-50-4.33,2.5a39.89,39.89,0,0,1,0-40l4.33,2.5a34.89,34.89,0,0,0,0,35Zm0-50-4.33,2.5a39.89,39.89,0,0,1,0-40l4.33,2.5a34.89,34.89,0,0,0,0,35Zm-4.33-47.5a89.88,89.88,0,0,1,0-90l4.35,2.51a84.72,84.72,0,0,0,0,85Zm15.15,241.25-4.33,2.5a27.43,27.43,0,0,1,0-27.48l4.33,2.49a22.45,22.45,0,0,0,0,22.49Zm-3-61.24a22.33,22.33,0,0,0,3,11.24l-4.33,2.5a27.43,27.43,0,0,1,0-27.48l4.33,2.49A22.34,22.34,0,0,0,247.31,642.51Zm0-50a22.33,22.33,0,0,0,3,11.24l-4.33,2.5a27.43,27.43,0,0,1,0-27.48l4.33,2.49A22.34,22.34,0,0,0,247.31,592.51Zm0-50a22.33,22.33,0,0,0,3,11.24l-4.33,2.5a27.43,27.43,0,0,1,0-27.48l4.33,2.49A22.34,22.34,0,0,0,247.31,542.51Zm0-50a22.33,22.33,0,0,0,3,11.24l-4.33,2.5a27.43,27.43,0,0,1,0-27.48l4.33,2.49A22.34,22.34,0,0,0,247.31,492.51ZM246,456.24a77.25,77.25,0,0,1,0-77.46l4.33,2.5a72.25,72.25,0,0,0,0,72.46Zm2.09-38.73A64.65,64.65,0,0,1,256.84,385l4.33,2.5a59.81,59.81,0,0,0,0,60l-4.33,2.5A64.58,64.58,0,0,1,248.11,417.51Z"/><path class="cls-1" d="M0,245c.44.84.89,1.68,1.36,2.5L0,248.28v60a102.16,102.16,0,0,1,7.16-15.78,52.28,52.28,0,0,1,0-50,52.24,52.24,0,0,1,0-50,52.24,52.24,0,0,1,0-50,52.23,52.23,0,0,1,.14-50.25,52.3,52.3,0,0,1,0-49.51A102.75,102.75,0,0,1,0,26.68v10l1.36.78a10,10,0,0,0,0,10L0,48.29V86.73l1.36.78a10,10,0,0,0,0,10L0,98.29v38.44l1.36.78a10,10,0,0,0,0,10L0,148.29v38.45l1.36.78C.89,188.34.44,189.18,0,190Z"/><path class="cls-1" d="M1027.53,617.51a64.55,64.55,0,0,1,8.74-32.49l2.21,1.28V548.71l-2.23,1.29a14.9,14.9,0,0,1,0-15l2.23,1.28V498.71l-2.21,1.28a64.74,64.74,0,0,1,0-65l2.21,1.28V424.57a102.37,102.37,0,0,1,0-64.12V348.71l-2.23,1.29a14.9,14.9,0,0,1,0-15l2.23,1.28V298.71l-2.21,1.28a64.74,64.74,0,0,1,0-65l2.21,1.28V198.71l-2.23,1.29a14.9,14.9,0,0,1,0-15l2.23,1.28V148.71l-2.23,1.29a14.9,14.9,0,0,1,0-15l2.23,1.28V98.71l-2.21,1.28a64.74,64.74,0,0,1,0-65l2.21,1.28V0h-10.72c.64,1.27,1.31,2.52,2,3.74l-4.32,2.5c-1.18-2-2.26-4.11-3.25-6.24H1014A87.45,87.45,0,0,0,1019,10l-4.34,2.51a89.21,89.21,0,0,1-6-12.5h-8a97.82,97.82,0,0,0,7.5,16.25l-2.18,1.26,2.18,1.26a96.85,96.85,0,0,0-12.88,42.56l2,1.18a9.92,9.92,0,0,0,0,10l-2,1.18a96.89,96.89,0,0,0,12.88,42.57l-2.18,1.26,2.18,1.26a47.36,47.36,0,0,0,0,47.48l-2.18,1.26,2.18,1.26a47.36,47.36,0,0,0,0,47.48l-2.18,1.26,2.18,1.26a96.85,96.85,0,0,0-12.88,42.56l2,1.18a9.92,9.92,0,0,0,0,10l-2,1.18a96.89,96.89,0,0,0,12.88,42.57l-2.18,1.26,2.18,1.26a47.36,47.36,0,0,0,0,47.48h0l-2.18,1.26,2.18,1.26a47.36,47.36,0,0,0,0,47.48l-2.18,1.26,2.18,1.26a96.85,96.85,0,0,0-12.88,42.56l2,1.18a9.92,9.92,0,0,0,0,10l-2,1.18a96.89,96.89,0,0,0,12.88,42.57l-2.18,1.26,2.18,1.26a47.36,47.36,0,0,0,0,47.48l-2.18,1.26,2.18,1.26a96.85,96.85,0,0,0-12.88,42.56l2,1.18a9.92,9.92,0,0,0,0,10l-2,1.18a96.89,96.89,0,0,0,12.88,42.57l-2.18,1.26,2.18,1.26a47.36,47.36,0,0,0,0,47.48l-2.18,1.26,2.18,1.26a47.36,47.36,0,0,0,0,47.48l-2.18,1.26,2.18,1.26a47.67,47.67,0,0,0-4.35,10.09h7.89a39.8,39.8,0,0,1,3-6.34l4.32,2.5a37.16,37.16,0,0,0-1.92,3.84h8.36l.06-.1.17.1h12.88V748.71l-2.23,1.29a14.9,14.9,0,0,1,0-15l2.23,1.28V698.71l-2.23,1.29a14.9,14.9,0,0,1,0-15l2.23,1.28V648.71l-2.21,1.28A64.49,64.49,0,0,1,1027.53,617.51Zm-7.5-150a72.07,72.07,0,0,0,9.74,36.23l-4.32,2.5a77.19,77.19,0,0,1,0-77.46l4.32,2.5A72,72,0,0,0,1020,467.51Zm9.72,86.24-4.32,2.5a27.38,27.38,0,0,1,0-27.49l4.32,2.5a22.45,22.45,0,0,0,0,22.49Zm0-200h0l-4.32,2.5a27.38,27.38,0,0,1,0-27.49l4.32,2.5a22.45,22.45,0,0,0,0,22.49Zm-4.32,25,4.32,2.5a22.45,22.45,0,0,0,0,22.49l-4.32,2.5a27.38,27.38,0,0,1,0-27.49ZM1020,267.51a72.07,72.07,0,0,0,9.74,36.23l-4.32,2.5a77.19,77.19,0,0,1,0-77.46l4.32,2.5A72,72,0,0,0,1020,267.51Zm9.72-113.76-4.32,2.5a27.38,27.38,0,0,1,0-27.49l4.32,2.5a22.45,22.45,0,0,0,0,22.49Zm-4.32,25,4.32,2.5a22.45,22.45,0,0,0,0,22.49l-4.32,2.5a27.38,27.38,0,0,1,0-27.49Zm0-150,4.32,2.5a72.25,72.25,0,0,0,0,72.46l-4.32,2.5a77.19,77.19,0,0,1,0-77.46Zm-22.92,38.73a89.39,89.39,0,0,1,12.08-45L1019,25a84.72,84.72,0,0,0,0,85l-4.34,2.51A89.42,89.42,0,0,1,1002.53,67.51Zm16.4,92.49-4.32,2.5a39.83,39.83,0,0,1,0-40l4.32,2.5a34.89,34.89,0,0,0,0,35Zm0,50-4.32,2.5a39.83,39.83,0,0,1,0-40l4.32,2.5a34.89,34.89,0,0,0,0,35Zm-16.4,57.51a89.39,89.39,0,0,1,12.08-45L1019,225a84.72,84.72,0,0,0,0,85l-4.34,2.51A89.42,89.42,0,0,1,1002.53,267.51Zm16.4,92.49-4.32,2.5a39.83,39.83,0,0,1,0-40l4.32,2.5h0a34.89,34.89,0,0,0,0,35Zm0,50-4.32,2.5a39.83,39.83,0,0,1,0-40l4.32,2.5a34.89,34.89,0,0,0,0,35Zm-16.4,57.51a89.39,89.39,0,0,1,12.08-45L1019,425a84.72,84.72,0,0,0,0,85l-4.34,2.51A89.42,89.42,0,0,1,1002.53,467.51Zm16.4,92.49-4.32,2.5a39.83,39.83,0,0,1,0-40l4.32,2.5a34.89,34.89,0,0,0,0,35Zm0,200-4.32,2.5a39.83,39.83,0,0,1,0-40l4.32,2.5a34.89,34.89,0,0,0,0,35Zm0-50-4.32,2.5a39.83,39.83,0,0,1,0-40l4.32,2.5a34.89,34.89,0,0,0,0,35Zm-4.32-47.5a89.82,89.82,0,0,1,0-90L1019,575a84.72,84.72,0,0,0,0,85Zm15.14,91.25-4.32,2.5a27.38,27.38,0,0,1,0-27.49l4.32,2.5a22.45,22.45,0,0,0,0,22.49Zm-3-61.24a22.33,22.33,0,0,0,3,11.24l-4.32,2.5a27.38,27.38,0,0,1,0-27.49l4.32,2.5A22.34,22.34,0,0,0,1026.73,692.51Zm-1.28-36.27a77.19,77.19,0,0,1,0-77.46l4.32,2.5a72.25,72.25,0,0,0,0,72.46Z"/><path class="cls-1" d="M570.08,767.51a52.32,52.32,0,0,1,0-50,52.32,52.32,0,0,1,0-50,52.32,52.32,0,0,1,0-50,52.32,52.32,0,0,1,0-50,52.32,52.32,0,0,1,0-50,52.32,52.32,0,0,1,0-50,52.32,52.32,0,0,1,0-50,52.32,52.32,0,0,1,0-50,52.32,52.32,0,0,1,0-50,52.32,52.32,0,0,1,0-50,102.24,102.24,0,0,1,0-100,52.32,52.32,0,0,1,0-50,102.24,102.24,0,0,1,0-100A52.41,52.41,0,0,1,564.27,0h-7.58a59.54,59.54,0,0,0,7.59,22.49L560,25a64.55,64.55,0,0,1-8.29-25h-7.55a71.9,71.9,0,0,0,9.35,28.74l-4.33,2.5A77.19,77.19,0,0,1,539.08,0h-7.52a84.46,84.46,0,0,0,11.08,35l-4.35,2.51A89.33,89.33,0,0,1,526.54,0H519A96.88,96.88,0,0,0,531.8,41.25l-2.19,1.26,2.19,1.26a47.36,47.36,0,0,0,0,47.48l-2.19,1.26,2.19,1.26a47.36,47.36,0,0,0,0,47.48l-2.19,1.26,2.19,1.26a47.36,47.36,0,0,0,0,47.48l-1.38.8,3,1.72a47.36,47.36,0,0,0,0,47.48l-3,1.72,1.38.8a47.36,47.36,0,0,0,0,47.48l-2.19,1.26,2.19,1.26a47.36,47.36,0,0,0,0,47.48l-2.19,1.26,2.19,1.26a96.85,96.85,0,0,0-12.88,42.56l2,1.18a9.92,9.92,0,0,0,0,10l-2,1.18a96.89,96.89,0,0,0,12.88,42.57l-2.19,1.26,2.19,1.26a47.36,47.36,0,0,0,0,47.48l-2.19,1.26,2.19,1.26a96.85,96.85,0,0,0-12.88,42.56l2,1.18a9.92,9.92,0,0,0,0,10l-2,1.18a96.89,96.89,0,0,0,12.88,42.57l-2.19,1.26,2.19,1.26a47.36,47.36,0,0,0,0,47.48l-2.19,1.26,2.19,1.26a47.36,47.36,0,0,0,0,47.48l-2.19,1.26,2.19,1.26a96.85,96.85,0,0,0-12.88,42.56l2,1.18a9.92,9.92,0,0,0,0,10l-2,1.18a96.59,96.59,0,0,0,6.83,30.18h8.15a89.87,89.87,0,0,1,4.39-81.34l4.35,2.51a84.65,84.65,0,0,0-3.21,78.83h8.38a77.24,77.24,0,0,1,1.32-75.08l4.33,2.5a72.25,72.25,0,0,0,0,72.46l-.21.12H564.6A102.26,102.26,0,0,1,570.08,767.51ZM559.94,110l4.33,2.49a9.92,9.92,0,0,0,0,10l-4.33,2.5a14.9,14.9,0,0,1,0-15Zm0,50,4.33,2.49a9.92,9.92,0,0,0,0,10l-4.33,2.5a14.9,14.9,0,0,1,0-15Zm4.33,502.49a9.92,9.92,0,0,0,0,10l-4.33,2.5a14.9,14.9,0,0,1,0-15Zm0-50a9.92,9.92,0,0,0,0,10l-4.33,2.5a14.9,14.9,0,0,1,0-15Zm0-100a59.81,59.81,0,0,0,0,60L560,575a64.8,64.8,0,0,1,0-65Zm0-50a9.92,9.92,0,0,0,0,10l-4.33,2.5a14.9,14.9,0,0,1,0-15ZM559.94,260l4.33,2.49a9.92,9.92,0,0,0,0,10l-4.33,2.5a14.9,14.9,0,0,1,0-15Zm0,50,4.33,2.49a9.92,9.92,0,0,0,0,10l-4.33,2.5a14.9,14.9,0,0,1,0-15Zm0,50,4.33,2.5a59.81,59.81,0,0,0,0,60L560,425a64.8,64.8,0,0,1,0-65Zm-6.51,118.73-4.33,2.5a27.44,27.44,0,0,1,0-27.49l4.33,2.5a22.45,22.45,0,0,0,0,22.49Zm-4.31-47.51a77.25,77.25,0,0,1,0-77.46l4.33,2.5a72.25,72.25,0,0,0,0,72.46Zm5.91-225a22.45,22.45,0,0,0,0,22.49l-4.33,2.5a27.44,27.44,0,0,1,0-27.49Zm-5.93-152.5,4.33,2.5a22.45,22.45,0,0,0,0,22.49l-4.33,2.5a27.44,27.44,0,0,1,0-27.49Zm0,50,4.33,2.5a22.45,22.45,0,0,0,0,22.49l-4.33,2.5a27.44,27.44,0,0,1,0-27.49Zm0,50,4.33,2.5a22.45,22.45,0,0,0,0,22.49l-4.33,2.5a27.44,27.44,0,0,1,0-27.49Zm0,100,4.33,2.5a22.45,22.45,0,0,0,0,22.49l-4.33,2.5a27.44,27.44,0,0,1,0-27.49Zm0,50,4.33,2.5a22.45,22.45,0,0,0,0,22.49l-4.33,2.5a27.44,27.44,0,0,1,0-27.49ZM544.22,200a34.89,34.89,0,0,0,0,35l-4.33,2.5a39.89,39.89,0,0,1,0-40Zm-5.93-152.5,4.33,2.5a34.89,34.89,0,0,0,0,35l-4.33,2.5a39.89,39.89,0,0,1,0-40Zm0,50,4.33,2.5a34.89,34.89,0,0,0,0,35l-4.33,2.5a39.89,39.89,0,0,1,0-40Zm-5.37,70a39.73,39.73,0,0,1,5.37-20l4.33,2.5a34.89,34.89,0,0,0,0,35l-4.33,2.5A39.76,39.76,0,0,1,532.92,167.51Zm5.37,80,4.33,2.5a34.89,34.89,0,0,0,0,35l-4.33,2.5a39.89,39.89,0,0,1,0-40Zm0,50,4.33,2.5a34.89,34.89,0,0,0,0,35l-4.33,2.5a39.89,39.89,0,0,1,0-40Zm-12.07,95a89.49,89.49,0,0,1,12.07-45l4.35,2.51a84.72,84.72,0,0,0,0,85l-4.35,2.51A89.52,89.52,0,0,1,526.22,392.51ZM542.62,485l-4.33,2.5a39.89,39.89,0,0,1,0-40l4.33,2.5a34.89,34.89,0,0,0,0,35Zm0,200-4.33,2.5a39.89,39.89,0,0,1,0-40l4.33,2.5a34.89,34.89,0,0,0,0,35Zm0-50-4.33,2.5a39.89,39.89,0,0,1,0-40l4.33,2.5a34.89,34.89,0,0,0,0,35Zm-4.33-47.5a89.88,89.88,0,0,1,0-90l4.35,2.51a84.72,84.72,0,0,0,0,85Zm15.15,91.25-4.33,2.5a27.44,27.44,0,0,1,0-27.49l4.33,2.5a22.45,22.45,0,0,0,0,22.49Zm-3-61.24a22.33,22.33,0,0,0,3,11.24l-4.33,2.5a27.44,27.44,0,0,1,0-27.49l4.33,2.5A22.34,22.34,0,0,0,550.42,617.51Zm-1.29-36.27a77.25,77.25,0,0,1,0-77.46l4.33,2.5a72.25,72.25,0,0,0,0,72.46Zm2.09,161.27A64.65,64.65,0,0,1,560,710l4.33,2.5a59.81,59.81,0,0,0,0,60L560,775A64.58,64.58,0,0,1,551.22,742.51Z"/><path class="cls-1" d="M958.43,17.51a47.22,47.22,0,0,0,6.38,23.74l-2.18,1.26,2.18,1.26a47.36,47.36,0,0,0,0,47.48l-2.18,1.26,2.18,1.26a47.36,47.36,0,0,0,0,47.48l-1.38.8,3,1.72a47.29,47.29,0,0,0,0,47.48l-3,1.72,1.38.8a47.36,47.36,0,0,0,0,47.48l-2.18,1.26,2.18,1.26a47.36,47.36,0,0,0,0,47.48l-2.18,1.26,2.18,1.26h0a96.85,96.85,0,0,0-12.88,42.56l2.05,1.18a9.92,9.92,0,0,0,0,10l-2.05,1.18a96.89,96.89,0,0,0,12.88,42.57l-2.18,1.26,2.18,1.26a47.36,47.36,0,0,0,0,47.48l-2.18,1.26,2.18,1.26a47.36,47.36,0,0,0,0,47.48l-2.18,1.26,2.18,1.26a47.36,47.36,0,0,0,0,47.48l-2.18,1.26,2.18,1.26a47.36,47.36,0,0,0,0,47.48l-2.18,1.26,2.18,1.26a47.36,47.36,0,0,0,0,47.48l-2.18,1.26,2.18,1.26a96.85,96.85,0,0,0-12.88,42.56l2.05,1.18a9.92,9.92,0,0,0,0,10l-2.05,1.18a96.89,96.89,0,0,0,12.88,42.57l-2.18,1.26,2.18,1.26a96.72,96.72,0,0,0-12.11,35.09h7.58a89.17,89.17,0,0,1,11-31.34l4.34,2.51a84.45,84.45,0,0,0-10.31,28.83H973a77,77,0,0,1,9.2-25.08l4.32,2.5A72.18,72.18,0,0,0,978,778.86h7.66A64.52,64.52,0,0,1,993,760l4.32,2.5a60,60,0,0,0-6.48,16.34h7.74a52.67,52.67,0,0,1,4.54-11.35,52.32,52.32,0,0,1,0-50,52.32,52.32,0,0,1,0-50,102.24,102.24,0,0,1,0-100,52.32,52.32,0,0,1,0-50,102.24,102.24,0,0,1,0-100,52.32,52.32,0,0,1,0-50,52.32,52.32,0,0,1,0-50,102.24,102.24,0,0,1,0-100,52.32,52.32,0,0,1,0-50,52.32,52.32,0,0,1,0-50,102.24,102.24,0,0,1,0-100A102.15,102.15,0,0,1,995.32,0H975.6l0,0a34.89,34.89,0,0,0,0,35l-4.33,2.5A39.84,39.84,0,0,1,970,0H961.8A47.17,47.17,0,0,0,958.43,17.51ZM993,510l4.33,2.49a9.92,9.92,0,0,0,0,10L993,525a14.9,14.9,0,0,1,0-15Zm0,50,4.33,2.49a9.92,9.92,0,0,0,0,10L993,575a14.9,14.9,0,0,1,0-15Zm4.33-347.51a9.92,9.92,0,0,0,0,10L993,225a14.9,14.9,0,0,1,0-15Zm1.6-50a9.92,9.92,0,0,0,0,10l-4.32,2.5a14.83,14.83,0,0,1,0-15ZM993,110l4.33,2.49a9.92,9.92,0,0,0,0,10L993,125a14.9,14.9,0,0,1,0-15Zm0-100,4.33,2.49a9.92,9.92,0,0,0,0,10L993,25a14.9,14.9,0,0,1,0-15ZM971.3,197.52l4.33,2.5a34.89,34.89,0,0,0,0,35l-4.33,2.5a39.89,39.89,0,0,1,0-40Zm0,50,4.33,2.5a34.89,34.89,0,0,0,0,35l-4.33,2.5a39.89,39.89,0,0,1,0-40Zm-12.07,95a89.39,89.39,0,0,1,12.08-45l4.34,2.51a84.72,84.72,0,0,0,0,85h0l-4.34,2.51A89.42,89.42,0,0,1,959.23,342.51Zm27.22-113.76-4.33,2.5a27.44,27.44,0,0,1,0-27.49l4.33,2.5a22.45,22.45,0,0,0,0,22.49Zm-4.33,25,4.33,2.5a22.45,22.45,0,0,0,0,22.49l-4.33,2.5a27.44,27.44,0,0,1,0-27.49Zm0,50,4.32,2.5a72.25,72.25,0,0,0,0,72.46h0l-4.32,2.5a77.19,77.19,0,0,1,0-77.46Zm4.3,325-4.33,2.5a27.44,27.44,0,0,1,0-27.49l4.33,2.5a22.45,22.45,0,0,0,0,22.49Zm0-150-4.33,2.5a27.44,27.44,0,0,1,0-27.49l4.33,2.5a22.45,22.45,0,0,0,0,22.49Zm0,100-4.33,2.5a27.44,27.44,0,0,1,0-27.49l4.33,2.5a22.45,22.45,0,0,0,0,22.49Zm0-50-4.33,2.5a27.44,27.44,0,0,1,0-27.49l4.33,2.5a22.45,22.45,0,0,0,0,22.49Zm-3-111.24a22.33,22.33,0,0,0,3,11.24l-4.33,2.5a27.44,27.44,0,0,1,0-27.49l4.33,2.5A22.34,22.34,0,0,0,983.43,417.51ZM975.63,435l-4.33,2.5a39.89,39.89,0,0,1,0-40l4.33,2.5a34.89,34.89,0,0,0,0,35Zm0,100-4.33,2.5a39.89,39.89,0,0,1,0-40l4.33,2.5a34.89,34.89,0,0,0,0,35Zm0,50-4.33,2.5a39.89,39.89,0,0,1,0-40l4.33,2.5a34.89,34.89,0,0,0,0,35Zm0,50-4.33,2.5a39.89,39.89,0,0,1,0-40l4.33,2.5a34.89,34.89,0,0,0,0,35Zm0-150-4.33,2.5a39.89,39.89,0,0,1,0-40l4.33,2.5a34.89,34.89,0,0,0,0,35Zm-4.32,252.5a89.82,89.82,0,0,1,0-90l4.34,2.51a84.72,84.72,0,0,0,0,85Zm10.84-6.26a77.19,77.19,0,0,1,0-77.46l4.32,2.5a72.25,72.25,0,0,0,0,72.46ZM993,660l4.32,2.5a59.81,59.81,0,0,0,0,60L993,725a64.74,64.74,0,0,1,0-65Zm4.31-247.51a9.92,9.92,0,0,0,0,10L993,425a14.9,14.9,0,0,1,0-15ZM993,310l4.32,2.5h0a59.81,59.81,0,0,0,0,60L993,375a64.74,64.74,0,0,1,0-65Zm-4.91-131.27-4.33,2.5a27.38,27.38,0,0,1,0-27.49l4.33,2.5a22.38,22.38,0,0,0,0,22.49Zm-5.94-175,4.33,2.5a22.45,22.45,0,0,0,0,22.49l-4.33,2.5a27.44,27.44,0,0,1,0-27.49Zm0,50,4.33,2.5a22.45,22.45,0,0,0,0,22.49l-4.33,2.5a27.44,27.44,0,0,1,0-27.49Zm0,50,4.33,2.5a22.45,22.45,0,0,0,0,22.49l-4.33,2.5a27.44,27.44,0,0,1,0-27.49ZM977.23,150a34.89,34.89,0,0,0,0,35l-4.32,2.5a39.83,39.83,0,0,1,0-40ZM971.3,47.52l4.33,2.5a34.89,34.89,0,0,0,0,35l-4.33,2.5a39.89,39.89,0,0,1,0-40Zm0,50,4.33,2.5a34.89,34.89,0,0,0,0,35l-4.33,2.5a39.89,39.89,0,0,1,0-40Z"/><path class="cls-1" d="M170.24,735l4.33,2.5a59.78,59.78,0,0,0-7,41.34h7.67a52.14,52.14,0,0,1,5.1-36.35,52.32,52.32,0,0,1,0-50,102.24,102.24,0,0,1,0-100,52.32,52.32,0,0,1,0-50,52.32,52.32,0,0,1,0-50,52.32,52.32,0,0,1,0-50,52.32,52.32,0,0,1,0-50,52.32,52.32,0,0,1,0-50,52.32,52.32,0,0,1,0-50,52.32,52.32,0,0,1,0-50,52.32,52.32,0,0,1,0-50,102.24,102.24,0,0,1,0-100A102.23,102.23,0,0,1,176.57,0H162a21.64,21.64,0,0,0,1.73,3.75l-4.33,2.5A27.26,27.26,0,0,1,156.75,0H149a34.77,34.77,0,0,0,3.88,10l-4.33,2.5A40,40,0,0,1,143.92,0h-7.6a47.15,47.15,0,0,0,5.77,16.25l-2.19,1.26,2.19,1.26a47.36,47.36,0,0,0,0,47.48l-2.19,1.26,2.19,1.26a47.36,47.36,0,0,0,0,47.48l-1.38.8,3,1.72a47.36,47.36,0,0,0,0,47.48l-3,1.72,1.38.8a47.36,47.36,0,0,0,0,47.48l-2.19,1.26,2.19,1.26a47.36,47.36,0,0,0,0,47.48l-2.19,1.26,2.19,1.26a96.76,96.76,0,0,0-12.88,42.56l2,1.18a9.92,9.92,0,0,0,0,10l-2,1.19a96.76,96.76,0,0,0,12.88,42.56l-2.19,1.26,2.19,1.26a47.36,47.36,0,0,0,0,47.48l-2.19,1.26,2.19,1.26a47.36,47.36,0,0,0,0,47.48l-2.19,1.26,2.19,1.26a96.76,96.76,0,0,0-12.88,42.56l2,1.18a9.92,9.92,0,0,0,0,10l-2,1.19a96.76,96.76,0,0,0,12.88,42.56l-2.19,1.26,2.19,1.26a47.36,47.36,0,0,0,0,47.48l-2.19,1.26,2.19,1.26a47.36,47.36,0,0,0,0,47.48l-2.19,1.26,2.19,1.26a47.36,47.36,0,0,0,0,47.48l-2.19,1.26,2.19,1.26a96.76,96.76,0,0,0-12.88,42.56l2,1.18a9.92,9.92,0,0,0,0,10l-2,1.19c.11,1.73.27,3.46.47,5.17h7.55a90.54,90.54,0,0,1-.72-11.35,89.49,89.49,0,0,1,12.07-45l4.35,2.51a84.8,84.8,0,0,0-10.66,53.83h7.58a77.22,77.22,0,0,1,9.57-50.08l4.33,2.5a72.2,72.2,0,0,0-8.84,47.58h7.6A64.84,64.84,0,0,1,170.24,735Zm0-50,4.32,2.49a10,10,0,0,0,0,10l-4.32,2.5a14.9,14.9,0,0,1,0-15Zm0-600,4.32,2.49a10,10,0,0,0,0,10l-4.32,2.5a14.9,14.9,0,0,1,0-15Zm4.32,502.49a10,10,0,0,0,0,10l-4.32,2.5a14.9,14.9,0,0,1,0-15Zm0-100a59.81,59.81,0,0,0,0,60l-4.33,2.5a64.8,64.8,0,0,1,0-65Zm-10.84-33.77-4.33,2.5a27.43,27.43,0,0,1,0-27.48l4.33,2.49a22.45,22.45,0,0,0,0,22.49Zm0-50-4.33,2.5a27.43,27.43,0,0,1,0-27.48l4.33,2.49a22.45,22.45,0,0,0,0,22.49Zm-4.31-47.51a77.25,77.25,0,0,1,0-77.46l4.33,2.5a72.25,72.25,0,0,0,0,72.46Zm4.31-152.49-4.33,2.5a27.43,27.43,0,0,1,0-27.48l4.33,2.49a22.45,22.45,0,0,0,0,22.49Zm10.82,233.76a10,10,0,0,0,0,10l-4.32,2.5a14.9,14.9,0,0,1,0-15Zm0-50a10,10,0,0,0,0,10l-4.32,2.5a14.9,14.9,0,0,1,0-15ZM170.23,185l4.32,2.49a10,10,0,0,0,0,10l-4.32,2.5a14.9,14.9,0,0,1,0-15Zm0,50,4.32,2.49a10,10,0,0,0,0,10l-4.32,2.5a14.9,14.9,0,0,1,0-15Zm0,50,4.33,2.5a59.81,59.81,0,0,0,0,60l-4.33,2.5a64.8,64.8,0,0,1,0-65Zm-4.91-131.27-4.33,2.5a27.43,27.43,0,0,1,0-27.48l4.33,2.49a22.45,22.45,0,0,0,0,22.49Zm-1.6-50-4.33,2.5a27.43,27.43,0,0,1,0-27.48l4.33,2.49a22.45,22.45,0,0,0,0,22.49Zm-4.33-75,4.33,2.49a22.45,22.45,0,0,0,0,22.49l-4.33,2.5a27.43,27.43,0,0,1,0-27.48Zm0,200,4.33,2.49a22.45,22.45,0,0,0,0,22.49l-4.33,2.5a27.43,27.43,0,0,1,0-27.48ZM154.51,125a34.89,34.89,0,0,0,0,35l-4.33,2.5a39.89,39.89,0,0,1,0-40Zm-5.93-102.5,4.33,2.5a34.89,34.89,0,0,0,0,35l-4.33,2.5a39.89,39.89,0,0,1,0-40Zm-5.37,70a39.73,39.73,0,0,1,5.37-20l4.33,2.5a34.89,34.89,0,0,0,0,35l-4.33,2.5A39.76,39.76,0,0,1,143.21,92.51Zm5.37,80,4.33,2.5a34.89,34.89,0,0,0,0,35l-4.33,2.5a39.89,39.89,0,0,1,0-40Zm0,50,4.33,2.5a34.89,34.89,0,0,0,0,35l-4.33,2.5a39.89,39.89,0,0,1,0-40Zm-12.07,95a89.49,89.49,0,0,1,12.07-45l4.35,2.51a84.72,84.72,0,0,0,0,85l-4.35,2.51A89.52,89.52,0,0,1,136.51,317.51ZM152.91,410l-4.33,2.5a39.89,39.89,0,0,1,0-40l4.33,2.5a34.89,34.89,0,0,0,0,35Zm0,50-4.33,2.5a39.89,39.89,0,0,1,0-40l4.33,2.5a34.89,34.89,0,0,0,0,35Zm0,250-4.33,2.5a39.89,39.89,0,0,1,0-40l4.33,2.5a34.89,34.89,0,0,0,0,35Zm0-50-4.33,2.5a39.89,39.89,0,0,1,0-40l4.33,2.5a34.89,34.89,0,0,0,0,35Zm0-50-4.33,2.5a39.89,39.89,0,0,1,0-40l4.33,2.5a34.89,34.89,0,0,0,0,35Zm-4.33-47.5a89.88,89.88,0,0,1,0-90l4.35,2.51a84.72,84.72,0,0,0,0,85Zm15.15,141.25-4.33,2.5a27.43,27.43,0,0,1,0-27.48l4.33,2.49a22.45,22.45,0,0,0,0,22.49Zm-3-61.24a22.33,22.33,0,0,0,3,11.24l-4.33,2.5a27.43,27.43,0,0,1,0-27.48l4.33,2.49A22.37,22.37,0,0,0,160.71,642.51Zm0-50a22.33,22.33,0,0,0,3,11.24l-4.33,2.5a27.43,27.43,0,0,1,0-27.48l4.33,2.49A22.37,22.37,0,0,0,160.71,592.51Zm-1.29-36.27a77.25,77.25,0,0,1,0-77.46l4.33,2.5a72.25,72.25,0,0,0,0,72.46Z"/><path class="cls-1" d="M1038.48,643.5v-52a59.74,59.74,0,0,0,0,52Z"/><path class="cls-1" d="M396.88,767.51a52.24,52.24,0,0,1,0-50,52.24,52.24,0,0,1,0-50,52.24,52.24,0,0,1,0-50,102.17,102.17,0,0,1,0-100,52.24,52.24,0,0,1,0-50,102.17,102.17,0,0,1,0-100,52.24,52.24,0,0,1,0-50,52.24,52.24,0,0,1,0-50,52.24,52.24,0,0,1,0-50,52.24,52.24,0,0,1,0-50,52.24,52.24,0,0,1,0-50,52.24,52.24,0,0,1,0-50,52.24,52.24,0,0,1,0-50A52.11,52.11,0,0,1,391.07,0h-7.58a59.54,59.54,0,0,0,7.59,22.49L386.75,25a64.57,64.57,0,0,1-8.3-25H370.9a72.07,72.07,0,0,0,9.36,28.74l-4.33,2.5A76.89,76.89,0,0,1,365.88,0h-7.53a84.47,84.47,0,0,0,11.09,35l-4.35,2.51A89.34,89.34,0,0,1,353.33,0h-7.52a97,97,0,0,0,12.78,41.25l-2.18,1.26,2.19,1.26a47.29,47.29,0,0,0,0,47.48l-2.19,1.26,2.18,1.26a96.89,96.89,0,0,0-12.88,42.56l2.05,1.18a9.92,9.92,0,0,0,0,10l-2.05,1.18a96.89,96.89,0,0,0,12.88,42.57l-2.18,1.26,2.19,1.26a47.29,47.29,0,0,0,0,47.48l-2.19,1.26,2.18,1.26a96.85,96.85,0,0,0-12.88,42.56l2.05,1.18a9.92,9.92,0,0,0,0,10l-2.05,1.18a96.89,96.89,0,0,0,12.88,42.57l-2.18,1.26,2.19,1.26a47.29,47.29,0,0,0,0,47.48l-2.19,1.26,2.19,1.26a47.29,47.29,0,0,0,0,47.48l-2.19,1.26,2.18,1.26a96.89,96.89,0,0,0-12.88,42.56l2.05,1.18a9.92,9.92,0,0,0,0,10l-2.05,1.18a96.89,96.89,0,0,0,12.88,42.57l-2,1.18,2.32,1.34a47.36,47.36,0,0,0,0,47.48l-2.32,1.34,2,1.18a47.36,47.36,0,0,0,0,47.48l-2.18,1.26,2.18,1.26a47.36,47.36,0,0,0,0,47.48l-2.18,1.26,2.18,1.26a96.85,96.85,0,0,0-12.88,42.56l2.05,1.18a9.92,9.92,0,0,0,0,10l-2.05,1.18a96.88,96.88,0,0,0,6.84,30.18h8.15a89.79,89.79,0,0,1,4.39-81.34l4.35,2.51a84.62,84.62,0,0,0-3.22,78.83h8.39a77.17,77.17,0,0,1,1.32-75.08l4.33,2.5a72.19,72.19,0,0,0,0,72.46l-.22.12h12.29A52.19,52.19,0,0,1,396.88,767.51ZM386.74,610l4.32,2.49a9.92,9.92,0,0,0,0,10l-4.32,2.5a14.83,14.83,0,0,1,0-15Zm0,50,4.32,2.49a9.92,9.92,0,0,0,0,10l-4.32,2.5a14.83,14.83,0,0,1,0-15Zm0-200,4.33,2.5a59.74,59.74,0,0,0,0,60l-4.33,2.5a64.74,64.74,0,0,1,0-65Zm-6.52-231.27-4.32,2.5a27.36,27.36,0,0,1,0-27.48l4.32,2.49a22.45,22.45,0,0,0,0,22.49Zm-4.3,25,4.33,2.5a72.19,72.19,0,0,0,0,72.46l-4.33,2.5a77.19,77.19,0,0,1,0-77.46Zm4.3,125-4.32,2.5a27.36,27.36,0,0,1,0-27.48l4.32,2.49a22.45,22.45,0,0,0,0,22.49Zm-4.32,25,4.32,2.49a22.45,22.45,0,0,0,0,22.49l-4.32,2.5a27.36,27.36,0,0,1,0-27.48Zm0,50,4.33,2.5a72.19,72.19,0,0,0,0,72.46l-4.33,2.5a77.19,77.19,0,0,1,0-77.46Zm15.13-91.27a9.92,9.92,0,0,0,0,10l-4.32,2.5a14.83,14.83,0,0,1,0-15Zm0-100a59.74,59.74,0,0,0,0,60l-4.33,2.5a64.74,64.74,0,0,1,0-65Zm0-50a9.92,9.92,0,0,0,0,10l-4.32,2.5a14.83,14.83,0,0,1,0-15ZM386.74,60l4.32,2.49a9.92,9.92,0,0,0,0,10L386.74,75a14.83,14.83,0,0,1,0-15Zm0,50,4.33,2.5a59.74,59.74,0,0,0,0,60l-4.33,2.5a64.74,64.74,0,0,1,0-65ZM375.91,53.77l4.32,2.49a22.45,22.45,0,0,0,0,22.49l-4.32,2.5a27.36,27.36,0,0,1,0-27.48Zm0,50,4.33,2.5a72.19,72.19,0,0,0,0,72.46l-4.33,2.5a77.19,77.19,0,0,1,0-77.46ZM365.09,47.52l4.33,2.5a34.83,34.83,0,0,0,0,35l-4.33,2.5a39.83,39.83,0,0,1,0-40Zm-12.08,95a89.39,89.39,0,0,1,12.08-45l4.35,2.51a84.65,84.65,0,0,0,0,85l-4.35,2.51A89.42,89.42,0,0,1,353,142.51ZM369.42,235l-4.33,2.5a39.83,39.83,0,0,1,0-40l4.33,2.5a34.83,34.83,0,0,0,0,35ZM353,292.51a89.39,89.39,0,0,1,12.08-45l4.35,2.51a84.65,84.65,0,0,0,0,85l-4.35,2.51A89.42,89.42,0,0,1,353,292.51ZM369.42,385l-4.33,2.5a39.83,39.83,0,0,1,0-40l4.33,2.5a34.83,34.83,0,0,0,0,35Zm0,50-4.33,2.5a39.83,39.83,0,0,1,0-40l4.33,2.5a34.83,34.83,0,0,0,0,35ZM353,492.51a89.39,89.39,0,0,1,12.08-45l4.35,2.51a84.65,84.65,0,0,0,0,85l-4.35,2.51A89.42,89.42,0,0,1,353,492.51ZM369.42,685l-4.33,2.5a39.83,39.83,0,0,1,0-40l4.33,2.5a34.83,34.83,0,0,0,0,35Zm0-50-4.33,2.5a39.83,39.83,0,0,1,0-40l4.33,2.5a34.83,34.83,0,0,0,0,35Zm.27-50-4.32,2.5a39.83,39.83,0,0,1,0-40l4.32,2.5a34.89,34.89,0,0,0,0,35Zm10.54,93.75-4.32,2.5a27.36,27.36,0,0,1,0-27.48l4.32,2.49a22.45,22.45,0,0,0,0,22.49Zm-3-61.24a22.44,22.44,0,0,0,3,11.24l-4.32,2.5a27.36,27.36,0,0,1,0-27.48l4.32,2.49A22.45,22.45,0,0,0,377.21,617.51Zm-1-36.26a27.36,27.36,0,0,1,0-27.48l4.32,2.49a22.45,22.45,0,0,0,0,22.49ZM378,742.51A64.55,64.55,0,0,1,386.75,710l4.33,2.5a59.74,59.74,0,0,0,0,60l-4.33,2.5A64.49,64.49,0,0,1,378,742.51Z"/><path class="cls-1" d="M6.94,0H0V5.53A96.69,96.69,0,0,0,12.2,41.25l-2,1.18,2.31,1.34a47.36,47.36,0,0,0,0,47.48l-2.32,1.34,2,1.18a47.29,47.29,0,0,0,0,47.48L10,142.51l2.19,1.26a47.29,47.29,0,0,0,0,47.48L10,192.51l2.19,1.26a47.29,47.29,0,0,0,0,47.48L10,242.51l2.19,1.26a47.29,47.29,0,0,0,0,47.48L10,292.51l2.18,1.26A96.78,96.78,0,0,0,0,329.28v26.46a96.78,96.78,0,0,0,12.18,35.51L10,392.51l2.19,1.26a47.29,47.29,0,0,0,0,47.48L10,442.51l2.19,1.26a47.29,47.29,0,0,0,0,47.48L10,492.51l2.18,1.26A96.78,96.78,0,0,0,0,529.28v26.46a96.78,96.78,0,0,0,12.18,35.51L10,592.51l2.19,1.26a47.29,47.29,0,0,0,0,47.48L10,642.51l2.19,1.26a47.29,47.29,0,0,0,0,47.48L10,692.51l2.19,1.26a47.29,47.29,0,0,0,0,47.48L10,742.51l2.18,1.26A96.9,96.9,0,0,0,.07,778.86H7.65a89.37,89.37,0,0,1,11-31.34L23,750a84.26,84.26,0,0,0-10.32,28.83h7.61a77,77,0,0,1,9.2-25.08l4.33,2.5a71.94,71.94,0,0,0-8.44,22.58h7.65A64.52,64.52,0,0,1,40.34,760l4.33,2.5a59.74,59.74,0,0,0-6.49,16.34h7.74a52.19,52.19,0,0,1,4.55-11.35,52.24,52.24,0,0,1,0-50,52.24,52.24,0,0,1,0-50,52.27,52.27,0,0,1,.69-51.24l.37.22a52.31,52.31,0,0,1,0-48l-.37.22a52.27,52.27,0,0,1-.69-51.24,102.17,102.17,0,0,1,0-100,52.24,52.24,0,0,1,0-50,52.24,52.24,0,0,1,0-50,102.17,102.17,0,0,1,0-100,52.24,52.24,0,0,1,0-50,102.17,102.17,0,0,1,0-100,52.28,52.28,0,0,1,0-50A52.43,52.43,0,0,1,44.67,0H37.09a59.54,59.54,0,0,0,7.59,22.49L40.35,25A64.55,64.55,0,0,1,32.06,0H24.51a71.9,71.9,0,0,0,9.35,28.74l-4.33,2.5A77.19,77.19,0,0,1,19.48,0H12A84.46,84.46,0,0,0,23,35L18.69,37.5A89.33,89.33,0,0,1,6.94,0ZM40.33,160l4.32,2.49a9.92,9.92,0,0,0,0,10L40.33,175a14.83,14.83,0,0,1,0-15Zm0,50,4.32,2.49a9.92,9.92,0,0,0,0,10L40.33,225a14.83,14.83,0,0,1,0-15ZM40.6,60l4.33,2.49a9.92,9.92,0,0,0,0,10L40.6,75a14.9,14.9,0,0,1,0-15ZM23,135l-4.32,2.5a39.83,39.83,0,0,1,0-40L23,100a34.89,34.89,0,0,0,0,35Zm-4.32,12.52L23,150a34.89,34.89,0,0,0,0,35l-4.32,2.5a39.83,39.83,0,0,1,0-40ZM23,285l-4.32,2.5a39.83,39.83,0,0,1,0-40L23,250a34.89,34.89,0,0,0,0,35Zm-4.32-87.48L23,200a34.89,34.89,0,0,0,0,35l-4.32,2.5a39.83,39.83,0,0,1,0-40ZM6.6,342.51a89.39,89.39,0,0,1,12.08-45L23,300a84.65,84.65,0,0,0,0,85l-4.35,2.51A89.42,89.42,0,0,1,6.6,342.51Zm27.23-63.76-4.33,2.5a27.36,27.36,0,0,1,0-27.48l4.33,2.49a22.38,22.38,0,0,0,0,22.49Zm-4.31,25,4.33,2.5a72.19,72.19,0,0,0,0,72.46l-4.33,2.5a77.19,77.19,0,0,1,0-77.46Zm4.3,175-4.32,2.5a27.36,27.36,0,0,1,0-27.48l4.33,2.49a22.41,22.41,0,0,0,0,22.49Zm0-50-4.32,2.5a27.36,27.36,0,0,1,0-27.48l4.33,2.49a22.41,22.41,0,0,0,0,22.49ZM23,435l-4.32,2.5a39.83,39.83,0,0,1,0-40L23,400a34.89,34.89,0,0,0,0,35Zm0,50-4.32,2.5a39.83,39.83,0,0,1,0-40L23,450a34.89,34.89,0,0,0,0,35Zm0,250-4.33,2.5a39.83,39.83,0,0,1,0-40L23,700a34.83,34.83,0,0,0,0,35Zm0-50-4.33,2.5a39.83,39.83,0,0,1,0-40L23,650a34.83,34.83,0,0,0,0,35Zm0-50-4.33,2.5a39.83,39.83,0,0,1,0-40L23,600a34.83,34.83,0,0,0,0,35Zm-4.33-47.5a89.82,89.82,0,0,1,0-90L23,500a84.65,84.65,0,0,0,0,85ZM33.83,728.75l-4.33,2.5a27.36,27.36,0,0,1,0-27.48l4.33,2.49a22.38,22.38,0,0,0,0,22.49Zm-3-61.24a22.34,22.34,0,0,0,3,11.24l-4.33,2.5a27.36,27.36,0,0,1,0-27.48l4.33,2.49A22.38,22.38,0,0,0,30.8,667.51Zm0-50a22.34,22.34,0,0,0,3,11.24l-4.33,2.5a27.36,27.36,0,0,1,0-27.48l4.33,2.49A22.38,22.38,0,0,0,30.8,617.51Zm-1.28-36.27a77.19,77.19,0,0,1,0-77.46l4.33,2.5a72.19,72.19,0,0,0,0,72.46ZM44.65,712.51a9.92,9.92,0,0,0,0,10L40.33,725a14.83,14.83,0,0,1,0-15Zm0-50a9.92,9.92,0,0,0,0,10L40.33,675a14.83,14.83,0,0,1,0-15Zm0-40L40.33,625a14.83,14.83,0,0,1,0-15l4.32,2.49a9.92,9.92,0,0,0,0,10ZM40.34,510l4.33,2.5a59.74,59.74,0,0,0,0,60L40.34,575a64.74,64.74,0,0,1,0-65Zm4.31-97.51a9.92,9.92,0,0,0,0,10L40.33,425a14.83,14.83,0,0,1,0-15ZM40.34,310l4.33,2.5a59.74,59.74,0,0,0,0,60L40.34,375a64.74,64.74,0,0,1,0-65ZM29.78,53.77l4.32,2.49a22.45,22.45,0,0,0,0,22.49l-4.32,2.5a27.36,27.36,0,0,1,0-27.48Zm-.28,50,4.33,2.49a22.38,22.38,0,0,0,0,22.49l-4.33,2.5a27.36,27.36,0,0,1,0-27.48Zm0,50,4.33,2.49a22.38,22.38,0,0,0,0,22.49l-4.33,2.5a27.36,27.36,0,0,1,0-27.48Zm0,50,4.33,2.49a22.41,22.41,0,0,0,0,22.49l-4.32,2.5a27.36,27.36,0,0,1,0-27.48ZM23.28,50a34.89,34.89,0,0,0,0,35L19,87.5a39.83,39.83,0,0,1,0-40Z"/><path class="cls-1" d="M0,758.29a102.16,102.16,0,0,1,7.16-15.78,52.28,52.28,0,0,1,0-50,52.24,52.24,0,0,1,0-50,52.28,52.28,0,0,1,0-50A102.7,102.7,0,0,1,0,576.72v10l1.36.78C.89,588.35.44,589.18,0,590v55c.44.84.89,1.68,1.36,2.5L0,648.28v38.46l1.36.78C.89,688.35.44,689.18,0,690v55c.44.84.89,1.68,1.36,2.5L0,748.28Z"/><path class="cls-1" d="M488.5,16.25l-2.19,1.26,2.19,1.26a47.29,47.29,0,0,0,0,47.48l-2.19,1.26,2.19,1.26a96.72,96.72,0,0,0-12.88,42.56l2,1.18a9.92,9.92,0,0,0,0,10l-2,1.18a96.76,96.76,0,0,0,12.88,42.57l-2.19,1.26,2.19,1.26a47.29,47.29,0,0,0,0,47.48l-2.19,1.26,2.19,1.26a96.72,96.72,0,0,0-12.88,42.56l2,1.18a9.92,9.92,0,0,0,0,10l-2,1.18a96.76,96.76,0,0,0,12.88,42.57l-2.19,1.26,2.19,1.26a47.29,47.29,0,0,0,0,47.48l-2.19,1.26,2.19,1.26a47.29,47.29,0,0,0,0,47.48l-2.19,1.26,2.19,1.26a96.72,96.72,0,0,0-12.88,42.56l2,1.18a9.92,9.92,0,0,0,0,10l-2,1.18a96.76,96.76,0,0,0,12.88,42.57l-2.19,1.26,2.19,1.26a47.29,47.29,0,0,0,0,47.48l-2.19,1.26,2.19,1.26a96.72,96.72,0,0,0-12.88,42.56l2,1.18a9.92,9.92,0,0,0,0,10l-2,1.18a96.76,96.76,0,0,0,12.88,42.57l-2.19,1.26,2.19,1.26a47.29,47.29,0,0,0,0,47.48l-2.19,1.26,2.19,1.26a47.29,47.29,0,0,0,0,47.48l-2.19,1.26,2.19,1.26a47.16,47.16,0,0,0-4.35,10.09H492a39.76,39.76,0,0,1,2.95-6.34l4.33,2.5a33.54,33.54,0,0,0-1.92,3.84h8.36l.05-.09.17.09H520.4a102.24,102.24,0,0,1,6.38-86.35,52.32,52.32,0,0,1,0-50,52.32,52.32,0,0,1,0-50,102.24,102.24,0,0,1,0-100,52.32,52.32,0,0,1,0-50,102.24,102.24,0,0,1,0-100,52.32,52.32,0,0,1,0-50,52.34,52.34,0,0,1,.69-51.24l.37.22a52.31,52.31,0,0,1,0-48l-.37.22a52.34,52.34,0,0,1-.69-51.24,52.32,52.32,0,0,1,0-50,52.32,52.32,0,0,1,0-50A101.89,101.89,0,0,1,514,0h-5.59a21.64,21.64,0,0,0,1.73,3.75l-4.33,2.5A27.26,27.26,0,0,1,503.16,0h-7.72a34.77,34.77,0,0,0,3.88,10L495,12.5A40,40,0,0,1,490.33,0h-7.6A47.36,47.36,0,0,0,488.5,16.25Zm-5.58,251.26a89.49,89.49,0,0,1,12.07-45l4.35,2.51a84.72,84.72,0,0,0,0,85L495,312.5A89.52,89.52,0,0,1,482.92,267.51ZM499.32,210,495,212.5a39.83,39.83,0,0,1,0-40l4.33,2.5a34.83,34.83,0,0,0,0,35Zm10.82-6.25-4.33,2.5a27.36,27.36,0,0,1,0-27.48l4.33,2.49a22.38,22.38,0,0,0,0,22.49Zm-4.31,25,4.33,2.5a72.25,72.25,0,0,0,0,72.46l-4.33,2.5a77.25,77.25,0,0,1,0-77.46Zm4.31,325-4.33,2.5a27.36,27.36,0,0,1,0-27.48l4.33,2.49a22.38,22.38,0,0,0,0,22.49Zm-4.31-47.51a77.25,77.25,0,0,1,0-77.46l4.33,2.5a72.25,72.25,0,0,0,0,72.46Zm4.31-152.49-4.33,2.5a27.36,27.36,0,0,1,0-27.48l4.33,2.49a22.38,22.38,0,0,0,0,22.49Zm-4.33,25,4.33,2.49a22.38,22.38,0,0,0,0,22.49l-4.33,2.5a27.36,27.36,0,0,1,0-27.48ZM499.32,360,495,362.5a39.83,39.83,0,0,1,0-40l4.33,2.5a34.83,34.83,0,0,0,0,35Zm0,50L495,412.5a39.83,39.83,0,0,1,0-40l4.33,2.5a34.83,34.83,0,0,0,0,35Zm-16.4,57.51a89.49,89.49,0,0,1,12.07-45l4.35,2.51a84.72,84.72,0,0,0,0,85L495,512.5A89.52,89.52,0,0,1,482.92,467.51ZM499.32,560,495,562.5a39.83,39.83,0,0,1,0-40l4.33,2.5a34.83,34.83,0,0,0,0,35Zm0,200L495,762.5a39.83,39.83,0,0,1,0-40l4.33,2.5a34.83,34.83,0,0,0,0,35Zm0-50L495,712.5a39.83,39.83,0,0,1,0-40l4.33,2.5a34.83,34.83,0,0,0,0,35ZM495,662.5a89.88,89.88,0,0,1,0-90l4.35,2.51a84.72,84.72,0,0,0,0,85Zm15.15,91.25-4.33,2.5a27.36,27.36,0,0,1,0-27.48l4.33,2.49a22.38,22.38,0,0,0,0,22.49Zm-3-61.24a22.34,22.34,0,0,0,3,11.24l-4.33,2.5a27.36,27.36,0,0,1,0-27.48l4.33,2.49A22.35,22.35,0,0,0,507.11,692.51Zm-1.28-36.27a77.25,77.25,0,0,1,0-77.46l4.33,2.5a72.25,72.25,0,0,0,0,72.46ZM521,687.51a9.92,9.92,0,0,0,0,10l-4.32,2.5a14.83,14.83,0,0,1,0-15ZM516.65,585l4.33,2.5a59.81,59.81,0,0,0,0,60l-4.33,2.5a64.8,64.8,0,0,1,0-65Zm0-150,4.33,2.5a59.81,59.81,0,0,0,0,60l-4.33,2.5a64.8,64.8,0,0,1,0-65ZM521,337.51a9.92,9.92,0,0,0,0,10l-4.32,2.5a14.83,14.83,0,0,1,0-15Zm-8-70a59.56,59.56,0,0,0,8.06,30l-4.33,2.5a64.8,64.8,0,0,1,0-65l4.33,2.5A59.6,59.6,0,0,0,512.92,267.51Zm8-80a9.92,9.92,0,0,0,0,10l-4.32,2.5a14.83,14.83,0,0,1,0-15Zm0-100a59.81,59.81,0,0,0,0,60l-4.33,2.5a64.8,64.8,0,0,1,0-65ZM516.64,35,521,37.51a9.92,9.92,0,0,0,0,10L516.64,50a14.83,14.83,0,0,1,0-15Zm-16.22,82.49a72.07,72.07,0,0,0,9.74,36.23l-4.33,2.5a77.25,77.25,0,0,1,0-77.46l4.33,2.5A72,72,0,0,0,500.42,117.51Zm5.39-88.74,4.33,2.49a22.38,22.38,0,0,0,0,22.49l-4.33,2.5a27.36,27.36,0,0,1,0-27.48Zm-17.89,88.74A84.45,84.45,0,0,0,499.34,160L495,162.5a89.88,89.88,0,0,1,0-90L499.34,75A84.45,84.45,0,0,0,487.92,117.51Zm7.07-95,4.33,2.5a34.83,34.83,0,0,0,0,35L495,62.5a39.83,39.83,0,0,1,0-40Z"/><path class="cls-1" d="M.8,467.51a52.13,52.13,0,0,1,6.37-25,52.28,52.28,0,0,1,0-50A102.7,102.7,0,0,1,0,376.72v10l1.36.78C.89,388.34.44,389.18,0,390v55c.44.84.89,1.68,1.36,2.5L0,448.28v60a102.16,102.16,0,0,1,7.16-15.78A52.23,52.23,0,0,1,.8,467.51Z"/><path class="cls-1" d="M483.48,717.51a52.24,52.24,0,0,1,0-50,102.24,102.24,0,0,1,0-100,52.24,52.24,0,0,1,0-50,102.24,102.24,0,0,1,0-100,52.24,52.24,0,0,1,0-50,52.24,52.24,0,0,1,0-50,102.24,102.24,0,0,1,0-100,52.24,52.24,0,0,1,0-50,102.24,102.24,0,0,1,0-100,52.24,52.24,0,0,1,0-50A52.11,52.11,0,0,1,477.67,0H456L456,0a84.65,84.65,0,0,0,0,85l-4.35,2.51A89.84,89.84,0,0,1,450.3,0h-8.41a96.93,96.93,0,0,0-9.58,36.33l2.05,1.18a9.92,9.92,0,0,0,0,10l-2.05,1.18A96.77,96.77,0,0,0,445.2,91.25L443,92.51l2.19,1.26a47.29,47.29,0,0,0,0,47.48L443,142.51l2.19,1.26a96.73,96.73,0,0,0-12.89,42.56l2.05,1.18a9.92,9.92,0,0,0,0,10l-2.05,1.18a96.77,96.77,0,0,0,12.89,42.57L443,242.51l2.19,1.26a47.29,47.29,0,0,0,0,47.48L443,292.51l2.19,1.26a96.73,96.73,0,0,0-12.89,42.56l2.05,1.18a9.92,9.92,0,0,0,0,10l-2.05,1.18a96.77,96.77,0,0,0,12.89,42.57L443,392.51l2.19,1.26a47.29,47.29,0,0,0,0,47.48L443,442.51l2.19,1.26a47.29,47.29,0,0,0,0,47.48L443,492.51l2.19,1.26a47.29,47.29,0,0,0,0,47.48L443,542.51l2.19,1.26a47.29,47.29,0,0,0,0,47.48L443,592.51l2.19,1.26a47.29,47.29,0,0,0,0,47.48L443,642.51l2.19,1.26a96.73,96.73,0,0,0-12.89,42.56l2.05,1.18a9.92,9.92,0,0,0,0,10l-2.05,1.18a96.77,96.77,0,0,0,12.89,42.57L443,742.51l2.19,1.26a96.73,96.73,0,0,0-12.12,35.09h7.58a89.37,89.37,0,0,1,11-31.34L456,750a84.68,84.68,0,0,0-10.32,28.83h7.61a77,77,0,0,1,9.2-25.08l4.33,2.5a71.94,71.94,0,0,0-8.44,22.58h7.65A64.81,64.81,0,0,1,473.35,760l4.33,2.5a59.74,59.74,0,0,0-6.49,16.34h7.75a52.16,52.16,0,0,1,4.54-11.35,52.24,52.24,0,0,1,0-50ZM473.34,510l4.32,2.49a9.92,9.92,0,0,0,0,10l-4.32,2.5a14.83,14.83,0,0,1,0-15Zm0,50,4.32,2.49a9.92,9.92,0,0,0,0,10l-4.32,2.5a14.83,14.83,0,0,1,0-15Zm4.32-147.51a9.92,9.92,0,0,0,0,10l-4.32,2.5a14.83,14.83,0,0,1,0-15ZM473.35,310l4.33,2.5a59.74,59.74,0,0,0,0,60l-4.33,2.5a64.74,64.74,0,0,1,0-65Zm-6.51,318.73-4.33,2.5a27.36,27.36,0,0,1,0-27.48l4.33,2.49a22.38,22.38,0,0,0,0,22.49Zm0-50-4.33,2.5a27.36,27.36,0,0,1,0-27.48l4.33,2.49a22.38,22.38,0,0,0,0,22.49Zm0-50-4.33,2.5a27.36,27.36,0,0,1,0-27.48l4.33,2.49a22.38,22.38,0,0,0,0,22.49Zm0-50-4.33,2.5a27.36,27.36,0,0,1,0-27.48l4.33,2.49a22.38,22.38,0,0,0,0,22.49Zm0-50-4.33,2.5a27.36,27.36,0,0,1,0-27.48l4.33,2.49a22.38,22.38,0,0,0,0,22.49Zm-4.31-47.51a77.19,77.19,0,0,1,0-77.46l4.33,2.5a72.19,72.19,0,0,0,0,72.46Zm4.31-102.49-4.33,2.5a27.36,27.36,0,0,1,0-27.48l4.33,2.49a22.38,22.38,0,0,0,0,22.49ZM473.35,160l4.33,2.5a59.74,59.74,0,0,0,0,60l-4.33,2.5a64.74,64.74,0,0,1,0-65Zm4.33-147.5a59.74,59.74,0,0,0,0,60L473.35,75a64.74,64.74,0,0,1,0-65Zm-25.57,30A77,77,0,0,1,462.53,3.78l4.33,2.5a72.19,72.19,0,0,0,0,72.46l-4.33,2.5A77,77,0,0,1,452.11,42.51Zm14.73,86.24-4.33,2.5a27.36,27.36,0,0,1,0-27.48l4.33,2.49a22.38,22.38,0,0,0,0,22.49Zm-4.31,25,4.33,2.5a72.19,72.19,0,0,0,0,72.46l-4.33,2.5a77.19,77.19,0,0,1,0-77.46ZM451.69,97.52,456,100a34.83,34.83,0,0,0,0,35l-4.33,2.5a39.83,39.83,0,0,1,0-40Zm-12.08,95a89.39,89.39,0,0,1,12.08-45L456,150a84.65,84.65,0,0,0,0,85l-4.35,2.51A89.42,89.42,0,0,1,439.61,192.51ZM456,285l-4.33,2.5a39.83,39.83,0,0,1,0-40L456,250a34.83,34.83,0,0,0,0,35Zm-16.41,57.51a89.39,89.39,0,0,1,12.08-45L456,300a84.65,84.65,0,0,0,0,85l-4.35,2.51A89.42,89.42,0,0,1,439.61,342.51ZM456,435l-4.33,2.5a39.83,39.83,0,0,1,0-40L456,400a34.83,34.83,0,0,0,0,35Zm0,50-4.33,2.5a39.83,39.83,0,0,1,0-40L456,450a34.83,34.83,0,0,0,0,35Zm0,50-4.33,2.5a39.83,39.83,0,0,1,0-40L456,500a34.83,34.83,0,0,0,0,35Zm0,50-4.33,2.5a39.83,39.83,0,0,1,0-40L456,550a34.83,34.83,0,0,0,0,35Zm0,50-4.33,2.5a39.83,39.83,0,0,1,0-40L456,600a34.83,34.83,0,0,0,0,35Zm-4.33,102.5a89.82,89.82,0,0,1,0-90L456,650a84.65,84.65,0,0,0,0,85Zm10.84-6.26a77.19,77.19,0,0,1,0-77.46l4.33,2.5a72.19,72.19,0,0,0,0,72.46ZM473.35,725a64.74,64.74,0,0,1,0-65l4.33,2.5a59.74,59.74,0,0,0,0,60Z"/><path class="cls-1" d="M802.45,0a84.65,84.65,0,0,0,0,85L798.1,87.5A89.84,89.84,0,0,1,796.71,0H788.3a96.93,96.93,0,0,0-9.58,36.33l2,1.18a9.92,9.92,0,0,0,0,10l-2,1.18a96.77,96.77,0,0,0,12.89,42.57l-2.19,1.26,2.19,1.26a47.29,47.29,0,0,0,0,47.48l-2.19,1.26,2.19,1.26a47.29,47.29,0,0,0,0,47.48l-2.19,1.26,2.19,1.26a96.73,96.73,0,0,0-12.89,42.56l2,1.18a9.92,9.92,0,0,0,0,10l-2,1.18a96.77,96.77,0,0,0,12.89,42.57l-2.19,1.26,2.19,1.26a47.29,47.29,0,0,0,0,47.48l-2.19,1.26,2.19,1.26a47.29,47.29,0,0,0,0,47.48l-2.19,1.26,2.19,1.26a96.73,96.73,0,0,0-12.89,42.56l2,1.18a9.92,9.92,0,0,0,0,10l-2,1.18a96.77,96.77,0,0,0,12.89,42.57l-2.19,1.26,2.19,1.26a96.73,96.73,0,0,0-12.89,42.56l2,1.18a9.92,9.92,0,0,0,0,10l-2,1.18a96.77,96.77,0,0,0,12.89,42.57l-2.19,1.26,2.19,1.26a47.29,47.29,0,0,0,0,47.48l-2.19,1.26,2.19,1.26a96.73,96.73,0,0,0-12.89,42.56l2,1.18a9.92,9.92,0,0,0,0,10l-2,1.18a96.77,96.77,0,0,0,12.89,42.57l-2.19,1.26,2.19,1.26a47,47,0,0,0-5,35.09h7.76a39.68,39.68,0,0,1,3.71-31.34l4.33,2.5a34.84,34.84,0,0,0-2.81,28.84h8.08a27.32,27.32,0,0,1,1.22-25.1l4.33,2.5a22.38,22.38,0,0,0,0,22.49l-.19.11h11.35a102.26,102.26,0,0,1,5.48-11.35,52.24,52.24,0,0,1,0-50,52.24,52.24,0,0,1,0-50,102.24,102.24,0,0,1,0-100,52.24,52.24,0,0,1,0-50,52.24,52.24,0,0,1,0-50,52.24,52.24,0,0,1,0-50,102.24,102.24,0,0,1,0-100,52.24,52.24,0,0,1,0-50,52.24,52.24,0,0,1,0-50,52.24,52.24,0,0,1,0-50,52.24,52.24,0,0,1,0-50,52.24,52.24,0,0,1,0-50,52.24,52.24,0,0,1,0-50A52.11,52.11,0,0,1,824.08,0H802.4Zm10.8,128.72-4.33,2.5h0a27.38,27.38,0,0,1,0-27.49h0l4.33,2.5a22.38,22.38,0,0,0,0,22.49Zm-4.33,25,4.33,2.5a22.38,22.38,0,0,0,0,22.49l-4.33,2.5a27.38,27.38,0,0,1,0-27.49Zm0,50,4.33,2.5a72.19,72.19,0,0,0,0,72.46l-4.33,2.5a77.19,77.19,0,0,1,0-77.46Zm4.31,425-4.33,2.5a27.38,27.38,0,0,1,0-27.49l4.33,2.5a22.38,22.38,0,0,0,0,22.49Zm-4.31-47.51a77.19,77.19,0,0,1,0-77.46l4.33,2.5a72.19,72.19,0,0,0,0,72.46Zm0-100a77.19,77.19,0,0,1,0-77.46l4.33,2.5a72.19,72.19,0,0,0,0,72.46Zm4.31-152.49-4.33,2.5a27.38,27.38,0,0,1,0-27.49l4.33,2.5a22.38,22.38,0,0,0,0,22.49Zm-4.33,25,4.33,2.5a22.38,22.38,0,0,0,0,22.49l-4.33,2.5a27.38,27.38,0,0,1,0-27.49ZM798.1,97.52h0l4.33,2.5a34.83,34.83,0,0,0,0,35l-4.33,2.5h0a39.83,39.83,0,0,1,0-40Zm0,50,4.33,2.5a34.83,34.83,0,0,0,0,35l-4.33,2.5a39.83,39.83,0,0,1,0-40Zm-12.08,95a89.39,89.39,0,0,1,12.08-45l4.35,2.51a84.65,84.65,0,0,0,0,85l-4.35,2.51A89.42,89.42,0,0,1,786,242.51ZM802.43,335l-4.33,2.5a39.83,39.83,0,0,1,0-40l4.33,2.5a34.83,34.83,0,0,0,0,35Zm0,50-4.33,2.5a39.83,39.83,0,0,1,0-40l4.33,2.5a34.83,34.83,0,0,0,0,35ZM786,442.51a89.39,89.39,0,0,1,12.08-45l4.35,2.51a84.65,84.65,0,0,0,0,85l-4.35,2.51A89.42,89.42,0,0,1,786,442.51Zm0,100a89.39,89.39,0,0,1,12.08-45l4.35,2.51a84.65,84.65,0,0,0,0,85l-4.35,2.51A89.42,89.42,0,0,1,786,542.51ZM802.43,635l-4.33,2.5a39.83,39.83,0,0,1,0-40l4.33,2.5a34.83,34.83,0,0,0,0,35ZM798.1,737.5a89.82,89.82,0,0,1,0-90l4.35,2.51a84.65,84.65,0,0,0,0,85Zm10.84-6.26a77.19,77.19,0,0,1,0-77.46l4.33,2.5a72.19,72.19,0,0,0,0,72.46Zm15.13,31.27a9.92,9.92,0,0,0,0,10l-4.32,2.5a14.83,14.83,0,0,1,0-15ZM819.76,660l4.33,2.5a59.74,59.74,0,0,0,0,60l-4.33,2.5a64.74,64.74,0,0,1,0-65Zm4.33-147.5a59.74,59.74,0,0,0,0,60l-4.33,2.5a64.74,64.74,0,0,1,0-65ZM819.76,410l4.33,2.5a59.74,59.74,0,0,0,0,60l-4.33,2.5a64.74,64.74,0,0,1,0-65Zm4.31-97.51a9.92,9.92,0,0,0,0,10l-4.32,2.5a14.83,14.83,0,0,1,0-15Zm0-100a59.74,59.74,0,0,0,0,60l-4.33,2.5a64.74,64.74,0,0,1,0-65Zm0-50a9.92,9.92,0,0,0,0,10l-4.32,2.5a14.83,14.83,0,0,1,0-15Zm0-50a9.92,9.92,0,0,0,0,10l-4.32,2.5h0a14.83,14.83,0,0,1,0-15h0Zm0-100a59.74,59.74,0,0,0,0,60L819.76,75a64.74,64.74,0,0,1,0-65ZM813.27,6.28a72.19,72.19,0,0,0,0,72.46l-4.33,2.5a77.19,77.19,0,0,1,0-77.46Z"/><path class="cls-1" d="M613.38,742.51a102.24,102.24,0,0,1,0-100,102.24,102.24,0,0,1,0-100,52.32,52.32,0,0,1,0-50,102.24,102.24,0,0,1,0-100,102.24,102.24,0,0,1,0-100,52.32,52.32,0,0,1,0-50,52.32,52.32,0,0,1,0-50,102.24,102.24,0,0,1,0-100,52.32,52.32,0,0,1,0-50A52.17,52.17,0,0,1,610.06,0H595a22.41,22.41,0,0,0,1.73,3.75l-4.33,2.5A27.68,27.68,0,0,1,589.77,0H582a35.06,35.06,0,0,0,3.88,10l-4.33,2.5A39.77,39.77,0,0,1,576.94,0h-7.61a47.57,47.57,0,0,0,5.77,16.25l-2.18,1.26,2.18,1.26a96.85,96.85,0,0,0-12.88,42.56l2,1.18a9.92,9.92,0,0,0,0,10l-2,1.18a96.89,96.89,0,0,0,12.88,42.57l-2.18,1.26,2.18,1.26a47.36,47.36,0,0,0,0,47.48l-2.18,1.26,2.18,1.26a96.86,96.86,0,0,0-12.82,41.67l3.59,2.07a9.92,9.92,0,0,0,0,10l-3.59,2.07a96.9,96.9,0,0,0,12.82,41.68l-2.18,1.26,2.18,1.26a47.36,47.36,0,0,0,0,47.48l-2.18,1.26,2.18,1.26a47.36,47.36,0,0,0,0,47.48l-2.18,1.26,2.18,1.26a47.36,47.36,0,0,0,0,47.48l-2.18,1.26,2.18,1.26a47.36,47.36,0,0,0,0,47.48l-2.18,1.26,2.18,1.26a47.36,47.36,0,0,0,0,47.48l-2.18,1.26,2.18,1.26a47.36,47.36,0,0,0,0,47.48l-2.18,1.26,2.18,1.26a47.36,47.36,0,0,0,0,47.48l-2.18,1.26,2.18,1.26a47.36,47.36,0,0,0,0,47.48l-2.18,1.26,2.18,1.26a47.36,47.36,0,0,0,0,47.48l-2.18,1.26,2.18,1.26a47.36,47.36,0,0,0,0,47.48l-2.18,1.26,2.18,1.26A99.22,99.22,0,0,0,570,778.86h8.25c1-2.16,2.14-4.28,3.33-6.34l4.35,2.51c-.73,1.26-1.41,2.54-2.08,3.83h8.53l0-.08.15.08h15.71a52,52,0,0,1,5.09-36.35ZM603.24,635l4.33,2.49a9.92,9.92,0,0,0,0,10l-4.33,2.5a14.9,14.9,0,0,1,0-15Zm4.33-97.51a9.92,9.92,0,0,0,0,10l-4.33,2.5a14.9,14.9,0,0,1,0-15ZM603.24,485l4.33,2.49a9.92,9.92,0,0,0,0,10l-4.33,2.5a14.9,14.9,0,0,1,0-15Zm0-100,4.33,2.49a9.92,9.92,0,0,0,0,10l-4.33,2.5a14.9,14.9,0,0,1,0-15Zm4.33-97.51a9.92,9.92,0,0,0,0,10l-4.33,2.5a14.9,14.9,0,0,1,0-15ZM603.25,185l4.33,2.5a59.81,59.81,0,0,0,0,60l-4.33,2.5a64.8,64.8,0,0,1,0-65Zm4.33-147.5a59.81,59.81,0,0,0,0,60l-4.33,2.5a64.8,64.8,0,0,1,0-65Zm-15.15-8.74,4.33,2.5a72.25,72.25,0,0,0,0,72.46l-4.33,2.5a77.25,77.25,0,0,1,0-77.46Zm4.31,125-4.33,2.5a27.44,27.44,0,0,1,0-27.49l4.33,2.5a22.45,22.45,0,0,0,0,22.49ZM569.52,67.51a89.49,89.49,0,0,1,12.07-45L585.94,25a84.72,84.72,0,0,0,0,85l-4.35,2.51A89.52,89.52,0,0,1,569.52,67.51ZM585.92,160l-4.33,2.5a39.89,39.89,0,0,1,0-40l4.33,2.5a34.89,34.89,0,0,0,0,35Zm0,600-4.33,2.5a39.89,39.89,0,0,1,0-40l4.33,2.5a34.89,34.89,0,0,0,0,35Zm0-50-4.33,2.5a39.89,39.89,0,0,1,0-40l4.33,2.5a34.89,34.89,0,0,0,0,35Zm0-50-4.33,2.5a39.89,39.89,0,0,1,0-40l4.33,2.5a34.89,34.89,0,0,0,0,35Zm0-50-4.33,2.5a39.89,39.89,0,0,1,0-40l4.33,2.5a34.89,34.89,0,0,0,0,35Zm0-300-4.33,2.5a39.89,39.89,0,0,1,0-40l4.33,2.5a34.89,34.89,0,0,0,0,35Zm-4.33,12.52,4.33,2.5a34.89,34.89,0,0,0,0,35l-4.33,2.5a39.89,39.89,0,0,1,0-40Zm0,50,4.33,2.5a34.89,34.89,0,0,0,0,35l-4.33,2.5a39.89,39.89,0,0,1,0-40Zm0,50,4.33,2.5a34.89,34.89,0,0,0,0,35l-4.33,2.5a39.89,39.89,0,0,1,0-40Zm0,50,4.33,2.5a34.89,34.89,0,0,0,0,35l-4.33,2.5a39.89,39.89,0,0,1,0-40ZM585.92,560l-4.33,2.5a39.89,39.89,0,0,1,0-40l4.33,2.5a34.89,34.89,0,0,0,0,35Zm-4.33-297.5a89.88,89.88,0,0,1,0-90l4.35,2.51a84.72,84.72,0,0,0,0,85Zm15.15,491.25-4.33,2.5a27.44,27.44,0,0,1,0-27.49l4.33,2.5a22.45,22.45,0,0,0,0,22.49Zm-3-61.24a22.33,22.33,0,0,0,3,11.24l-4.33,2.5a27.44,27.44,0,0,1,0-27.49l4.33,2.5A22.34,22.34,0,0,0,593.72,692.51Zm0-50a22.33,22.33,0,0,0,3,11.24l-4.33,2.5a27.44,27.44,0,0,1,0-27.49l4.33,2.5A22.34,22.34,0,0,0,593.72,642.51Zm0-50a22.33,22.33,0,0,0,3,11.24l-4.33,2.5a27.44,27.44,0,0,1,0-27.49l4.33,2.5A22.34,22.34,0,0,0,593.72,592.51Zm3-288.76-4.33,2.5a27.44,27.44,0,0,1,0-27.49l4.33,2.5a22.45,22.45,0,0,0,0,22.49Zm-4.33,25,4.33,2.5a22.45,22.45,0,0,0,0,22.49l-4.33,2.5a27.44,27.44,0,0,1,0-27.49Zm0,50,4.33,2.5a22.45,22.45,0,0,0,0,22.49l-4.33,2.5a27.44,27.44,0,0,1,0-27.49Zm0,50,4.33,2.5a22.45,22.45,0,0,0,0,22.49l-4.33,2.5a27.44,27.44,0,0,1,0-27.49Zm0,50,4.33,2.5a22.45,22.45,0,0,0,0,22.49l-4.33,2.5a27.44,27.44,0,0,1,0-27.49Zm1.31,63.75a22.33,22.33,0,0,0,3,11.24l-4.33,2.5a27.44,27.44,0,0,1,0-27.49l4.33,2.5A22.34,22.34,0,0,0,593.72,542.51Zm-1.29-286.27a77.25,77.25,0,0,1,0-77.46l4.33,2.5a72.25,72.25,0,0,0,0,72.46Zm8.79,486.27a14.85,14.85,0,0,1,2-7.49l4.33,2.49a9.92,9.92,0,0,0,0,10l-4.33,2.5A14.88,14.88,0,0,1,601.22,742.51Z"/><path class="cls-1" d="M959.79,742.51a102.24,102.24,0,0,1,0-100,52.32,52.32,0,0,1,0-50,52.32,52.32,0,0,1,0-50,52.32,52.32,0,0,1,0-50,52.32,52.32,0,0,1,0-50,52.32,52.32,0,0,1,0-50,102.24,102.24,0,0,1,0-100,52.32,52.32,0,0,1,0-50,52.34,52.34,0,0,1,.69-51.24l.38.22a52.23,52.23,0,0,1,0-48l-.38.22a52.34,52.34,0,0,1-.69-51.24,52.32,52.32,0,0,1,0-50A52.17,52.17,0,0,1,956.47,0H941.42a22.41,22.41,0,0,0,1.73,3.75l-4.33,2.5A27.23,27.23,0,0,1,936.18,0h-7.73a35.06,35.06,0,0,0,3.88,10L928,12.5A39.77,39.77,0,0,1,923.35,0h-7.61a47.57,47.57,0,0,0,5.77,16.25l-2.18,1.26,2.18,1.26a47.36,47.36,0,0,0,0,47.48l-2.18,1.26,2.18,1.26a47.36,47.36,0,0,0,0,47.48l-2.18,1.26,2.18,1.26a47.36,47.36,0,0,0,0,47.48l-2.18,1.26,2.18,1.26a96.85,96.85,0,0,0-12.88,42.56l2,1.18a9.92,9.92,0,0,0,0,10l-2,1.18a96.89,96.89,0,0,0,12.88,42.57l-2.18,1.26,2.18,1.26a47.36,47.36,0,0,0,0,47.48l-2.18,1.26,2.18,1.26a47.36,47.36,0,0,0,0,47.48l-2.18,1.26,2.18,1.26a96.85,96.85,0,0,0-12.88,42.56l2,1.18a9.92,9.92,0,0,0,0,10l-2,1.18a96.89,96.89,0,0,0,12.88,42.57l-2.18,1.26,2.18,1.26a47.36,47.36,0,0,0,0,47.48l-2.18,1.26,2.18,1.26a96.81,96.81,0,0,0-12.87,42.41l2.31,1.33a9.92,9.92,0,0,0,0,10l-2.31,1.34a96.81,96.81,0,0,0,12.87,42.41l-2.18,1.26,2.18,1.26a47.36,47.36,0,0,0,0,47.48l-2.18,1.26,2.18,1.26a47.36,47.36,0,0,0,0,47.48l-2.18,1.26,2.18,1.26a47.36,47.36,0,0,0,0,47.48l-2.18,1.26,2.18,1.26a47.16,47.16,0,0,0-4.35,10.09h7.89a40.65,40.65,0,0,1,3-6.34l4.33,2.5a35.26,35.26,0,0,0-1.92,3.84h8.36l.05-.1.17.1h8.65A101.83,101.83,0,0,1,959.79,742.51Zm-5.81-105a9.92,9.92,0,0,0,0,10l-4.33,2.5a14.9,14.9,0,0,1,0-15Zm0-100a59.81,59.81,0,0,0,0,60l-4.33,2.5a64.8,64.8,0,0,1,0-65Zm-10.84-33.77-4.33,2.5a27.44,27.44,0,0,1,0-27.49l4.33,2.5a22.45,22.45,0,0,0,0,22.49Zm-4.31-47.51a77.25,77.25,0,0,1,0-77.46l4.33,2.5a72.25,72.25,0,0,0,0,72.46Zm4.31-152.49-4.33,2.5a27.44,27.44,0,0,1,0-27.49l4.33,2.5a22.45,22.45,0,0,0,0,22.49Zm-4.33,25,4.33,2.5a22.45,22.45,0,0,0,0,22.49l-4.33,2.5a27.44,27.44,0,0,1,0-27.49ZM954,487.51a9.92,9.92,0,0,0,0,10l-4.33,2.5a14.9,14.9,0,0,1,0-15ZM949.66,385l4.33,2.5a59.81,59.81,0,0,0,0,60l-4.33,2.5a64.8,64.8,0,0,1,0-65ZM954,287.51a9.92,9.92,0,0,0,0,10l-4.33,2.5a14.9,14.9,0,0,1,0-15Zm-8.05-70a59.66,59.66,0,0,0,8.06,30l-4.33,2.5a64.8,64.8,0,0,1,0-65l4.33,2.5A59.7,59.7,0,0,0,945.93,217.51ZM949.65,35,954,37.51a9.92,9.92,0,0,0,0,10L949.65,50a14.9,14.9,0,0,1,0-15Zm0,50L954,87.51a9.92,9.92,0,0,0,0,10l-4.33,2.5a14.9,14.9,0,0,1,0-15Zm0,50,4.33,2.49a9.92,9.92,0,0,0,0,10l-4.33,2.5a14.9,14.9,0,0,1,0-15Zm-16.22,82.49a72.07,72.07,0,0,0,9.74,36.23l-4.33,2.5a77.25,77.25,0,0,1,0-77.46l4.33,2.5A72,72,0,0,0,933.43,217.51Zm5.39-188.75,4.33,2.5a22.45,22.45,0,0,0,0,22.49l-4.33,2.5a27.44,27.44,0,0,1,0-27.49Zm0,50,4.33,2.5a22.45,22.45,0,0,0,0,22.49l-4.33,2.5a27.44,27.44,0,0,1,0-27.49Zm0,50,4.33,2.5a22.45,22.45,0,0,0,0,22.49l-4.33,2.5a27.44,27.44,0,0,1,0-27.49ZM928,22.52l4.33,2.5a34.89,34.89,0,0,0,0,35L928,62.5a39.89,39.89,0,0,1,0-40Zm0,50,4.33,2.5a34.89,34.89,0,0,0,0,35L928,112.5a39.89,39.89,0,0,1,0-40Zm0,50,4.33,2.5a34.89,34.89,0,0,0,0,35L928,162.5a39.89,39.89,0,0,1,0-40Zm-12.07,95a89.49,89.49,0,0,1,12.07-45l4.35,2.51a84.72,84.72,0,0,0,0,85L928,262.5A89.52,89.52,0,0,1,915.93,217.51ZM932.33,310,928,312.5a39.89,39.89,0,0,1,0-40l4.33,2.5a34.89,34.89,0,0,0,0,35Zm0,50L928,362.5a39.89,39.89,0,0,1,0-40l4.33,2.5a34.89,34.89,0,0,0,0,35Zm-16.4,57.51a89.49,89.49,0,0,1,12.07-45l4.35,2.51a84.72,84.72,0,0,0,0,85L928,462.5A89.52,89.52,0,0,1,915.93,417.51ZM932.33,510,928,512.5a39.89,39.89,0,0,1,0-40l4.33,2.5a34.89,34.89,0,0,0,0,35Zm0,250L928,762.5a39.89,39.89,0,0,1,0-40l4.33,2.5a34.89,34.89,0,0,0,0,35Zm0-50L928,712.5a39.89,39.89,0,0,1,0-40l4.33,2.5a34.89,34.89,0,0,0,0,35Zm0-50L928,662.5a39.89,39.89,0,0,1,0-40l4.33,2.5a34.89,34.89,0,0,0,0,35ZM928,612.5a89.88,89.88,0,0,1,0-90l4.35,2.51a84.72,84.72,0,0,0,0,85Zm15.15,141.25-4.33,2.5a27.44,27.44,0,0,1,0-27.49l4.33,2.5a22.45,22.45,0,0,0,0,22.49Zm-3-61.24a22.33,22.33,0,0,0,3,11.24l-4.33,2.5a27.44,27.44,0,0,1,0-27.49l4.33,2.5A22.34,22.34,0,0,0,940.13,692.51Zm0-50a22.33,22.33,0,0,0,3,11.24l-4.33,2.5a27.44,27.44,0,0,1,0-27.49l4.33,2.5A22.34,22.34,0,0,0,940.13,642.51Zm-1.29-36.27a77.25,77.25,0,0,1,0-77.46l4.33,2.5a72.25,72.25,0,0,0,0,72.46ZM949.65,735l4.33,2.49a9.92,9.92,0,0,0,0,10l-4.33,2.5a14.9,14.9,0,0,1,0-15Z"/><path class="cls-1" d="M643.62,767.51a101.92,101.92,0,0,1,13.06-50,52.32,52.32,0,0,1,0-50,52.32,52.32,0,0,1,0-50,52.32,52.32,0,0,1,0-50,102.24,102.24,0,0,1,0-100,52.32,52.32,0,0,1,0-50,52.32,52.32,0,0,1,0-50,52.32,52.32,0,0,1,0-50,52.32,52.32,0,0,1,0-50,52.32,52.32,0,0,1,0-50,52.32,52.32,0,0,1,0-50,52.32,52.32,0,0,1,0-50,102.24,102.24,0,0,1,0-100A52.17,52.17,0,0,1,650.88,0H629.19l0,0a34.89,34.89,0,0,0,0,35l-4.33,2.5A39.84,39.84,0,0,1,623.58,0h-8.19a47.28,47.28,0,0,0,3,41.25l-2.18,1.26,2.18,1.26a47.36,47.36,0,0,0,0,47.48l-2.18,1.26,2.18,1.26a96.85,96.85,0,0,0-12.88,42.56l2.05,1.18a9.92,9.92,0,0,0,0,10l-2.05,1.18a96.89,96.89,0,0,0,12.88,42.57l-2.18,1.26,2.18,1.26a47.36,47.36,0,0,0,0,47.48l-2.18,1.26,2.18,1.26a47.36,47.36,0,0,0,0,47.48l-2.18,1.26,2.18,1.26a96.85,96.85,0,0,0-12.88,42.56l2.05,1.18a9.92,9.92,0,0,0,0,10l-2.05,1.18a96.89,96.89,0,0,0,12.88,42.57l-2.18,1.26,2.18,1.26a96.85,96.85,0,0,0-12.88,42.56l2.05,1.18a9.92,9.92,0,0,0,0,10l-2.05,1.18a96.89,96.89,0,0,0,12.88,42.57l-2.18,1.26,2.18,1.26a47.36,47.36,0,0,0,0,47.48l-2.18,1.26,2.18,1.26a96.85,96.85,0,0,0-12.88,42.56l2.05,1.18a9.92,9.92,0,0,0,0,10l-2.05,1.18a96.89,96.89,0,0,0,12.88,42.57l-2.18,1.26,2.18,1.26a96.85,96.85,0,0,0-12.88,42.56l2.05,1.18a9.92,9.92,0,0,0,0,10l-2.05,1.18a96.89,96.89,0,0,0,12.88,42.57l-2.18,1.26,2.18,1.26a47.15,47.15,0,0,0-5,35.09h7.77a39.72,39.72,0,0,1,3.7-31.34l4.33,2.5a34.88,34.88,0,0,0-2.8,28.84h8.08a27.35,27.35,0,0,1,1.21-25.1l4.33,2.5a22.45,22.45,0,0,0,0,22.49l-.19.11h4.41A103.74,103.74,0,0,1,643.62,767.51ZM646.54,10l4.33,2.49a9.92,9.92,0,0,0,0,10L646.54,25a14.9,14.9,0,0,1,0-15Zm4.34,652.5a59.81,59.81,0,0,0,0,60l-4.32,2.5a64.74,64.74,0,0,1,0-65ZM640,228.75l-4.33,2.5a27.44,27.44,0,0,1,0-27.49l4.33,2.5a22.45,22.45,0,0,0,0,22.49Zm-4.33,25,4.33,2.5a22.45,22.45,0,0,0,0,22.49l-4.33,2.5a27.44,27.44,0,0,1,0-27.49Zm0,50,4.32,2.5a72.25,72.25,0,0,0,0,72.46l-4.32,2.5a77.19,77.19,0,0,1,0-77.46Zm0,100,4.32,2.5a72.25,72.25,0,0,0,0,72.46l-4.32,2.5a77.19,77.19,0,0,1,0-77.46Zm0,100,4.33,2.5a22.45,22.45,0,0,0,0,22.49l-4.33,2.5a27.44,27.44,0,0,1,0-27.49Zm0,50,4.32,2.5a72.25,72.25,0,0,0,0,72.46l-4.32,2.5a77.19,77.19,0,0,1,0-77.46ZM646.56,560l4.32,2.5a59.81,59.81,0,0,0,0,60l-4.32,2.5a64.74,64.74,0,0,1,0-65Zm4.32-147.5a59.81,59.81,0,0,0,0,60l-4.32,2.5a64.74,64.74,0,0,1,0-65Zm0-100a59.81,59.81,0,0,0,0,60l-4.32,2.5a64.74,64.74,0,0,1,0-65Zm0-50a9.92,9.92,0,0,0,0,10l-4.33,2.5a14.9,14.9,0,0,1,0-15Zm0-50a9.92,9.92,0,0,0,0,10l-4.33,2.5a14.9,14.9,0,0,1,0-15ZM646.56,110l4.32,2.5a59.81,59.81,0,0,0,0,60l-4.32,2.5a64.74,64.74,0,0,1,0-65Zm-16.24,32.49a72.07,72.07,0,0,0,9.74,36.23l-4.32,2.5a77.19,77.19,0,0,1,0-77.46l4.32,2.5A72,72,0,0,0,630.32,142.51ZM635.71,3.76,640,6.26a22.45,22.45,0,0,0,0,22.49l-4.33,2.5a27.44,27.44,0,0,1,0-27.49Zm0,50,4.33,2.5a22.45,22.45,0,0,0,0,22.49l-4.33,2.5a27.44,27.44,0,0,1,0-27.49Zm-10.82-6.24,4.33,2.5a34.89,34.89,0,0,0,0,35l-4.33,2.5a39.89,39.89,0,0,1,0-40Zm-12.07,95a89.39,89.39,0,0,1,12.08-45l4.34,2.51a84.72,84.72,0,0,0,0,85l-4.34,2.51A89.42,89.42,0,0,1,612.82,142.51ZM629.22,235l-4.33,2.5a39.89,39.89,0,0,1,0-40l4.33,2.5a34.89,34.89,0,0,0,0,35Zm0,50-4.33,2.5a39.89,39.89,0,0,1,0-40l4.33,2.5a34.89,34.89,0,0,0,0,35Zm-16.4,57.51a89.39,89.39,0,0,1,12.08-45l4.34,2.51a84.72,84.72,0,0,0,0,85l-4.34,2.51A89.42,89.42,0,0,1,612.82,342.51Zm0,100a89.39,89.39,0,0,1,12.08-45l4.34,2.51a84.72,84.72,0,0,0,0,85l-4.34,2.51A89.42,89.42,0,0,1,612.82,442.51ZM629.22,535l-4.33,2.5a39.89,39.89,0,0,1,0-40l4.33,2.5a34.89,34.89,0,0,0,0,35Zm-16.4,57.51a89.39,89.39,0,0,1,12.08-45l4.34,2.51a84.72,84.72,0,0,0,0,85l-4.34,2.51A89.42,89.42,0,0,1,612.82,592.51Zm12.08,145a89.82,89.82,0,0,1,0-90l4.34,2.51a84.72,84.72,0,0,0,0,85Zm10.84-6.26a77.19,77.19,0,0,1,0-77.46l4.32,2.5a72.25,72.25,0,0,0,0,72.46Z"/><path class="cls-1" d="M124,767.51a101.81,101.81,0,0,1,13.06-50,52.32,52.32,0,0,1,0-50,52.32,52.32,0,0,1,0-50,52.32,52.32,0,0,1,0-50,102.24,102.24,0,0,1,0-100,52.32,52.32,0,0,1,0-50,52.32,52.32,0,0,1,0-50,102.24,102.24,0,0,1,0-100,52.32,52.32,0,0,1,0-50,52.34,52.34,0,0,1,.69-51.24l.37.22a52.31,52.31,0,0,1,0-48l-.37.22a52.34,52.34,0,0,1-.69-51.24,52.32,52.32,0,0,1,0-50A52.11,52.11,0,0,1,131.26,0h-7.58a59.54,59.54,0,0,0,7.59,22.49L126.94,25a64.39,64.39,0,0,1-8.29-25h-7.56a72.07,72.07,0,0,0,9.36,28.74l-4.33,2.5A76.89,76.89,0,0,1,106.07,0H98.54a84.47,84.47,0,0,0,11.09,35l-4.35,2.51A89.33,89.33,0,0,1,93.53,0H86A96.74,96.74,0,0,0,98.79,41.25L96.6,42.51l2.19,1.26a47.29,47.29,0,0,0,0,47.48L96.6,92.51l2.19,1.26a47.29,47.29,0,0,0,0,47.48l-2.19,1.26,2.19,1.26A96.77,96.77,0,0,0,85.9,186.33l2,1.18a9.92,9.92,0,0,0,0,10l-2,1.19a96.77,96.77,0,0,0,12.89,42.56l-2.19,1.26,2.19,1.26a47.29,47.29,0,0,0,0,47.48l-2.19,1.26,2.19,1.26a47.29,47.29,0,0,0,0,47.48l-2.19,1.26,2.19,1.26A96.77,96.77,0,0,0,85.9,386.33l2,1.18a9.92,9.92,0,0,0,0,10l-2,1.19a96.77,96.77,0,0,0,12.89,42.56l-2.19,1.26,2.19,1.26a47.29,47.29,0,0,0,0,47.48l-2.19,1.26,2.19,1.26a47.29,47.29,0,0,0,0,47.48l-2.19,1.26,2.19,1.26A96.63,96.63,0,0,0,86,585.44l3.58,2.07a10,10,0,0,0,0,10L86,599.58a96.63,96.63,0,0,0,12.82,41.67l-2.19,1.26,2.19,1.26A96.77,96.77,0,0,0,85.9,686.33l2,1.18a9.92,9.92,0,0,0,0,10l-2,1.19a96.77,96.77,0,0,0,12.89,42.56l-2.19,1.26,2.19,1.26a47,47,0,0,0-5,35.09h7.76a39.68,39.68,0,0,1,3.71-31.34l4.33,2.5a34.84,34.84,0,0,0-2.81,28.84h8.08a27.29,27.29,0,0,1,1.22-25.09l4.33,2.49a22.38,22.38,0,0,0,0,22.49l-.19.11h4.41A101.31,101.31,0,0,1,124,767.51Zm7.26-105a59.81,59.81,0,0,0,0,60l-4.33,2.5a64.8,64.8,0,0,1,0-65ZM120.43,278.75l-4.33,2.5a27.36,27.36,0,0,1,0-27.48l4.33,2.49a22.38,22.38,0,0,0,0,22.49Zm-4.33,25,4.33,2.49a22.38,22.38,0,0,0,0,22.49l-4.33,2.5a27.36,27.36,0,0,1,0-27.48Zm0,50,4.33,2.5a72.25,72.25,0,0,0,0,72.46l-4.33,2.5a77.25,77.25,0,0,1,0-77.46Zm4.31,125-4.33,2.5a27.36,27.36,0,0,1,0-27.48l4.33,2.49a22.38,22.38,0,0,0,0,22.49Zm-4.33,25,4.33,2.49a22.38,22.38,0,0,0,0,22.49l-4.33,2.5a27.36,27.36,0,0,1,0-27.48Zm0,50,4.33,2.5a72.25,72.25,0,0,0,0,72.46l-4.33,2.5a77.25,77.25,0,0,1,0-77.46ZM126.94,560l4.33,2.5a59.81,59.81,0,0,0,0,60l-4.33,2.5a64.8,64.8,0,0,1,0-65Zm4.31-97.51a9.92,9.92,0,0,0,0,10l-4.32,2.5a14.83,14.83,0,0,1,0-15ZM126.94,360l4.33,2.5a59.81,59.81,0,0,0,0,60l-4.33,2.5a64.8,64.8,0,0,1,0-65Zm4.31-97.51a9.92,9.92,0,0,0,0,10l-4.32,2.5a14.83,14.83,0,0,1,0-15ZM126.93,60l4.32,2.49a9.92,9.92,0,0,0,0,10L126.93,75a14.83,14.83,0,0,1,0-15Zm0,50,4.32,2.49a9.92,9.92,0,0,0,0,10l-4.32,2.5a14.83,14.83,0,0,1,0-15Zm0,50,4.33,2.5a59.81,59.81,0,0,0,0,60l-4.33,2.5a64.8,64.8,0,0,1,0-65ZM116.1,53.77l4.33,2.49a22.38,22.38,0,0,0,0,22.49l-4.33,2.5a27.36,27.36,0,0,1,0-27.48Zm0,50,4.33,2.49a22.38,22.38,0,0,0,0,22.49l-4.33,2.5a27.36,27.36,0,0,1,0-27.48Zm0,50,4.33,2.5a72.25,72.25,0,0,0,0,72.46l-4.33,2.5a77.25,77.25,0,0,1,0-77.46ZM105.28,47.52l4.33,2.5a34.83,34.83,0,0,0,0,35l-4.33,2.5a39.83,39.83,0,0,1,0-40Zm0,50,4.33,2.5a34.83,34.83,0,0,0,0,35l-4.33,2.5a39.83,39.83,0,0,1,0-40Zm-12.07,95a89.39,89.39,0,0,1,12.07-45l4.35,2.51a84.72,84.72,0,0,0,0,85l-4.35,2.51A89.41,89.41,0,0,1,93.21,192.51ZM109.61,285l-4.33,2.5a39.83,39.83,0,0,1,0-40l4.33,2.5a34.83,34.83,0,0,0,0,35Zm0,50-4.33,2.5a39.83,39.83,0,0,1,0-40l4.33,2.5a34.83,34.83,0,0,0,0,35Zm-16.4,57.51a89.39,89.39,0,0,1,12.07-45l4.35,2.51a84.72,84.72,0,0,0,0,85l-4.35,2.51A89.41,89.41,0,0,1,93.21,392.51ZM109.61,485l-4.33,2.5a39.83,39.83,0,0,1,0-40l4.33,2.5a34.83,34.83,0,0,0,0,35Zm0,50-4.33,2.5a39.83,39.83,0,0,1,0-40l4.33,2.5a34.83,34.83,0,0,0,0,35Zm-16.4,57.51a89.39,89.39,0,0,1,12.07-45l4.35,2.51a84.72,84.72,0,0,0,0,85l-4.35,2.51A89.41,89.41,0,0,1,93.21,592.51Zm12.07,145a89.88,89.88,0,0,1,0-90l4.35,2.51a84.72,84.72,0,0,0,0,85Zm10.84-6.26a77.25,77.25,0,0,1,0-77.46l4.33,2.5a72.25,72.25,0,0,0,0,72.46Z"/></g></g></svg>