<svg xmlns="http://www.w3.org/2000/svg" viewBox="0 0 1038.48 778.86"><defs><style>.cls-1{fill:none;}.cls-2{fill:lime;}</style></defs><title>Element 64</title><g id="Ebene_2" data-name="Ebene 2"><g id="Ebene_1-2" data-name="Ebene 1"><path class="cls-1" d="M54.71,16.28l81.59,47.1L54.71,110.49,0,78.9v5.77l52.21,30.15V209L0,178.88v69l11.41-6.59,38.3,22.12-38.3,22.11L0,278.89v5.78l8.91,5.14V334L0,328.89V684.67l8.91,5.14v89.05h48.3V717.7l81.59,47.1v14.06H317V764.81l38.3-22.11v36.16h48.32V767.69L423,778.86h10l-26.85-15.5,81.58-47.11,81.59,47.11-26.85,15.5h10l19.35-11.17v11.17h5V717.7l38.3,22.11v39.05h5V739.81l38.3-22.11v61.16H866l-29.34-16.94V667.7l38.3,22.11v89.05h5V689.81l38.3-22.11v94.22l-29.34,16.94h77.66V692.69l71.93,41.53v-5.78l-69.43-40.08,69.43-40.09V478.46l-28.64-16.54V417.7l28.64,16.53v-5.77l-26.14-15.09,26.14-15.1V342.5L1009.84,359V314.81l28.64-16.54V292.5l-31.14,18L969,288.37l38.3-22.12,31.14,18V28.46l-28.64-16.54V0H806l25.64,14.8V109L750,61.91V0H485.22V61.92L446.92,84V0h-5V84l-38.3-22.12V0H225.42V61.92L187.12,84V0h-5V84L143.81,61.92V0H0V47.87ZM449.42,638.37l38.3-22.12L526,638.37l-38.31,22.11Zm79.11,48.55L490.22,709V664.81l38.31-22.11Zm0-300L490.22,409V314.81l38.31-22.11Zm5,200V492.7l81.58,47.1V634Zm0-250V242.69l81.59,47.1V384Zm84.09,398.58-38.3-22.11,38.3-22.12,38.3,22.12ZM658.43,509l-38.3-22.12V442.7l38.3,22.11Zm-35.8-70.67,38.3-22.12,38.3,22.12-38.3,22.11ZM745,709l-38.3-22.12V592.7L745,614.81Zm-35.8-120.67,38.3-22.12,38.3,22.12-38.3,22.11Zm79.1,98.55L750,709V614.81l38.3-22.11Zm0-202.88L750,461.92V367.7l38.3,22.11Zm43.3,125-38.3-22.12V542.7l38.3,22.11Zm2.5-48.56-38.3-22.11,38.3-22.12,38.31,22.12ZM793.33,484V389.81l38.3-22.11v94.22Zm211.51,127.88L966.54,634V539.81l38.3-22.11Zm0-297.11V359l-38.3-22.12V292.7Zm0-102.9L923.25,259V164.8l81.59-47.1Zm-43.3-125L923.23,109V64.81L961.54,42.7ZM920.73,16.25,959,38.37,920.73,60.48l-38.3-22.11ZM879.93,42.7l38.3,22.11V109l-38.3-22.12Zm0,300,81.59,47.1V484l-81.59-47.1Zm35.8,320.67-38.3,22.11-38.3-22.11,38.3-22.12Zm-40.79-76.45L836.63,609V564.81l38.31-22.11Zm0-300L836.63,309V214.81l38.3-22.11Zm-40.8-120.67,38.3,22.12-38.3,22.11-38.3-22.11Zm-40.8,26.45,38.3,22.11V309l-38.3-22.12Zm35.8,170.67-38.3,22.11-38.3-22.11,38.3-22.12Zm-40.8-176.45L750,209V164.81l38.3-22.11Zm-40.8-70.67,38.3,22.12-38.3,22.11-38.3-22.11Zm-40.8,26.45L745,164.81V209l-38.3-22.12Zm-5,344.22L663.43,509V464.81l38.3-22.11Zm0-150L620.13,384V289.79l81.59-47.1ZM620.13,39.81l38.3-22.11v94.22L620.13,134Zm79.09,198.55-81.59,47.1L536,238.36l81.59-47.11ZM571.83,161.92,533.53,184V89.81l38.3-22.11ZM531,41.25l38.3,22.12L531,85.48,492.72,63.37ZM490.22,67.7l38.31,22.11V184l-38.31-22.12Zm-2.5,198.55L526,288.37l-38.31,22.11-38.3-22.11Zm-40.8,26.45,38.3,22.11V409l-38.3-22.12Zm0,150,38.3,22.11V559l-38.3-22.12Zm0,200,38.3,22.11V709l-38.3-22.12Zm-433-352.89,38.3-22.11v44.22L13.91,334ZM52.21,509l-38.3-22.12V392.7l38.3,22.11ZM16.41,388.37l38.3-22.12L93,388.37l-38.3,22.11Zm79.1,4.33v94.22L57.21,509V414.81Zm0,291.34-38.3-22.12V567.7l38.3,22.11ZM59.71,563.37,98,541.25l38.3,22.12L98,585.48Zm79.1,98.55L100.51,684V589.81l38.3-22.11ZM225.42,759l-81.59-47.1V617.69l81.59,47.1ZM146.33,613.36l81.59-47.11,81.59,47.11-81.59,47.1ZM187.12,534V489.81l38.3-22.11v44.22Zm40.8-223.56-38.3-22.11,38.3-22.12,38.3,22.12Zm40.8-17.78v94.22L230.42,409V314.81ZM312,711.9,230.42,759V664.79L312,617.69Zm2.51-401.42-38.3-22.11,38.3-22.12,38.3,22.12Zm40.8-17.78v44.22L317,359V314.81ZM398.62,659l-38.3-22.12V542.7l38.3,22.11Zm43.3-22.12L403.62,659V564.81l38.3-22.11ZM403.62,117.7l38.3,22.11V234l-38.3-22.12Zm35.8,420.67-38.3,22.11-38.3-22.11,38.3-22.12Zm-40.81-76.44L317,509V414.83l81.59-47.11ZM273.73,42.7l81.59,47.11V184l-81.59-47.11Zm0,250L312,314.81V359l-38.3-22.12Zm-5-105.78L230.42,209V164.81l38.3-22.11Zm-40.8-70.67,38.3,22.12-38.3,22.11-38.3-22.11Zm-40.8,26.45,38.3,22.11V209l-38.3-22.12Zm0,150,38.3,22.11V409l-38.3-22.12Zm-2.5,148.55,38.3,22.12-38.3,22.11-38.31-22.11ZM143.81,467.7l38.31,22.11V534l-38.31-22.12Zm-5-155.78L100.51,334V239.81l38.3-22.11Zm0-150L57.21,209V114.82L138.8,67.71Z"/><polygon class="cls-2" points="660.93 416.25 622.63 438.37 660.93 460.48 699.23 438.37 660.93 416.25"/><polygon class="cls-2" points="663.43 509.04 701.73 486.92 701.73 442.7 663.43 464.81 663.43 509.04"/><polygon class="cls-2" points="620.13 486.92 658.43 509.04 658.43 464.81 620.13 442.7 620.13 486.92"/><polygon class="cls-2" points="966.54 336.92 1004.84 359.04 1004.84 314.81 966.54 292.7 966.54 336.92"/><polygon class="cls-2" points="1009.84 359.04 1038.48 342.5 1038.48 298.27 1009.84 314.81 1009.84 359.04"/><polygon class="cls-2" points="969.04 288.37 1007.34 310.48 1038.48 292.5 1038.48 284.24 1007.34 266.25 969.04 288.37"/><polygon class="cls-2" points="230.42 209.04 268.72 186.92 268.72 142.7 230.42 164.81 230.42 209.04"/><polygon class="cls-2" points="266.22 138.37 227.92 116.25 189.62 138.37 227.92 160.48 266.22 138.37"/><polygon class="cls-2" points="355.32 89.81 273.73 42.7 273.73 136.91 355.32 184.02 355.32 89.81"/><polygon class="cls-2" points="225.42 164.81 187.12 142.7 187.12 186.92 225.42 209.04 225.42 164.81"/><polygon class="cls-2" points="834.13 516.25 795.83 538.37 834.13 560.48 872.44 538.37 834.13 516.25"/><polygon class="cls-2" points="793.33 586.92 831.63 609.04 831.63 564.81 793.33 542.7 793.33 586.92"/><polygon class="cls-2" points="750.03 709.04 788.33 686.92 788.33 592.7 750.03 614.81 750.03 709.04"/><polygon class="cls-2" points="836.63 609.04 874.94 586.92 874.94 542.7 836.63 564.81 836.63 609.04"/><polygon class="cls-2" points="706.73 686.92 745.03 709.04 745.03 614.81 706.73 592.7 706.73 686.92"/><polygon class="cls-2" points="747.53 566.25 709.23 588.37 747.53 610.48 785.83 588.37 747.53 566.25"/><polygon class="cls-2" points="872.43 188.37 834.13 166.25 795.83 188.37 834.13 210.48 872.43 188.37"/><polygon class="cls-2" points="831.63 214.81 793.33 192.7 793.33 286.92 831.63 309.04 831.63 214.81"/><polygon class="cls-2" points="836.63 309.04 874.93 286.92 874.93 192.7 836.63 214.81 836.63 309.04"/><polygon class="cls-2" points="745.03 164.81 706.73 142.7 706.73 186.92 745.03 209.04 745.03 164.81"/><polygon class="cls-2" points="750.03 209.04 788.33 186.92 788.33 142.7 750.03 164.81 750.03 209.04"/><polygon class="cls-2" points="785.83 138.37 747.53 116.25 709.23 138.37 747.53 160.48 785.83 138.37"/><polygon class="cls-2" points="923.23 109.04 961.54 86.92 961.54 42.7 923.23 64.81 923.23 109.04"/><polygon class="cls-2" points="959.04 38.37 920.73 16.25 882.43 38.37 920.73 60.48 959.04 38.37"/><polygon class="cls-2" points="918.23 64.81 879.93 42.7 879.93 86.92 918.23 109.04 918.23 64.81"/><polygon class="cls-2" points="314.52 266.25 276.22 288.37 314.52 310.48 352.82 288.37 314.52 266.25"/><polygon class="cls-2" points="225.42 314.81 187.12 292.7 187.12 386.92 225.42 409.04 225.42 314.81"/><polygon class="cls-2" points="312.02 314.81 273.72 292.7 273.72 336.92 312.02 359.04 312.02 314.81"/><polygon class="cls-2" points="268.72 386.92 268.72 292.7 230.42 314.81 230.42 409.04 268.72 386.92"/><polygon class="cls-2" points="189.62 288.37 227.92 310.48 266.22 288.37 227.92 266.25 189.62 288.37"/><polygon class="cls-2" points="355.32 336.92 355.32 292.7 317.02 314.81 317.02 359.04 355.32 336.92"/><polygon class="cls-2" points="182.12 489.81 143.81 467.7 143.81 511.92 182.12 534.04 182.12 489.81"/><polygon class="cls-2" points="187.12 489.81 187.12 534.04 225.42 511.92 225.42 467.7 187.12 489.81"/><polygon class="cls-2" points="222.92 463.37 184.62 441.25 146.31 463.37 184.62 485.48 222.92 463.37"/><polygon class="cls-2" points="1009.84 461.92 1038.48 478.46 1038.48 434.24 1009.84 417.7 1009.84 461.92"/><polygon class="cls-2" points="1038.48 428.46 1038.48 398.27 1012.34 413.37 1038.48 428.46"/><polygon class="cls-2" points="52.21 267.7 13.91 289.81 13.91 334.04 52.21 311.92 52.21 267.7"/><polygon class="cls-2" points="8.91 289.81 0 284.67 0 328.89 8.91 334.04 8.91 289.81"/><polygon class="cls-2" points="49.71 263.37 11.41 241.25 0 247.84 0 278.89 11.41 285.48 49.71 263.37"/><polygon class="cls-2" points="526.02 288.37 487.72 266.25 449.42 288.37 487.72 310.48 526.02 288.37"/><polygon class="cls-2" points="485.22 314.81 446.92 292.7 446.92 386.92 485.22 409.04 485.22 314.81"/><polygon class="cls-2" points="490.22 409.04 528.52 386.92 528.52 292.7 490.22 314.81 490.22 409.04"/><polygon class="cls-2" points="617.63 285.46 699.22 238.36 617.63 191.25 536.04 238.36 617.63 285.46"/><polygon class="cls-2" points="620.13 384 701.72 336.9 701.72 242.69 620.13 289.79 620.13 384"/><polygon class="cls-2" points="615.13 289.79 533.54 242.69 533.54 336.9 615.13 384 615.13 289.79"/><polygon class="cls-2" points="966.55 778.86 1038.48 778.86 1038.48 734.22 966.55 692.69 966.55 778.86"/><polygon class="cls-2" points="1038.48 728.45 1038.48 648.27 969.05 688.36 1038.48 728.45"/><polygon class="cls-2" points="143.83 711.9 225.42 759 225.42 664.79 143.83 617.69 143.83 711.9"/><polygon class="cls-2" points="57.21 661.92 95.51 684.04 95.51 589.81 57.21 567.7 57.21 661.92"/><polygon class="cls-2" points="230.42 759 312 711.9 312 617.69 230.42 664.79 230.42 759"/><polygon class="cls-2" points="98.01 541.25 59.71 563.37 98.01 585.48 136.31 563.37 98.01 541.25"/><polygon class="cls-2" points="227.92 566.25 146.33 613.36 227.92 660.46 309.5 613.36 227.92 566.25"/><polygon class="cls-2" points="100.51 684.04 138.81 661.92 138.81 567.7 100.51 589.81 100.51 684.04"/><polygon class="cls-2" points="790.83 385.48 829.13 363.37 790.83 341.25 752.53 363.37 790.83 385.48"/><polygon class="cls-2" points="750.03 461.92 788.33 484.04 788.33 389.81 750.03 367.7 750.03 461.92"/><polygon class="cls-2" points="831.63 367.7 793.33 389.81 793.33 484.04 831.63 461.92 831.63 367.7"/><polygon class="cls-2" points="13.91 486.92 52.21 509.04 52.21 414.81 13.91 392.7 13.91 486.92"/><polygon class="cls-2" points="54.71 366.25 16.41 388.37 54.71 410.48 93.01 388.37 54.71 366.25"/><polygon class="cls-2" points="95.51 486.92 95.51 392.7 57.21 414.81 57.21 509.04 95.51 486.92"/><polygon class="cls-2" points="52.21 114.82 0 84.67 0 178.88 52.21 209.03 52.21 114.82"/><polygon class="cls-2" points="182.12 84.04 182.12 0 143.81 0 143.81 61.92 182.12 84.04"/><polygon class="cls-2" points="57.21 209.03 138.8 161.92 138.8 67.71 57.21 114.82 57.21 209.03"/><polygon class="cls-2" points="136.3 63.38 54.71 16.28 0 47.87 0 78.9 54.71 110.49 136.3 63.38"/><polygon class="cls-2" points="225.42 61.92 225.42 0 187.12 0 187.12 84.04 225.42 61.92"/><polygon class="cls-2" points="403.62 659.04 441.92 636.92 441.92 542.7 403.62 564.81 403.62 659.04"/><polygon class="cls-2" points="579.33 713.37 617.63 735.48 655.93 713.37 617.63 691.25 579.33 713.37"/><polygon class="cls-2" points="487.72 716.25 406.14 763.36 432.99 778.86 542.46 778.86 569.31 763.36 487.72 716.25"/><polygon class="cls-2" points="403.64 778.86 422.99 778.86 403.64 767.69 403.64 778.86"/><polygon class="cls-2" points="576.83 717.7 576.83 778.86 615.13 778.86 615.13 739.81 576.83 717.7"/><polygon class="cls-2" points="490.22 709.04 528.52 686.92 528.52 642.7 490.22 664.81 490.22 709.04"/><polygon class="cls-2" points="620.13 739.81 620.13 778.86 658.43 778.86 658.43 717.7 620.13 739.81"/><polygon class="cls-2" points="485.22 664.81 446.92 642.7 446.92 686.92 485.22 709.04 485.22 664.81"/><polygon class="cls-2" points="552.46 778.86 571.81 778.86 571.81 767.69 552.46 778.86"/><polygon class="cls-2" points="485.22 464.81 446.92 442.7 446.92 536.92 485.22 559.04 485.22 464.81"/><polygon class="cls-2" points="487.72 616.25 449.42 638.37 487.72 660.48 526.02 638.37 487.72 616.25"/><polygon class="cls-2" points="360.32 636.92 398.62 659.04 398.62 564.81 360.32 542.7 360.32 636.92"/><polygon class="cls-2" points="401.12 560.48 439.42 538.37 401.12 516.25 362.82 538.37 401.12 560.48"/><polygon class="cls-2" points="836.63 667.7 836.63 761.92 865.97 778.86 874.93 778.86 874.93 689.81 836.63 667.7"/><polygon class="cls-2" points="877.43 685.48 915.73 663.37 877.43 641.25 839.13 663.37 877.43 685.48"/><polygon class="cls-2" points="918.23 667.7 879.93 689.81 879.93 778.86 888.89 778.86 918.23 761.92 918.23 667.7"/><polygon class="cls-2" points="485.22 61.92 485.22 0 446.92 0 446.92 84.04 485.22 61.92"/><polygon class="cls-2" points="528.52 89.81 490.22 67.7 490.22 161.92 528.52 184.04 528.52 89.81"/><polygon class="cls-2" points="441.92 84.04 441.92 0 403.62 0 403.62 61.92 441.92 84.04"/><polygon class="cls-2" points="569.33 63.37 531.02 41.25 492.72 63.37 531.02 85.48 569.33 63.37"/><polygon class="cls-2" points="533.52 184.04 571.83 161.92 571.83 67.7 533.52 89.81 533.52 184.04"/><polygon class="cls-2" points="441.92 139.81 403.62 117.7 403.62 211.92 441.92 234.04 441.92 139.81"/><polygon class="cls-2" points="1038.48 28.46 1038.48 0 1009.84 0 1009.84 11.92 1038.48 28.46"/><polygon class="cls-2" points="0 684.67 0 778.86 8.91 778.86 8.91 689.81 0 684.67"/><polygon class="cls-2" points="615.11 539.8 533.52 492.7 533.52 586.91 615.11 634.01 615.11 539.8"/><polygon class="cls-2" points="961.52 389.8 879.93 342.7 879.93 436.91 961.52 484.01 961.52 389.8"/><polygon class="cls-2" points="57.21 717.7 57.21 778.86 138.8 778.86 138.8 764.8 57.21 717.7"/><polygon class="cls-2" points="831.62 109.01 831.62 14.8 805.98 0 750.03 0 750.03 61.91 831.62 109.01"/><polygon class="cls-2" points="966.54 634.04 1004.84 611.92 1004.84 517.7 966.54 539.81 966.54 634.04"/><polygon class="cls-2" points="100.51 334.04 138.81 311.92 138.81 217.7 100.51 239.81 100.51 334.04"/><polygon class="cls-2" points="317.02 764.81 317.02 778.86 355.32 778.86 355.32 742.7 317.02 764.81"/><polygon class="cls-2" points="658.43 17.7 620.13 39.81 620.13 134.04 658.43 111.92 658.43 17.7"/><polygon class="cls-2" points="923.25 259.01 1004.84 211.91 1004.84 117.7 923.25 164.8 923.25 259.01"/><polygon class="cls-2" points="317.02 509.04 398.61 461.93 398.61 367.72 317.02 414.83 317.02 509.04"/></g></g></svg>