<svg xmlns="http://www.w3.org/2000/svg" viewBox="0 0 1038.48 778.86"><defs><style>.cls-1{fill:none;}.cls-2{fill:lime;}</style></defs><title>Element 65</title><g id="Ebene_2" data-name="Ebene 2"><g id="Ebene_1-2" data-name="Ebene 1"><polygon class="cls-1" points="403.62 659.04 441.92 636.92 441.92 542.7 403.62 564.81 403.62 659.04"/><polygon class="cls-1" points="401.12 516.25 362.82 538.37 401.12 560.48 439.42 538.37 401.12 516.25"/><polygon class="cls-1" points="360.32 636.92 398.62 659.04 398.62 564.81 360.32 542.7 360.32 636.92"/><polygon class="cls-1" points="576.83 717.7 576.83 778.86 615.13 778.86 615.13 739.81 576.83 717.7"/><polygon class="cls-1" points="485.22 464.81 446.92 442.7 446.92 536.92 485.22 559.04 485.22 464.81"/><polygon class="cls-1" points="446.92 686.92 485.22 709.04 485.22 664.81 446.92 642.7 446.92 686.92"/><polygon class="cls-1" points="836.63 667.7 836.63 761.92 865.97 778.86 874.93 778.86 874.93 689.81 836.63 667.7"/><polygon class="cls-1" points="579.33 713.37 617.63 735.48 655.93 713.37 617.63 691.25 579.33 713.37"/><polygon class="cls-1" points="528.53 642.7 490.22 664.81 490.22 709.04 528.53 686.92 528.53 642.7"/><polygon class="cls-1" points="487.72 616.25 449.42 638.37 487.72 660.48 526.03 638.37 487.72 616.25"/><polygon class="cls-1" points="620.13 739.81 620.13 778.86 658.43 778.86 658.43 717.7 620.13 739.81"/><polygon class="cls-1" points="49.71 263.37 11.41 241.25 0 247.84 0 278.89 11.41 285.48 49.71 263.37"/><polygon class="cls-1" points="552.46 778.86 571.81 778.86 571.81 767.69 552.46 778.86"/><polygon class="cls-1" points="918.24 667.7 879.93 689.81 879.93 778.86 888.89 778.86 918.24 761.92 918.24 667.7"/><polygon class="cls-1" points="52.21 114.82 0 84.67 0 178.88 52.21 209.03 52.21 114.82"/><polygon class="cls-1" points="52.21 267.7 13.91 289.81 13.91 334.04 52.21 311.92 52.21 267.7"/><polygon class="cls-1" points="8.91 289.81 0 284.67 0 328.89 8.91 334.04 8.91 289.81"/><polygon class="cls-1" points="487.72 716.25 406.14 763.36 432.99 778.86 542.46 778.86 569.31 763.36 487.72 716.25"/><polygon class="cls-1" points="0 684.66 0 778.86 8.91 778.86 8.91 689.81 0 684.66"/><polygon class="cls-1" points="403.64 778.86 422.99 778.86 403.64 767.69 403.64 778.86"/><polygon class="cls-1" points="317.02 764.81 317.02 778.86 355.32 778.86 355.32 742.7 317.02 764.81"/><polygon class="cls-1" points="57.21 717.7 57.21 778.86 138.8 778.86 138.8 764.8 57.21 717.7"/><polygon class="cls-1" points="136.3 63.38 54.71 16.28 0 47.87 0 78.9 54.71 110.49 136.3 63.38"/><polygon class="cls-1" points="834.13 516.25 795.83 538.37 834.13 560.48 872.44 538.37 834.13 516.25"/><polygon class="cls-1" points="836.63 609.04 874.94 586.92 874.94 542.7 836.63 564.81 836.63 609.04"/><polygon class="cls-1" points="793.33 484.04 831.63 461.92 831.63 367.7 793.33 389.81 793.33 484.04"/><polygon class="cls-1" points="750.03 709.04 788.33 686.92 788.33 592.7 750.03 614.81 750.03 709.04"/><polygon class="cls-1" points="747.53 566.25 709.23 588.37 747.53 610.48 785.83 588.37 747.53 566.25"/><polygon class="cls-1" points="829.13 363.37 790.83 341.25 752.53 363.37 790.83 385.48 829.13 363.37"/><polygon class="cls-1" points="793.33 586.92 831.63 609.04 831.63 564.81 793.33 542.7 793.33 586.92"/><polygon class="cls-1" points="923.24 109.03 961.54 86.92 961.54 42.7 923.24 64.81 923.24 109.03"/><polygon class="cls-1" points="959.04 38.37 920.74 16.25 882.43 38.37 920.74 60.48 959.04 38.37"/><polygon class="cls-1" points="57.21 661.92 95.51 684.04 95.51 589.81 57.21 567.7 57.21 661.92"/><polygon class="cls-1" points="961.52 389.8 879.93 342.69 879.93 436.9 961.52 484.01 961.52 389.8"/><polygon class="cls-1" points="1004.84 517.7 966.54 539.81 966.54 634.03 1004.84 611.92 1004.84 517.7"/><polygon class="cls-1" points="750.03 461.92 788.33 484.04 788.33 389.81 750.03 367.7 750.03 461.92"/><polygon class="cls-1" points="227.92 566.25 146.33 613.36 227.92 660.46 309.5 613.36 227.92 566.25"/><polygon class="cls-1" points="143.83 711.9 225.42 759 225.42 664.79 143.83 617.69 143.83 711.9"/><polygon class="cls-1" points="706.73 686.92 745.03 709.04 745.03 614.81 706.73 592.7 706.73 686.92"/><polygon class="cls-1" points="100.51 684.04 138.81 661.92 138.81 567.7 100.51 589.81 100.51 684.04"/><polygon class="cls-1" points="230.42 759 312 711.9 312 617.69 230.42 664.79 230.42 759"/><polygon class="cls-1" points="98.01 541.25 59.71 563.37 98.01 585.48 136.31 563.37 98.01 541.25"/><polygon class="cls-1" points="660.93 416.25 622.63 438.37 660.93 460.48 699.23 438.37 660.93 416.25"/><polygon class="cls-1" points="663.43 509.04 701.73 486.92 701.73 442.7 663.43 464.81 663.43 509.04"/><polygon class="cls-1" points="317.02 509.04 398.61 461.93 398.61 367.72 317.02 414.83 317.02 509.04"/><polygon class="cls-1" points="620.13 486.92 658.43 509.04 658.43 464.81 620.13 442.7 620.13 486.92"/><polygon class="cls-1" points="533.52 586.91 615.11 634.01 615.11 539.8 533.53 492.7 533.52 586.91"/><polygon class="cls-1" points="1004.84 117.69 923.25 164.8 923.25 259.01 1004.84 211.91 1004.84 117.69"/><polygon class="cls-1" points="187.12 186.92 225.42 209.04 225.42 164.81 187.12 142.7 187.12 186.92"/><polygon class="cls-1" points="355.32 89.81 273.73 42.7 273.73 136.91 355.32 184.02 355.32 89.81"/><polygon class="cls-1" points="230.42 209.04 268.72 186.92 268.72 142.7 230.42 164.81 230.42 209.04"/><polygon class="cls-1" points="441.92 139.81 403.62 117.7 403.62 211.92 441.92 234.04 441.92 139.81"/><polygon class="cls-1" points="189.62 138.37 227.92 160.48 266.22 138.37 227.92 116.25 189.62 138.37"/><polygon class="cls-1" points="485.22 314.81 446.92 292.7 446.92 386.92 485.22 409.04 485.22 314.81"/><polygon class="cls-1" points="839.13 663.37 877.43 685.48 915.74 663.37 877.43 641.25 839.13 663.37"/><polygon class="cls-1" points="526.02 288.37 487.72 266.25 449.42 288.37 487.72 310.48 526.02 288.37"/><polygon class="cls-1" points="53.46 11.23 54.71 10.5 55.96 11.23 138.81 59.06 138.81 0 0 0 0 42.09 53.46 11.23"/><polygon class="cls-1" points="225.42 61.92 225.42 0 187.12 0 187.12 84.04 225.42 61.92"/><path class="cls-1" d="M230.42,64.81l-1.25.72-43.3,25-1.25.72-1.25-.72L143.8,67.69v97.12l-1.25.72L56,215.52l-1.25.73-1.25-.73L0,184.66v57.41l10.16-5.87,1.25-.72,1.25.72,43.3,25,1.25.72v52.89l-1.25.72-43.3,25-1.25.72-1.25-.72L0,334.67V678.89l12.66,7.31,1.25.72v91.94h38.3V709L56,711.2l86.59,50,1.25.73v16.94H312V761.92l1.25-.72,43.3-25,3.75-2.16v44.82h38.32V761.92l1.25-.73,82.83-47.82-39.55-22.84-1.25-.72V642.7l-39.55,22.83-1.25.72-1.25-.72-43.3-25-1.25-.72V536.92l1.25-.72,43.3-25,1.25-.72,1.25.72L441.92,534V434l3.75,2.16,43.3,25,1.25.72V567.7l-3.75-2.17L446.92,542.7V634l39.55-22.84,1.25-.72,1.25.72,43.31,25,1.25.72v52.89l-1.25.72-39.56,22.84L571.83,759V711.92l1.25-.72,43.3-25,1.25-.72,1.25.72,43.3,25,1.25.72v66.94H856l-23.09-13.33-1.25-.72V661.92l1.25-.72,43.3-25,1.25-.72,1.25.72,43.3,25,1.25.72V764.81l-1.25.72-23.09,13.33h62.66v-92l1.25-.72,75.68-43.69V484.23l-32.39-18.7-1.25-.72V411.92l1.25-.72,32.39-18.7V348.27l-29.89,17.26-1.25.72-1.25-.72-43.3-25-1.25-.72V286.92l1.25-.72,43.3-25,1.25-.72,1.25.72,29.89,17.26V34.23l-32.39-18.7-1.25-.72V0H816l19.39,11.19,1.25.72V117.67l-3.75-2.16-86.59-50L745,64.79V0H490.22V59L529.78,36.2l1.25-.72,1.25.72,43.3,25,1.25.72V164.81l-1.25.72-43.3,25-1.25.72-1.25-.72-43.31-25-1.25-.72V67.7L445.67,90.53l-1.25.72-1.25-.72-43.3-25-1.25-.72V0H230.42V64.81Zm-48.3,323.56V286.92l1.25-.72,43.3-25,1.25-.72,1.25.72,42.05,24.28,42-24.28,1.25-.72,1.25.72,43.3,25,1.25.72v52.89l-1.25.72-43.3,25-1.25.72-1.25-.72L273.72,342.7v47.11l-1.25.72-43.3,25-1.25.72-1.25-.72-43.3-25-1.25-.72Zm48.3,73.55v52.89l-1.25.72-43.3,25-1.25.72-1.25-.72-43.31-25-1.25-.72V461.92l1.25-.72,43.31-25,1.25-.72,1.25.72,43.3,25ZM95.51,338.37V236.92l1.25-.72,43.3-25,3.75-2.16V314.81l-1.25.72-43.3,25-3.75,2.17ZM10.16,490.53l-1.25-.72V386.92l1.25-.72,43.3-25,1.25-.72,1.25.72,43.3,25,1.25.72V489.81l-1.25.72-43.3,25-1.25.72-1.25-.72ZM317,613.36V714.79l-1.25.72-86.59,50-1.25.72-1.25-.72-86.59-50-1.25-.72v-47.1L99.26,690.53l-1.25.72-1.25-.72-43.3-25-1.25-.72V561.92l1.25-.72,43.3-25,1.25-.72,1.25.72,43.3,25,1.25.72V609l82.86-47.84,1.25-.72,1.25.72,86.59,50,1.25.73Zm86.6-250V464.82l-1.25.72-86.59,50L312,517.7V411.94l1.25-.72,86.59-50,3.75-2.17Zm216.5,175V642.67l-3.75-2.16-86.58-50-1.25-.72V484l3.75,2.16,86.58,50,1.25.73Zm42.07-22.83-1.25.72-1.25-.72-43.3-25-1.25-.72V436.92l1.25-.72,43.3-25,1.25-.72,1.25.72,43.3,25,1.25.72v52.89l-1.25.72Zm217.76,22.84v51.44l-1.25.72-43.31,25-1.25.72-1.25-.72L793.33,592.7v97.11l-1.25.72-43.3,25-1.25.72-1.25-.72-43.3-25-1.25-.72V586.92l1.25-.72,43.3-25,1.25-.72,1.25.72L788.33,584V536.92l1.25-.72,43.3-25,1.25-.72,1.25.72,43.31,25,1.25.72ZM745,464.81V361.92l1.25-.72,43.3-25,1.25-.72,1.25.72,43.3,25,1.25.72V464.81l-1.25.72-43.3,25-1.25.72-1.25-.72-43.3-25Zm261.06,46.39,3.75-2.16V614.81l-1.25.72-43.3,25-3.75,2.17V536.92l1.25-.72Zm-40.82-125,1.25.72V492.67l-3.75-2.16-86.59-50-1.25-.72V334l3.75,2.16Zm40.82-275,3.75-2.16V214.79l-1.25.72-86.59,50-3.75,2.16V161.91l1.25-.72ZM874.93,88.37V36.92l1.25-.72,43.3-25,1.25-.72,1.25.72,43.31,25,1.25.72V89.81l-1.25.72-43.31,25-1.25.72-1.25-.72-43.3-25-1.25-.72Zm-173.2,100V136.92l1.25-.72,43.3-25,1.25-.72,1.25.72,43.3,25,1.25.72V184l39.55-22.84,1.25-.72,1.25.72,43.3,25,1.25.72V289.81l-1.25.72-43.3,25-1.25.72-1.25-.72-43.3-25-1.25-.72V192.7l-39.55,22.83-1.25.72-1.25-.72-43.3-25-1.25-.72Zm-86.6-50V36.92l1.25-.72,43.3-25L663.43,9V114.81l-1.25.72-43.3,25-3.75,2.17ZM486.47,261.2l1.25-.72,1.25.72L528.54,284V236.92l1.25-.73,86.59-50,1.25-.72,1.25.72,86.59,50,1.25.73V339.79l-1.25.72-86.59,50-1.25.72-1.25-.72-82.85-47.84v47.15l-1.25.72-43.31,25-1.25.72-1.25-.72-43.3-25-1.25-.72V286.92l1.25-.72Zm-87.85-47.83V109l3.75,2.16,43.3,25,1.25.72V242.7l-3.75-2.17-43.3-25-1.25-.72Zm-129.89-175V34l3.75,2.17,86.59,50,1.25.72V192.68l-3.75-2.16-82.85-47.84v47.13l-1.25.72-43.3,25-1.25.72-1.25-.72-43.3-25-1.25-.72V136.92l1.25-.72,43.3-25,1.25-.72,1.25.72L268.73,134Z"/><polygon class="cls-1" points="182.12 84.04 182.12 0 143.81 0 143.81 61.92 182.12 84.04"/><polygon class="cls-1" points="57.21 209.03 138.8 161.92 138.8 67.71 57.21 114.82 57.21 209.03"/><polygon class="cls-1" points="831.63 214.81 793.33 192.69 793.33 286.92 831.63 309.04 831.63 214.81"/><polygon class="cls-1" points="785.83 138.37 747.53 116.25 709.23 138.37 747.53 160.48 785.83 138.37"/><polygon class="cls-1" points="750.03 209.03 788.33 186.92 788.33 186.92 788.33 142.7 750.03 164.81 750.03 209.03"/><polygon class="cls-1" points="872.43 188.37 834.13 166.25 795.83 188.37 834.13 210.48 872.43 188.37"/><polygon class="cls-1" points="836.63 309.04 874.93 286.92 874.93 192.69 836.63 214.81 836.63 309.04"/><polygon class="cls-1" points="615.13 289.79 533.54 242.69 533.54 336.9 615.13 384 615.13 289.79"/><polygon class="cls-1" points="490.22 409.04 528.52 386.92 528.52 292.7 490.22 314.81 490.22 409.04"/><polygon class="cls-1" points="699.22 238.36 617.63 191.25 536.04 238.36 617.63 285.46 699.22 238.36"/><polygon class="cls-1" points="658.43 17.7 620.13 39.81 620.13 134.04 658.43 111.92 658.43 17.7"/><polygon class="cls-1" points="745.03 164.81 706.73 142.7 706.73 186.92 745.03 209.03 745.03 164.81"/><polygon class="cls-1" points="620.13 384 701.72 336.9 701.72 242.69 620.13 289.79 620.13 384"/><polygon class="cls-1" points="918.24 64.81 879.93 42.7 879.93 86.92 918.24 109.03 918.24 64.81"/><polygon class="cls-1" points="225.42 314.81 187.12 292.7 187.12 386.92 225.42 409.04 225.42 314.81"/><polygon class="cls-1" points="266.22 288.37 227.92 266.25 189.62 288.37 227.92 310.48 266.22 288.37"/><polygon class="cls-1" points="1038.48 428.46 1038.48 398.27 1012.34 413.37 1038.48 428.46"/><polygon class="cls-1" points="143.81 511.92 182.12 534.04 182.12 489.81 143.81 467.7 143.81 511.92"/><polygon class="cls-1" points="969.04 288.37 1007.34 310.48 1038.48 292.5 1038.48 284.23 1007.34 266.25 969.04 288.37"/><polygon class="cls-1" points="1009.84 359.04 1038.48 342.5 1038.48 298.27 1009.84 314.81 1009.84 359.04"/><polygon class="cls-1" points="187.12 534.04 225.42 511.92 225.42 467.7 187.12 489.81 187.12 534.04"/><polygon class="cls-1" points="138.81 217.7 100.51 239.81 100.51 334.04 138.81 311.92 138.81 217.7"/><polygon class="cls-1" points="1009.84 461.92 1038.48 478.46 1038.48 434.23 1009.84 417.69 1009.84 461.92"/><polygon class="cls-1" points="184.62 441.25 146.31 463.37 184.62 485.48 222.92 463.37 184.62 441.25"/><polygon class="cls-1" points="312.02 314.81 273.72 292.7 273.72 336.92 312.02 359.04 312.02 314.81"/><polygon class="cls-1" points="569.33 63.37 531.03 41.25 492.72 63.37 531.03 85.48 569.33 63.37"/><polygon class="cls-1" points="317.02 359.04 355.32 336.92 355.32 292.7 317.02 314.81 317.02 359.04"/><polygon class="cls-1" points="528.53 89.81 490.22 67.7 490.22 161.92 528.53 184.04 528.53 89.81"/><polygon class="cls-1" points="966.54 336.92 1004.84 359.04 1004.84 314.81 966.54 292.69 966.54 336.92"/><polygon class="cls-1" points="831.62 109.01 831.62 14.8 805.98 0 750.03 0 750.03 61.91 831.62 109.01"/><polygon class="cls-1" points="230.42 409.04 268.72 386.92 268.72 292.7 230.42 314.81 230.42 409.04"/><polygon class="cls-1" points="441.92 84.04 441.92 0 403.62 0 403.62 61.92 441.92 84.04"/><polygon class="cls-1" points="533.53 184.04 571.83 161.92 571.83 67.7 533.53 89.81 533.53 184.04"/><polygon class="cls-1" points="485.22 61.92 485.23 61.92 485.23 0 446.92 0 446.92 84.04 485.22 61.92"/><polygon class="cls-1" points="352.82 288.37 314.52 266.25 276.22 288.37 314.52 310.48 352.82 288.37"/><polygon class="cls-1" points="93.01 388.37 54.71 366.25 16.41 388.37 54.71 410.48 93.01 388.37"/><polygon class="cls-1" points="1038.48 728.44 1038.48 648.27 969.05 688.36 1038.48 728.44"/><polygon class="cls-1" points="13.91 486.92 52.21 509.04 52.21 414.81 13.91 392.7 13.91 486.92"/><polygon class="cls-1" points="57.21 509.04 95.51 486.92 95.51 392.7 57.21 414.81 57.21 509.04"/><polygon class="cls-1" points="966.55 778.86 1038.48 778.86 1038.48 734.22 966.55 692.69 966.55 778.86"/><polygon class="cls-1" points="1038.48 28.46 1038.48 0 1009.84 0 1009.84 11.92 1038.48 28.46"/><path class="cls-2" d="M706.73,489.81V436.92l-1.25-.72-43.3-25-1.25-.72-1.25.72-43.3,25-1.25.72v52.89l1.25.72,43.3,25,1.25.72,1.25-.72,43.3-25ZM658.43,509l-38.3-22.12V442.7l38.3,22.11Zm2.5-48.56-38.3-22.11,38.3-22.12,38.3,22.12Zm40.8,26.44L663.43,509V464.81l38.3-22.11Z"/><path class="cls-2" d="M1007.34,260.48l-1.25.72-43.3,25-1.25.72v52.89l1.25.72,43.3,25,1.25.72,1.25-.72,29.89-17.26V342.5L1009.84,359V314.81l28.64-16.54V292.5l-31.14,18L969,288.37l38.3-22.12,31.14,18v-5.77l-29.89-17.26Zm-2.5,54.33V359l-38.3-22.12V292.7Z"/><path class="cls-2" d="M227.92,110.48l-1.25.72-43.3,25-1.25.72v52.89l1.25.72,43.3,25,1.25.72,1.25-.72,43.3-25,1.25-.72V142.68l82.85,47.84,3.75,2.16V86.92l-1.25-.72-86.59-50L268.73,34V134L229.17,111.2ZM273.73,42.7l81.59,47.11V184l-81.59-47.1ZM225.42,209l-38.3-22.12V142.7l38.3,22.11Zm43.3-22.12L230.42,209V164.81l38.3-22.11Zm-40.8-26.44-38.3-22.11,38.3-22.12,38.3,22.12Z"/><path class="cls-2" d="M835.38,511.2l-1.25-.72-1.25.72-43.3,25-1.25.72V584L748.78,561.2l-1.25-.72-1.25.72-43.3,25-1.25.72V689.81l1.25.72,43.3,25,1.25.72,1.25-.72,43.3-25,1.25-.72V592.7l39.55,22.83,1.25.72,1.25-.72,43.31-25,1.25-.72V536.92l-1.25-.72ZM745,709l-38.3-22.12V592.7L745,614.81Zm2.5-98.56-38.3-22.11,38.3-22.12,38.3,22.12Zm40.8,76.44L750,709V614.81l38.3-22.11ZM831.63,609l-38.3-22.12V542.7l38.3,22.11Zm2.5-48.56-38.3-22.11,38.3-22.12,38.31,22.12Zm40.81,26.44L836.63,609V564.81l38.31-22.11Z"/><path class="cls-2" d="M746.28,215.53l1.25.72,1.25-.72,39.55-22.83v97.11l1.25.72,43.3,25,1.25.72,1.25-.72,43.3-25,1.25-.72V186.92l-1.25-.72-43.3-25-1.25-.72-1.25.72L793.33,184V136.92l-1.25-.72-43.3-25-1.25-.72-1.25.72-43.3,25-1.25.72v52.89l1.25.72Zm128.65,71.39L836.63,309V214.81l38.3-22.11Zm-40.8-120.67,38.3,22.12-38.3,22.11-38.3-22.11Zm-40.8,26.45,38.3,22.11V309l-38.3-22.12Zm-5-5.78h0L750,209V164.81l38.3-22.11Zm-40.8-70.67,38.3,22.12-38.3,22.11-38.3-22.11Zm-40.8,26.45L745,164.81V209l-38.3-22.12Z"/><path class="cls-2" d="M919.48,115.53l1.25.72,1.25-.72,43.31-25,1.25-.72V36.92l-1.25-.72L922,11.2l-1.25-.72-1.25.72-43.3,25-1.25.72V89.81l1.25.72Zm42.06-28.61L923.23,109V64.81L961.54,42.7ZM920.73,16.25,959,38.37,920.73,60.48l-38.3-22.11ZM879.93,42.7l38.3,22.11V109l-38.3-22.12Z"/><path class="cls-2" d="M226.67,415.53l1.25.72,1.25-.72,43.3-25,1.25-.72V342.7l39.55,22.83,1.25.72,1.25-.72,43.3-25,1.25-.72V286.92l-1.25-.72-43.3-25-1.25-.72-1.25.72-42,24.28L229.17,261.2l-1.25-.72-1.25.72-43.3,25-1.25.72V389.81l1.25.72Zm128.65-78.61L317,359V314.81l38.3-22.11Zm-40.8-70.67,38.3,22.12-38.3,22.11-38.3-22.11Zm-40.8,26.45L312,314.81V359l-38.3-22.12Zm-5,94.22L230.42,409V314.81l38.3-22.11Zm-40.8-120.67,38.3,22.12-38.3,22.11-38.3-22.11Zm-40.8,26.45,38.3,22.11V409l-38.3-22.12Z"/><path class="cls-2" d="M185.87,436.2l-1.25-.72-1.25.72-43.31,25-1.25.72v52.89l1.25.72,43.31,25,1.25.72,1.25-.72,43.3-25,1.25-.72V461.92l-1.25-.72ZM182.12,534l-38.31-22.12V467.7l38.31,22.11Zm2.5-48.56-38.31-22.11,38.31-22.12,38.3,22.12Zm40.8,26.44L187.12,534V489.81l38.3-22.11Z"/><polygon class="cls-2" points="1004.84 411.92 1004.84 413.37 1004.84 463.37 1004.84 464.81 1006.09 465.53 1038.48 484.23 1038.48 478.46 1009.84 461.92 1009.84 417.69 1038.48 434.23 1038.48 428.46 1012.34 413.37 1038.48 398.27 1038.48 392.5 1006.09 411.2 1004.84 411.92"/><path class="cls-2" d="M11.41,341.25l1.25-.72,43.3-25,1.25-.72V261.92L56,261.2l-43.3-25-1.25-.72-1.25.72L0,242.07v5.77l11.41-6.59,38.3,22.12-38.3,22.11L0,278.89v5.78l8.91,5.14V334L0,328.89v5.78l10.16,5.86Zm2.5-51.44,38.3-22.11v44.22L13.91,334Z"/><path class="cls-2" d="M441.92,286.92V389.81l1.25.72,43.3,25,1.25.72,1.25-.72,43.31-25,1.25-.72V342.66l82.85,47.84,1.25.72,1.25-.72,86.59-50,1.25-.72V236.92l-1.25-.73-86.59-50-1.25-.72-1.25.72-86.59,50-1.25.73V284L489,261.2l-1.25-.72-1.25.72-43.3,25Zm259.8,50L620.13,384V289.79l81.59-47.1ZM617.63,191.25l81.59,47.11-81.59,47.1L536,238.36Zm-84.09,51.44,81.59,47.1V384l-81.59-47.1Zm-5,144.23L490.22,409V314.81l38.31-22.11ZM487.72,266.25,526,288.37l-38.31,22.11-38.3-22.11Zm-40.8,26.45,38.3,22.11V409l-38.3-22.12Z"/><polygon class="cls-2" points="961.55 686.91 961.55 688.36 961.55 778.86 966.55 778.86 966.55 692.69 1038.48 734.22 1038.48 728.44 969.05 688.36 1038.48 648.27 1038.48 642.5 962.8 686.19 961.55 686.91"/><path class="cls-2" d="M229.17,561.2l-1.25-.72-1.25.72L143.81,609V561.92l-1.25-.72-43.3-25L98,535.48l-1.25.72-43.3,25-1.25.72V664.81l1.25.72,43.3,25,1.25.72,1.25-.72,39.57-22.84v47.1l1.25.72,86.59,50,1.25.72,1.25-.72,86.59-50,1.25-.72V611.92l-1.25-.73ZM95.51,684l-38.3-22.12V567.7l38.3,22.11ZM98,585.48l-38.3-22.11L98,541.25l38.3,22.12Zm40.8,76.44L100.51,684V589.81l38.3-22.11ZM225.42,759l-81.59-47.1V617.69l81.59,47.1Zm2.5-98.54-81.59-47.1,81.59-47.11,81.59,47.11ZM312,711.9,230.42,759V664.79L312,617.69Z"/><path class="cls-2" d="M790.83,491.25l1.25-.72,43.3-25,1.25-.72V361.92l-1.25-.72-43.3-25-1.25-.72-1.25.72-43.3,25-1.25.72V464.81l1.25.72,43.3,25Zm40.8-29.33L793.33,484V389.81l38.3-22.11Zm-40.8-120.67,38.3,22.12-38.3,22.11-38.3-22.11ZM788.33,484,750,461.92V367.7l38.3,22.11Z"/><path class="cls-2" d="M54.71,516.25l1.25-.72,43.3-25,1.25-.72V386.92l-1.25-.72L56,361.2l-1.25-.72-1.25.72-43.3,25-1.25.72V489.81l1.25.72,43.3,25Zm40.8-29.33L57.21,509V414.81l38.3-22.11ZM54.71,366.25,93,388.37l-38.3,22.11-38.3-22.11ZM52.21,509l-38.3-22.12V392.7l38.3,22.11Z"/><path class="cls-2" d="M56,11.23l-1.25-.73-1.25.73L0,42.09v5.78L54.71,16.28l81.59,47.1L54.71,110.49,0,78.9v5.77l52.21,30.15V209L0,178.88v5.78l53.46,30.86,1.25.73,1.25-.73,86.59-50,1.25-.72V67.69l39.57,22.84,1.25.72,1.25-.72,43.3-25,1.25-.72V0h-5V61.92L187.12,84V0h-5V84L143.81,61.92V0h-5V59.06ZM138.8,161.92,57.21,209V114.82L138.8,67.71Z"/><path class="cls-2" d="M663.43,711.92l-1.25-.72-43.3-25-1.25-.72-1.25.72-43.3,25-1.25.72V759l-79.11-45.67,39.56-22.84,1.25-.72V636.92l-1.25-.72L489,611.2l-1.25-.72-1.25.72L446.92,634V542.7l39.55,22.83,3.75,2.17V461.92L489,461.2l-43.3-25L441.92,434V534L402.37,511.2l-1.25-.72-1.25.72-43.3,25-1.25.72V639.81l1.25.72,43.3,25,1.25.72,1.25-.72,39.55-22.83v47.11l1.25.72,39.55,22.84-82.83,47.82-1.25.73v16.94h5V767.69L423,778.86h10l-26.85-15.5,81.58-47.11,81.59,47.11-26.85,15.5h10l19.35-11.17v11.17h5V717.7l38.3,22.11v39.05h5V739.81l38.3-22.11v61.16h5V711.92ZM446.92,442.7l38.3,22.11V559l-38.3-22.12ZM398.62,659l-38.3-22.12V542.7l38.3,22.11Zm2.5-98.56-38.3-22.11,38.3-22.12,38.3,22.12Zm40.8,76.44L403.62,659V564.81l38.3-22.11ZM485.22,709l-38.3-22.12V642.7l38.3,22.11Zm-35.8-70.67,38.3-22.12L526,638.37l-38.31,22.11Zm40.8,26.44,38.31-22.11v44.22L490.22,709Zm127.41,70.67-38.3-22.11,38.3-22.12,38.3,22.12Z"/><path class="cls-2" d="M923.23,764.81V661.92L922,661.2l-43.3-25-1.25-.72-1.25.72-43.3,25-1.25.72V764.81l1.25.72L856,778.86h10l-29.34-16.94V667.7l38.3,22.11v89.05h5V689.81l38.3-22.11v94.22l-29.34,16.94h10L922,765.53Zm-45.8-79.33-38.3-22.11,38.3-22.12,38.3,22.12Z"/><path class="cls-2" d="M398.62,64.81l1.25.72,43.3,25,1.25.72,1.25-.72L485.22,67.7v97.11l1.25.72,43.31,25,1.25.72,1.25-.72,43.3-25,1.25-.72V61.92l-1.25-.72-43.3-25L531,35.48l-1.25.72L490.22,59V0h-5V61.92h0L446.92,84V0h-5V84l-38.3-22.12V0h-5V64.81Zm173.21,97.11L533.53,184V89.81l38.3-22.11ZM531,41.25l38.3,22.12L531,85.48,492.72,63.37ZM490.22,67.7l38.31,22.11V184l-38.31-22.12Z"/><path class="cls-2" d="M443.17,240.53l3.75,2.17V136.92l-1.25-.72-43.3-25L398.62,109V214.81l1.25.72ZM403.62,117.7l38.3,22.11V234l-38.3-22.12Z"/><polygon class="cls-2" points="1004.84 14.81 1006.09 15.53 1038.48 34.23 1038.48 28.46 1009.84 11.92 1009.84 0 1004.84 0 1004.84 13.37 1004.84 14.81"/><polygon class="cls-2" points="13.91 686.92 12.66 686.2 0 678.89 0 684.66 8.91 689.81 8.91 778.86 13.91 778.86 13.91 688.37 13.91 686.92"/><path class="cls-2" d="M532.28,486.2,528.53,484V589.79l1.25.72,86.58,50,3.75,2.16V536.92l-1.25-.73ZM615.11,634l-81.58-47.1V492.7l81.58,47.1Z"/><path class="cls-2" d="M874.93,334V439.79l1.25.72,86.59,50,3.75,2.16V386.91l-1.25-.72-86.59-50Zm5,8.66,81.59,47.1V484l-81.59-47.1Z"/><polygon class="cls-2" points="143.8 761.91 142.55 761.19 55.96 711.2 52.21 709.04 52.21 713.37 52.21 778.86 57.21 778.86 57.21 717.7 138.8 764.8 138.8 778.86 143.8 778.86 143.8 763.36 143.8 761.91"/><polygon class="cls-2" points="745.03 64.79 746.28 65.52 832.87 115.51 836.62 117.67 836.62 113.34 836.62 13.36 836.62 11.91 835.37 11.19 815.98 0 805.98 0 831.62 14.8 831.62 109.01 750.03 61.91 750.03 0 745.03 0 745.03 63.35 745.03 64.79"/><path class="cls-2" d="M961.54,536.92V642.7l3.75-2.17,43.3-25,1.25-.72V509l-3.75,2.16-43.3,25Zm5,2.89,38.3-22.11v94.22L966.54,634Z"/><path class="cls-2" d="M142.56,315.53l1.25-.72V209l-3.75,2.16-43.3,25-1.25.72V342.7l3.75-2.17Zm-42-75.72,38.3-22.11v94.22L100.51,334Z"/><polygon class="cls-2" points="360.32 734.04 356.57 736.2 313.27 761.2 312.02 761.92 312.02 763.37 312.02 778.86 317.02 778.86 317.02 764.81 355.32 742.7 355.32 778.86 360.32 778.86 360.32 738.37 360.32 734.04"/><path class="cls-2" d="M662.18,115.53l1.25-.72V9l-3.75,2.16-43.3,25-1.25.72V142.7l3.75-2.17Zm-42-75.72,38.3-22.11v94.22L620.13,134Z"/><path class="cls-2" d="M918.25,161.91V267.67l3.75-2.16,86.59-50,1.25-.72V109l-3.75,2.16-86.59,50Zm5,2.89,81.59-47.1v94.21L923.25,259Z"/><path class="cls-2" d="M313.27,411.22l-1.25.72V517.7l3.75-2.17,86.59-50,1.25-.72V359.06l-3.75,2.17Zm85.34,50.71L317,509V414.83l81.59-47.11Z"/></g></g></svg>