<svg xmlns="http://www.w3.org/2000/svg" viewBox="0 0 1038.48 778.86"><defs><style>.cls-1{fill:none;}.cls-2{fill:lime;}</style></defs><title>Element 46</title><g id="Ebene_2" data-name="Ebene 2"><g id="Ebene_1-2" data-name="Ebene 1"><path class="cls-1" d="M1018.52,714.47l20-20V376.63l-20-51.87h0V301.43h20V116.37l-20-51.87h0V41.18h20V0H1031a24.74,24.74,0,0,1-2.08,9.55h0L1006,64.5,983.1,9.55h0A24.74,24.74,0,0,1,981,0H956L931,65,906,0H731a24.86,24.86,0,0,1-2.09,10h0L706,65,683.1,10h0A24.86,24.86,0,0,1,681,0H581L556,64.93,531,0H281L256,65,231,0H131a24.86,24.86,0,0,1-2.09,10h0L106,65,83.1,10h0A24.86,24.86,0,0,1,81,0H0V301.43H18.52v23.33L0,372.88V690.35a25,25,0,0,1,18.52,24.14,24.86,24.86,0,0,1-2.09,10h0L0,763.91v15H68.3L43.52,714.47l25-25,25,25L68.74,778.86H143.3l-24.78-64.39,25-25,25,25-24.78,64.39H231V756.1h50v22.76h12.29l-24.79-64.39h0V691.15h50v23.32l-24.78,64.39h74.55L345.6,724.47h0a25,25,0,1,1,45.82,0h0l-22.69,54.39H443.3l-24.78-64.39,25-25,25,25-24.78,64.39H456V756.1h50v22.76H668.29L645.6,724.47h0a25,25,0,1,1,45.82,0h0l-22.69,54.39H681V756.12h50v22.74h87.26L795.6,724.49h0a25,25,0,1,1,45.82,0h0l-22.68,54.37h12.82L856,754.42l24.44,24.44H906a25,25,0,0,1,50,0h12.28L945.6,724.47h0a25,25,0,1,1,45.82,0h0l-22.69,54.39h69.73V766.34ZM568.52,65V41.63h50V65l-25,65L568.52,65ZM531,259.81V236.48h50v23.33l-25,64.95-25-64.95Zm12.5,64.95a24.86,24.86,0,0,1-2.09,10h0l-22.92,54.95L495.6,334.76h0a25,25,0,1,1,47.91-10ZM506,129.9a24.86,24.86,0,0,1-2.09,10h0l-22.92,55-22.92-55h0a25,25,0,1,1,47.91-10Zm-37.5,41.63v23.33l-25,64.95-25-64.95h0V171.53Zm-25-131.6,25,25-25,64.95-25-64.95Zm-37.5,65,25,25-25,65-25-65Zm-12.5,219.86a24.86,24.86,0,0,1-2.09,10h0l-22.92,54.95L345.6,334.76h0a25,25,0,1,1,47.91-10Zm-39.58,74.95-22.92,55-22.92-55h0a25,25,0,1,1,45.82,0Zm-60.42-10-25-64.95h0V301.43h50v23.33ZM356,259.81l-25,64.95-25-64.95,25-25ZM293.52,40a25,25,0,0,1,22.91,35h0l-22.92,55L270.6,75h0a25,25,0,0,1,22.91-35Zm-37.5,65,25,25-25,65-25-65Zm-12.5,90a24.94,24.94,0,0,1-2.09,10h0l-22.92,54.95L195.6,204.86h0a25,25,0,1,1,47.91-10Zm-62.5-90,25,25-25,65-25-65Zm-12.5,219.86-25,64.95-25-64.95,25-25ZM56,519.62l-25,65-25-65H6V496.29H56ZM53.93,399.71h0L31,454.66l-22.92-55h0a25,25,0,1,1,45.82,0Zm0-129.9h0L31,324.76,8.1,269.81h0a25,25,0,1,1,45.82,0ZM45.6,75h0a25,25,0,1,1,45.82,0h0l-22.92,55ZM81,129.9V106.58h50V129.9l-25,65-25-65Zm25,324.76-25-65,25-25,25,25Zm12.5,129.91,25-25,25,25-25,64.95ZM181,714.5l-25-65,25-25,25,25Zm25-324.79-25,65-25-65h0V366.39h50Zm12.5,0-25-64.95h0V301.43h50v23.33Zm60.42,269.81-22.92,55-22.92-55h0a25,25,0,1,1,45.82,0ZM270.6,464.66h0a25,25,0,1,1,45.82,0h0l-22.92,55ZM356,649.52l-25,65-25-65h0V626.19h50Zm37.5-64.95-25,64.95-25-64.95h0V561.24h50Zm0-129.91-25,65-25-65h0V431.34h50Zm-12.5-65,25-25,25,25-25,65Zm62.5,129.91-22.92-55h0a25,25,0,1,1,45.82,0h0Zm62.5,0-25,65-25-65h0V496.29h50Zm-12.5-65,25-25,25,25-25,65Zm62.5,40a25,25,0,0,1,22.91,35h0l-22.92,55-22.92-55h0a25,25,0,0,1,22.91-35Zm22.92,164.92L556,714.5l-22.92-55h0a25,25,0,1,1,45.82,0Zm39.58-75-25,64.95-25-64.95h0V561.24h50Zm-25-194.86-25-64.95,25-25,25,25Zm22.91-184.83h0l-22.92,54.95L570.6,204.88h0a25,25,0,1,1,45.82,0Zm377.09-10a24.94,24.94,0,0,1-2.09,10h0l-22.92,54.95L945.6,204.86h0a25,25,0,1,1,47.91-10Zm-125,0a25,25,0,1,1,47.91,10h0l-22.92,54.95L870.6,204.86h0A24.94,24.94,0,0,1,868.52,194.86ZM906,259.81V236.48h50v23.33l-25,64.95-25-64.95ZM956,129.9a24.86,24.86,0,0,1-2.09,10h0l-22.92,55-22.92-55h0a25,25,0,1,1,47.91-10ZM868.52,65V41.63h50V65l-25,65L868.52,65Zm12.5,65-25,65-25-65,25-25ZM818.52,40a25,25,0,0,1,22.91,35h0l-22.92,55L795.6,75h0a25,25,0,0,1,22.91-35Zm0,130.35,25,25-25,65-25-65ZM706,104.9a25,25,0,0,1,22.91,35h0l-22.92,55-22.92-55h0a25,25,0,0,1,22.91-35Zm-37.5,65,25,25-25,64.95-25-64.95Zm-25,154.9V301.43h50v23.33l-25,64.95-25-64.95Zm0,129.88h0V431.31h50v23.33l-25,65Zm37.5,65V496.29h50v23.33l-25,65-25-65Zm47.91,139.92h0L706,714.5l-22.92-55h0a25,25,0,1,1,45.82,0Zm0-389.71h0L706,324.78,683.1,269.83h0a25,25,0,1,1,45.82,0Zm-10.41-75h0V171.53h50v23.33l-25,64.95ZM781,364.71a25,25,0,0,1,22.91,35h0l-22.92,55-22.92-55h0a25,25,0,0,1,22.91-35Zm0,349.76-25-65,25-25,25,25Zm14.58-119.9h0a25,25,0,1,1,45.82,0h0l-22.92,54.95ZM881,649.52l-25,65-25-65h0V626.19h50Zm-2.09-119.9h0l-22.92,55-22.92-55h0a25,25,0,1,1,45.82,0ZM868.52,324.76l25-25,25,25-25,64.95ZM931,454.66l-25-65h0V366.39h50v23.32Zm37.5,194.86-25-64.95,25-25,25,25Zm14.58-119.9h0a25,25,0,1,1,45.82,0h0l-22.92,55Z"/><path class="cls-2" d="M316.43,464.66a25,25,0,1,0-45.82,0h0l22.92,55,22.92-55Z"/><path class="cls-2" d="M343.52,324.76a24.86,24.86,0,0,0,2.09,10h0l22.92,54.95,22.92-54.95h0a25,25,0,1,0-47.91-10Z"/><path class="cls-2" d="M758.1,399.71l22.92,55,22.92-55h0a25,25,0,1,0-45.82,0Z"/><path class="cls-2" d="M706,234.83a25,25,0,0,0-22.91,35h0L706,324.78l22.92-54.95h0a25,25,0,0,0-22.91-35Z"/><path class="cls-2" d="M31,234.81a25,25,0,0,0-22.91,35h0L31,324.76l22.92-54.95h0a25,25,0,0,0-22.91-35Z"/><path class="cls-2" d="M556,624.54a25,25,0,0,0-22.91,35h0l22.92,55,22.92-55h0a25,25,0,0,0-22.91-35Z"/><path class="cls-2" d="M691.43,724.47a25,25,0,1,0-45.82,0h0l22.69,54.39h.46l22.69-54.39Z"/><path class="cls-2" d="M391.43,724.47a25,25,0,1,0-45.82,0h0l22.69,54.39h.46l22.69-54.39Z"/><path class="cls-2" d="M331,364.71a25,25,0,0,0-22.91,35h0l22.92,55,22.92-55h0a25,25,0,0,0-22.91-35Z"/><path class="cls-2" d="M1028.93,529.62a25,25,0,1,0-45.82,0h0l22.92,55,22.92-55Z"/><polygon class="cls-2" points="343.52 454.66 343.52 454.66 368.52 519.62 393.52 454.66 393.52 431.34 343.52 431.34 343.52 454.66"/><polygon class="cls-2" points="618.52 64.95 618.52 41.63 568.52 41.63 568.52 64.95 568.52 64.95 593.52 129.9 618.52 64.95"/><polygon class="cls-2" points="581.02 259.81 581.02 236.48 531.02 236.48 531.02 259.81 531.02 259.81 556.02 324.76 581.02 259.81"/><path class="cls-2" d="M83.1,10,106,65,128.94,10h0A24.86,24.86,0,0,0,131,0H81a24.86,24.86,0,0,0,2.09,10Z"/><path class="cls-2" d="M91.43,75a25,25,0,1,0-45.82,0h0l22.92,55L91.44,75Z"/><polygon class="cls-2" points="131.02 129.9 131.02 106.58 81.02 106.58 81.02 129.9 81.02 129.9 106.02 194.86 131.02 129.9"/><path class="cls-2" d="M856,494.62a25,25,0,0,0-22.91,35h0l22.92,55,22.92-55h0a25,25,0,0,0-22.91-35Z"/><path class="cls-2" d="M841.43,594.57a25,25,0,1,0-45.82,0h0l22.92,54.95,22.92-54.95Z"/><polygon class="cls-2" points="831.02 649.52 831.02 649.52 856.02 714.47 881.02 649.52 881.02 626.19 831.02 626.19 831.02 649.52"/><polygon class="cls-2" points="456.02 519.62 456.02 519.62 481.02 584.57 506.02 519.62 506.02 496.29 456.02 496.29 456.02 519.62"/><rect class="cls-2" x="231.02" y="756.1" width="50" height="22.77"/><polygon class="cls-2" points="306.02 649.52 306.02 649.52 331.02 714.47 356.02 649.52 356.02 626.19 306.02 626.19 306.02 649.52"/><polygon class="cls-2" points="406.02 364.71 381.02 389.71 406.02 454.66 431.02 389.71 406.02 364.71"/><path class="cls-2" d="M795.6,75l22.92,55L841.44,75h0a25,25,0,1,0-45.82,0Z"/><path class="cls-2" d="M683.1,139.9l22.92,55,22.92-55h0a25,25,0,1,0-45.82,0Z"/><path class="cls-2" d="M593.52,169.88a25,25,0,0,0-22.91,35h0l22.92,54.95,22.92-54.95h0a25,25,0,0,0-22.91-35Z"/><polygon class="cls-2" points="918.52 64.95 918.52 41.63 868.52 41.63 868.52 64.95 868.52 64.95 893.52 129.9 918.52 64.95"/><polygon class="cls-2" points="956.02 0 906.02 0 931.02 64.95 956.02 0"/><polygon class="cls-2" points="206.02 129.9 181.02 104.9 156.02 129.9 181.02 194.86 206.02 129.9"/><polygon class="cls-2" points="143.52 559.57 118.52 584.57 143.52 649.52 168.52 584.57 143.52 559.57"/><polygon class="cls-2" points="831.58 778.86 880.46 778.86 856.02 754.42 831.58 778.86"/><polygon class="cls-2" points="331.02 324.76 356.02 259.81 331.02 234.81 306.02 259.81 331.02 324.76"/><polygon class="cls-2" points="143.52 689.47 118.52 714.47 143.31 778.86 143.74 778.86 168.52 714.47 143.52 689.47"/><polygon class="cls-2" points="956.02 366.39 906.02 366.39 906.02 389.71 906.02 389.71 931.02 454.66 956.02 389.71 956.02 366.39"/><polygon class="cls-2" points="693.52 324.76 693.52 301.43 643.52 301.43 643.52 324.76 643.52 324.76 668.52 389.71 693.52 324.76"/><polygon class="cls-2" points="1018.52 324.76 1018.52 324.76 1038.48 376.63 1038.48 301.43 1018.52 301.43 1018.52 324.76"/><polygon class="cls-2" points="568.52 584.57 568.52 584.57 593.52 649.52 618.52 584.57 618.52 561.24 568.52 561.24 568.52 584.57"/><polygon class="cls-2" points="893.52 299.76 868.52 324.76 893.52 389.71 918.52 324.76 893.52 299.76"/><polygon class="cls-2" points="418.52 194.85 418.52 194.85 443.52 259.81 468.52 194.85 468.52 171.53 418.52 171.53 418.52 194.85"/><polygon class="cls-2" points="431.02 129.9 406.02 104.9 381.02 129.9 406.02 194.86 431.02 129.9"/><polygon class="cls-2" points="156.02 389.71 156.02 389.71 181.02 454.66 206.02 389.71 206.02 366.39 156.02 366.39 156.02 389.71"/><polygon class="cls-2" points="318.52 301.43 268.52 301.43 268.52 324.76 268.52 324.76 293.52 389.71 318.52 324.76 318.52 301.43"/><path class="cls-2" d="M931,754.42a25,25,0,0,0-25,24.44h50A25,25,0,0,0,931,754.42Z"/><path class="cls-2" d="M991.43,724.47a25,25,0,1,0-45.82,0h0l22.69,54.39h.46l22.69-54.39Z"/><polygon class="cls-2" points="1038.48 766.34 1038.48 694.51 1018.52 714.47 1038.48 766.34"/><polygon class="cls-2" points="943.52 584.57 968.52 649.52 993.52 584.57 968.52 559.57 943.52 584.57"/><path class="cls-2" d="M983.1,9.55l22.92,55,22.92-54.95h0A24.74,24.74,0,0,0,1031,0H981a24.74,24.74,0,0,0,2.08,9.55Z"/><polygon class="cls-2" points="1018.52 64.5 1018.52 64.5 1038.48 116.37 1038.48 41.18 1018.52 41.18 1018.52 64.5"/><polygon class="cls-2" points="843.52 195.31 818.52 170.31 793.52 195.31 818.52 260.26 843.52 195.31"/><path class="cls-2" d="M906,129.9a24.86,24.86,0,0,0,2.09,10h0l22.92,55,22.92-55h0a25,25,0,1,0-47.91-10Z"/><path class="cls-2" d="M893.52,259.81l22.92-54.95h0a25,25,0,1,0-45.82,0h0Z"/><polygon class="cls-2" points="956.02 259.81 956.02 236.48 906.02 236.48 906.02 259.81 906.02 259.81 931.02 324.76 956.02 259.81"/><polygon class="cls-2" points="568.52 324.76 593.52 389.71 618.52 324.76 593.52 299.76 568.52 324.76"/><polygon class="cls-2" points="768.52 171.53 718.52 171.53 718.52 194.85 718.52 194.85 743.52 259.81 768.52 194.85 768.52 171.53"/><polygon class="cls-2" points="856.02 194.86 881.02 129.9 856.02 104.9 831.02 129.9 856.02 194.86"/><polygon class="cls-2" points="143.52 389.71 168.52 324.76 143.52 299.76 118.52 324.76 143.52 389.71"/><rect class="cls-2" x="456.02" y="756.1" width="50" height="22.77"/><polygon class="cls-2" points="443.52 689.47 418.52 714.47 443.31 778.86 443.74 778.86 468.52 714.47 443.52 689.47"/><path class="cls-2" d="M31,364.71a25,25,0,0,0-22.91,35h0l22.92,55,22.92-55h0a25,25,0,0,0-22.91-35Z"/><polygon class="cls-2" points="6.02 519.62 6.02 519.62 31.02 584.57 56.02 519.62 56.02 496.29 6.02 496.29 6.02 519.62"/><polygon class="cls-2" points="18.52 301.43 0 301.43 0 372.88 18.52 324.76 18.52 301.43"/><polygon class="cls-2" points="106.02 364.71 81.02 389.71 106.02 454.66 131.02 389.71 106.02 364.71"/><polygon class="cls-2" points="693.52 194.86 668.52 169.86 643.52 194.86 668.52 259.81 693.52 194.86"/><path class="cls-2" d="M683.1,10,706,65,728.94,10h0A24.86,24.86,0,0,0,731,0H681a24.86,24.86,0,0,0,2.09,10Z"/><polygon class="cls-2" points="581.01 0 531.03 0 556.02 64.93 581.01 0"/><polygon class="cls-2" points="281.02 0 231.02 0 256.02 64.95 281.02 0"/><polygon class="cls-2" points="243.52 301.43 193.52 301.43 193.52 324.76 193.52 324.76 218.52 389.71 243.52 324.76 243.52 301.43"/><path class="cls-2" d="M193.52,194.86a24.94,24.94,0,0,0,2.09,10h0l22.92,54.95,22.92-54.95h0a25,25,0,1,0-47.91-10Z"/><path class="cls-2" d="M493.52,324.76a24.86,24.86,0,0,0,2.09,10h0l22.92,54.95,22.92-54.95h0a25,25,0,1,0-47.91-10Z"/><polygon class="cls-2" points="731.02 519.62 731.02 496.29 681.02 496.29 681.02 519.62 681.02 519.62 706.02 584.57 731.02 519.62"/><polygon class="cls-2" points="693.52 431.31 643.52 431.31 643.52 454.64 643.52 454.64 668.52 519.59 693.52 454.64 693.52 431.31"/><path class="cls-2" d="M270.6,75l22.92,55L316.44,75h0a25,25,0,1,0-45.82,0Z"/><polygon class="cls-2" points="343.52 584.57 343.52 584.57 368.52 649.52 393.52 584.57 393.52 561.24 343.52 561.24 343.52 584.57"/><path class="cls-2" d="M533.1,529.62l22.92,55,22.92-55h0a25,25,0,1,0-45.82,0Z"/><path class="cls-2" d="M466.43,464.66a25,25,0,1,0-45.82,0h0l22.92,55,22.92-55Z"/><polygon class="cls-2" points="518.52 429.64 493.52 454.64 518.52 519.59 543.52 454.64 518.52 429.64"/><rect class="cls-2" x="681.02" y="756.12" width="50" height="22.74"/><path class="cls-2" d="M841.43,724.49a25,25,0,1,0-45.82,0h0l22.68,54.37h.48l22.68-54.37Z"/><path class="cls-2" d="M706,624.54a25,25,0,0,0-22.91,35h0l22.92,55,22.92-55h0a25,25,0,0,0-22.91-35Z"/><polygon class="cls-2" points="756.02 649.52 781.02 714.47 806.02 649.52 781.02 624.52 756.02 649.52"/><path class="cls-2" d="M16.43,724.49a24.86,24.86,0,0,0,2.09-10A25,25,0,0,0,0,690.35v73.56l16.44-39.42Z"/><path class="cls-2" d="M943.52,194.86a24.94,24.94,0,0,0,2.09,10h0l22.92,54.95,22.92-54.95h0a25,25,0,1,0-47.91-10Z"/><polygon class="cls-2" points="68.52 689.47 43.52 714.47 68.31 778.86 68.74 778.86 93.52 714.47 68.52 689.47"/><path class="cls-2" d="M456,129.9a24.86,24.86,0,0,0,2.09,10h0l22.92,55,22.92-55h0a25,25,0,1,0-47.91-10Z"/><polygon class="cls-2" points="468.52 64.93 443.52 39.93 418.52 64.93 443.52 129.88 468.52 64.93"/><polygon class="cls-2" points="281.02 129.9 256.02 104.9 231.02 129.9 256.02 194.86 281.02 129.9"/><polygon class="cls-2" points="156.02 649.54 181.02 714.5 206.02 649.54 181.02 624.54 156.02 649.54"/><path class="cls-2" d="M256,624.52a25,25,0,0,0-22.91,35h0l22.92,55,22.92-55h0a25,25,0,0,0-22.91-35Z"/><polygon class="cls-2" points="318.52 691.15 268.52 691.15 268.52 714.47 268.52 714.47 293.31 778.86 293.74 778.86 318.52 714.47 318.52 691.15"/></g></g></svg>