<svg xmlns="http://www.w3.org/2000/svg" viewBox="0 0 1038.48 778.86"><defs><style>.cls-1{fill:none;}.cls-2{fill:lime;}</style></defs><title>Element 45</title><g id="Ebene_2" data-name="Ebene 2"><g id="Ebene_1-2" data-name="Ebene 1"><polygon class="cls-1" points="15.52 304.43 0 304.43 0 364.52 15.52 324.2 15.52 304.43"/><rect class="cls-1" x="234.02" y="759.1" width="44" height="19.77"/><path class="cls-1" d="M11.89,727.49l1.79-4.19a21.84,21.84,0,0,0,1.84-8.81A22,22,0,0,0,0,693.47v62.65l11.94-28.63Z"/><polygon class="cls-1" points="68.52 693.71 47.02 715.21 68.52 771.07 90.02 715.21 68.52 693.71"/><path class="cls-1" d="M49.44,272.81h0l1.79-4.2A22,22,0,1,0,9,259.81a21.83,21.83,0,0,0,1.84,8.8l1.83,4.2h-.08L31,317Z"/><polygon class="cls-1" points="143.52 693.71 122.02 715.21 143.52 771.07 165.02 715.21 143.52 693.71"/><path class="cls-1" d="M368.52,692.47a22,22,0,0,0-20.16,30.8l1.83,4.2h-.08l18.41,44.16,18.42-44.16h-.05l1.79-4.19a22,22,0,0,0-20.16-30.81Z"/><polygon class="cls-1" points="353.02 648.96 353.02 629.19 309.02 629.19 309.02 648.96 331.02 706.12 353.02 648.96"/><polygon class="cls-1" points="445.88 778.86 454.02 778.86 454.02 757.71 445.88 778.86"/><polygon class="cls-1" points="271.52 713.91 293.52 771.07 315.52 713.91 315.52 694.15 271.52 694.15 271.52 713.91"/><path class="cls-1" d="M274.39,662.52l1.79-4.2a22,22,0,1,0-40.32,0l1.83,4.2h-.08L256,706.68l18.42-44.16Z"/><polygon class="cls-1" points="390.52 584.01 390.52 564.24 346.52 564.24 346.52 584.01 368.52 641.17 390.52 584.01"/><rect class="cls-1" x="459.02" y="759.1" width="44" height="19.77"/><polygon class="cls-1" points="1021.52 324.2 1038.48 368.27 1038.48 304.43 1021.52 304.43 1021.52 324.2"/><polygon class="cls-1" points="1021.52 63.95 1038.48 108.02 1038.48 44.18 1021.52 44.18 1021.52 63.95"/><path class="cls-1" d="M1031.94,7.55l-1.15,2.77-12,28.86h19.73V0H1033a26.7,26.7,0,0,1-1.19,7.55Z"/><path class="cls-1" d="M987.69,12.55h-.08L1006,56.71l18.42-44.16h0l1.79-4.2A21.85,21.85,0,0,0,1028,0H984a21.85,21.85,0,0,0,1.83,8.35Z"/><path class="cls-1" d="M87.69,13h-.08L106,57.16,124.44,13h0l1.79-4.19A21.91,21.91,0,0,0,128,0H84a21.83,21.83,0,0,0,1.84,8.8Z"/><polygon class="cls-1" points="1038.48 757.99 1038.48 698.75 1022.02 715.21 1038.48 757.99"/><polygon class="cls-1" points="443.52 693.71 422.02 715.21 443.52 771.07 465.02 715.21 443.52 693.71"/><polygon class="cls-1" points="931.02 56.6 952.52 0.74 951.78 0 910.26 0 909.52 0.74 931.02 56.6"/><polygon class="cls-1" points="577.79 0 534.24 0 556.02 56.58 577.79 0"/><polygon class="cls-1" points="277.81 0 234.24 0 256.02 56.6 277.81 0"/><polygon class="cls-1" points="615.52 64.39 615.52 44.63 571.52 44.63 571.52 64.39 593.52 121.55 615.52 64.39"/><polygon class="cls-1" points="871.52 64.39 893.52 121.55 915.52 64.39 915.52 44.63 871.52 44.63 871.52 64.39"/><path class="cls-1" d="M687.69,13h-.08L706,57.16,724.44,13h-.05l1.79-4.19A21.91,21.91,0,0,0,728,0H684a21.83,21.83,0,0,0,1.84,8.8Z"/><polygon class="cls-1" points="283.02 778.86 291.16 778.86 283.02 757.71 283.02 778.86"/><polygon class="cls-1" points="202.52 130.65 181.02 109.15 159.52 130.65 181.02 186.5 202.52 130.65"/><polygon class="cls-1" points="728.02 519.06 728.02 499.29 684.02 499.29 684.02 519.06 706.02 576.22 728.02 519.06"/><polygon class="cls-1" points="128.02 129.35 128.02 109.58 84.02 109.58 84.02 129.35 106.02 186.5 128.02 129.35"/><polygon class="cls-1" points="878.02 648.96 878.02 629.19 834.02 629.19 834.02 648.96 856.02 706.12 878.02 648.96"/><polygon class="cls-1" points="331.02 316.41 352.52 260.55 331.02 239.05 309.52 260.55 331.02 316.41"/><path class="cls-1" d="M760.86,398.51l1.83,4.2h-.08L781,446.87l18.42-44.16h-.05l1.79-4.19a22,22,0,1,0-40.32,0Z"/><polygon class="cls-1" points="840.02 196.05 818.52 174.55 797.02 196.05 818.52 251.91 840.02 196.05"/><path class="cls-1" d="M275.19,78h-.08l18.41,44.16L311.94,78h-.05l1.79-4.19a22,22,0,1,0-40.32,0Z"/><polygon class="cls-1" points="759.52 650.26 781.02 706.12 802.52 650.26 781.02 628.76 759.52 650.26"/><polygon class="cls-1" points="856.02 186.5 877.52 130.65 856.02 109.15 834.52 130.65 856.02 186.5"/><path class="cls-1" d="M836.89,597.57l1.79-4.2a22,22,0,1,0-40.32,0l1.83,4.2h-.08l18.41,44.16,18.42-44.16Z"/><polygon class="cls-1" points="143.52 563.81 122.02 585.31 143.52 641.17 165.02 585.31 143.52 563.81"/><path class="cls-1" d="M873.36,203.65l1.83,4.21h-.08L893.52,252l18.42-44.15h-.05l1.79-4.2a22,22,0,1,0-40.32,0Z"/><polygon class="cls-1" points="106.02 368.95 84.52 390.45 106.02 446.31 127.52 390.45 106.02 368.95"/><path class="cls-1" d="M800.19,78h-.08l18.41,44.16L836.94,78h-.05l1.79-4.19a22,22,0,1,0-40.32,0Z"/><path class="cls-1" d="M706,627.54a22,22,0,0,0-20.16,30.8l1.83,4.2h-.08L706,706.7l18.42-44.16h-.05l1.79-4.19A22,22,0,0,0,706,627.54Z"/><path class="cls-1" d="M86.89,78l1.79-4.19a22,22,0,1,0-40.32,0L50.19,78h-.08l18.41,44.16L86.94,78Z"/><polygon class="cls-1" points="578.02 259.25 578.02 239.48 534.02 239.48 534.02 259.25 556.02 316.41 578.02 259.25"/><path class="cls-1" d="M556,627.54a22,22,0,0,0-22,22,21.8,21.8,0,0,0,1.84,8.8l1.83,4.2h-.08L556,706.7l18.42-44.16h-.05l1.79-4.19A22,22,0,0,0,556,627.54Z"/><polygon class="cls-1" points="615.52 584.01 615.52 564.24 571.52 564.24 571.52 584.01 593.52 641.17 615.52 584.01"/><path class="cls-1" d="M706,237.83a22,22,0,0,0-20.16,30.8l1.83,4.2h-.08L706,317l18.42-44.16h-.05l1.79-4.19A22,22,0,0,0,706,237.83Z"/><path class="cls-1" d="M574.39,532.62l1.79-4.2a22,22,0,1,0-40.32,0l1.83,4.21h-.08L556,576.77l18.42-44.15Z"/><polygon class="cls-1" points="465.52 194.3 465.52 174.53 421.52 174.53 421.52 194.3 443.52 251.46 465.52 194.3"/><path class="cls-1" d="M499.44,142.9h-.05l1.79-4.19a22,22,0,1,0-40.32,0l1.83,4.2h-.08L481,187.06Z"/><path class="cls-1" d="M724.39,142.9l1.79-4.19a22,22,0,1,0-40.32,0l1.83,4.2h-.08L706,187.06l18.42-44.16Z"/><polygon class="cls-1" points="465.02 65.67 443.52 44.17 422.02 65.67 443.52 121.53 465.02 65.67"/><polygon class="cls-1" points="690.52 434.31 646.52 434.31 646.52 454.08 668.52 511.24 690.52 454.08 690.52 434.31"/><path class="cls-1" d="M611.94,207.88h-.05l1.79-4.19a22,22,0,1,0-40.32,0l1.83,4.2h-.08L593.52,252Z"/><polygon class="cls-1" points="427.52 130.65 406.02 109.15 384.52 130.65 406.02 186.5 427.52 130.65"/><polygon class="cls-1" points="159.52 650.29 181.02 706.14 202.52 650.29 181.02 628.79 159.52 650.29"/><polygon class="cls-1" points="271.52 324.2 293.52 381.36 315.52 324.2 315.52 304.43 271.52 304.43 271.52 324.2"/><polygon class="cls-1" points="646.52 324.2 668.52 381.36 690.52 324.2 690.52 304.43 646.52 304.43 646.52 324.2"/><path class="cls-1" d="M348.36,333.56l1.83,4.2h-.08l18.41,44.16,18.42-44.16h-.05l1.79-4.2a22,22,0,1,0-40.32,0Z"/><polygon class="cls-1" points="721.52 194.3 743.52 251.46 765.52 194.3 765.52 174.53 721.52 174.53 721.52 194.3"/><path class="cls-1" d="M498.36,333.56l1.83,4.2h-.08l18.41,44.16,18.42-44.16h-.05l1.79-4.2a22,22,0,1,0-40.32,0Z"/><path class="cls-1" d="M461.89,467.66l1.79-4.19a22,22,0,1,0-40.32,0l1.83,4.2h-.08l18.41,44.16,18.42-44.16Z"/><path class="cls-1" d="M931,757.42a22,22,0,0,0-22,21.44h44A22,22,0,0,0,931,757.42Z"/><polygon class="cls-1" points="346.52 454.11 368.52 511.26 390.52 454.11 390.52 434.34 346.52 434.34 346.52 454.11"/><polygon class="cls-1" points="459.02 519.06 481.02 576.22 503.02 519.06 503.02 499.29 459.02 499.29 459.02 519.06"/><polygon class="cls-1" points="953.02 259.25 953.02 239.48 909.02 239.48 909.02 259.25 931.02 316.41 953.02 259.25"/><path class="cls-1" d="M968.52,692.47a22,22,0,0,0-20.16,30.8l1.83,4.2h-.08l18.41,44.16,18.42-44.16h-.05l1.79-4.19a22,22,0,0,0-20.16-30.81Z"/><polygon class="cls-1" points="406.02 368.95 384.52 390.45 406.02 446.31 427.52 390.45 406.02 368.95"/><polygon class="cls-1" points="835.82 778.86 876.22 778.86 856.02 758.67 835.82 778.86"/><path class="cls-1" d="M1006,497.62a22,22,0,0,0-22,22,21.75,21.75,0,0,0,1.84,8.79l1.83,4.21h-.08L1006,576.77l18.42-44.15h0l1.79-4.2a22,22,0,0,0-20.16-30.8Z"/><rect class="cls-1" x="684.02" y="759.12" width="44" height="19.74"/><polygon class="cls-1" points="670.92 778.86 679.02 778.86 679.02 759.45 670.92 778.86"/><polygon class="cls-1" points="572.02 325.5 593.52 381.36 615.02 325.5 593.52 304 572.02 325.5"/><path class="cls-1" d="M818.52,692.49a22,22,0,0,0-22,22,21.76,21.76,0,0,0,1.84,8.8l1.83,4.2h-.08l18.41,44.16,18.42-44.16h-.05l1.79-4.19a22,22,0,0,0-20.16-30.81Z"/><polygon class="cls-1" points="518.52 433.88 497.02 455.38 518.52 511.24 540.02 455.38 518.52 433.88"/><path class="cls-1" d="M1016.19,714l22.29-22.3V382.19l-22-57.06v-25.7h22V121.94l-22-57.07V44.52L1006,69.7,981.26,10.32A26.86,26.86,0,0,1,979,0H958.16L931,70.52l-10.5-27.28V65.32l-27,70.15-27-70.15V39.63h52.61L903.88,0H733a26.61,26.61,0,0,1-1.21,8h.13l-1.15,2.77L706,70.15,681.26,10.77A26.82,26.82,0,0,1,679,0h-8.37l-2.13,5.54L666.39,0h-70.7l-2.17,5.2L591.35,0H583V.35L567.9,39.63h52.62V65.32l-27,70.15-27-70.15V43.22L556,70.5,529,.35V0H283V.37L256,70.52,229,.37V0h-8.37l-2.13,5.54L216.39,0H133a26.61,26.61,0,0,1-1.21,8h.13l-1.15,2.77L106,70.15,81.26,10.77A26.82,26.82,0,0,1,79,0H0V299.43H18.29l-12-28.85A27,27,0,1,1,58,259.81a26.61,26.61,0,0,1-1.21,8h.13l-1.15,2.77L31,330l-10.5-25.18v20.35L0,378.44V688.29a27,27,0,0,1,20.52,26.2,26.61,26.61,0,0,1-1.21,8h.13l-1.15,2.77L0,769.11v9.75H66.16L41.19,714l27.33-27.34L95.85,714l-25,64.88h70.28l-25-64.88,27.33-27.34L170.85,714l-25,64.88H229V754.1h52.61l-15.11-39.26V694.49L256,719.67l-24.76-59.38a27,27,0,1,1,50.55-2.77h.13l-1.15,2.77-12,28.86h50.38L304,649.89v-25.7h52.61l-15.11-39.25v-25.7h54v25.7l-27,70.15L358,627.81v22.08L331,720l-10.5-27.28v22.08l-24.64,64h70.24l-22.36-53.62a27,27,0,1,1,50.55-2.77h.13l-1.15,2.77-22.37,53.62h70.24l-25-64.88,27.33-27.34L470.85,714,455.41,754.1H508v24.76h158.1l-22.36-53.62a27,27,0,1,1,50.55-2.77h.12l-1.14,2.77-12,28.88H733v24.74h83.09l-22.35-53.6a27,27,0,1,1,50.55-2.77h.13l-1.15,2.77-22.36,53.6h7.82L856,751.59l27.27,27.27H904a27,27,0,0,1,54,0h8.11l-22.36-53.62a27,27,0,1,1,50.55-2.77h.12l-1.14,2.77-22.37,53.62h67.56v-7ZM58,520,31,590.14,4,520v-25.7H58ZM56.81,397.71h.13l-1.15,2.77L31,459.86,6.26,400.48A27,27,0,1,1,58,389.71,26.61,26.61,0,0,1,56.81,397.71ZM931,102.9a27,27,0,0,1,25.79,35h.12l-1.15,2.77L931,200.05l-24.76-59.38A27,27,0,0,1,931,102.9Zm-10.5,92a26.71,26.71,0,0,1-1.21,8h.13l-1.15,2.77-12,28.85h49.54l-12-28.85a27,27,0,1,1,50.55-2.77h.12l-1.14,2.77L968.52,265,958,239.82v20.36l-27,70.15-27-70.15V239.83L893.52,265l-24.76-59.37a27,27,0,1,1,51.76-10.77Zm-37.17-65.45-27.33,71-27.33-71L856,102.08ZM818.52,38a27,27,0,0,1,25.79,35h.12l-1.14,2.77L818.52,135.1,793.76,75.72A27,27,0,0,1,818.52,38Zm0,129.53,27.33,27.33-27.33,71-27.33-71ZM808,389.71a26.93,26.93,0,0,1-1.21,8h.12l-1.15,2.77L781,459.86l-24.76-59.38A27,27,0,1,1,808,389.71ZM529,234.48h51.76l-12-28.83a27,27,0,1,1,50.55-2.77h.13l-1.15,2.77L593.52,265,583,239.85v20.33l-27,70.15-27-70.15Zm16.5,90.28a26.93,26.93,0,0,1-1.21,8h.12l-1.15,2.77-24.76,59.38-24.76-59.38a27,27,0,1,1,51.76-10.77ZM443.52,37.1l27.33,27.33-27.33,71-27.33-71Zm-37.5,65,27.33,27.33-15.44,40.12h50.38l-12-28.86a27,27,0,1,1,50.55-2.77h.13l-1.15,2.77L481,200.05l-10.5-25.18v20.36l-27,70.15-27-70.15V173.14L406,200.42l-27.33-71Zm-10.5,222.68a26.61,26.61,0,0,1-1.21,8h.13l-1.15,2.77-24.77,59.38-24.76-59.38a27,27,0,1,1,51.76-10.77Zm-37.17-65.45-27.33,71-10.5-27.28v22.08l-27,70.15-27-70.15v-25.7h52.61l-15.44-40.12L331,232ZM293.52,38a27,27,0,0,1,27,27,26.61,26.61,0,0,1-1.21,8h.13l-1.15,2.77L293.52,135.1,268.76,75.72A27,27,0,0,1,293.52,38ZM181,102.08l27.33,27.33-27.33,71-27.33-71ZM43.76,75.72A27,27,0,1,1,94.31,73h.13l-1.15,2.77-12,28.86H133v25.7l-27,70.14L79,130.28V109.92L68.52,135.1ZM106,460.23l-27.33-71L106,361.88l27.33,27.34Zm10.17,123.84,27.33-27.33,27.33,27.33-27.33,71Zm64.83,136-27.33-71L181,621.71l27.33,27.34Zm64.5-394.93-27,70.15L208,368v22.08l-27,70.15-27-70.15V368l-10.5,27.28-27.33-71,27.33-27.33,27.33,27.33-15.44,40.13h51.22l-15.11-39.26v-25.7h54Zm-1.21-122.27h.13l-1.15,2.77L218.52,265l-24.76-59.37a27,27,0,1,1,50.55-2.77Zm-15.62-73.45L256,102.08l27.33,27.33-27.33,71Zm90.75,333.25-1.15,2.77-24.77,59.38-24.76-59.38a27,27,0,1,1,50.55-2.77ZM406,460.23,395.52,433V455l-27,70.15-27-70.15V434.68L331,459.86l-24.76-59.38a27,27,0,1,1,50.55-2.77h.13l-1.15,2.77-12,28.86h50.38l-15.44-40.12L406,361.88l27.33,27.34Zm102,37.65V520l-27,70.15L454,520V499.63l-10.5,25.18-24.76-59.38a27,27,0,1,1,50.55-2.77h.12l-1.15,2.77-12,28.86h50.39l-15.45-40.15,27.33-27.33,27.33,27.33-27.33,71Zm73.91,159.66-1.15,2.77L556,719.69l-24.76-59.38a27,27,0,1,1,50.55-2.77Zm38.59-72.6-27,70.15-27-70.15V564.59L556,589.76l-24.76-59.37a27,27,0,1,1,50.55-2.77h.12l-1.15,2.77-12,28.85h51.77Zm-27-189.66-27.33-71,27.33-27.33,27.33,27.33Zm47.67-200.92L668.52,167l27.33,27.33-27.33,71Zm90.62,463.18h.13l-1.15,2.77L706,719.69l-24.76-59.38a27,27,0,1,1,50.55-2.77ZM733,520l-27,70.15L679,520V497.88l-10.5,27.28-27-70.15v-25.7h54V455L680.4,494.29H733Zm-1.21-252.16h.13l-1.15,2.77L706,330l-10.5-25.18v20.33l-27,70.15-27-70.15v-25.7h51.76l-12-28.83a27,27,0,1,1,50.55-2.77Zm-15.29-72.6V174.88L706,200.05l-24.76-59.38a27,27,0,1,1,50.55-2.77h.13l-1.15,2.77-12,28.86h51.77v25.7l-27,70.15ZM781,720l-27.33-71L781,621.69,808.35,649Zm102-70.15L856,720l-27-70.15V629.54l-10.5,25.18-24.76-59.38a27,27,0,1,1,50.55-2.77h.13l-1.15,2.77-12,28.85H883Zm-1.21-122.27h.13l-1.15,2.77L856,589.76l-24.76-59.37a27,27,0,1,1,50.55-2.77ZM904,390.08V368l-10.5,27.28-27.33-71,27.33-27.33,27.33,27.33-15.44,40.13H958v25.69l-27,70.15Zm64.5,265-27.33-71,27.33-27.33,27.33,27.33Zm12.74-124.7a27,27,0,1,1,50.55-2.77h.13l-1.15,2.77L1006,589.76Z"/><path class="cls-1" d="M686.89,727.47l1.79-4.19a22,22,0,1,0-40.32,0l1.83,4.2h-.08l18.41,44.16,18.42-44.16Z"/><polygon class="cls-1" points="690.02 195.6 668.52 174.1 647.02 195.6 668.52 251.46 690.02 195.6"/><polygon class="cls-1" points="240.52 324.2 240.52 304.43 196.52 304.43 196.52 324.2 218.52 381.36 240.52 324.2"/><path class="cls-1" d="M218.52,172.86a22,22,0,0,0-22,22,21.75,21.75,0,0,0,1.84,8.79l1.83,4.21h-.08L218.52,252l18.42-44.15h-.05l1.79-4.2a22,22,0,0,0-20.16-30.8Z"/><polygon class="cls-1" points="256.02 109.15 234.52 130.65 256.02 186.5 277.52 130.65 256.02 109.15"/><path class="cls-1" d="M912.69,142.9h-.08L931,187.06l18.42-44.16h-.05l1.79-4.19a22,22,0,1,0-40.32,0Z"/><path class="cls-1" d="M856,497.62a22,22,0,0,0-22,22,21.75,21.75,0,0,0,1.84,8.79l1.83,4.21h-.08L856,576.77l18.42-44.15h-.05l1.79-4.2A22,22,0,0,0,856,497.62Z"/><polygon class="cls-1" points="159.02 389.15 181.02 446.31 203.02 389.15 203.02 369.39 159.02 369.39 159.02 389.15"/><path class="cls-1" d="M986.94,207.86h-.05l1.79-4.2a22,22,0,1,0-40.32,0l1.83,4.21h-.08L968.52,252Z"/><polygon class="cls-1" points="143.52 304 122.02 325.5 143.52 381.36 165.02 325.5 143.52 304"/><polygon class="cls-1" points="53.02 519.06 53.02 499.29 9.02 499.29 9.02 519.06 31.02 576.22 53.02 519.06"/><path class="cls-1" d="M293.52,432.66a22,22,0,0,0-22,22,21.8,21.8,0,0,0,1.84,8.8l1.83,4.2h-.08l18.41,44.16,18.42-44.16h-.05l1.79-4.19a22,22,0,0,0-20.16-30.81Z"/><polygon class="cls-1" points="909.02 389.15 931.02 446.31 953.02 389.15 953.02 369.39 909.02 369.39 909.02 389.15"/><polygon class="cls-1" points="893.52 304 872.02 325.5 893.52 381.36 915.02 325.5 893.52 304"/><path class="cls-1" d="M349.39,402.71l1.79-4.19a22,22,0,1,0-40.32,0l1.83,4.2h-.08L331,446.87l18.42-44.16Z"/><polygon class="cls-1" points="947.02 585.31 968.52 641.17 990.02 585.31 968.52 563.81 947.02 585.31"/><path class="cls-1" d="M31,367.71a22,22,0,0,0-20.16,30.8l1.83,4.2h-.08L31,446.87l18.42-44.16h0l1.79-4.19A22,22,0,0,0,31,367.71Z"/><path class="cls-2" d="M293.52,427.66a27,27,0,0,0-24.76,37.77l24.76,59.38,24.77-59.38,1.15-2.77h-.13a26.61,26.61,0,0,0,1.21-8A27,27,0,0,0,293.52,427.66Zm20.16,35.81-1.79,4.19h.05l-18.42,44.16-18.41-44.16h.08l-1.83-4.2a21.8,21.8,0,0,1-1.84-8.8,22,22,0,1,1,42.16,8.81Z"/><path class="cls-2" d="M341.52,324.76a26.82,26.82,0,0,0,2.24,10.77l24.76,59.38,24.77-59.38,1.15-2.77h-.13a26.61,26.61,0,0,0,1.21-8,27,27,0,0,0-54,0Zm27-22a22,22,0,0,1,20.16,30.8l-1.79,4.2h.05l-18.42,44.16-18.41-44.16h.08l-1.83-4.2a22,22,0,0,1,20.16-30.8Z"/><path class="cls-2" d="M754,389.71a26.78,26.78,0,0,0,2.24,10.77L781,459.86l24.76-59.38,1.15-2.77h-.12a27,27,0,1,0-52.79-8Zm27-22a22,22,0,0,1,20.16,30.81l-1.79,4.19h.05L781,446.87l-18.41-44.16h.08l-1.83-4.2A22,22,0,0,1,781,367.71Z"/><path class="cls-2" d="M706,232.83a27,27,0,0,0-24.76,37.77l12,28.83H641.52v25.7l27,70.15,27-70.15V304.8L706,330l24.77-59.38,1.15-2.77h-.13a26.61,26.61,0,0,0,1.21-8A27,27,0,0,0,706,232.83Zm-15.5,91.37-22,57.16-22-57.16V304.43h44Zm35.66-55.56-1.79,4.19h.05L706,317l-18.41-44.16h.08l-1.83-4.2a22,22,0,1,1,40.32,0Z"/><path class="cls-2" d="M556,622.54a27,27,0,0,0-24.76,37.77L556,719.69l24.76-59.38,1.15-2.77h-.12a27,27,0,0,0-25.79-35Zm20.16,35.81-1.79,4.19h.05L556,706.7l-18.41-44.16h.08l-1.83-4.2a21.8,21.8,0,0,1-1.84-8.8,22,22,0,1,1,42.16,8.81Z"/><path class="cls-2" d="M394.44,722.47h-.13a26.61,26.61,0,0,0,1.21-8,27,27,0,1,0-51.76,10.77l22.36,53.62h4.8l22.37-53.62Zm-5.76.81-1.79,4.19h.05l-18.42,44.16-18.41-44.16h.08l-1.83-4.2a22,22,0,1,1,40.32,0Z"/><path class="cls-2" d="M1031.94,527.62h-.13a26.71,26.71,0,0,0,1.21-8,27,27,0,1,0-51.76,10.77L1006,589.76l24.77-59.37Zm-5.76.8-1.79,4.2h0L1006,576.77l-18.41-44.15h.08l-1.83-4.21a21.75,21.75,0,0,1-1.84-8.79,22,22,0,1,1,42.16,8.8Z"/><path class="cls-2" d="M406,361.88l-27.33,27.34,15.44,40.12H343.75l12-28.86,1.15-2.77h-.13a26.61,26.61,0,0,0,1.21-8,27,27,0,1,0-51.76,10.77L331,459.86l10.5-25.18V455l27,70.15,27-70.15V433L406,460.23l27.33-71Zm-75,85-18.41-44.16h.08l-1.83-4.2a22,22,0,1,1,40.32,0l-1.79,4.19h.05Zm59.5,7.24-22,57.15-22-57.15V434.34h44Zm-6-63.66L406,369l21.5,21.5L406,446.31Z"/><path class="cls-2" d="M583,260.18V239.85L593.52,265l24.77-59.38,1.15-2.77h-.13a26.61,26.61,0,0,0,1.21-8,27,27,0,1,0-51.76,10.77l12,28.83H529v25.7l27,70.15Zm-7.91-52.3h.08l-1.83-4.2a22,22,0,1,1,40.32,0l-1.79,4.19h.05L593.52,252ZM534,239.48h44v19.77l-22,57.16-22-57.16Z"/><path class="cls-2" d="M106,70.15l24.77-59.38L131.94,8h-.13A26.61,26.61,0,0,0,133,0h-5a21.91,21.91,0,0,1-1.84,8.81L124.39,13h0L106,57.16,87.61,13h.08L85.86,8.8A21.83,21.83,0,0,1,84,0H79a26.82,26.82,0,0,0,2.24,10.77Z"/><path class="cls-2" d="M79,130.28l27,70.14,27-70.14v-25.7H81.25l12-28.86L94.44,73h-.13a26.61,26.61,0,0,0,1.21-8A27,27,0,1,0,43.76,75.72L68.52,135.1,79,109.92Zm5-20.7h44v19.77L106,186.5,84,129.35Zm-15.5,12.53L50.11,78h.08l-1.83-4.2a22,22,0,1,1,40.32,0L86.89,78h0Z"/><path class="cls-2" d="M856,492.62a27,27,0,0,0-24.76,37.77L856,589.76l24.77-59.37,1.15-2.77h-.13a26.71,26.71,0,0,0,1.21-8A27,27,0,0,0,856,492.62Zm20.16,35.8-1.79,4.2h.05L856,576.77l-18.41-44.15h.08l-1.83-4.21a21.75,21.75,0,0,1-1.84-8.79,22,22,0,1,1,42.16,8.8Z"/><path class="cls-2" d="M843.29,595.34l1.15-2.77h-.13a26.61,26.61,0,0,0,1.21-8,27,27,0,1,0-51.76,10.77l24.76,59.38L829,629.54v20.35L856,720l27-70.15v-25.7H831.25ZM834,629.19h44V649l-22,57.16L834,649Zm-15.5,12.54-18.41-44.16h.08l-1.83-4.2a22,22,0,1,1,40.32,0l-1.79,4.2h.05Z"/><path class="cls-2" d="M518.52,426.81l-27.33,27.33,15.45,40.15H456.25l12-28.86,1.15-2.77h-.12a27,27,0,1,0-50.55,2.77l24.76,59.38L454,499.63V520l27,70.15L508,520V497.88l10.5,27.28,27.33-71Zm-75,85-18.41-44.16h.08l-1.83-4.2a21.8,21.8,0,0,1-1.84-8.8,22,22,0,1,1,42.16,8.81l-1.79,4.19h.05Zm59.5,7.24-22,57.16-22-57.16V499.29h44Zm-6-63.68,21.5-21.5,21.5,21.5-21.5,55.86Z"/><path class="cls-2" d="M320.52,692.76,331,720l27-70.15V627.81l10.5,27.28,27-70.15v-25.7h-54v25.7l15.11,39.25H304v25.7l15.11,39.26H268.75l12-28.86,1.15-2.77h-.13a26.61,26.61,0,0,0,1.21-8,27,27,0,1,0-51.76,10.77L256,719.67l10.5-25.18v20.35l15.11,39.26H229v24.76h5V759.1h44v19.76h5V757.71l8.14,21.15h4.72l24.64-64Zm26-108.75V564.24h44V584l-22,57.16ZM256,706.68l-18.41-44.16h.08l-1.83-4.2a22,22,0,1,1,40.32,0l-1.79,4.2h.05Zm59.5,7.23-22,57.16-22-57.16V694.15h44ZM309,649V629.19h44V649l-22,57.16Z"/><path class="cls-2" d="M818.52,135.1l24.77-59.38L844.43,73h-.12a27,27,0,1,0-50.55,2.77Zm0-92.15a22,22,0,0,1,20.16,30.81L836.89,78h.05l-18.42,44.16L800.11,78h.08l-1.83-4.2A22,22,0,0,1,818.52,43Z"/><path class="cls-2" d="M770.52,169.53H718.75l12-28.86,1.15-2.77h-.13a26.61,26.61,0,0,0,1.21-8,27,27,0,1,0-51.76,10.77L706,200.05l10.5-25.17v20.35l27,70.15,27-70.15ZM706,187.06,687.61,142.9h.08l-1.83-4.2a21.76,21.76,0,0,1-1.84-8.8,22,22,0,1,1,42.16,8.81l-1.79,4.19h.05Zm59.5,7.24-22,57.16-22-57.16V174.53h44Z"/><path class="cls-2" d="M866.52,39.63V65.32l27,70.15,27-70.15V43.24L931,70.52,958.16,0h-6.38l.74.74L931,56.6,909.52.74l.74-.74h-6.38l15.25,39.63Zm49,24.76-22,57.16-22-57.16V44.63h44Z"/><path class="cls-2" d="M208.35,129.41,181,102.08l-27.33,27.33,27.33,71ZM181,109.15l21.5,21.5L181,186.5l-21.5-55.85Z"/><path class="cls-2" d="M143.52,556.74l-27.33,27.33,27.33,71,27.33-71ZM122,585.31l21.5-21.5,21.5,21.5-21.5,55.86Z"/><polygon class="cls-2" points="828.75 778.86 835.82 778.86 856.02 758.67 876.22 778.86 883.29 778.86 856.02 751.59 828.75 778.86"/><path class="cls-2" d="M319.13,299.43H266.52v25.7l27,70.15,27-70.15V303.05L331,330.33l27.33-71L331,232l-27.33,27.33Zm-3.61,24.77-22,57.16-22-57.16V304.43h44Zm37-63.65L331,316.41l-21.5-55.86,21.5-21.5Z"/><path class="cls-2" d="M143.52,686.64,116.19,714l25,64.88h4.72l25-64.88ZM122,715.21l21.5-21.5,21.5,21.5-21.5,55.86Z"/><path class="cls-2" d="M958,364.39H905.41l15.44-40.13-27.33-27.33-27.33,27.33,27.33,71L904,368v22.08l27,70.15,27-70.15Zm-64.5,17L872,325.5l21.5-21.5L915,325.5Zm59.5,7.79-22,57.16-22-57.16V369.39h44Z"/><polygon class="cls-2" points="1016.52 325.13 1038.48 382.19 1038.48 368.27 1021.52 324.2 1021.52 304.43 1038.48 304.43 1038.48 299.43 1016.52 299.43 1016.52 325.13"/><path class="cls-2" d="M580.78,530.39l1.15-2.77h-.12a27,27,0,1,0-50.55,2.77L556,589.76l10.5-25.17v20.35l27,70.15,27-70.15v-25.7H568.75Zm-9.26,33.85h44V584l-22,57.16-22-57.16ZM556,576.77l-18.41-44.15h.08l-1.83-4.21a21.75,21.75,0,0,1-1.84-8.79,22,22,0,1,1,42.16,8.8l-1.79,4.2h.05Z"/><path class="cls-2" d="M416.52,173.14v22.09l27,70.15,27-70.15V174.87L481,200.05l24.77-59.38,1.15-2.77h-.13a26.61,26.61,0,0,0,1.21-8,27,27,0,1,0-51.76,10.77l12,28.86H417.91l15.44-40.12L406,102.08l-27.33,27.33,27.33,71Zm46.09-30.24h.08l-1.83-4.2a21.76,21.76,0,0,1-1.84-8.8,22,22,0,1,1,42.16,8.81l-1.79,4.19h.05L481,187.06Zm-41.09,31.63h44V194.3l-22,57.16-22-57.16ZM406,109.15l21.5,21.5L406,186.5l-21.5-55.85Z"/><path class="cls-2" d="M931,752.42a27,27,0,0,0-27,26.44h5a22,22,0,0,1,44,0h5A27,27,0,0,0,931,752.42Z"/><path class="cls-2" d="M994.43,722.47h-.12a27,27,0,1,0-50.55,2.77l22.36,53.62h4.8l22.37-53.62Zm-5.75.81-1.79,4.19h.05l-18.42,44.16-18.41-44.16h.08l-1.83-4.2a22,22,0,1,1,40.32,0Z"/><polygon class="cls-2" points="1038.48 771.91 1038.48 757.99 1022.02 715.21 1038.48 698.75 1038.48 691.68 1016.19 713.98 1038.48 771.91"/><path class="cls-2" d="M941.19,584.07l27.33,71,27.33-71-27.33-27.33Zm27.33,57.1L947,585.31l21.5-21.5,21.5,21.5Z"/><path class="cls-2" d="M1006,69.7l10.5-25.18V64.87l22,57.07V108l-17-44.08V44.18h17v-5h-19.73l12-28.86,1.15-2.77h-.13A26.7,26.7,0,0,0,1033,0h-5a21.85,21.85,0,0,1-1.83,8.35l-1.79,4.2h0L1006,56.71,987.61,12.55h.08l-1.83-4.2A21.85,21.85,0,0,1,984,0h-5a26.86,26.86,0,0,0,2.23,10.32Z"/><path class="cls-2" d="M845.85,194.81l-27.33-27.33-27.33,27.33,27.33,71Zm-27.33-20.26,21.5,21.5-21.5,55.86L797,196.05Z"/><path class="cls-2" d="M931,200.05l24.76-59.38,1.15-2.77h-.12a27,27,0,1,0-50.55,2.77Zm0-92.15a22,22,0,0,1,20.16,30.81l-1.79,4.19h.05L931,187.06,912.61,142.9h.08l-1.83-4.2a21.76,21.76,0,0,1-1.84-8.8A22,22,0,0,1,931,107.9Z"/><path class="cls-2" d="M566.19,324.26l27.33,71,27.33-71-27.33-27.33Zm27.33,57.1L572,325.5l21.5-21.5L615,325.5Z"/><path class="cls-2" d="M856,200.42l27.33-71L856,102.08l-27.33,27.33Zm21.5-69.77L856,186.5l-21.5-55.85,21.5-21.5Z"/><path class="cls-2" d="M191.52,325.13l15.11,39.26H155.41l15.44-40.13-27.33-27.33-27.33,27.33,27.33,71L154,368v22.08l27,70.15,27-70.15V368l10.5,27.28,27-70.15v-25.7h-54Zm-48,56.23L122,325.5l21.5-21.5L165,325.5Zm59.5,7.79-22,57.16-22-57.16V369.39h44Zm-6.5-84.72h44V324.2l-22,57.16-22-57.16Z"/><path class="cls-2" d="M455.41,754.1,470.85,714l-27.33-27.34L416.19,714l25,64.88h4.72L454,757.71v21.15h5V759.1h44v19.76h5V754.1Zm-11.89,17L422,715.21l21.5-21.5,21.5,21.5Z"/><path class="cls-2" d="M31,362.71A27,27,0,0,0,6.26,400.48L31,459.86l24.77-59.38,1.15-2.77h-.13a26.61,26.61,0,0,0,1.21-8A27,27,0,0,0,31,362.71Zm20.16,35.81-1.79,4.19h0L31,446.87,12.61,402.71h.08l-1.83-4.2a22,22,0,1,1,40.32,0Z"/><path class="cls-2" d="M4,520l27,70.15L58,520v-25.7H4Zm5-20.7H53v19.77L31,576.22,9,519.06Z"/><path class="cls-2" d="M20.52,304.78,31,330l24.77-59.38,1.15-2.77h-.13a26.61,26.61,0,0,0,1.21-8A27,27,0,1,0,6.26,270.58l12,28.85H0v5H15.52V324.2L0,364.53v13.91l20.52-53.31Zm-7.91-32h.08l-1.83-4.2A22,22,0,1,1,53,259.81a21.83,21.83,0,0,1-1.84,8.8l-1.79,4.2h0L31,317Z"/><path class="cls-2" d="M106,361.88,78.69,389.22l27.33,71,27.33-71Zm-21.5,28.57L106,369l21.5,21.5L106,446.31Z"/><path class="cls-2" d="M695.85,194.36,668.52,167l-27.33,27.33,27.33,71ZM668.52,174.1,690,195.6l-21.5,55.86L647,195.6Z"/><path class="cls-2" d="M706,70.15l24.77-59.38L731.94,8h-.13A26.61,26.61,0,0,0,733,0h-5a21.91,21.91,0,0,1-1.84,8.81L724.39,13h.05L706,57.16,687.61,13h.08l-1.83-4.2A21.83,21.83,0,0,1,684,0h-5a26.82,26.82,0,0,0,2.24,10.77Z"/><polygon class="cls-2" points="595.69 0 591.35 0 593.52 5.2 595.69 0"/><path class="cls-2" d="M556,70.5l10.5-27.28v22.1l27,70.15,27-70.15V39.63H567.9L583,.35V0H577.8L556,56.58,534.24,0H529V.35Zm15.5-25.87h44V64.39l-22,57.16-22-57.16Z"/><polygon class="cls-2" points="256.02 70.52 283.02 0.37 283.02 0 277.81 0 256.02 56.6 234.24 0 229.02 0 229.02 0.37 256.02 70.52"/><polygon class="cls-2" points="220.65 0 216.39 0 218.52 5.54 220.65 0"/><path class="cls-2" d="M218.52,167.86a27,27,0,0,0-24.76,37.77L218.52,265l24.77-59.37,1.15-2.77h-.13a26.71,26.71,0,0,0,1.21-8A27,27,0,0,0,218.52,167.86Zm20.16,35.8-1.79,4.2h.05L218.52,252l-18.41-44.15h.08l-1.83-4.21a21.75,21.75,0,0,1-1.84-8.79,22,22,0,1,1,42.16,8.8Z"/><path class="cls-2" d="M491.52,324.76a26.82,26.82,0,0,0,2.24,10.77l24.76,59.38,24.76-59.38,1.15-2.77h-.12a27,27,0,1,0-52.79-8Zm27-22a22,22,0,0,1,20.16,30.8l-1.79,4.2h.05l-18.42,44.16-18.41-44.16h.08l-1.83-4.2a22,22,0,0,1,20.16-30.8Z"/><path class="cls-2" d="M695.52,455v-25.7h-54V455l27,70.15L679,497.88V520l27,70.15L733,520v-25.7H680.4ZM684,499.29h44v19.77l-22,57.16-22-57.16Zm-15.5,11.95-22-57.16V434.31h44v19.77Z"/><path class="cls-2" d="M293.52,135.1l24.77-59.38L319.44,73h-.13a26.61,26.61,0,0,0,1.21-8,27,27,0,1,0-51.76,10.77Zm0-92.15a22,22,0,0,1,20.16,30.81L311.89,78h.05l-18.42,44.16L275.11,78h.08l-1.83-4.2A22,22,0,0,1,293.52,43Z"/><polygon class="cls-2" points="670.65 0 666.39 0 668.52 5.54 670.65 0"/><path class="cls-2" d="M681.24,754.12l12-28.88,1.14-2.77h-.12a27,27,0,1,0-50.55,2.77l22.36,53.62h4.8l8.1-19.41v19.41h5V759.12h44v19.74h5V754.12Zm-12.72,17.51-18.41-44.16h.08l-1.83-4.2a22,22,0,1,1,40.32,0l-1.79,4.19h.05Z"/><path class="cls-2" d="M844.44,722.49h-.13a26.61,26.61,0,0,0,1.21-8,27,27,0,1,0-51.76,10.77l22.35,53.6h4.82l22.36-53.6Zm-5.76.81-1.79,4.19h.05l-18.42,44.16-18.41-44.16h.08l-1.83-4.2a21.76,21.76,0,0,1-1.84-8.8,22,22,0,1,1,42.16,8.81Z"/><path class="cls-2" d="M706,622.54a27,27,0,0,0-24.76,37.77L706,719.69l24.77-59.38,1.15-2.77h-.13a26.61,26.61,0,0,0,1.21-8A27,27,0,0,0,706,622.54Zm20.16,35.81-1.79,4.19h.05L706,706.7l-18.41-44.16h.08l-1.83-4.2a22,22,0,1,1,40.32,0Z"/><path class="cls-2" d="M753.69,649,781,720l27.33-71L781,621.69ZM781,706.12l-21.5-55.86,21.5-21.5,21.5,21.5Z"/><path class="cls-2" d="M19.44,722.49h-.13a26.61,26.61,0,0,0,1.21-8A27,27,0,0,0,0,688.29v5.18a22,22,0,0,1,15.52,21,21.84,21.84,0,0,1-1.84,8.81l-1.79,4.19h0L0,756.12v13l18.29-43.85Z"/><path class="cls-2" d="M866.52,194.86a26.85,26.85,0,0,0,2.24,10.77L893.52,265,904,239.83v20.35l27,70.15,27-70.15V239.82L968.52,265l24.77-59.37,1.14-2.77h-.12a27,27,0,1,0-50.55,2.77l12,28.85H906.25l12-28.85,1.15-2.77h-.13a26.71,26.71,0,0,0,1.21-8,27,27,0,0,0-54,0Zm83.59,13h.08l-1.83-4.21a21.75,21.75,0,0,1-1.84-8.79,22,22,0,1,1,42.16,8.8l-1.79,4.2h.05L968.52,252ZM909,239.48h44v19.77l-22,57.16-22-57.16Zm-15.5-66.62a22,22,0,0,1,20.16,30.8l-1.79,4.2h.05L893.52,252l-18.41-44.15h.08l-1.83-4.21a21.75,21.75,0,0,1-1.84-8.79A22,22,0,0,1,893.52,172.86Z"/><path class="cls-2" d="M68.52,686.64,41.19,714l25,64.88h4.72l25-64.88ZM47,715.21l21.5-21.5L90,715.21l-21.5,55.86Z"/><path class="cls-2" d="M470.85,64.43,443.52,37.1,416.19,64.43l27.33,71ZM443.52,44.17,465,65.67l-21.5,55.86L422,65.67Z"/><path class="cls-2" d="M256,102.08l-27.33,27.33,27.33,71,27.33-71Zm-21.5,28.57,21.5-21.5,21.5,21.5L256,186.5Z"/><path class="cls-2" d="M153.69,649.05l27.33,71,27.33-71L181,621.71ZM181,706.14l-21.5-55.85,21.5-21.5,21.5,21.5Z"/></g></g></svg>