<svg xmlns="http://www.w3.org/2000/svg" viewBox="0 0 1038.48 778.86"><defs><style>.cls-1{fill:lime;}</style></defs><title>Element 22</title><g id="Ebene_2" data-name="Ebene 2"><g id="Ebene_1-2" data-name="Ebene 1"><polygon class="cls-1" points="616.3 475.87 616.3 475.87 616.3 475.87 616.3 475.87"/><polygon class="cls-1" points="116.3 562.47 116.3 562.47 116.3 562.47 116.3 562.47"/><polygon class="cls-1" points="641.3 432.56 641.3 432.56 641.3 432.56 641.3 432.56"/><polygon class="cls-1" points="791.3 432.56 766.3 389.26 741.3 432.56 791.3 432.56"/><polygon class="cls-1" points="91.3 605.77 91.3 605.77 91.3 605.77 91.3 605.77"/><polygon class="cls-1" points="191.3 692.37 191.3 692.37 191.3 692.37 191.3 692.37"/><polygon class="cls-1" points="441.3 172.76 441.3 172.76 441.3 172.76 441.3 172.76"/><polygon class="cls-1" points="491.3 172.76 491.3 172.76 491.3 172.76 491.3 172.76"/><polygon class="cls-1" points="391.3 172.76 391.3 172.76 391.3 172.76 391.3 172.76"/><polygon class="cls-1" points="166.3 562.47 166.3 562.47 166.3 562.47 166.3 562.47"/><polygon class="cls-1" points="66.3 475.87 66.3 475.87 66.3 475.87 66.3 475.87"/><polygon class="cls-1" points="341.3 172.76 341.3 172.76 341.3 172.76 341.3 172.76"/><polygon class="cls-1" points="766.3 475.87 816.3 475.87 791.3 432.56 791.3 432.56 766.3 475.87"/><polygon class="cls-1" points="766.3 475.87 766.3 475.87 766.3 475.87 766.3 475.87"/><polygon class="cls-1" points="791.3 432.56 791.3 432.56 791.3 432.56 791.3 432.56"/><polygon class="cls-1" points="191.3 692.37 166.3 649.07 141.3 692.37 191.3 692.37"/><polygon class="cls-1" points="816.3 475.87 816.3 475.87 816.3 475.87 816.3 475.87"/><polygon class="cls-1" points="116.3 562.47 91.3 605.77 91.3 605.77 66.3 649.07 116.3 649.07 166.3 649.07 141.3 605.77 116.3 562.47 116.3 562.47"/><polygon class="cls-1" points="841.3 432.56 816.3 389.26 791.3 432.56 841.3 432.56"/><polygon class="cls-1" points="166.3 562.47 141.3 519.17 116.3 562.47 166.3 562.47"/><polygon class="cls-1" points="891.3 605.77 891.3 605.77 891.3 605.77 891.3 605.77"/><polygon class="cls-1" points="841.36 778.86 891.23 778.86 866.3 735.67 866.3 735.67 841.36 778.86"/><polygon class="cls-1" points="1038.48 697.25 1016.3 735.67 1038.48 735.67 1038.48 697.25"/><polygon class="cls-1" points="0 735.67 16.3 735.67 0 707.44 0 735.67"/><polygon class="cls-1" points="1038.48 778.86 1038.48 774.1 1016.3 735.67 1016.3 735.67 991.36 778.86 1038.48 778.86"/><polygon class="cls-1" points="1016.3 302.66 1016.3 302.66 1016.3 302.66 1016.3 302.66"/><polygon class="cls-1" points="1038.48 610.64 1016.3 649.07 1038.48 649.07 1038.48 610.64"/><polygon class="cls-1" points="1038.48 4.42 1016.3 42.85 1038.48 42.85 1038.48 4.42"/><polygon class="cls-1" points="1038.48 264.23 1016.3 302.66 1038.48 302.66 1038.48 264.23"/><polygon class="cls-1" points="491.36 778.86 541.23 778.86 516.3 735.67 516.3 735.67 491.36 778.86"/><polygon class="cls-1" points="791.36 778.86 841.23 778.86 816.3 735.67 816.3 735.67 791.36 778.86"/><polygon class="cls-1" points="241.36 778.86 291.23 778.86 266.3 735.67 266.3 735.67 241.36 778.86"/><polygon class="cls-1" points="1016.3 42.85 1016.3 42.85 1016.3 42.85 1016.3 42.85"/><polygon class="cls-1" points="241.3 692.37 216.3 649.07 191.3 692.37 241.3 692.37"/><polygon class="cls-1" points="441.36 778.86 491.23 778.86 466.3 735.67 466.3 735.67 441.36 778.86"/><polygon class="cls-1" points="541.36 778.86 591.23 778.86 566.3 735.67 566.3 735.67 541.36 778.86"/><polygon class="cls-1" points="741.36 778.86 791.23 778.86 766.3 735.67 766.3 735.67 741.36 778.86"/><polygon class="cls-1" points="691.36 778.86 741.23 778.86 716.3 735.67 716.3 735.67 691.36 778.86"/><polygon class="cls-1" points="941.36 778.86 991.23 778.86 966.3 735.67 966.3 735.67 941.36 778.86"/><polygon class="cls-1" points="866.3 42.85 866.3 42.85 866.3 42.85 866.3 42.85"/><polygon class="cls-1" points="66.3 42.85 66.3 42.85 66.3 42.85 66.3 42.85"/><polygon class="cls-1" points="316.3 42.85 316.3 42.85 316.3 42.85 316.3 42.85"/><polygon class="cls-1" points="366.3 42.85 366.3 42.85 366.3 42.85 366.3 42.85"/><polygon class="cls-1" points="341.56 0 341.04 0 316.3 42.85 366.3 42.85 341.56 0"/><polygon class="cls-1" points="0 101.23 0 129.46 16.3 129.46 0 101.23"/><polygon class="cls-1" points="41.56 0 41.04 0 16.3 42.85 66.3 42.85 41.56 0"/><polygon class="cls-1" points="0 14.62 0 86.15 41.3 86.15 16.3 42.85 0 14.62"/><polygon class="cls-1" points="291.56 0 291.04 0 266.3 42.85 316.3 42.85 291.56 0"/><polygon class="cls-1" points="791.56 0 791.04 0 766.3 42.85 816.3 42.85 791.56 0"/><polygon class="cls-1" points="466.3 42.85 466.3 42.85 466.3 42.85 466.3 42.85"/><polygon class="cls-1" points="766.3 42.85 766.3 42.85 766.3 42.85 766.3 42.85"/><polygon class="cls-1" points="841.56 0 841.04 0 816.3 42.85 866.3 42.85 841.56 0"/><polygon class="cls-1" points="816.3 42.85 816.3 42.85 816.3 42.85 816.3 42.85"/><polygon class="cls-1" points="741.56 0 741.04 0 716.3 42.85 766.3 42.85 741.56 0"/><polygon class="cls-1" points="491.56 0 491.04 0 466.3 42.85 516.3 42.85 491.56 0"/><polygon class="cls-1" points="516.3 42.85 516.3 42.85 516.3 42.85 516.3 42.85"/><polygon class="cls-1" points="0 763.9 0 778.86 41.23 778.86 16.3 735.67 16.3 735.67 0 763.9"/><polygon class="cls-1" points="916.3 562.47 891.3 519.17 866.3 562.47 916.3 562.47"/><polygon class="cls-1" points="916.3 562.47 916.3 562.47 916.3 562.47 916.3 562.47"/><polygon class="cls-1" points="891.3 692.37 891.3 692.37 891.3 692.37 891.3 692.37"/><polygon class="cls-1" points="966.3 562.47 941.3 519.17 916.3 562.47 966.3 562.47"/><polygon class="cls-1" points="916.3 562.47 891.3 605.77 891.3 605.77 866.3 649.07 916.3 649.07 966.3 649.07 941.3 605.77 916.3 562.47 916.3 562.47"/><polygon class="cls-1" points="966.3 562.47 966.3 562.47 966.3 562.47 966.3 562.47"/><polygon class="cls-1" points="841.3 692.37 841.3 692.37 841.3 692.37 841.3 692.37"/><polygon class="cls-1" points="591.3 692.37 591.3 692.37 591.3 692.37 591.3 692.37"/><polygon class="cls-1" points="491.3 605.77 491.3 605.77 491.3 605.77 491.3 605.77"/><polygon class="cls-1" points="516.3 562.47 516.3 562.47 516.3 562.47 516.3 562.47"/><polygon class="cls-1" points="466.3 649.07 516.3 649.07 491.3 605.77 491.3 605.77 466.3 649.07"/><polygon class="cls-1" points="241.3 692.37 241.3 692.37 241.3 692.37 241.3 692.37"/><polygon class="cls-1" points="391.3 692.37 391.3 692.37 391.3 692.37 391.3 692.37"/><polygon class="cls-1" points="941.3 432.56 916.3 389.26 891.3 432.56 941.3 432.56"/><polygon class="cls-1" points="491.3 692.37 491.3 692.37 491.3 692.37 491.3 692.37"/><polygon class="cls-1" points="441.3 692.37 491.3 692.37 466.3 649.07 441.3 692.37"/><polygon class="cls-1" points="841.3 692.37 891.3 692.37 866.3 649.07 841.3 692.37"/><polygon class="cls-1" points="41.3 345.96 41.3 345.96 41.3 345.96 41.3 345.96"/><polygon class="cls-1" points="0 389.26 16.3 389.26 0 361.03 0 389.26"/><polygon class="cls-1" points="16.3 475.87 16.3 475.87 16.3 475.87 16.3 475.87"/><polygon class="cls-1" points="66.3 216.06 66.3 216.06 66.3 216.06 66.3 216.06"/><polygon class="cls-1" points="0 649.07 16.3 649.07 0 620.84 0 649.07"/><polygon class="cls-1" points="0 475.87 16.3 475.87 0 447.64 0 475.87"/><polygon class="cls-1" points="0 677.3 0 692.37 41.3 692.37 16.3 649.07 0 677.3"/><polygon class="cls-1" points="141.3 86.15 141.3 86.15 141.3 86.15 141.3 86.15"/><polygon class="cls-1" points="291.3 86.15 291.3 86.15 291.3 86.15 291.3 86.15"/><polygon class="cls-1" points="991.3 172.76 991.3 172.76 991.3 172.76 991.3 172.76"/><polygon class="cls-1" points="941.3 432.56 941.3 432.56 941.3 432.56 941.3 432.56"/><polygon class="cls-1" points="991.3 432.56 966.3 389.26 941.3 432.56 991.3 432.56"/><polygon class="cls-1" points="891.3 86.15 891.3 86.15 891.3 86.15 891.3 86.15"/><polygon class="cls-1" points="991.3 432.56 991.3 432.56 991.3 432.56 991.3 432.56"/><polygon class="cls-1" points="391.3 86.15 391.3 86.15 391.3 86.15 391.3 86.15"/><polygon class="cls-1" points="541.3 86.15 541.3 86.15 541.3 86.15 541.3 86.15"/><polygon class="cls-1" points="741.3 86.15 741.3 86.15 741.3 86.15 741.3 86.15"/><polygon class="cls-1" points="191.3 172.76 191.3 172.76 191.3 172.76 191.3 172.76"/><polygon class="cls-1" points="266.3 216.06 266.3 216.06 266.3 216.06 266.3 216.06"/><polygon class="cls-1" points="166.3 216.06 166.3 216.06 141.3 259.36 191.3 259.36 241.3 259.36 216.3 216.06 191.3 172.76 191.3 172.76 166.3 216.06"/><polygon class="cls-1" points="116.3 302.66 116.3 302.66 116.3 302.66 116.3 302.66"/><polygon class="cls-1" points="116.3 216.06 116.3 216.06 91.3 259.36 141.3 259.36 116.3 216.06"/><polygon class="cls-1" points="116.3 216.06 116.3 216.06 116.3 216.06 116.3 216.06"/><polygon class="cls-1" points="166.3 216.06 166.3 216.06 166.3 216.06 166.3 216.06"/><polygon class="cls-1" points="291.3 172.76 291.3 172.76 291.3 172.76 291.3 172.76"/><polygon class="cls-1" points="391.3 172.76 366.3 129.46 341.3 172.76 391.3 172.76"/><polygon class="cls-1" points="441.3 172.76 416.3 129.46 391.3 172.76 441.3 172.76"/><polygon class="cls-1" points="341.3 172.76 316.3 129.46 291.3 172.76 341.3 172.76"/><polygon class="cls-1" points="191.3 692.37 166.3 735.67 166.3 735.67 141.36 778.86 241.23 778.86 216.3 735.67 191.3 692.37 191.3 692.37"/><polygon class="cls-1" points="41.3 692.37 41.3 692.37 41.3 692.37 41.3 692.37"/><polygon class="cls-1" points="91.3 345.96 91.3 345.96 91.3 345.96 91.3 345.96"/><polygon class="cls-1" points="491.3 172.76 466.3 129.46 441.3 172.76 491.3 172.76"/><polygon class="cls-1" points="116.3 649.07 91.3 692.37 66.3 649.07 41.3 692.37 41.3 692.37 16.3 735.67 66.3 735.67 41.36 778.86 91.23 778.86 66.3 735.67 116.3 735.67 91.36 778.86 141.23 778.86 116.3 735.67 166.3 735.67 141.3 692.37 116.3 649.07"/><polygon class="cls-1" points="41.3 432.56 91.3 432.56 66.3 475.87 116.3 475.87 91.3 519.17 141.3 519.17 116.3 475.87 166.3 475.87 141.3 432.56 191.3 432.56 166.3 389.26 141.3 345.96 191.3 345.96 166.3 302.66 141.3 259.36 116.3 302.66 116.3 302.66 91.3 345.96 141.3 345.96 116.3 389.26 91.3 345.96 91.3 345.96 66.3 389.26 41.3 345.96 41.3 345.96 16.3 389.26 0 417.49 0 432.56 41.3 432.56 16.3 475.87 66.3 475.87 41.3 432.56"/><polygon class="cls-1" points="41.3 605.77 41.3 605.77 16.3 649.07 66.3 649.07 41.3 605.77"/><polygon class="cls-1" points="66.3 562.47 41.3 605.77 91.3 605.77 66.3 562.47 116.3 562.47 91.3 519.17 66.3 475.87 66.3 475.87 41.3 519.17 16.3 475.87 16.3 475.87 0 504.09 0 562.47 16.3 562.47 0 590.7 0 605.77 41.3 605.77 16.3 562.47 66.3 562.47"/><polygon class="cls-1" points="41.3 605.77 41.3 605.77 41.3 605.77 41.3 605.77"/><polygon class="cls-1" points="566.3 129.46 616.3 129.46 591.3 86.15 591.3 86.15 566.3 129.46"/><polygon class="cls-1" points="991.3 172.76 966.3 129.46 941.3 172.76 991.3 172.76"/><polygon class="cls-1" points="816.3 389.26 866.3 389.26 841.3 345.96 841.3 345.96 816.3 389.26"/><polygon class="cls-1" points="841.3 345.96 841.3 345.96 841.3 345.96 841.3 345.96"/><polygon class="cls-1" points="866.3 302.66 866.3 302.66 866.3 302.66 866.3 302.66"/><polygon class="cls-1" points="541.3 172.76 516.3 216.06 491.3 172.76 491.3 172.76 466.3 216.06 466.3 216.06 441.3 259.36 491.3 259.36 541.3 259.36 591.3 259.36 641.3 259.36 616.3 216.06 666.3 216.06 641.3 259.36 616.3 302.66 666.3 302.66 641.3 345.96 641.3 345.96 616.3 389.26 666.3 389.26 716.3 389.26 766.3 389.26 816.3 389.26 791.3 345.96 766.3 302.66 766.3 302.66 741.3 345.96 716.3 302.66 716.3 302.66 691.3 345.96 666.3 302.66 716.3 302.66 691.3 259.36 666.3 216.06 716.3 216.06 691.3 172.76 666.3 129.46 641.3 172.76 616.3 129.46 591.3 172.76 591.3 172.76 566.3 216.06 541.3 172.76 591.3 172.76 566.3 129.46 541.3 86.15 541.3 86.15 516.3 129.46 491.3 172.76 541.3 172.76"/><polygon class="cls-1" points="816.3 302.66 816.3 302.66 791.3 345.96 841.3 345.96 816.3 302.66"/><polygon class="cls-1" points="866.3 302.66 841.3 259.36 816.3 302.66 866.3 302.66"/><polygon class="cls-1" points="766.3 302.66 766.3 302.66 766.3 302.66 766.3 302.66"/><polygon class="cls-1" points="816.3 302.66 816.3 302.66 816.3 302.66 816.3 302.66"/><polygon class="cls-1" points="791.3 259.36 766.3 302.66 816.3 302.66 791.3 259.36"/><polygon class="cls-1" points="966.3 216.06 966.3 216.06 966.3 216.06 966.3 216.06"/><polygon class="cls-1" points="841.3 172.76 816.3 216.06 816.3 216.06 791.3 259.36 841.3 259.36 891.3 259.36 866.3 216.06 916.3 216.06 891.3 259.36 941.3 259.36 916.3 216.06 966.3 216.06 941.3 172.76 916.3 129.46 891.3 172.76 866.3 129.46 841.3 172.76 841.3 172.76"/><polygon class="cls-1" points="241.3 692.37 216.3 735.67 266.3 735.67 241.3 692.37 241.3 692.37"/><polygon class="cls-1" points="591.3 86.15 591.3 86.15 591.3 86.15 591.3 86.15"/><polygon class="cls-1" points="641.3 86.15 641.3 86.15 641.3 86.15 641.3 86.15"/><polygon class="cls-1" points="591.3 172.76 591.3 172.76 591.3 172.76 591.3 172.76"/><polygon class="cls-1" points="791.3 172.76 766.3 129.46 741.3 172.76 791.3 172.76"/><polygon class="cls-1" points="841.3 172.76 816.3 129.46 791.3 172.76 841.3 172.76"/><polygon class="cls-1" points="741.3 172.76 716.3 129.46 691.3 172.76 741.3 172.76"/><polygon class="cls-1" points="616.3 129.46 666.3 129.46 641.3 86.15 641.3 86.15 616.3 129.46"/><polygon class="cls-1" points="991.3 172.76 966.3 216.06 1016.3 216.06 991.3 259.36 1038.48 259.36 1038.48 254.49 1016.3 216.06 1038.48 216.06 1038.48 167.88 1016.3 129.46 991.3 172.76 991.3 172.76"/><polygon class="cls-1" points="891.3 86.15 891.3 86.15 866.3 129.46 916.3 129.46 966.3 129.46 941.3 86.15 916.3 42.85 966.3 42.85 941.3 86.15 991.3 86.15 966.3 42.85 1016.3 42.85 991.56 0 891.04 0 866.3 42.85 916.3 42.85 891.3 86.15"/><polygon class="cls-1" points="991.3 86.15 966.3 129.46 1016.3 129.46 1038.48 129.46 1038.48 81.28 1016.3 42.85 1016.3 42.85 991.3 86.15 991.3 86.15"/><polygon class="cls-1" points="891.3 86.15 866.3 42.85 866.3 42.85 841.3 86.15 891.3 86.15"/><polygon class="cls-1" points="541.3 86.15 591.3 86.15 566.3 42.85 616.3 42.85 591.3 86.15 641.3 86.15 616.3 42.85 666.3 42.85 641.3 86.15 691.3 86.15 666.3 129.46 716.3 129.46 691.3 86.15 741.3 86.15 716.3 42.85 691.56 0 541.04 0 516.3 42.85 566.3 42.85 541.3 86.15"/><polygon class="cls-1" points="991.3 86.15 991.3 86.15 991.3 86.15 991.3 86.15"/><polygon class="cls-1" points="741.3 86.15 716.3 129.46 766.3 129.46 816.3 129.46 866.3 129.46 841.3 86.15 816.3 42.85 816.3 42.85 791.3 86.15 766.3 42.85 766.3 42.85 741.3 86.15 741.3 86.15"/><polygon class="cls-1" points="966.3 302.66 941.3 259.36 916.3 302.66 891.3 259.36 866.3 302.66 866.3 302.66 841.3 345.96 891.3 345.96 866.3 389.26 916.3 389.26 891.3 345.96 941.3 345.96 916.3 389.26 966.3 389.26 1016.3 389.26 1038.48 389.26 1038.48 341.09 1016.3 302.66 1016.3 302.66 991.3 345.96 966.3 302.66"/><polygon class="cls-1" points="1016.3 302.66 991.3 259.36 966.3 302.66 1016.3 302.66"/><polygon class="cls-1" points="741.3 259.36 716.3 302.66 766.3 302.66 741.3 259.36"/><polygon class="cls-1" points="966.3 216.06 941.3 259.36 991.3 259.36 966.3 216.06 966.3 216.06"/><polygon class="cls-1" points="141.3 86.15 191.3 86.15 166.3 129.46 216.3 129.46 191.3 86.15 241.3 86.15 216.3 129.46 191.3 172.76 241.3 172.76 216.3 216.06 266.3 216.06 241.3 172.76 291.3 172.76 266.3 129.46 241.3 86.15 291.3 86.15 266.3 42.85 241.56 0 241.04 0 216.3 42.85 191.56 0 141.04 0 116.3 42.85 166.3 42.85 141.3 86.15"/><polygon class="cls-1" points="41.3 86.15 41.3 86.15 41.3 86.15 41.3 86.15"/><polygon class="cls-1" points="41.3 86.15 41.3 86.15 16.3 129.46 66.3 129.46 41.3 86.15"/><polygon class="cls-1" points="91.3 86.15 66.3 129.46 41.3 172.76 91.3 172.76 66.3 216.06 116.3 216.06 91.3 172.76 141.3 172.76 116.3 216.06 166.3 216.06 141.3 172.76 191.3 172.76 166.3 129.46 141.3 86.15 141.3 86.15 116.3 129.46 91.3 86.15 141.3 86.15 116.3 42.85 91.56 0 91.04 0 66.3 42.85 66.3 42.85 41.3 86.15 91.3 86.15"/><polygon class="cls-1" points="541.3 86.15 516.3 42.85 516.3 42.85 491.3 86.15 541.3 86.15"/><polygon class="cls-1" points="0 216.06 16.3 216.06 0 244.29 0 302.66 16.3 302.66 0 330.89 0 345.96 41.3 345.96 16.3 302.66 66.3 302.66 41.3 345.96 91.3 345.96 66.3 302.66 116.3 302.66 91.3 259.36 66.3 216.06 66.3 216.06 41.3 259.36 16.3 216.06 66.3 216.06 41.3 172.76 16.3 129.46 0 157.68 0 216.06"/><polygon class="cls-1" points="391.3 86.15 391.3 86.15 366.3 129.46 416.3 129.46 466.3 129.46 516.3 129.46 491.3 86.15 466.3 42.85 466.3 42.85 441.3 86.15 416.3 42.85 466.3 42.85 441.56 0 391.04 0 366.3 42.85 416.3 42.85 391.3 86.15"/><polygon class="cls-1" points="391.3 86.15 366.3 42.85 366.3 42.85 341.3 86.15 391.3 86.15"/><polygon class="cls-1" points="991.3 432.56 966.3 475.87 1016.3 475.87 991.3 519.17 1038.48 519.17 1038.48 514.29 1016.3 475.87 1038.48 475.87 1038.48 427.69 1016.3 389.26 991.3 432.56 991.3 432.56"/><polygon class="cls-1" points="291.3 86.15 266.3 129.46 316.3 129.46 366.3 129.46 341.3 86.15 316.3 42.85 316.3 42.85 291.3 86.15 291.3 86.15"/><polygon class="cls-1" points="941.3 432.56 941.3 432.56 916.3 475.87 891.3 432.56 866.3 389.26 841.3 432.56 841.3 432.56 816.3 475.87 866.3 475.87 841.3 519.17 891.3 519.17 941.3 519.17 991.3 519.17 966.3 475.87 941.3 432.56"/><polygon class="cls-1" points="491.3 692.37 466.3 735.67 516.3 735.67 491.3 692.37 491.3 692.37"/><polygon class="cls-1" points="591.3 692.37 566.3 649.07 541.3 605.77 591.3 605.77 566.3 649.07 616.3 649.07 591.3 605.77 641.3 605.77 616.3 562.47 591.3 519.17 566.3 562.47 541.3 519.17 516.3 562.47 516.3 562.47 491.3 605.77 541.3 605.77 516.3 649.07 491.3 692.37 541.3 692.37 516.3 735.67 566.3 735.67 541.3 692.37 591.3 692.37"/><polygon class="cls-1" points="666.3 649.07 641.3 692.37 616.3 649.07 591.3 692.37 591.3 692.37 566.3 735.67 616.3 735.67 591.36 778.86 641.23 778.86 616.3 735.67 666.3 735.67 641.36 778.86 691.23 778.86 666.3 735.67 716.3 735.67 691.3 692.37 666.3 649.07"/><polygon class="cls-1" points="391.3 692.37 366.3 649.07 416.3 649.07 466.3 649.07 441.3 605.77 416.3 562.47 466.3 562.47 441.3 605.77 491.3 605.77 466.3 562.47 516.3 562.47 491.3 519.17 466.3 475.87 516.3 475.87 491.3 432.56 466.3 389.26 441.3 432.56 441.3 432.56 416.3 475.87 466.3 475.87 441.3 519.17 416.3 475.87 416.3 475.87 391.3 519.17 366.3 562.47 416.3 562.47 391.3 605.77 366.3 562.47 366.3 562.47 341.3 605.77 341.3 605.77 316.3 649.07 291.3 605.77 341.3 605.77 316.3 562.47 291.3 519.17 266.3 562.47 241.3 519.17 216.3 562.47 191.3 519.17 166.3 562.47 166.3 562.47 141.3 605.77 191.3 605.77 166.3 649.07 216.3 649.07 191.3 605.77 241.3 605.77 216.3 649.07 266.3 649.07 241.3 605.77 291.3 605.77 266.3 649.07 241.3 692.37 291.3 692.37 266.3 735.67 316.3 735.67 291.3 692.37 341.3 692.37 316.3 735.67 316.3 735.67 291.36 778.86 391.23 778.86 366.3 735.67 341.3 692.37 391.3 692.37"/><polygon class="cls-1" points="416.3 649.07 391.3 692.37 391.3 692.37 366.3 735.67 416.3 735.67 391.36 778.86 441.23 778.86 416.3 735.67 466.3 735.67 441.3 692.37 416.3 649.07"/><polygon class="cls-1" points="916.3 649.07 891.3 692.37 891.3 692.37 866.3 735.67 916.3 735.67 891.36 778.86 941.23 778.86 916.3 735.67 966.3 735.67 941.3 692.37 916.3 649.07"/><polygon class="cls-1" points="966.3 562.47 941.3 605.77 991.3 605.77 966.3 649.07 941.3 692.37 991.3 692.37 966.3 735.67 1016.3 735.67 991.3 692.37 1038.48 692.37 1038.48 687.5 1016.3 649.07 991.3 605.77 1038.48 605.77 1038.48 524.04 1016.3 562.47 991.3 519.17 966.3 562.47 966.3 562.47"/><polygon class="cls-1" points="841.3 692.37 816.3 649.07 866.3 649.07 841.3 605.77 891.3 605.77 866.3 562.47 841.3 519.17 816.3 562.47 816.3 562.47 791.3 605.77 791.3 605.77 766.3 649.07 741.3 605.77 791.3 605.77 766.3 562.47 741.3 519.17 716.3 562.47 716.3 562.47 691.3 605.77 741.3 605.77 716.3 649.07 691.3 692.37 741.3 692.37 716.3 735.67 766.3 735.67 741.3 692.37 791.3 692.37 766.3 735.67 816.3 735.67 791.3 692.37 841.3 692.37"/><polygon class="cls-1" points="841.3 692.37 816.3 735.67 866.3 735.67 841.3 692.37 841.3 692.37"/><polygon class="cls-1" points="641.3 432.56 641.3 432.56 616.3 475.87 666.3 475.87 641.3 432.56"/><polygon class="cls-1" points="216.3 302.66 216.3 302.66 191.3 345.96 241.3 345.96 216.3 302.66"/><polygon class="cls-1" points="341.3 345.96 341.3 345.96 341.3 345.96 341.3 345.96"/><polygon class="cls-1" points="366.3 302.66 366.3 302.66 366.3 302.66 366.3 302.66"/><polygon class="cls-1" points="416.3 302.66 416.3 302.66 416.3 302.66 416.3 302.66"/><polygon class="cls-1" points="391.3 259.36 366.3 302.66 416.3 302.66 391.3 259.36"/><polygon class="cls-1" points="416.3 216.06 416.3 216.06 416.3 216.06 416.3 216.06"/><polygon class="cls-1" points="241.3 345.96 241.3 345.96 241.3 345.96 241.3 345.96"/><polygon class="cls-1" points="216.3 389.26 191.3 432.56 241.3 432.56 216.3 389.26"/><polygon class="cls-1" points="241.3 432.56 241.3 432.56 241.3 432.56 241.3 432.56"/><polygon class="cls-1" points="216.3 302.66 216.3 302.66 216.3 302.66 216.3 302.66"/><polygon class="cls-1" points="716.3 302.66 716.3 302.66 716.3 302.66 716.3 302.66"/><polygon class="cls-1" points="266.3 302.66 241.3 345.96 241.3 345.96 216.3 389.26 266.3 389.26 316.3 389.26 291.3 345.96 266.3 302.66 316.3 302.66 291.3 345.96 341.3 345.96 316.3 302.66 366.3 302.66 341.3 259.36 391.3 259.36 366.3 216.06 341.3 172.76 341.3 172.76 316.3 216.06 316.3 216.06 291.3 259.36 266.3 216.06 266.3 216.06 241.3 259.36 216.3 302.66 266.3 302.66"/><polygon class="cls-1" points="191.3 259.36 166.3 302.66 216.3 302.66 191.3 259.36"/><polygon class="cls-1" points="391.3 432.56 366.3 389.26 341.3 432.56 391.3 432.56"/><polygon class="cls-1" points="291.3 172.76 291.3 172.76 266.3 216.06 316.3 216.06 291.3 172.76"/><polygon class="cls-1" points="416.3 216.06 391.3 172.76 391.3 172.76 366.3 216.06 416.3 216.06"/><polygon class="cls-1" points="316.3 216.06 316.3 216.06 316.3 216.06 316.3 216.06"/><polygon class="cls-1" points="466.3 216.06 466.3 216.06 466.3 216.06 466.3 216.06"/><polygon class="cls-1" points="466.3 216.06 441.3 172.76 441.3 172.76 416.3 216.06 466.3 216.06"/><polygon class="cls-1" points="416.3 216.06 391.3 259.36 441.3 259.36 416.3 216.06 416.3 216.06"/><polygon class="cls-1" points="516.3 302.66 491.3 345.96 541.3 345.96 516.3 389.26 566.3 389.26 616.3 389.26 591.3 345.96 566.3 302.66 541.3 259.36 516.3 302.66 516.3 302.66"/><polygon class="cls-1" points="466.3 302.66 466.3 302.66 466.3 302.66 466.3 302.66"/><polygon class="cls-1" points="466.3 302.66 441.3 345.96 491.3 345.96 466.3 302.66 466.3 302.66"/><polygon class="cls-1" points="541.3 432.56 541.3 432.56 541.3 432.56 541.3 432.56"/><polygon class="cls-1" points="491.3 345.96 491.3 345.96 491.3 345.96 491.3 345.96"/><polygon class="cls-1" points="516.3 302.66 516.3 302.66 516.3 302.66 516.3 302.66"/><polygon class="cls-1" points="691.3 432.56 666.3 389.26 641.3 432.56 691.3 432.56"/><polygon class="cls-1" points="666.3 475.87 666.3 475.87 666.3 475.87 666.3 475.87"/><polygon class="cls-1" points="691.3 432.56 691.3 432.56 691.3 432.56 691.3 432.56"/><polygon class="cls-1" points="641.3 432.56 616.3 389.26 591.3 432.56 641.3 432.56"/><polygon class="cls-1" points="616.3 302.66 616.3 302.66 616.3 302.66 616.3 302.66"/><polygon class="cls-1" points="391.3 432.56 391.3 432.56 391.3 432.56 391.3 432.56"/><polygon class="cls-1" points="441.3 432.56 416.3 389.26 391.3 432.56 441.3 432.56"/><polygon class="cls-1" points="366.3 475.87 416.3 475.87 391.3 432.56 391.3 432.56 366.3 475.87"/><polygon class="cls-1" points="366.3 475.87 366.3 475.87 366.3 475.87 366.3 475.87"/><polygon class="cls-1" points="466.3 302.66 441.3 259.36 416.3 302.66 466.3 302.66"/><polygon class="cls-1" points="591.3 345.96 641.3 345.96 616.3 302.66 616.3 302.66 591.3 345.96"/><polygon class="cls-1" points="616.3 302.66 591.3 259.36 566.3 302.66 616.3 302.66"/><polygon class="cls-1" points="641.3 345.96 641.3 345.96 641.3 345.96 641.3 345.96"/><polygon class="cls-1" points="191.3 345.96 191.3 345.96 166.3 389.26 216.3 389.26 191.3 345.96"/><polygon class="cls-1" points="516.3 302.66 491.3 259.36 466.3 302.66 516.3 302.66"/><polygon class="cls-1" points="191.3 345.96 191.3 345.96 191.3 345.96 191.3 345.96"/><polygon class="cls-1" points="766.3 475.87 741.3 432.56 716.3 389.26 691.3 432.56 691.3 432.56 666.3 475.87 666.3 475.87 641.3 519.17 691.3 519.17 741.3 519.17 716.3 475.87 766.3 475.87"/><polygon class="cls-1" points="766.3 475.87 766.3 475.87 741.3 519.17 791.3 519.17 766.3 475.87"/><polygon class="cls-1" points="791.3 519.17 766.3 562.47 816.3 562.47 791.3 519.17"/><polygon class="cls-1" points="816.3 562.47 816.3 562.47 816.3 562.47 816.3 562.47"/><polygon class="cls-1" points="716.3 562.47 716.3 562.47 716.3 562.47 716.3 562.47"/><polygon class="cls-1" points="791.3 605.77 791.3 605.77 791.3 605.77 791.3 605.77"/><polygon class="cls-1" points="641.3 605.77 641.3 605.77 641.3 605.77 641.3 605.77"/><polygon class="cls-1" points="666.3 649.07 716.3 649.07 691.3 605.77 691.3 605.77 666.3 649.07"/><polygon class="cls-1" points="641.3 519.17 616.3 562.47 666.3 562.47 641.3 519.17"/><polygon class="cls-1" points="641.3 605.77 616.3 649.07 666.3 649.07 641.3 605.77 641.3 605.77"/><polygon class="cls-1" points="841.3 432.56 841.3 432.56 841.3 432.56 841.3 432.56"/><polygon class="cls-1" points="816.3 216.06 816.3 216.06 816.3 216.06 816.3 216.06"/><polygon class="cls-1" points="716.3 216.06 716.3 216.06 716.3 216.06 716.3 216.06"/><polygon class="cls-1" points="816.3 216.06 791.3 172.76 791.3 172.76 766.3 216.06 816.3 216.06"/><polygon class="cls-1" points="791.3 259.36 766.3 216.06 741.3 172.76 741.3 172.76 716.3 216.06 716.3 216.06 691.3 259.36 741.3 259.36 791.3 259.36"/><polygon class="cls-1" points="741.3 172.76 741.3 172.76 741.3 172.76 741.3 172.76"/><polygon class="cls-1" points="841.3 172.76 841.3 172.76 841.3 172.76 841.3 172.76"/><polygon class="cls-1" points="666.3 562.47 666.3 562.47 666.3 562.47 666.3 562.47"/><polygon class="cls-1" points="791.3 519.17 841.3 519.17 816.3 475.87 816.3 475.87 791.3 519.17"/><polygon class="cls-1" points="791.3 172.76 791.3 172.76 791.3 172.76 791.3 172.76"/><polygon class="cls-1" points="616.3 475.87 616.3 475.87 591.3 519.17 641.3 519.17 616.3 475.87"/><polygon class="cls-1" points="366.3 562.47 366.3 562.47 366.3 562.47 366.3 562.47"/><polygon class="cls-1" points="366.3 475.87 341.3 519.17 391.3 519.17 366.3 475.87 366.3 475.87"/><polygon class="cls-1" points="341.3 605.77 341.3 605.77 341.3 605.77 341.3 605.77"/><polygon class="cls-1" points="441.3 432.56 441.3 432.56 441.3 432.56 441.3 432.56"/><polygon class="cls-1" points="416.3 475.87 416.3 475.87 416.3 475.87 416.3 475.87"/><polygon class="cls-1" points="641.3 605.77 691.3 605.77 666.3 562.47 666.3 562.47 641.3 605.77"/><polygon class="cls-1" points="166.3 475.87 166.3 475.87 166.3 475.87 166.3 475.87"/><polygon class="cls-1" points="191.3 432.56 191.3 432.56 166.3 475.87 166.3 475.87 141.3 519.17 191.3 519.17 241.3 519.17 216.3 475.87 191.3 432.56"/><polygon class="cls-1" points="316.3 475.87 366.3 475.87 341.3 432.56 316.3 389.26 291.3 432.56 266.3 389.26 241.3 432.56 241.3 432.56 216.3 475.87 266.3 475.87 241.3 519.17 291.3 519.17 266.3 475.87 316.3 475.87 291.3 519.17 341.3 519.17 316.3 475.87"/><polygon class="cls-1" points="341.3 519.17 316.3 562.47 366.3 562.47 341.3 519.17"/><polygon class="cls-1" points="716.3 562.47 691.3 519.17 666.3 562.47 716.3 562.47"/><polygon class="cls-1" points="191.3 432.56 191.3 432.56 191.3 432.56 191.3 432.56"/><polygon class="cls-1" points="691.3 605.77 691.3 605.77 691.3 605.77 691.3 605.77"/><polygon class="cls-1" points="416.3 302.66 416.3 302.66 391.3 345.96 366.3 302.66 366.3 302.66 341.3 345.96 341.3 345.96 316.3 389.26 366.3 389.26 416.3 389.26 466.3 389.26 441.3 345.96 416.3 302.66"/><polygon class="cls-1" points="616.3 475.87 591.3 432.56 566.3 389.26 541.3 432.56 541.3 432.56 516.3 475.87 566.3 475.87 541.3 519.17 591.3 519.17 566.3 475.87 616.3 475.87"/><polygon class="cls-1" points="516.3 389.26 491.3 432.56 541.3 432.56 516.3 389.26"/><polygon class="cls-1" points="516.3 475.87 491.3 519.17 541.3 519.17 516.3 475.87 516.3 475.87"/><polygon class="cls-1" points="491.3 345.96 491.3 345.96 466.3 389.26 516.3 389.26 491.3 345.96"/><polygon class="cls-1" points="516.3 475.87 516.3 475.87 516.3 475.87 516.3 475.87"/></g></g></svg>