<svg xmlns="http://www.w3.org/2000/svg" viewBox="0 0 1038.48 778.86"><defs><style>.cls-1{fill:none;}.cls-2{fill:lime;}</style></defs><title>Element 21</title><g id="Ebene_2" data-name="Ebene 2"><g id="Ebene_1-2" data-name="Ebene 1"><polygon class="cls-1" points="818.52 389.26 868.52 389.26 843.52 345.96 843.52 345.96 818.52 389.26"/><polygon class="cls-1" points="868.52 302.66 843.52 259.36 818.52 302.66 868.52 302.66"/><polygon class="cls-1" points="493.52 345.96 493.52 345.96 468.52 389.26 518.52 389.26 493.52 345.96"/><polygon class="cls-1" points="368.52 475.87 343.52 519.17 393.52 519.17 368.52 475.87 368.52 475.87"/><polygon class="cls-1" points="818.52 302.66 818.52 302.66 793.52 345.96 843.52 345.96 818.52 302.66"/><polygon class="cls-1" points="793.52 259.36 768.52 302.66 818.52 302.66 793.52 259.36"/><polygon class="cls-1" points="418.52 302.66 418.52 302.66 393.52 345.96 368.52 302.66 368.52 302.66 343.52 345.96 343.52 345.96 318.52 389.26 368.52 389.26 418.52 389.26 468.52 389.26 443.52 345.96 418.52 302.66"/><polygon class="cls-1" points="418.52 216.06 393.52 172.76 393.52 172.76 368.52 216.06 418.52 216.06"/><polygon class="cls-1" points="343.52 519.17 318.52 562.47 368.52 562.47 343.52 519.17"/><polygon class="cls-1" points="843.52 172.76 818.52 216.06 818.52 216.06 793.52 259.36 843.52 259.36 893.52 259.36 868.52 216.06 918.52 216.06 893.52 259.36 943.52 259.36 918.52 216.06 968.52 216.06 943.52 172.76 918.52 129.46 893.52 172.76 868.52 129.46 843.52 172.76 843.52 172.76"/><polygon class="cls-1" points="218.52 389.26 193.52 432.56 243.52 432.56 218.52 389.26"/><polygon class="cls-1" points="293.52 172.76 293.52 172.76 268.52 216.06 318.52 216.06 293.52 172.76"/><polygon class="cls-1" points="218.52 302.66 218.52 302.66 193.52 345.96 243.52 345.96 218.52 302.66"/><polygon class="cls-1" points="318.52 389.26 293.52 345.96 268.52 302.66 318.52 302.66 293.52 345.96 343.52 345.96 318.52 302.66 368.52 302.66 343.52 259.36 393.52 259.36 368.52 216.06 343.52 172.76 343.52 172.76 318.52 216.06 318.52 216.06 293.52 259.36 268.52 216.06 268.52 216.06 243.52 259.36 218.52 302.66 268.52 302.66 243.52 345.96 243.52 345.96 218.52 389.26 268.52 389.26 318.52 389.26"/><polygon class="cls-1" points="993.52 172.76 968.52 129.46 943.52 172.76 993.52 172.76"/><polygon class="cls-1" points="318.52 475.87 368.52 475.87 343.52 432.56 318.52 389.26 293.52 432.56 268.52 389.26 243.52 432.56 243.52 432.56 218.52 475.87 268.52 475.87 243.52 519.17 293.52 519.17 268.52 475.87 318.52 475.87 293.52 519.17 343.52 519.17 318.52 475.87"/><polygon class="cls-1" points="943.52 259.36 993.52 259.36 968.52 216.06 968.52 216.06 943.52 259.36"/><polygon class="cls-1" points="193.52 692.37 168.52 649.07 143.52 692.37 193.52 692.37"/><polygon class="cls-1" points="118.52 562.47 93.52 605.77 93.52 605.77 68.52 649.07 118.52 649.07 168.52 649.07 143.52 605.77 118.52 562.47 118.52 562.47"/><polygon class="cls-1" points="993.52 432.56 968.52 389.26 943.52 432.56 993.52 432.56"/><polygon class="cls-1" points="643.52 605.77 618.52 562.47 593.52 519.17 568.52 562.47 543.52 519.17 518.52 562.47 518.52 562.47 493.52 605.77 543.52 605.77 518.52 649.07 493.52 692.37 543.52 692.37 518.52 735.67 568.52 735.67 543.52 692.37 593.52 692.37 568.52 649.07 543.52 605.77 593.52 605.77 568.52 649.07 618.52 649.07 593.52 605.77 643.52 605.77"/><polygon class="cls-1" points="943.52 432.56 918.52 389.26 893.52 432.56 943.52 432.56"/><polygon class="cls-1" points="843.52 432.56 818.52 475.87 868.52 475.87 843.52 519.17 893.52 519.17 943.52 519.17 993.52 519.17 968.52 475.87 943.52 432.56 943.52 432.56 918.52 475.87 893.52 432.56 868.52 389.26 843.52 432.56 843.52 432.56"/><polygon class="cls-1" points="643.52 605.77 618.52 649.07 668.52 649.07 643.52 605.77 643.52 605.77"/><polygon class="cls-1" points="43.52 605.77 43.52 605.77 18.52 649.07 68.52 649.07 43.52 605.77"/><polygon class="cls-1" points="793.52 692.37 843.52 692.37 818.52 649.07 868.52 649.07 843.52 605.77 893.52 605.77 868.52 562.47 843.52 519.17 818.52 562.47 818.52 562.47 793.52 605.77 793.52 605.77 768.52 649.07 743.52 605.77 793.52 605.77 768.52 562.47 743.52 519.17 718.52 562.47 718.52 562.47 693.52 605.77 743.52 605.77 718.52 649.07 693.52 692.37 743.52 692.37 718.52 735.67 768.52 735.67 743.52 692.37 793.52 692.37 768.52 735.67 818.52 735.67 793.52 692.37"/><polygon class="cls-1" points="918.52 562.47 893.52 605.77 893.52 605.77 868.52 649.07 918.52 649.07 968.52 649.07 943.52 605.77 918.52 562.47 918.52 562.47"/><polygon class="cls-1" points="843.52 692.37 843.52 692.37 818.52 735.67 868.52 735.67 843.52 692.37"/><polygon class="cls-1" points="468.52 649.07 443.52 692.37 493.52 692.37 468.52 649.07"/><polygon class="cls-1" points="493.52 605.77 493.52 605.77 468.52 649.07 518.52 649.07 493.52 605.77"/><polygon class="cls-1" points="793.52 259.36 768.52 216.06 743.52 172.76 743.52 172.76 718.52 216.06 718.52 216.06 693.52 259.36 743.52 259.36 793.52 259.36"/><polygon class="cls-1" points="518.52 389.26 493.52 432.56 543.52 432.56 518.52 389.26"/><polygon class="cls-1" points="518.52 475.87 518.52 475.87 493.52 519.17 543.52 519.17 518.52 475.87"/><polygon class="cls-1" points="743.52 259.36 718.52 302.66 768.52 302.66 743.52 259.36"/><polygon class="cls-1" points="768.52 129.46 743.52 172.76 793.52 172.76 768.52 129.46"/><polygon class="cls-1" points="843.52 172.76 818.52 129.46 793.52 172.76 843.52 172.76"/><polygon class="cls-1" points="493.52 692.37 493.52 692.37 468.52 735.67 518.52 735.67 493.52 692.37"/><polygon class="cls-1" points="168.52 562.47 143.52 519.17 118.52 562.47 168.52 562.47"/><polygon class="cls-1" points="793.52 172.76 793.52 172.76 768.52 216.06 818.52 216.06 793.52 172.76"/><polygon class="cls-1" points="318.52 129.46 293.52 172.76 343.52 172.76 318.52 129.46"/><polygon class="cls-1" points="793.52 519.17 843.52 519.17 818.52 475.87 818.52 475.87 793.52 519.17"/><polygon class="cls-1" points="768.52 475.87 768.52 475.87 743.52 519.17 793.52 519.17 768.52 475.87"/><polygon class="cls-1" points="793.52 519.17 768.52 562.47 818.52 562.47 793.52 519.17"/><polygon class="cls-1" points="343.52 86.15 393.52 86.15 368.52 42.85 368.52 42.85 343.52 86.15"/><polygon class="cls-1" points="668.52 562.47 643.52 605.77 693.52 605.77 668.52 562.47 668.52 562.47"/><polygon class="cls-1" points="818.52 475.87 793.52 432.56 793.52 432.56 768.52 475.87 818.52 475.87"/><polygon class="cls-1" points="893.52 692.37 868.52 649.07 843.52 692.37 893.52 692.37"/><polygon class="cls-1" points="843.52 432.56 818.52 389.26 793.52 432.56 843.52 432.56"/><polygon class="cls-1" points="443.52 172.76 418.52 129.46 393.52 172.76 443.52 172.76"/><polygon class="cls-1" points="493.52 172.76 468.52 129.46 443.52 172.76 493.52 172.76"/><polygon class="cls-1" points="793.52 432.56 768.52 389.26 743.52 432.56 793.52 432.56"/><polygon class="cls-1" points="393.52 172.76 368.52 129.46 343.52 172.76 393.52 172.76"/><polygon class="cls-1" points="643.52 519.17 618.52 562.47 668.52 562.47 643.52 519.17"/><polygon class="cls-1" points="693.52 432.56 668.52 475.87 668.52 475.87 643.52 519.17 693.52 519.17 743.52 519.17 718.52 475.87 768.52 475.87 743.52 432.56 718.52 389.26 693.52 432.56 693.52 432.56"/><polygon class="cls-1" points="693.52 605.77 693.52 605.77 668.52 649.07 718.52 649.07 693.52 605.77"/><polygon class="cls-1" points="243.52 259.36 218.52 216.06 193.52 172.76 193.52 172.76 168.52 216.06 168.52 216.06 143.52 259.36 193.52 259.36 243.52 259.36"/><polygon class="cls-1" points="968.52 562.47 943.52 519.17 918.52 562.47 968.52 562.47"/><polygon class="cls-1" points="193.52 259.36 168.52 302.66 218.52 302.66 193.52 259.36"/><polygon class="cls-1" points="193.52 345.96 193.52 345.96 168.52 389.26 218.52 389.26 193.52 345.96"/><polygon class="cls-1" points="1018.52 302.66 993.52 259.36 968.52 302.66 1018.52 302.66"/><polygon class="cls-1" points="918.52 562.47 893.52 519.17 868.52 562.47 918.52 562.47"/><polygon class="cls-1" points="718.52 562.47 693.52 519.17 668.52 562.47 718.52 562.47"/><polygon class="cls-1" points="368.52 129.46 343.52 86.15 318.52 42.85 318.52 42.85 293.52 86.15 293.52 86.15 268.52 129.46 318.52 129.46 368.52 129.46"/><polygon class="cls-1" points="618.52 475.87 618.52 475.87 593.52 519.17 643.52 519.17 618.52 475.87"/><polygon class="cls-1" points="668.52 475.87 643.52 432.56 643.52 432.56 618.52 475.87 668.52 475.87"/><polygon class="cls-1" points="618.52 475.87 593.52 432.56 568.52 389.26 543.52 432.56 543.52 432.56 518.52 475.87 568.52 475.87 543.52 519.17 593.52 519.17 568.52 475.87 618.52 475.87"/><polygon class="cls-1" points="518.52 42.85 518.52 42.85 493.52 86.15 543.52 86.15 518.52 42.85"/><polygon class="cls-1" points="818.52 129.46 868.52 129.46 843.52 86.15 818.52 42.85 818.52 42.85 793.52 86.15 768.52 42.85 768.52 42.85 743.52 86.15 743.52 86.15 718.52 129.46 768.52 129.46 818.52 129.46"/><polygon class="cls-1" points="218.52 735.67 268.52 735.67 243.52 692.37 243.52 692.37 218.52 735.67"/><polygon class="cls-1" points="843.52 86.15 893.52 86.15 868.52 42.85 868.52 42.85 843.52 86.15"/><polygon class="cls-1" points="743.52 172.76 718.52 129.46 693.52 172.76 743.52 172.76"/><polygon class="cls-1" points="618.52 129.46 668.52 129.46 643.52 86.15 643.52 86.15 618.52 129.46"/><polygon class="cls-1" points="393.52 432.56 368.52 389.26 343.52 432.56 393.52 432.56"/><polygon class="cls-1" points="468.52 216.06 443.52 172.76 443.52 172.76 418.52 216.06 468.52 216.06"/><polygon class="cls-1" points="43.52 86.15 43.52 86.15 18.52 129.46 68.52 129.46 43.52 86.15"/><polygon class="cls-1" points="418.52 216.06 393.52 259.36 443.52 259.36 418.52 216.06 418.52 216.06"/><polygon class="cls-1" points="243.52 692.37 218.52 649.07 193.52 692.37 243.52 692.37"/><polygon class="cls-1" points="243.52 519.17 218.52 475.87 193.52 432.56 193.52 432.56 168.52 475.87 168.52 475.87 143.52 519.17 193.52 519.17 243.52 519.17"/><polygon class="cls-1" points="393.52 259.36 368.52 302.66 418.52 302.66 393.52 259.36"/><polygon class="cls-1" points="443.52 432.56 418.52 389.26 393.52 432.56 443.52 432.56"/><polygon class="cls-1" points="368.52 475.87 418.52 475.87 393.52 432.56 393.52 432.56 368.52 475.87"/><polygon class="cls-1" points="618.52 302.66 593.52 259.36 568.52 302.66 618.52 302.66"/><polygon class="cls-1" points="468.52 302.66 443.52 345.96 493.52 345.96 468.52 302.66 468.52 302.66"/><polygon class="cls-1" points="518.52 302.66 493.52 345.96 543.52 345.96 518.52 389.26 568.52 389.26 618.52 389.26 593.52 345.96 568.52 302.66 543.52 259.36 518.52 302.66 518.52 302.66"/><polygon class="cls-1" points="643.52 432.56 618.52 389.26 593.52 432.56 643.52 432.56"/><polygon class="cls-1" points="543.52 172.76 518.52 216.06 493.52 172.76 493.52 172.76 468.52 216.06 468.52 216.06 443.52 259.36 493.52 259.36 543.52 259.36 593.52 259.36 643.52 259.36 618.52 216.06 668.52 216.06 643.52 259.36 618.52 302.66 668.52 302.66 643.52 345.96 643.52 345.96 618.52 389.26 668.52 389.26 718.52 389.26 768.52 389.26 818.52 389.26 793.52 345.96 768.52 302.66 768.52 302.66 743.52 345.96 718.52 302.66 718.52 302.66 693.52 345.96 668.52 302.66 718.52 302.66 693.52 259.36 668.52 216.06 718.52 216.06 693.52 172.76 668.52 129.46 643.52 172.76 618.52 129.46 593.52 172.76 593.52 172.76 568.52 216.06 543.52 172.76 593.52 172.76 568.52 129.46 543.52 86.15 543.52 86.15 518.52 129.46 493.52 172.76 543.52 172.76"/><polygon class="cls-1" points="593.52 345.96 643.52 345.96 618.52 302.66 618.52 302.66 593.52 345.96"/><polygon class="cls-1" points="693.52 432.56 668.52 389.26 643.52 432.56 693.52 432.56"/><polygon class="cls-1" points="118.52 216.06 93.52 259.36 143.52 259.36 118.52 216.06 118.52 216.06"/><polygon class="cls-1" points="518.52 302.66 493.52 259.36 468.52 302.66 518.52 302.66"/><polygon class="cls-1" points="468.52 302.66 443.52 259.36 418.52 302.66 468.52 302.66"/><polygon class="cls-1" points="568.52 129.46 618.52 129.46 593.52 86.15 593.52 86.15 568.52 129.46"/><polygon class="cls-2" points="0 0 0 10.77 18.52 42.85 43.26 0 0 0"/><polygon class="cls-2" points="68.52 42.85 68.52 42.85 93.26 0 43.78 0 68.52 42.85 68.52 42.85 68.52 42.85"/><polygon class="cls-2" points="93.78 0 118.52 42.85 143.26 0 93.78 0"/><polygon class="cls-2" points="193.78 0 218.52 42.85 243.26 0 193.78 0"/><polygon class="cls-2" points="243.78 0 268.52 42.85 293.26 0 243.78 0"/><polygon class="cls-2" points="318.52 42.85 318.52 42.85 343.26 0 293.78 0 318.52 42.85 318.52 42.85 318.52 42.85"/><polygon class="cls-2" points="368.52 42.85 368.52 42.85 393.26 0 343.78 0 368.52 42.85 368.52 42.85 368.52 42.85"/><polygon class="cls-2" points="443.78 0 468.52 42.85 468.52 42.85 468.52 42.85 468.52 42.85 493.26 0 443.78 0"/><polygon class="cls-2" points="518.52 42.85 518.52 42.85 543.26 0 493.78 0 518.52 42.85 518.52 42.85 518.52 42.85"/><polygon class="cls-2" points="693.78 0 718.52 42.85 743.26 0 693.78 0"/><polygon class="cls-2" points="768.52 42.85 768.52 42.85 793.26 0 743.78 0 768.52 42.85 768.52 42.85 768.52 42.85"/><polygon class="cls-2" points="818.52 42.85 818.52 42.85 843.26 0 793.78 0 818.52 42.85 818.52 42.85 818.52 42.85"/><polygon class="cls-2" points="868.52 42.85 868.52 42.85 893.26 0 843.78 0 868.52 42.85 868.52 42.85 868.52 42.85"/><polygon class="cls-2" points="1018.52 42.85 1018.52 42.85 1038.48 8.27 1038.48 0 993.78 0 1018.52 42.85 1018.52 42.85 1018.52 42.85"/><polygon class="cls-2" points="43.52 86.15 43.52 86.15 68.52 42.85 68.52 42.85 68.52 42.85 18.52 42.85 43.52 86.15 43.52 86.15 43.52 86.15"/><polygon class="cls-2" points="118.52 42.85 143.52 86.15 143.52 86.15 143.52 86.15 143.52 86.15 168.52 42.85 118.52 42.85"/><polygon class="cls-2" points="293.52 86.15 293.52 86.15 318.52 42.85 318.52 42.85 318.52 42.85 268.52 42.85 293.52 86.15 293.52 86.15 293.52 86.15"/><polygon class="cls-2" points="368.52 42.85 368.52 42.85 368.52 42.85 318.52 42.85 343.52 86.15 368.52 42.85"/><polygon class="cls-2" points="393.52 86.15 393.52 86.15 393.52 86.15 418.52 42.85 368.52 42.85 393.52 86.15 393.52 86.15"/><polygon class="cls-2" points="468.52 42.85 418.52 42.85 443.52 86.15 468.52 42.85 468.52 42.85 468.52 42.85"/><polygon class="cls-2" points="518.52 42.85 518.52 42.85 468.52 42.85 493.52 86.15 518.52 42.85 518.52 42.85"/><polygon class="cls-2" points="543.52 86.15 543.52 86.15 543.52 86.15 568.52 42.85 518.52 42.85 543.52 86.15 543.52 86.15"/><polygon class="cls-2" points="593.52 86.15 593.52 86.15 618.52 42.85 568.52 42.85 593.52 86.15 593.52 86.15 593.52 86.15"/><polygon class="cls-2" points="643.52 86.15 643.52 86.15 668.52 42.85 618.52 42.85 643.52 86.15 643.52 86.15 643.52 86.15"/><polygon class="cls-2" points="743.52 86.15 743.52 86.15 768.52 42.85 768.52 42.85 768.52 42.85 718.52 42.85 743.52 86.15 743.52 86.15 743.52 86.15"/><polygon class="cls-2" points="818.52 42.85 818.52 42.85 818.52 42.85 768.52 42.85 793.52 86.15 818.52 42.85"/><polygon class="cls-2" points="868.52 42.85 868.52 42.85 868.52 42.85 818.52 42.85 843.52 86.15 868.52 42.85"/><polygon class="cls-2" points="893.52 86.15 893.52 86.15 893.52 86.15 918.52 42.85 868.52 42.85 893.52 86.15 893.52 86.15"/><polygon class="cls-2" points="918.52 42.85 943.52 86.15 968.52 42.85 918.52 42.85"/><polygon class="cls-2" points="993.52 86.15 993.52 86.15 1018.52 42.85 1018.52 42.85 1018.52 42.85 968.52 42.85 993.52 86.15 993.52 86.15 993.52 86.15"/><polygon class="cls-2" points="1038.48 42.85 1018.52 42.85 1038.48 77.43 1038.48 42.85"/><polygon class="cls-2" points="43.52 86.15 43.52 86.15 0 86.15 0 97.38 18.52 129.46 43.52 86.15 43.52 86.15"/><polygon class="cls-2" points="93.52 86.15 43.52 86.15 68.52 129.46 93.52 86.15"/><polygon class="cls-2" points="143.52 86.15 93.52 86.15 118.52 129.46 143.52 86.15 143.52 86.15 143.52 86.15"/><polygon class="cls-2" points="143.52 86.15 168.52 129.46 193.52 86.15 143.52 86.15"/><polygon class="cls-2" points="193.52 86.15 218.52 129.46 243.52 86.15 193.52 86.15"/><polygon class="cls-2" points="293.52 86.15 293.52 86.15 243.52 86.15 268.52 129.46 293.52 86.15 293.52 86.15"/><polygon class="cls-2" points="393.52 86.15 343.52 86.15 368.52 129.46 393.52 86.15 393.52 86.15 393.52 86.15"/><polygon class="cls-2" points="543.52 86.15 543.52 86.15 493.52 86.15 518.52 129.46 543.52 86.15 543.52 86.15"/><polygon class="cls-2" points="593.52 86.15 593.52 86.15 593.52 86.15 543.52 86.15 568.52 129.46 593.52 86.15"/><polygon class="cls-2" points="643.52 86.15 643.52 86.15 643.52 86.15 593.52 86.15 618.52 129.46 643.52 86.15"/><polygon class="cls-2" points="693.52 86.15 643.52 86.15 668.52 129.46 693.52 86.15"/><polygon class="cls-2" points="743.52 86.15 743.52 86.15 693.52 86.15 718.52 129.46 743.52 86.15 743.52 86.15"/><polygon class="cls-2" points="893.52 86.15 843.52 86.15 868.52 129.46 893.52 86.15 893.52 86.15 893.52 86.15"/><polygon class="cls-2" points="993.52 86.15 993.52 86.15 943.52 86.15 968.52 129.46 993.52 86.15 993.52 86.15"/><polygon class="cls-2" points="0 161.53 18.52 129.46 0 129.46 0 161.53"/><polygon class="cls-2" points="18.52 129.46 43.52 172.76 68.52 129.46 18.52 129.46"/><polygon class="cls-2" points="193.52 172.76 193.52 172.76 218.52 129.46 168.52 129.46 193.52 172.76 193.52 172.76 193.52 172.76"/><polygon class="cls-2" points="293.52 172.76 293.52 172.76 318.52 129.46 268.52 129.46 293.52 172.76 293.52 172.76 293.52 172.76"/><polygon class="cls-2" points="343.52 172.76 343.52 172.76 343.52 172.76 343.52 172.76 368.52 129.46 318.52 129.46 343.52 172.76"/><polygon class="cls-2" points="393.52 172.76 393.52 172.76 393.52 172.76 418.52 129.46 368.52 129.46 393.52 172.76 393.52 172.76"/><polygon class="cls-2" points="443.52 172.76 443.52 172.76 443.52 172.76 468.52 129.46 418.52 129.46 443.52 172.76 443.52 172.76"/><polygon class="cls-2" points="493.52 172.76 493.52 172.76 493.52 172.76 518.52 129.46 468.52 129.46 493.52 172.76 493.52 172.76"/><polygon class="cls-2" points="593.52 172.76 593.52 172.76 593.52 172.76 593.52 172.76 618.52 129.46 568.52 129.46 593.52 172.76"/><polygon class="cls-2" points="643.52 172.76 668.52 129.46 618.52 129.46 643.52 172.76"/><polygon class="cls-2" points="718.52 129.46 668.52 129.46 693.52 172.76 718.52 129.46"/><polygon class="cls-2" points="743.52 172.76 743.52 172.76 743.52 172.76 768.52 129.46 718.52 129.46 743.52 172.76 743.52 172.76"/><polygon class="cls-2" points="793.52 172.76 793.52 172.76 793.52 172.76 818.52 129.46 768.52 129.46 793.52 172.76 793.52 172.76"/><polygon class="cls-2" points="843.52 172.76 843.52 172.76 843.52 172.76 843.52 172.76 868.52 129.46 818.52 129.46 843.52 172.76"/><polygon class="cls-2" points="918.52 129.46 868.52 129.46 893.52 172.76 918.52 129.46"/><polygon class="cls-2" points="968.52 129.46 918.52 129.46 943.52 172.76 968.52 129.46"/><polygon class="cls-2" points="993.52 172.76 993.52 172.76 993.52 172.76 1018.52 129.46 968.52 129.46 993.52 172.76 993.52 172.76"/><polygon class="cls-2" points="1038.48 129.46 1018.52 129.46 1038.48 164.03 1038.48 129.46"/><polygon class="cls-2" points="43.52 172.76 68.52 216.06 68.52 216.06 68.52 216.06 68.52 216.06 93.52 172.76 43.52 172.76"/><polygon class="cls-2" points="118.52 216.06 118.52 216.06 143.52 172.76 93.52 172.76 118.52 216.06 118.52 216.06 118.52 216.06"/><polygon class="cls-2" points="168.52 216.06 168.52 216.06 193.52 172.76 193.52 172.76 193.52 172.76 143.52 172.76 168.52 216.06 168.52 216.06 168.52 216.06"/><polygon class="cls-2" points="243.52 172.76 193.52 172.76 218.52 216.06 243.52 172.76"/><polygon class="cls-2" points="268.52 216.06 268.52 216.06 293.52 172.76 293.52 172.76 293.52 172.76 243.52 172.76 268.52 216.06 268.52 216.06 268.52 216.06"/><polygon class="cls-2" points="318.52 216.06 318.52 216.06 318.52 216.06 343.52 172.76 343.52 172.76 343.52 172.76 293.52 172.76 318.52 216.06 318.52 216.06"/><polygon class="cls-2" points="393.52 172.76 393.52 172.76 393.52 172.76 343.52 172.76 368.52 216.06 393.52 172.76"/><polygon class="cls-2" points="418.52 216.06 418.52 216.06 418.52 216.06 443.52 172.76 443.52 172.76 443.52 172.76 393.52 172.76 418.52 216.06 418.52 216.06"/><polygon class="cls-2" points="468.52 216.06 468.52 216.06 468.52 216.06 493.52 172.76 493.52 172.76 493.52 172.76 443.52 172.76 468.52 216.06 468.52 216.06"/><polygon class="cls-2" points="543.52 172.76 493.52 172.76 518.52 216.06 543.52 172.76"/><polygon class="cls-2" points="593.52 172.76 543.52 172.76 568.52 216.06 593.52 172.76 593.52 172.76 593.52 172.76"/><polygon class="cls-2" points="718.52 216.06 718.52 216.06 743.52 172.76 743.52 172.76 743.52 172.76 693.52 172.76 718.52 216.06 718.52 216.06 718.52 216.06"/><polygon class="cls-2" points="793.52 172.76 793.52 172.76 793.52 172.76 743.52 172.76 768.52 216.06 793.52 172.76"/><polygon class="cls-2" points="818.52 216.06 818.52 216.06 818.52 216.06 818.52 216.06 843.52 172.76 843.52 172.76 843.52 172.76 793.52 172.76 818.52 216.06"/><polygon class="cls-2" points="993.52 172.76 943.52 172.76 968.52 216.06 968.52 216.06 968.52 216.06 968.52 216.06 993.52 172.76 993.52 172.76 993.52 172.76"/><polygon class="cls-2" points="0 216.06 0 248.13 18.52 216.06 0 216.06"/><polygon class="cls-2" points="68.52 216.06 18.52 216.06 43.52 259.36 68.52 216.06 68.52 216.06 68.52 216.06"/><polygon class="cls-2" points="118.52 216.06 118.52 216.06 68.52 216.06 93.52 259.36 118.52 216.06 118.52 216.06"/><polygon class="cls-2" points="168.52 216.06 168.52 216.06 118.52 216.06 143.52 259.36 168.52 216.06 168.52 216.06"/><polygon class="cls-2" points="268.52 216.06 268.52 216.06 268.52 216.06 218.52 216.06 243.52 259.36 268.52 216.06"/><polygon class="cls-2" points="318.52 216.06 318.52 216.06 318.52 216.06 268.52 216.06 293.52 259.36 318.52 216.06"/><polygon class="cls-2" points="418.52 216.06 418.52 216.06 368.52 216.06 393.52 259.36 418.52 216.06 418.52 216.06"/><polygon class="cls-2" points="468.52 216.06 418.52 216.06 443.52 259.36 468.52 216.06 468.52 216.06 468.52 216.06"/><polygon class="cls-2" points="618.52 216.06 643.52 259.36 668.52 216.06 618.52 216.06"/><polygon class="cls-2" points="718.52 216.06 718.52 216.06 668.52 216.06 693.52 259.36 718.52 216.06 718.52 216.06"/><polygon class="cls-2" points="818.52 216.06 768.52 216.06 793.52 259.36 818.52 216.06 818.52 216.06 818.52 216.06"/><polygon class="cls-2" points="868.52 216.06 893.52 259.36 918.52 216.06 868.52 216.06"/><polygon class="cls-2" points="968.52 216.06 968.52 216.06 918.52 216.06 943.52 259.36 968.52 216.06 968.52 216.06"/><polygon class="cls-2" points="1018.52 216.06 968.52 216.06 993.52 259.36 1018.52 216.06"/><polygon class="cls-2" points="1038.48 250.63 1038.48 216.06 1018.52 216.06 1038.48 250.63"/><polygon class="cls-2" points="118.52 302.66 118.52 302.66 118.52 302.66 118.52 302.66 143.52 259.36 93.52 259.36 118.52 302.66"/><polygon class="cls-2" points="143.52 259.36 168.52 302.66 193.52 259.36 143.52 259.36"/><polygon class="cls-2" points="243.52 259.36 193.52 259.36 218.52 302.66 218.52 302.66 218.52 302.66 218.52 302.66 243.52 259.36"/><polygon class="cls-2" points="343.52 259.36 368.52 302.66 368.52 302.66 368.52 302.66 368.52 302.66 393.52 259.36 343.52 259.36"/><polygon class="cls-2" points="418.52 302.66 418.52 302.66 418.52 302.66 418.52 302.66 443.52 259.36 393.52 259.36 418.52 302.66"/><polygon class="cls-2" points="468.52 302.66 468.52 302.66 468.52 302.66 493.52 259.36 443.52 259.36 468.52 302.66 468.52 302.66"/><polygon class="cls-2" points="518.52 302.66 518.52 302.66 518.52 302.66 543.52 259.36 493.52 259.36 518.52 302.66 518.52 302.66"/><polygon class="cls-2" points="593.52 259.36 543.52 259.36 568.52 302.66 593.52 259.36"/><polygon class="cls-2" points="618.52 302.66 618.52 302.66 618.52 302.66 643.52 259.36 593.52 259.36 618.52 302.66 618.52 302.66"/><polygon class="cls-2" points="693.52 259.36 718.52 302.66 718.52 302.66 718.52 302.66 718.52 302.66 743.52 259.36 693.52 259.36"/><polygon class="cls-2" points="743.52 259.36 768.52 302.66 768.52 302.66 768.52 302.66 768.52 302.66 793.52 259.36 743.52 259.36"/><polygon class="cls-2" points="818.52 302.66 818.52 302.66 818.52 302.66 843.52 259.36 793.52 259.36 818.52 302.66 818.52 302.66"/><polygon class="cls-2" points="868.52 302.66 868.52 302.66 868.52 302.66 868.52 302.66 893.52 259.36 843.52 259.36 868.52 302.66"/><polygon class="cls-2" points="918.52 302.66 943.52 259.36 893.52 259.36 918.52 302.66"/><polygon class="cls-2" points="968.52 302.66 993.52 259.36 943.52 259.36 968.52 302.66"/><polygon class="cls-2" points="1018.52 302.66 1018.52 302.66 1018.52 302.66 1038.48 268.08 1038.48 259.36 993.52 259.36 1018.52 302.66 1018.52 302.66"/><polygon class="cls-2" points="0 302.66 0 334.74 18.52 302.66 0 302.66"/><polygon class="cls-2" points="18.52 302.66 43.52 345.96 43.52 345.96 43.52 345.96 43.52 345.96 68.52 302.66 18.52 302.66"/><polygon class="cls-2" points="118.52 302.66 68.52 302.66 93.52 345.96 93.52 345.96 93.52 345.96 93.52 345.96 118.52 302.66 118.52 302.66 118.52 302.66"/><polygon class="cls-2" points="193.52 345.96 193.52 345.96 218.52 302.66 218.52 302.66 218.52 302.66 168.52 302.66 193.52 345.96 193.52 345.96 193.52 345.96"/><polygon class="cls-2" points="243.52 345.96 243.52 345.96 243.52 345.96 268.52 302.66 218.52 302.66 243.52 345.96 243.52 345.96"/><polygon class="cls-2" points="268.52 302.66 293.52 345.96 318.52 302.66 268.52 302.66"/><polygon class="cls-2" points="368.52 302.66 318.52 302.66 343.52 345.96 343.52 345.96 343.52 345.96 343.52 345.96 368.52 302.66 368.52 302.66 368.52 302.66"/><polygon class="cls-2" points="418.52 302.66 368.52 302.66 393.52 345.96 418.52 302.66 418.52 302.66 418.52 302.66"/><polygon class="cls-2" points="468.52 302.66 468.52 302.66 418.52 302.66 443.52 345.96 468.52 302.66 468.52 302.66"/><polygon class="cls-2" points="518.52 302.66 518.52 302.66 468.52 302.66 493.52 345.96 493.52 345.96 493.52 345.96 493.52 345.96 518.52 302.66 518.52 302.66"/><polygon class="cls-2" points="618.52 302.66 618.52 302.66 568.52 302.66 593.52 345.96 618.52 302.66 618.52 302.66"/><polygon class="cls-2" points="643.52 345.96 643.52 345.96 643.52 345.96 668.52 302.66 618.52 302.66 643.52 345.96 643.52 345.96"/><polygon class="cls-2" points="718.52 302.66 668.52 302.66 693.52 345.96 718.52 302.66 718.52 302.66 718.52 302.66"/><polygon class="cls-2" points="768.52 302.66 718.52 302.66 743.52 345.96 768.52 302.66 768.52 302.66 768.52 302.66"/><polygon class="cls-2" points="818.52 302.66 818.52 302.66 768.52 302.66 793.52 345.96 818.52 302.66 818.52 302.66"/><polygon class="cls-2" points="868.52 302.66 818.52 302.66 843.52 345.96 843.52 345.96 843.52 345.96 843.52 345.96 868.52 302.66 868.52 302.66 868.52 302.66"/><polygon class="cls-2" points="1018.52 302.66 968.52 302.66 993.52 345.96 1018.52 302.66 1018.52 302.66 1018.52 302.66"/><polygon class="cls-2" points="1038.48 302.66 1018.52 302.66 1038.48 337.24 1038.48 302.66"/><polygon class="cls-2" points="43.52 345.96 0 345.96 0 357.18 18.52 389.26 43.52 345.96 43.52 345.96 43.52 345.96"/><polygon class="cls-2" points="93.52 345.96 43.52 345.96 68.52 389.26 93.52 345.96 93.52 345.96 93.52 345.96"/><polygon class="cls-2" points="143.52 345.96 93.52 345.96 118.52 389.26 143.52 345.96"/><polygon class="cls-2" points="193.52 345.96 193.52 345.96 143.52 345.96 168.52 389.26 193.52 345.96 193.52 345.96"/><polygon class="cls-2" points="243.52 345.96 243.52 345.96 193.52 345.96 218.52 389.26 243.52 345.96 243.52 345.96"/><polygon class="cls-2" points="343.52 345.96 293.52 345.96 318.52 389.26 343.52 345.96 343.52 345.96 343.52 345.96"/><polygon class="cls-2" points="493.52 345.96 493.52 345.96 443.52 345.96 468.52 389.26 493.52 345.96 493.52 345.96"/><polygon class="cls-2" points="493.52 345.96 518.52 389.26 543.52 345.96 493.52 345.96"/><polygon class="cls-2" points="643.52 345.96 593.52 345.96 618.52 389.26 643.52 345.96 643.52 345.96 643.52 345.96"/><polygon class="cls-2" points="843.52 345.96 843.52 345.96 793.52 345.96 818.52 389.26 843.52 345.96 843.52 345.96"/><polygon class="cls-2" points="893.52 345.96 843.52 345.96 868.52 389.26 893.52 345.96"/><polygon class="cls-2" points="893.52 345.96 918.52 389.26 943.52 345.96 893.52 345.96"/><polygon class="cls-2" points="0 421.34 18.52 389.26 0 389.26 0 421.34"/><polygon class="cls-2" points="193.52 432.56 193.52 432.56 218.52 389.26 168.52 389.26 193.52 432.56 193.52 432.56 193.52 432.56"/><polygon class="cls-2" points="243.52 432.56 243.52 432.56 243.52 432.56 268.52 389.26 218.52 389.26 243.52 432.56 243.52 432.56"/><polygon class="cls-2" points="293.52 432.56 318.52 389.26 268.52 389.26 293.52 432.56"/><polygon class="cls-2" points="368.52 389.26 318.52 389.26 343.52 432.56 368.52 389.26"/><polygon class="cls-2" points="393.52 432.56 393.52 432.56 393.52 432.56 418.52 389.26 368.52 389.26 393.52 432.56 393.52 432.56"/><polygon class="cls-2" points="443.52 432.56 443.52 432.56 443.52 432.56 443.52 432.56 468.52 389.26 418.52 389.26 443.52 432.56"/><polygon class="cls-2" points="468.52 389.26 493.52 432.56 518.52 389.26 468.52 389.26"/><polygon class="cls-2" points="568.52 389.26 518.52 389.26 543.52 432.56 543.52 432.56 543.52 432.56 543.52 432.56 568.52 389.26"/><polygon class="cls-2" points="593.52 432.56 618.52 389.26 568.52 389.26 593.52 432.56"/><polygon class="cls-2" points="643.52 432.56 643.52 432.56 643.52 432.56 668.52 389.26 618.52 389.26 643.52 432.56 643.52 432.56"/><polygon class="cls-2" points="693.52 432.56 693.52 432.56 693.52 432.56 718.52 389.26 668.52 389.26 693.52 432.56 693.52 432.56"/><polygon class="cls-2" points="768.52 389.26 718.52 389.26 743.52 432.56 768.52 389.26"/><polygon class="cls-2" points="793.52 432.56 793.52 432.56 793.52 432.56 818.52 389.26 768.52 389.26 793.52 432.56 793.52 432.56"/><polygon class="cls-2" points="843.52 432.56 843.52 432.56 843.52 432.56 843.52 432.56 868.52 389.26 818.52 389.26 843.52 432.56"/><polygon class="cls-2" points="918.52 389.26 868.52 389.26 893.52 432.56 918.52 389.26"/><polygon class="cls-2" points="943.52 432.56 943.52 432.56 943.52 432.56 968.52 389.26 918.52 389.26 943.52 432.56 943.52 432.56"/><polygon class="cls-2" points="993.52 432.56 993.52 432.56 993.52 432.56 1018.52 389.26 968.52 389.26 993.52 432.56 993.52 432.56"/><polygon class="cls-2" points="1038.48 389.26 1018.52 389.26 1038.48 423.84 1038.48 389.26"/><polygon class="cls-2" points="0 432.56 0 443.79 18.52 475.87 18.52 475.87 18.52 475.87 18.52 475.87 43.52 432.56 0 432.56"/><polygon class="cls-2" points="43.52 432.56 68.52 475.87 68.52 475.87 68.52 475.87 68.52 475.87 93.52 432.56 43.52 432.56"/><polygon class="cls-2" points="168.52 475.87 168.52 475.87 193.52 432.56 193.52 432.56 193.52 432.56 143.52 432.56 168.52 475.87 168.52 475.87 168.52 475.87"/><polygon class="cls-2" points="243.52 432.56 243.52 432.56 193.52 432.56 218.52 475.87 243.52 432.56 243.52 432.56"/><polygon class="cls-2" points="393.52 432.56 393.52 432.56 343.52 432.56 368.52 475.87 368.52 475.87 368.52 475.87 368.52 475.87 393.52 432.56 393.52 432.56"/><polygon class="cls-2" points="443.52 432.56 393.52 432.56 418.52 475.87 418.52 475.87 418.52 475.87 418.52 475.87 443.52 432.56 443.52 432.56 443.52 432.56"/><polygon class="cls-2" points="518.52 475.87 518.52 475.87 543.52 432.56 543.52 432.56 543.52 432.56 493.52 432.56 518.52 475.87 518.52 475.87 518.52 475.87"/><polygon class="cls-2" points="618.52 475.87 618.52 475.87 618.52 475.87 643.52 432.56 643.52 432.56 643.52 432.56 593.52 432.56 618.52 475.87 618.52 475.87"/><polygon class="cls-2" points="668.52 475.87 668.52 475.87 668.52 475.87 693.52 432.56 693.52 432.56 693.52 432.56 643.52 432.56 668.52 475.87 668.52 475.87"/><polygon class="cls-2" points="768.52 475.87 768.52 475.87 793.52 432.56 793.52 432.56 793.52 432.56 743.52 432.56 768.52 475.87 768.52 475.87 768.52 475.87"/><polygon class="cls-2" points="818.52 475.87 818.52 475.87 818.52 475.87 818.52 475.87 843.52 432.56 843.52 432.56 843.52 432.56 793.52 432.56 818.52 475.87"/><polygon class="cls-2" points="943.52 432.56 893.52 432.56 918.52 475.87 943.52 432.56 943.52 432.56 943.52 432.56"/><polygon class="cls-2" points="993.52 432.56 943.52 432.56 968.52 475.87 993.52 432.56 993.52 432.56 993.52 432.56"/><polygon class="cls-2" points="18.52 475.87 0 475.87 0 507.94 18.52 475.87 18.52 475.87 18.52 475.87"/><polygon class="cls-2" points="68.52 475.87 18.52 475.87 43.52 519.17 68.52 475.87 68.52 475.87 68.52 475.87"/><polygon class="cls-2" points="68.52 475.87 93.52 519.17 118.52 475.87 68.52 475.87"/><polygon class="cls-2" points="168.52 475.87 168.52 475.87 118.52 475.87 143.52 519.17 168.52 475.87 168.52 475.87"/><polygon class="cls-2" points="218.52 475.87 243.52 519.17 268.52 475.87 218.52 475.87"/><polygon class="cls-2" points="268.52 475.87 293.52 519.17 318.52 475.87 268.52 475.87"/><polygon class="cls-2" points="368.52 475.87 318.52 475.87 343.52 519.17 368.52 475.87 368.52 475.87 368.52 475.87"/><polygon class="cls-2" points="418.52 475.87 368.52 475.87 393.52 519.17 418.52 475.87 418.52 475.87 418.52 475.87"/><polygon class="cls-2" points="468.52 475.87 418.52 475.87 443.52 519.17 468.52 475.87"/><polygon class="cls-2" points="518.52 475.87 518.52 475.87 468.52 475.87 493.52 519.17 518.52 475.87 518.52 475.87"/><polygon class="cls-2" points="518.52 475.87 543.52 519.17 568.52 475.87 518.52 475.87"/><polygon class="cls-2" points="618.52 475.87 618.52 475.87 568.52 475.87 593.52 519.17 618.52 475.87 618.52 475.87"/><polygon class="cls-2" points="668.52 475.87 618.52 475.87 643.52 519.17 668.52 475.87 668.52 475.87 668.52 475.87"/><polygon class="cls-2" points="768.52 475.87 768.52 475.87 718.52 475.87 743.52 519.17 768.52 475.87 768.52 475.87"/><polygon class="cls-2" points="793.52 519.17 818.52 475.87 818.52 475.87 818.52 475.87 768.52 475.87 793.52 519.17"/><polygon class="cls-2" points="868.52 475.87 818.52 475.87 843.52 519.17 868.52 475.87"/><polygon class="cls-2" points="1018.52 475.87 968.52 475.87 993.52 519.17 1018.52 475.87"/><polygon class="cls-2" points="1038.48 510.44 1038.48 475.87 1018.52 475.87 1038.48 510.44"/><polygon class="cls-2" points="118.52 562.47 118.52 562.47 143.52 519.17 93.52 519.17 118.52 562.47 118.52 562.47 118.52 562.47"/><polygon class="cls-2" points="168.52 562.47 168.52 562.47 168.52 562.47 193.52 519.17 143.52 519.17 168.52 562.47 168.52 562.47"/><polygon class="cls-2" points="218.52 562.47 243.52 519.17 193.52 519.17 218.52 562.47"/><polygon class="cls-2" points="268.52 562.47 293.52 519.17 243.52 519.17 268.52 562.47"/><polygon class="cls-2" points="293.52 519.17 318.52 562.47 343.52 519.17 293.52 519.17"/><polygon class="cls-2" points="368.52 562.47 368.52 562.47 368.52 562.47 368.52 562.47 393.52 519.17 343.52 519.17 368.52 562.47"/><polygon class="cls-2" points="518.52 562.47 518.52 562.47 543.52 519.17 493.52 519.17 518.52 562.47 518.52 562.47 518.52 562.47"/><polygon class="cls-2" points="568.52 562.47 593.52 519.17 543.52 519.17 568.52 562.47"/><polygon class="cls-2" points="593.52 519.17 618.52 562.47 643.52 519.17 593.52 519.17"/><polygon class="cls-2" points="668.52 562.47 668.52 562.47 668.52 562.47 693.52 519.17 643.52 519.17 668.52 562.47 668.52 562.47"/><polygon class="cls-2" points="718.52 562.47 718.52 562.47 718.52 562.47 718.52 562.47 743.52 519.17 693.52 519.17 718.52 562.47"/><polygon class="cls-2" points="743.52 519.17 768.52 562.47 793.52 519.17 743.52 519.17"/><polygon class="cls-2" points="818.52 562.47 818.52 562.47 818.52 562.47 818.52 562.47 843.52 519.17 793.52 519.17 818.52 562.47"/><polygon class="cls-2" points="893.52 519.17 843.52 519.17 868.52 562.47 893.52 519.17"/><polygon class="cls-2" points="918.52 562.47 918.52 562.47 918.52 562.47 943.52 519.17 893.52 519.17 918.52 562.47 918.52 562.47"/><polygon class="cls-2" points="968.52 562.47 968.52 562.47 968.52 562.47 968.52 562.47 993.52 519.17 943.52 519.17 968.52 562.47"/><polygon class="cls-2" points="1038.48 527.89 1038.48 519.17 993.52 519.17 1018.52 562.47 1038.48 527.89"/><polygon class="cls-2" points="0 562.47 0 594.55 18.52 562.47 0 562.47"/><polygon class="cls-2" points="43.52 605.77 43.52 605.77 68.52 562.47 18.52 562.47 43.52 605.77 43.52 605.77 43.52 605.77"/><polygon class="cls-2" points="93.52 605.77 93.52 605.77 118.52 562.47 118.52 562.47 118.52 562.47 68.52 562.47 93.52 605.77 93.52 605.77 93.52 605.77"/><polygon class="cls-2" points="168.52 562.47 118.52 562.47 143.52 605.77 168.52 562.47 168.52 562.47 168.52 562.47"/><polygon class="cls-2" points="368.52 562.47 318.52 562.47 343.52 605.77 343.52 605.77 343.52 605.77 343.52 605.77 368.52 562.47 368.52 562.47 368.52 562.47"/><polygon class="cls-2" points="418.52 562.47 368.52 562.47 393.52 605.77 418.52 562.47"/><polygon class="cls-2" points="418.52 562.47 443.52 605.77 468.52 562.47 418.52 562.47"/><polygon class="cls-2" points="493.52 605.77 493.52 605.77 518.52 562.47 518.52 562.47 518.52 562.47 468.52 562.47 493.52 605.77 493.52 605.77 493.52 605.77"/><polygon class="cls-2" points="668.52 562.47 668.52 562.47 618.52 562.47 643.52 605.77 643.52 605.77 643.52 605.77 643.52 605.77 668.52 562.47 668.52 562.47"/><polygon class="cls-2" points="718.52 562.47 668.52 562.47 693.52 605.77 693.52 605.77 693.52 605.77 693.52 605.77 718.52 562.47 718.52 562.47 718.52 562.47"/><polygon class="cls-2" points="818.52 562.47 768.52 562.47 793.52 605.77 793.52 605.77 793.52 605.77 793.52 605.77 818.52 562.47 818.52 562.47 818.52 562.47"/><polygon class="cls-2" points="918.52 562.47 868.52 562.47 893.52 605.77 893.52 605.77 893.52 605.77 893.52 605.77 918.52 562.47 918.52 562.47 918.52 562.47"/><polygon class="cls-2" points="968.52 562.47 918.52 562.47 943.52 605.77 968.52 562.47 968.52 562.47 968.52 562.47"/><polygon class="cls-2" points="43.52 605.77 43.52 605.77 0 605.77 0 616.99 18.52 649.07 43.52 605.77 43.52 605.77"/><polygon class="cls-2" points="93.52 605.77 93.52 605.77 93.52 605.77 43.52 605.77 68.52 649.07 93.52 605.77"/><polygon class="cls-2" points="193.52 605.77 143.52 605.77 168.52 649.07 193.52 605.77"/><polygon class="cls-2" points="193.52 605.77 218.52 649.07 243.52 605.77 193.52 605.77"/><polygon class="cls-2" points="243.52 605.77 268.52 649.07 293.52 605.77 243.52 605.77"/><polygon class="cls-2" points="343.52 605.77 293.52 605.77 318.52 649.07 343.52 605.77 343.52 605.77 343.52 605.77"/><polygon class="cls-2" points="493.52 605.77 493.52 605.77 443.52 605.77 468.52 649.07 493.52 605.77 493.52 605.77"/><polygon class="cls-2" points="543.52 605.77 493.52 605.77 518.52 649.07 543.52 605.77"/><polygon class="cls-2" points="543.52 605.77 568.52 649.07 593.52 605.77 543.52 605.77"/><polygon class="cls-2" points="643.52 605.77 643.52 605.77 593.52 605.77 618.52 649.07 643.52 605.77 643.52 605.77"/><polygon class="cls-2" points="693.52 605.77 693.52 605.77 643.52 605.77 668.52 649.07 693.52 605.77 693.52 605.77"/><polygon class="cls-2" points="743.52 605.77 693.52 605.77 718.52 649.07 743.52 605.77"/><polygon class="cls-2" points="793.52 605.77 743.52 605.77 768.52 649.07 793.52 605.77 793.52 605.77 793.52 605.77"/><polygon class="cls-2" points="893.52 605.77 843.52 605.77 868.52 649.07 893.52 605.77 893.52 605.77 893.52 605.77"/><polygon class="cls-2" points="993.52 605.77 943.52 605.77 968.52 649.07 993.52 605.77"/><polygon class="cls-2" points="1018.52 649.07 1038.48 614.49 1038.48 605.77 993.52 605.77 1018.52 649.07"/><polygon class="cls-2" points="0 681.15 18.52 649.07 0 649.07 0 681.15"/><polygon class="cls-2" points="43.52 692.37 43.52 692.37 68.52 649.07 18.52 649.07 43.52 692.37 43.52 692.37 43.52 692.37"/><polygon class="cls-2" points="93.52 692.37 118.52 649.07 68.52 649.07 93.52 692.37"/><polygon class="cls-2" points="143.52 692.37 168.52 649.07 118.52 649.07 143.52 692.37"/><polygon class="cls-2" points="193.52 692.37 193.52 692.37 193.52 692.37 218.52 649.07 168.52 649.07 193.52 692.37 193.52 692.37"/><polygon class="cls-2" points="243.52 692.37 243.52 692.37 243.52 692.37 268.52 649.07 218.52 649.07 243.52 692.37 243.52 692.37"/><polygon class="cls-2" points="393.52 692.37 393.52 692.37 393.52 692.37 393.52 692.37 418.52 649.07 368.52 649.07 393.52 692.37"/><polygon class="cls-2" points="418.52 649.07 443.52 692.37 468.52 649.07 418.52 649.07"/><polygon class="cls-2" points="493.52 692.37 493.52 692.37 493.52 692.37 518.52 649.07 468.52 649.07 493.52 692.37 493.52 692.37"/><polygon class="cls-2" points="593.52 692.37 593.52 692.37 593.52 692.37 593.52 692.37 618.52 649.07 568.52 649.07 593.52 692.37"/><polygon class="cls-2" points="643.52 692.37 668.52 649.07 618.52 649.07 643.52 692.37"/><polygon class="cls-2" points="668.52 649.07 693.52 692.37 718.52 649.07 668.52 649.07"/><polygon class="cls-2" points="843.52 692.37 843.52 692.37 843.52 692.37 843.52 692.37 868.52 649.07 818.52 649.07 843.52 692.37"/><polygon class="cls-2" points="893.52 692.37 893.52 692.37 893.52 692.37 893.52 692.37 918.52 649.07 868.52 649.07 893.52 692.37"/><polygon class="cls-2" points="943.52 692.37 968.52 649.07 918.52 649.07 943.52 692.37"/><polygon class="cls-2" points="1038.48 649.07 1018.52 649.07 1038.48 683.65 1038.48 649.07"/><polygon class="cls-2" points="18.52 735.67 18.52 735.67 43.52 692.37 43.52 692.37 43.52 692.37 0 692.37 0 703.59 18.52 735.67 18.52 735.67 18.52 735.67"/><polygon class="cls-2" points="193.52 692.37 143.52 692.37 168.52 735.67 168.52 735.67 168.52 735.67 168.52 735.67 193.52 692.37 193.52 692.37 193.52 692.37"/><polygon class="cls-2" points="243.52 692.37 243.52 692.37 193.52 692.37 218.52 735.67 243.52 692.37 243.52 692.37"/><polygon class="cls-2" points="268.52 735.67 268.52 735.67 268.52 735.67 293.52 692.37 243.52 692.37 268.52 735.67 268.52 735.67"/><polygon class="cls-2" points="318.52 735.67 318.52 735.67 343.52 692.37 293.52 692.37 318.52 735.67 318.52 735.67 318.52 735.67"/><polygon class="cls-2" points="393.52 692.37 343.52 692.37 368.52 735.67 393.52 692.37 393.52 692.37 393.52 692.37"/><polygon class="cls-2" points="493.52 692.37 493.52 692.37 443.52 692.37 468.52 735.67 468.52 735.67 468.52 735.67 468.52 735.67 493.52 692.37 493.52 692.37"/><polygon class="cls-2" points="493.52 692.37 518.52 735.67 518.52 735.67 518.52 735.67 518.52 735.67 543.52 692.37 493.52 692.37"/><polygon class="cls-2" points="593.52 692.37 543.52 692.37 568.52 735.67 568.52 735.67 568.52 735.67 568.52 735.67 593.52 692.37 593.52 692.37 593.52 692.37"/><polygon class="cls-2" points="693.52 692.37 718.52 735.67 718.52 735.67 718.52 735.67 718.52 735.67 743.52 692.37 693.52 692.37"/><polygon class="cls-2" points="743.52 692.37 768.52 735.67 768.52 735.67 768.52 735.67 768.52 735.67 793.52 692.37 743.52 692.37"/><polygon class="cls-2" points="843.52 692.37 843.52 692.37 793.52 692.37 818.52 735.67 818.52 735.67 818.52 735.67 818.52 735.67 843.52 692.37 843.52 692.37"/><polygon class="cls-2" points="893.52 692.37 843.52 692.37 868.52 735.67 868.52 735.67 868.52 735.67 868.52 735.67 893.52 692.37 893.52 692.37 893.52 692.37"/><polygon class="cls-2" points="968.52 735.67 968.52 735.67 968.52 735.67 993.52 692.37 943.52 692.37 968.52 735.67 968.52 735.67"/><polygon class="cls-2" points="1018.52 735.67 1018.52 735.67 1038.48 701.1 1038.48 692.37 993.52 692.37 1018.52 735.67 1018.52 735.67 1018.52 735.67"/><polygon class="cls-2" points="0 767.75 18.52 735.67 18.52 735.67 18.52 735.67 0 735.67 0 767.75"/><polygon class="cls-2" points="43.59 778.86 68.52 735.67 18.52 735.67 43.46 778.86 43.59 778.86"/><polygon class="cls-2" points="118.52 735.67 68.52 735.67 93.46 778.86 93.58 778.86 118.52 735.67"/><polygon class="cls-2" points="168.52 735.67 118.52 735.67 143.46 778.86 143.59 778.86 168.52 735.67 168.52 735.67 168.52 735.67"/><polygon class="cls-2" points="268.52 735.67 218.52 735.67 243.46 778.86 243.59 778.86 268.52 735.67 268.52 735.67 268.52 735.67"/><polygon class="cls-2" points="293.58 778.86 318.52 735.67 318.52 735.67 318.52 735.67 268.52 735.67 293.46 778.86 293.58 778.86"/><polygon class="cls-2" points="393.58 778.86 418.52 735.67 368.52 735.67 393.46 778.86 393.58 778.86"/><polygon class="cls-2" points="468.52 735.67 418.52 735.67 443.46 778.86 443.58 778.86 468.52 735.67 468.52 735.67 468.52 735.67"/><polygon class="cls-2" points="518.52 735.67 468.52 735.67 493.46 778.86 493.58 778.86 518.52 735.67 518.52 735.67 518.52 735.67"/><polygon class="cls-2" points="568.52 735.67 518.52 735.67 543.46 778.86 543.59 778.86 568.52 735.67 568.52 735.67 568.52 735.67"/><polygon class="cls-2" points="593.59 778.86 618.52 735.67 568.52 735.67 593.46 778.86 593.59 778.86"/><polygon class="cls-2" points="668.52 735.67 618.52 735.67 643.46 778.86 643.59 778.86 668.52 735.67"/><polygon class="cls-2" points="718.52 735.67 668.52 735.67 693.46 778.86 693.59 778.86 718.52 735.67 718.52 735.67 718.52 735.67"/><polygon class="cls-2" points="768.52 735.67 718.52 735.67 743.46 778.86 743.59 778.86 768.52 735.67 768.52 735.67 768.52 735.67"/><polygon class="cls-2" points="818.52 735.67 768.52 735.67 793.46 778.86 793.59 778.86 818.52 735.67 818.52 735.67 818.52 735.67"/><polygon class="cls-2" points="868.52 735.67 818.52 735.67 843.46 778.86 843.59 778.86 868.52 735.67 868.52 735.67 868.52 735.67"/><polygon class="cls-2" points="893.59 778.86 918.52 735.67 868.52 735.67 893.46 778.86 893.59 778.86"/><polygon class="cls-2" points="968.52 735.67 918.52 735.67 943.46 778.86 943.59 778.86 968.52 735.67 968.52 735.67 968.52 735.67"/><polygon class="cls-2" points="993.59 778.86 1018.52 735.67 1018.52 735.67 1018.52 735.67 968.52 735.67 993.46 778.86 993.59 778.86"/><polygon class="cls-2" points="1038.48 735.67 1018.52 735.67 1038.48 770.25 1038.48 735.67"/></g></g></svg>