<svg xmlns="http://www.w3.org/2000/svg" viewBox="0 0 1038.48 778.86"><defs><style>.cls-1{fill:lime;}</style></defs><title>Element 20</title><g id="Ebene_2" data-name="Ebene 2"><g id="Ebene_1-2" data-name="Ebene 1"><path class="cls-1" d="M0,132H14.19L0,156.53v10l18.52-32.08,25,43.31h0l20.67,35.8H0v5H14.19L0,243.14v10l18.52-32.08,25,43.3,25-43.3,25,43.3h0l20.67,35.8H0v5H14.19L0,329.74v10l18.52-32.08,20.67,35.8H0v5H39.19l-20.67,35.8L0,352.18v10l14.19,24.58H0v5H14.19L0,416.34v10l18.52-32.08h0l25-43.3,25,43.3,25-43.3,25,43.3,25-43.3,25,43.3h0l20.67,35.8h-50l25,43.3H72.85l25-43.3H0v5H39.19l-20.67,35.8L0,438.79v10l14.19,24.57H0v5H14.19L0,502.94v10l18.52-32.08,25,43.31,25-43.31,25,43.31h0L114.19,560H0v5H14.19L0,589.55v10l18.52-32.08,20.67,35.8H0v5H39.19l-20.67,35.8L0,612v10l14.19,24.58H0v5H14.19L0,676.15v10l18.52-32.08,20.67,35.8H0v5H39.19l-20.67,35.8L0,698.59v10l14.19,24.58H0v5H14.19L0,762.75v10l18.52-32.08,22.05,38.19h355.9l22-38.19,22.05,38.19h5.9l22-38.19,22.05,38.19h155.9l22-38.19,22.05,38.19h105.9l22-38.19,22.05,38.19h5.9l22-38.19,22.05,38.19h5.9l22-38.19,22.05,38.19h55.9l22-38.19,20,34.58v-10l-15.63-27.08h15.63v-5h-15.63l15.63-27.08v-10l-20,34.58-20.67-35.8h40.63v-5H947.85l20.67-35.8h0l25-43.3,25,43.3h0l20,34.58v-10l-15.63-27.08h15.63v-5h-15.63l15.63-27.08v-10l-20,34.58-20.67-35.8h40.63v-5H947.85l20.67-35.8h0l25-43.3,25,43.3,20-34.58v-10l-20,34.58-20.67-35.8h40.63v-5H997.85l20.67-35.81,20,34.58v-10l-15.63-27.08h15.63v-5H972.85l20.67-35.8h0l25-43.3,20,34.58v-10l-15.63-27.08h15.63v-5H922.85l25-43.3h-100l20.67-35.8h0l25-43.3,25,43.3,25-43.3,25,43.3h0l25,43.3,25-43.3,20,34.58v-10l-15.63-27.08h15.63v-5h-15.63l15.63-27.08v-10l-20,34.58-20.67-35.8h40.63v-5H997.85l20.67-35.8,20,34.57v-10l-15.63-27.07h15.63v-5H972.85l20.67-35.8h0l1.25-2.18,3.08-5.32,20.67-35.81,20,34.58V159L1022.85,132h15.63v-5H972.85l20.67-35.8h0l25-43.3,20,34.58v-10l-15.63-27.08h15.63v-5h-15.63l15.63-27.08v-10l-20,34.58L997.85,2.05h40.63V0H990.89l23.3,40.35H872.85L896.15,0H690.89l27.63,47.85h0l20.67,35.8H647.85l25-43.3h-150L546.15,0H440.89l23.3,40.35H372.85L396.15,0H190.89l27.63,47.85,25-43.3,25,43.3h0l20.67,35.8H147.85l25-43.3h-50L146.15,0H0V2.05H39.19L18.52,37.85,0,5.77v10L18.52,47.85h0l20.67,35.8H0v5H39.19l-20.67,35.8L0,92.38v10L14.19,127H0ZM43.52,254.36l-20.67-35.8H64.19Zm175-216.51L197.85,2.05h41.34ZM47.85,175.26H89.19l-20.67,35.8ZM71.6,129.13l21.92-38,25,43.3,25-43.3,25,43.3h0l20.67,35.81H47.85Zm-3.08-4.68L47.85,88.65H89.19Zm29.33-35.8h41.34l-20.67,35.8Zm245.67-7.5-20.67-35.8h41.34Zm25-33.3,20.67,35.8H347.85Zm20.67,40.8-20.67,35.8-20.67-35.8Zm104.33-7.5-20.67-35.8h41.34Zm25-33.3,20.67,35.8H497.85Zm20.67,40.8-20.67,35.8-20.67-35.8ZM521.6,129.13l21.92-38,25,43.3h0l20.67,35.81H497.85Zm317.59,41.13H797.85l20.67-35.81ZM822.85,132h41.34l-20.67,35.81Zm91.34,428H872.85l20.67-35.8Zm-16.34-38.3h41.34l-20.67,35.8Zm-29.33,132.4,20.67,35.8H847.85Zm-25,33.3-20.67-35.8h41.34Zm29.33-35.8h41.34l-20.67,35.8Zm-4.33-7.5-20.67-35.8h41.34Zm-29.33-40.8,25,43.3h-50l25,43.3H697.85l20.67-35.8h0l25-43.3,25,43.3,25-43.3,25-43.3h0l25-43.3,25,43.3h0l20.67,35.8Zm-475,43.3,25,43.3H247.85l20.67-35.8h0l25-43.3,25,43.3,25-43.3,25-43.3,25,43.3,25-43.3,25,43.3,20.67,35.8h-100Zm50,5-20.67,35.8-20.67-35.8Zm-25,43.3-20.67,35.8-20.67-35.8Zm-241.34-5,20.67-35.8,20.67,35.8Zm41.34,5-20.67,35.8-20.67-35.8Zm-45.67-7.5-20.67-35.8h41.34Zm75-119.9,25-43.3,25,43.3,25-43.3,25,43.3h0l20.67,35.8H147.85l20.67-35.8h0l25-43.3Zm-20.67-45.8h41.34l-20.67,35.8Zm95.67-257.31,25-43.3h0l25-43.3,25,43.3h0l20.67,35.8h-50l25,43.3H222.85l20.67-35.8h0l25-43.3Zm-20.67-45.8h41.34l-20.67,35.8Zm25-43.3h41.34l-20.67,35.8Zm166.34,38.3H422.85l20.67-35.8Zm-16.34-38.3h41.34l-20.67,35.8Zm220.67,45.8,25,43.3h0l20.67,35.8H622.85l20.67-35.8h0Zm-45.67-2.5h41.34l-20.67,35.8Zm120.67-40.8,25,43.3h0l20.67,35.8H697.85l20.67-35.8h0Zm-45.67-2.5h41.34l-20.67,35.8Zm50,0h41.34l-20.67,35.8Zm0,428h-50l20.67-35.8h0l25-43.3,25,43.3h0l20.67,35.8Zm41.34,5-20.67,35.8-20.67-35.8Zm-241.34-5h-50l20.67-35.8h0l25-43.3,25,43.3,25-43.3,25,43.3h0l20.67,35.8H547.85Zm41.34,5-20.67,35.8-20.67-35.8Zm-341.34-91.6,20.67-35.81,20.67,35.81Zm41.34,5-20.67,35.8-20.67-35.8Zm350-178.21H597.85l20.67-35.8Zm-16.34-38.3h41.34L643.52,341ZM593.52,341l-20.67-35.8h41.34Zm45.67,7.5-20.67,35.8-20.67-35.8ZM747.85,516.67l20.67-35.81,20.67,35.81Zm41.34,5-20.67,35.8-20.67-35.8Zm-45.67-7.5-20.67-35.81h41.34Zm29.33-35.81h41.34l-20.67,35.81Zm-4.33-7.5-20.67-35.8h41.34Zm-20.67-40.8,20.67-35.8,20.67,35.8Zm-4.33-2.5-20.67-35.8h41.34Zm0,10h0l20.67,35.8h-50l25,43.31H647.85l20.67-35.81h0l25-43.3h0l25-43.3Zm-420.67,40.8h41.34l-20.67,35.81Zm16.34,38.31H297.85l20.67-35.81Zm29.33-35.81,20.67,35.81H347.85Zm70.67-50.8H397.85l20.67-35.8Zm-16.34-38.3h41.34l-20.67,35.8Zm-29.33,35.8-20.67-35.8h41.34Zm-4.33,2.5H347.85l20.67-35.8Zm-45.67-2.5-20.67-35.8h41.34Zm45.67,7.5-20.67,35.8-20.67-35.8Zm-16.34,43.3h41.34l-20.67,35.81Zm0-5,20.67-35.8,20.67,35.8Zm25-38.3h41.34l-20.67,35.8Zm25,38.3,20.67-35.8h0l25-43.3,25,43.3h0l20.67,35.8H422.85Zm41.34,5-20.67,35.81-20.67-35.81Zm33.66-48.3,20.67-35.8,20.67,35.8Zm41.34,5-20.67,35.8-20.67-35.8Zm-45.67-7.5-20.67-35.8h41.34Zm-20.67-40.8L493.52,351l20.67,35.8Zm-4.33-2.5-20.67-35.8h41.34Zm45.67,94.1-20.67,35.81-20.67-35.81Zm-16.34,38.31,20.67-35.81,20.67,35.81Zm41.34,5-20.67,35.8-20.67-35.8Zm-16.34-43.31h41.34l-20.67,35.81Zm25,38.31,20.67-35.81,20.67,35.81Zm41.34,5-20.67,35.8-20.67-35.8Zm-16.34-43.31h41.34l-20.67,35.81Zm91.34-5H622.85l20.67-35.8Zm-16.34-38.3h41.34l-20.67,35.8Zm16.34,43.3-20.67,35.81-20.67-35.81Zm-45.67-7.5-20.67-35.8h41.34Zm20.67,45.81H597.85l20.67-35.81Zm0,5-20.67,35.8-20.67-35.8Zm4.33,2.5L664.19,560H622.85Zm4.33-2.5h41.34l-20.67,35.8Zm25,38.3,20.67-35.8L714.19,560Zm41.34,5-20.67,35.8L672.85,565Zm-16.34-43.3h41.34l-20.67,35.8Zm-4.33-94.11-20.67-35.8h41.34Zm-4.33,2.5H647.85l20.67-35.8Zm-45.67-2.5-20.67-35.8h41.34Zm-4.33,2.5H597.85l20.67-35.8Zm-45.67-2.5-20.67-35.8h41.34Zm0,10h0l20.67,35.8H522.85l20.67-35.8h0l25-43.3Zm-50-10-20.67-35.8h41.34Zm-25-43.3-20.67-35.8h41.34Zm-25-43.3-20.67-35.8h41.34Zm-4.33,2.5H447.85l20.67-35.8ZM443.52,341l-20.67-35.8h41.34Zm-20.67-40.8,20.67-35.8,20.67,35.8Zm-4.33-2.5-20.67-35.8h41.34Zm-20.67-40.8,20.67-35.8,20.67,35.8Zm-4.33-2.5-20.67-35.8h41.34Zm20.67,45.8H372.85l20.67-35.8Zm0,5L393.52,341l-20.67-35.8Zm-45.67-7.5-20.67-35.8h41.34Zm25,53.3,25-43.3,25,43.3h0l20.67,35.8H322.85L343.52,351h0l25-43.3Zm-75,33.3-20.67-35.8h41.34Zm25-43.3-20.67-35.8h41.34Zm-4.33,2.5H297.85l20.67-35.8ZM293.52,341l-20.67-35.8h41.34Zm0,10h0l20.67,35.8H222.85L243.52,351h0l25-43.3Zm20.67,40.8-20.67,35.8-20.67-35.8ZM243.52,341l-20.67-35.8h41.34Zm-29.33-40.8H172.85l20.67-35.8Zm-16.34-38.3h41.34l-20.67,35.8Zm20.67,45.8,20.67,35.8H197.85Zm20.67,40.8-20.67,35.8-20.67-35.8Zm25,43.3-20.67,35.8-20.67-35.8Zm4.33,2.5,25,43.3,25-43.3,25,43.3h0l20.67,35.8H222.85l20.67-35.8h0Zm4.33,84.1h41.34l-20.67,35.81Zm66.34,43.31-20.67,35.8-20.67-35.8ZM322.85,560l20.67-35.8L364.19,560Zm41.34,5-20.67,35.8L322.85,565Zm-16.34-43.3h41.34l-20.67,35.8Zm25,38.3,20.67-35.8h0l25-43.31,25,43.31,25-43.31,25,43.31h0L514.19,560H372.85Zm41.34,5-20.67,35.8L372.85,565Zm58.66,0h41.34l-20.67,35.8Zm16.34,38.3H447.85l20.67-35.8Zm-25-38.3-20.67,35.8L422.85,565Zm25,43.3-20.67,35.8-20.67-35.8Zm-16.34,38.3,20.67-35.8,20.67,35.8Zm41.34,5-20.67,35.8-20.67-35.8Zm-16.34-43.3h41.34l-20.67,35.8Zm125-43.3h41.34l-20.67,35.8Zm45.67,2.5,20.67,35.8H647.85Zm25,43.3,20.67,35.8H672.85Zm4.33-2.5h41.34l-20.67,35.8Zm75-43.3h41.34l-20.67,35.8Zm0-5,20.67-35.8L814.19,560Zm25-38.3h41.34l-20.67,35.8Zm0-5,20.67-35.81,20.67,35.81Zm-25-43.31,20.67-35.8,20.67,35.8Zm0-81.6h41.34l-20.67,35.8Zm0-5h-150L643.52,351h0l25-43.3,25,43.3,25-43.3,25,43.3,25-43.3,25,43.3h0l20.67,35.8Zm-100-81.6h41.34L693.52,341Zm91.34-5H722.85l20.67-35.8Zm-16.34-38.3h41.34l-20.67,35.8Zm16.34,43.3L743.52,341l-20.67-35.8Zm-45.67-7.5-20.67-35.8h41.34Zm79.33,50.8h41.34l-20.67,35.8Zm-4.33-7.5-20.67-35.8h41.34Zm-20.67-40.8,20.67-35.8,20.67,35.8Zm-79.33-45.8-20.67-35.8h41.34Zm-75,43.3-20.67-35.8h41.34Zm-4.33,2.5H572.85l20.67-35.8Zm-45.67-2.5-20.67-35.8h41.34Zm0,10h0l25,43.3h0l20.67,35.8H522.85l25-43.3h-50l20.67-35.8h0l25-43.3Zm-50-10-20.67-35.8h41.34Zm-4.33,2.5H472.85l20.67-35.8Zm-45.67-2.5-20.67-35.8h41.34Zm-25-43.3-20.67-35.8h41.34Zm-25-43.3-20.67-35.8h41.34Zm-4.33,2.5H372.85l20.67-35.8Zm-45.67-2.5-20.67-35.8h41.34Zm-125,43.3-20.67-35.8h41.34Zm-4.33,2.5H147.85l20.67-35.8h0l25-43.3,25,43.3h0Zm-70.67-45.8-20.67-35.8h41.34Zm-4.33,2.5H122.85l20.67-35.8Zm-45.67-2.5-20.67-35.8h41.34Zm-4.33,2.5H72.85l20.67-35.8Zm4.33,7.5,20.67,35.8H97.85Zm4.33-2.5h41.34l-20.67,35.8Zm66.34,43.3-20.67,35.8-20.67-35.8Zm25,43.3L193.52,341l-20.67-35.8Zm0,81.6H172.85L193.52,351Zm4.33,7.5,20.67,35.8H197.85Zm20.67,40.8-20.67,35.8-20.67-35.8Zm25,43.3-20.67,35.81-20.67-35.81Zm75,129.91-20.67,35.8-20.67-35.8Zm-125,38.3H172.85l20.67-35.8Zm-16.34-38.3h41.34l-20.67,35.8Zm20.67,45.8,20.67,35.8H197.85Zm4.33-2.5h41.34l-20.67,35.8Zm0-5,20.67-35.8,20.67,35.8Zm25-38.3h41.34l-20.67,35.8Zm-79.33-50.8-20.67-35.8h41.34Zm-4.33,2.5H122.85l20.67-35.8Zm0,5-20.67,35.8L122.85,565Zm25,43.3-20.67,35.8-20.67-35.8Zm-16.34,43.3h41.34l-20.67,35.8Zm66.34,43.3-20.67,35.8-20.67-35.8Zm4.33,2.5,20.67,35.8H222.85Zm4.33-2.5h41.34l-20.67,35.8Zm45.67,2.5,20.67,35.8H272.85Zm4.33-2.5h41.34l-20.67,35.8Zm166.34-43.3-20.67,35.8-20.67-35.8Zm4.33,2.5,20.67,35.8H447.85Zm25,43.3,20.67,35.8H472.85Zm4.33-2.5h41.34l-20.67,35.8Zm45.67,2.5,20.67,35.8H522.85Zm4.33-2.5h41.34l-20.67,35.8Zm0-5h-50l20.67-35.8h0l25-43.3,25,43.3h0l20.67,35.8Zm25-38.3h41.34l-20.67,35.8Zm0-5,20.67-35.8,20.67,35.8Zm25-38.3h41.34l-20.67,35.8Zm25,38.3,20.67-35.8,20.67,35.8Zm41.34,5-20.67,35.8-20.67-35.8Zm-16.34-43.3h41.34l-20.67,35.8Zm66.34,43.3-20.67,35.8-20.67-35.8Zm29.33,45.8,20.67,35.8H722.85Zm-25,33.3-20.67-35.8h41.34Zm29.33-35.8h41.34l-20.67,35.8Zm125-129.9h41.34l-20.67,35.8Zm-4.33-7.5-20.67-35.8h41.34Zm-25-43.3-20.67-35.81h41.34Zm-25-43.31-20.67-35.8h41.34Zm-20.67-40.8,20.67-35.8,20.67,35.8Zm25-38.3h41.34l-20.67,35.8Zm0-5L843.52,351l20.67,35.8Zm-25-43.3,20.67-35.8,20.67,35.8Zm0-81.6h41.34l-20.67,35.8Zm-4.33-7.5-20.67-35.8h41.34Zm-20.67-40.8,20.67-35.8,20.67,35.8Zm25-38.3h41.34l-20.67,35.8Zm-4.33-7.5L772.85,132h41.34Zm-4.33,2.5H747.85l20.67-35.81Zm-45.67-2.5L722.85,132h41.34Zm-4.33,2.5H697.85l20.67-35.81Zm-45.67-2.5L672.85,132h41.34Zm0,10h0l20.67,35.8h-100l25,43.3H447.85l20.67-35.8h0l25-43.3,25,43.3,25-43.3,25,43.3,25-43.3h0l1.25-2.18,3.08-5.32,20.67-35.81,25,43.31,25-43.31Zm-195.67-2.5h41.34l-20.67,35.8Zm50,0h41.34l-20.67,35.8Zm25-43.31h41.34l-20.67,35.81Zm50,0h41.34l-20.67,35.81Zm0-5,20.67-35.8L664.19,127Zm-4.33-2.5-20.67-35.8h41.34Zm-4.33,2.5H572.85l20.67-35.8Zm-45.67-2.5-20.67-35.8h41.34Zm-75,43.31L472.85,132h41.34Zm-4.33,2.5H447.85l20.67-35.81Zm-45.67-2.5L422.85,132h41.34Zm-4.33,2.5H397.85l20.67-35.81Zm-45.67-2.5L372.85,132h41.34Zm-4.33,2.5H347.85l20.67-35.81Zm-45.67-2.5L322.85,132h41.34Zm-4.33,2.5H297.85l20.67-35.81Zm-45.67-2.5L272.85,132h41.34Zm20.67,45.8H272.85l20.67-35.8Zm-45.67-2.5-20.67-35.8h41.34Zm-4.33,2.5H222.85l20.67-35.8Zm-45.67-2.5-20.67-35.8h41.34Zm-25-43.3L172.85,132h41.34ZM72.85,218.56h41.34l-20.67,35.8Zm25,43.3h41.34l-20.67,35.8Zm-75,43.3H64.19L43.52,341Zm45.67,79.1-20.67-35.8H89.19Zm-20.67-40.8,20.67-35.8,20.67,35.8Zm25-38.3h41.34L93.52,341Zm45.67,79.1-20.67-35.8h41.34Zm20.67-40.8H97.85l20.67-35.8h0l25-43.3,25,43.3h0l20.67,35.8h-50Zm8.66,5h41.34l-20.67,35.8Zm25,43.3h41.34l-20.67,35.8Zm-25,43.3h41.34l-20.67,35.8Zm20.67,45.8h0l25-43.3,25,43.3h0l20.67,35.81H147.85Zm-4.33-2.5-20.67,35.81-20.67-35.81Zm-45.67,2.5,20.67,35.81H97.85Zm-75,33.31L22.85,478.36H64.19ZM22.85,473.36l20.67-35.8,20.67,35.8Zm25-38.3H89.19l-20.67,35.8Zm25,43.3h41.34L93.52,514.17Zm25,43.31h41.34l-20.67,35.8Zm20.67,45.8,25,43.3,20.67,35.8H72.85l20.67-35.8Zm-4.33,84.1-20.67,35.8-20.67-35.8Zm-45.67-7.5-20.67-35.8H89.19ZM114.19,565l-20.67,35.8L72.85,565Zm-45.67,2.5,20.67,35.8H47.85ZM22.85,565H64.19l-20.67,35.8Zm20.67,45.8,20.67,35.8H22.85Zm-20.67,40.8H64.19l-20.67,35.8Zm20.67,45.8,25-43.3,25,43.3,25-43.3,25,43.3,20.67,35.8H22.85Zm-20.67,40.8H64.19L43.52,774Zm25,38.3,20.67-35.8,20.67,35.8Zm25-38.3h41.34L93.52,774Zm25,38.3,20.67-35.8,20.67,35.8Zm25-38.3h41.34L143.52,774Zm75,38.3h-50l20.67-35.8,25-43.3,25,43.3,20.67,35.8Zm25-38.3h41.34L243.52,774Zm25,38.3,20.67-35.8,20.67,35.8Zm25-38.3h41.34L293.52,774Zm75,38.3h-50l20.67-35.8,25-43.3,25,43.3,20.67,35.8Zm45.67-2.5-20.67-35.8h41.34Zm50,0-20.67-35.8h41.34Zm-20.67-40.8h-50l20.67-35.8,25-43.3,25,43.3,20.67,35.8Zm25-38.3h41.34l-20.67,35.8Zm25,43.3h41.34L493.52,774Zm25,38.3,20.67-35.8,20.67,35.8Zm25-38.3h41.34L543.52,774Zm25,38.3,20.67-35.8,20.67,35.8Zm25-38.3h41.34L593.52,774Zm25,38.3,20.67-35.8,20.67,35.8Zm45.67-2.5-20.67-35.8h41.34Zm20.67-40.8H572.85l20.67-35.8,25-43.3,25,43.3,25-43.3,25,43.3,20.67,35.8h-50Zm8.66,5h41.34L693.52,774Zm25,38.3,20.67-35.8,20.67,35.8Zm25-38.3h41.34L743.52,774Zm25,38.3,20.67-35.8,20.67,35.8Zm45.67-2.5-20.67-35.8h41.34Zm-20.67-40.8,20.67-35.8,20.67,35.8Zm25-38.3h41.34l-20.67,35.8ZM843.52,774l-20.67-35.8h41.34Zm-20.67-40.8,20.67-35.8,20.67,35.8Zm25-38.3h41.34l-20.67,35.8ZM893.52,774l-20.67-35.8h41.34Zm20.67-40.8H872.85l20.67-35.8,25-43.3,25,43.3,20.67,35.8h-50Zm8.66,5h41.34L943.52,774Zm25,38.3,20.67-35.8,20.67,35.8Zm45.67-2.5-20.67-35.8h41.34Zm0-76.6,20.67,35.8H972.85Zm-4.33-2.5-20.67,35.8-20.67-35.8Zm-45.67-7.5-20.67-35.8h41.34Zm-20.67-40.8h-50l20.67-35.8,25-43.3,25,43.3,20.67,35.8Zm66.34-38.3-20.67,35.8-20.67-35.8Zm-45.67-7.5L922.85,565h41.34ZM922.85,560l20.67-35.8L964.19,560Zm45.67-2.5-20.67-35.8h41.34Zm-20.67-40.8h-100l25-43.31h-50l20.67-35.8h0l25-43.3,25,43.3h0l25,43.3,25-43.3,25,43.3h0l20.67,35.81Zm-50-86.61,20.67-35.8,20.67,35.8Zm41.34,5-20.67,35.8-20.67-35.8Zm-45.67-7.5-20.67-35.8h41.34Zm120.67,50.8-20.67,35.81-20.67-35.81Zm-45.67-7.5-20.67-35.8h41.34Zm45.67-79.1-20.67,35.8-20.67-35.8Zm-45.67,2.5,20.67,35.8H947.85Zm-4.33-2.5-20.67,35.8-20.67-35.8Zm-25-43.3-20.67,35.8-20.67-35.8ZM893.52,351l20.67,35.8H872.85Zm-4.33-2.5-20.67,35.8-20.67-35.8ZM843.52,341l-20.67-35.8h41.34Zm-20.67-40.8,20.67-35.8,20.67,35.8Zm45.67-2.5-20.67-35.8h41.34Zm-20.67-40.8h-50l20.67-35.8h0l25-43.3h0l1.25-2.18,3.08-5.32,20.67-35.81,25,43.31,25-43.31,25,43.31h0l20.67,35.8h-100l25,43.3ZM843.52,81.15l-20.67-35.8h41.34Zm25-33.3,20.67,35.8H847.85Zm20.67,40.8-20.67,35.8-20.67-35.8ZM872.85,132h41.34l-20.67,35.81Zm50,0h41.34l-20.67,35.81Zm-50,86.61h41.34l-20.67,35.8Zm45.67,79.1-20.67-35.8h41.34Zm-20.67-40.8,20.67-35.8,20.67,35.8Zm25-38.3h41.34l-20.67,35.8Zm45.67,2.5,20.67,35.8H947.85Zm-20.67,40.8h41.34l-20.67,35.8ZM993.52,341l-20.67-35.8h41.34Zm20.67-40.8H972.85l20.67-35.8Zm0-81.6-20.67,35.8-20.67-35.8Zm-45.67-7.5-20.67-35.8h41.34Zm-20.67-40.8,20.67-35.81,20.67,35.81ZM1014.19,132l-20.67,35.81L972.85,132Zm-45.67-7.5-20.67-35.8h41.34Zm45.67-79.1-20.67,35.8-20.67-35.8Zm-45.67,2.5,20.67,35.8H947.85Zm-4.33-2.5-20.67,35.8-20.67-35.8Zm-45.67,2.5,25,43.3h0L964.19,127H872.85l20.67-35.8h0Zm-4.33-2.5-20.67,35.8-20.67-35.8Zm-25-43.3-20.67,35.8L847.85,2.05Zm-25,38.3H822.85l20.67-35.8Zm-25-38.3-20.67,35.8L797.85,2.05Zm-25,38.3H772.85l20.67-35.8Zm0,5-20.67,35.8-20.67-35.8Zm-25-43.3-20.67,35.8L747.85,2.05Zm-25,38.3H722.85l20.67-35.8ZM697.85,2.05h41.34l-20.67,35.8Zm25,43.3h41.34l-20.67,35.8Zm20.67,45.8h0l25-43.3,25,43.3,25-43.3,25,43.3h0L864.19,127H722.85Zm-4.33-2.5-20.67,35.8-20.67-35.8Zm-45.67,2.5L714.19,127H672.85Zm-4.33-2.5-20.67,35.8-20.67-35.8Zm-25-43.3-20.67,35.8-20.67-35.8Zm-45.67,2.5,20.67,35.8H597.85Zm-4.33-2.5-20.67,35.8-20.67-35.8Zm-45.67,2.5,20.67,35.8H547.85Zm-4.33-2.5-20.67,35.8-20.67-35.8Zm-25-43.3-20.67,35.8L497.85,2.05Zm-25,38.3H472.85l20.67-35.8ZM447.85,2.05h41.34l-20.67,35.8Zm16.34,43.3-20.67,35.8-20.67-35.8Zm-45.67,2.5,25,43.3,25-43.3,25,43.3h0L514.19,127H372.85l20.67-35.8h0Zm-4.33-2.5-20.67,35.8-20.67-35.8Zm-25-43.3-20.67,35.8L347.85,2.05Zm-25,38.3H322.85l20.67-35.8Zm-25-38.3-20.67,35.8L297.85,2.05Zm-25,38.3H272.85l20.67-35.8ZM247.85,2.05h41.34l-20.67,35.8Zm25,43.3h41.34l-20.67,35.8Zm20.67,45.8h0l25-43.3,25,43.3h0L364.19,127H272.85Zm-4.33-2.5-20.67,35.8-20.67-35.8Zm-45.67,2.5,25,43.3h0l20.67,35.81H197.85l23.75-41.13Zm-4.33-2.5-20.67,35.8-20.67-35.8Zm-45.67,2.5L214.19,127H172.85Zm-4.33-2.5-20.67,35.8-20.67-35.8Zm-25-43.3-20.67,35.8-20.67-35.8Zm-25-43.3-20.67,35.8L97.85,2.05Zm-20.67,45.8h0l20.67,35.8H47.85l20.67-35.8h0l25-43.3ZM89.19,2.05,68.52,37.85,47.85,2.05ZM43.52,4.55l20.67,35.8H22.85ZM22.85,45.35H64.19L43.52,81.15Zm20.67,45.8L64.19,127H22.85ZM64.19,132,43.52,167.76,22.85,132Z"/></g></g></svg>