<svg xmlns="http://www.w3.org/2000/svg" viewBox="0 0 1038.48 778.86"><defs><style>.cls-1{fill:none;}.cls-2{fill:lime;}</style></defs><title>Element 49</title><g id="Ebene_2" data-name="Ebene 2"><g id="Ebene_1-2" data-name="Ebene 1"><path class="cls-1" d="M899.93,738.36a22.5,22.5,0,0,0-45,0v2.5h-18.3v20h81.6v-20h-18.3Z"/><rect class="cls-1" x="1009.83" y="615.86" width="28.65" height="81.6"/><rect class="cls-1" x="706.73" y="489.97" width="81.6" height="20"/><path class="cls-1" d="M1029.83,488.36a22.5,22.5,0,1,0-45,0v2.5h-18.3v20h72v-20h-8.65Z"/><polygon class="cls-1" points="943.23 465.86 923.23 465.86 923.23 560.86 986.53 560.86 986.53 540.87 943.23 540.87 943.23 465.86"/><path class="cls-1" d="M874.15,299.05l17.32,10,16-27.77,2.16,1.22a22.44,22.44,0,0,0,22.14,0l2.16-1.22,16,27.77,17.32-10-46.59-80.69Z"/><polygon class="cls-1" points="962.2 686.53 988.97 640.18 971.64 630.17 927.56 706.53 962.2 686.53"/><rect class="cls-1" x="793.33" y="615.86" width="81.6" height="20"/><polygon class="cls-1" points="496.11 755.18 482.44 778.86 505.53 778.86 513.43 765.18 496.11 755.18"/><rect class="cls-1" x="576.82" y="765.86" width="20" height="13"/><rect class="cls-1" x="57.21" y="765.86" width="45" height="13"/><polygon class="cls-1" points="252.85 715.18 235.53 705.18 192.98 778.86 196.07 778.86 226.08 761.53 252.85 715.18"/><path class="cls-1" d="M357.82,693.36l-46.59,80.69,8.33,4.81h12l13-22.58,2.15,1.22a22.46,22.46,0,0,0,22.15,0l2.15-1.22,13,22.58h12l8.33-4.81Z"/><path class="cls-1" d="M1014,758.72h-2.5v-18.3h-45v38.44h69.88A22.53,22.53,0,0,0,1014,758.72Z"/><path class="cls-1" d="M346.49,763l-9.17,15.88h41L369.14,763A27.92,27.92,0,0,1,346.49,763Z"/><polygon class="cls-1" points="640.13 765.87 640.13 690.86 620.12 690.86 620.12 778.86 683.42 778.86 683.42 765.87 640.13 765.87"/><polygon class="cls-1" points="741.47 778.86 753.59 778.86 747.53 768.36 741.47 778.86"/><path class="cls-1" d="M754.23,659.17h-2.5V640.86h-45v81.61h45v-18.3h2.5a22.5,22.5,0,0,0,0-45Z"/><path class="cls-1" d="M52.21,760.86h55v18h80l46.49-80.51,26,15-29.94,51.84-23.67,13.67H309.56l-5.16-3,53.42-92.52,53.41,92.52-5.16,3h70.59l17.62-30.51,26,15-9,15.51h60.52v-18h30v18h13.3v-93h30v75h43.3v18h47.27l11.84-20.5,11.83,20.5H961.53V735.42h55v18.41a27.57,27.57,0,0,1,22,14.81V702.47h-33.65V610.86h33.65v-95h-77v-30H980a27.5,27.5,0,0,1,54.77,0h3.76v-45h-77v-30H980a27.5,27.5,0,0,1,54.77,0h3.76v-45h-77v-30H980a27.5,27.5,0,0,1,54.77,0h3.76V263.74l-3.71,2.14L1018.66,238A27.88,27.88,0,0,1,996,238L979.9,265.88l-26-15,53.41-92.52,31.15,54V140.86h-33.65v-30h18.42a27.57,27.57,0,0,1,15.23-22.16V40.86h-77v-30h77V0H931.34l-8.78,15.19-52,30L896.7,0H862.27l-35,20.19L839,0H781.28a27.56,27.56,0,0,1-24.55,22.45V40.86h-55V0h-7.06a27.55,27.55,0,0,1-24.55,22.45V40.86h-55V0H482.89l14.94,25.88-26,15L455.74,13a27.92,27.92,0,0,1-22.65,0L417,40.88l-26-15L406,0h-23.1L359.64,40.19l-52,30L348.21,0H325.12l-8.78,15.19-52,30L290.48,0H230.41V15.86h-91.6V0H0V163.34a27.49,27.49,0,0,1,38.79,22.52H57.21v30H0v20H13.91v30H0v295H13.91v30H0v62.26l11.41-19.76,53.41,92.52-26,15L22.73,713A27.92,27.92,0,0,1,.08,713l-.08.14v65.74H52.21Zm134.9-20H95.51v-30h91.6ZM91.18,645.2l55.91-96.85,26,15-29.93,51.84Zm95.93,45.66H95.51v-30h91.6Zm0-225H95.51v-30h91.6Zm129.9-255v30h-91.6v-30Zm-91.6-20v-30H317v30Zm5,70v30h-91.6v-30Zm75,209.2a27.54,27.54,0,0,1-25,27.39v18.41h-55v-91.6h55v18.42A27.52,27.52,0,0,1,305.41,470.06Zm11.6,95.8h-91.6v-30H317Zm46.59-42.51,26,15-29.94,51.84-52,30ZM168.74,215.88,152.63,188A27.9,27.9,0,0,1,130,188l-16.11,27.9-26-15,53.42-92.52,53.42,92.52Zm-68.23,170v30H8.91v-30H27.32a27.5,27.5,0,0,1,54.77,0Zm85.93,4.33-52,30,55.91-96.85,26,15ZM317,665.86h-91.6v-30h18.42a27.5,27.5,0,0,1,54.77,0H317Zm85.93-50.67-52,30,55.92-96.85,26,15ZM533.52,715.86h-91.6v-30h91.6Zm0-50h-91.6v-30h91.6Zm0-50h-91.6v-30h91.6Zm24.93-75L542.34,513a27.9,27.9,0,0,1-22.64,0l-16.11,27.9-26-15L531,433.36l53.42,92.52Zm61.67-125h-91.6v-30h18.42a27.5,27.5,0,0,1,54.77,0h18.41Zm46.59,32.48,26,15-29.94,51.84-52,30ZM532.85,340.19l-52,30,55.91-96.85,26,15Zm-42.63-24.33h-91.6v-30h91.6Zm136.6,318.19v18.42h-55V560.86h55v18.42a27.5,27.5,0,0,1,0,54.77Zm31.6-43.19v-30H750v30Zm203.21-180v30h-73.3v-105h30v75Zm64.89,187.48,26,15-29.94,51.84-52,30Zm-46.59-7.49h-91.6v-30h18.41a27.5,27.5,0,0,1,54.78,0h18.41Zm-.67-100.67-52,30,55.91-96.85,26,15ZM831.63,365.86v-30h91.6v30ZM793.33,485v30h-91.6V485Zm-36.6,224.08v18.42h-55V635.86h55v18.42a27.5,27.5,0,0,1,0,54.77Zm31.6-98.19h91.6v30h-91.6Zm134.9,155h-91.6v-30H850a27.5,27.5,0,0,1,54.78,0h18.41Zm42.63-75.67-52,30,55.91-96.84,26,15Zm25.67-154.33v30h-73.3v-105h30v75Zm-17.38-235-26,15L932.05,288a27.9,27.9,0,0,1-22.64,0l-16.11,27.9-26-15,53.41-92.52ZM969.82,73.35l26,15-29.94,51.84-52,30Zm-138.19.91h55V92.68a27.5,27.5,0,0,1,0,54.77v18.41h-55Zm8.28,124.09,26,15L836,265.19l-52,30Zm-21.58,17.51H745v-105h30v75h43.3Zm-116.6-155h91.6v30h-91.6Zm-43.31,50h30v75h43.3v30H658.42Zm0,125H750v30H658.42Zm0,50H750v30H658.42Zm45.81,47.5,53.41,92.52-26,15L715.55,413a27.92,27.92,0,0,1-22.65,0l-16.11,27.9-26-15Zm-54.84-95-29.94,51.84-52,30,55.92-96.85Zm-29.27-77.49v30h-91.6v-30h18.42a27.5,27.5,0,0,1,54.77,0Zm-14-97.51-29.94,51.84-52,30L580.1,48.35Zm-69.28-40,26,15L532.85,90.19l-52,30Zm-49.09,135,53.41,92.52-26,15L499,238a27.9,27.9,0,0,1-22.64,0l-16.11,27.9-26-15Zm-132.4-72.5h91.6v30h-91.6Zm0,50h55v18.42a27.5,27.5,0,0,1,0,54.77v18.42h-55Zm0,150h30v75h43.3v30h-73.3Zm0,175h18.41a27.5,27.5,0,0,1,54.77,0h18.42v30h-91.6Zm-13.31-70h-73.3v-105h30v75H342Zm-25-280v30h-91.6v-30Zm-178.2-50h18.41a27.51,27.51,0,0,1,54.78,0h18.41v30h-91.6ZM43.38,88l-16.11,27.9-26-15L54.71,8.36l53.41,92.52-26,15L66,88A27.92,27.92,0,0,1,43.38,88ZM60.49,248.35l26,15L56.53,315.19l-52,30ZM8.91,527.47V435.86h55v18.42a27.5,27.5,0,0,1,0,54.77v18.42Zm39,92.73,55.91-96.85,26,15L99.84,590.19Z"/><path class="cls-1" d="M423.62,463.36a22.5,22.5,0,0,0-45,0v2.5h-18.3v20h81.6v-20h-18.3Z"/><path class="cls-1" d="M458.46,259.05l16-27.77,2.16,1.22a22.44,22.44,0,0,0,22.14,0l2.16-1.22,16,27.77,17.32-10-46.58-80.69-46.59,80.69Z"/><polygon class="cls-1" points="380.32 290.87 360.32 290.87 360.32 385.87 423.62 385.87 423.62 365.87 380.32 365.87 380.32 290.87"/><path class="cls-1" d="M430.32,181.67a22.53,22.53,0,0,0-22.5-22.5h-2.5V140.86h-45v81.61h45v-18.3h2.5A22.53,22.53,0,0,0,430.32,181.67Z"/><rect class="cls-1" x="360.32" y="90.86" width="81.6" height="20"/><rect class="cls-1" x="230.41" y="115.86" width="81.6" height="20"/><polygon class="cls-1" points="293.71 290.86 273.71 290.86 273.71 385.86 337.01 385.86 337.01 365.87 293.71 365.87 293.71 290.86"/><polygon class="cls-1" points="105.62 530.18 61.54 606.53 96.17 586.53 122.94 540.18 105.62 530.18"/><path class="cls-1" d="M83.91,481.67a22.53,22.53,0,0,0-22.5-22.5h-2.5V440.86h-45v81.61h45v-18.3h2.5A22.53,22.53,0,0,0,83.91,481.67Z"/><path class="cls-1" d="M207.11,63.36a22.5,22.5,0,0,0-45,0v2.5h-18.3v20h81.6v-20h-18.3Z"/><path class="cls-1" d="M1029.83,413.36a22.5,22.5,0,1,0-45,0v2.5h-18.3v20h72v-20h-8.65Z"/><polygon class="cls-1" points="62.32 255.18 18.24 331.53 52.88 311.53 79.64 265.18 62.32 255.18"/><path class="cls-1" d="M84,109.05l17.32-10L54.71,18.36,8.12,99.05l17.32,10,16-27.77,2.15,1.22a22.46,22.46,0,0,0,22.15,0l2.16-1.22Z"/><polygon class="cls-1" points="832.3 261.53 859.07 215.18 841.74 205.18 797.66 281.53 832.3 261.53"/><polygon class="cls-1" points="770.03 115.86 750.03 115.86 750.03 210.87 813.33 210.87 813.33 190.87 770.03 190.87 770.03 115.86"/><rect class="cls-1" x="663.42" y="240.86" width="81.6" height="20"/><polygon class="cls-1" points="683.43 115.86 663.42 115.86 663.42 210.86 726.73 210.86 726.73 190.87 683.43 190.87 683.43 115.86"/><rect class="cls-1" x="706.73" y="65.86" width="81.6" height="20"/><path class="cls-1" d="M906.63,120.06a22.53,22.53,0,0,0-22.5-22.5h-2.5V79.26h-45v81.6h45v-18.3h2.5A22.52,22.52,0,0,0,906.63,120.06Z"/><polygon class="cls-1" points="971.65 80.18 927.56 156.53 962.2 136.53 988.97 90.18 971.65 80.18"/><path class="cls-1" d="M693.15,407.5a22.46,22.46,0,0,0,22.15,0l2.15-1.22,16,27.77,17.32-10-46.58-80.69-46.59,80.69,17.32,10,16-27.77Z"/><path class="cls-1" d="M596.82,163.36a22.5,22.5,0,0,0-45,0v2.49h-18.3v20h81.6v-20h-18.3Z"/><polygon class="cls-1" points="572.49 111.53 599.26 65.18 581.93 55.18 537.85 131.53 572.49 111.53"/><polygon class="cls-1" points="615.79 286.53 642.56 240.18 625.24 230.18 581.15 306.53 615.79 286.53"/><polygon class="cls-1" points="538.64 30.18 494.55 106.53 529.19 86.53 555.96 40.18 538.64 30.18"/><rect class="cls-1" x="663.42" y="290.86" width="81.6" height="20"/><rect class="cls-1" x="446.92" y="590.86" width="81.6" height="20"/><rect class="cls-1" x="230.41" y="215.86" width="81.6" height="20"/><rect class="cls-1" x="100.51" y="440.86" width="81.6" height="20"/><rect class="cls-1" x="100.51" y="665.86" width="81.6" height="20"/><polygon class="cls-1" points="148.92 555.18 104.84 631.53 139.48 611.53 166.25 565.18 148.92 555.18"/><rect class="cls-1" x="100.51" y="715.86" width="81.6" height="20"/><rect class="cls-1" x="143.81" y="265.86" width="81.6" height="20"/><polygon class="cls-1" points="813.33 340.86 793.33 340.86 793.33 435.87 856.63 435.87 856.63 415.87 813.33 415.87 813.33 340.86"/><rect class="cls-1" x="230.41" y="165.86" width="81.6" height="20"/><path class="cls-1" d="M856.63,563.36a22.5,22.5,0,0,0-45,0v2.5h-18.3v20h81.6v-20h-18.3Z"/><path class="cls-1" d="M52.21,190.86H33.91v-2.5A22.48,22.48,0,0,0,0,169v41.88H52.21Z"/><rect class="cls-1" x="143.81" width="81.6" height="10.86"/><path class="cls-1" d="M275.41,447.56v-18.3h-45v81.6h45v-18.3h2.5a22.5,22.5,0,0,0,0-45Z"/><polygon class="cls-1" points="918.9 661.53 945.67 615.18 928.35 605.18 884.26 681.53 918.9 661.53"/><path class="cls-1" d="M11.41,710.42a22.5,22.5,0,0,0,11.07-2.92l2.15-1.22,16,27.77,17.32-10L11.41,643.36,0,663.12v44.19l.33.19A22.51,22.51,0,0,0,11.41,710.42Z"/><rect class="cls-1" y="240.86" width="8.91" height="20"/><rect class="cls-1" y="565.86" width="8.91" height="20"/><polygon class="cls-1" points="312.68 11.53 319.34 0 296.25 0 278.04 31.53 312.68 11.53"/><path class="cls-1" d="M624.32,584.17h-2.5V565.86h-45v81.61h45v-18.3h2.5a22.5,22.5,0,0,0,0-45Z"/><rect class="cls-1" x="403.62" y="290.86" width="81.6" height="20"/><rect class="cls-1" x="446.92" y="640.86" width="81.6" height="20"/><rect class="cls-1" x="446.92" y="690.86" width="81.6" height="20"/><polygon class="cls-1" points="659.09 511.53 685.86 465.18 668.54 455.18 624.45 531.53 659.09 511.53"/><path class="cls-1" d="M596.82,388.36a22.5,22.5,0,0,0-45,0v2.5h-18.3v20h81.6v-20h-18.3Z"/><polygon class="cls-1" points="529.19 336.53 555.96 290.18 538.63 280.18 494.55 356.53 529.19 336.53"/><path class="cls-1" d="M531,443.36l-46.58,80.69,17.32,10,16-27.77L520,507.5a22.44,22.44,0,0,0,22.14,0l2.16-1.22,16,27.77,17.33-10Z"/><path class="cls-1" d="M293.71,638.36a22.5,22.5,0,0,0-45,0v2.5h-18.3v20H312v-20h-18.3Z"/><polygon class="cls-1" points="355.98 586.53 382.75 540.18 365.43 530.18 321.34 606.53 355.98 586.53"/><rect class="cls-1" x="230.41" y="540.86" width="81.6" height="20"/><path class="cls-1" d="M94.72,199.05l17.33,10,16-27.77,2.16,1.22a22.44,22.44,0,0,0,22.14,0l2.16-1.22,16,27.77,17.33-10-46.59-80.69Z"/><path class="cls-1" d="M77.21,388.36a22.5,22.5,0,0,0-45,0v2.5H13.91v20h81.6v-20H77.21Z"/><polygon class="cls-1" points="399.29 611.53 426.05 565.18 408.73 555.18 364.65 631.53 399.29 611.53"/><rect class="cls-1" x="663.42" y="565.86" width="81.6" height="20"/><polygon class="cls-1" points="182.78 386.53 209.54 340.18 192.22 330.18 148.14 406.53 182.78 386.53"/><path class="cls-1" d="M665.12,35.86V17.56h2.5A22.54,22.54,0,0,0,689.57,0H620.12V35.86Z"/><rect class="cls-1" x="966.53" y="15.86" width="71.95" height="20"/><polygon class="cls-1" points="918.9 11.53 925.56 0 902.47 0 884.26 31.54 918.9 11.53"/><rect class="cls-1" x="836.63" y="340.86" width="81.6" height="20"/><path class="cls-1" d="M751.73,35.86V17.56h2.5A22.52,22.52,0,0,0,776.17,0H706.73V35.86Z"/><polygon class="cls-1" points="852.27 0 844.73 0 840.96 6.53 852.27 0"/><path class="cls-1" d="M1028.14,113.36v2.5h-18.31v20h28.65V94.44A22.51,22.51,0,0,0,1028.14,113.36Z"/><polygon class="cls-1" points="875.6 486.53 902.37 440.18 885.04 430.18 840.96 506.53 875.6 486.53"/><polygon class="cls-1" points="355.98 36.53 377.08 0 353.98 0 321.34 56.53 355.98 36.53"/><path class="cls-1" d="M960.75,249.05l17.32,10,16-27.77,2.16,1.22a22.44,22.44,0,0,0,22.14,0l2.16-1.22,16,27.77,1.88-1.09V222.32l-31.15-54Z"/><path class="cls-1" d="M1029.83,338.36a22.5,22.5,0,1,0-45,0v2.5h-18.3v20h72v-20h-8.65Z"/><path class="cls-1" d="M415.15,34.05l16-27.77,2.16,1.22a22.44,22.44,0,0,0,11.07,2.92A22.47,22.47,0,0,0,455.49,7.5l2.16-1.22,16,27.77,17.32-10L477.12,0h-65.4L397.83,24.05Z"/><path class="cls-2" d="M54.71,360.86a27.55,27.55,0,0,0-27.39,25H8.91v30h91.6v-30H82.09A27.53,27.53,0,0,0,54.71,360.86Zm40.8,50H13.91v-20h18.3v-2.5a22.5,22.5,0,0,1,45,0v2.5h18.3Z"/><path class="cls-2" d="M271.21,610.86a27.53,27.53,0,0,0-27.38,25H225.41v30H317v-30H298.6A27.55,27.55,0,0,0,271.21,610.86Zm40.8,50h-81.6v-20h18.3v-2.5a22.5,22.5,0,0,1,45,0v2.5H312Z"/><path class="cls-2" d="M446.92,460.86H428.5a27.5,27.5,0,0,0-54.77,0H355.32v30h91.6Zm-5,25h-81.6v-20h18.3v-2.5a22.5,22.5,0,0,1,45,0v2.5h18.3Z"/><path class="cls-2" d="M574.32,360.86a27.53,27.53,0,0,0-27.38,25H528.52v30h91.6v-30H601.71A27.55,27.55,0,0,0,574.32,360.86Zm40.8,50h-81.6v-20h18.3v-2.5a22.5,22.5,0,0,1,45,0v2.5h18.3Z"/><path class="cls-2" d="M574.32,135.87a27.52,27.52,0,0,0-27.38,25H528.52v30h91.6v-30H601.71A27.54,27.54,0,0,0,574.32,135.87Zm40.8,50h-81.6v-20h18.3v-2.49a22.5,22.5,0,0,1,45,0v2.5h18.3Z"/><path class="cls-2" d="M230.41,60.86H212a27.51,27.51,0,0,0-54.78,0H138.81v30h91.6Zm-5,25h-81.6v-20h18.3v-2.5a22.5,22.5,0,0,1,45,0v2.5h18.3Z"/><path class="cls-2" d="M57.21,185.86H38.79A27.49,27.49,0,0,0,0,163.34V169a22.48,22.48,0,0,1,33.91,19.38v2.5h18.3v20H0v5H57.21Z"/><polygon class="cls-2" points="230.41 15.87 230.41 0 225.41 0 225.41 10.87 143.81 10.87 143.81 0 138.81 0 138.81 15.87 230.41 15.87"/><path class="cls-2" d="M834.13,535.86a27.55,27.55,0,0,0-27.39,25H788.33v30h91.6v-30H861.52A27.55,27.55,0,0,0,834.13,535.86Zm40.8,50h-81.6v-20h18.3v-2.5a22.5,22.5,0,0,1,45,0v2.5h18.3Z"/><path class="cls-2" d="M877.43,710.86a27.55,27.55,0,0,0-27.39,25H831.63v30h91.6v-30H904.82A27.55,27.55,0,0,0,877.43,710.86Zm40.8,50h-81.6v-20h18.3v-2.5a22.5,22.5,0,0,1,45,0v2.5h18.3Z"/><path class="cls-2" d="M1007.33,310.86a27.53,27.53,0,0,0-27.38,25H961.53v30h77v-5h-72v-20h18.3v-2.5a22.5,22.5,0,1,1,45,0v2.5h8.65v-5h-3.76A27.53,27.53,0,0,0,1007.33,310.86Z"/><path class="cls-2" d="M1023.25,110.86h-18.42v30h33.65v-5h-28.65v-20h18.31v-2.5a22.51,22.51,0,0,1,10.34-18.92V88.7A27.57,27.57,0,0,0,1023.25,110.86Z"/><path class="cls-2" d="M1007.33,385.86a27.53,27.53,0,0,0-27.38,25H961.53v30h77v-5h-72v-20h18.3v-2.5a22.5,22.5,0,1,1,45,0v2.5h8.65v-5h-3.76A27.53,27.53,0,0,0,1007.33,385.86Z"/><path class="cls-2" d="M1007.33,460.86a27.53,27.53,0,0,0-27.38,25H961.53v30h77v-5h-72v-20h18.3v-2.5a22.5,22.5,0,1,1,45,0v2.5h8.65v-5h-3.76A27.53,27.53,0,0,0,1007.33,460.86Z"/><path class="cls-2" d="M298.71,285.86h-30v105H342v-30h-43.3Zm38.3,80v20h-63.3v-95h20v75Z"/><path class="cls-2" d="M428.62,360.87h-43.3v-75h-30v105h73.3Zm-5,25h-63.3v-95h20v75h43.3Z"/><path class="cls-2" d="M731.73,185.86h-43.3v-75h-30v105h73.31Zm-5,25H663.42v-95h20v75h43.3Z"/><path class="cls-2" d="M775,110.86H745v105h73.3v-30H775Zm38.3,80v20H750v-95h20v75Z"/><polygon class="cls-2" points="645.13 760.87 645.13 685.86 615.12 685.86 615.12 778.86 620.12 778.86 620.12 690.86 640.13 690.86 640.13 765.87 683.42 765.87 683.42 778.86 688.42 778.86 688.42 760.87 645.13 760.87"/><polygon class="cls-2" points="571.82 760.86 571.82 778.86 576.82 778.86 576.82 765.86 596.82 765.86 596.82 778.86 601.82 778.86 601.82 760.86 571.82 760.86"/><path class="cls-2" d="M788.33,335.86v105h73.3v-30h-43.3v-75Zm68.3,80v20h-63.3v-95h20v75Z"/><path class="cls-2" d="M948.23,460.86h-30v105h73.3v-30h-43.3Zm38.3,80v20h-63.3v-95h20v75Z"/><path class="cls-2" d="M138.81,290.86h91.6v-30h-91.6Zm5-25h81.6v20h-81.6Z"/><polygon class="cls-2" points="13.91 235.87 0 235.87 0 240.87 8.91 240.87 8.91 260.87 0 260.87 0 265.87 13.91 265.87 13.91 235.87"/><path class="cls-2" d="M95.51,690.86h91.6v-30H95.51Zm5-25h81.6v20h-81.6Z"/><polygon class="cls-2" points="13.91 560.87 0 560.87 0 565.87 8.91 565.87 8.91 585.87 0 585.87 0 590.87 13.91 590.87 13.91 560.87"/><path class="cls-2" d="M225.41,565.86H317v-30h-91.6Zm5-25H312v20h-81.6Z"/><path class="cls-2" d="M95.51,465.86h91.6v-30H95.51Zm5-25h81.6v20h-81.6Z"/><path class="cls-2" d="M95.51,740.86h91.6v-30H95.51Zm5-25h81.6v20h-81.6Z"/><path class="cls-2" d="M225.41,140.86H317v-30h-91.6Zm5-25H312v20h-81.6Z"/><path class="cls-2" d="M750,235.86H658.42v30H750Zm-5,25H663.42v-20H745Z"/><path class="cls-2" d="M793.33,60.86h-91.6v30h91.6Zm-5,25h-81.6v-20h81.6Z"/><path class="cls-2" d="M750,285.86H658.42v30H750Zm-5,25H663.42v-20H745Z"/><polygon class="cls-2" points="961.53 40.86 1038.48 40.86 1038.48 35.86 966.53 35.86 966.53 15.86 1038.48 15.86 1038.48 10.86 961.53 10.86 961.53 40.86"/><path class="cls-2" d="M923.23,335.86h-91.6v30h91.6Zm-5,25h-81.6v-20h81.6Z"/><path class="cls-2" d="M750,560.86H658.42v30H750Zm-5,25H663.42v-20H745Z"/><path class="cls-2" d="M879.93,610.86h-91.6v30h91.6Zm-5,25h-81.6v-20h81.6Z"/><path class="cls-2" d="M701.73,515h91.6V485h-91.6Zm5-25h81.6v20h-81.6Z"/><path class="cls-2" d="M441.92,615.86h91.6v-30h-91.6Zm5-25h81.6v20h-81.6Z"/><path class="cls-2" d="M441.92,665.86h91.6v-30h-91.6Zm5-25h81.6v20h-81.6Z"/><path class="cls-2" d="M441.92,715.86h91.6v-30h-91.6Zm5-25h81.6v20h-81.6Z"/><path class="cls-2" d="M317,160.86h-91.6v30H317Zm-5,25h-81.6v-20H312Z"/><path class="cls-2" d="M446.92,85.86h-91.6v30h91.6Zm-5,25h-81.6v-20h81.6Z"/><path class="cls-2" d="M398.62,315.86h91.6v-30h-91.6Zm5-25h81.6v20h-81.6Z"/><path class="cls-2" d="M225.41,240.86H317v-30h-91.6Zm5-25H312v20h-81.6Z"/><path class="cls-2" d="M410.32,209.05a27.5,27.5,0,0,0,0-54.77V135.86h-55v91.61h55Zm-5-4.88v18.3h-45V140.86h45v18.31h2.5a22.5,22.5,0,0,1,0,45Z"/><path class="cls-2" d="M225.41,424.26v91.6h55V497.45a27.5,27.5,0,0,0,0-54.77V424.26Zm75,45.8a22.52,22.52,0,0,1-22.5,22.5h-2.5v18.3h-45v-81.6h45v18.3h2.5A22.53,22.53,0,0,1,300.41,470.06Z"/><path class="cls-2" d="M63.91,509.05a27.5,27.5,0,0,0,0-54.77V435.86h-55v91.61h55Zm-5-4.88v18.3h-45V440.86h45v18.31h2.5a22.5,22.5,0,1,1,0,45Z"/><path class="cls-2" d="M886.63,147.45a27.5,27.5,0,0,0,0-54.77V74.26h-55v91.6h55Zm-5-4.89v18.3h-45V79.26h45v18.3h2.5a22.5,22.5,0,0,1,0,45Z"/><path class="cls-2" d="M626.82,579.28V560.86h-55v91.61h55V634.05a27.5,27.5,0,0,0,0-54.77Zm-2.5,49.89h-2.5v18.3h-45V565.86h45v18.31h2.5a22.5,22.5,0,0,1,0,45Z"/><path class="cls-2" d="M1016.53,753.83V735.42h-55v43.44h5V740.42h45v18.3h2.5a22.53,22.53,0,0,1,22.38,20.14h2.07V768.64A27.57,27.57,0,0,0,1016.53,753.83Z"/><polygon class="cls-2" points="52.21 760.87 52.21 778.86 57.21 778.86 57.21 765.87 102.21 765.87 102.21 778.86 107.21 778.86 107.21 760.87 52.21 760.87"/><polygon class="cls-2" points="1004.83 702.47 1038.48 702.47 1038.48 697.47 1009.83 697.47 1009.83 615.86 1038.48 615.86 1038.48 610.86 1004.83 610.86 1004.83 702.47"/><path class="cls-2" d="M756.73,654.28V635.86h-55v91.61h55V709.05a27.5,27.5,0,0,0,0-54.77Zm-2.5,49.89h-2.5v18.3h-45V640.86h45v18.31h2.5a22.5,22.5,0,0,1,0,45Z"/><path class="cls-2" d="M756.73,40.86V22.45A27.56,27.56,0,0,0,781.28,0h-5.11a22.52,22.52,0,0,1-21.94,17.56h-2.5v18.3h-45V0h-5V40.86Z"/><path class="cls-2" d="M670.12,40.86V22.45A27.55,27.55,0,0,0,694.67,0h-5.1a22.54,22.54,0,0,1-22,17.56h-2.5v18.3h-45V0h-5V40.86Z"/><polygon class="cls-2" points="735.69 778.86 741.47 778.86 747.53 768.36 753.59 778.86 759.36 778.86 747.53 758.36 735.69 778.86"/><path class="cls-2" d="M22.73,713l16.11,27.9,26-15L11.41,633.36,0,653.12v10l11.41-19.76L58,724.05l-17.32,10-16-27.77-2.15,1.22a22.46,22.46,0,0,1-22.15,0L0,707.31v5.81L.08,713A27.92,27.92,0,0,0,22.73,713Z"/><path class="cls-2" d="M82.14,115.88l26-15L54.71,8.36,1.29,100.88l26,15L43.38,88A27.92,27.92,0,0,0,66,88ZM54.71,85.42A22.51,22.51,0,0,1,43.63,82.5l-2.15-1.22-16,27.77-17.32-10L54.71,18.36l46.58,80.69L84,109.05l-16-27.77L65.78,82.5A22.5,22.5,0,0,1,54.71,85.42Z"/><path class="cls-2" d="M87.89,200.88l26,15L130,188a27.9,27.9,0,0,0,22.64,0l16.11,27.9,26-15-53.42-92.52Zm82.68,8.17-16-27.77-2.16,1.22a22.44,22.44,0,0,1-22.14,0l-2.16-1.22-16,27.77-17.33-10,46.59-80.69,46.59,80.69Z"/><path class="cls-2" d="M531,433.36l-53.41,92.52,26,15L519.7,513a27.9,27.9,0,0,0,22.64,0l16.11,27.9,26-15Zm13.23,72.92-2.16,1.22a22.44,22.44,0,0,1-22.14,0l-2.16-1.22-16,27.77-17.32-10L531,443.36l46.59,80.69-17.33,10Z"/><path class="cls-2" d="M692.9,413a27.92,27.92,0,0,0,22.65,0l16.11,27.9,26-15-53.41-92.52-53.42,92.52,26,15Zm-35.26,11.07,46.59-80.69,46.58,80.69-17.32,10-16-27.77-2.15,1.22a22.46,22.46,0,0,1-22.15,0L691,406.28l-16,27.77Z"/><path class="cls-2" d="M460.29,265.88,476.4,238A27.9,27.9,0,0,0,499,238l16.11,27.9,26-15-53.41-92.52L434.3,250.88Zm74-16.83-17.32,10-16-27.77-2.16,1.22a22.44,22.44,0,0,1-22.14,0l-2.16-1.22-16,27.77-17.33-10,46.59-80.69Z"/><path class="cls-2" d="M867.32,300.88l26,15L909.41,288a27.9,27.9,0,0,0,22.64,0l16.12,27.9,26-15-53.42-92.52ZM950,309.05l-16-27.77-2.16,1.22a22.44,22.44,0,0,1-22.14,0l-2.16-1.22-16,27.77-17.32-10,46.58-80.69,46.59,80.69Z"/><path class="cls-2" d="M953.92,250.88l26,15L996,238a27.88,27.88,0,0,0,22.65,0l16.11,27.9,3.71-2.14V258l-1.88,1.09-16-27.77-2.16,1.22a22.44,22.44,0,0,1-22.14,0l-2.16-1.22-16,27.77-17.32-10,46.58-80.69,31.15,54v-10l-31.15-54Z"/><path class="cls-2" d="M417,40.88,433.09,13a27.92,27.92,0,0,0,22.65,0l16.11,27.9,26-15L482.89,0h-5.77L491,24.05l-17.32,10-16-27.77L455.49,7.5a22.47,22.47,0,0,1-11.07,2.92A22.44,22.44,0,0,1,433.35,7.5l-2.16-1.22-16,27.77-17.32-10L411.72,0H406L391,25.88Z"/><polygon class="cls-2" points="357.82 683.37 304.4 775.88 309.56 778.86 319.56 778.86 311.23 774.05 357.82 693.37 404.4 774.05 396.07 778.86 406.07 778.86 411.23 775.88 357.82 683.37"/><path class="cls-2" d="M368.89,757.5a22.46,22.46,0,0,1-22.15,0l-2.15-1.22-13,22.58h5.77L346.49,763a27.92,27.92,0,0,0,22.65,0l9.17,15.88h5.77l-13-22.58Z"/><path class="cls-2" d="M86.47,263.35l-26-15L4.57,345.2l52-30ZM18.24,331.53l44.08-76.35,17.32,10L52.87,311.53Z"/><path class="cls-2" d="M480.89,370.2l52-30,29.94-51.84-26-15Zm75.07-80-26.77,46.35-34.64,20,44.08-76.35Z"/><path class="cls-2" d="M619.45,290.19l29.94-51.84-26-15L567.49,320.2Zm5.79-60,17.32,10-26.77,46.35-34.64,20Z"/><path class="cls-2" d="M827.3,520.2l52-30,29.94-51.84-26-15Zm75.07-80L875.6,486.53l-34.64,20L885,430.18Z"/><path class="cls-2" d="M662.75,515.19l29.94-51.84-26-15L610.79,545.2Zm5.79-60,17.32,10-26.77,46.35-34.64,20Z"/><polygon class="cls-2" points="259.68 713.35 233.7 698.35 187.21 778.86 192.98 778.86 235.53 705.18 252.85 715.18 226.08 761.53 196.07 778.86 206.07 778.86 229.74 765.19 259.68 713.35"/><polygon class="cls-2" points="494.28 748.35 476.66 778.86 482.44 778.86 496.11 755.18 513.43 765.18 505.53 778.86 511.3 778.86 520.26 763.35 494.28 748.35"/><path class="cls-2" d="M576.15,115.19l29.94-51.84-26-15L524.19,145.2Zm5.79-60,17.32,10-26.77,46.35-34.64,20Z"/><path class="cls-2" d="M562.79,38.35l-26-15L480.89,120.2l52-30Zm-68.24,68.18,44.09-76.35,17.32,10L529.19,86.53Z"/><path class="cls-2" d="M173.07,563.35l-26-15L91.18,645.2l52-30Zm-68.23,68.18,44.08-76.35,17.32,10-26.76,46.35Z"/><path class="cls-2" d="M913.9,720.19l52-30,29.94-51.84-26-15Zm75.07-80L962.2,686.53l-34.64,20,44.08-76.35Z"/><path class="cls-2" d="M922.56,665.19l29.94-51.84-26-15L870.6,695.19Zm5.79-60,17.32,10L918.9,661.53l-34.64,20Z"/><path class="cls-2" d="M129.77,538.35l-26-15L47.88,620.2l52-30ZM61.54,606.53l44.08-76.35,17.32,10L96.18,586.53Z"/><path class="cls-2" d="M351,645.2l52-30,29.94-51.84-26-15Zm75.07-80-26.77,46.35-34.63,20,44.08-76.35Z"/><path class="cls-2" d="M359.64,590.19l29.94-51.84-26-15L307.68,620.2Zm5.79-60,17.32,10L356,586.53l-34.64,20Z"/><polygon class="cls-2" points="359.64 40.19 382.85 0 377.08 0 355.98 36.53 321.34 56.53 353.98 0 348.21 0 307.68 70.19 359.64 40.19"/><polygon class="cls-2" points="316.34 15.19 325.12 0 319.34 0 312.68 11.53 278.04 31.53 296.25 0 290.48 0 264.38 45.2 316.34 15.19"/><path class="cls-2" d="M995.8,88.35l-26-15L913.9,170.19l52-30Zm-68.24,68.18,44.09-76.35,17.32,10L962.2,136.53Z"/><path class="cls-2" d="M836,265.19l29.94-51.84-26-15L784,295.19Zm5.78-60,17.32,10L832.3,261.53l-34.64,20Z"/><polygon class="cls-2" points="922.56 15.19 931.34 0 925.56 0 918.9 11.53 884.26 31.54 902.47 0 896.7 0 870.6 45.2 922.56 15.19"/><polygon class="cls-2" points="862.27 0 852.27 0 840.96 6.53 844.73 0 838.96 0 827.3 20.2 862.27 0"/><path class="cls-2" d="M134.48,420.2l52-30,29.94-51.84-26-15Zm75.07-80-26.77,46.35-34.64,20,44.08-76.35Z"/></g></g></svg>