<svg xmlns="http://www.w3.org/2000/svg" viewBox="0 0 1038.48 778.86"><defs><style>.cls-1{fill:none;}.cls-2{fill:lime;}</style></defs><title>Element 50</title><g id="Ebene_2" data-name="Ebene 2"><g id="Ebene_1-2" data-name="Ebene 1"><path class="cls-1" d="M357.82,762.92a25,25,0,0,1-12.31-3.24l-11.08,19.18H381.2l-11.08-19.18A24.85,24.85,0,0,1,357.82,762.92Z"/><path class="cls-1" d="M54.71,763.36h50v15.5H190.1l44.51-77.1,21.65,12.5-28.35,49.1-26.84,15.5H314.56L307.82,775l50-86.61,50,86.61-6.75,3.89h78.48l15.64-27.1,21.66,12.5-8.43,14.6h65.9v-15.5h25v15.5h18.3v-90.5h25v75h43.3v15.49h52.66l8.95-15.5,9,15.5H964V737.92h50v18.3A25,25,0,0,1,1038.48,776V700h-31.15V613.36h31.15v-100H964v-25h18.3a25,25,0,1,1,50,0h6.15v-50H964v-25h18.3a25,25,0,1,1,50,0h6.15v-50H964v-25h18.3a25,25,0,1,1,50,0h6.15V260.85l-2.8,1.62-16-27.79a25,25,0,0,1-24.61,0l-16,27.79L957.33,250l50-86.61,31.15,54v-79h-31.15v-25h18.31a25,25,0,0,1,12.84-21.84V38.36H964v-25h74.45V0h-110l-7.72,13.36-43.3,25L899.58,0H857.27L834.13,13.36,841.85,0H778.74a25,25,0,0,1-24.51,20.06v18.3h-50V0h-12.1a25,25,0,0,1-24.51,20.06v18.3h-50V0H480l14.42,25-21.65,12.5-16-27.79a24.85,24.85,0,0,1-12.3,3.24,25,25,0,0,1-12.31-3.24l-16,27.79L394.42,25,408.83,0H380L357.81,38.36l-43.3,25L351.1,0H322.23l-7.72,13.36-43.3,25L293.36,0H227.91V13.36h-86.6V0H0V166.12a25,25,0,0,1,36.41,22.24h18.3v25H0v25H11.41v25H0v300H11.41v25H0v69.76l11.41-19.76,50,86.61-21.66,12.5-16-27.79A24.93,24.93,0,0,1,0,710.15v68.71H54.71Zm129.9-25H98v-25h86.6Zm0-50H98v-25h86.6Zm-86.6-50,50-86.6,21.65,12.5-28.35,49.1Zm86.6-175H98v-25h86.6Zm0-75-43.3,25,50-86.6L213,339.26Zm129.9-175v25h-86.6v-25Zm-86.6-25v-25h86.6v25Zm0,75v25h-86.6v-25Zm75,206.7a25,25,0,0,1-25,25v18.3h-50v-86.6h50v18.3A25,25,0,0,1,302.91,470.06Zm-75,68.3h86.6v25h-86.6Zm86.6,125h-86.6v-25h18.3a25,25,0,0,1,50,0h18.3Zm86.6-50-43.29,25,50-86.6,21.66,12.5ZM531,713.36h-86.6v-25H531Zm-86.6-100v-25H531v25Zm86.6,50h-86.6v-25H531Zm28.35-125.89-16-27.79a25,25,0,0,1-24.6,0l-16.05,27.79L481,525l50-86.61L581,525ZM432.82,181.67a25,25,0,0,1-25,25V225h-50V138.36h50v18.31A25,25,0,0,1,432.82,181.67Zm-31.7,106.69h86.6v25h-86.6Zm129.9,50-43.3,25,50-86.6,21.65,12.5Zm43.3,25a25,25,0,0,1,25,25h18.3v25H531v-25h18.3A25,25,0,0,1,574.32,363.36Zm50,268.31V650h-50V563.36h50v18.31a25,25,0,0,1,0,50Zm-6.7-93.31,50-86.6,21.65,12.5-28.35,49.1Zm43.3,50v-25h86.61v25Zm173.21-225v-25h86.6v25Zm71.65,75.9-28.35,49.1-43.3,25,50-86.6Zm-71.65-175.9-43.3,25,50-86.6,21.65,12.5Zm-18.3,75v75h43.3v25h-68.3v-100Zm-25,149.11v25h-86.6v-25Zm-36.6,219.2V725h-50V638.36h50v18.31a25,25,0,0,1,0,50Zm36.6-143.31h18.3a25,25,0,0,1,50,0h18.3v25h-86.6Zm0,50h86.6v25h-86.6Zm136.6-11.6,21.65,12.5-28.35,49.1-43.3,25Zm-6.7,161.6h-86.6v-25h18.3a25,25,0,0,1,50,0h18.3Zm43.3-75-43.3,25,50-86.6,21.65,12.5Zm25-150v25h-68.3v-100h25v75Zm-18.3-461.6,21.65,12.5L964,138.36l-43.3,25Zm0,223.21-21.65,12.5L933,284.68a25,25,0,0,1-24.6,0l-16,27.79L870.73,300l50-86.61ZM834.13,76.76h50v18.3a25,25,0,0,1,0,50v18.3h-50Zm-18.3,136.6h-68.3v-100h25v75h43.3Zm-111.6-150h86.6v25h-86.6Zm-43.31,50h25v75h43.3v25H660.92Zm0,125h86.61v25H660.92Zm0,50h86.61v25H660.92Zm43.31,50,50,86.61-21.66,12.5-16-27.79a25,25,0,0,1-24.61,0l-16,27.79L654.23,425ZM646,239.26l-28.35,49.1-43.3,25,50-86.6Zm-28.35-75.9v25H531v-25h18.3a25,25,0,0,1,50,0Zm-15-99.1-28.35,49.1-43.3,25,50-86.6Zm-64.95-37.5,21.65,12.5L531,88.36l-43.3,25Zm-50,136.6,50,86.61-21.65,12.5L500,234.68a25,25,0,0,1-24.61,0l-16,27.79L437.72,250Zm-129.9-75h86.6v25h-86.6Zm0,200h25v75h43.3v25h-68.3Zm0,175h18.3a25,25,0,0,1,50,0h18.3v25h-86.6Zm6.69,63.4,21.66,12.5-28.36,49.1-43.3,25Zm-25-163.4v25h-68.3v-100h25v75Zm-25-250v25h-86.6v-25Zm-173.2-50h18.3a25,25,0,0,1,50,0h18.3v25h-86.6Zm50,136.61-21.65,12.5-16-27.79a25,25,0,0,1-24.61,0l-16,27.79L91.31,200l50-86.61ZM42.4,84.68l-16,27.79L4.71,100l50-86.61,50,86.61-21.65,12.5L67,84.68a25,25,0,0,1-24.61,0Zm19,167.08,21.65,12.5L54.7,313.36l-43.29,25Zm-50,136.6h18.3a25,25,0,0,1,50,0H98v25H11.41Zm0,50h50v18.31a25,25,0,1,1,0,50V525h-50Zm43.3,175,50-86.6,21.65,12.5L98,588.36Z"/><path class="cls-2" d="M98,388.36H79.71a25,25,0,0,0-50,0H11.41v25H98Z"/><path class="cls-2" d="M271.21,613.36a25,25,0,0,0-25,25h-18.3v25h86.6v-25h-18.3A25,25,0,0,0,271.21,613.36Z"/><path class="cls-2" d="M444.42,463.36h-18.3a25,25,0,0,0-50,0h-18.3v25h86.6Z"/><path class="cls-2" d="M531,388.36v25h86.6v-25h-18.3a25,25,0,0,0-50,0Z"/><path class="cls-2" d="M574.32,138.37a25,25,0,0,0-25,25H531v25h86.6v-25h-18.3A25,25,0,0,0,574.32,138.37Z"/><path class="cls-2" d="M227.91,63.36h-18.3a25,25,0,0,0-50,0h-18.3v25h86.6Z"/><path class="cls-2" d="M54.71,188.36H36.41A25,25,0,0,0,0,166.12v47.24H54.71Z"/><rect class="cls-2" x="141.31" width="86.6" height="13.36"/><path class="cls-2" d="M877.43,563.36h-18.3a25,25,0,0,0-50,0h-18.3v25h86.6Z"/><path class="cls-2" d="M877.43,713.36a25,25,0,0,0-25,25h-18.3v25h86.6v-25h-18.3A25,25,0,0,0,877.43,713.36Z"/><path class="cls-2" d="M1007.33,313.36a25,25,0,0,0-25,25H964v25h74.45v-25h-6.15A25,25,0,0,0,1007.33,313.36Z"/><path class="cls-2" d="M1025.64,113.36h-18.31v25h31.15V91.52A25,25,0,0,0,1025.64,113.36Z"/><path class="cls-2" d="M1007.33,388.36a25,25,0,0,0-25,25H964v25h74.45v-25h-6.15A25,25,0,0,0,1007.33,388.36Z"/><path class="cls-2" d="M1007.33,463.36a25,25,0,0,0-25,25H964v25h74.45v-25h-6.15A25,25,0,0,0,1007.33,463.36Z"/><polygon class="cls-2" points="296.21 288.36 271.21 288.36 271.21 388.36 339.51 388.36 339.51 363.37 296.21 363.37 296.21 288.36"/><polygon class="cls-2" points="426.12 363.37 382.82 363.37 382.82 288.37 357.81 288.37 357.81 388.37 426.12 388.37 426.12 363.37"/><polygon class="cls-2" points="729.23 188.37 685.92 188.37 685.92 113.36 660.92 113.36 660.92 213.36 729.23 213.36 729.23 188.37"/><polygon class="cls-2" points="772.53 113.36 747.53 113.36 747.53 213.37 815.83 213.37 815.83 188.37 772.53 188.37 772.53 113.36"/><polygon class="cls-2" points="642.62 763.37 642.62 688.36 617.62 688.36 617.62 778.86 685.92 778.86 685.92 763.37 642.62 763.37"/><rect class="cls-2" x="574.32" y="763.36" width="25" height="15.5"/><polygon class="cls-2" points="790.83 438.37 859.13 438.37 859.13 413.37 815.83 413.37 815.83 338.36 790.83 338.36 790.83 438.37"/><polygon class="cls-2" points="945.73 463.36 920.73 463.36 920.73 563.36 989.03 563.36 989.03 538.37 945.73 538.37 945.73 463.36"/><rect class="cls-2" x="141.31" y="263.36" width="86.6" height="25"/><rect class="cls-2" y="238.36" width="11.41" height="25"/><rect class="cls-2" x="98.01" y="663.36" width="86.6" height="25"/><rect class="cls-2" y="563.36" width="11.41" height="25"/><rect class="cls-2" x="227.91" y="538.36" width="86.6" height="25"/><rect class="cls-2" x="98.01" y="438.36" width="86.6" height="25"/><rect class="cls-2" x="98.01" y="713.36" width="86.6" height="25"/><rect class="cls-2" x="227.91" y="113.36" width="86.6" height="25"/><rect class="cls-2" x="660.92" y="238.36" width="86.6" height="25"/><rect class="cls-2" x="704.23" y="63.36" width="86.6" height="25"/><rect class="cls-2" x="660.92" y="288.36" width="86.6" height="25"/><rect class="cls-2" x="964.03" y="13.36" width="74.45" height="25"/><rect class="cls-2" x="834.13" y="338.36" width="86.6" height="25"/><rect class="cls-2" x="660.92" y="563.36" width="86.6" height="25"/><rect class="cls-2" x="790.83" y="613.36" width="86.6" height="25"/><rect class="cls-2" x="704.23" y="487.47" width="86.6" height="25"/><rect class="cls-2" x="444.42" y="588.36" width="86.6" height="25"/><rect class="cls-2" x="444.42" y="638.36" width="86.6" height="25"/><rect class="cls-2" x="444.42" y="688.36" width="86.6" height="25"/><rect class="cls-2" x="227.91" y="163.36" width="86.6" height="25"/><rect class="cls-2" x="357.82" y="88.36" width="86.6" height="25"/><rect class="cls-2" x="401.12" y="288.36" width="86.6" height="25"/><rect class="cls-2" x="227.91" y="213.36" width="86.6" height="25"/><path class="cls-2" d="M357.82,138.36V225h50v-18.3a25,25,0,0,0,0-50V138.36Z"/><path class="cls-2" d="M227.91,426.76v86.6h50v-18.3a25,25,0,0,0,0-50v-18.3Z"/><path class="cls-2" d="M61.41,506.67a25,25,0,1,0,0-50V438.36h-50V525h50Z"/><path class="cls-2" d="M884.13,145.06a25,25,0,0,0,0-50V76.76h-50v86.6h50Z"/><path class="cls-2" d="M624.32,581.67V563.36h-50V650h50v-18.3a25,25,0,0,0,0-50Z"/><path class="cls-2" d="M1014,756.22v-18.3H964v40.94h74.45V776A25,25,0,0,0,1014,756.22Z"/><rect class="cls-2" x="54.71" y="763.36" width="50" height="15.5"/><rect class="cls-2" x="1007.33" y="613.36" width="31.15" height="86.6"/><path class="cls-2" d="M754.23,656.67V638.36h-50V725h50v-18.3a25,25,0,0,0,0-50Z"/><path class="cls-2" d="M754.23,38.36V20.06A25,25,0,0,0,778.74,0H704.23V38.36Z"/><path class="cls-2" d="M667.62,38.36V20.06A25,25,0,0,0,692.13,0H617.62V38.36Z"/><polygon class="cls-2" points="738.58 778.86 756.48 778.86 747.53 763.36 738.58 778.86"/><path class="cls-2" d="M23.71,709.68l16,27.79L61.41,725l-50-86.61L0,658.12v52a24.93,24.93,0,0,0,23.71-.47Z"/><path class="cls-2" d="M67,84.68l16,27.79L104.71,100l-50-86.61L4.71,100l21.65,12.5,16-27.79a25,25,0,0,0,24.61,0Z"/><path class="cls-2" d="M113,212.47l16-27.79a25,25,0,0,0,24.61,0l16,27.79L191.31,200l-50-86.61L91.31,200Z"/><path class="cls-2" d="M531,438.36,481,525l21.65,12.5,16.05-27.79a25,25,0,0,0,24.6,0l16,27.79L581,525Z"/><path class="cls-2" d="M691.92,409.68a25,25,0,0,0,24.61,0l16,27.79L754.23,425l-50-86.61-50,86.61,21.65,12.5Z"/><path class="cls-2" d="M459.37,262.47l16-27.79a25,25,0,0,0,24.61,0l16.05,27.79L537.72,250l-50-86.61-50,86.61Z"/><path class="cls-2" d="M892.38,312.47l16-27.79a25,25,0,0,0,24.6,0l16.05,27.79L970.73,300l-50-86.61-50,86.61Z"/><path class="cls-2" d="M957.33,250,979,262.47l16-27.79a25,25,0,0,0,24.61,0l16,27.79,2.8-1.62V217.32l-31.15-54Z"/><path class="cls-2" d="M416.07,37.47l16-27.79a25,25,0,0,0,12.31,3.24,24.85,24.85,0,0,0,12.3-3.24l16,27.79L494.42,25,480,0H408.83L394.42,25Z"/><path class="cls-2" d="M357.82,688.36l-50,86.61,6.74,3.89h19.87l11.08-19.18a25,25,0,0,0,24.61,0l11.08,19.18h19.87l6.75-3.89Z"/><polygon class="cls-2" points="83.06 264.26 61.41 251.76 11.4 338.37 54.7 313.36 83.06 264.26"/><polygon class="cls-2" points="487.72 363.37 531.02 338.36 559.37 289.26 537.72 276.76 487.72 363.37"/><polygon class="cls-2" points="617.62 288.36 645.97 239.26 624.32 226.76 574.32 313.36 617.62 288.36"/><polygon class="cls-2" points="877.43 488.36 905.78 439.26 884.13 426.76 834.13 513.36 877.43 488.36"/><polygon class="cls-2" points="667.62 451.76 617.62 538.36 660.92 513.36 689.27 464.26 667.62 451.76"/><polygon class="cls-2" points="256.26 714.26 234.61 701.76 190.1 778.86 201.07 778.86 227.91 763.36 256.26 714.26"/><polygon class="cls-2" points="495.19 751.76 479.55 778.86 508.42 778.86 516.85 764.26 495.19 751.76"/><polygon class="cls-2" points="574.32 113.36 602.67 64.26 581.02 51.76 531.02 138.36 574.32 113.36"/><polygon class="cls-2" points="559.37 39.26 537.72 26.76 487.72 113.37 531.02 88.36 559.37 39.26"/><polygon class="cls-2" points="148.01 551.76 98.01 638.37 141.31 613.36 169.66 564.26 148.01 551.76"/><polygon class="cls-2" points="920.73 713.36 964.03 688.36 992.38 639.26 970.73 626.76 920.73 713.36"/><polygon class="cls-2" points="920.73 663.36 949.08 614.26 927.43 601.76 877.43 688.36 920.73 663.36"/><polygon class="cls-2" points="126.36 539.26 104.71 526.76 54.71 613.37 98 588.36 126.36 539.26"/><polygon class="cls-2" points="357.81 638.37 401.11 613.36 429.47 564.26 407.81 551.76 357.81 638.37"/><polygon class="cls-2" points="357.81 588.36 386.17 539.26 364.51 526.76 314.51 613.37 357.81 588.36"/><polygon class="cls-2" points="357.81 38.36 379.96 0 351.1 0 314.51 63.37 357.81 38.36"/><polygon class="cls-2" points="314.51 13.36 322.23 0 293.36 0 271.21 38.37 314.51 13.36"/><polygon class="cls-2" points="992.38 89.26 970.73 76.76 920.73 163.36 964.03 138.36 992.38 89.26"/><polygon class="cls-2" points="790.83 288.36 834.13 263.36 862.48 214.26 840.83 201.76 790.83 288.36"/><polygon class="cls-2" points="920.73 13.36 928.45 0 899.58 0 877.43 38.37 920.73 13.36"/><polygon class="cls-2" points="857.27 0 841.85 0 834.13 13.36 857.27 0"/><polygon class="cls-2" points="141.31 413.37 184.61 388.36 212.96 339.26 191.31 326.76 141.31 413.37"/></g></g></svg>