<svg xmlns="http://www.w3.org/2000/svg" viewBox="0 0 1038.48 778.86"><defs><style>.cls-1{fill:none;}.cls-2{fill:lime;}</style></defs><title>Element 28</title><g id="Ebene_2" data-name="Ebene 2"><g id="Ebene_1-2" data-name="Ebene 1"><circle class="cls-1" cx="331.02" cy="194.86" r="10"/><circle class="cls-1" cx="331.02" cy="324.76" r="10"/><circle class="cls-1" cx="331.02" cy="454.66" r="20"/><circle class="cls-1" cx="368.52" cy="389.71" r="25"/><circle class="cls-1" cx="368.52" cy="259.81" r="2.5"/><circle class="cls-1" cx="368.52" cy="519.62" r="20"/><circle class="cls-1" cx="331.02" cy="584.57" r="2.5"/><circle class="cls-1" cx="181.02" cy="714.47" r="25"/><circle class="cls-1" cx="331.02" cy="714.47" r="10"/><circle class="cls-1" cx="368.52" cy="649.52" r="20"/><circle class="cls-1" cx="256.02" cy="584.57" r="20"/><circle class="cls-1" cx="218.52" cy="649.52" r="15"/><circle class="cls-1" cx="293.52" cy="649.52" r="25"/><circle class="cls-1" cx="256.02" cy="714.47" r="10"/><circle class="cls-1" cx="181.02" cy="454.66" r="2.5"/><circle class="cls-1" cx="481.02" cy="324.76" r="10"/><circle class="cls-1" cx="406.02" cy="714.47" r="25"/><circle class="cls-1" cx="481.02" cy="584.57" r="20"/><circle class="cls-1" cx="518.52" cy="259.81" r="20"/><circle class="cls-1" cx="481.02" cy="454.66" r="2.5"/><circle class="cls-1" cx="481.02" cy="714.47" r="2.5"/><circle class="cls-1" cx="481.02" cy="194.86" r="2.5"/><circle class="cls-1" cx="406.02" cy="454.66" r="10"/><circle class="cls-1" cx="443.52" cy="519.62" r="15"/><circle class="cls-1" cx="443.52" cy="389.71" r="25"/><circle class="cls-1" cx="406.02" cy="584.57" r="25"/><circle class="cls-1" cx="443.52" cy="259.81" r="15"/><circle class="cls-1" cx="443.52" cy="649.52" r="10"/><circle class="cls-1" cx="106.02" cy="324.76" r="10"/><circle class="cls-1" cx="68.52" cy="519.62" r="10"/><circle class="cls-1" cx="68.52" cy="649.52" r="10"/><circle class="cls-1" cx="68.52" cy="389.71" r="25"/><circle class="cls-1" cx="518.52" cy="389.71" r="10"/><circle class="cls-1" cx="106.02" cy="194.86" r="10"/><circle class="cls-1" cx="31.02" cy="454.66" r="15"/><circle class="cls-1" cx="106.02" cy="454.66" r="25"/><circle class="cls-1" cx="31.02" cy="194.86" r="2.5"/><circle class="cls-1" cx="31.02" cy="324.76" r="20"/><circle class="cls-1" cx="143.52" cy="519.62" r="15"/><circle class="cls-1" cx="31.02" cy="714.47" r="15"/><circle class="cls-1" cx="68.52" cy="259.81" r="25"/><circle class="cls-1" cx="31.02" cy="584.57" r="2.5"/><circle class="cls-1" cx="143.52" cy="389.71" r="10"/><circle class="cls-1" cx="256.02" cy="454.66" r="10"/><circle class="cls-1" cx="256.02" cy="324.76" r="20"/><circle class="cls-1" cx="218.52" cy="389.71" r="25"/><circle class="cls-1" cx="218.52" cy="519.62" r="25"/><circle class="cls-1" cx="181.02" cy="324.76" r="15"/><circle class="cls-1" cx="293.52" cy="259.81" r="20"/><circle class="cls-1" cx="143.52" cy="649.52" r="25"/><circle class="cls-1" cx="106.02" cy="584.57" r="20"/><circle class="cls-1" cx="106.02" cy="714.47" r="15"/><circle class="cls-1" cx="143.52" cy="259.81" r="20"/><circle class="cls-1" cx="293.52" cy="389.71" r="15"/><circle class="cls-1" cx="293.52" cy="519.62" r="2.5"/><circle class="cls-1" cx="181.02" cy="584.57" r="10"/><circle class="cls-1" cx="68.52" cy="129.9" r="20"/><circle class="cls-1" cx="706.02" cy="64.95" r="15"/><circle class="cls-1" cx="668.52" cy="129.9" r="2.5"/><circle class="cls-1" cx="743.52" cy="129.9" r="25"/><circle class="cls-1" cx="818.52" cy="259.81" r="15"/><circle class="cls-1" cx="781.02" cy="64.95" r="25"/><circle class="cls-1" cx="668.52" cy="259.81" r="25"/><circle class="cls-1" cx="593.52" cy="389.71" r="20"/><circle class="cls-1" cx="818.52" cy="129.9" r="10"/><circle class="cls-1" cx="631.02" cy="324.76" r="15"/><circle class="cls-1" cx="631.02" cy="194.86" r="15"/><circle class="cls-1" cx="631.02" cy="64.95" r="15"/><circle class="cls-1" cx="856.02" cy="194.86" r="20"/><circle class="cls-1" cx="968.52" cy="389.71" r="15"/><circle class="cls-1" cx="968.52" cy="259.81" r="10"/><circle class="cls-1" cx="968.52" cy="129.9" r="15"/><circle class="cls-1" cx="931.02" cy="194.86" r="20"/><circle class="cls-1" cx="1006.02" cy="64.95" r="20"/><circle class="cls-1" cx="856.02" cy="64.95" r="10"/><circle class="cls-1" cx="593.52" cy="129.9" r="10"/><circle class="cls-1" cx="818.52" cy="519.62" r="25"/><circle class="cls-1" cx="893.52" cy="129.9" r="25"/><circle class="cls-1" cx="818.52" cy="389.71" r="2.5"/><circle class="cls-1" cx="931.02" cy="64.95" r="10"/><circle class="cls-1" cx="256.02" cy="194.86" r="25"/><circle class="cls-1" cx="218.52" cy="259.81" r="10"/><circle class="cls-1" cx="218.52" cy="129.9" r="2.5"/><circle class="cls-1" cx="256.02" cy="64.95" r="2.5"/><circle class="cls-1" cx="1006.02" cy="194.86" r="25"/><circle class="cls-1" cx="181.02" cy="194.86" r="25"/><circle class="cls-1" cx="143.52" cy="129.9" r="20"/><circle class="cls-1" cx="31.02" cy="64.95" r="15"/><circle class="cls-1" cx="181.02" cy="64.95" r="10"/><circle class="cls-1" cx="106.02" cy="64.95" r="25"/><circle class="cls-1" cx="293.52" cy="129.9" r="15"/><circle class="cls-1" cx="481.02" cy="64.95" r="25"/><circle class="cls-1" cx="518.52" cy="129.9" r="20"/><circle class="cls-1" cx="331.02" cy="64.95" r="25"/><circle class="cls-1" cx="443.52" cy="129.9" r="20"/><circle class="cls-1" cx="556.02" cy="194.86" r="25"/><circle class="cls-1" cx="556.02" cy="64.95" r="20"/><circle class="cls-1" cx="593.52" cy="259.81" r="10"/><circle class="cls-1" cx="406.02" cy="324.76" r="20"/><circle class="cls-1" cx="406.02" cy="194.86" r="10"/><circle class="cls-1" cx="518.52" cy="649.52" r="2.5"/><circle class="cls-1" cx="406.02" cy="64.95" r="10"/><circle class="cls-1" cx="368.52" cy="129.9" r="25"/><circle class="cls-1" cx="668.52" cy="649.52" r="10"/><circle class="cls-1" cx="781.02" cy="454.66" r="2.5"/><circle class="cls-1" cx="518.52" cy="519.62" r="15"/><circle class="cls-1" cx="706.02" cy="714.47" r="25"/><circle class="cls-1" cx="556.02" cy="324.76" r="2.5"/><circle class="cls-1" cx="631.02" cy="584.57" r="2.5"/><circle class="cls-1" cx="668.52" cy="519.62" r="20"/><circle class="cls-1" cx="781.02" cy="324.76" r="25"/><circle class="cls-1" cx="781.02" cy="194.86" r="25"/><circle class="cls-1" cx="743.52" cy="259.81" r="2.5"/><circle class="cls-1" cx="743.52" cy="519.62" r="10"/><circle class="cls-1" cx="743.52" cy="389.71" r="10"/><circle class="cls-1" cx="743.52" cy="649.52" r="25"/><circle class="cls-1" cx="668.52" cy="389.71" r="20"/><circle class="cls-1" cx="593.52" cy="519.62" r="10"/><circle class="cls-1" cx="706.02" cy="194.86" r="10"/><circle class="cls-1" cx="706.02" cy="324.76" r="15"/><circle class="cls-1" cx="556.02" cy="584.57" r="10"/><circle class="cls-1" cx="593.52" cy="649.52" r="15"/><circle class="cls-1" cx="706.02" cy="454.66" r="15"/><circle class="cls-1" cx="631.02" cy="454.66" r="25"/><circle class="cls-1" cx="1006.02" cy="324.76" r="25"/><circle class="cls-1" cx="556.02" cy="714.47" r="20"/><circle class="cls-1" cx="556.02" cy="454.66" r="2.5"/><circle class="cls-1" cx="706.02" cy="584.57" r="25"/><circle class="cls-1" cx="631.02" cy="714.47" r="20"/><circle class="cls-1" cx="893.52" cy="389.71" r="20"/><circle class="cls-1" cx="968.52" cy="519.62" r="15"/><circle class="cls-1" cx="968.52" cy="649.52" r="10"/><circle class="cls-1" cx="893.52" cy="259.81" r="10"/><circle class="cls-1" cx="893.52" cy="649.52" r="25"/><circle class="cls-1" cx="1006.02" cy="714.47" r="15"/><circle class="cls-1" cx="931.02" cy="454.66" r="25"/><circle class="cls-1" cx="931.02" cy="584.57" r="10"/><circle class="cls-1" cx="931.02" cy="324.76" r="20"/><circle class="cls-1" cx="781.02" cy="714.47" r="2.5"/><circle class="cls-1" cx="1006.02" cy="584.57" r="25"/><circle class="cls-1" cx="931.02" cy="714.47" r="20"/><circle class="cls-1" cx="893.52" cy="519.62" r="20"/><circle class="cls-1" cx="781.02" cy="584.57" r="15"/><circle class="cls-1" cx="856.02" cy="324.76" r="10"/><circle class="cls-1" cx="856.02" cy="454.66" r="10"/><circle class="cls-1" cx="1006.02" cy="454.66" r="10"/><circle class="cls-1" cx="818.52" cy="649.52" r="15"/><circle class="cls-1" cx="856.02" cy="714.47" r="2.5"/><circle class="cls-1" cx="856.02" cy="584.57" r="10"/><path class="cls-2" d="M0,18.91v86.85A25,25,0,0,1,18.52,129.9,25,25,0,0,1,0,154.05V252.2a10,10,0,0,1,3.52,7.61A10,10,0,0,1,0,267.42V370.81a20,20,0,0,1,13.52,18.9A20,20,0,0,1,0,408.62V512a10,10,0,0,1,3.52,7.61A10,10,0,0,1,0,527.22v98.15a25,25,0,0,1,18.52,24.15A25,25,0,0,1,0,673.67V778.86H48.55a20,20,0,0,1,39.94,0h35.06a20,20,0,0,1,39.94,0h52.6a2.49,2.49,0,0,1,4.86,0h70.14a2.49,2.49,0,0,1,4.86,0h57.6a15,15,0,0,1,29.94,0h40.06a20,20,0,0,1,39.94,0h45.06a10,10,0,0,1,19.94,0h40a25,25,0,0,1,50,0h47.58a2.49,2.49,0,0,1,4.86,0h57.6a15,15,0,0,1,29.94,0h50.06a10,10,0,0,1,19.94,0h45.06a20,20,0,0,1,39.94,0h40.06a15,15,0,0,1,29.94,0h35a25,25,0,0,1,20-24.38v-216a20,20,0,0,1,0-38.67V403.38a15,15,0,0,1,0-28.23V278.69a20,20,0,0,1,0-38.67V18.89A20,20,0,0,1,1023.54,0h-30a25,25,0,0,1-50,0H896a2.5,2.5,0,0,1-2.5,2.5A2.5,2.5,0,0,1,891,0h-57.5a15,15,0,0,1-15,15,15,15,0,0,1-15-15h-50a10,10,0,0,1-10,10,10,10,0,0,1-10-10h-40a25,25,0,0,1-50,0h-40a10,10,0,0,1-10,10,10,10,0,0,1-10-10h-55a10,10,0,0,1-10,10,10,10,0,0,1-10-10h-50a15,15,0,0,1-15,15,15,15,0,0,1-15-15h-45a15,15,0,0,1-15,15,15,15,0,0,1-15-15h-40a20,20,0,0,1-20,20,20,20,0,0,1-20-20h-30a25,25,0,0,1-50,0h-40a10,10,0,0,1-10,10,10,10,0,0,1-10-10h-50a15,15,0,0,1-15,15,15,15,0,0,1-15-15h-40A20,20,0,0,1,0,18.91ZM11,324.76a20,20,0,1,1,20,20A20,20,0,0,1,11,324.76Zm17.5-129.9a2.5,2.5,0,1,1,2.5,2.5A2.49,2.49,0,0,1,28.52,194.86Zm15,64.95a25,25,0,1,1,25,25A25,25,0,0,1,43.52,259.81ZM31,729.47a15,15,0,1,1,15-15A15,15,0,0,1,31,729.47Zm-2.5-144.9a2.5,2.5,0,1,1,2.5,2.5A2.5,2.5,0,0,1,28.52,584.57ZM31,469.66a15,15,0,1,1,15-15A15,15,0,0,1,31,469.66Zm12.5-80a25,25,0,1,1,25,25A25,25,0,0,1,43.52,389.71Zm25,269.81a10,10,0,1,1,10-10A10,10,0,0,1,68.52,659.52Zm0-129.9a10,10,0,1,1,10-10A10,10,0,0,1,68.52,529.62Zm12.5-75a25,25,0,1,1,25,25A25,25,0,0,1,81,454.66Zm25-139.9a10,10,0,1,1-10,10A10,10,0,0,1,106,314.76ZM96,194.86a10,10,0,1,1,10,10A10,10,0,0,1,96,194.86Zm47.5,309.76a15,15,0,1,1-15,15A15,15,0,0,1,143.52,504.62Zm-10-114.91a10,10,0,1,1,10,10A10,10,0,0,1,133.52,389.71Zm10-109.9a20,20,0,1,1,20-20A20,20,0,0,1,143.52,279.81ZM106,564.57a20,20,0,1,1-20,20A20,20,0,0,1,106,564.57Zm0,164.9a15,15,0,1,1,15-15A15,15,0,0,1,106,729.47Zm12.5-80a25,25,0,1,1,25,25A25,25,0,0,1,118.52,649.52Zm175-244.81a15,15,0,1,1,15-15A15,15,0,0,1,293.52,404.71ZM296,519.62a2.5,2.5,0,1,1-2.5-2.5A2.5,2.5,0,0,1,296,519.62Zm-2.5-239.81a20,20,0,1,1,20-20A20,20,0,0,1,293.52,279.81ZM276,324.76a20,20,0,1,1-20-20A20,20,0,0,1,276,324.76Zm-10,129.9a10,10,0,1,1-10-10A10,10,0,0,1,266,454.66Zm-22.5-65a25,25,0,1,1-25-25A25,25,0,0,1,243.52,389.71Zm0,129.91a25,25,0,1,1-25-25A25,25,0,0,1,243.52,519.62ZM181,339.76a15,15,0,1,1,15-15A15,15,0,0,1,181,339.76Zm0,234.81a10,10,0,1,1-10,10A10,10,0,0,1,181,574.57Zm-2.5-119.91a2.5,2.5,0,1,1,2.5,2.5A2.5,2.5,0,0,1,178.52,454.66ZM181,739.47a25,25,0,1,1,25-25A25,25,0,0,1,181,739.47Zm37.5-75a15,15,0,1,1,15-15A15,15,0,0,1,218.52,664.52ZM236,584.57a20,20,0,1,1,20,20A20,20,0,0,1,236,584.57Zm20,139.9a10,10,0,1,1,10-10A10,10,0,0,1,256,724.47Zm37.5-50a25,25,0,1,1,25-25A25,25,0,0,1,293.52,674.52Zm37.5,50a10,10,0,1,1,10-10A10,10,0,0,1,331,724.47Zm-2.5-139.9a2.5,2.5,0,1,1,2.5,2.5A2.5,2.5,0,0,1,328.52,584.57ZM331,474.66a20,20,0,1,1,20-20A20,20,0,0,1,331,474.66Zm0-159.9a10,10,0,1,1-10,10A10,10,0,0,1,331,314.76Zm-10-119.9a10,10,0,1,1,10,10A10,10,0,0,1,321,194.86Zm47.5,169.85a25,25,0,1,1-25,25A25,25,0,0,1,368.52,364.71ZM366,259.81a2.5,2.5,0,1,1,2.5,2.5A2.5,2.5,0,0,1,366,259.81Zm22.5,259.81a20,20,0,1,1-20-20A20,20,0,0,1,388.52,519.62Zm-20,149.9a20,20,0,1,1,20-20A20,20,0,0,1,368.52,669.52Zm37.5,70a25,25,0,1,1,25-25A25,25,0,0,1,406,739.47Zm0-129.9a25,25,0,1,1,25-25A25,25,0,0,1,406,609.57ZM396,454.66a10,10,0,1,1,10,10A10,10,0,0,1,396,454.66Zm47.5-90a25,25,0,1,1-25,25A25,25,0,0,1,443.52,364.71Zm-15-104.9a15,15,0,1,1,15,15A15,15,0,0,1,428.52,259.81Zm15,399.71a10,10,0,1,1,10-10A10,10,0,0,1,443.52,659.52Zm0-124.9a15,15,0,1,1,15-15A15,15,0,0,1,443.52,534.62ZM481,717a2.5,2.5,0,1,1,2.5-2.5A2.5,2.5,0,0,1,481,717Zm0-112.4a20,20,0,1,1,20-20A20,20,0,0,1,481,604.57Zm0-289.81a10,10,0,1,1-10,10A10,10,0,0,1,481,314.76Zm-2.5-119.9a2.5,2.5,0,1,1,2.5,2.5A2.49,2.49,0,0,1,478.52,194.86Zm5,259.8a2.5,2.5,0,1,1-2.5-2.5A2.5,2.5,0,0,1,483.52,454.66Zm35-174.85a20,20,0,1,1,20-20A20,20,0,0,1,518.52,279.81Zm10,109.9a10,10,0,1,1-10-10A10,10,0,0,1,528.52,389.71ZM518.52,652a2.5,2.5,0,1,1,2.5-2.5A2.5,2.5,0,0,1,518.52,652Zm0-117.4a15,15,0,1,1,15-15A15,15,0,0,1,518.52,534.62ZM556,734.47a20,20,0,1,1,20-20A20,20,0,0,1,556,734.47Zm0-282.31a2.5,2.5,0,1,1-2.5,2.5A2.5,2.5,0,0,1,556,452.16Zm-2.5-127.4a2.5,2.5,0,1,1,2.5,2.5A2.5,2.5,0,0,1,553.52,324.76ZM556,574.57a10,10,0,1,1-10,10A10,10,0,0,1,556,574.57Zm37.5,89.95a15,15,0,1,1,15-15A15,15,0,0,1,593.52,664.52Zm-10-144.9a10,10,0,1,1,10,10A10,10,0,0,1,583.52,519.62ZM706,309.76a15,15,0,1,1-15,15A15,15,0,0,1,706,309.76Zm-10-114.9a10,10,0,1,1,10,10A10,10,0,0,1,696,194.86Zm10,244.8a15,15,0,1,1-15,15A15,15,0,0,1,706,439.66Zm0,119.91a25,25,0,1,1-25,25A25,25,0,0,1,706,559.57ZM656,454.66a25,25,0,1,1-25-25A25,25,0,0,1,656,454.66Zm-7.5-65a20,20,0,1,1,20,20A20,20,0,0,1,648.52,389.71Zm-15,194.86a2.5,2.5,0,1,1-2.5-2.5A2.5,2.5,0,0,1,633.52,584.57ZM631,734.47a20,20,0,1,1,20-20A20,20,0,0,1,631,734.47Zm17.5-214.85a20,20,0,1,1,20,20A20,20,0,0,1,648.52,519.62Zm20,139.9a10,10,0,1,1,10-10A10,10,0,0,1,668.52,659.52Zm37.5,80a25,25,0,1,1,25-25A25,25,0,0,1,706,739.47Zm37.5-65a25,25,0,1,1,25-25A25,25,0,0,1,743.52,674.52Zm0-294.81a10,10,0,1,1-10,10A10,10,0,0,1,743.52,379.71ZM741,259.81a2.5,2.5,0,1,1,2.5,2.5A2.5,2.5,0,0,1,741,259.81Zm2.5,249.81a10,10,0,1,1-10,10A10,10,0,0,1,743.52,509.62ZM781,299.76a25,25,0,1,1-25,25A25,25,0,0,1,781,299.76Zm-25-104.9a25,25,0,1,1,25,25A25,25,0,0,1,756,194.86Zm27.5,259.8a2.5,2.5,0,1,1-2.5-2.5A2.5,2.5,0,0,1,783.52,454.66ZM781,717a2.5,2.5,0,1,1,2.5-2.5A2.5,2.5,0,0,1,781,717Zm0-117.4a15,15,0,1,1,15-15A15,15,0,0,1,781,599.57Zm37.5,64.95a15,15,0,1,1,15-15A15,15,0,0,1,818.52,664.52ZM856,717a2.5,2.5,0,1,1,2.5-2.5A2.5,2.5,0,0,1,856,717Zm0-122.4a10,10,0,1,1,10-10A10,10,0,0,1,856,594.57Zm0-129.91a10,10,0,1,1,10-10A10,10,0,0,1,856,464.66Zm0-129.9a10,10,0,1,1,10-10A10,10,0,0,1,856,334.76Zm37.5,339.76a25,25,0,1,1,25-25A25,25,0,0,1,893.52,674.52Zm0-304.81a20,20,0,1,1-20,20A20,20,0,0,1,893.52,369.71Zm-10-109.9a10,10,0,1,1,10,10A10,10,0,0,1,883.52,259.81ZM931,479.66a25,25,0,1,1,25-25A25,25,0,0,1,931,479.66Zm10,104.91a10,10,0,1,1-10-10A10,10,0,0,1,941,584.57ZM931,344.76a20,20,0,1,1,20-20A20,20,0,0,1,931,344.76Zm-37.5,154.86a20,20,0,1,1-20,20A20,20,0,0,1,893.52,499.62ZM931,734.47a20,20,0,1,1,20-20A20,20,0,0,1,931,734.47Zm37.5-75a10,10,0,1,1,10-10A10,10,0,0,1,968.52,659.52Zm0-124.9a15,15,0,1,1,15-15A15,15,0,0,1,968.52,534.62ZM1006,729.47a15,15,0,1,1,15-15A15,15,0,0,1,1006,729.47Zm25-144.9a25,25,0,1,1-25-25A25,25,0,0,1,1031,584.57ZM996,454.66a10,10,0,1,1,10,10A10,10,0,0,1,996,454.66Zm35-129.9a25,25,0,1,1-25-25A25,25,0,0,1,1031,324.76Zm0-129.9a25,25,0,1,1-25-25A25,25,0,0,1,1031,194.86ZM1006,45a20,20,0,1,1-20,20A20,20,0,0,1,1006,45Zm-37.5,70a15,15,0,1,1-15,15A15,15,0,0,1,968.52,114.9Zm10,144.91a10,10,0,1,1-10-10A10,10,0,0,1,978.52,259.81Zm-10,114.9a15,15,0,1,1-15,15A15,15,0,0,1,968.52,374.71ZM951,194.86a20,20,0,1,1-20-20A20,20,0,0,1,951,194.86ZM931,55a10,10,0,1,1-10,10A10,10,0,0,1,931,55Zm-37.5,50a25,25,0,1,1-25,25A25,25,0,0,1,893.52,104.9ZM856,55a10,10,0,1,1-10,10A10,10,0,0,1,856,55Zm0,119.91a20,20,0,1,1-20,20A20,20,0,0,1,856,174.86Zm-12.5,344.76a25,25,0,1,1-25-25A25,25,0,0,1,843.52,519.62ZM816,389.71a2.5,2.5,0,1,1,2.5,2.5A2.5,2.5,0,0,1,816,389.71Zm2.5-269.81a10,10,0,1,1-10,10A10,10,0,0,1,818.52,119.9Zm0,124.91a15,15,0,1,1-15,15A15,15,0,0,1,818.52,244.81ZM781,40a25,25,0,1,1-25,25A25,25,0,0,1,781,40Zm-37.5,65a25,25,0,1,1-25,25A25,25,0,0,1,743.52,104.9ZM706,50a15,15,0,1,1-15,15A15,15,0,0,1,706,50Zm-37.5,77.45a2.5,2.5,0,1,1-2.5,2.5A2.5,2.5,0,0,1,668.52,127.4Zm0,107.41a25,25,0,1,1-25,25A25,25,0,0,1,668.52,234.81ZM631,50a15,15,0,1,1-15,15A15,15,0,0,1,631,50Zm0,129.91a15,15,0,1,1-15,15A15,15,0,0,1,631,179.86Zm0,129.9a15,15,0,1,1-15,15A15,15,0,0,1,631,309.76Zm-17.5,79.95a20,20,0,1,1-20-20A20,20,0,0,1,613.52,389.71Zm-20-269.81a10,10,0,1,1-10,10A10,10,0,0,1,593.52,119.9Zm0,129.91a10,10,0,1,1-10,10A10,10,0,0,1,593.52,249.81ZM556,219.86a25,25,0,1,1,25-25A25,25,0,0,1,556,219.86ZM556,45a20,20,0,1,1-20,20A20,20,0,0,1,556,45Zm-37.5,65a20,20,0,1,1-20,20A20,20,0,0,1,518.52,109.9ZM481,40a25,25,0,1,1-25,25A25,25,0,0,1,481,40Zm-37.5,70a20,20,0,1,1-20,20A20,20,0,0,1,443.52,109.9ZM426,324.76a20,20,0,1,1-20-20A20,20,0,0,1,426,324.76ZM406,55a10,10,0,1,1-10,10A10,10,0,0,1,406,55Zm0,129.91a10,10,0,1,1-10,10A10,10,0,0,1,406,184.86Zm-37.5-80a25,25,0,1,1-25,25A25,25,0,0,1,368.52,104.9ZM331,40a25,25,0,1,1-25,25A25,25,0,0,1,331,40Zm-37.5,75a15,15,0,1,1-15,15A15,15,0,0,1,293.52,114.9ZM256,62.45a2.5,2.5,0,1,1-2.5,2.5A2.5,2.5,0,0,1,256,62.45Zm0,107.41a25,25,0,1,1-25,25A25,25,0,0,1,256,169.86Zm-37.5-42.46a2.5,2.5,0,1,1-2.5,2.5A2.5,2.5,0,0,1,218.52,127.4Zm0,122.41a10,10,0,1,1-10,10A10,10,0,0,1,218.52,249.81ZM206,194.86a25,25,0,1,1-25-25A25,25,0,0,1,206,194.86ZM181,55a10,10,0,1,1-10,10A10,10,0,0,1,181,55Zm-37.5,55a20,20,0,1,1-20,20A20,20,0,0,1,143.52,109.9ZM106,40A25,25,0,1,1,81,65,25,25,0,0,1,106,40Zm-37.5,70a20,20,0,1,1-20,20A20,20,0,0,1,68.52,109.9ZM31,50A15,15,0,1,1,16,65,15,15,0,0,1,31,50Z"/></g></g></svg>