<svg xmlns="http://www.w3.org/2000/svg" viewBox="0 0 1038.48 778.86"><defs><style>.cls-1{fill:lime;}</style></defs><title>Element 27</title><g id="Ebene_2" data-name="Ebene 2"><g id="Ebene_1-2" data-name="Ebene 1"><path class="cls-1" d="M0,18.91A20,20,0,0,0,13.52,0H0Z"/><path class="cls-1" d="M68.52,15a15,15,0,0,0,15-15h-30A15,15,0,0,0,68.52,15Z"/><path class="cls-1" d="M143.52,10a10,10,0,0,0,10-10h-20A10,10,0,0,0,143.52,10Z"/><path class="cls-1" d="M218.52,25a25,25,0,0,0,25-25h-50A25,25,0,0,0,218.52,25Z"/><path class="cls-1" d="M293.52,20a20,20,0,0,0,20-20h-40A20,20,0,0,0,293.52,20Z"/><path class="cls-1" d="M368.52,15a15,15,0,0,0,15-15h-30A15,15,0,0,0,368.52,15Z"/><path class="cls-1" d="M443.52,15a15,15,0,0,0,15-15h-30A15,15,0,0,0,443.52,15Z"/><path class="cls-1" d="M518.52,10a10,10,0,0,0,10-10h-20A10,10,0,0,0,518.52,10Z"/><path class="cls-1" d="M593.52,10a10,10,0,0,0,10-10h-20A10,10,0,0,0,593.52,10Z"/><path class="cls-1" d="M668.52,25a25,25,0,0,0,25-25h-50A25,25,0,0,0,668.52,25Z"/><path class="cls-1" d="M743.52,10a10,10,0,0,0,10-10h-20A10,10,0,0,0,743.52,10Z"/><path class="cls-1" d="M818.52,15a15,15,0,0,0,15-15h-30A15,15,0,0,0,818.52,15Z"/><path class="cls-1" d="M893.52,2.5A2.5,2.5,0,0,0,896,0h-5A2.5,2.5,0,0,0,893.52,2.5Z"/><path class="cls-1" d="M968.52,25a25,25,0,0,0,25-25h-50A25,25,0,0,0,968.52,25Z"/><path class="cls-1" d="M1038.48,18.89V0h-14.94A20,20,0,0,0,1038.48,18.89Z"/><circle class="cls-1" cx="31.02" cy="64.95" r="15"/><circle class="cls-1" cx="106.02" cy="64.95" r="25"/><circle class="cls-1" cx="181.02" cy="64.95" r="10"/><circle class="cls-1" cx="256.02" cy="64.95" r="2.5"/><circle class="cls-1" cx="331.02" cy="64.95" r="25"/><circle class="cls-1" cx="406.02" cy="64.95" r="10"/><circle class="cls-1" cx="481.02" cy="64.95" r="25"/><circle class="cls-1" cx="556.02" cy="64.95" r="20"/><circle class="cls-1" cx="631.02" cy="64.95" r="15"/><circle class="cls-1" cx="706.02" cy="64.95" r="15"/><circle class="cls-1" cx="781.02" cy="64.95" r="25"/><circle class="cls-1" cx="856.02" cy="64.95" r="10"/><circle class="cls-1" cx="931.02" cy="64.95" r="10"/><circle class="cls-1" cx="1006.02" cy="64.95" r="20"/><path class="cls-1" d="M0,105.76v48.29A25,25,0,0,0,18.52,129.9,25,25,0,0,0,0,105.76Z"/><circle class="cls-1" cx="68.52" cy="129.9" r="20"/><circle class="cls-1" cx="143.52" cy="129.9" r="20"/><circle class="cls-1" cx="218.52" cy="129.9" r="2.5"/><circle class="cls-1" cx="293.52" cy="129.9" r="15"/><circle class="cls-1" cx="368.52" cy="129.9" r="25"/><circle class="cls-1" cx="443.52" cy="129.9" r="20"/><circle class="cls-1" cx="518.52" cy="129.9" r="20"/><circle class="cls-1" cx="593.52" cy="129.9" r="10"/><circle class="cls-1" cx="668.52" cy="129.9" r="2.5"/><circle class="cls-1" cx="743.52" cy="129.9" r="25"/><circle class="cls-1" cx="818.52" cy="129.9" r="10"/><circle class="cls-1" cx="893.52" cy="129.9" r="25"/><circle class="cls-1" cx="968.52" cy="129.9" r="15"/><circle class="cls-1" cx="31.02" cy="194.86" r="2.5"/><circle class="cls-1" cx="106.02" cy="194.86" r="10"/><circle class="cls-1" cx="181.02" cy="194.86" r="25"/><circle class="cls-1" cx="256.02" cy="194.86" r="25"/><circle class="cls-1" cx="331.02" cy="194.86" r="10"/><circle class="cls-1" cx="406.02" cy="194.86" r="10"/><circle class="cls-1" cx="481.02" cy="194.86" r="2.5"/><circle class="cls-1" cx="556.02" cy="194.86" r="25"/><circle class="cls-1" cx="631.02" cy="194.86" r="15"/><circle class="cls-1" cx="706.02" cy="194.86" r="10"/><circle class="cls-1" cx="781.02" cy="194.86" r="25"/><circle class="cls-1" cx="856.02" cy="194.86" r="20"/><circle class="cls-1" cx="931.02" cy="194.86" r="20"/><circle class="cls-1" cx="1006.02" cy="194.86" r="25"/><path class="cls-1" d="M3.52,259.81A10,10,0,0,0,0,252.2v15.22A10,10,0,0,0,3.52,259.81Z"/><circle class="cls-1" cx="68.52" cy="259.81" r="25"/><circle class="cls-1" cx="143.52" cy="259.81" r="20"/><circle class="cls-1" cx="218.52" cy="259.81" r="10"/><circle class="cls-1" cx="293.52" cy="259.81" r="20"/><circle class="cls-1" cx="368.52" cy="259.81" r="2.5"/><circle class="cls-1" cx="443.52" cy="259.81" r="15"/><circle class="cls-1" cx="518.52" cy="259.81" r="20"/><circle class="cls-1" cx="593.52" cy="259.81" r="10"/><circle class="cls-1" cx="668.52" cy="259.81" r="25"/><circle class="cls-1" cx="743.52" cy="259.81" r="2.5"/><circle class="cls-1" cx="818.52" cy="259.81" r="15"/><circle class="cls-1" cx="893.52" cy="259.81" r="10"/><circle class="cls-1" cx="968.52" cy="259.81" r="10"/><path class="cls-1" d="M1023.52,259.36a20,20,0,0,0,15,19.33V240A20,20,0,0,0,1023.52,259.36Z"/><circle class="cls-1" cx="31.02" cy="324.76" r="20"/><circle class="cls-1" cx="106.02" cy="324.76" r="10"/><circle class="cls-1" cx="181.02" cy="324.76" r="15"/><circle class="cls-1" cx="256.02" cy="324.76" r="20"/><circle class="cls-1" cx="331.02" cy="324.76" r="10"/><circle class="cls-1" cx="406.02" cy="324.76" r="20"/><circle class="cls-1" cx="481.02" cy="324.76" r="10"/><circle class="cls-1" cx="556.02" cy="324.76" r="2.5"/><circle class="cls-1" cx="631.02" cy="324.76" r="15"/><circle class="cls-1" cx="706.02" cy="324.76" r="15"/><circle class="cls-1" cx="781.02" cy="324.76" r="25"/><circle class="cls-1" cx="856.02" cy="324.76" r="10"/><circle class="cls-1" cx="931.02" cy="324.76" r="20"/><circle class="cls-1" cx="1006.02" cy="324.76" r="25"/><path class="cls-1" d="M0,370.81v37.81a20,20,0,0,0,13.52-18.91A20,20,0,0,0,0,370.81Z"/><circle class="cls-1" cx="68.52" cy="389.71" r="25"/><circle class="cls-1" cx="143.52" cy="389.71" r="10"/><circle class="cls-1" cx="218.52" cy="389.71" r="25"/><circle class="cls-1" cx="293.52" cy="389.71" r="15"/><circle class="cls-1" cx="368.52" cy="389.71" r="25"/><circle class="cls-1" cx="443.52" cy="389.71" r="25"/><circle class="cls-1" cx="518.52" cy="389.71" r="10"/><circle class="cls-1" cx="593.52" cy="389.71" r="20"/><circle class="cls-1" cx="668.52" cy="389.71" r="20"/><circle class="cls-1" cx="743.52" cy="389.71" r="10"/><circle class="cls-1" cx="818.52" cy="389.71" r="2.5"/><circle class="cls-1" cx="893.52" cy="389.71" r="20"/><circle class="cls-1" cx="968.52" cy="389.71" r="15"/><path class="cls-1" d="M1028.52,389.26a15,15,0,0,0,10,14.12V375.15A15,15,0,0,0,1028.52,389.26Z"/><circle class="cls-1" cx="31.02" cy="454.66" r="15"/><circle class="cls-1" cx="106.02" cy="454.66" r="25"/><circle class="cls-1" cx="181.02" cy="454.66" r="2.5"/><circle class="cls-1" cx="256.02" cy="454.66" r="10"/><circle class="cls-1" cx="331.02" cy="454.66" r="20"/><circle class="cls-1" cx="406.02" cy="454.66" r="10"/><circle class="cls-1" cx="481.02" cy="454.66" r="2.5"/><circle class="cls-1" cx="556.02" cy="454.66" r="2.5"/><circle class="cls-1" cx="631.02" cy="454.66" r="25"/><circle class="cls-1" cx="706.02" cy="454.66" r="15"/><circle class="cls-1" cx="781.02" cy="454.66" r="2.5"/><circle class="cls-1" cx="856.02" cy="454.66" r="10"/><circle class="cls-1" cx="931.02" cy="454.66" r="25"/><circle class="cls-1" cx="1006.02" cy="454.66" r="10"/><path class="cls-1" d="M3.52,519.62A10,10,0,0,0,0,512v15.21A10,10,0,0,0,3.52,519.62Z"/><circle class="cls-1" cx="68.52" cy="519.62" r="10"/><circle class="cls-1" cx="143.52" cy="519.62" r="15"/><circle class="cls-1" cx="218.52" cy="519.62" r="25"/><circle class="cls-1" cx="293.52" cy="519.62" r="2.5"/><circle class="cls-1" cx="368.52" cy="519.62" r="20"/><circle class="cls-1" cx="443.52" cy="519.62" r="15"/><circle class="cls-1" cx="518.52" cy="519.62" r="15"/><circle class="cls-1" cx="593.52" cy="519.62" r="10"/><circle class="cls-1" cx="668.52" cy="519.62" r="20"/><circle class="cls-1" cx="743.52" cy="519.62" r="10"/><circle class="cls-1" cx="818.52" cy="519.62" r="25"/><circle class="cls-1" cx="893.52" cy="519.62" r="20"/><circle class="cls-1" cx="968.52" cy="519.62" r="15"/><path class="cls-1" d="M1038.48,538.5V499.83a20,20,0,0,0,0,38.67Z"/><circle class="cls-1" cx="31.02" cy="584.57" r="2.5"/><circle class="cls-1" cx="106.02" cy="584.57" r="20"/><circle class="cls-1" cx="181.02" cy="584.57" r="10"/><circle class="cls-1" cx="256.02" cy="584.57" r="20"/><circle class="cls-1" cx="331.02" cy="584.57" r="2.5"/><circle class="cls-1" cx="406.02" cy="584.57" r="25"/><circle class="cls-1" cx="481.02" cy="584.57" r="20"/><circle class="cls-1" cx="556.02" cy="584.57" r="10"/><circle class="cls-1" cx="631.02" cy="584.57" r="2.5"/><circle class="cls-1" cx="706.02" cy="584.57" r="25"/><circle class="cls-1" cx="781.02" cy="584.57" r="15"/><circle class="cls-1" cx="856.02" cy="584.57" r="10"/><circle class="cls-1" cx="931.02" cy="584.57" r="10"/><circle class="cls-1" cx="1006.02" cy="584.57" r="25"/><path class="cls-1" d="M0,625.37v48.3a25,25,0,0,0,18.52-24.15A25,25,0,0,0,0,625.37Z"/><circle class="cls-1" cx="68.52" cy="649.52" r="10"/><circle class="cls-1" cx="143.52" cy="649.52" r="25"/><circle class="cls-1" cx="218.52" cy="649.52" r="15"/><circle class="cls-1" cx="293.52" cy="649.52" r="25"/><circle class="cls-1" cx="368.52" cy="649.52" r="20"/><circle class="cls-1" cx="443.52" cy="649.52" r="10"/><circle class="cls-1" cx="518.52" cy="649.52" r="2.5"/><circle class="cls-1" cx="593.52" cy="649.52" r="15"/><circle class="cls-1" cx="668.52" cy="649.52" r="10"/><circle class="cls-1" cx="743.52" cy="649.52" r="25"/><circle class="cls-1" cx="818.52" cy="649.52" r="15"/><circle class="cls-1" cx="893.52" cy="649.52" r="25"/><circle class="cls-1" cx="968.52" cy="649.52" r="10"/><circle class="cls-1" cx="31.02" cy="714.47" r="15"/><circle class="cls-1" cx="106.02" cy="714.47" r="15"/><circle class="cls-1" cx="181.02" cy="714.47" r="25"/><circle class="cls-1" cx="256.02" cy="714.47" r="10"/><circle class="cls-1" cx="331.02" cy="714.47" r="10"/><circle class="cls-1" cx="406.02" cy="714.47" r="25"/><circle class="cls-1" cx="481.02" cy="714.47" r="2.5"/><circle class="cls-1" cx="556.02" cy="714.47" r="20"/><circle class="cls-1" cx="631.02" cy="714.47" r="20"/><circle class="cls-1" cx="706.02" cy="714.47" r="25"/><circle class="cls-1" cx="781.02" cy="714.47" r="2.5"/><circle class="cls-1" cx="856.02" cy="714.47" r="2.5"/><circle class="cls-1" cx="931.02" cy="714.47" r="20"/><circle class="cls-1" cx="1006.02" cy="714.47" r="15"/><path class="cls-1" d="M68.52,759.42a20,20,0,0,0-20,19.44H88.49A20,20,0,0,0,68.52,759.42Z"/><path class="cls-1" d="M143.52,759.42a20,20,0,0,0-20,19.44h39.94A20,20,0,0,0,143.52,759.42Z"/><path class="cls-1" d="M218.52,776.92a2.49,2.49,0,0,0-2.43,1.94H221A2.49,2.49,0,0,0,218.52,776.92Z"/><path class="cls-1" d="M293.52,776.92a2.49,2.49,0,0,0-2.43,1.94H296A2.49,2.49,0,0,0,293.52,776.92Z"/><path class="cls-1" d="M368.52,764.42a15,15,0,0,0-15,14.44h29.94A15,15,0,0,0,368.52,764.42Z"/><path class="cls-1" d="M443.52,759.42a20,20,0,0,0-20,19.44h39.94A20,20,0,0,0,443.52,759.42Z"/><path class="cls-1" d="M518.52,769.42a10,10,0,0,0-10,9.44h19.94A10,10,0,0,0,518.52,769.42Z"/><path class="cls-1" d="M593.52,754.42a25,25,0,0,0-25,24.44h50A25,25,0,0,0,593.52,754.42Z"/><path class="cls-1" d="M668.52,776.92a2.49,2.49,0,0,0-2.43,1.94H671A2.49,2.49,0,0,0,668.52,776.92Z"/><path class="cls-1" d="M743.52,764.42a15,15,0,0,0-15,14.44h29.94A15,15,0,0,0,743.52,764.42Z"/><path class="cls-1" d="M818.52,769.42a10,10,0,0,0-10,9.44h19.94A10,10,0,0,0,818.52,769.42Z"/><path class="cls-1" d="M893.52,759.42a20,20,0,0,0-20,19.44h39.94A20,20,0,0,0,893.52,759.42Z"/><path class="cls-1" d="M968.52,764.42a15,15,0,0,0-15,14.44h29.94A15,15,0,0,0,968.52,764.42Z"/><path class="cls-1" d="M1038.48,754.48a25,25,0,0,0-20,24.38h20Z"/></g></g></svg>