<svg xmlns="http://www.w3.org/2000/svg" viewBox="0 0 1038.48 778.86"><defs><style>.cls-1{fill:none;}.cls-2{fill:lime;}</style></defs><title>Element 26</title><g id="Ebene_2" data-name="Ebene 2"><g id="Ebene_1-2" data-name="Ebene 1"><circle class="cls-1" cx="443.52" cy="649.52" r="7.5"/><circle class="cls-1" cx="443.52" cy="129.9" r="17.5"/><circle class="cls-1" cx="406.02" cy="324.76" r="17.5"/><circle class="cls-1" cx="556.02" cy="194.86" r="22.5"/><circle class="cls-1" cx="593.52" cy="389.71" r="17.5"/><circle class="cls-1" cx="593.52" cy="259.81" r="7.5"/><circle class="cls-1" cx="593.52" cy="129.9" r="7.5"/><circle class="cls-1" cx="631.02" cy="64.95" r="12.5"/><circle class="cls-1" cx="781.02" cy="194.86" r="22.5"/><circle class="cls-1" cx="818.52" cy="129.9" r="7.5"/><circle class="cls-1" cx="743.52" cy="389.71" r="7.5"/><circle class="cls-1" cx="781.02" cy="64.95" r="22.5"/><circle class="cls-1" cx="631.02" cy="194.86" r="12.5"/><circle class="cls-1" cx="706.02" cy="64.95" r="12.5"/><circle class="cls-1" cx="743.52" cy="129.9" r="22.5"/><circle class="cls-1" cx="631.02" cy="324.76" r="12.5"/><circle class="cls-1" cx="368.52" cy="389.71" r="22.5"/><circle class="cls-1" cx="331.02" cy="324.76" r="7.5"/><circle class="cls-1" cx="331.02" cy="194.86" r="7.5"/><circle class="cls-1" cx="443.52" cy="389.71" r="22.5"/><circle class="cls-1" cx="443.52" cy="519.61" r="12.5"/><circle class="cls-1" cx="406.02" cy="454.66" r="7.5"/><circle class="cls-1" cx="406.02" cy="584.57" r="22.5"/><circle class="cls-1" cx="368.52" cy="519.61" r="17.5"/><circle class="cls-1" cx="406.02" cy="194.86" r="7.5"/><circle class="cls-1" cx="518.52" cy="389.71" r="7.5"/><circle class="cls-1" cx="556.02" cy="584.57" r="7.5"/><circle class="cls-1" cx="556.02" cy="64.95" r="17.5"/><circle class="cls-1" cx="518.52" cy="259.81" r="17.5"/><circle class="cls-1" cx="481.02" cy="324.76" r="7.5"/><circle class="cls-1" cx="518.52" cy="129.9" r="17.5"/><circle class="cls-1" cx="443.52" cy="259.81" r="12.5"/><circle class="cls-1" cx="481.02" cy="64.95" r="22.5"/><circle class="cls-1" cx="518.52" cy="519.61" r="12.5"/><circle class="cls-1" cx="893.52" cy="259.81" r="7.5"/><circle class="cls-1" cx="931.02" cy="584.57" r="7.5"/><circle class="cls-1" cx="1006.02" cy="64.95" r="17.5"/><circle class="cls-1" cx="931.02" cy="454.66" r="22.5"/><circle class="cls-1" cx="893.52" cy="519.61" r="17.5"/><circle class="cls-1" cx="968.52" cy="259.81" r="7.5"/><circle class="cls-1" cx="1006.02" cy="454.66" r="7.5"/><circle class="cls-1" cx="1006.02" cy="194.86" r="22.5"/><circle class="cls-1" cx="968.52" cy="389.71" r="12.5"/><circle class="cls-1" cx="931.02" cy="324.76" r="17.5"/><circle class="cls-1" cx="181.02" cy="194.86" r="22.5"/><circle class="cls-1" cx="781.02" cy="584.57" r="12.5"/><circle class="cls-1" cx="181.02" cy="64.95" r="7.5"/><circle class="cls-1" cx="743.52" cy="519.61" r="7.5"/><circle class="cls-1" cx="256.02" cy="194.86" r="22.5"/><circle class="cls-1" cx="218.52" cy="259.81" r="7.5"/><circle class="cls-1" cx="668.52" cy="259.81" r="22.5"/><circle class="cls-1" cx="1006.02" cy="324.76" r="22.5"/><circle class="cls-1" cx="593.52" cy="519.61" r="7.5"/><circle class="cls-1" cx="631.02" cy="454.66" r="22.5"/><circle class="cls-1" cx="668.52" cy="389.71" r="17.5"/><circle class="cls-1" cx="781.02" cy="324.76" r="22.5"/><circle class="cls-1" cx="818.52" cy="259.81" r="12.5"/><circle class="cls-1" cx="706.02" cy="584.57" r="22.5"/><circle class="cls-1" cx="706.02" cy="454.66" r="12.5"/><circle class="cls-1" cx="706.02" cy="324.76" r="12.5"/><circle class="cls-1" cx="706.02" cy="194.86" r="7.5"/><circle class="cls-1" cx="856.02" cy="64.95" r="7.5"/><circle class="cls-1" cx="931.02" cy="64.95" r="7.5"/><circle class="cls-1" cx="856.02" cy="324.76" r="7.5"/><circle class="cls-1" cx="893.52" cy="129.9" r="22.5"/><circle class="cls-1" cx="931.02" cy="194.86" r="17.5"/><circle class="cls-1" cx="968.52" cy="129.9" r="12.5"/><circle class="cls-1" cx="856.02" cy="194.86" r="17.5"/><circle class="cls-1" cx="856.02" cy="454.66" r="7.5"/><circle class="cls-1" cx="856.02" cy="584.57" r="7.5"/><circle class="cls-1" cx="893.52" cy="389.71" r="17.5"/><circle class="cls-1" cx="331.02" cy="714.47" r="7.5"/><circle class="cls-1" cx="218.52" cy="519.61" r="22.5"/><circle class="cls-1" cx="181.02" cy="584.57" r="7.5"/><circle class="cls-1" cx="218.52" cy="389.71" r="22.5"/><circle class="cls-1" cx="181.02" cy="714.47" r="22.5"/><circle class="cls-1" cx="293.52" cy="259.81" r="17.5"/><circle class="cls-1" cx="331.02" cy="454.66" r="17.5"/><circle class="cls-1" cx="293.52" cy="649.52" r="22.5"/><circle class="cls-1" cx="218.52" cy="649.52" r="12.5"/><circle class="cls-1" cx="368.52" cy="649.52" r="17.5"/><circle class="cls-1" cx="556.02" cy="714.47" r="17.5"/><circle class="cls-1" cx="181.02" cy="324.76" r="12.5"/><circle class="cls-1" cx="143.52" cy="259.81" r="17.5"/><circle class="cls-1" cx="481.02" cy="584.57" r="17.5"/><circle class="cls-1" cx="256.02" cy="454.66" r="7.5"/><circle class="cls-1" cx="256.02" cy="324.76" r="17.5"/><circle class="cls-1" cx="406.02" cy="714.47" r="22.5"/><circle class="cls-1" cx="68.52" cy="649.52" r="7.5"/><circle class="cls-1" cx="31.02" cy="324.76" r="17.5"/><circle class="cls-1" cx="31.02" cy="64.95" r="12.5"/><circle class="cls-1" cx="31.02" cy="714.47" r="12.5"/><circle class="cls-1" cx="68.52" cy="389.71" r="22.5"/><circle class="cls-1" cx="31.02" cy="454.66" r="12.5"/><circle class="cls-1" cx="68.52" cy="259.81" r="22.5"/><circle class="cls-1" cx="106.02" cy="194.86" r="7.5"/><circle class="cls-1" cx="68.52" cy="129.9" r="17.5"/><circle class="cls-1" cx="106.02" cy="584.57" r="17.5"/><circle class="cls-1" cx="68.52" cy="519.61" r="7.5"/><circle class="cls-1" cx="143.52" cy="649.52" r="22.5"/><circle class="cls-1" cx="143.52" cy="129.9" r="17.5"/><circle class="cls-1" cx="293.52" cy="129.9" r="12.5"/><circle class="cls-1" cx="106.02" cy="714.47" r="12.5"/><circle class="cls-1" cx="593.52" cy="649.52" r="12.5"/><circle class="cls-1" cx="106.02" cy="454.66" r="22.5"/><circle class="cls-1" cx="106.02" cy="64.95" r="22.5"/><circle class="cls-1" cx="1006.02" cy="714.47" r="12.5"/><circle class="cls-1" cx="968.52" cy="519.61" r="12.5"/><circle class="cls-1" cx="968.52" cy="649.52" r="7.5"/><circle class="cls-1" cx="293.52" cy="389.71" r="12.5"/><circle class="cls-1" cx="631.02" cy="714.47" r="17.5"/><circle class="cls-1" cx="256.02" cy="584.57" r="17.5"/><circle class="cls-1" cx="818.52" cy="649.52" r="12.5"/><circle class="cls-1" cx="818.52" cy="519.61" r="22.5"/><circle class="cls-1" cx="893.52" cy="649.52" r="22.5"/><circle class="cls-1" cx="406.02" cy="64.95" r="7.5"/><circle class="cls-1" cx="331.02" cy="64.95" r="22.5"/><circle class="cls-1" cx="368.52" cy="129.9" r="22.5"/><circle class="cls-1" cx="106.02" cy="324.76" r="7.5"/><circle class="cls-1" cx="1006.02" cy="584.57" r="22.5"/><circle class="cls-1" cx="931.02" cy="714.47" r="17.5"/><circle class="cls-1" cx="668.52" cy="649.52" r="7.5"/><circle class="cls-1" cx="743.52" cy="649.52" r="22.5"/><circle class="cls-1" cx="706.02" cy="714.47" r="22.5"/><circle class="cls-1" cx="143.52" cy="519.61" r="12.5"/><circle class="cls-1" cx="143.52" cy="389.71" r="7.5"/><circle class="cls-1" cx="256.02" cy="714.47" r="7.5"/><circle class="cls-1" cx="668.52" cy="519.61" r="17.5"/><path class="cls-2" d="M0,16.24v5.3A22.53,22.53,0,0,0,16,0H11A17.51,17.51,0,0,1,0,16.24Z"/><path class="cls-2" d="M68.52,17.5A17.52,17.52,0,0,0,86,0H81a12.52,12.52,0,0,1-12.5,12.5A12.52,12.52,0,0,1,56,0H51A17.52,17.52,0,0,0,68.52,17.5Z"/><path class="cls-2" d="M143.52,12.5A12.52,12.52,0,0,0,156,0h-5a7.5,7.5,0,0,1-7.5,7.5A7.51,7.51,0,0,1,136,0h-5A12.52,12.52,0,0,0,143.52,12.5Z"/><path class="cls-2" d="M218.52,27.5A27.54,27.54,0,0,0,246,0h-5a22.52,22.52,0,0,1-22.5,22.5A22.52,22.52,0,0,1,196,0h-5A27.54,27.54,0,0,0,218.52,27.5Z"/><path class="cls-2" d="M293.52,22.5A22.52,22.52,0,0,0,316,0h-5a17.52,17.52,0,0,1-17.5,17.5A17.52,17.52,0,0,1,276,0h-5A22.52,22.52,0,0,0,293.52,22.5Z"/><path class="cls-2" d="M368.52,17.5A17.52,17.52,0,0,0,386,0h-5a12.52,12.52,0,0,1-12.5,12.5A12.52,12.52,0,0,1,356,0h-5A17.52,17.52,0,0,0,368.52,17.5Z"/><path class="cls-2" d="M443.52,17.5A17.52,17.52,0,0,0,461,0h-5a12.52,12.52,0,0,1-12.5,12.5A12.52,12.52,0,0,1,431,0h-5A17.52,17.52,0,0,0,443.52,17.5Z"/><path class="cls-2" d="M518.52,12.5A12.52,12.52,0,0,0,531,0h-5a7.5,7.5,0,0,1-7.5,7.5A7.5,7.5,0,0,1,511,0h-5A12.52,12.52,0,0,0,518.52,12.5Z"/><path class="cls-2" d="M593.52,12.5A12.52,12.52,0,0,0,606,0h-5a7.5,7.5,0,0,1-7.5,7.5A7.5,7.5,0,0,1,586,0h-5A12.52,12.52,0,0,0,593.52,12.5Z"/><path class="cls-2" d="M668.52,27.5A27.54,27.54,0,0,0,696,0h-5a22.52,22.52,0,0,1-22.5,22.5A22.52,22.52,0,0,1,646,0h-5A27.54,27.54,0,0,0,668.52,27.5Z"/><path class="cls-2" d="M743.52,12.5A12.52,12.52,0,0,0,756,0h-5a7.5,7.5,0,0,1-7.5,7.5A7.5,7.5,0,0,1,736,0h-5A12.52,12.52,0,0,0,743.52,12.5Z"/><path class="cls-2" d="M818.52,17.5A17.52,17.52,0,0,0,836,0h-5a12.52,12.52,0,0,1-12.5,12.5A12.52,12.52,0,0,1,806,0h-5A17.52,17.52,0,0,0,818.52,17.5Z"/><path class="cls-2" d="M893.52,5a5,5,0,0,0,5-5h-10A5,5,0,0,0,893.52,5Z"/><path class="cls-2" d="M968.52,27.5A27.54,27.54,0,0,0,996,0h-5a22.52,22.52,0,0,1-22.5,22.5A22.52,22.52,0,0,1,946,0h-5A27.54,27.54,0,0,0,968.52,27.5Z"/><path class="cls-2" d="M1038.48,21.48V16.3A17.51,17.51,0,0,1,1026,0h-5A22.55,22.55,0,0,0,1038.48,21.48Z"/><path class="cls-2" d="M31,47.45A17.5,17.5,0,1,0,48.52,65,17.52,17.52,0,0,0,31,47.45Zm0,30A12.5,12.5,0,1,1,43.52,65,12.52,12.52,0,0,1,31,77.45Z"/><path class="cls-2" d="M106,37.45A27.5,27.5,0,1,0,133.52,65,27.54,27.54,0,0,0,106,37.45Zm0,50A22.5,22.5,0,1,1,128.52,65,22.52,22.52,0,0,1,106,87.45Z"/><path class="cls-2" d="M193.52,65A12.5,12.5,0,1,0,181,77.45,12.52,12.52,0,0,0,193.52,65Zm-20,0a7.5,7.5,0,1,1,7.5,7.5A7.52,7.52,0,0,1,173.52,65Z"/><circle class="cls-2" cx="256.02" cy="64.95" r="5"/><path class="cls-2" d="M331,37.45A27.5,27.5,0,1,0,358.52,65,27.54,27.54,0,0,0,331,37.45Zm0,50A22.5,22.5,0,1,1,353.52,65,22.52,22.52,0,0,1,331,87.45Z"/><path class="cls-2" d="M406,52.45A12.5,12.5,0,1,0,418.52,65,12.52,12.52,0,0,0,406,52.45Zm0,20a7.5,7.5,0,1,1,7.5-7.5A7.51,7.51,0,0,1,406,72.45Z"/><path class="cls-2" d="M481,37.45A27.5,27.5,0,1,0,508.52,65,27.54,27.54,0,0,0,481,37.45Zm0,50A22.5,22.5,0,1,1,503.52,65,22.52,22.52,0,0,1,481,87.45Z"/><path class="cls-2" d="M556,42.45A22.5,22.5,0,1,0,578.52,65,22.53,22.53,0,0,0,556,42.45Zm0,40A17.5,17.5,0,1,1,573.52,65,17.52,17.52,0,0,1,556,82.45Z"/><path class="cls-2" d="M631,82.45A17.5,17.5,0,1,0,613.52,65,17.52,17.52,0,0,0,631,82.45Zm0-30A12.5,12.5,0,1,1,618.52,65,12.52,12.52,0,0,1,631,52.45Z"/><path class="cls-2" d="M706,47.45A17.5,17.5,0,1,0,723.52,65,17.52,17.52,0,0,0,706,47.45Zm0,30A12.5,12.5,0,1,1,718.52,65,12.52,12.52,0,0,1,706,77.45Z"/><path class="cls-2" d="M781,37.45A27.5,27.5,0,1,0,808.52,65,27.54,27.54,0,0,0,781,37.45Zm0,50A22.5,22.5,0,1,1,803.52,65,22.52,22.52,0,0,1,781,87.45Z"/><path class="cls-2" d="M856,52.45A12.5,12.5,0,1,0,868.52,65,12.52,12.52,0,0,0,856,52.45Zm0,20a7.5,7.5,0,1,1,7.5-7.5A7.5,7.5,0,0,1,856,72.45Z"/><path class="cls-2" d="M931,52.45A12.5,12.5,0,1,0,943.52,65,12.52,12.52,0,0,0,931,52.45Zm0,20a7.5,7.5,0,1,1,7.5-7.5A7.5,7.5,0,0,1,931,72.45Z"/><path class="cls-2" d="M1006,42.45a22.5,22.5,0,1,0,22.5,22.5A22.53,22.53,0,0,0,1006,42.45Zm0,40a17.5,17.5,0,1,1,17.5-17.5A17.52,17.52,0,0,1,1006,82.45Z"/><path class="cls-2" d="M0,103.18v5.18A22.53,22.53,0,0,1,16,129.9,22.54,22.54,0,0,1,0,151.45v5.18A27.56,27.56,0,0,0,21,129.9,27.54,27.54,0,0,0,0,103.18Z"/><path class="cls-2" d="M46,129.9a22.5,22.5,0,1,0,22.5-22.5A22.52,22.52,0,0,0,46,129.9Zm40,0a17.5,17.5,0,1,1-17.5-17.5A17.52,17.52,0,0,1,86,129.9Z"/><path class="cls-2" d="M143.52,107.4A22.5,22.5,0,1,0,166,129.9,22.53,22.53,0,0,0,143.52,107.4Zm0,40A17.5,17.5,0,1,1,161,129.9,17.52,17.52,0,0,1,143.52,147.4Z"/><circle class="cls-2" cx="218.52" cy="129.9" r="5"/><path class="cls-2" d="M276,129.9a17.5,17.5,0,1,0,17.5-17.5A17.52,17.52,0,0,0,276,129.9Zm30,0a12.5,12.5,0,1,1-12.5-12.5A12.51,12.51,0,0,1,306,129.9Z"/><path class="cls-2" d="M368.52,102.4A27.5,27.5,0,1,0,396,129.9,27.54,27.54,0,0,0,368.52,102.4Zm0,50A22.5,22.5,0,1,1,391,129.9,22.52,22.52,0,0,1,368.52,152.4Z"/><path class="cls-2" d="M421,129.9a22.5,22.5,0,1,0,22.5-22.5A22.52,22.52,0,0,0,421,129.9Zm40,0a17.5,17.5,0,1,1-17.5-17.5A17.52,17.52,0,0,1,461,129.9Z"/><path class="cls-2" d="M496,129.9a22.5,22.5,0,1,0,22.5-22.5A22.52,22.52,0,0,0,496,129.9Zm40,0a17.5,17.5,0,1,1-17.5-17.5A17.52,17.52,0,0,1,536,129.9Z"/><path class="cls-2" d="M593.52,117.4A12.5,12.5,0,1,0,606,129.9,12.52,12.52,0,0,0,593.52,117.4Zm0,20a7.5,7.5,0,1,1,7.5-7.5A7.5,7.5,0,0,1,593.52,137.4Z"/><circle class="cls-2" cx="668.52" cy="129.9" r="5"/><path class="cls-2" d="M716,129.9a27.5,27.5,0,1,0,27.5-27.5A27.53,27.53,0,0,0,716,129.9Zm50,0a22.5,22.5,0,1,1-22.5-22.5A22.52,22.52,0,0,1,766,129.9Z"/><path class="cls-2" d="M818.52,117.4A12.5,12.5,0,1,0,831,129.9,12.52,12.52,0,0,0,818.52,117.4Zm0,20a7.5,7.5,0,1,1,7.5-7.5A7.5,7.5,0,0,1,818.52,137.4Z"/><path class="cls-2" d="M893.52,102.4A27.5,27.5,0,1,0,921,129.9,27.54,27.54,0,0,0,893.52,102.4Zm0,50A22.5,22.5,0,1,1,916,129.9,22.52,22.52,0,0,1,893.52,152.4Z"/><path class="cls-2" d="M968.52,112.4A17.5,17.5,0,1,0,986,129.9,17.52,17.52,0,0,0,968.52,112.4Zm0,30A12.5,12.5,0,1,1,981,129.9,12.51,12.51,0,0,1,968.52,142.4Z"/><circle class="cls-2" cx="31.02" cy="194.86" r="5"/><path class="cls-2" d="M106,182.36a12.5,12.5,0,1,0,12.5,12.5A12.51,12.51,0,0,0,106,182.36Zm0,20a7.5,7.5,0,1,1,7.5-7.5A7.52,7.52,0,0,1,106,202.36Z"/><path class="cls-2" d="M153.52,194.86a27.5,27.5,0,1,0,27.5-27.5A27.54,27.54,0,0,0,153.52,194.86Zm27.5-22.5a22.5,22.5,0,1,1-22.5,22.5A22.52,22.52,0,0,1,181,172.36Z"/><path class="cls-2" d="M228.52,194.86a27.5,27.5,0,1,0,27.5-27.5A27.54,27.54,0,0,0,228.52,194.86Zm27.5-22.5a22.5,22.5,0,1,1-22.5,22.5A22.52,22.52,0,0,1,256,172.36Z"/><path class="cls-2" d="M331,207.36a12.5,12.5,0,1,0-12.5-12.5A12.52,12.52,0,0,0,331,207.36Zm0-20a7.5,7.5,0,1,1-7.5,7.5A7.5,7.5,0,0,1,331,187.36Z"/><path class="cls-2" d="M418.52,194.86a12.5,12.5,0,1,0-12.5,12.5A12.51,12.51,0,0,0,418.52,194.86Zm-20,0a7.5,7.5,0,1,1,7.5,7.5A7.51,7.51,0,0,1,398.52,194.86Z"/><circle class="cls-2" cx="481.02" cy="194.86" r="5"/><path class="cls-2" d="M556,167.36a27.5,27.5,0,1,0,27.5,27.5A27.53,27.53,0,0,0,556,167.36Zm0,50a22.5,22.5,0,1,1,22.5-22.5A22.53,22.53,0,0,1,556,217.36Z"/><path class="cls-2" d="M631,212.36a17.5,17.5,0,1,0-17.5-17.5A17.53,17.53,0,0,0,631,212.36Zm0-30a12.5,12.5,0,1,1-12.5,12.5A12.51,12.51,0,0,1,631,182.36Z"/><path class="cls-2" d="M718.52,194.86a12.5,12.5,0,1,0-12.5,12.5A12.51,12.51,0,0,0,718.52,194.86Zm-20,0a7.5,7.5,0,1,1,7.5,7.5A7.5,7.5,0,0,1,698.52,194.86Z"/><path class="cls-2" d="M781,222.36a27.5,27.5,0,1,0-27.5-27.5A27.54,27.54,0,0,0,781,222.36Zm0-50a22.5,22.5,0,1,1-22.5,22.5A22.52,22.52,0,0,1,781,172.36Z"/><path class="cls-2" d="M833.52,194.86a22.5,22.5,0,1,0,22.5-22.5A22.53,22.53,0,0,0,833.52,194.86Zm22.5-17.5a17.5,17.5,0,1,1-17.5,17.5A17.52,17.52,0,0,1,856,177.36Z"/><path class="cls-2" d="M931,172.36a22.5,22.5,0,1,0,22.5,22.5A22.52,22.52,0,0,0,931,172.36Zm0,40a17.5,17.5,0,1,1,17.5-17.5A17.53,17.53,0,0,1,931,212.36Z"/><path class="cls-2" d="M1006,167.36a27.5,27.5,0,1,0,27.5,27.5A27.53,27.53,0,0,0,1006,167.36Zm0,50a22.5,22.5,0,1,1,22.5-22.5A22.53,22.53,0,0,1,1006,217.36Z"/><path class="cls-2" d="M6,259.81a12.49,12.49,0,0,0-6-10.67v6.91a7.5,7.5,0,0,1,1,3.76,7.5,7.5,0,0,1-1,3.76v6.91A12.5,12.5,0,0,0,6,259.81Z"/><path class="cls-2" d="M96,259.81a27.5,27.5,0,1,0-27.5,27.5A27.53,27.53,0,0,0,96,259.81Zm-50,0a22.5,22.5,0,1,1,22.5,22.5A22.52,22.52,0,0,1,46,259.81Z"/><path class="cls-2" d="M143.52,237.31a22.5,22.5,0,1,0,22.5,22.5A22.52,22.52,0,0,0,143.52,237.31Zm0,40a17.5,17.5,0,1,1,17.5-17.5A17.52,17.52,0,0,1,143.52,277.31Z"/><path class="cls-2" d="M206,259.81a12.5,12.5,0,1,0,12.5-12.5A12.52,12.52,0,0,0,206,259.81Zm12.5-7.5a7.5,7.5,0,1,1-7.5,7.5A7.5,7.5,0,0,1,218.52,252.31Z"/><path class="cls-2" d="M293.52,237.31a22.5,22.5,0,1,0,22.5,22.5A22.52,22.52,0,0,0,293.52,237.31Zm0,40a17.5,17.5,0,1,1,17.5-17.5A17.52,17.52,0,0,1,293.52,277.31Z"/><circle class="cls-2" cx="368.52" cy="259.81" r="5"/><path class="cls-2" d="M461,259.81a17.5,17.5,0,1,0-17.5,17.5A17.52,17.52,0,0,0,461,259.81Zm-30,0a12.5,12.5,0,1,1,12.5,12.5A12.51,12.51,0,0,1,431,259.81Z"/><path class="cls-2" d="M541,259.81a22.5,22.5,0,1,0-22.5,22.5A22.52,22.52,0,0,0,541,259.81Zm-22.5,17.5a17.5,17.5,0,1,1,17.5-17.5A17.52,17.52,0,0,1,518.52,277.31Z"/><path class="cls-2" d="M606,259.81a12.5,12.5,0,1,0-12.5,12.5A12.51,12.51,0,0,0,606,259.81Zm-20,0a7.5,7.5,0,1,1,7.5,7.5A7.5,7.5,0,0,1,586,259.81Z"/><path class="cls-2" d="M641,259.81a27.5,27.5,0,1,0,27.5-27.5A27.54,27.54,0,0,0,641,259.81Zm27.5-22.5a22.5,22.5,0,1,1-22.5,22.5A22.52,22.52,0,0,1,668.52,237.31Z"/><circle class="cls-2" cx="743.52" cy="259.81" r="5"/><path class="cls-2" d="M818.52,242.31a17.5,17.5,0,1,0,17.5,17.5A17.52,17.52,0,0,0,818.52,242.31Zm0,30a12.5,12.5,0,1,1,12.5-12.5A12.52,12.52,0,0,1,818.52,272.31Z"/><path class="cls-2" d="M906,259.81a12.5,12.5,0,1,0-12.5,12.5A12.51,12.51,0,0,0,906,259.81Zm-20,0a7.5,7.5,0,1,1,7.5,7.5A7.5,7.5,0,0,1,886,259.81Z"/><path class="cls-2" d="M968.52,272.31a12.5,12.5,0,1,0-12.5-12.5A12.52,12.52,0,0,0,968.52,272.31Zm0-20a7.5,7.5,0,1,1-7.5,7.5A7.5,7.5,0,0,1,968.52,252.31Z"/><path class="cls-2" d="M1021,259.36a22.54,22.54,0,0,0,17.46,21.92v-5.17a17.5,17.5,0,0,1,0-33.51v-5.17A22.55,22.55,0,0,0,1021,259.36Z"/><path class="cls-2" d="M53.52,324.76A22.5,22.5,0,1,0,31,347.26,22.52,22.52,0,0,0,53.52,324.76Zm-40,0A17.5,17.5,0,1,1,31,342.26,17.52,17.52,0,0,1,13.52,324.76Z"/><path class="cls-2" d="M106,337.26a12.5,12.5,0,1,0-12.5-12.5A12.52,12.52,0,0,0,106,337.26Zm0-20a7.5,7.5,0,1,1-7.5,7.5A7.5,7.5,0,0,1,106,317.26Z"/><path class="cls-2" d="M181,342.26a17.5,17.5,0,1,0-17.5-17.5A17.52,17.52,0,0,0,181,342.26Zm0-30a12.5,12.5,0,1,1-12.5,12.5A12.52,12.52,0,0,1,181,312.26Z"/><path class="cls-2" d="M278.52,324.76a22.5,22.5,0,1,0-22.5,22.5A22.52,22.52,0,0,0,278.52,324.76ZM256,342.26a17.5,17.5,0,1,1,17.5-17.5A17.52,17.52,0,0,1,256,342.26Z"/><path class="cls-2" d="M331,337.26a12.5,12.5,0,1,0-12.5-12.5A12.52,12.52,0,0,0,331,337.26Zm0-20a7.5,7.5,0,1,1-7.5,7.5A7.5,7.5,0,0,1,331,317.26Z"/><path class="cls-2" d="M383.52,324.76a22.5,22.5,0,1,0,22.5-22.5A22.52,22.52,0,0,0,383.52,324.76Zm40,0a17.5,17.5,0,1,1-17.5-17.5A17.52,17.52,0,0,1,423.52,324.76Z"/><path class="cls-2" d="M493.52,324.76a12.5,12.5,0,1,0-12.5,12.5A12.52,12.52,0,0,0,493.52,324.76Zm-12.5,7.5a7.5,7.5,0,1,1,7.5-7.5A7.51,7.51,0,0,1,481,332.26Z"/><circle class="cls-2" cx="556.02" cy="324.76" r="5"/><path class="cls-2" d="M631,342.26a17.5,17.5,0,1,0-17.5-17.5A17.52,17.52,0,0,0,631,342.26Zm0-30a12.5,12.5,0,1,1-12.5,12.5A12.52,12.52,0,0,1,631,312.26Z"/><path class="cls-2" d="M688.52,324.76a17.5,17.5,0,1,0,17.5-17.5A17.52,17.52,0,0,0,688.52,324.76Zm17.5-12.5a12.5,12.5,0,1,1-12.5,12.5A12.52,12.52,0,0,1,706,312.26Z"/><path class="cls-2" d="M808.52,324.76a27.5,27.5,0,1,0-27.5,27.5A27.54,27.54,0,0,0,808.52,324.76ZM781,347.26a22.5,22.5,0,1,1,22.5-22.5A22.52,22.52,0,0,1,781,347.26Z"/><path class="cls-2" d="M856,312.26a12.5,12.5,0,1,0,12.5,12.5A12.52,12.52,0,0,0,856,312.26Zm0,20a7.5,7.5,0,1,1,7.5-7.5A7.5,7.5,0,0,1,856,332.26Z"/><path class="cls-2" d="M931,347.26a22.5,22.5,0,1,0-22.5-22.5A22.52,22.52,0,0,0,931,347.26Zm0-40a17.5,17.5,0,1,1-17.5,17.5A17.52,17.52,0,0,1,931,307.26Z"/><path class="cls-2" d="M1033.52,324.76a27.5,27.5,0,1,0-27.5,27.5A27.54,27.54,0,0,0,1033.52,324.76Zm-27.5,22.5a22.5,22.5,0,1,1,22.5-22.5A22.52,22.52,0,0,1,1006,347.26Z"/><path class="cls-2" d="M0,368.17v5.3a17.51,17.51,0,0,1,11,16.24A17.51,17.51,0,0,1,0,406v5.31a22.54,22.54,0,0,0,16-21.55A22.53,22.53,0,0,0,0,368.17Z"/><path class="cls-2" d="M68.52,417.21A27.5,27.5,0,1,0,41,389.71,27.54,27.54,0,0,0,68.52,417.21Zm0-50A22.5,22.5,0,1,1,46,389.71,22.53,22.53,0,0,1,68.52,367.21Z"/><path class="cls-2" d="M156,389.71a12.5,12.5,0,1,0-12.5,12.5A12.52,12.52,0,0,0,156,389.71Zm-20,0a7.5,7.5,0,1,1,7.5,7.5A7.52,7.52,0,0,1,136,389.71Z"/><path class="cls-2" d="M191,389.71a27.5,27.5,0,1,0,27.5-27.5A27.54,27.54,0,0,0,191,389.71Zm50,0a22.5,22.5,0,1,1-22.5-22.5A22.52,22.52,0,0,1,241,389.71Z"/><path class="cls-2" d="M311,389.71a17.5,17.5,0,1,0-17.5,17.5A17.52,17.52,0,0,0,311,389.71Zm-17.5,12.5a12.5,12.5,0,1,1,12.5-12.5A12.52,12.52,0,0,1,293.52,402.21Z"/><path class="cls-2" d="M368.52,417.21a27.5,27.5,0,1,0-27.5-27.5A27.54,27.54,0,0,0,368.52,417.21Zm0-50a22.5,22.5,0,1,1-22.5,22.5A22.53,22.53,0,0,1,368.52,367.21Z"/><path class="cls-2" d="M471,389.71a27.5,27.5,0,1,0-27.5,27.5A27.54,27.54,0,0,0,471,389.71Zm-27.5,22.5a22.5,22.5,0,1,1,22.5-22.5A22.52,22.52,0,0,1,443.52,412.21Z"/><path class="cls-2" d="M506,389.71a12.5,12.5,0,1,0,12.5-12.5A12.52,12.52,0,0,0,506,389.71Zm20,0a7.5,7.5,0,1,1-7.5-7.5A7.5,7.5,0,0,1,526,389.71Z"/><path class="cls-2" d="M593.52,367.21a22.5,22.5,0,1,0,22.5,22.5A22.53,22.53,0,0,0,593.52,367.21Zm0,40a17.5,17.5,0,1,1,17.5-17.5A17.52,17.52,0,0,1,593.52,407.21Z"/><path class="cls-2" d="M691,389.71a22.5,22.5,0,1,0-22.5,22.5A22.53,22.53,0,0,0,691,389.71Zm-40,0a17.5,17.5,0,1,1,17.5,17.5A17.52,17.52,0,0,1,651,389.71Z"/><path class="cls-2" d="M743.52,377.21a12.5,12.5,0,1,0,12.5,12.5A12.52,12.52,0,0,0,743.52,377.21Zm0,20a7.5,7.5,0,1,1,7.5-7.5A7.5,7.5,0,0,1,743.52,397.21Z"/><circle class="cls-2" cx="818.52" cy="389.71" r="5"/><path class="cls-2" d="M871,389.71a22.5,22.5,0,1,0,22.5-22.5A22.52,22.52,0,0,0,871,389.71Zm22.5-17.5a17.5,17.5,0,1,1-17.5,17.5A17.52,17.52,0,0,1,893.52,372.21Z"/><path class="cls-2" d="M986,389.71a17.5,17.5,0,1,0-17.5,17.5A17.52,17.52,0,0,0,986,389.71Zm-30,0a12.5,12.5,0,1,1,12.5,12.5A12.52,12.52,0,0,1,956,389.71Z"/><path class="cls-2" d="M1026,389.26A17.53,17.53,0,0,0,1038.48,406v-5.33a12.49,12.49,0,0,1,0-22.86v-5.32A17.52,17.52,0,0,0,1026,389.26Z"/><path class="cls-2" d="M31,437.16a17.5,17.5,0,1,0,17.5,17.5A17.52,17.52,0,0,0,31,437.16Zm0,30a12.5,12.5,0,1,1,12.5-12.5A12.51,12.51,0,0,1,31,467.16Z"/><path class="cls-2" d="M106,482.16a27.5,27.5,0,1,0-27.5-27.5A27.53,27.53,0,0,0,106,482.16Zm0-50a22.5,22.5,0,1,1-22.5,22.5A22.53,22.53,0,0,1,106,432.16Z"/><circle class="cls-2" cx="181.02" cy="454.66" r="5"/><path class="cls-2" d="M243.52,454.66a12.5,12.5,0,1,0,12.5-12.5A12.51,12.51,0,0,0,243.52,454.66Zm20,0a7.5,7.5,0,1,1-7.5-7.5A7.5,7.5,0,0,1,263.52,454.66Z"/><path class="cls-2" d="M353.52,454.66a22.5,22.5,0,1,0-22.5,22.5A22.53,22.53,0,0,0,353.52,454.66ZM331,472.16a17.5,17.5,0,1,1,17.5-17.5A17.52,17.52,0,0,1,331,472.16Z"/><path class="cls-2" d="M406,467.16a12.5,12.5,0,1,0-12.5-12.5A12.51,12.51,0,0,0,406,467.16Zm0-20a7.5,7.5,0,1,1-7.5,7.5A7.51,7.51,0,0,1,406,447.16Z"/><circle class="cls-2" cx="481.02" cy="454.66" r="5"/><circle class="cls-2" cx="556.02" cy="454.66" r="5"/><path class="cls-2" d="M658.52,454.66a27.5,27.5,0,1,0-27.5,27.5A27.54,27.54,0,0,0,658.52,454.66ZM631,477.16a22.5,22.5,0,1,1,22.5-22.5A22.52,22.52,0,0,1,631,477.16Z"/><path class="cls-2" d="M706,472.16a17.5,17.5,0,1,0-17.5-17.5A17.52,17.52,0,0,0,706,472.16Zm0-30a12.5,12.5,0,1,1-12.5,12.5A12.52,12.52,0,0,1,706,442.16Z"/><circle class="cls-2" cx="781.02" cy="454.66" r="5"/><path class="cls-2" d="M856,442.16a12.5,12.5,0,1,0,12.5,12.5A12.52,12.52,0,0,0,856,442.16Zm0,20a7.5,7.5,0,1,1,7.5-7.5A7.5,7.5,0,0,1,856,462.16Z"/><path class="cls-2" d="M958.52,454.66a27.5,27.5,0,1,0-27.5,27.5A27.54,27.54,0,0,0,958.52,454.66ZM931,477.16a22.5,22.5,0,1,1,22.5-22.5A22.52,22.52,0,0,1,931,477.16Z"/><path class="cls-2" d="M993.52,454.66a12.5,12.5,0,1,0,12.5-12.5A12.51,12.51,0,0,0,993.52,454.66Zm20,0a7.5,7.5,0,1,1-7.5-7.5A7.5,7.5,0,0,1,1013.52,454.66Z"/><path class="cls-2" d="M6,519.61A12.48,12.48,0,0,0,0,509v6.91a7.44,7.44,0,0,1,1,3.75,7.45,7.45,0,0,1-1,3.76v6.91A12.49,12.49,0,0,0,6,519.61Z"/><path class="cls-2" d="M68.52,507.11A12.5,12.5,0,1,0,81,519.61,12.52,12.52,0,0,0,68.52,507.11Zm0,20a7.5,7.5,0,1,1,7.5-7.5A7.5,7.5,0,0,1,68.52,527.11Z"/><path class="cls-2" d="M126,519.61a17.5,17.5,0,1,0,17.5-17.5A17.52,17.52,0,0,0,126,519.61Zm17.5-12.5a12.5,12.5,0,1,1-12.5,12.5A12.52,12.52,0,0,1,143.52,507.11Z"/><path class="cls-2" d="M218.52,547.11a27.5,27.5,0,1,0-27.5-27.5A27.53,27.53,0,0,0,218.52,547.11Zm0-50a22.5,22.5,0,1,1-22.5,22.5A22.53,22.53,0,0,1,218.52,497.11Z"/><circle class="cls-2" cx="293.52" cy="519.61" r="5"/><path class="cls-2" d="M346,519.61a22.5,22.5,0,1,0,22.5-22.5A22.52,22.52,0,0,0,346,519.61Zm22.5-17.5a17.5,17.5,0,1,1-17.5,17.5A17.53,17.53,0,0,1,368.52,502.11Z"/><path class="cls-2" d="M443.52,502.11a17.5,17.5,0,1,0,17.5,17.5A17.53,17.53,0,0,0,443.52,502.11Zm0,30a12.5,12.5,0,1,1,12.5-12.5A12.51,12.51,0,0,1,443.52,532.11Z"/><path class="cls-2" d="M536,519.61a17.5,17.5,0,1,0-17.5,17.5A17.53,17.53,0,0,0,536,519.61Zm-17.5,12.5a12.5,12.5,0,1,1,12.5-12.5A12.51,12.51,0,0,1,518.52,532.11Z"/><path class="cls-2" d="M593.52,507.11a12.5,12.5,0,1,0,12.5,12.5A12.52,12.52,0,0,0,593.52,507.11Zm0,20a7.5,7.5,0,1,1,7.5-7.5A7.5,7.5,0,0,1,593.52,527.11Z"/><path class="cls-2" d="M691,519.61a22.5,22.5,0,1,0-22.5,22.5A22.53,22.53,0,0,0,691,519.61Zm-40,0a17.5,17.5,0,1,1,17.5,17.5A17.53,17.53,0,0,1,651,519.61Z"/><path class="cls-2" d="M743.52,532.11a12.5,12.5,0,1,0-12.5-12.5A12.51,12.51,0,0,0,743.52,532.11Zm0-20a7.5,7.5,0,1,1-7.5,7.5A7.51,7.51,0,0,1,743.52,512.11Z"/><path class="cls-2" d="M818.52,547.11a27.5,27.5,0,1,0-27.5-27.5A27.53,27.53,0,0,0,818.52,547.11Zm0-50a22.5,22.5,0,1,1-22.5,22.5A22.53,22.53,0,0,1,818.52,497.11Z"/><path class="cls-2" d="M893.52,542.11a22.5,22.5,0,1,0-22.5-22.5A22.52,22.52,0,0,0,893.52,542.11Zm0-40a17.5,17.5,0,1,1-17.5,17.5A17.53,17.53,0,0,1,893.52,502.11Z"/><path class="cls-2" d="M968.52,537.11a17.5,17.5,0,1,0-17.5-17.5A17.52,17.52,0,0,0,968.52,537.11Zm0-30a12.5,12.5,0,1,1-12.5,12.5A12.52,12.52,0,0,1,968.52,507.11Z"/><path class="cls-2" d="M1038.48,541.09v-5.17a17.5,17.5,0,0,1,0-33.51v-5.17a22.5,22.5,0,0,0,0,43.85Z"/><circle class="cls-2" cx="31.02" cy="584.57" r="5"/><path class="cls-2" d="M106,607.07a22.5,22.5,0,1,0-22.5-22.5A22.53,22.53,0,0,0,106,607.07Zm0-40a17.5,17.5,0,1,1-17.5,17.5A17.52,17.52,0,0,1,106,567.07Z"/><path class="cls-2" d="M181,597.07a12.5,12.5,0,1,0-12.5-12.5A12.52,12.52,0,0,0,181,597.07Zm0-20a7.5,7.5,0,1,1-7.5,7.5A7.5,7.5,0,0,1,181,577.07Z"/><path class="cls-2" d="M278.52,584.57a22.5,22.5,0,1,0-22.5,22.5A22.52,22.52,0,0,0,278.52,584.57ZM256,602.07a17.5,17.5,0,1,1,17.5-17.5A17.52,17.52,0,0,1,256,602.07Z"/><circle class="cls-2" cx="331.02" cy="584.57" r="5"/><path class="cls-2" d="M406,612.07a27.5,27.5,0,1,0-27.5-27.5A27.54,27.54,0,0,0,406,612.07Zm0-50a22.5,22.5,0,1,1-22.5,22.5A22.52,22.52,0,0,1,406,562.07Z"/><path class="cls-2" d="M481,562.07a22.5,22.5,0,1,0,22.5,22.5A22.52,22.52,0,0,0,481,562.07Zm0,40a17.5,17.5,0,1,1,17.5-17.5A17.52,17.52,0,0,1,481,602.07Z"/><path class="cls-2" d="M543.52,584.57a12.5,12.5,0,1,0,12.5-12.5A12.52,12.52,0,0,0,543.52,584.57Zm12.5-7.5a7.5,7.5,0,1,1-7.5,7.5A7.5,7.5,0,0,1,556,577.07Z"/><circle class="cls-2" cx="631.02" cy="584.57" r="5"/><path class="cls-2" d="M678.52,584.57a27.5,27.5,0,1,0,27.5-27.5A27.54,27.54,0,0,0,678.52,584.57Zm27.5-22.5a22.5,22.5,0,1,1-22.5,22.5A22.52,22.52,0,0,1,706,562.07Z"/><path class="cls-2" d="M798.52,584.57a17.5,17.5,0,1,0-17.5,17.5A17.52,17.52,0,0,0,798.52,584.57ZM781,597.07a12.5,12.5,0,1,1,12.5-12.5A12.52,12.52,0,0,1,781,597.07Z"/><path class="cls-2" d="M868.52,584.57a12.5,12.5,0,1,0-12.5,12.5A12.51,12.51,0,0,0,868.52,584.57Zm-12.5,7.5a7.5,7.5,0,1,1,7.5-7.5A7.51,7.51,0,0,1,856,592.07Z"/><path class="cls-2" d="M918.52,584.57a12.5,12.5,0,1,0,12.5-12.5A12.52,12.52,0,0,0,918.52,584.57Zm20,0a7.5,7.5,0,1,1-7.5-7.5A7.51,7.51,0,0,1,938.52,584.57Z"/><path class="cls-2" d="M1006,612.07a27.5,27.5,0,1,0-27.5-27.5A27.54,27.54,0,0,0,1006,612.07Zm0-50a22.5,22.5,0,1,1-22.5,22.5A22.52,22.52,0,0,1,1006,562.07Z"/><path class="cls-2" d="M21,649.52A27.54,27.54,0,0,0,0,622.8V628a22.54,22.54,0,0,1,16,21.55A22.53,22.53,0,0,1,0,671.06v5.18A27.54,27.54,0,0,0,21,649.52Z"/><path class="cls-2" d="M68.52,637A12.5,12.5,0,1,0,81,649.52,12.52,12.52,0,0,0,68.52,637Zm0,20a7.5,7.5,0,1,1,7.5-7.5A7.5,7.5,0,0,1,68.52,657Z"/><path class="cls-2" d="M143.52,677a27.5,27.5,0,1,0-27.5-27.5A27.54,27.54,0,0,0,143.52,677Zm0-50a22.5,22.5,0,1,1-22.5,22.5A22.52,22.52,0,0,1,143.52,627Z"/><path class="cls-2" d="M218.52,667a17.5,17.5,0,1,0-17.5-17.5A17.52,17.52,0,0,0,218.52,667Zm0-30a12.5,12.5,0,1,1-12.5,12.5A12.52,12.52,0,0,1,218.52,637Z"/><path class="cls-2" d="M321,649.52a27.5,27.5,0,1,0-27.5,27.5A27.54,27.54,0,0,0,321,649.52Zm-50,0a22.5,22.5,0,1,1,22.5,22.5A22.52,22.52,0,0,1,271,649.52Z"/><path class="cls-2" d="M368.52,672a22.5,22.5,0,1,0-22.5-22.5A22.52,22.52,0,0,0,368.52,672Zm0-40a17.5,17.5,0,1,1-17.5,17.5A17.52,17.52,0,0,1,368.52,632Z"/><path class="cls-2" d="M443.52,662a12.5,12.5,0,1,0-12.5-12.5A12.52,12.52,0,0,0,443.52,662Zm0-20a7.5,7.5,0,1,1-7.5,7.5A7.5,7.5,0,0,1,443.52,642Z"/><circle class="cls-2" cx="518.52" cy="649.52" r="5"/><path class="cls-2" d="M593.52,667a17.5,17.5,0,1,0-17.5-17.5A17.52,17.52,0,0,0,593.52,667Zm0-30a12.5,12.5,0,1,1-12.5,12.5A12.52,12.52,0,0,1,593.52,637Z"/><path class="cls-2" d="M668.52,662a12.5,12.5,0,1,0-12.5-12.5A12.52,12.52,0,0,0,668.52,662Zm0-20a7.5,7.5,0,1,1-7.5,7.5A7.5,7.5,0,0,1,668.52,642Z"/><path class="cls-2" d="M771,649.52a27.5,27.5,0,1,0-27.5,27.5A27.54,27.54,0,0,0,771,649.52Zm-50,0a22.5,22.5,0,1,1,22.5,22.5A22.52,22.52,0,0,1,721,649.52Z"/><path class="cls-2" d="M818.52,667a17.5,17.5,0,1,0-17.5-17.5A17.52,17.52,0,0,0,818.52,667Zm0-30a12.5,12.5,0,1,1-12.5,12.5A12.52,12.52,0,0,1,818.52,637Z"/><path class="cls-2" d="M893.52,677a27.5,27.5,0,1,0-27.5-27.5A27.54,27.54,0,0,0,893.52,677Zm0-50a22.5,22.5,0,1,1-22.5,22.5A22.52,22.52,0,0,1,893.52,627Z"/><path class="cls-2" d="M968.52,662a12.5,12.5,0,1,0-12.5-12.5A12.52,12.52,0,0,0,968.52,662Zm0-20a7.5,7.5,0,1,1-7.5,7.5A7.5,7.5,0,0,1,968.52,642Z"/><path class="cls-2" d="M31,697a17.5,17.5,0,1,0,17.5,17.5A17.52,17.52,0,0,0,31,697Zm0,30a12.5,12.5,0,1,1,12.5-12.5A12.52,12.52,0,0,1,31,727Z"/><path class="cls-2" d="M106,732a17.5,17.5,0,1,0-17.5-17.5A17.52,17.52,0,0,0,106,732Zm0-30a12.5,12.5,0,1,1-12.5,12.5A12.52,12.52,0,0,1,106,702Z"/><path class="cls-2" d="M181,742a27.5,27.5,0,1,0-27.5-27.5A27.54,27.54,0,0,0,181,742Zm0-50a22.5,22.5,0,1,1-22.5,22.5A22.53,22.53,0,0,1,181,692Z"/><path class="cls-2" d="M243.52,714.47A12.5,12.5,0,1,0,256,702,12.52,12.52,0,0,0,243.52,714.47Zm20,0A7.5,7.5,0,1,1,256,707,7.5,7.5,0,0,1,263.52,714.47Z"/><path class="cls-2" d="M331,727a12.5,12.5,0,1,0-12.5-12.5A12.52,12.52,0,0,0,331,727Zm0-20a7.5,7.5,0,1,1-7.5,7.5A7.51,7.51,0,0,1,331,707Z"/><path class="cls-2" d="M406,742a27.5,27.5,0,1,0-27.5-27.5A27.54,27.54,0,0,0,406,742Zm0-50a22.5,22.5,0,1,1-22.5,22.5A22.53,22.53,0,0,1,406,692Z"/><circle class="cls-2" cx="481.02" cy="714.47" r="5"/><path class="cls-2" d="M556,737a22.5,22.5,0,1,0-22.5-22.5A22.52,22.52,0,0,0,556,737Zm0-40a17.5,17.5,0,1,1-17.5,17.5A17.52,17.52,0,0,1,556,697Z"/><path class="cls-2" d="M631,737a22.5,22.5,0,1,0-22.5-22.5A22.52,22.52,0,0,0,631,737Zm0-40a17.5,17.5,0,1,1-17.5,17.5A17.52,17.52,0,0,1,631,697Z"/><path class="cls-2" d="M706,687a27.5,27.5,0,1,0,27.5,27.5A27.54,27.54,0,0,0,706,687Zm0,50a22.5,22.5,0,1,1,22.5-22.5A22.52,22.52,0,0,1,706,737Z"/><circle class="cls-2" cx="781.02" cy="714.47" r="5"/><circle class="cls-2" cx="856.02" cy="714.47" r="5"/><path class="cls-2" d="M931,737a22.5,22.5,0,1,0-22.5-22.5A22.52,22.52,0,0,0,931,737Zm0-40a17.5,17.5,0,1,1-17.5,17.5A17.52,17.52,0,0,1,931,697Z"/><path class="cls-2" d="M988.52,714.47A17.5,17.5,0,1,0,1006,697,17.52,17.52,0,0,0,988.52,714.47Zm30,0A12.5,12.5,0,1,1,1006,702,12.52,12.52,0,0,1,1018.52,714.47Z"/><path class="cls-2" d="M68.52,756.92A22.53,22.53,0,0,0,46,778.86h5a17.48,17.48,0,0,1,34.94,0h5A22.53,22.53,0,0,0,68.52,756.92Z"/><path class="cls-2" d="M143.52,761.92A17.51,17.51,0,0,1,161,778.86h5a22.49,22.49,0,0,0-45,0h5A17.51,17.51,0,0,1,143.52,761.92Z"/><path class="cls-2" d="M218.52,774.42a5,5,0,0,0-4.94,4.44h9.88A5,5,0,0,0,218.52,774.42Z"/><path class="cls-2" d="M293.52,774.42a5,5,0,0,0-4.94,4.44h9.88A5,5,0,0,0,293.52,774.42Z"/><path class="cls-2" d="M368.52,766.92A12.5,12.5,0,0,1,381,778.86h5a17.48,17.48,0,0,0-34.94,0h5A12.5,12.5,0,0,1,368.52,766.92Z"/><path class="cls-2" d="M443.52,756.92A22.52,22.52,0,0,0,421,778.86h5a17.48,17.48,0,0,1,34.94,0h5A22.53,22.53,0,0,0,443.52,756.92Z"/><path class="cls-2" d="M518.52,766.92a12.5,12.5,0,0,0-12.47,11.94h5a7.49,7.49,0,0,1,14.94,0h5A12.5,12.5,0,0,0,518.52,766.92Z"/><path class="cls-2" d="M593.52,751.92A27.53,27.53,0,0,0,566,778.86h5a22.5,22.5,0,0,1,45,0h5A27.53,27.53,0,0,0,593.52,751.92Z"/><path class="cls-2" d="M668.52,774.42a5,5,0,0,0-4.94,4.44h9.88A5,5,0,0,0,668.52,774.42Z"/><path class="cls-2" d="M743.52,761.92a17.51,17.51,0,0,0-17.47,16.94h5a12.48,12.48,0,0,1,24.94,0h5A17.51,17.51,0,0,0,743.52,761.92Z"/><path class="cls-2" d="M818.52,771.92a7.5,7.5,0,0,1,7.47,6.94h5a12.48,12.48,0,0,0-24.94,0h5A7.5,7.5,0,0,1,818.52,771.92Z"/><path class="cls-2" d="M893.52,756.92A22.53,22.53,0,0,0,871,778.86h5a17.48,17.48,0,0,1,34.94,0h5A22.53,22.53,0,0,0,893.52,756.92Z"/><path class="cls-2" d="M968.52,766.92A12.5,12.5,0,0,1,981,778.86h5a17.48,17.48,0,0,0-34.94,0h5A12.5,12.5,0,0,1,968.52,766.92Z"/><path class="cls-2" d="M1038.48,757.05v-5.11A27.55,27.55,0,0,0,1016,778.86h5A22.53,22.53,0,0,1,1038.48,757.05Z"/></g></g></svg>