<svg xmlns="http://www.w3.org/2000/svg" viewBox="0 0 1038.48 778.86"><defs><style>.cls-1{fill:none;}.cls-2{fill:lime;}</style></defs><title>Element 32</title><g id="Ebene_2" data-name="Ebene 2"><g id="Ebene_1-2" data-name="Ebene 1"><rect class="cls-1" y="465.86" width="8.91" height="45"/><polygon class="cls-1" points="576.82 717.7 576.82 759.03 612.62 738.37 576.82 717.7"/><path class="cls-1" d="M422.77,765.86a22.6,22.6,0,0,0-19.49,11.26l-1,1.74h40.89A22.53,22.53,0,0,0,422.77,765.86Z"/><polygon class="cls-1" points="701.73 760.87 701.73 715.87 620.12 715.87 620.12 736.92 622.62 738.37 620.12 739.81 620.12 760.87 701.73 760.87"/><path class="cls-1" d="M379.47,765.86a22.52,22.52,0,0,0-20.39,13H400l-1-1.74A22.58,22.58,0,0,0,379.47,765.86Z"/><polygon class="cls-1" points="576.82 778.86 596.17 778.86 576.82 767.7 576.82 778.86"/><polygon class="cls-1" points="0 584.67 0 592.06 6.41 588.36 0 584.67"/><rect class="cls-1" x="13.91" y="765.86" width="81.6" height="13"/><path class="cls-1" d="M12.26,638.36A22.53,22.53,0,0,0,0,618.34v40A22.54,22.54,0,0,0,12.26,638.36Z"/><path class="cls-1" d="M249.56,765.87a22.52,22.52,0,0,0-20.39,13H270A22.52,22.52,0,0,0,249.56,765.87Z"/><polygon class="cls-1" points="966.12 742.69 966.12 778.86 975.07 778.86 1001.92 763.36 966.12 742.69"/><rect class="cls-1" x="922.82" y="265.87" width="81.6" height="45"/><polygon class="cls-1" points="879.93 334.03 915.73 313.37 879.93 292.69 879.93 334.03"/><path class="cls-1" d="M812.48,740.86A22.61,22.61,0,0,0,793,752.12l-2.16,3.74-2.17-3.74a22.49,22.49,0,1,0-35.77,26.74h32.57a22,22,0,0,0,3.2-4.25l2.17-3.75,2.16,3.75a22.48,22.48,0,0,0,3.21,4.25h32.57a22.49,22.49,0,0,0-16.29-38Z"/><circle class="cls-1" cx="985.68" cy="113.36" r="22.5"/><polygon class="cls-1" points="923.23 167.69 923.23 209.03 959.03 188.36 923.23 167.69"/><path class="cls-1" d="M964.88,238.37a22.5,22.5,0,0,0-42-11.25l-2.17,3.74-2.16-3.74a22.51,22.51,0,1,0,0,22.49l2.16-3.74,2.17,3.74a22.49,22.49,0,0,0,42-11.24Z"/><polygon class="cls-1" points="923.23 517.69 923.23 559.03 959.03 538.36 923.23 517.69"/><polygon class="cls-1" points="923.23 778.86 942.58 778.86 923.23 767.69 923.23 778.86"/><path class="cls-1" d="M986.58,340.86a22.58,22.58,0,0,0-19.48,11.26l-2.17,3.74-2.16-3.74a22.5,22.5,0,1,0,0,22.49l2.16-3.75,2.17,3.75a22.5,22.5,0,1,0,19.48-33.75Z"/><path class="cls-1" d="M506,765.87a22.52,22.52,0,0,0-20.39,13h40.78A22.52,22.52,0,0,0,506,765.87Z"/><polygon class="cls-1" points="490.22 67.69 490.22 109.03 526.02 88.36 490.22 67.69"/><polygon class="cls-1" points="915.73 13.36 892.58 0 879.93 0 879.93 34.03 915.73 13.36"/><polygon class="cls-1" points="829.13 13.36 805.98 0 793.33 0 793.33 34.03 829.13 13.36"/><polygon class="cls-1" points="765.67 0 750.03 0 750.03 9.03 765.67 0"/><path class="cls-1" d="M1006.07,463.36a22.52,22.52,0,0,0,22.49,22.5v5h-19.14v45h29.06v-45h-9.9v-5a22.5,22.5,0,0,0,9.9-2.31V443.18a22.47,22.47,0,0,0-32.41,20.18Z"/><polygon class="cls-1" points="1009.42 59.03 1038.48 42.25 1038.48 34.48 1009.42 17.69 1009.42 59.03"/><path class="cls-1" d="M1006.92,655.31a28.12,28.12,0,0,1-5.87,5.56h11.74A27.87,27.87,0,0,1,1006.92,655.31Z"/><path class="cls-1" d="M918.23,90.86H855.79v-5a22.58,22.58,0,0,0,19.48-11.25l2.16-3.75,2.17,3.75a22.5,22.5,0,1,0,0-22.49l-2.16,3.74-2.16-3.74a22.5,22.5,0,1,0-19.5,33.74v5H836.63v45h81.6Z"/><polygon class="cls-1" points="923.23 709.03 959.03 688.36 923.23 667.69 923.23 709.03"/><path class="cls-1" d="M1009.08,627.12l-2.16,3.75-2.17-3.75a22.5,22.5,0,1,0-19.49,33.75v5H966.12v45h72.36v-45h-53.2v-5a22.59,22.59,0,0,0,19.47-11.26l2.17-3.74,2.16,3.74a22.47,22.47,0,0,0,29.4,8.95V618.17a22.51,22.51,0,0,0-29.4,9Z"/><polygon class="cls-1" points="490.22 59.03 526.02 38.37 490.22 17.7 490.22 59.03"/><polygon class="cls-1" points="13.91 342.69 13.91 384.03 49.71 363.36 13.91 342.69"/><polygon class="cls-1" points="138.81 335.86 138.81 290.86 57.21 290.86 57.21 311.92 59.71 313.36 57.21 314.81 57.21 335.86 138.81 335.86"/><path class="cls-1" d="M12.26,438.36A22.53,22.53,0,0,0,0,418.34v40.05A22.54,22.54,0,0,0,12.26,438.36Z"/><polygon class="cls-1" points="13.91 292.69 13.91 334.03 49.71 313.36 13.91 292.69"/><polygon class="cls-1" points="0 334.67 0 342.06 6.41 338.36 0 334.67"/><rect class="cls-1" x="13.91" width="81.6" height="10.87"/><polygon class="cls-1" points="569.32 13.37 546.17 0 533.52 0 533.52 34.03 569.32 13.37"/><polygon class="cls-1" points="232.91 13.37 230.83 14.57 230.83 35.87 312.43 35.87 312.43 0 230.83 0 230.83 12.16 232.91 13.37"/><polygon class="cls-1" points="222.91 13.37 199.76 0 187.11 0 187.11 34.03 222.91 13.37"/><polygon class="cls-1" points="225.83 0 209.76 0 225.83 9.28 225.83 0"/><circle class="cls-1" cx="119.66" cy="413.37" r="22.5"/><polygon class="cls-1" points="273.71 384.03 309.51 363.37 273.71 342.69 273.71 384.03"/><polygon class="cls-1" points="230.41 309.03 266.21 288.37 230.41 267.69 230.41 309.03"/><polygon class="cls-1" points="273.71 334.03 309.51 313.37 273.71 292.69 273.71 334.03"/><polygon class="cls-1" points="187.11 392.69 187.11 434.03 222.91 413.37 187.11 392.69"/><path class="cls-1" d="M314.93,455.31a27.87,27.87,0,0,1-5.87,5.56H320.8A28.12,28.12,0,0,1,314.93,455.31Z"/><polygon class="cls-1" points="187.11 534.03 222.91 513.37 187.11 492.69 187.11 534.03"/><polygon class="cls-1" points="230.41 509.03 266.21 488.37 230.41 467.69 230.41 509.03"/><path class="cls-1" d="M143.81,214.81v21.05h81.6v-45H163v-5a22.58,22.58,0,0,0,19.48-11.25l2.16-3.75,2.16,3.75a22.51,22.51,0,1,0,0-22.49l-2.16,3.74-2.16-3.74A22.5,22.5,0,1,0,163,185.86v5H143.81v21.06l2.5,1.45Z"/><circle class="cls-1" cx="119.66" cy="63.36" r="22.5"/><circle class="cls-1" cx="33.06" cy="63.37" r="22.5"/><path class="cls-1" d="M274.13,489.57v21.3h81.6v-45H293.29v-5a22.61,22.61,0,0,0,19.48-11.26l2.16-3.74,2.17,3.74a22.5,22.5,0,1,0,0-22.49l-2.17,3.74-2.16-3.74a22.5,22.5,0,1,0-19.5,33.75v5H274.13v21.29l2.08,1.2Z"/><polygon class="cls-1" points="187.11 92.69 187.11 134.03 222.91 113.36 187.11 92.69"/><polygon class="cls-1" points="13.91 142.69 13.91 184.03 49.71 163.36 13.91 142.69"/><circle class="cls-1" cx="33.06" cy="238.36" r="22.5"/><polygon class="cls-1" points="100.51 234.03 136.31 213.37 100.51 192.69 100.51 234.03"/><polygon class="cls-1" points="403.62 367.69 403.62 409.03 439.42 388.37 403.62 367.69"/><polygon class="cls-1" points="446.92 184.03 482.72 163.37 446.92 142.69 446.92 184.03"/><polygon class="cls-1" points="533.52 142.69 533.52 184.03 569.32 163.37 533.52 142.69"/><polygon class="cls-1" points="403.62 159.03 439.42 138.37 403.62 117.69 403.62 159.03"/><polygon class="cls-1" points="706.73 92.69 706.73 134.03 742.53 113.36 706.73 92.69"/><path class="cls-1" d="M596,135.86a22.59,22.59,0,0,0,19.49-11.25l2.16-3.75,2.17,3.75a22.51,22.51,0,1,0,0-22.49l-2.17,3.74-2.16-3.74A22.5,22.5,0,1,0,596,135.86Z"/><polygon class="cls-1" points="620.12 42.7 620.12 84.03 655.92 63.37 620.12 42.7"/><rect class="cls-1" x="360.32" y="15.87" width="81.6" height="45"/><polygon class="cls-1" points="403.62 314.81 403.62 335.86 485.22 335.86 485.22 290.86 403.62 290.86 403.62 311.92 406.12 313.37 403.62 314.81"/><polygon class="cls-1" points="273.71 234.03 309.51 213.37 273.71 192.69 273.71 234.03"/><polygon class="cls-1" points="317.01 67.69 317.01 109.03 352.82 88.36 317.01 67.69"/><polygon class="cls-1" points="360.32 334.03 396.12 313.37 360.32 292.69 360.32 334.03"/><circle class="cls-1" cx="336.16" cy="138.36" r="22.5"/><rect class="cls-1" x="317.01" y="190.87" width="81.6" height="45"/><circle class="cls-1" cx="466.07" cy="413.37" r="22.5"/><path class="cls-1" d="M466.07,540.86a22.6,22.6,0,0,0-19.49,11.26l-2.16,3.74-2.17-3.74a22.5,22.5,0,1,0-19.49,33.74v5H403.62v45h81.6v-45H422.78v-5a22.56,22.56,0,0,0,19.47-11.25l2.17-3.75,2.16,3.75a22.5,22.5,0,1,0,19.49-33.75Z"/><polygon class="cls-1" points="533.52 592.7 533.52 634.03 569.32 613.37 533.52 592.7"/><path class="cls-1" d="M639.27,640.86a22.58,22.58,0,0,0-19.48,11.26l-2.17,3.74-2.16-3.74a22.5,22.5,0,1,0,0,22.49l2.16-3.75,2.17,3.75a22.5,22.5,0,1,0,19.48-33.75Z"/><path class="cls-1" d="M444.42,580.31a27.81,27.81,0,0,1-5.87,5.55h11.74A27.57,27.57,0,0,1,444.42,580.31Z"/><polygon class="cls-1" points="706.73 592.69 706.73 634.03 742.53 613.36 706.73 592.69"/><path class="cls-1" d="M509.37,215.86a22.61,22.61,0,0,0-19.49,11.26l-2.16,3.74-2.16-3.74a22.5,22.5,0,1,0,0,22.49l2.16-3.75,2.16,3.75a22.5,22.5,0,1,0,19.49-33.75Z"/><polygon class="cls-1" points="706.73 42.69 706.73 84.03 742.53 63.36 706.73 42.69"/><polygon class="cls-1" points="533.52 542.7 533.52 584.03 569.32 563.37 533.52 542.7"/><polygon class="cls-1" points="793.33 689.81 793.33 710.87 874.93 710.87 874.93 665.87 793.33 665.87 793.33 686.92 795.83 688.36 793.33 689.81"/><path class="cls-1" d="M961.12,715.87V692.93l-42.89,24.76V659l42.89,24.76V660.87h8.35a27.5,27.5,0,1,1,37.45-39.45,27.48,27.48,0,0,1,31.56-8.7V540.86h-34.06v-55h8.35a27.47,27.47,0,0,1,25.71-48.12V48l-34.06,19.66V9l34.06,19.67V0H902.58l23.15,13.36-50.8,29.33V0H816l23.15,13.36-50.8,29.33V0H775.67L745,17.69V0H556.17l23.15,13.36-43.3,25h0l-43.3,25,43.3,25-50.8,29.33V9l43.3,25V0H317.43V40.87h-91.6V17.45L182.11,42.69V0h-81.6V15.87H8.91V0H0V328.89L8.91,334V284l43.3,25V285.86h91.6v55H52.21V317.69l-35.8,20.67,43.3,25L8.91,392.69v-50L0,347.84v65a27.54,27.54,0,0,1,17.26,25.51,27.48,27.48,0,0,1-11.71,22.5h8.36v55H0v63l16.41,9.47L0,597.84v15a27.54,27.54,0,0,1,17.26,25.51A27.55,27.55,0,0,1,0,663.88v115H8.91v-18h91.6v18H223.76a27.5,27.5,0,0,1,51.61,0h78.29a27.49,27.49,0,0,1,47.46-7.44,27.48,27.48,0,0,1,47.45,7.44h31.64a27.51,27.51,0,0,1,51.62,0h40V709l43.3,25V710.87h91.61v55H615.12V742.69l-35.8,20.67,26.85,15.5H746.48a27.48,27.48,0,0,1,22.7-43,27.61,27.61,0,0,1,21.65,10.56,27.49,27.49,0,0,1,44.35,32.44h83.05V759l34.35,19.83h8.54V734l50.8,29.33-26.85,15.5h53.41v-63ZM918.23,567.69V509L969,538.36Zm68.35-176.83a27.6,27.6,0,0,1-21.65-10.55,27.51,27.51,0,1,1,0-33.89,27.5,27.5,0,1,1,21.65,44.44ZM920.73,255.31a27.5,27.5,0,1,1,0-33.89,27.49,27.49,0,1,1,37.43,39.45h51.26v55h-86.6v1.58l-2.09-1.2-45.8,26.44V284l42.89,24.76V260.87h8.79A27.91,27.91,0,0,1,920.73,255.31Zm-2.5-37.62V159L969,188.36ZM985.68,85.86a27.5,27.5,0,1,1-27.5,27.5A27.53,27.53,0,0,1,985.68,85.86ZM788.33,84l43.3,25V85.86H840a27.49,27.49,0,1,1,37.45-39.44,27.49,27.49,0,1,1,37.45,39.44h8.35v55h-91.6V117.69l-43.3,25Zm50.8,129.33-50.8,29.33V184Zm-30,72.51a27.5,27.5,0,1,1-27.5,27.5A27.53,27.53,0,0,1,809.13,285.87Zm30,77.49-50.8,29.33V334Zm-42.45,75a27.5,27.5,0,1,1-27.5-27.5A27.54,27.54,0,0,1,796.68,438.37Zm42.45,75-50.8,29.33v-50l-43.3,25V459l45.8,26.45,2.5-1.45v2.89ZM528.52,492.69V434l43.3,25V435.87h8.36a27.49,27.49,0,1,1,37.44-39.45,27.5,27.5,0,1,1,37.45,39.45h8.35v55h-91.6V467.69Zm129.9-175V259l45.81,26.45,2.5-1.45v2.89l45.8,26.44-50.8,29.33v-50ZM750,240.86H658.42V217.69l-43.3,25V184l43.3,25V185.86H750Zm-127.41,97.5h0l43.3,25-50.8,29.33v-50l-43.3,25V309ZM658.42,509l50.81,29.33-50.81,29.33Zm43.31-66.34V384l50.8,29.33Zm0-350V34l50.8,29.33-43.3,25,43.3,25-50.8,29.33ZM615.12,34l50.8,29.33-50.8,29.33ZM596,85.86a27.6,27.6,0,0,1,21.65,10.56,27.5,27.5,0,1,1,0,33.89A27.5,27.5,0,1,1,596,85.86ZM528.52,134l50.8,29.33-50.8,29.33Zm-35.8,29.33-50.8,29.33v-50l-43.3,25V109l45.8,26.45,2.5-1.45v2.89ZM355.32,10.87h91.6v55h-91.6ZM312,59l50.81,29.33L312,117.69Zm24.15,51.83a27.5,27.5,0,1,1-27.5,27.5A27.53,27.53,0,0,1,336.16,110.86ZM268.71,184,312,209V185.87h91.61v55H312V217.69l-43.3,25ZM398.62,340.86V317.69l-43.3,25V284l43.3,25V285.86h91.6v55Zm50.8,47.5-50.8,29.33V359Zm-88.69,72.51v55h-91.6V492.45l-36.22,20.91h0l-50.8,29.33V484l43.3,25V459l43.72,25.25V460.87h8.36a27.49,27.49,0,1,1,37.44-39.45,27.5,27.5,0,1,1,37.45,39.45ZM319.51,313.36l-43.3,25,43.3,25-50.8,29.33v-100l-43.3,25V259l45.8,26.45,2.5-1.45v2.89Zm-86.6,100-50.8,29.33V384ZM182.11,84l50.8,29.33-50.8,29.33Zm-149,181.83a27.5,27.5,0,1,1,27.5-27.5A27.52,27.52,0,0,1,33.06,265.86ZM8.91,192.69V134l50.8,29.33ZM33.06,90.87a27.5,27.5,0,1,1,27.5-27.5A27.53,27.53,0,0,1,33.06,90.87Zm86.6-55a27.5,27.5,0,1,1-27.5,27.5A27.54,27.54,0,0,1,119.66,35.86Zm19.15,205V217.7l-43.3,25V184l43.3,25V185.86h8.36a27.49,27.49,0,1,1,37.44-39.44,27.49,27.49,0,1,1,37.45,39.44h8.35v55Zm-19.15,145a27.5,27.5,0,1,1-27.5,27.5A27.53,27.53,0,0,1,119.66,385.87Zm0,155a27.5,27.5,0,1,1,27.5-27.5A27.54,27.54,0,0,1,119.66,540.87Zm26.65,72.5L95.51,642.7V584ZM52.21,459,103,488.37,52.21,517.7Zm134.9,256.84H95.51V692.7l-43.3,25V659l43.3,25V660.87h91.6Zm-8.35-127.5a27.5,27.5,0,0,1,49.15-17,27.5,27.5,0,1,1,0,33.89,27.49,27.49,0,0,1-49.15-16.94Zm46.65,129.32V609l50.8,29.33-43.3,25,43.3,25Zm67.45,23.17a27.5,27.5,0,1,1,27.5-27.5A27.53,27.53,0,0,1,292.86,740.86Zm62.46,1.83V684l50.8,29.33Zm86.6,0V684l50.8,29.33Zm39.94-156.83h8.36v55h-91.6V617.69l-35.8,20.67h0L312,667.69V609l43.31,25V584l43.3,25V585.86H407a27.49,27.49,0,1,1,37.45-39.44,27.49,27.49,0,1,1,37.44,39.44Zm-15.79-145a27.5,27.5,0,1,1,27.5-27.5A27.54,27.54,0,0,1,466.07,440.87Zm43.3-175a27.59,27.59,0,0,1-21.65-10.55,27.51,27.51,0,1,1,0-33.89,27.5,27.5,0,1,1,21.65,44.44Zm19.15,326.83V534l50.8,29.33-43.3,25,43.3,25-50.8,29.33Zm110.75,98.17a27.62,27.62,0,0,1-21.65-10.55,27.51,27.51,0,1,1,0-33.89,27.5,27.5,0,1,1,21.65,44.44Zm62.46-48.17V584l50.8,29.33Zm178.2,73.18h-91.6V692.69l-43.3,25V659l43.3,25V660.87h91.6Zm-24.15-100a27.59,27.59,0,0,1-21.65-10.55,27.51,27.51,0,1,1,0-33.89,27.5,27.5,0,1,1,21.65,44.44Zm19.15-150V442.69l-43.3,25V409l43.3,25V410.87h91.6v55Z"/><polygon class="cls-1" points="879.93 439.81 879.93 460.87 961.53 460.87 961.53 415.87 879.93 415.87 879.93 436.92 882.43 438.36 879.93 439.81"/><polygon class="cls-1" points="836.63 459.03 872.43 438.36 836.63 417.69 836.63 459.03"/><polygon class="cls-1" points="750.03 709.03 785.83 688.36 750.03 667.69 750.03 709.03"/><path class="cls-1" d="M855.78,565.86a22.61,22.61,0,0,0-19.49,11.26l-2.16,3.74L832,577.12a22.5,22.5,0,1,0,0,22.49l2.16-3.75,2.16,3.75a22.5,22.5,0,1,0,19.49-33.75Z"/><path class="cls-1" d="M230.08,599.61a22.51,22.51,0,1,0,0-22.49l-2.17,3.74-2.16-3.74a22.51,22.51,0,1,0,0,22.49l2.16-3.74Z"/><path class="cls-1" d="M184.61,180.31a27.57,27.57,0,0,1-5.87,5.55h11.74A27.57,27.57,0,0,1,184.61,180.31Z"/><polygon class="cls-1" points="57.21 709.03 93.01 688.37 57.21 667.7 57.21 709.03"/><polygon class="cls-1" points="57.21 467.69 57.21 509.04 93.01 488.37 57.21 467.69"/><polygon class="cls-1" points="100.51 689.81 100.51 710.87 182.11 710.87 182.11 665.87 100.51 665.87 100.51 686.92 103.01 688.37 100.51 689.81"/><polygon class="cls-1" points="360.32 634.03 396.12 613.37 360.32 592.7 360.32 634.03"/><polygon class="cls-1" points="100.51 592.7 100.51 634.03 136.31 613.37 100.51 592.7"/><path class="cls-1" d="M877.43,80.31a27.57,27.57,0,0,1-5.87,5.55H883.3A27.57,27.57,0,0,1,877.43,80.31Z"/><polygon class="cls-1" points="230.41 617.7 230.41 659.03 266.21 638.37 230.41 617.7"/><polygon class="cls-1" points="317.01 659.03 352.82 638.37 317.01 617.7 317.01 659.03"/><polygon class="cls-1" points="360.32 692.7 360.32 734.03 396.12 713.37 360.32 692.7"/><polygon class="cls-1" points="446.92 692.7 446.92 734.03 482.72 713.37 446.92 692.7"/><circle class="cls-1" cx="292.86" cy="713.36" r="22.5"/><polygon class="cls-1" points="230.41 667.7 230.41 709.03 266.21 688.37 230.41 667.7"/><circle class="cls-1" cx="119.66" cy="513.37" r="22.5"/><polygon class="cls-1" points="663.42 517.7 663.42 559.03 699.23 538.36 663.42 517.7"/><polygon class="cls-1" points="663.42 309.03 699.23 288.37 663.42 267.69 663.42 309.03"/><polygon class="cls-1" points="750.03 509.03 785.83 488.36 750.03 467.69 750.03 509.03"/><polygon class="cls-1" points="706.73 292.69 706.73 334.03 742.53 313.36 706.73 292.69"/><polygon class="cls-1" points="620.12 234.03 655.92 213.37 620.12 192.69 620.12 234.03"/><polygon class="cls-1" points="829.13 213.36 793.33 192.69 793.33 234.03 829.13 213.36"/><circle class="cls-1" cx="769.18" cy="438.37" r="22.5"/><polygon class="cls-1" points="576.82 317.69 576.82 359.03 612.62 338.37 576.82 317.69"/><circle class="cls-1" cx="809.13" cy="313.37" r="22.5"/><rect class="cls-1" x="663.42" y="190.86" width="81.6" height="45"/><polygon class="cls-1" points="620.12 384.03 655.92 363.37 620.12 342.69 620.12 384.03"/><polygon class="cls-1" points="829.13 363.36 793.33 342.69 793.33 384.03 829.13 363.36"/><polygon class="cls-1" points="793.33 534.03 829.13 513.36 793.33 492.69 793.33 534.03"/><polygon class="cls-1" points="793.33 134.03 829.13 113.36 793.33 92.69 793.33 134.03"/><polygon class="cls-1" points="706.73 392.69 706.73 434.03 742.53 413.36 706.73 392.69"/><polygon class="cls-1" points="533.52 484.03 569.32 463.37 533.52 442.69 533.52 484.03"/><path class="cls-1" d="M617.62,430.31a27.63,27.63,0,0,1-5.87,5.56h11.74A28.12,28.12,0,0,1,617.62,430.31Z"/><path class="cls-1" d="M658.42,440.87H596v-5a22.61,22.61,0,0,0,19.48-11.26l2.16-3.74,2.17,3.74a22.5,22.5,0,1,0,0-22.49l-2.17,3.74-2.16-3.74A22.5,22.5,0,1,0,596,435.87v5H576.82v45h81.6Z"/><path class="cls-2" d="M831.63,140.86h91.6v-55h-8.35a27.49,27.49,0,1,0-37.45-39.44A27.49,27.49,0,1,0,840,85.86h-8.35V109l-43.3-25v58.66l43.3-25Zm5-50h19.14v-5a22.5,22.5,0,1,1,19.5-33.74l2.16,3.74,2.16-3.74a22.5,22.5,0,1,1,0,22.49l-2.17-3.75-2.16,3.75a22.58,22.58,0,0,1-19.48,11.25v5h62.44v45h-81.6Zm46.67-5H871.56a27.57,27.57,0,0,0,5.87-5.55A27.57,27.57,0,0,0,883.3,85.86Zm-90,48.17V92.69l35.8,20.67Z"/><path class="cls-2" d="M596,140.86a27.59,27.59,0,0,0,21.65-10.55,27.51,27.51,0,1,0,0-33.89A27.5,27.5,0,1,0,596,140.86Zm0-50a22.6,22.6,0,0,1,19.49,11.26l2.16,3.74,2.17-3.74a22.5,22.5,0,1,1,0,22.49l-2.17-3.75-2.16,3.75A22.5,22.5,0,1,1,596,90.86Z"/><path class="cls-2" d="M658.42,209l-43.3-25v58.66l43.3-25v23.17H750v-55H658.42Zm-38.3,25V192.69l35.8,20.67Zm43.3-43.17H745v45H663.42Z"/><path class="cls-2" d="M809.13,340.87a27.5,27.5,0,1,0-27.5-27.5A27.54,27.54,0,0,0,809.13,340.87Zm0-50a22.5,22.5,0,1,1-22.5,22.5A22.52,22.52,0,0,1,809.13,290.87Z"/><path class="cls-2" d="M741.68,438.37a27.5,27.5,0,1,0,27.5-27.5A27.53,27.53,0,0,0,741.68,438.37Zm27.5-22.5a22.5,22.5,0,1,1-22.5,22.5A22.53,22.53,0,0,1,769.18,415.87Z"/><path class="cls-2" d="M922.9,249.61l-2.17-3.74-2.16,3.74a22.5,22.5,0,1,1,0-22.49l2.16,3.74,2.17-3.74a22.5,22.5,0,1,1,19.48,33.75h15.78a27.49,27.49,0,1,0-37.43-39.45,27.51,27.51,0,1,0,0,33.89,27.91,27.91,0,0,0,5.88,5.56h15.77A22.58,22.58,0,0,1,922.9,249.61Z"/><path class="cls-2" d="M917.82,308.79,874.93,284v58.66l45.8-26.44,2.09,1.2v-1.58h86.6v-55h-91.6ZM879.93,334V292.69l35.8,20.67Zm42.89-68.16h81.6v45h-81.6Z"/><path class="cls-2" d="M663.42,490.87v-55h-8.35a27.5,27.5,0,1,0-37.45-39.45,27.49,27.49,0,1,0-37.44,39.45h-8.36V459l-43.3-25v58.66l43.3-25v23.18Zm-86.6-50H596v-5a22.5,22.5,0,1,1,19.5-33.75l2.16,3.74,2.17-3.74a22.51,22.51,0,1,1,0,22.49l-2.17-3.74-2.16,3.74A22.61,22.61,0,0,1,596,435.87v5h62.44v45h-81.6Zm46.67-5H611.75a27.63,27.63,0,0,0,5.87-5.56A28.12,28.12,0,0,0,623.49,435.87Zm-90,48.16V442.69l35.8,20.67Z"/><path class="cls-2" d="M536.87,238.36a27.49,27.49,0,0,0-49.15-16.94,27.5,27.5,0,1,0,0,33.89,27.5,27.5,0,0,0,49.15-16.95Zm-27.5,22.5a22.6,22.6,0,0,1-19.49-11.25l-2.16-3.75-2.16,3.75a22.51,22.51,0,1,1,0-22.49l2.16,3.74,2.16-3.74a22.5,22.5,0,1,1,19.49,33.74Z"/><polygon class="cls-2" points="490.22 285.86 398.62 285.86 398.62 309.03 403.62 311.92 403.62 290.86 485.22 290.86 485.22 335.86 403.62 335.86 403.62 314.81 398.62 317.69 398.62 340.86 490.22 340.86 490.22 285.86"/><path class="cls-2" d="M364.08,438.37a27.5,27.5,0,0,0-49.15-16.95,27.49,27.49,0,1,0-37.44,39.45h-8.36v23.41l5,2.88V465.87h19.14v-5a22.5,22.5,0,1,1,19.5-33.75l2.16,3.74,2.17-3.74a22.51,22.51,0,1,1,0,22.49l-2.17-3.74-2.16,3.74a22.61,22.61,0,0,1-19.48,11.26v5h62.44v45h-81.6v-21.3l-5,2.88v23.42h91.6v-55h-8.35A27.51,27.51,0,0,0,364.08,438.37Zm-55,22.5a27.87,27.87,0,0,0,5.87-5.56,28.12,28.12,0,0,0,5.87,5.56Z"/><path class="cls-2" d="M466.07,535.86a27.6,27.6,0,0,0-21.65,10.56A27.49,27.49,0,1,0,407,585.86h-8.35V609l-43.3-25v50l7.5,4.33,35.8-20.67v23.17h91.6v-55h-8.36a27.49,27.49,0,0,0-15.79-50ZM360.32,634V592.69l35.8,20.67Zm105.75-48.17a22.59,22.59,0,0,1-19.49-11.25l-2.16-3.75-2.17,3.75a22.56,22.56,0,0,1-19.47,11.25v5h62.44v45h-81.6v-45h19.14v-5a22.5,22.5,0,1,1,19.49-33.74l2.17,3.74,2.16-3.74a22.5,22.5,0,1,1,19.49,33.74Zm-15.78,0H438.55a27.81,27.81,0,0,0,5.87-5.55A27.57,27.57,0,0,0,450.29,585.86Z"/><path class="cls-2" d="M466.07,385.87a27.5,27.5,0,1,0,27.5,27.5A27.53,27.53,0,0,0,466.07,385.87Zm0,50a22.5,22.5,0,1,1,22.5-22.5A22.53,22.53,0,0,1,466.07,435.87Z"/><path class="cls-2" d="M506,760.87a27.56,27.56,0,0,0-25.81,18h5.42a22.5,22.5,0,0,1,40.78,0h5.42A27.55,27.55,0,0,0,506,760.87Z"/><path class="cls-2" d="M292.86,685.86a27.5,27.5,0,1,0,27.5,27.5A27.54,27.54,0,0,0,292.86,685.86Zm0,50a22.5,22.5,0,1,1,22.5-22.5A22.53,22.53,0,0,1,292.86,735.86Z"/><path class="cls-2" d="M249.56,760.87a27.54,27.54,0,0,0-25.8,18h5.41a22.5,22.5,0,0,1,40.78,0h5.42A27.55,27.55,0,0,0,249.56,760.87Z"/><path class="cls-2" d="M17.26,638.36A27.54,27.54,0,0,0,0,612.85v5.49a22.53,22.53,0,0,1,12.26,20A22.54,22.54,0,0,1,0,658.39v5.49A27.55,27.55,0,0,0,17.26,638.36Z"/><path class="cls-2" d="M119.66,485.87a27.5,27.5,0,1,0,27.5,27.5A27.53,27.53,0,0,0,119.66,485.87Zm0,50a22.5,22.5,0,1,1,22.5-22.5A22.53,22.53,0,0,1,119.66,535.87Z"/><path class="cls-2" d="M119.66,440.87a27.5,27.5,0,1,0-27.5-27.5A27.54,27.54,0,0,0,119.66,440.87Zm0-50a22.5,22.5,0,1,1-22.5,22.5A22.53,22.53,0,0,1,119.66,390.87Z"/><path class="cls-2" d="M1001.07,463.36a27.49,27.49,0,0,0,11.7,22.5h-8.35v55h34.06v-5h-29.06v-45h19.14v-5a22.5,22.5,0,1,1,9.92-42.68v-5.44a27.43,27.43,0,0,0-37.41,25.62Z"/><path class="cls-2" d="M1028.58,490.86h9.9v-7.31a22.5,22.5,0,0,1-9.9,2.31Z"/><path class="cls-2" d="M986.58,335.86a27.61,27.61,0,0,0-21.65,10.56,27.5,27.5,0,1,0,0,33.89,27.5,27.5,0,1,0,21.65-44.45Zm0,50a22.57,22.57,0,0,1-19.48-11.25l-2.17-3.75-2.16,3.75a22.51,22.51,0,1,1,0-22.49l2.16,3.74,2.17-3.74a22.5,22.5,0,1,1,19.48,33.74Z"/><polygon class="cls-2" points="966.53 410.87 874.93 410.87 874.93 434.03 879.93 436.92 879.93 415.87 961.53 415.87 961.53 460.87 879.93 460.87 879.93 439.81 874.93 442.69 874.93 465.87 966.53 465.87 966.53 410.87"/><path class="cls-2" d="M985.68,140.86a27.5,27.5,0,1,0-27.5-27.5A27.52,27.52,0,0,0,985.68,140.86Zm0-50a22.5,22.5,0,1,1-22.5,22.5A22.53,22.53,0,0,1,985.68,90.86Z"/><path class="cls-2" d="M855.78,560.86a27.6,27.6,0,0,0-21.65,10.56,27.5,27.5,0,1,0,0,33.89,27.5,27.5,0,1,0,21.65-44.45Zm0,50a22.6,22.6,0,0,1-19.49-11.25l-2.16-3.75L832,599.61a22.51,22.51,0,1,1,0-22.49l2.16,3.74,2.16-3.74a22.5,22.5,0,1,1,19.49,33.74Z"/><polygon class="cls-2" points="788.33 684.03 793.33 686.92 793.33 665.87 874.93 665.87 874.93 710.87 793.33 710.87 793.33 689.81 788.33 692.69 788.33 715.87 879.93 715.87 879.93 660.87 788.33 660.87 788.33 684.03"/><path class="cls-2" d="M639.27,635.86a27.61,27.61,0,0,0-21.65,10.56,27.5,27.5,0,1,0,0,33.89,27.5,27.5,0,1,0,21.65-44.45Zm0,50a22.57,22.57,0,0,1-19.48-11.25l-2.17-3.75-2.16,3.75a22.51,22.51,0,1,1,0-22.49l2.16,3.74,2.17-3.74a22.5,22.5,0,1,1,19.48,33.74Z"/><polygon class="cls-2" points="620.12 715.87 701.73 715.87 701.73 760.87 620.12 760.87 620.12 739.81 615.12 742.7 615.12 765.87 706.73 765.87 706.73 710.87 615.12 710.87 615.12 734.03 620.12 736.92 620.12 715.87"/><path class="cls-2" d="M422.77,760.86a27.6,27.6,0,0,0-21.65,10.56,27.49,27.49,0,0,0-47.46,7.44h5.42A22.49,22.49,0,0,1,399,777.12l1,1.74h2.31l1-1.74a22.49,22.49,0,0,1,39.88,1.74h5.41A27.55,27.55,0,0,0,422.77,760.86Z"/><path class="cls-2" d="M790.83,770.86l-2.17,3.75a22,22,0,0,1-3.2,4.25H796.2a22.48,22.48,0,0,1-3.21-4.25Z"/><path class="cls-2" d="M812.48,735.86a27.6,27.6,0,0,0-21.65,10.56,27.49,27.49,0,0,0-49.15,16.94,27.28,27.28,0,0,0,4.8,15.5h6.41a22.49,22.49,0,1,1,35.77-26.74l2.17,3.74,2.16-3.74a22.49,22.49,0,1,1,35.78,26.74h6.41a27.48,27.48,0,0,0-22.7-43Z"/><path class="cls-2" d="M1009.08,649.61l-2.16-3.74-2.17,3.74a22.59,22.59,0,0,1-19.47,11.26v5h53.2v-7.31a22.47,22.47,0,0,1-29.4-8.95Zm-8,11.26a28.12,28.12,0,0,0,5.87-5.56,27.87,27.87,0,0,0,5.87,5.56Z"/><path class="cls-2" d="M1006.92,621.42a27.5,27.5,0,1,0-37.45,39.45h-8.35v22.92L918.23,659v58.66l42.89-24.76v22.94h77.36v-5H966.12v-45h19.14v-5a22.5,22.5,0,1,1,19.49-33.75l2.17,3.75,2.16-3.75a22.51,22.51,0,0,1,29.4-9v-5.45a27.48,27.48,0,0,0-31.56,8.7ZM923.23,709V667.69L959,688.36Z"/><path class="cls-2" d="M227.91,605.31a27.51,27.51,0,1,0,0-33.89,27.51,27.51,0,1,0,0,33.89Zm-21.65,5.56a22.5,22.5,0,1,1,19.49-33.75l2.16,3.74,2.17-3.74a22.5,22.5,0,1,1,0,22.49l-2.17-3.74-2.16,3.74A22.6,22.6,0,0,1,206.26,610.87Z"/><polygon class="cls-2" points="95.51 684.03 100.51 686.92 100.51 665.87 182.11 665.87 182.11 710.87 100.51 710.87 100.51 689.81 95.51 692.7 95.51 715.87 187.11 715.87 187.11 660.87 95.51 660.87 95.51 684.03"/><polygon class="cls-2" points="8.91 760.86 8.91 778.86 13.91 778.86 13.91 765.86 95.51 765.86 95.51 778.86 100.51 778.86 100.51 760.86 8.91 760.86"/><path class="cls-2" d="M13.91,460.86H5.55a27.48,27.48,0,0,0,11.71-22.5A27.54,27.54,0,0,0,0,412.85v5.49a22.53,22.53,0,0,1,12.26,20A22.54,22.54,0,0,1,0,458.39v7.47H8.91v45H0v5H13.91Z"/><path class="cls-2" d="M230.41,185.86h-8.35a27.49,27.49,0,1,0-37.45-39.44,27.49,27.49,0,1,0-37.44,39.44h-8.36V209l5,2.89V190.86H163v-5a22.5,22.5,0,1,1,19.5-33.74l2.16,3.74,2.16-3.74a22.5,22.5,0,1,1,0,22.49l-2.16-3.75-2.16,3.75A22.58,22.58,0,0,1,163,185.86v5h62.44v45h-81.6V214.81l-5,2.89v23.16h91.6Zm-51.67,0a27.57,27.57,0,0,0,5.87-5.55,27.57,27.57,0,0,0,5.87,5.55Z"/><path class="cls-2" d="M33.06,35.87a27.5,27.5,0,1,0,27.5,27.5A27.52,27.52,0,0,0,33.06,35.87Zm0,50a22.5,22.5,0,1,1,22.5-22.5A22.53,22.53,0,0,1,33.06,85.87Z"/><path class="cls-2" d="M119.66,90.86a27.5,27.5,0,1,0-27.5-27.5A27.53,27.53,0,0,0,119.66,90.86Zm0-50a22.5,22.5,0,1,1-22.5,22.5A22.53,22.53,0,0,1,119.66,40.86Z"/><path class="cls-2" d="M336.16,165.86a27.5,27.5,0,1,0-27.5-27.5A27.52,27.52,0,0,0,336.16,165.86Zm0-50a22.5,22.5,0,1,1-22.5,22.5A22.53,22.53,0,0,1,336.16,115.86Z"/><path class="cls-2" d="M33.06,210.86a27.5,27.5,0,1,0,27.5,27.5A27.53,27.53,0,0,0,33.06,210.86Zm0,50a22.5,22.5,0,1,1,22.5-22.5A22.52,22.52,0,0,1,33.06,260.86Z"/><polygon class="cls-2" points="57.21 290.86 138.81 290.86 138.81 335.86 57.21 335.86 57.21 314.81 52.21 317.69 52.21 340.86 143.81 340.86 143.81 285.86 52.21 285.86 52.21 309.03 57.21 311.92 57.21 290.86"/><polygon class="cls-2" points="100.51 15.87 100.51 0 95.51 0 95.51 10.87 13.91 10.87 13.91 0 8.91 0 8.91 15.87 100.51 15.87"/><path class="cls-2" d="M446.92,10.87h-91.6v55h91.6Zm-5,50h-81.6v-45h81.6Z"/><polygon class="cls-2" points="230.83 12.16 230.83 0 225.83 0 225.83 9.28 230.83 12.16"/><polygon class="cls-2" points="230.83 35.87 230.83 14.57 225.83 17.45 225.83 40.87 317.43 40.87 317.43 0 312.43 0 312.43 35.87 230.83 35.87"/><path class="cls-2" d="M103,688.37l-2.5-1.45-5-2.89-43.3-25V717.7l43.3-25,5-2.89ZM57.21,709V667.7L93,688.37Z"/><path class="cls-2" d="M52.21,459V517.7L103,488.37Zm5,8.67L93,488.37,57.21,509Z"/><path class="cls-2" d="M95.51,642.7l50.8-29.33L95.51,584Zm5-50,35.8,20.67L100.51,634Z"/><path class="cls-2" d="M146.31,213.37l-2.5-1.45-5-2.89-43.3-25V242.7l43.3-25,5-2.89ZM100.51,234V192.7l35.8,20.67Z"/><path class="cls-2" d="M225.41,509l-43.3-25v58.66l50.8-29.33h0l-7.5,4.33Zm-38.3,25V492.69l35.8,20.67Z"/><path class="cls-2" d="M182.11,442.69l50.8-29.33L182.11,384Zm5-50,35.8,20.67L187.11,434Z"/><path class="cls-2" d="M182.11,84v58.66l50.8-29.33Zm5,8.66,35.8,20.67L187.11,134Z"/><polygon class="cls-2" points="225.83 17.45 230.83 14.57 232.91 13.37 230.83 12.16 225.83 9.28 209.76 0 199.76 0 222.91 13.37 187.11 34.03 187.11 0 182.11 0 182.11 42.7 225.83 17.45"/><path class="cls-2" d="M232.91,663.36l-7.5,4.33v50l50.8-29.33Zm-2.5,4.33,35.8,20.67L230.41,709Z"/><path class="cls-2" d="M276.21,638.36,225.41,609v58.66l7.5-4.33Zm-45.8-20.67,35.8,20.67L230.41,659Z"/><path class="cls-2" d="M276.21,488.36l-2.08-1.2-5-2.88L225.41,459v58.66l7.5-4.33,36.22-20.91,5-2.88ZM230.41,509V467.69l35.8,20.67Z"/><path class="cls-2" d="M271.21,285.48,225.41,259v58.66l43.3-25V334l7.5,4.33,43.3-25-45.8-26.44V284ZM230.41,309V267.69l35.8,20.67Zm79.1,4.33L273.71,334V292.69Z"/><path class="cls-2" d="M268.71,342.69v50l50.8-29.33-43.3-25-7.5-4.33Zm5,41.34V342.69l35.8,20.67Z"/><path class="cls-2" d="M312,240.87h91.61v-55H312V209l-43.3-25v58.66l43.3-25Zm5-50h81.61v45H317ZM273.71,234V192.69l35.8,20.67Z"/><path class="cls-2" d="M312,609v58.66l50.81-29.33h0l-7.5-4.33Zm5,50V617.69l35.81,20.67Z"/><path class="cls-2" d="M312,59v58.66l50.81-29.33Zm5,8.66,35.81,20.67L317,109Z"/><path class="cls-2" d="M355.32,742.69l50.8-29.33L355.32,684Zm5-50,35.8,20.67L360.32,734Z"/><path class="cls-2" d="M406.12,313.36l-2.5-1.44-5-2.89-43.3-25v58.66l43.3-25,5-2.88ZM360.32,334V292.69l35.8,20.67Z"/><path class="cls-2" d="M398.62,417.69l50.8-29.33L398.62,359Zm5-50,35.8,20.67L403.62,409Z"/><path class="cls-2" d="M446.92,134l-2.5,1.45L398.62,109v58.66l43.3-25v50l50.8-29.33-45.8-26.44Zm-43.3,25V117.69l35.8,20.67Zm79.1,4.33L446.92,184V142.69Z"/><path class="cls-2" d="M441.92,742.69l50.8-29.33L441.92,684Zm5-50,35.8,20.67L446.92,734Z"/><path class="cls-2" d="M485.22,117.69,536,88.36l-43.3-25-7.5,4.33Zm5-50L526,88.36,490.22,109Z"/><path class="cls-2" d="M528.52,34,485.22,9V67.69l7.5-4.33,43.3-25h0l-7.5,4.33Zm-38.3,25V17.69L526,38.36Z"/><path class="cls-2" d="M536,588.36l-7.5,4.33v50l50.8-29.33Zm-2.5,4.33,35.8,20.67L533.52,634Z"/><path class="cls-2" d="M579.32,563.36,528.52,534v58.66l7.5-4.33Zm-45.8-20.67,35.8,20.67L533.52,584Z"/><path class="cls-2" d="M528.52,134v58.66l50.8-29.33Zm5,8.66,35.8,20.67L533.52,184Z"/><polygon class="cls-2" points="528.52 42.7 536.02 38.37 579.32 13.37 556.17 0 546.17 0 569.32 13.37 533.52 34.03 533.52 0 528.52 0 528.52 34.03 528.52 42.7"/><polygon class="cls-2" points="571.82 767.7 571.82 778.86 576.82 778.86 576.82 767.7 596.17 778.86 606.17 778.86 579.32 763.37 571.82 767.7"/><path class="cls-2" d="M615.12,742.69l5-2.88,2.5-1.45-2.5-1.44-5-2.89-43.3-25v58.66l7.5-4.33Zm-38.3-25,35.8,20.67L576.82,759Z"/><path class="cls-2" d="M571.82,367.69l43.3-25V334l7.5,4.33h0L571.82,309Zm5-50,35.8,20.67L576.82,359Z"/><path class="cls-2" d="M615.12,342.69v50l50.8-29.33-43.3-25-7.5-4.33Zm5,41.34V342.69l35.8,20.67Z"/><path class="cls-2" d="M615.12,34V92.69l50.8-29.33Zm5,8.66,35.8,20.67L620.12,84Z"/><path class="cls-2" d="M658.42,509v58.66l50.81-29.33Zm5,8.66,35.81,20.67L663.42,559Z"/><path class="cls-2" d="M752.53,313.36l-45.8-26.44V284l-2.5,1.45L658.42,259v58.66l43.31-25v50Zm-45.8-20.67,35.8,20.67L706.73,334ZM663.42,309V267.69l35.81,20.67Z"/><path class="cls-2" d="M701.73,584v58.66l50.8-29.33Zm5,8.66,35.8,20.67L706.73,634Z"/><path class="cls-2" d="M701.73,384v58.66l50.8-29.33Zm5,8.66,35.8,20.67L706.73,434Z"/><path class="cls-2" d="M709.23,88.36l-7.5,4.33v50l50.8-29.33Zm-2.5,4.33,35.8,20.67L706.73,134Z"/><path class="cls-2" d="M752.53,63.36,701.73,34V92.69l7.5-4.33Zm-45.8-20.67,35.8,20.67L706.73,84Z"/><path class="cls-2" d="M795.83,688.36l-2.5-1.44-5-2.89L745,659v58.66l43.3-25,5-2.88ZM750,709V667.69l35.8,20.67Z"/><path class="cls-2" d="M790.83,485.48,745,459v58.66l43.3-25v50l50.8-29.33-45.8-26.44V484ZM750,509V467.69l35.8,20.67Zm79.1,4.33L793.33,534V492.69Z"/><polygon class="cls-2" points="775.67 0 765.67 0 750.03 9.03 750.03 0 745.03 0 745.03 17.69 775.67 0"/><path class="cls-2" d="M788.33,392.69l50.8-29.33L788.33,334Zm40.8-29.33L793.33,384V342.69Z"/><path class="cls-2" d="M839.13,213.36,788.33,184v58.66Zm-10,0L793.33,234V192.69Z"/><polygon class="cls-2" points="839.13 13.36 815.98 0 805.98 0 829.13 13.36 793.33 34.03 793.33 0 788.33 0 788.33 42.69 839.13 13.36"/><path class="cls-2" d="M882.43,438.36l-2.5-1.44-5-2.89-43.3-25v58.66l43.3-25,5-2.88ZM836.63,459V417.69l35.8,20.67Z"/><polygon class="cls-2" points="925.73 13.36 902.58 0 892.58 0 915.73 13.36 879.93 34.03 879.93 0 874.93 0 874.93 42.69 925.73 13.36"/><polygon class="cls-2" points="961.12 734.03 961.12 778.86 966.12 778.86 966.12 742.69 1001.92 763.36 975.07 778.86 985.07 778.86 1011.92 763.36 961.12 734.03"/><polygon class="cls-2" points="918.23 778.86 923.23 778.86 923.23 767.69 942.58 778.86 952.58 778.86 918.23 759.03 918.23 778.86"/><path class="cls-2" d="M918.23,567.69,969,538.36,918.23,509Zm5-50L959,538.36,923.23,559Z"/><path class="cls-2" d="M918.23,159v58.66L969,188.36Zm5,8.66L959,188.36,923.23,209Z"/><polygon class="cls-2" points="1004.42 67.69 1038.48 48.03 1038.48 42.25 1009.42 59.03 1009.42 17.69 1038.48 34.48 1038.48 28.7 1004.42 9.03 1004.42 67.69"/><polygon class="cls-2" points="0 578.89 0 584.67 6.41 588.36 0 592.06 0 597.84 16.41 588.36 0 578.89"/><polygon class="cls-2" points="8.91 334.03 0 328.89 0 334.67 6.41 338.36 0 342.06 0 347.84 8.91 342.69 8.91 334.03"/><path class="cls-2" d="M8.91,392.69l50.8-29.33-43.3-25-7.5,4.33Zm5-50,35.8,20.67L13.91,384Z"/><path class="cls-2" d="M16.41,338.36l35.8-20.67,5-2.88,2.5-1.45-2.5-1.44-5-2.89L8.91,284v58.66Zm-2.5-45.67,35.8,20.67L13.91,334Z"/><path class="cls-2" d="M8.91,134v58.66l50.8-29.33Zm5,8.66,35.8,20.67L13.91,184Z"/></g></g></svg>