<svg xmlns="http://www.w3.org/2000/svg" viewBox="0 0 1038.48 778.86"><defs><style>.cls-1{fill:none;}.cls-2{fill:lime;}</style></defs><title>Element 33</title><g id="Ebene_2" data-name="Ebene 2"><g id="Ebene_1-2" data-name="Ebene 1"><path class="cls-1" d="M1006.92,650.86a25,25,0,0,1-21.64,12.51h53.2v-2a25,25,0,0,1-31.56-10.46Z"/><path class="cls-1" d="M788.79,778.86h4.08a25.54,25.54,0,0,1-2-3A25.54,25.54,0,0,1,788.79,778.86Z"/><path class="cls-1" d="M963.62,713.37V688.6l-42.89,24.76v-50l42.89,24.76V663.37h21.64a25,25,0,1,1,21.66-37.5,25,25,0,0,1,31.56-10.46v-77h-31.56v-50h21.64a25,25,0,1,1,9.92-47.95V45.14l-31.56,18.22v-50l31.56,18.23V0H897.58l23.15,13.36-43.3,25V0H811l23.15,13.36-43.3,25V0H770.67L747.53,13.36V0H551.17l23.15,13.36-43.3,25-43.3,25v-50l43.3,25V0H314.93V38.37h-86.6V0H204.76l23.15,13.36-43.3,25V0H98V13.36H11.41V0H0V331.78l11.41,6.58v-50l43.3,25v-25h86.6v50H54.71v-25l-43.3,25h0l43.3,25-43.3,25v-50L0,345v70.61a25,25,0,0,1,14.75,22.8A25,25,0,0,1,0,461.17v2.19H11.41v50H0v68.42l11.41,6.58L0,595v20.61a25,25,0,0,1,14.75,22.8A25,25,0,0,1,0,661.17V778.86H11.41v-15.5H98v15.5H226.44a25,25,0,0,1,46.25,0h83.65a25,25,0,0,1,44.78-3,25,25,0,0,1,44.77,3h37a25,25,0,0,1,46.25,0h45.17v-15.5l26.85,15.5h148.4a25,25,0,1,1,41.26-28,25,25,0,1,1,41.26,28h88.64v-15.5l26.85,15.5h16v-40.5l43.3,25-26.85,15.5h58.41V713.37Zm-42.89-150v-50l43.3,25Zm65.85-175a25,25,0,0,1-21.65-12.5,25,25,0,1,1,0-25,25,25,0,1,1,21.65,37.49Zm-44.2-175a25,25,0,1,1-21.65,37.5,25,25,0,1,1,0-25A25,25,0,0,1,942.38,213.36Zm-21.65,0v-50l43.3,25Zm-.41,99.76V263.36h86.6v50H920.73l-43.3,25v-50ZM985.68,88.36a25,25,0,1,1-25,25A25,25,0,0,1,985.68,88.36Zm-194.85,0,43.3,25v-25h21.64a25,25,0,1,1,21.66-37.49,25,25,0,1,1,0,25,25,25,0,0,1-21.64,12.5h64.94v50h-86.6v-25l-43.3,25Zm0,100,43.3,25-43.3,25Zm18.3,100a25,25,0,1,1-25,25A25,25,0,0,1,809.13,288.36Zm25,75-43.3,25v-50Zm-65,50a25,25,0,1,1-25,25A25,25,0,0,1,769.18,413.37Zm65,100-43.3,25v-50l-43.3,25v-50l43.3,25h0ZM531,488.36v-50l43.3,25v-25H596a25,25,0,1,1,21.66-37.49,25,25,0,1,1,0,25A25,25,0,0,1,596,438.36h64.94v50h-86.6v-25Zm43.3,75-43.3,25v-50Zm173.21-250-43.3,25v-50l-43.31,25v-50l43.31,25h0Zm0-75H660.92v-25l-43.3,25v-50l43.3,25v-25h86.61Zm-129.91,100h0l43.3,25-43.3,25v-50l-43.3,25v-50Zm86.61,200-43.31,25v-50Zm0-150,43.3,25-43.3,25Zm43.3-325-43.3,25v-50Zm0,50-43.3,25v-50Zm-86.61-50-43.3,25v-50ZM596,88.36a25,25,0,0,1,21.65,12.51,25,25,0,1,1,0,25A25,25,0,1,1,596,88.36Zm-21.65,75-43.3,25v-50Zm-43.3-75-43.3,25v-50Zm-129.9,250v-25l-43.3,25v-50l43.3,25v-25h86.6v50Zm43.3,50-43.3,25v-50Zm-86.19,75v50h-86.6v-50h21.64a25,25,0,1,1,21.66-37.49,25,25,0,1,1,0,25,25,25,0,0,1-21.64,12.5Zm-130.32,50v-50l43.3,25-43.3,25-43.3,25v-50Zm-43.3-125,43.3,25-43.3,25Zm86.6-50,43.3,25-43.3,25Zm216.51-175-43.3,25v-50l-43.3,25v-50l43.3,25h0Zm-129.9-150h86.6v50h-86.6Zm0,75-43.31,25v-50Zm-21.65,25a25,25,0,1,1-25,25A25,25,0,0,1,336.17,113.36Zm-65,75,43.3,25v-25h86.61v50H314.51v-25l-43.3,25Zm43.3,125-43.3,25v-50l-43.3,25v-50l43.3,25h0Zm-86.6-200-43.3,25v-50Zm-194.85-75a25,25,0,1,1-25,25A25,25,0,0,1,33.06,38.36Zm21.65,125-43.3,25v-50Zm-21.65,100a25,25,0,1,1,25-25A25,25,0,0,1,33.06,263.36Zm86.6-225a25,25,0,1,1-25,25A25,25,0,0,1,119.66,38.36ZM98,238.36v-50l43.3,25v-25H163a25,25,0,1,1,21.66-37.49,25,25,0,1,1,0,25A25,25,0,0,1,163,188.36h64.94v50h-86.6v-25Zm21.65,150a25,25,0,1,1-25,25A25,25,0,0,1,119.66,388.37Zm0,150a25,25,0,1,1,25-25A25,25,0,0,1,119.66,538.36Zm21.65,75-43.3,25v-50Zm-86.6-150,43.3,25-43.3,25Zm129.9,250H98v-25l-43.3,25v-50l43.3,25v-25h86.6Zm21.65-100a25,25,0,1,1,21.65-37.49,25,25,0,1,1,0,25A25,25,0,0,1,206.26,613.36Zm21.65,100v-100l43.3,25-43.3,25,43.3,25Zm65,25a25,25,0,1,1,25-25A25,25,0,0,1,292.86,738.36Zm65,0v-50l43.3,25Zm86.6,0v-50l43.3,25Zm21.65-150a25,25,0,0,1-21.65-12.5,25,25,0,0,1-21.64,12.5h64.94v50h-86.6v-25l-43.3,25-43.31,25v-50l43.31,25v-50l43.3,25v-25h21.64a25,25,0,1,1,21.66-37.49,25,25,0,1,1,21.65,37.49Zm0-150a25,25,0,1,1,25-25A25,25,0,0,1,466.07,438.37Zm43.3-175a25,25,0,0,1-21.65-12.5,25,25,0,1,1,0-25,25,25,0,1,1,21.65,37.49Zm21.65,325,43.3,25-43.3,25Zm40,75a25,25,0,0,1,46.65-12.49,25,25,0,1,1,0,25A25,25,0,0,1,571,663.36Zm3.35,100v-50l43.3,25Zm129.91,0H617.62v-50h86.61Zm0-125v-50l43.3,25Zm173.2,75h-86.6v-25l-43.3,25v-50l43.3,25v-25h86.6Zm-21.65-100a25,25,0,0,1-21.65-12.5,25,25,0,1,1,0-25,25,25,0,1,1,21.65,37.49Zm21.65-150v-25l-43.3,25v-50l43.3,25v-25H964v50Z"/><path class="cls-1" d="M1038.48,488.36v-2a24.9,24.9,0,0,1-9.9,2Z"/><path class="cls-2" d="M877.43,75.86a25,25,0,0,1,0-25,25,25,0,1,0-21.66,37.49h0A25,25,0,0,0,877.43,75.86Z"/><path class="cls-2" d="M877.43,75.86a25,25,0,1,0-3.35-12.5A25,25,0,0,0,877.43,75.86Z"/><polygon class="cls-2" points="834.13 113.36 834.13 138.36 920.73 138.36 920.73 88.36 855.79 88.36 855.77 88.36 834.13 88.36 834.13 113.36 834.13 113.36 834.13 113.36"/><path class="cls-2" d="M596,138.36a25,25,0,0,0,21.65-12.5,25,25,0,0,1,0-25A25,25,0,1,0,596,138.36Z"/><path class="cls-2" d="M617.62,125.86a25,25,0,1,0-3.35-12.5A25,25,0,0,0,617.62,125.86Z"/><polygon class="cls-2" points="660.92 213.36 660.92 213.36 660.92 213.36 660.92 238.37 747.53 238.37 747.53 188.37 660.92 188.37 660.92 213.36"/><path class="cls-2" d="M920.73,225.87a25,25,0,1,0,0,25,25,25,0,0,1,0-25Z"/><circle class="cls-2" cx="809.13" cy="313.36" r="25"/><circle class="cls-2" cx="769.18" cy="438.37" r="25"/><path class="cls-2" d="M917.38,238.36a25,25,0,1,0,3.35-12.49A25,25,0,0,0,917.38,238.36Z"/><polygon class="cls-2" points="920.73 313.37 1006.92 313.37 1006.92 263.37 920.32 263.37 920.32 313.12 920.73 313.36 920.73 313.37"/><path class="cls-2" d="M617.62,425.86a25,25,0,0,1,0-25A25,25,0,1,0,596,438.36h0A25,25,0,0,0,617.62,425.86Z"/><path class="cls-2" d="M617.62,425.86a25,25,0,1,0-3.35-12.5A25,25,0,0,0,617.62,425.86Z"/><polygon class="cls-2" points="660.92 488.37 660.92 438.37 595.98 438.37 595.96 438.37 574.32 438.37 574.32 463.36 574.32 488.37 660.92 488.37"/><path class="cls-2" d="M487.72,225.87a25,25,0,1,0,0,25,25,25,0,0,1,0-25Z"/><path class="cls-2" d="M509.37,213.36a25,25,0,1,0,25,25A25,25,0,0,0,509.37,213.36Z"/><polygon class="cls-2" points="487.72 288.36 401.12 288.36 401.12 313.37 401.12 338.36 487.72 338.36 487.72 288.36"/><path class="cls-2" d="M314.93,450.86a25,25,0,0,1,0-25,25,25,0,1,0-21.66,37.49h0A25,25,0,0,0,314.93,450.86Z"/><path class="cls-2" d="M314.93,450.86a25,25,0,1,0-3.35-12.5A25,25,0,0,0,314.93,450.86Z"/><polygon class="cls-2" points="271.63 463.37 271.63 513.37 358.23 513.37 358.23 463.37 293.29 463.37 293.27 463.37 271.63 463.37"/><path class="cls-2" d="M444.42,550.87a25,25,0,1,0-21.66,37.49h0a25,25,0,0,0,21.64-12.5,25,25,0,0,1,0-25Z"/><path class="cls-2" d="M466.07,538.36a25,25,0,1,0,25,25A25,25,0,0,0,466.07,538.36Z"/><circle class="cls-2" cx="466.07" cy="413.37" r="25"/><path class="cls-2" d="M506,763.36a25,25,0,0,0-23.12,15.5h46.25A25,25,0,0,0,506,763.36Z"/><circle class="cls-2" cx="292.86" cy="713.36" r="25"/><path class="cls-2" d="M249.56,763.36a25,25,0,0,0-23.12,15.5h46.25A25,25,0,0,0,249.56,763.36Z"/><path class="cls-2" d="M14.75,638.36A25,25,0,0,0,0,615.56v45.61A25,25,0,0,0,14.75,638.36Z"/><circle class="cls-2" cx="119.66" cy="513.36" r="25"/><circle class="cls-2" cx="119.66" cy="413.37" r="25"/><polygon class="cls-2" points="401.12 588.36 401.12 613.37 401.12 613.37 401.12 613.37 401.12 638.36 487.72 638.36 487.72 588.36 422.78 588.36 422.76 588.36 401.12 588.36"/><path class="cls-2" d="M1003.57,463.36a25,25,0,0,0,25,25h0a24.9,24.9,0,0,0,9.9-2V440.41a25,25,0,0,0-34.91,22.95Z"/><polygon class="cls-2" points="1028.56 488.36 1006.92 488.36 1006.92 538.36 1038.48 538.36 1038.48 488.36 1028.58 488.36 1028.56 488.36"/><path class="cls-2" d="M964.93,350.87a25,25,0,1,0,0,25,25,25,0,0,1,0-25Z"/><path class="cls-2" d="M986.58,338.36a25,25,0,1,0,25,25A25,25,0,0,0,986.58,338.36Z"/><polygon class="cls-2" points="964.03 413.37 877.43 413.37 877.43 438.36 877.43 438.36 877.43 438.36 877.43 463.37 964.03 463.37 964.03 413.37"/><circle class="cls-2" cx="985.68" cy="113.36" r="25"/><path class="cls-2" d="M834.13,575.87a25,25,0,1,0,0,25,25,25,0,0,1,0-25Z"/><path class="cls-2" d="M855.78,563.36a25,25,0,1,0,25,25A25,25,0,0,0,855.78,563.36Z"/><polygon class="cls-2" points="790.83 688.36 790.83 713.37 877.43 713.37 877.43 663.37 790.83 663.37 790.83 688.36"/><path class="cls-2" d="M596,688.36a25,25,0,0,0,21.65-12.5,25,25,0,0,1,0-25A25,25,0,1,0,596,688.36Z"/><path class="cls-2" d="M617.62,675.86a25,25,0,1,0-3.35-12.5A25,25,0,0,0,617.62,675.86Z"/><rect class="cls-2" x="617.62" y="713.36" width="86.6" height="50"/><path class="cls-2" d="M379.47,763.36a25,25,0,0,0-23.13,15.5h43.3a25.17,25.17,0,0,1,1.48-3A25,25,0,0,0,379.47,763.36Z"/><path class="cls-2" d="M422.77,763.36a25.13,25.13,0,0,0-23.13,15.5h46.25A25,25,0,0,0,422.77,763.36Z"/><path class="cls-2" d="M787.48,763.36a24.84,24.84,0,0,1,3.35-12.49,25,25,0,1,0-41.26,28h39.22a25.54,25.54,0,0,0,2-3A24.85,24.85,0,0,1,787.48,763.36Z"/><path class="cls-2" d="M812.48,738.36a25,25,0,0,0-21.65,37.5,25.54,25.54,0,0,0,2,3h39.22a25,25,0,0,0-19.61-40.5Z"/><path class="cls-2" d="M1006.92,650.86a25,25,0,0,1,0-25,25,25,0,1,0-21.66,37.5h0A25,25,0,0,0,1006.92,650.86Z"/><path class="cls-2" d="M1006.92,625.87a25,25,0,0,0,31.56,35.45V615.41a25,25,0,0,0-31.56,10.46Z"/><polygon class="cls-2" points="985.26 663.37 963.62 663.37 963.62 688.12 964.03 688.36 963.62 688.6 963.62 713.37 1038.48 713.37 1038.48 663.37 985.28 663.37 985.26 663.37"/><path class="cls-2" d="M224.56,588.36a24.94,24.94,0,0,1,3.35-12.49,25,25,0,1,0,0,25A25,25,0,0,1,224.56,588.36Z"/><path class="cls-2" d="M227.91,600.86a25,25,0,1,0-3.35-12.5A25,25,0,0,0,227.91,600.86Z"/><polygon class="cls-2" points="98.01 688.37 98.01 713.37 184.61 713.37 184.61 663.37 98.01 663.37 98.01 688.37"/><rect class="cls-2" x="11.41" y="763.36" width="86.6" height="15.5"/><path class="cls-2" d="M14.75,438.36A25,25,0,0,0,0,415.56v45.61A25,25,0,0,0,14.75,438.36Z"/><rect class="cls-2" y="463.36" width="11.41" height="50"/><polygon class="cls-2" points="314.51 213.37 314.51 238.37 401.12 238.37 401.12 188.37 314.51 188.37 314.51 213.37 314.51 213.37 314.51 213.37"/><path class="cls-2" d="M184.61,175.86a25,25,0,0,1,0-25A25,25,0,1,0,163,188.36h0A25,25,0,0,0,184.61,175.86Z"/><circle class="cls-2" cx="33.06" cy="63.36" r="25"/><circle class="cls-2" cx="119.66" cy="63.36" r="25"/><path class="cls-2" d="M184.61,175.86a25,25,0,1,0-3.35-12.5A25,25,0,0,0,184.61,175.86Z"/><circle class="cls-2" cx="336.17" cy="138.36" r="25"/><polygon class="cls-2" points="227.91 238.36 227.91 188.36 162.97 188.36 162.95 188.36 141.31 188.36 141.31 213.37 141.31 238.36 227.91 238.36"/><circle class="cls-2" cx="33.06" cy="238.36" r="25"/><polygon class="cls-2" points="141.31 338.36 141.31 288.36 54.71 288.36 54.71 313.36 54.71 338.36 141.31 338.36"/><rect class="cls-2" x="11.41" width="86.6" height="13.36"/><rect class="cls-2" x="357.82" y="13.36" width="86.6" height="50"/><rect class="cls-2" x="228.33" width="86.6" height="38.37"/><polygon class="cls-2" points="54.71 713.37 98.01 688.37 54.71 663.37 54.71 713.37"/><polygon class="cls-2" points="54.71 463.37 54.71 513.37 98.01 488.37 54.71 463.37"/><polygon class="cls-2" points="98.01 638.37 141.31 613.37 98.01 588.37 98.01 638.37"/><polygon class="cls-2" points="98.01 188.37 98.01 238.37 141.31 213.37 98.01 188.37"/><polygon class="cls-2" points="184.61 538.37 227.91 513.37 184.61 488.37 184.61 538.37"/><polygon class="cls-2" points="184.61 388.37 184.61 438.37 227.91 413.37 184.61 388.37"/><polygon class="cls-2" points="227.91 113.36 184.61 88.36 184.61 138.37 227.91 113.36"/><polygon class="cls-2" points="227.91 13.37 204.76 0 184.61 0 184.61 38.37 227.91 13.37"/><polygon class="cls-2" points="227.91 663.37 227.91 713.37 271.21 688.37 227.91 663.37"/><polygon class="cls-2" points="227.91 613.37 227.91 663.37 271.21 638.37 227.91 613.37"/><polygon class="cls-2" points="227.91 463.37 227.91 513.37 271.21 488.37 227.91 463.37"/><polygon class="cls-2" points="227.91 263.37 227.91 313.37 271.21 288.37 271.21 288.37 271.21 288.37 271.21 288.37 227.91 263.37"/><polygon class="cls-2" points="271.21 338.37 271.21 388.37 314.51 363.37 271.21 338.37"/><polygon class="cls-2" points="271.21 288.37 271.21 338.37 314.51 313.37 271.21 288.37 271.21 288.37 271.21 288.37"/><polygon class="cls-2" points="314.51 213.37 314.51 213.37 271.21 188.37 271.21 238.37 314.51 213.37 314.51 213.37"/><polygon class="cls-2" points="314.51 663.37 357.82 638.37 314.51 613.37 314.51 663.37"/><polygon class="cls-2" points="357.82 88.36 314.51 63.37 314.51 113.36 357.82 88.36"/><polygon class="cls-2" points="357.82 738.37 401.12 713.37 357.82 688.37 357.82 738.37"/><polygon class="cls-2" points="401.12 613.37 357.82 588.37 357.82 638.37 401.12 613.37 401.12 613.37 401.12 613.37"/><polygon class="cls-2" points="357.82 338.37 401.12 313.37 357.82 288.37 357.82 338.37"/><polygon class="cls-2" points="401.12 413.37 444.42 388.37 401.12 363.37 401.12 413.37"/><polygon class="cls-2" points="401.12 113.36 401.12 163.37 444.42 138.37 444.42 138.37 444.42 138.37 444.42 138.37 401.12 113.36"/><polygon class="cls-2" points="444.42 738.37 487.72 713.37 444.42 688.37 444.42 738.37"/><polygon class="cls-2" points="444.42 138.37 444.42 188.37 487.72 163.37 444.42 138.37 444.42 138.37 444.42 138.37"/><polygon class="cls-2" points="531.02 88.36 487.72 63.37 487.72 113.36 531.02 88.36"/><polygon class="cls-2" points="487.72 63.37 531.02 38.37 487.72 13.37 487.72 63.37"/><polygon class="cls-2" points="531.02 588.37 531.02 638.36 574.32 613.36 531.02 588.37"/><polygon class="cls-2" points="531.02 588.37 574.32 563.36 531.02 538.37 531.02 588.37"/><polygon class="cls-2" points="531.02 488.37 574.32 463.36 531.02 438.37 531.02 488.37"/><polygon class="cls-2" points="531.02 188.37 574.32 163.36 531.02 138.37 531.02 188.37"/><polygon class="cls-2" points="574.32 13.36 551.17 0 531.02 0 531.02 38.37 574.32 13.36"/><polygon class="cls-2" points="574.32 778.86 601.17 778.86 574.32 763.36 574.32 778.86"/><polygon class="cls-2" points="574.32 763.36 617.62 738.36 574.32 713.36 574.32 763.36"/><polygon class="cls-2" points="574.32 363.36 617.62 338.37 617.62 338.36 617.62 338.36 617.62 338.36 574.32 313.36 574.32 363.36"/><polygon class="cls-2" points="617.62 338.37 617.62 388.36 660.92 363.36 617.62 338.36 617.62 338.36 617.62 338.37"/><polygon class="cls-2" points="660.92 213.36 617.62 188.36 617.62 238.36 660.92 213.36 660.92 213.36 660.92 213.36"/><polygon class="cls-2" points="660.92 63.36 617.62 38.36 617.62 88.36 660.92 63.36"/><polygon class="cls-2" points="704.23 538.36 660.92 513.36 660.92 563.36 704.23 538.36"/><polygon class="cls-2" points="660.92 263.36 660.92 313.36 704.23 288.36 704.23 288.36 704.23 288.36 704.23 288.36 660.92 263.36"/><polygon class="cls-2" points="704.23 588.36 704.23 638.36 747.53 613.36 704.23 588.36"/><polygon class="cls-2" points="747.53 413.36 704.23 388.36 704.23 438.36 747.53 413.36"/><polygon class="cls-2" points="704.23 288.36 704.23 338.36 747.53 313.36 704.23 288.36 704.23 288.36 704.23 288.36"/><polygon class="cls-2" points="747.53 113.36 704.23 88.36 704.23 138.36 747.53 113.36"/><polygon class="cls-2" points="747.53 63.36 704.23 38.36 704.23 88.36 747.53 63.36"/><polygon class="cls-2" points="747.53 713.36 790.83 688.36 747.53 663.36 747.53 713.36"/><polygon class="cls-2" points="747.53 463.36 747.53 513.36 790.83 488.36 790.83 488.36 790.83 488.36 790.83 488.36 747.53 463.36"/><polygon class="cls-2" points="770.67 0 747.53 0 747.53 13.36 770.67 0"/><polygon class="cls-2" points="790.83 488.36 790.83 538.36 834.13 513.36 790.83 488.36 790.83 488.36 790.83 488.36"/><polygon class="cls-2" points="790.83 388.36 834.13 363.36 790.83 338.36 790.83 388.36"/><polygon class="cls-2" points="790.83 188.36 790.83 238.36 834.13 213.36 790.83 188.36"/><polygon class="cls-2" points="834.13 113.36 834.13 113.36 790.83 88.36 790.83 138.36 834.13 113.36 834.13 113.36"/><polygon class="cls-2" points="834.13 13.36 810.98 0 790.83 0 790.83 38.36 834.13 13.36"/><polygon class="cls-2" points="877.43 438.36 834.13 413.36 834.13 463.36 877.43 438.36 877.43 438.36 877.43 438.36"/><polygon class="cls-2" points="920.73 313.37 920.73 313.36 920.32 313.12 877.43 288.36 877.43 338.36 920.73 313.37"/><polygon class="cls-2" points="920.73 13.36 897.58 0 877.43 0 877.43 38.36 920.73 13.36"/><polygon class="cls-2" points="920.73 778.86 947.58 778.86 920.73 763.36 920.73 778.86"/><polygon class="cls-2" points="963.62 738.36 963.62 778.86 980.07 778.86 1006.92 763.36 963.62 738.36"/><polygon class="cls-2" points="963.62 688.12 920.73 663.36 920.73 713.36 963.62 688.6 964.03 688.36 963.62 688.12"/><polygon class="cls-2" points="920.73 563.36 964.03 538.36 920.73 513.36 920.73 563.36"/><polygon class="cls-2" points="920.73 163.36 920.73 213.36 964.03 188.36 920.73 163.36"/><polygon class="cls-2" points="1006.92 63.36 1038.48 45.14 1038.48 31.59 1006.92 13.36 1006.92 63.36"/><polygon class="cls-2" points="0 581.78 0 594.95 11.41 588.36 0 581.78"/><polygon class="cls-2" points="11.41 338.36 11.41 338.36 11.41 338.36 0 331.78 0 344.95 11.41 338.36 11.41 338.36"/><polygon class="cls-2" points="11.41 338.36 11.41 388.36 54.71 363.36 11.41 338.36 11.41 338.36 11.41 338.36"/><polygon class="cls-2" points="11.41 288.36 11.41 338.36 54.71 313.36 11.41 288.36"/><polygon class="cls-2" points="11.41 188.36 54.71 163.36 11.41 138.36 11.41 188.36"/></g></g></svg>