<svg xmlns="http://www.w3.org/2000/svg" viewBox="0 0 1038.48 778.86"><defs><style>.cls-1{fill:lime;}</style></defs><title>Element 38</title><g id="Ebene_2" data-name="Ebene 2"><g id="Ebene_1-2" data-name="Ebene 1"><path class="cls-1" d="M54.71,710H0v68.82H54.71V766.74h216.5v12.12h43.3V741.71H487.72v37.15h173.2V766.74H834.13v12.12h86.6V741.71h117.75V660H964V616.71h74.45V485H877.43v-43.3h161.05V410h-31.15V366.71h31.15V360H920.73V316.71h117.75V235H920.73v-43.3h117.75V110H920.73V66.71h117.75V60H877.43V16.71h161.05V0H920.73V10H790.83V0h-43.3V35H531V0H314.51V10H184.61V0h-43.3V35H0v81.69H98V160H0v81.69H54.71V285H0V416.71H54.71V460H0v6.69H184.61V510H0v31.69H98V585H0v81.72H54.71ZM98,760H11.41v-43.3H98Zm0-75V641.71h216.5V685ZM444.42,366.71h173.2V410H444.42ZM401.12,360V316.71h86.6V360Zm173.2,56.69H747.53V460H574.32Zm43.3,125V585H531V541.71Zm-43.3,50h184V635h-184Zm86.6-125H790.83V510H660.92Zm0-81.69V341.71H877.43V385Zm86.61-175H660.92V166.71h86.61Zm129.9,6.69V260H704.23V216.71Zm-173.2,75V335H574.32V291.71ZM660.92,285H487.72V241.71h173.2ZM531,235H357.82V191.71H531Zm-129.9-50H314.51V141.71h86.61Zm-43.3-50H184.61V91.71H357.82Zm-43.31,81.69V260H98V216.71Zm-43.3,50H444.42V310H271.21Zm86.61,225h216.5V535H357.82ZM271.21,485V441.71H401.12V485Zm129.91,81.72V610H271.21v-43.3ZM357.82,735H271.21V691.71h86.61Zm0-75v-43.3H531V660Zm129.9,6.7h86.6V710h-86.6ZM704.23,760H531v-43.3H704.23Zm-43.31-75V641.71H877.43V685Zm346.41,6.69V735H834.13V691.71Zm0-81.69h-86.6V566.71h86.6ZM964,516.71V560H747.53V516.71ZM920.73,435h-86.6V391.71h86.6Zm86.6-168.31V310H834.13V266.71Zm-43.3-125V185H790.83V141.71Zm-86.6-50V135H747.53V91.71Zm-173.2-50h86.6V85h-86.6Zm0,118.31H531V116.71H704.23ZM574.32,66.71V110H444.42V66.71Zm-303.11-50H487.72V60H271.21ZM98,41.71h129.9V85H98ZM11.4,210v-43.3H141.31V210Zm0,125V291.71H98V335Zm43.31,6.69h173.2V385H54.71ZM184.61,435V391.71h173.2V435Zm-43.3,81.72h173.2V560H141.31ZM11.41,635V591.71h129.9V635Z"/></g></g></svg>