<svg xmlns="http://www.w3.org/2000/svg" viewBox="0 0 1038.48 778.86"><defs><style>.cls-1{fill:none;}.cls-2{fill:lime;}</style></defs><title>Element 42</title><g id="Ebene_2" data-name="Ebene 2"><g id="Ebene_1-2" data-name="Ebene 1"><circle class="cls-1" cx="1007.46" cy="64.84" r="12.5"/><circle class="cls-1" cx="707.46" cy="64.84" r="7.5"/><circle class="cls-1" cx="632.46" cy="64.84" r="22.5"/><circle class="cls-1" cx="782.46" cy="64.84" r="7.5"/><circle class="cls-1" cx="932.46" cy="64.84" r="12.5"/><path class="cls-1" d="M33.71,47.34a17.52,17.52,0,0,1,17.3,15H86.36a22.49,22.49,0,0,1,44.71,0H306.33a27.5,27.5,0,0,1,54.77,0H461.36a22.49,22.49,0,0,1,44.71,0H606.33a27.5,27.5,0,0,1,54.77,0h35.37a12.5,12.5,0,0,1,24.49,0h50.51a12.5,12.5,0,0,1,24.49,0H916.41a17.48,17.48,0,0,1,34.6,0h40.4a17.48,17.48,0,0,1,34.6,0h13.72V2.39H993.57a22.52,22.52,0,0,1-22.36,20,22.52,22.52,0,0,1-22.35-20H918.57a22.52,22.52,0,0,1-22.36,20,22.52,22.52,0,0,1-22.35-20H688.51a17.5,17.5,0,0,1-17.3,15,17.51,17.51,0,0,1-17.3-15H533.46a12.52,12.52,0,0,1-12.25,10A12.51,12.51,0,0,1,509,2.39H473.6a27.54,27.54,0,0,1-27.39,25,27.53,27.53,0,0,1-27.38-25H233.46a12.52,12.52,0,0,1-12.25,10A12.51,12.51,0,0,1,209,2.39h-40.4a22.52,22.52,0,0,1-22.36,20,22.52,22.52,0,0,1-22.35-20H23.6A27.59,27.59,0,0,1,1.25,26.93V62.34H16.41A17.52,17.52,0,0,1,33.71,47.34Z" transform="translate(-1.25)"/><path class="cls-1" d="M18.71,0H1.25V21.82A22.53,22.53,0,0,0,18.71,0Z" transform="translate(-1.25)"/><path class="cls-1" d="M71.21,117.29a12.52,12.52,0,0,1,12.25,10h35.37a27.5,27.5,0,0,1,54.77,0h30.31a17.48,17.48,0,0,1,34.6,0H359a12.5,12.5,0,0,1,24.49,0h45.45a17.48,17.48,0,0,1,34.6,0H584a12.5,12.5,0,0,1,24.49,0h40.4a22.49,22.49,0,0,1,44.71,0H803.91a17.48,17.48,0,0,1,34.6,0h30.32a27.5,27.5,0,0,1,54.77,0H959a12.5,12.5,0,0,1,24.49,0h35.37a27.58,27.58,0,0,1,20.9-24.23V67.34H1026a17.48,17.48,0,0,1-34.6,0H951a17.48,17.48,0,0,1-34.6,0H796a12.5,12.5,0,0,1-24.49,0H721a12.5,12.5,0,0,1-24.49,0H661.1a27.5,27.5,0,0,1-54.77,0H506.07a22.49,22.49,0,0,1-44.71,0H361.1a27.5,27.5,0,0,1-54.77,0H131.07a22.49,22.49,0,0,1-44.71,0H51a17.48,17.48,0,0,1-34.6,0H1.25v60H59A12.51,12.51,0,0,1,71.21,117.29Z" transform="translate(-1.25)"/><circle class="cls-1" cx="32.46" cy="64.84" r="12.5"/><circle class="cls-1" cx="482.46" cy="64.84" r="17.5"/><circle class="cls-1" cx="107.46" cy="64.84" r="17.5"/><circle class="cls-1" cx="332.46" cy="64.84" r="22.5"/><path class="cls-1" d="M1028.71,389.61a17.52,17.52,0,0,0,11,16.24V373.36A17.55,17.55,0,0,0,1028.71,389.61Z" transform="translate(-1.25)"/><path class="cls-1" d="M146.21,17.39A17.52,17.52,0,0,0,163.71,0h-35A17.51,17.51,0,0,0,146.21,17.39Z" transform="translate(-1.25)"/><path class="cls-1" d="M1023.71,129.79a22.55,22.55,0,0,0,16,21.55V108.25A22.54,22.54,0,0,0,1023.71,129.79Z" transform="translate(-1.25)"/><path class="cls-1" d="M971.21,17.39A17.52,17.52,0,0,0,988.71,0h-35A17.51,17.51,0,0,0,971.21,17.39Z" transform="translate(-1.25)"/><path class="cls-1" d="M1039.73,523.26v-7.52a7.44,7.44,0,0,0,0,7.52Z" transform="translate(-1.25)"/><circle class="cls-1" cx="969.96" cy="129.79" r="7.5"/><path class="cls-1" d="M1023.71,649.41a22.54,22.54,0,0,0,16,21.54V627.86A22.55,22.55,0,0,0,1023.71,649.41Z" transform="translate(-1.25)"/><path class="cls-1" d="M1039.73,263.1v-7.52a7.44,7.44,0,0,0,0,7.52Z" transform="translate(-1.25)"/><path class="cls-1" d="M221.21,7.39A7.51,7.51,0,0,0,228.71,0h-15A7.5,7.5,0,0,0,221.21,7.39Z" transform="translate(-1.25)"/><path class="cls-1" d="M446.21,22.39A22.52,22.52,0,0,0,468.71,0h-45A22.52,22.52,0,0,0,446.21,22.39Z" transform="translate(-1.25)"/><path class="cls-1" d="M671.21,12.39A12.51,12.51,0,0,0,683.71,0h-25A12.51,12.51,0,0,0,671.21,12.39Z" transform="translate(-1.25)"/><path class="cls-1" d="M521.21,7.39A7.51,7.51,0,0,0,528.71,0h-15A7.5,7.5,0,0,0,521.21,7.39Z" transform="translate(-1.25)"/><path class="cls-1" d="M896.21,17.39A17.52,17.52,0,0,0,913.71,0h-35A17.51,17.51,0,0,0,896.21,17.39Z" transform="translate(-1.25)"/><circle class="cls-1" cx="932.46" cy="454.56" r="7.5"/><circle class="cls-1" cx="369.96" cy="519.5" r="22.5"/><circle class="cls-1" cx="144.96" cy="519.5" r="7.5"/><circle class="cls-1" cx="219.96" cy="519.5" r="12.5"/><circle class="cls-1" cx="69.96" cy="519.5" r="7.5"/><circle class="cls-1" cx="519.96" cy="519.5" r="17.5"/><circle class="cls-1" cx="594.96" cy="519.5" r="12.5"/><circle class="cls-1" cx="294.96" cy="389.61" r="7.5"/><path class="cls-1" d="M33.71,557a27.53,27.53,0,0,1,27.38,25H231.33a27.49,27.49,0,0,1,54.76,0h35.38A12.5,12.5,0,0,1,346,582h45.45a17.48,17.48,0,0,1,34.6,0h30.32a27.49,27.49,0,0,1,54.76,0H621.47A12.5,12.5,0,0,1,646,582H756.33a27.49,27.49,0,0,1,54.76,0H921.47A12.5,12.5,0,0,1,946,582h93.77V530.18A12.51,12.51,0,0,1,1034,522H998.6a27.5,27.5,0,0,1-54.77,0H833.46A12.5,12.5,0,0,1,809,522h-40.4a22.49,22.49,0,0,1-44.71,0H613.51a17.48,17.48,0,0,1-34.6,0H543.57a22.49,22.49,0,0,1-44.71,0h-40.4A12.5,12.5,0,0,1,434,522H398.6a27.5,27.5,0,0,1-54.77,0H238.51a17.48,17.48,0,0,1-34.6,0H158.46A12.5,12.5,0,0,1,134,522H83.46A12.5,12.5,0,0,1,59,522H18.57A22.54,22.54,0,0,1,1.25,541.41V582H6.33A27.54,27.54,0,0,1,33.71,557Z" transform="translate(-1.25)"/><circle class="cls-1" cx="444.96" cy="519.5" r="7.5"/><circle class="cls-1" cx="332.46" cy="584.46" r="7.5"/><circle class="cls-1" cx="32.46" cy="584.46" r="22.5"/><circle class="cls-1" cx="257.46" cy="584.46" r="22.5"/><circle class="cls-1" cx="632.46" cy="584.46" r="7.5"/><circle class="cls-1" cx="782.46" cy="584.46" r="22.5"/><circle class="cls-1" cx="482.46" cy="584.46" r="22.5"/><circle class="cls-1" cx="932.46" cy="584.46" r="7.5"/><circle class="cls-1" cx="407.46" cy="584.46" r="12.5"/><circle class="cls-1" cx="707.46" cy="454.56" r="7.5"/><circle class="cls-1" cx="407.46" cy="454.56" r="12.5"/><circle class="cls-1" cx="857.46" cy="454.56" r="12.5"/><circle class="cls-1" cx="557.46" cy="454.56" r="7.5"/><circle class="cls-1" cx="632.46" cy="454.56" r="17.5"/><circle class="cls-1" cx="144.96" cy="389.61" r="17.5"/><circle class="cls-1" cx="819.96" cy="519.5" r="7.5"/><circle class="cls-1" cx="894.96" cy="129.79" r="22.5"/><circle class="cls-1" cx="69.96" cy="389.61" r="12.5"/><path class="cls-1" d="M13.71,519.5A17.52,17.52,0,0,0,1.25,502.75v33.51A17.53,17.53,0,0,0,13.71,519.5Z" transform="translate(-1.25)"/><circle class="cls-1" cx="969.96" cy="519.5" r="22.5"/><path class="cls-1" d="M18.57,517H59a12.5,12.5,0,0,1,24.49,0H134a12.5,12.5,0,0,1,24.49,0h45.45a17.48,17.48,0,0,1,34.6,0H343.83a27.5,27.5,0,0,1,54.77,0H434a12.5,12.5,0,0,1,24.49,0h40.4a22.49,22.49,0,0,1,44.71,0h35.34a17.48,17.48,0,0,1,34.6,0H723.86a22.49,22.49,0,0,1,44.71,0H809a12.5,12.5,0,0,1,24.49,0H943.83a27.5,27.5,0,0,1,54.77,0H1034a12.49,12.49,0,0,1,5.76-8.17V457.05H946a12.49,12.49,0,0,1-24.49,0H876a17.47,17.47,0,0,1-34.6,0H721a12.49,12.49,0,0,1-24.49,0h-40.4a22.49,22.49,0,0,1-44.71,0H571a12.49,12.49,0,0,1-24.49,0H426a17.47,17.47,0,0,1-34.6,0H351a17.47,17.47,0,0,1-34.6,0H286.1a27.5,27.5,0,0,1-54.77,0H196a12.49,12.49,0,0,1-24.49,0H61.1a27.5,27.5,0,0,1-54.77,0H1.25v40.54A22.55,22.55,0,0,1,18.57,517Z" transform="translate(-1.25)"/><circle class="cls-1" cx="32.46" cy="454.56" r="22.5"/><circle class="cls-1" cx="332.46" cy="454.56" r="12.5"/><circle class="cls-1" cx="257.46" cy="454.56" r="22.5"/><circle class="cls-1" cx="182.46" cy="454.56" r="7.5"/><circle class="cls-1" cx="744.96" cy="519.5" r="17.5"/><path class="cls-1" d="M1008.71,731.86a17.51,17.51,0,0,1-17.3-15H871a12.5,12.5,0,0,1-24.49,0H736.1a27.5,27.5,0,0,1-54.77,0H646a12.5,12.5,0,0,1-24.49,0H426a17.48,17.48,0,0,1-34.6,0H351a17.48,17.48,0,0,1-34.6,0H286.1a27.5,27.5,0,0,1-54.77,0H196a12.5,12.5,0,0,1-24.49,0H121a12.5,12.5,0,0,1-24.49,0H56.07a22.49,22.49,0,0,1-44.71,0H1.25v40.55a22.53,22.53,0,0,1,17.26,19H204a17.48,17.48,0,0,1,34.46,0h45.64a12.49,12.49,0,0,1,24.27,0H434.08a12.49,12.49,0,0,1,24.27,0h50.73a12.49,12.49,0,0,1,24.27,0H579a17.48,17.48,0,0,1,34.46,0H793.88a27.49,27.49,0,0,1,54.67,0h35.53a12.49,12.49,0,0,1,24.27,0H954a17.48,17.48,0,0,1,34.46,0h35.47a22.58,22.58,0,0,1,15.82-18.58V716.86H1026A17.5,17.5,0,0,1,1008.71,731.86Z" transform="translate(-1.25)"/><path class="cls-1" d="M596.21,766.82a12.5,12.5,0,0,0-12.47,12h25A12.5,12.5,0,0,0,596.21,766.82Z" transform="translate(-1.25)"/><path class="cls-1" d="M71.21,631.91a17.51,17.51,0,0,1,17.3,15h30.32a27.5,27.5,0,0,1,54.77,0H209a12.5,12.5,0,0,1,24.49,0H434a12.5,12.5,0,0,1,24.49,0h40.4a22.49,22.49,0,0,1,44.71,0H643.83a27.5,27.5,0,0,1,54.77,0h30.31a17.48,17.48,0,0,1,34.6,0H873.86a22.49,22.49,0,0,1,44.71,0h30.29a22.49,22.49,0,0,1,44.71,0h25.26a27.56,27.56,0,0,1,20.9-24.23V587H946a12.5,12.5,0,0,1-24.5,0H811.1a27.5,27.5,0,0,1-54.77,0H646a12.5,12.5,0,0,1-24.5,0H511.1a27.5,27.5,0,0,1-54.77,0H426a17.48,17.48,0,0,1-34.61,0H346a12.5,12.5,0,0,1-24.5,0H286.1a27.5,27.5,0,0,1-54.77,0H61.1a27.5,27.5,0,0,1-54.77,0H1.25v59.95H53.91A17.52,17.52,0,0,1,71.21,631.91Z" transform="translate(-1.25)"/><circle class="cls-1" cx="107.46" cy="714.36" r="7.5"/><path class="cls-1" d="M896.21,771.82a7.49,7.49,0,0,0-7.47,7h15A7.5,7.5,0,0,0,896.21,771.82Z" transform="translate(-1.25)"/><path class="cls-1" d="M821.21,756.82a22.51,22.51,0,0,0-22.48,22h45A22.52,22.52,0,0,0,821.21,756.82Z" transform="translate(-1.25)"/><path class="cls-1" d="M971.21,766.82a12.5,12.5,0,0,0-12.47,12h25A12.5,12.5,0,0,0,971.21,766.82Z" transform="translate(-1.25)"/><circle class="cls-1" cx="182.46" cy="714.36" r="7.5"/><circle class="cls-1" cx="32.46" cy="714.36" r="17.5"/><circle class="cls-1" cx="257.46" cy="714.36" r="22.5"/><circle class="cls-1" cx="857.46" cy="714.36" r="7.5"/><circle class="cls-1" cx="1007.46" cy="714.36" r="12.5"/><circle class="cls-1" cx="707.46" cy="714.36" r="22.5"/><circle class="cls-1" cx="632.46" cy="714.36" r="7.5"/><circle class="cls-1" cx="332.46" cy="714.36" r="12.5"/><circle class="cls-1" cx="407.46" cy="714.36" r="12.5"/><path class="cls-1" d="M1028.74,778.86h11V763.08A17.48,17.48,0,0,0,1028.74,778.86Z" transform="translate(-1.25)"/><circle class="cls-1" cx="519.96" cy="649.41" r="17.5"/><circle class="cls-1" cx="669.96" cy="649.41" r="22.5"/><circle class="cls-1" cx="444.96" cy="649.41" r="7.5"/><circle class="cls-1" cx="969.96" cy="649.41" r="17.5"/><circle class="cls-1" cx="744.96" cy="649.41" r="12.5"/><circle class="cls-1" cx="219.96" cy="649.41" r="7.5"/><circle class="cls-1" cx="894.96" cy="649.41" r="17.5"/><path class="cls-1" d="M446.21,771.82a7.49,7.49,0,0,0-7.47,7h14.95A7.5,7.5,0,0,0,446.21,771.82Z" transform="translate(-1.25)"/><path class="cls-1" d="M221.21,766.82a12.5,12.5,0,0,0-12.47,12h24.95A12.5,12.5,0,0,0,221.21,766.82Z" transform="translate(-1.25)"/><path class="cls-1" d="M296.21,771.82a7.49,7.49,0,0,0-7.47,7h14.95A7.5,7.5,0,0,0,296.21,771.82Z" transform="translate(-1.25)"/><circle class="cls-1" cx="144.96" cy="649.41" r="22.5"/><path class="cls-1" d="M521.21,771.82a7.49,7.49,0,0,0-7.47,7h15A7.5,7.5,0,0,0,521.21,771.82Z" transform="translate(-1.25)"/><path class="cls-1" d="M1.25,762.56v16.3H13.69A17.53,17.53,0,0,0,1.25,762.56Z" transform="translate(-1.25)"/><circle class="cls-1" cx="69.96" cy="649.41" r="12.5"/><path class="cls-1" d="M33.71,691.86a22.54,22.54,0,0,1,22.36,20h40.4a12.5,12.5,0,0,1,24.49,0h50.51a12.5,12.5,0,0,1,24.49,0h35.37a27.49,27.49,0,0,1,54.76,0h30.32a17.48,17.48,0,0,1,34.6,0h40.4a17.48,17.48,0,0,1,34.6,0H621.47a12.5,12.5,0,0,1,24.49,0h35.37a27.49,27.49,0,0,1,54.76,0H846.47a12.5,12.5,0,0,1,24.49,0H991.41a17.48,17.48,0,0,1,34.6,0h13.72V676.14a27.57,27.57,0,0,1-20.9-24.23H993.57a22.49,22.49,0,0,1-44.71,0H918.57a22.49,22.49,0,0,1-44.71,0H763.51a17.48,17.48,0,0,1-34.6,0H698.6a27.5,27.5,0,0,1-54.77,0H543.57a22.49,22.49,0,0,1-44.71,0h-40.4a12.5,12.5,0,0,1-24.49,0H233.46a12.5,12.5,0,0,1-24.49,0H173.6a27.5,27.5,0,0,1-54.77,0H88.51a17.48,17.48,0,0,1-34.6,0H1.25v60H11.36A22.53,22.53,0,0,1,33.71,691.86Z" transform="translate(-1.25)"/><path class="cls-1" d="M33.71,427.06a27.52,27.52,0,0,1,27.38,25H171.47a12.5,12.5,0,0,1,24.49,0h35.37a27.49,27.49,0,0,1,54.76,0h30.32a17.48,17.48,0,0,1,34.6,0h40.4a17.48,17.48,0,0,1,34.6,0H546.47a12.5,12.5,0,0,1,24.49,0h40.4a22.49,22.49,0,0,1,44.71,0h40.4a12.5,12.5,0,0,1,24.49,0H841.41a17.48,17.48,0,0,1,34.6,0h45.46a12.5,12.5,0,0,1,24.49,0h93.77v-40.9a22.55,22.55,0,0,1-15.87-19H908.46a12.5,12.5,0,0,1-24.5,0H848.6a27.5,27.5,0,0,1-54.77,0H763.52a17.48,17.48,0,0,1-34.61,0H623.6a27.5,27.5,0,0,1-54.77,0H533.46a12.5,12.5,0,0,1-24.5,0H308.46a12.5,12.5,0,0,1-24.5,0H168.57a22.49,22.49,0,0,1-44.71,0H88.52a17.48,17.48,0,0,1-34.61,0H13.52A17.57,17.57,0,0,1,1.25,406.36v45.69H6.33A27.54,27.54,0,0,1,33.71,427.06Z" transform="translate(-1.25)"/><circle class="cls-1" cx="782.46" cy="324.2" r="7.5"/><circle class="cls-1" cx="707.46" cy="324.2" r="17.5"/><circle class="cls-1" cx="519.96" cy="259.34" r="12.5"/><circle class="cls-1" cx="632.46" cy="324.2" r="7.5"/><path class="cls-1" d="M33.71,311.7A12.52,12.52,0,0,1,46,321.7H171.47a12.5,12.5,0,0,1,24.49,0H316.41a17.48,17.48,0,0,1,34.6,0h30.32a27.5,27.5,0,0,1,54.77,0H621.47a12.5,12.5,0,0,1,24.49,0h40.4a22.49,22.49,0,0,1,44.71,0h40.4a12.5,12.5,0,0,1,24.49,0H906.33a27.5,27.5,0,0,1,54.77,0h30.31a17.48,17.48,0,0,1,34.6,0h13.72V270a12.49,12.49,0,0,1-5.76-8.17H983.46a12.5,12.5,0,0,1-24.49,0H913.51a17.48,17.48,0,0,1-34.6,0H848.6a27.5,27.5,0,0,1-54.77,0H613.51a17.48,17.48,0,0,1-34.6,0h-40.4a17.48,17.48,0,0,1-34.6,0H458.46a12.5,12.5,0,0,1-24.49,0h-40.4a22.49,22.49,0,0,1-44.71,0h-40.4a12.5,12.5,0,0,1-24.49,0H248.6a27.5,27.5,0,0,1-54.77,0H88.51a17.48,17.48,0,0,1-34.6,0H18.57A22.55,22.55,0,0,1,1.25,281.25V321.7H21.47A12.51,12.51,0,0,1,33.71,311.7Z" transform="translate(-1.25)"/><circle class="cls-1" cx="932.46" cy="324.2" r="22.5"/><circle class="cls-1" cx="32.46" cy="194.75" r="22.5"/><circle class="cls-1" cx="294.96" cy="259.34" r="7.5"/><circle class="cls-1" cx="1007.46" cy="324.2" r="12.5"/><circle class="cls-1" cx="182.46" cy="324.2" r="7.5"/><circle class="cls-1" cx="32.46" cy="324.2" r="7.5"/><circle class="cls-1" cx="369.96" cy="129.79" r="7.5"/><circle class="cls-1" cx="407.46" cy="324.2" r="22.5"/><path class="cls-1" d="M13.51,387.1h40.4a17.48,17.48,0,0,1,34.6,0h35.35a22.49,22.49,0,0,1,44.71,0H284a12.5,12.5,0,0,1,24.49,0H509a12.5,12.5,0,0,1,24.49,0h35.37a27.49,27.49,0,0,1,54.76,0H728.91a17.48,17.48,0,0,1,34.6,0h30.32a27.49,27.49,0,0,1,54.76,0H884a12.5,12.5,0,0,1,24.49,0h115.4a22.54,22.54,0,0,1,15.87-19V326.7H1026a17.48,17.48,0,0,1-34.6,0H961.1a27.5,27.5,0,0,1-54.77,0H796a12.5,12.5,0,0,1-24.49,0h-40.4a22.49,22.49,0,0,1-44.71,0H646a12.5,12.5,0,0,1-24.49,0H436.1a27.5,27.5,0,0,1-54.77,0H351a17.48,17.48,0,0,1-34.6,0H196a12.5,12.5,0,0,1-24.49,0H46a12.5,12.5,0,0,1-24.49,0H1.25v46.16A17.53,17.53,0,0,1,13.51,387.1Z" transform="translate(-1.25)"/><circle class="cls-1" cx="332.46" cy="324.2" r="12.5"/><circle class="cls-1" cx="894.96" cy="259.34" r="12.5"/><circle class="cls-1" cx="819.96" cy="259.34" r="22.5"/><circle class="cls-1" cx="857.46" cy="194.75" r="7.5"/><circle class="cls-1" cx="632.46" cy="194.75" r="22.5"/><circle class="cls-1" cx="782.46" cy="194.75" r="17.5"/><circle class="cls-1" cx="219.96" cy="259.34" r="22.5"/><circle class="cls-1" cx="369.96" cy="259.34" r="17.5"/><circle class="cls-1" cx="107.46" cy="194.75" r="7.5"/><circle class="cls-1" cx="932.46" cy="194.75" r="17.5"/><circle class="cls-1" cx="444.96" cy="259.34" r="7.5"/><circle class="cls-1" cx="69.96" cy="259.34" r="12.5"/><path class="cls-1" d="M33.71,167.25a27.54,27.54,0,0,1,27.39,25H96.47a12.5,12.5,0,0,1,24.49,0H241.41a17.48,17.48,0,0,1,34.6,0h30.32a27.5,27.5,0,0,1,54.77,0H471.47a12.5,12.5,0,0,1,24.49,0H606.33a27.5,27.5,0,0,1,54.77,0H761.36a22.49,22.49,0,0,1,44.71,0h40.4a12.5,12.5,0,0,1,24.49,0h40.4a22.49,22.49,0,0,1,44.71,0h83.66V156.52a27.56,27.56,0,0,1-20.9-24.23H983.46a12.5,12.5,0,0,1-24.49,0H923.6a27.5,27.5,0,0,1-54.77,0H838.51a17.48,17.48,0,0,1-34.6,0H693.57a22.49,22.49,0,0,1-44.71,0h-40.4a12.5,12.5,0,0,1-24.49,0H463.51a17.48,17.48,0,0,1-34.6,0H383.46a12.5,12.5,0,0,1-24.49,0H238.51a17.48,17.48,0,0,1-34.6,0H173.6a27.5,27.5,0,0,1-54.77,0H83.46a12.5,12.5,0,0,1-24.49,0H1.25v60H6.33A27.53,27.53,0,0,1,33.71,167.25Z" transform="translate(-1.25)"/><circle class="cls-1" cx="332.46" cy="194.75" r="22.5"/><circle class="cls-1" cx="257.46" cy="194.75" r="12.5"/><circle class="cls-1" cx="482.46" cy="194.75" r="7.5"/><circle class="cls-1" cx="69.96" cy="129.79" r="7.5"/><circle class="cls-1" cx="219.96" cy="129.79" r="12.5"/><circle class="cls-1" cx="144.96" cy="129.79" r="22.5"/><circle class="cls-1" cx="594.96" cy="259.34" r="12.5"/><circle class="cls-1" cx="669.96" cy="129.79" r="17.5"/><circle class="cls-1" cx="819.96" cy="389.61" r="22.5"/><circle class="cls-1" cx="594.96" cy="389.61" r="22.5"/><circle class="cls-1" cx="969.96" cy="259.34" r="7.5"/><circle class="cls-1" cx="819.96" cy="129.79" r="12.5"/><circle class="cls-1" cx="894.96" cy="389.61" r="7.5"/><path class="cls-1" d="M18.57,256.84H53.91a17.48,17.48,0,0,1,34.6,0H193.83a27.5,27.5,0,0,1,54.77,0H284a12.5,12.5,0,0,1,24.49,0h40.4a22.49,22.49,0,0,1,44.71,0H434a12.5,12.5,0,0,1,24.49,0h45.45a17.48,17.48,0,0,1,34.6,0h40.4a17.48,17.48,0,0,1,34.6,0H793.83a27.5,27.5,0,0,1,54.77,0h30.31a17.48,17.48,0,0,1,34.6,0H959a12.5,12.5,0,0,1,24.49,0H1034a12.51,12.51,0,0,1,5.76-8.18V197.25H956.07a22.49,22.49,0,0,1-44.71,0H871a12.5,12.5,0,0,1-24.49,0h-40.4a22.49,22.49,0,0,1-44.71,0H661.1a27.5,27.5,0,0,1-54.77,0H496a12.5,12.5,0,0,1-24.49,0H361.1a27.5,27.5,0,0,1-54.77,0H276a17.48,17.48,0,0,1-34.6,0H121a12.5,12.5,0,0,1-24.49,0H61.1a27.5,27.5,0,0,1-54.77,0H1.25v40.18A22.54,22.54,0,0,1,18.57,256.84Z" transform="translate(-1.25)"/><circle class="cls-1" cx="744.96" cy="389.61" r="12.5"/><circle class="cls-1" cx="594.96" cy="129.79" r="7.5"/><circle class="cls-1" cx="519.96" cy="389.61" r="7.5"/><path class="cls-1" d="M13.71,259.34A17.53,17.53,0,0,0,1.25,242.58v33.51A17.52,17.52,0,0,0,13.71,259.34Z" transform="translate(-1.25)"/><path class="cls-1" d="M8.71,389.61a12.5,12.5,0,0,0-7.46-11.43V401A12.5,12.5,0,0,0,8.71,389.61Z" transform="translate(-1.25)"/><circle class="cls-1" cx="444.96" cy="129.79" r="12.5"/><path class="cls-2" d="M1025,777.61l.14-1.08a21.28,21.28,0,0,1,13.33-17v2.71a18.73,18.73,0,0,0-10.92,15.36Zm-40.17,0a13.73,13.73,0,0,0-27.26,0H955l.18-1a16.23,16.23,0,0,1,32,0l.18,1Zm-80.05,0a8.74,8.74,0,0,0-17.15,0h-2.58l.24-1a11.23,11.23,0,0,1,21.83,0l.24,1Zm-59.89,0a23.75,23.75,0,0,0-47.37,0H795l.12-1.11a26.25,26.25,0,0,1,52.19,0l.12,1.11Zm-235.06,0a13.73,13.73,0,0,0-27.26,0H580l.18-1a16.23,16.23,0,0,1,32,0l.18,1Zm-80.05,0a8.74,8.74,0,0,0-17.15,0h-2.58l.24-1a11.23,11.23,0,0,1,21.83,0l.24,1Zm-75,0a8.74,8.74,0,0,0-17.15,0h-2.58l.24-1a11.23,11.23,0,0,1,21.83,0l.24,1Zm-150,0a8.74,8.74,0,0,0-17.15,0h-2.58l.24-1a11.23,11.23,0,0,1,21.83,0l.24,1Zm-70,0a13.73,13.73,0,0,0-27.26,0H205l.18-1a16.23,16.23,0,0,1,32,0l.18,1Zm-220,0a18.7,18.7,0,0,0-12.37-16V759a21.33,21.33,0,0,1,14.77,17.49l.15,1.08Z" transform="translate(-1.25)"/><path class="cls-2" d="M821.21,754.32h0m0,0h0m0,0a25.15,25.15,0,0,0-24.77,22h0a25,25,0,0,1,24.78-22m.09,0a25,25,0,0,1,24.78,22h0a25.15,25.15,0,0,0-24.77-22m216,7.14h0a20.17,20.17,0,0,0-2.2,1.3,20.17,20.17,0,0,1,2.2-1.3m-66,2.86h0m-375,0h0m-375,0h0m-.08,0h0m750,0h0m-375,0h0m375.13,0h0m-375,0h0m-375,0h0m-.17,0h0m750,0h0m-375,0h0m435.09,1.78a20,20,0,0,0-4.77,10.26h0a20,20,0,0,1,4.78-10.26m-135,3.22h0m-375,0h0m0,0h0m-75,0h0m0,0h0m-150,0h0m0,0h0m600,0h0m-375,0h0m-75,0h0m-150,0h0m600.07,0h0m-375,0h0m-75,0h0m-150,0h0m599.9,0h0m-375,0h0m-75,0h0m-150,0h0m150.13,0h0m-150,0h0m600,0h0m-375,0h0m-75.16,0h0m-150,0h0m600,0h0m-375,0h0m375.19,0h0m-375,0h0m-75,0h0m-150,0h0m599.78,0a10,10,0,0,0-8.64,5.2,10,10,0,0,1,8.64-5.2m-375,0a10,10,0,0,0-8.64,5.2,10,10,0,0,1,8.64-5.2m-75,0a10,10,0,0,0-8.64,5.2,10,10,0,0,1,8.64-5.2m-150,0a10,10,0,0,0-8.64,5.2,10,10,0,0,1,8.64-5.2m150.25,0a9.94,9.94,0,0,1,8.59,5.12,10,10,0,0,0-8.59-5.12m-150,0a9.94,9.94,0,0,1,8.59,5.12,10,10,0,0,0-8.59-5.12m600,0a9.94,9.94,0,0,1,8.59,5.12,10,10,0,0,0-8.59-5.12m-375,0a9.94,9.94,0,0,1,8.59,5.12,10,10,0,0,0-8.59-5.12M15,772.53a20.47,20.47,0,0,1,1,3.83h0a20.45,20.45,0,0,0-1-3.83m806.19-20.71a27.52,27.52,0,0,0-27.33,24.54H613.44a17.48,17.48,0,0,0-34.46,0H533.35a12.49,12.49,0,0,0-24.27,0H458.35a12.49,12.49,0,0,0-24.27,0H308.35a12.49,12.49,0,0,0-24.27,0H238.44a17.48,17.48,0,0,0-34.46,0H18.51a22.53,22.53,0,0,0-17.26-19v5.15a17.53,17.53,0,0,1,12.44,16.3H208.74a12.48,12.48,0,0,1,24.95,0h55.05a7.49,7.49,0,0,1,14.95,0H438.74a7.49,7.49,0,0,1,14.95,0h60.05a7.49,7.49,0,0,1,15,0h55a12.48,12.48,0,0,1,25,0h190a22.49,22.49,0,0,1,45,0h45a7.49,7.49,0,0,1,15,0h55a12.48,12.48,0,0,1,25,0h45a17.48,17.48,0,0,1,11-15.78v-5.3a22.58,22.58,0,0,0-15.82,18.58H988.44a17.48,17.48,0,0,0-34.46,0H908.35a12.49,12.49,0,0,0-24.27,0H848.55a27.53,27.53,0,0,0-27.34-24.54Z" transform="translate(-1.25)"/><path class="cls-2" d="M708.71,740.61a26.42,26.42,0,0,1-26.13-23.86l-.11-1.14H644.94l-.2,1a11.25,11.25,0,0,1-22,0l-.2-1H424.93l-.15,1.07a16.23,16.23,0,0,1-32.13,0l-.15-1.07H349.93l-.15,1.07a16.23,16.23,0,0,1-32.13,0l-.15-1.07H285l-.1,1.14a26.24,26.24,0,0,1-52.27,0l-.11-1.14H194.94l-.2,1a11.25,11.25,0,0,1-22.05,0l-.2-1H119.94l-.2,1a11.25,11.25,0,0,1-22,0l-.2-1H55l-.12,1.11a21.25,21.25,0,0,1-42.23,0l-.12-1.11H2.5v-2.5h10L12.6,712a21.25,21.25,0,0,1,42.23,0l.12,1.11H97.49l.2-1a11.25,11.25,0,0,1,22,0l.2,1h52.55l.2-1a11.25,11.25,0,0,1,22.05,0l.2,1h37.53l.11-1.14a26.24,26.24,0,0,1,52.27,0l.1,1.14H317.5l.15-1.07a16.23,16.23,0,0,1,32.13,0l.15,1.07H392.5l.15-1.07a16.23,16.23,0,0,1,32.13,0l.15,1.07H622.49l.2-1a11.25,11.25,0,0,1,22,0l.2,1h37.53l.11-1.14a26.24,26.24,0,0,1,52.27,0l.1,1.14H847.49l.2-1a11.25,11.25,0,0,1,22,0l.2,1H992.5l.15-1.07a16.23,16.23,0,0,1,32.13,0l.15,1.07h13.55v2.5h-13.55l-.15,1.07a16.23,16.23,0,0,1-32.13,0l-.15-1.07H869.94l-.2,1a11.25,11.25,0,0,1-22,0l-.2-1H735l-.1,1.14A26.43,26.43,0,0,1,708.71,740.61Zm0-50a23.75,23.75,0,1,0,23.75,23.75A23.78,23.78,0,0,0,708.71,690.61Zm-450,0a23.75,23.75,0,1,0,23.75,23.75A23.78,23.78,0,0,0,258.71,690.61Zm-225,5a18.75,18.75,0,1,0,18.75,18.75A18.78,18.78,0,0,0,33.71,695.61Zm975,5a13.75,13.75,0,1,0,13.75,13.75A13.77,13.77,0,0,0,1008.71,700.61Zm-600,0a13.75,13.75,0,1,0,13.75,13.75A13.77,13.77,0,0,0,408.71,700.61Zm-75,0a13.75,13.75,0,1,0,13.75,13.75A13.77,13.77,0,0,0,333.71,700.61Zm525,5a8.75,8.75,0,1,0,8.75,8.75A8.77,8.77,0,0,0,858.71,705.61Zm-225,0a8.75,8.75,0,1,0,8.75,8.75A8.77,8.77,0,0,0,633.71,705.61Zm-450,0a8.75,8.75,0,1,0,8.75,8.75A8.77,8.77,0,0,0,183.71,705.61Zm-75,0a8.75,8.75,0,1,0,8.75,8.75A8.77,8.77,0,0,0,108.71,705.61Z" transform="translate(-1.25)"/><path class="cls-2" d="M708.71,689.36h0m0,0h0m-450,0h0m0,0h0m450.07,0h0m-450,0h0m449.87,0h0m-450,0h0m-224.94,5h0m0,0h0m0,0h0m-.07,0h0m.1,0h0m-.14,0h0m.18,0h0m-.21,0h0m.24,0h0m-.27,0h0m.3,0h0m-.33,0h0m.36,0A20,20,0,0,1,53,709.08a20.06,20.06,0,0,0-19.1-14.72m-.39,0a20,20,0,0,0-19.1,14.72,20,20,0,0,1,19.1-14.72m375.15,5h0m-75,0h0m675,0h0m.09,0h0m-600,0h0m-75,0h0m525,5h0m0,0h0m-225,0h0m0,0h0m-450,0h0m0,0h0m-75,0h0m0,0h0m750,0h0m-225,0h0m-450,0h0m-75,0h0m750.09,0h0m-225,0h0m-450,0h0m-75,0h0m749.88,0h0m-225,0h0m-450,0h0m-75,0h0m75.15,0h0m-75,0h0m750,0h0m-225,0h0m-450.19,0h0m-75,0h0m750,0h0m-225,0h0m225.22,0h0m-225,0h0m-450,0h0m-75,0h0m740.71,6h0m-225,0h0m-450,0h0m-75,0h0m750,0h0m-225,0h0m-450,0h0m-75,0h0m750,0h0m-225,0h0m-450,0h0m-75,0h0m750,0h0m-225,0h0m-450,0h0m-75,0h0m750,0h0m-225,0h0m-450,0h0m-75,0h0m750,0h0m-225,0h0m-450,0h0m-75,0h0m750,0h0m-225,0h0m225,.05h0m-225,0h0m-450,0h0m-75,0h0m75,0h0m-75,0h0m750,0h0m-225,0h0m-450,0h0m-75,0h0m750,0h0m-225,0h0m-450,0h0m-75,0h0m750,0h0m-225,0h0m-450,0h0m-75,0h0m750,0h0m-225,0h0m-450.5,1.73a10.16,10.16,0,0,0-.19,1.92,10.62,10.62,0,0,0,.18,1.89l-.38-1.89h0l.39-1.92m-75,0a10.16,10.16,0,0,0-.19,1.92,10.62,10.62,0,0,0,.18,1.89l-.38-1.89h0l.39-1.92m750,0a10.16,10.16,0,0,0-.19,1.92,10.62,10.62,0,0,0,.18,1.89l-.38-1.89H733.81l-.15,1.72c0-.57.05-1.14.05-1.72s0-1.15-.05-1.72l.15,1.72h114.7l.39-1.92m-225,0a10.16,10.16,0,0,0-.19,1.92,10.62,10.62,0,0,0,.18,1.89l-.38-1.89h0l.39-1.92m244.63,0,.39,1.91H993.58l.19-1.36c0,.45-.06.91-.06,1.36s0,.91.06,1.36l-.19-1.36H868.92l-.39,1.89a9.77,9.77,0,0,0,.18-1.89,10.05,10.05,0,0,0-.18-1.91m-225,0,.39,1.91-.39,1.89a9.77,9.77,0,0,0,.18-1.89,10.05,10.05,0,0,0-.18-1.91m-450,0,.39,1.91-.39,1.89a9.77,9.77,0,0,0,.18-1.89,10.05,10.05,0,0,0-.18-1.91m-75,0,.39,1.91-.39,1.89a9.77,9.77,0,0,0,.18-1.89,10.05,10.05,0,0,0-.18-1.91m-104.73.09c-.06.6-.09,1.21-.09,1.82a18,18,0,0,0,.09,1.81l-.21-1.81h0l.21-1.82m39.83,0,.2,1.81h0l-.2,1.84c.06-.61.08-1.22.08-1.84a18,18,0,0,0-.08-1.81m180.14.08c0,.57-.06,1.15-.06,1.73s0,1.16.06,1.73l-.15-1.73.15-1.73m450,0c0,.57-.06,1.15-.06,1.73s0,1.16.06,1.73l-.15-1.73.15-1.73m-400.11,0,.15,1.72h0l-.15,1.72c0-.57,0-1.14,0-1.72s0-1.15,0-1.72m110.11.36c0,.45-.06.91-.06,1.36s0,.91.06,1.36l-.19-1.36h0l.19-1.36m-75,0c0,.45-.06.91-.06,1.36s0,.91.06,1.36l-.19-1.36h0l.19-1.36m704.88,0,.2,1.35h0l-.2,1.36c0-.45.06-.9.06-1.36s0-.91-.06-1.35m-600,0,.2,1.35h0l-.2,1.36c0-.45.06-.9.06-1.36s0-.91-.06-1.35m-75,0,.2,1.35h0l-.2,1.36c0-.45.06-.9.06-1.36s0-.91-.06-1.35M53,719.56a20,20,0,0,1-19.12,14.8A20,20,0,0,0,53,719.56m-38.6.12a20,20,0,0,0,19.09,14.68,20,20,0,0,1-19.09-14.68m169.17,4.68h0m-75,0h0m750,0h0m-225,0h0m225.23,0h0m-225,0h0m-450,0h0m-75,0h0m749.8,0h0m-225,0h0m-450,0h0m-75,0h0m75.17,0h0m-75,0h0m750,0h0m-225,0h0m224.86,0h0m-225,0h0m-450,0h0m-75,0h0m75.11,0h0m-75,0h0m750,0h0m-225,0h0m224.91,0h0m-225,0h0m-450,0h0m-75,0h0m300,5h0m-75,0h0m675,0h0m.09,0h0m-600,0h0m-75,0h0m-300.24,5h0m.39,0h0m-.36,0h0m.32,0h0m-.28,0h0m.25,0h0m-.22,0h0m.19,0h0m-.16,0h0m.13,0h0m-.1,0h0m675,5h0m-449.85,0h0m450,0h0m-450.15,0h0m450,0h0m-449.93,0h0m450-52.5a27.55,27.55,0,0,0-27.38,25H646a12.5,12.5,0,0,0-24.49,0H426a17.48,17.48,0,0,0-34.6,0H351a17.48,17.48,0,0,0-34.6,0H286.09a27.49,27.49,0,0,0-54.76,0H196a12.5,12.5,0,0,0-24.49,0H121a12.5,12.5,0,0,0-24.49,0H56.07a22.49,22.49,0,0,0-44.71,0H1.25v5H11.36a22.49,22.49,0,0,0,44.71,0h40.4a12.5,12.5,0,0,0,24.49,0h50.51a12.5,12.5,0,0,0,24.49,0h35.37a27.5,27.5,0,0,0,54.77,0h30.31a17.48,17.48,0,0,0,34.6,0h40.4a17.48,17.48,0,0,0,34.6,0H621.47a12.5,12.5,0,0,0,24.49,0h35.37a27.5,27.5,0,0,0,54.77,0H846.47a12.5,12.5,0,0,0,24.49,0H991.41a17.48,17.48,0,0,0,34.6,0h13.72v-5H1026a17.48,17.48,0,0,0-34.6,0H871a12.5,12.5,0,0,0-24.49,0H736.09a27.53,27.53,0,0,0-27.38-25Zm0,50a22.5,22.5,0,1,1,22.5-22.5,22.53,22.53,0,0,1-22.5,22.5Zm-450,0a22.5,22.5,0,1,1,22.5-22.5,22.53,22.53,0,0,1-22.5,22.5Zm-225-5a17.5,17.5,0,1,1,17.5-17.5,17.52,17.52,0,0,1-17.5,17.5Zm975-5a12.5,12.5,0,1,1,12.5-12.5,12.51,12.51,0,0,1-12.5,12.5Zm-600,0a12.5,12.5,0,1,1,12.5-12.5,12.51,12.51,0,0,1-12.5,12.5Zm-75,0a12.5,12.5,0,1,1,12.5-12.5,12.51,12.51,0,0,1-12.5,12.5Zm525-5a7.5,7.5,0,1,1,7.5-7.5,7.51,7.51,0,0,1-7.5,7.5Zm-225,0a7.5,7.5,0,1,1,7.5-7.5,7.51,7.51,0,0,1-7.5,7.5Zm-450,0a7.5,7.5,0,1,1,7.5-7.5,7.51,7.51,0,0,1-7.5,7.5Zm-75,0a7.5,7.5,0,1,1,7.5-7.5,7.51,7.51,0,0,1-7.5,7.5Z" transform="translate(-1.25)"/><path class="cls-2" d="M671.21,675.66a26.42,26.42,0,0,1-26.13-23.86l-.11-1.14H542.45l-.12,1.11a21.25,21.25,0,0,1-42.23,0l-.12-1.11H457.44l-.2,1a11.25,11.25,0,0,1-22.05,0l-.2-1H232.44l-.2,1a11.25,11.25,0,0,1-22.05,0l-.2-1H172.45l-.1,1.14a26.24,26.24,0,0,1-52.27,0l-.11-1.14H87.43l-.15,1.07a16.23,16.23,0,0,1-32.13,0L55,650.66H2.5v-2.5H55l.15-1.07a16.23,16.23,0,0,1,32.13,0l.15,1.07H120l.11-1.14a26.24,26.24,0,0,1,52.27,0l.1,1.14H210l.2-1a11.25,11.25,0,0,1,22.05,0l.2,1H435l.2-1a11.25,11.25,0,0,1,22.05,0l.2,1H500l.12-1.11a21.25,21.25,0,0,1,42.23,0l.12,1.11H645l.11-1.14a26.24,26.24,0,0,1,52.27,0l.1,1.14H730l.15-1.07a16.23,16.23,0,0,1,32.13,0l.15,1.07H875l.12-1.11a21.25,21.25,0,0,1,42.23,0l.12,1.11H950l.12-1.11a21.25,21.25,0,0,1,42.23,0l.12,1.11H1020l.11-1.14a26.23,26.23,0,0,1,18.4-22.7V627a23.75,23.75,0,0,0,0,44.91v2.64a26.23,26.23,0,0,1-18.4-22.7l-.11-1.14H992.45l-.12,1.11a21.25,21.25,0,0,1-42.23,0l-.12-1.11H917.45l-.12,1.11a21.25,21.25,0,0,1-42.23,0l-.12-1.11H762.43l-.15,1.07a16.23,16.23,0,0,1-32.13,0l-.15-1.07H697.45l-.1,1.14A26.43,26.43,0,0,1,671.21,675.66Zm0-50A23.75,23.75,0,1,0,695,649.41,23.78,23.78,0,0,0,671.21,625.66Zm-525,0A23.75,23.75,0,1,0,170,649.41,23.78,23.78,0,0,0,146.21,625.66Zm825,5A18.75,18.75,0,1,0,990,649.41,18.78,18.78,0,0,0,971.21,630.66Zm-75,0A18.75,18.75,0,1,0,915,649.41,18.78,18.78,0,0,0,896.21,630.66Zm-375,0A18.75,18.75,0,1,0,540,649.41,18.78,18.78,0,0,0,521.21,630.66Zm225,5A13.75,13.75,0,1,0,760,649.41,13.77,13.77,0,0,0,746.21,635.66Zm-675,0A13.75,13.75,0,1,0,85,649.41,13.77,13.77,0,0,0,71.21,635.66Zm375,5a8.75,8.75,0,1,0,8.75,8.75A8.76,8.76,0,0,0,446.21,640.66Zm-225,0a8.75,8.75,0,1,0,8.75,8.75A8.76,8.76,0,0,0,221.21,640.66Z" transform="translate(-1.25)"/><path class="cls-2" d="M671.21,624.41h0m0,0h0m-525,0h0m0,0h0m524.94,0h0m-525,0h0m525.13,0h0m-525,0h0m891,1.66h0a25.25,25.25,0,0,0-15.82,20.22,25,25,0,0,1,15.82-20.23m-66,3.34h0m0,0h0m-75,0h0m0,0h0m-375,0h0m0,0h0m450,0h0m-.07,0h0m-74.93,0h0m-.07,0h0m-374.93,0h0m-.07,0h0m450,0h0m-75,0h0m-375,0h0m450.14,0h0m-75,0h0m-375,0h0m449.83,0h0m-75,0h0m-375,0h0m450.21,0h0m-75,0h0m-375,0h0m449.76,0h0m-75,0h0m-375,0h0m450.27,0h0m-75,0h0m-375,0h0m450,0h0m-75,0h0m-375,0h0m449.67,0h0m-75,0h0m-375,0h0m450,0a20,20,0,0,0-19.13,14.82A20,20,0,0,1,971,629.41m-75,0a20,20,0,0,0-19.13,14.82A20,20,0,0,1,896,629.41m-375,0a20,20,0,0,0-19.13,14.82A20,20,0,0,1,521,629.41m450.39,0a20,20,0,0,1,19.11,14.78,20,20,0,0,0-19.11-14.78m-75,0a20,20,0,0,1,19.11,14.78,20,20,0,0,0-19.11-14.78m-375,0a20,20,0,0,1,19.11,14.78,20,20,0,0,0-19.11-14.78m-450.24,5h0m675,0h0m.09,0h0m-675,0h0m375,5h0m0,0h0m-225,0h0m0,0h0m225.05,0h0m-225,0h0m224.91,0h0m-225,0h0m225.12,0h0m-225,0h0m224.85,0h0m-225,0h0m225.18,0h0m-225,0h0m224.78,0h0m-225,0h0m215.3,8.09a9.9,9.9,0,0,0-.19,1.91,10.06,10.06,0,0,0,.19,1.91l-.39-1.91.39-1.91m-225,0a9.9,9.9,0,0,0-.19,1.91,10.06,10.06,0,0,0,.19,1.91l-.39-1.91.39-1.91m244.63,0,.39,1.9-.39,1.9a10.12,10.12,0,0,0,0-3.8m-225,0,.39,1.9-.39,1.9a10.12,10.12,0,0,0,0-3.8m790.25,0c0,.62-.07,1.24-.07,1.86s0,1.24.07,1.86l-.16-1.86H991.33l-.2,1.83c.06-.61.08-1.22.08-1.83s0-1.23-.08-1.83l.2,1.83h29.79l.16-1.86m-520,0c-.06.61-.09,1.22-.09,1.84s0,1.23.09,1.83l-.21-1.83.21-1.84m450,0c-.06.61-.09,1.22-.09,1.84s0,1.23.09,1.83l-.21-1.83H916.33l-.2,1.83c.06-.61.08-1.22.08-1.83s0-1.23-.08-1.83l.2,1.83h34.76l.21-1.84m-75,0c-.06.61-.09,1.22-.09,1.84s0,1.23.09,1.83l-.21-1.83H761.35l-.2,1.36c0-.45.06-.9.06-1.36s0-.91-.06-1.36l.2,1.36H876.09l.21-1.84m-335.17,0,.2,1.83-.2,1.83c.06-.61.08-1.22.08-1.83s0-1.23-.08-1.83m-419.86.09q-.06.86-.06,1.74t.06,1.74l-.15-1.74.15-1.74m525,0c0,.58-.06,1.15-.06,1.74s0,1.16.06,1.74l-.15-1.74.15-1.74m49.88,0,.16,1.73h34.77l.19-1.36c0,.45-.06.9-.06,1.36s0,.91.06,1.36l-.19-1.36H696.31l-.16,1.73c0-.57.06-1.15.06-1.73s0-1.16-.06-1.73m-525,0,.16,1.73-.16,1.73c0-.57.06-1.15.06-1.73s0-1.16-.06-1.73m-114.88.37c0,.45-.06.9-.06,1.36s0,.91.06,1.36l-.19-1.36.19-1.36m29.88,0,.2,1.36-.2,1.36c0-.45.06-.9.06-1.36s0-.91-.06-1.36m935.26,4.47a25.26,25.26,0,0,0,15.82,20.22h0a25,25,0,0,1-15.82-20.22m-519.52,2.06A20,20,0,0,0,521,669.41a20,20,0,0,1-19.13-14.83m450,0A20,20,0,0,0,971,669.41a20,20,0,0,1-19.13-14.83m-75,0A20,20,0,0,0,896,669.41a20,20,0,0,1-19.13-14.83m113.63,0a20,20,0,0,1-19.11,14.79,20,20,0,0,0,19.11-14.79m-75,0a20,20,0,0,1-19.11,14.79,20,20,0,0,0,19.11-14.79m-375,0a20,20,0,0,1-19.11,14.79,20,20,0,0,0,19.11-14.79m-94.19,4.79h0m-225,0h0m224.77,0h0m-225,0h0m225.2,0h0m-225,0h0m224.83,0h0m-225,0h0m225.14,0h0m-225,0h0m224.89,0h0m-225,0h0m225.08,0h0m-225,0h0m-150.07,5h0m675,0h0m.09,0h0m-675,0h0m899.76,5h0m-75,0h0m-375,0h0m450.39,0h0m-75,0h0m-375,0h0m450,0h0m-75,0h0m-375,0h0m449.68,0h0m-75,0h0m-375,0h0m450,0h0m-75,0h0m-375,0h0m450.25,0h0m-75,0h0m-375,0h0m449.78,0h0m-75,0h0m-375,0h0m450.19,0h0m-75,0h0m-375,0h0m449.84,0h0m-75,0h0m-375,0h0m450.13,0h0m-75,0h0m-375,0h0m449.9,0h0m-75,0h0m-375,0h0m150,5h0m-525,0h0m.15,0h0m525,0h0m-.11,0h0m-524.93,0h0m525-52.5a27.53,27.53,0,0,0-27.38,25H543.57a22.49,22.49,0,0,0-44.71,0h-40.4a12.5,12.5,0,0,0-24.49,0H233.46a12.5,12.5,0,0,0-24.49,0H173.6a27.5,27.5,0,0,0-54.77,0H88.51a17.48,17.48,0,0,0-34.6,0H1.25v5H53.91a17.48,17.48,0,0,0,34.6,0h30.32a27.5,27.5,0,0,0,54.77,0H209a12.5,12.5,0,0,0,24.49,0H434a12.5,12.5,0,0,0,24.49,0h40.4a22.49,22.49,0,0,0,44.71,0H643.83a27.5,27.5,0,0,0,54.77,0h30.31a17.48,17.48,0,0,0,34.6,0H873.86a22.49,22.49,0,0,0,44.71,0h30.29a22.49,22.49,0,0,0,44.71,0h25.26a27.57,27.57,0,0,0,20.9,24.23V671a22.5,22.5,0,0,1,0-43.09v-5.18a27.56,27.56,0,0,0-20.9,24.23H993.57a22.49,22.49,0,0,0-44.71,0H918.57a22.49,22.49,0,0,0-44.71,0H763.51a17.48,17.48,0,0,0-34.6,0H698.6a27.54,27.54,0,0,0-27.39-25Zm0,50a22.5,22.5,0,1,1,22.5-22.5,22.53,22.53,0,0,1-22.5,22.5Zm-525,0a22.5,22.5,0,1,1,22.5-22.5,22.53,22.53,0,0,1-22.5,22.5Zm825-5a17.5,17.5,0,1,1,17.5-17.5,17.52,17.52,0,0,1-17.5,17.5Zm-75,0a17.5,17.5,0,1,1,17.5-17.5,17.52,17.52,0,0,1-17.5,17.5Zm-375,0a17.5,17.5,0,1,1,17.5-17.5,17.52,17.52,0,0,1-17.5,17.5Zm225-5a12.5,12.5,0,1,1,12.5-12.5,12.52,12.52,0,0,1-12.5,12.5Zm-675,0a12.5,12.5,0,1,1,12.5-12.5,12.52,12.52,0,0,1-12.5,12.5Zm375-5a7.5,7.5,0,1,1,7.5-7.5,7.52,7.52,0,0,1-7.5,7.5Zm-225,0a7.5,7.5,0,1,1,7.5-7.5,7.52,7.52,0,0,1-7.5,7.5Z" transform="translate(-1.25)"/><path class="cls-2" d="M971.21,545.75a26.42,26.42,0,0,1-26.13-23.86l-.11-1.14H832.44l-.2,1a11.25,11.25,0,0,1-22,0l-.2-1H767.45l-.12,1.12a21.25,21.25,0,0,1-42.23,0l-.13-1.12H612.43l-.15,1.08a16.23,16.23,0,0,1-32.13,0l-.15-1.08H542.45l-.12,1.12a21.25,21.25,0,0,1-42.23,0l-.13-1.12H457.44l-.2,1a11.25,11.25,0,0,1-22.05,0l-.2-1H397.45l-.1,1.14a26.24,26.24,0,0,1-52.27,0l-.11-1.14H237.43l-.15,1.08a16.23,16.23,0,0,1-32.13,0l-.15-1.08H157.44l-.2,1a11.25,11.25,0,0,1-22.05,0l-.2-1H82.44l-.2,1a11.25,11.25,0,0,1-22,0l-.2-1H17.45l-.12,1.12A21.25,21.25,0,0,1,2.5,539.78v-2.62A18.89,18.89,0,0,0,15,519.5,18.89,18.89,0,0,0,2.5,501.84v-2.62a21.26,21.26,0,0,1,14.83,17.92l.12,1.11H60l.2-1a11.25,11.25,0,0,1,22,0l.2,1H135l.2-1a11.25,11.25,0,0,1,22.05,0l.2,1H205l.15-1.07a16.23,16.23,0,0,1,32.13,0l.15,1.07H345l.11-1.13a26.24,26.24,0,0,1,52.27,0l.1,1.13H435l.2-1a11.25,11.25,0,0,1,22.05,0l.2,1H500l.12-1.11a21.25,21.25,0,0,1,42.23,0l.12,1.11H580l.15-1.07a16.23,16.23,0,0,1,32.13,0l.15,1.07H725l.12-1.11a21.25,21.25,0,0,1,42.23,0l.12,1.11H810l.2-1a11.25,11.25,0,0,1,22,0l.2,1H945l.11-1.13a26.24,26.24,0,0,1,52.27,0l.1,1.13H1035l.2-1a11.29,11.29,0,0,1,3.29-5.9v4.07a8.67,8.67,0,0,0,0,8.16v4.08a11.32,11.32,0,0,1-3.29-5.91l-.2-1H997.45l-.1,1.14A26.43,26.43,0,0,1,971.21,545.75Zm0-50A23.75,23.75,0,1,0,995,519.5,23.78,23.78,0,0,0,971.21,495.75Zm-600,0A23.75,23.75,0,1,0,395,519.5,23.78,23.78,0,0,0,371.21,495.75Zm375,5A18.75,18.75,0,1,0,765,519.5,18.78,18.78,0,0,0,746.21,500.75Zm-225,0A18.75,18.75,0,1,0,540,519.5,18.78,18.78,0,0,0,521.21,500.75Zm75,5A13.75,13.75,0,1,0,610,519.5,13.77,13.77,0,0,0,596.21,505.75Zm-375,0A13.75,13.75,0,1,0,235,519.5,13.77,13.77,0,0,0,221.21,505.75Zm600,5A8.75,8.75,0,1,0,830,519.5,8.77,8.77,0,0,0,821.21,510.75Zm-375,0A8.75,8.75,0,1,0,455,519.5,8.77,8.77,0,0,0,446.21,510.75Zm-300,0A8.75,8.75,0,1,0,155,519.5,8.77,8.77,0,0,0,146.21,510.75Zm-75,0A8.75,8.75,0,1,0,80,519.5,8.77,8.77,0,0,0,71.21,510.75Z" transform="translate(-1.25)"/><path class="cls-2" d="M971.21,494.5h0m0,0h0m-600,0h0m0,0h0m600.07,0h0m-.13,0h0m-599.87,0h0m-.13,0h0m375.06,5h0m0,0h0m-225,0h0m0,0h0m225,0h0m-225,0h0m224.93,0h0m-225,0h0m225.1,0h0m-225,0h0m224.86,0h0m-225,0h0m225.18,0h0m-225,0h0m224.79,0h0m-225,0h0m225.24,0h0m-225,0h0m224.73,0h0m-225,0h0m225.3,0h0m-225,0h0m224.67,0h0m-225,0h0m225.36,0a20,20,0,0,1,19.13,14.86,20,20,0,0,0-19.13-14.86m-225,0a20,20,0,0,1,19.13,14.86,20,20,0,0,0-19.13-14.86m224.61,0a20,20,0,0,0-19.09,14.7A20,20,0,0,1,746,499.5m-225,0a20,20,0,0,0-19.09,14.69A20,20,0,0,1,521,499.5M6.82,502.57a20,20,0,0,1,9.27,14.69,20.22,20.22,0,0,0-9.27-14.69m214.35,1.93h0m375,0h0m.09,0h0m-375,0h0m600,5h0m0,0h0m-375,0h0m0,0h0m-300,0h0m0,0h0m-75,0h0m0,0h0m750.05,0h0m-.09,0h0m-374.91,0h0m-.09,0h0m-299.91,0h0m-.09,0h0m-74.91,0h0m-.09,0h0m750,0h0m-374.85,0h0m-300,0h0m-75,0h0m750,0h0m-375.15,0h0m-300,0h0m-75,0h0m750.18,0h0m-375.22,0h0m-300,0h0m-75,0h0m750,0h0m-374.78,0h0m-300,0h0m-75,0h0m965.91,5.61h0a9.91,9.91,0,0,0,0,8.76h0a9.76,9.76,0,0,1-.81-2.39l-.41-2h-39.7l-.16,1.75c0-.58.06-1.16.06-1.75s0-1.15-.05-1.72l.15,1.72H1036l.41-2a9.63,9.63,0,0,1,.81-2.39M16.1,517.41l.23,2.09h0l-.22,2a19.38,19.38,0,0,0,.1-2,18.17,18.17,0,0,0-.11-2.09M831,517.6l.39,1.9h0l-.39,1.89a9.77,9.77,0,0,0,.18-1.89,10,10,0,0,0-.18-1.9m-394.63,0a10,10,0,0,0-.19,1.9,10.06,10.06,0,0,0,.19,1.91L436,519.5h0l.39-1.9m-300,0a10,10,0,0,0-.19,1.9,10.06,10.06,0,0,0,.19,1.91L136,519.5h0l.39-1.9m-75,0a10,10,0,0,0-.19,1.9,10.06,10.06,0,0,0,.19,1.91L61,519.5h0l.39-1.9m750,0a10,10,0,0,0-.19,1.9,10.06,10.06,0,0,0,.19,1.91L811,519.5h0l.39-1.9M456,517.6l.39,1.9h0l-.39,1.89a9.77,9.77,0,0,0,.18-1.89,10,10,0,0,0-.18-1.9m-300,0,.39,1.9h0l-.39,1.89a9.77,9.77,0,0,0,.18-1.89,10,10,0,0,0-.18-1.9m-75,0,.39,1.9h0L81,521.39a9.77,9.77,0,0,0,.18-1.89,10,10,0,0,0-.18-1.9m685.1.07.2,1.83h0l-.2,1.82c.06-.6.08-1.21.08-1.82s0-1.23-.08-1.83m-225,0,.2,1.83h0l-.2,1.82c.06-.6.08-1.21.08-1.82s0-1.23-.08-1.83m-39.83,0a18,18,0,0,0-.09,1.81,18.18,18.18,0,0,0,.09,1.82l-.21-1.82h0l.21-1.81m225,0a18,18,0,0,0-.09,1.81,18.18,18.18,0,0,0,.09,1.82l-.21-1.82h0l.21-1.81m-380,.09c0,.57-.06,1.14-.06,1.72s0,1.16.06,1.73l-.15-1.73h0l.15-1.72m600,0c0,.57-.06,1.14-.06,1.72s0,1.16.06,1.73l-.15-1.73h0l.15-1.72m-550.11,0,.15,1.72h0l-.16,1.75c0-.58.06-1.16.06-1.75s0-1.15,0-1.72m-189.89.36c0,.45-.06.9-.06,1.36s0,.91.06,1.36l-.19-1.36h0l.19-1.36m375,0c0,.45-.06.9-.06,1.36s0,.91.06,1.36l-.19-1.36h0l.19-1.36m29.88,0,.2,1.35h0l-.2,1.36c0-.45.06-.9.06-1.36s0-.91-.06-1.35m-375,0,.2,1.35h0l-.2,1.36c0-.45.06-.9.06-1.36s0-.91-.06-1.35M16.07,521.88a20,20,0,0,1-9.25,14.56,20.21,20.21,0,0,0,9.25-14.56m485.85,2.91A20,20,0,0,0,521,539.5a20,20,0,0,1-19.1-14.71m225,0A20,20,0,0,0,746,539.5a20,20,0,0,1-19.1-14.71m38.57,0a20,20,0,0,1-19.08,14.67,20,20,0,0,0,19.08-14.67m-225,0a20,20,0,0,1-19.08,14.67,20,20,0,0,0,19.08-14.67m280.84,4.67h0m-375.23,0h0m-300,0h0m-75,0h0m750,0h0m-374.77,0h0m-300,0h0m-75,0h0m749.8,0h0m-374.83,0h0m-300,0h0m-75,0h0m750,0h0m-375.17,0h0m-300,0h0m-75,0h0m750,0h0m-374.89,0h0m-300,0h0m-75,0h0m750,0h0m-375.11,0h0m-300,0h0m-75,0h0m750,0h0m-374.94,0h0m-300,0h0m-75,0h0m149.93,5h0m375,0h0m.09,0h0m-375,0h0m524.76,5h0m.39,0h0m-225,0h0m-.39,0h0m225.35,0h0m-225,0h0m224.68,0h0m-225,0h0m225,0h0m.25,0h0m-225,0h0m-.25,0h0m225.22,0h0m-225,0h0m224.81,0h0m-225,0h0m225,0h0m-225,0h0m225.13,0h0m-225,0h0m224.9,0h0m-225,0h0m-149.89,5h0m600,0h0m-.15,0h0m-600,0h0m.11,0h0m600,0h0m0-52.5a27.54,27.54,0,0,0-27.38,25H833.46A12.5,12.5,0,0,0,809,517h-40.4a22.49,22.49,0,0,0-44.71,0H613.51a17.48,17.48,0,0,0-34.6,0H543.57a22.49,22.49,0,0,0-44.71,0h-40.4A12.5,12.5,0,0,0,434,517H398.6a27.5,27.5,0,0,0-54.77,0H238.51a17.48,17.48,0,0,0-34.6,0H158.46A12.5,12.5,0,0,0,134,517H83.46A12.5,12.5,0,0,0,59,517H18.57A22.55,22.55,0,0,0,1.25,497.59v5.16A17.52,17.52,0,0,1,13.71,519.5,17.53,17.53,0,0,1,1.25,536.26v5.15A22.54,22.54,0,0,0,18.57,522H59a12.5,12.5,0,0,0,24.49,0H134a12.5,12.5,0,0,0,24.49,0h45.45a17.48,17.48,0,0,0,34.6,0H343.83a27.5,27.5,0,0,0,54.77,0H434a12.5,12.5,0,0,0,24.49,0h40.4a22.49,22.49,0,0,0,44.71,0h35.34a17.48,17.48,0,0,0,34.6,0H723.86a22.49,22.49,0,0,0,44.71,0H809a12.5,12.5,0,0,0,24.49,0H943.83a27.5,27.5,0,0,0,54.77,0H1034a12.51,12.51,0,0,0,5.76,8.18v-6.92a7.44,7.44,0,0,1,0-7.52v-6.91A12.49,12.49,0,0,0,1034,517H998.6a27.55,27.55,0,0,0-27.39-25Zm0,50a22.5,22.5,0,1,1,22.5-22.5,22.53,22.53,0,0,1-22.5,22.5Zm-600,0a22.5,22.5,0,1,1,22.5-22.5,22.53,22.53,0,0,1-22.5,22.5Zm375-5a17.5,17.5,0,1,1,17.5-17.5,17.52,17.52,0,0,1-17.5,17.5Zm-225,0a17.5,17.5,0,1,1,17.5-17.5,17.52,17.52,0,0,1-17.5,17.5Zm75-5a12.5,12.5,0,1,1,12.5-12.5,12.52,12.52,0,0,1-12.5,12.5Zm-375,0a12.5,12.5,0,1,1,12.5-12.5,12.52,12.52,0,0,1-12.5,12.5Zm600-5a7.5,7.5,0,1,1,7.5-7.5,7.51,7.51,0,0,1-7.5,7.5Zm-375,0a7.5,7.5,0,1,1,7.5-7.5,7.51,7.51,0,0,1-7.5,7.5Zm-300,0a7.5,7.5,0,1,1,7.5-7.5,7.51,7.51,0,0,1-7.5,7.5Zm-75,0a7.5,7.5,0,1,1,7.5-7.5,7.51,7.51,0,0,1-7.5,7.5Z" transform="translate(-1.25)"/><path class="cls-2" d="M258.71,480.81a26.43,26.43,0,0,1-26.13-23.87l-.11-1.14H194.94l-.2,1a11.25,11.25,0,0,1-22.05,0l-.2-1H60l-.1,1.14a26.43,26.43,0,0,1-26.14,23.87A26.43,26.43,0,0,1,7.58,456.94l-.11-1.14h-5v-2.5h5l.11-1.13a26.24,26.24,0,0,1,52.27,0l.1,1.13H172.49l.2-1a11.26,11.26,0,0,1,22.05,0l.2,1h37.53l.11-1.13a26.24,26.24,0,0,1,52.27,0l.1,1.13H317.5l.15-1.07a16.23,16.23,0,0,1,32.13,0l.15,1.07H392.5l.15-1.07a16.23,16.23,0,0,1,32.13,0l.15,1.07H547.49l.2-1a11.26,11.26,0,0,1,22,0l.2,1h42.53l.13-1.11a21.25,21.25,0,0,1,42.23,0l.12,1.11h42.54l.2-1a11.26,11.26,0,0,1,22,0l.2,1H842.5l.15-1.07a16.23,16.23,0,0,1,32.13,0l.15,1.07h47.56l.2-1a11.26,11.26,0,0,1,22,0l.2,1h93.54v2.5H944.94l-.2,1a11.25,11.25,0,0,1-22,0l-.2-1H874.93l-.15,1.07a16.23,16.23,0,0,1-32.13,0l-.15-1.07H719.94l-.2,1a11.25,11.25,0,0,1-22,0l-.2-1H655l-.12,1.12a21.25,21.25,0,0,1-42.23,0l-.12-1.12H569.94l-.2,1a11.25,11.25,0,0,1-22,0l-.2-1H424.93l-.15,1.07a16.23,16.23,0,0,1-32.13,0l-.15-1.07H349.93l-.15,1.07a16.23,16.23,0,0,1-32.13,0l-.15-1.07H285l-.1,1.14A26.43,26.43,0,0,1,258.71,480.81Zm0-50a23.75,23.75,0,1,0,23.75,23.75A23.78,23.78,0,0,0,258.71,430.81Zm-225,0a23.75,23.75,0,1,0,23.75,23.75A23.78,23.78,0,0,0,33.71,430.81Zm600,5a18.75,18.75,0,1,0,18.75,18.75A18.78,18.78,0,0,0,633.71,435.81Zm225,5a13.75,13.75,0,1,0,13.75,13.75A13.76,13.76,0,0,0,858.71,440.81Zm-450,0a13.75,13.75,0,1,0,13.75,13.75A13.76,13.76,0,0,0,408.71,440.81Zm-75,0a13.75,13.75,0,1,0,13.75,13.75A13.76,13.76,0,0,0,333.71,440.81Zm600,5a8.75,8.75,0,1,0,8.75,8.75A8.76,8.76,0,0,0,933.71,445.81Zm-225,0a8.75,8.75,0,1,0,8.75,8.75A8.76,8.76,0,0,0,708.71,445.81Zm-150,0a8.75,8.75,0,1,0,8.75,8.75A8.76,8.76,0,0,0,558.71,445.81Zm-375,0a8.75,8.75,0,1,0,8.75,8.75A8.76,8.76,0,0,0,183.71,445.81Z" transform="translate(-1.25)"/><path class="cls-2" d="M258.71,429.56h0m0,0h0m-225,0h0m0,0h0m225.07,0h0m-225,0h0m224.87,0h0m-225,0h0m600.06,5h0m0,0h0m0,0h0m-.07,0h0m.1,0h0m-.14,0h0m.18,0h0m-.21,0h0m.24,0h0m-.27,0h0m.3,0h0m-.33,0h0m.36,0A20,20,0,0,1,653,449.28a20,20,0,0,0-19.1-14.72m-.39,0a20,20,0,0,0-19.1,14.71,20,20,0,0,1,19.1-14.71m-224.85,5h0m-75,0h0m525,0h0m.09,0h0m-450,0h0m-75,0h0m600,5h0m0,0h0m-225,0h0m0,0h0m-150,0h0m0,0h0m-375,0h0m0,0h0m750,0h0m-225,0h0m-150,0h0m-375,0h0m750.09,0h0m-225,0h0m-150,0h0m-375,0h0m749.88,0h0m-225,0h0m-150,0h0m-375,0h0m.15,0h0m750,0h0m-225,0h0m-150,0h0m-375.19,0h0m750,0h0m-225,0h0m-150,0h0m375.22,0h0m-225,0h0m-150,0h0m-375,0h0m740.71,6h0m-225,0h0m-150,0h0m-375,0h0m750,0h0m-225,0h0m-150,0h0m-375,0h0m750,0h0m-225,0h0m-150,0h0m-375,0h0m750,0v0m-225,0v0m-150,0v0m-375,0h0m750,0h0m-225,0h0m-150,0h0m-375,0h0m750,0h0m-225,0h0m-150,0h0m-375,0h0m750,0h0m-225,0h0m-150,0h0m375,.05h0m-225,0h0m-150,0h0m-375,0h0m0,0h0m750,0h0m-225,0h0m-150,0h0m-375,0h0m750,0h0m-225,0h0m-150,0h0m-375,0h0m750,0h0m-225,0h0m-150,0h0m-375,0h0m750,0h0m-225,0h0m-150,0h0m-375.5,1.73a10.19,10.19,0,0,0-.19,1.93,10.81,10.81,0,0,0,.18,1.89l-.38-1.9h0l.39-1.92m750,0a10.19,10.19,0,0,0-.19,1.93,10.81,10.81,0,0,0,.18,1.89l-.38-1.9H873.85l-.2,1.36q.06-.68.06-1.35c0-.46,0-.91-.06-1.36l.2,1.35h49.66l.39-1.92m-225,0a10.19,10.19,0,0,0-.19,1.93,10.81,10.81,0,0,0,.18,1.89l-.38-1.9H653.83l-.2,1.84c.06-.61.08-1.22.08-1.83a18.2,18.2,0,0,0-.08-1.82l.2,1.81h44.68l.39-1.92m-150,0a10.19,10.19,0,0,0-.19,1.93,10.81,10.81,0,0,0,.18,1.89l-.38-1.9H423.85l-.2,1.36q.06-.68.06-1.35c0-.46,0-.91-.06-1.36l.2,1.35H548.51l.39-1.92m394.63,0,.39,1.9h0l-.39,1.9a10.12,10.12,0,0,0,0-3.8m-225,0,.39,1.9H843.58l.19-1.35c0,.44-.06.9-.06,1.36s0,.91.06,1.35l-.19-1.36H718.92l-.39,1.9a10.12,10.12,0,0,0,0-3.8m-150,0,.39,1.9h44.67l.21-1.82q-.09.9-.09,1.83c0,.61,0,1.21.09,1.81l-.21-1.82H568.92l-.39,1.9a10.12,10.12,0,0,0,0-3.8m-375,0,.39,1.9-.39,1.9a10.12,10.12,0,0,0,0-3.8m40.24.17c0,.58-.06,1.15-.06,1.74s0,1.15.06,1.72l-.15-1.73.15-1.73m-225,0c0,.58-.06,1.15-.06,1.74s0,1.15.06,1.72l-.15-1.73.15-1.73m274.89,0,.15,1.72h34.77l.19-1.35c0,.44-.06.9-.06,1.36s0,.91.06,1.35l-.19-1.36H283.81l-.15,1.72c0-.57,0-1.14,0-1.71s0-1.16,0-1.73m-225,0,.15,1.72h0l-.15,1.72c0-.57.05-1.14.05-1.71s0-1.16-.05-1.73m335.11.37c0,.44-.06.9-.06,1.36s0,.91.06,1.35l-.19-1.36H348.85l-.2,1.36q.06-.68.06-1.35c0-.46,0-.91-.06-1.36l.2,1.35h44.73l.19-1.35M653,459.75a20,20,0,0,1-19.12,14.8A20,20,0,0,0,653,459.75m-38.6.12a20,20,0,0,0,19.09,14.68,20,20,0,0,1-19.09-14.68M183.6,464.55h0m750,0h0m-225,0h0m-150,0h0m375.23,0h0m-225,0h0m-150,0h0m-375,0h0m749.8,0h0m-225,0h0m-150,0h0m-375,0h0m.17,0h0m750,0h0m-225,0h0m-150,0h0m374.86,0h0m-225,0h0m-150,0h0m-375,0h0m.11,0h0m750,0h0m-225,0h0m-150,0h0m374.91,0h0m-225,0h0m-150,0h0m-375,0h0m225,5h0m-75,0h0m525,0h0m.09,0h0m-450,0h0m-75,0h0m299.76,5h0m.39,0h0m-.36,0h0m.32,0h0m-.28,0h0m.25,0h0m-.22,0h0m.19,0h0m-.16,0h0m.13,0h0m-.1,0h0m-374.89,5h0m-225,0h0m224.85,0h0m-225,0h0m225.11,0h0m-225,0h0m225-52.5a27.54,27.54,0,0,0-27.38,25H196a12.5,12.5,0,0,0-24.49,0H61.09a27.49,27.49,0,0,0-54.76,0H1.25v5H6.33a27.5,27.5,0,0,0,54.77,0H171.47a12.49,12.49,0,0,0,24.49,0h35.37a27.5,27.5,0,0,0,54.77,0h30.31a17.47,17.47,0,0,0,34.6,0h40.4a17.47,17.47,0,0,0,34.6,0H546.47a12.49,12.49,0,0,0,24.49,0h40.4a22.49,22.49,0,0,0,44.71,0h40.4a12.49,12.49,0,0,0,24.49,0H841.41a17.47,17.47,0,0,0,34.6,0h45.46a12.49,12.49,0,0,0,24.49,0h93.77v-5H946a12.5,12.5,0,0,0-24.49,0H876a17.48,17.48,0,0,0-34.6,0H721a12.5,12.5,0,0,0-24.49,0h-40.4a22.49,22.49,0,0,0-44.71,0H571a12.5,12.5,0,0,0-24.49,0H426a17.48,17.48,0,0,0-34.6,0H351a17.48,17.48,0,0,0-34.6,0H286.09a27.52,27.52,0,0,0-27.38-25Zm0,50a22.5,22.5,0,1,1,22.5-22.5,22.53,22.53,0,0,1-22.5,22.5Zm-225,0a22.5,22.5,0,1,1,22.5-22.5,22.53,22.53,0,0,1-22.5,22.5Zm600-5a17.5,17.5,0,1,1,17.5-17.5,17.52,17.52,0,0,1-17.5,17.5Zm225-5a12.5,12.5,0,1,1,12.5-12.5,12.52,12.52,0,0,1-12.5,12.5Zm-450,0a12.5,12.5,0,1,1,12.5-12.5,12.52,12.52,0,0,1-12.5,12.5Zm-75,0a12.5,12.5,0,1,1,12.5-12.5,12.52,12.52,0,0,1-12.5,12.5Zm600-5a7.5,7.5,0,1,1,7.5-7.5,7.52,7.52,0,0,1-7.5,7.5Zm-225,0a7.5,7.5,0,1,1,7.5-7.5,7.52,7.52,0,0,1-7.5,7.5Zm-150,0a7.5,7.5,0,1,1,7.5-7.5,7.52,7.52,0,0,1-7.5,7.5Zm-375,0a7.5,7.5,0,1,1,7.5-7.5,7.52,7.52,0,0,1-7.5,7.5Z" transform="translate(-1.25)"/><path class="cls-2" d="M821.21,415.86A26.43,26.43,0,0,1,795.08,392l-.11-1.14H762.43l-.15,1.07a16.23,16.23,0,0,1-32.13,0l-.15-1.07H622.45l-.1,1.14a26.24,26.24,0,0,1-52.27,0l-.11-1.14H532.44l-.2,1a11.25,11.25,0,0,1-22.05,0l-.2-1H307.44l-.2,1a11.25,11.25,0,0,1-22.05,0l-.2-1H167.45l-.12,1.11a21.24,21.24,0,0,1-42.23,0l-.13-1.11H87.43l-.15,1.07a16.23,16.23,0,0,1-32.13,0L55,390.85H12.43l-.15,1.07A16.33,16.33,0,0,1,2.5,404.58v-2.75A13.76,13.76,0,0,0,10,389.61,13.76,13.76,0,0,0,2.5,377.39v-2.75a16.3,16.3,0,0,1,9.78,12.64l.15,1.07H55l.15-1.07a16.23,16.23,0,0,1,32.13,0l.15,1.07H125l.13-1.11a21.25,21.25,0,0,1,42.23,0l.12,1.11H285l.2-1a11.26,11.26,0,0,1,22.05,0l.2,1H510l.2-1a11.26,11.26,0,0,1,22.05,0l.2,1H570l.11-1.14a26.24,26.24,0,0,1,52.27,0l.1,1.14H730l.15-1.07a16.23,16.23,0,0,1,32.13,0l.15,1.07H795l.11-1.14a26.24,26.24,0,0,1,52.27,0l.1,1.14H885l.2-1a11.26,11.26,0,0,1,22,0l.2,1H1025l.13-1.11a21.21,21.21,0,0,1,13.38-17.42v2.72a18.72,18.72,0,0,0,0,34.13v2.72A21.2,21.2,0,0,1,1025.1,392l-.13-1.11H907.44l-.2,1a11.25,11.25,0,0,1-22,0l-.2-1H847.45l-.1,1.14A26.43,26.43,0,0,1,821.21,415.86Zm0-50A23.75,23.75,0,1,0,845,389.61,23.78,23.78,0,0,0,821.21,365.86Zm-225,0A23.75,23.75,0,1,0,620,389.61,23.78,23.78,0,0,0,596.21,365.86Zm-450,5A18.75,18.75,0,1,0,165,389.61,18.78,18.78,0,0,0,146.21,370.86Zm600,5A13.75,13.75,0,1,0,760,389.61,13.77,13.77,0,0,0,746.21,375.86Zm-675,0A13.75,13.75,0,1,0,85,389.61,13.77,13.77,0,0,0,71.21,375.86Zm825,5a8.75,8.75,0,1,0,8.75,8.75A8.76,8.76,0,0,0,896.21,380.86Zm-375,0a8.75,8.75,0,1,0,8.75,8.75A8.76,8.76,0,0,0,521.21,380.86Zm-225,0a8.75,8.75,0,1,0,8.75,8.75A8.76,8.76,0,0,0,296.21,380.86Z" transform="translate(-1.25)"/><path class="cls-2" d="M821.21,364.61h0m0,0h0m-225,0h0m0,0h0m225.07,0h0m-.13,0h0m-224.87,0h0m-.13,0h0m-449.94,5h0m0,0h0m0,0h0m.07,0h0m-.11,0h0m.15,0h0m-.18,0h0m.21,0h0m-.24,0h0m.27,0h0m-.3,0h0m.33,0h0m-.36,0A20,20,0,0,0,127,384.24,20,20,0,0,1,146,369.61m.39,0a20,20,0,0,1,19.07,14.61,20,20,0,0,0-19.07-14.61m890.82,2.13h0a20,20,0,0,0-3.54,2.27,20.38,20.38,0,0,1,3.54-2.28m-291,2.87h0m-675,0h0m-.09,0h0m675,0h0m150,5h0m0,0h0m-375,0h0m0,0h0m-225,0h0m0,0h0m600.05,0h0m-375,0h0m-225,0h0m599.91,0h0m-375,0h0m-225,0h0m.12,0h0m600,0h0m-375,0h0m374.85,0h0m-375,0h0m-225,0h0m600.18,0h0m-375,0h0m-225,0h0m-.22,0h0m600,0h0m-375,0h0m384,5.38h0m-375,0h0m-225,0h0m0,0a8.68,8.68,0,0,1,.66,1.6,9,9,0,0,0-.66-1.6m600,0a8.68,8.68,0,0,1,.66,1.6,9,9,0,0,0-.66-1.6m-375,0a8.68,8.68,0,0,1,.66,1.6,9,9,0,0,0-.66-1.6m357.16.17h0m-375,0h0m-225,0h0m600,0a9.61,9.61,0,0,0-.6,1.52,9.61,9.61,0,0,1,.6-1.52m-375,0a9.61,9.61,0,0,0-.6,1.52,9.61,9.61,0,0,1,.6-1.52m-225,0a9.61,9.61,0,0,0-.6,1.52,9.61,9.61,0,0,1,.6-1.52m18.51,1.41v0m600,0v0m-375,0v0m-225,0h0m600,0h0m-375,0h0m-19.14.1h0m-225,0h0m600,0h0m-375.23.91a10.4,10.4,0,0,0-.19,1.95,9.64,9.64,0,0,0,.18,1.87L511,389.6h0l.39-1.94m-225,0a10.4,10.4,0,0,0-.19,1.95,9.64,9.64,0,0,0,.18,1.87L286,389.6h0l.39-1.94m600,0a10.4,10.4,0,0,0-.19,1.95,9.64,9.64,0,0,0,.18,1.87L886,389.6h-39.7l-.15,1.73c0-.57.05-1.14.05-1.72s0-1.17-.06-1.75l.16,1.74H886l.39-1.94m19.63,0,.39,1.93h119.67l.2-1.79c0,.6-.08,1.19-.08,1.8s0,1.19.08,1.78l-.2-1.79H906.42l-.38,1.87a10.4,10.4,0,0,0,0-3.8m-375,0,.39,1.93h0l-.38,1.87a10.4,10.4,0,0,0,0-3.8m-225,0,.39,1.93h0l-.38,1.87a10.4,10.4,0,0,0,0-3.8m-139.9.12.2,1.81h0l-.2,1.84c.06-.6.08-1.22.08-1.83a18.2,18.2,0,0,0-.08-1.82m-39.83,0a18.18,18.18,0,0,0-.09,1.82c0,.61,0,1.21.09,1.81l-.21-1.82h0l.21-1.81m670,.07c0,.58-.06,1.16-.06,1.75s0,1.15.06,1.72l-.15-1.73h0l.15-1.74m-225,0c0,.58-.06,1.16-.06,1.75s0,1.15.06,1.72l-.15-1.73h0l.15-1.74m49.88,0,.16,1.74h0l-.15,1.73c0-.57.05-1.14.05-1.72s0-1.17-.06-1.75m-610,.37.2,1.37h0l-.2,1.37c0-.45.06-.9.06-1.36s0-.92-.06-1.38m45.13,0a12.44,12.44,0,0,0-.07,1.37q0,.67.06,1.35l-.19-1.36h0l.2-1.36m675,0a12.44,12.44,0,0,0-.07,1.37q0,.67.06,1.35l-.19-1.36h0l.2-1.36m29.87,0,.2,1.35h0l-.2,1.36q.06-.68.06-1.35c0-.46,0-.91-.06-1.36m-675,0,.2,1.35h0l-.2,1.36q.06-.68.06-1.35c0-.46,0-.91-.06-1.36m135.1,1.35h0m-55.7,5.12a20,20,0,0,1-19.14,14.89,20,20,0,0,0,19.14-14.89m-38.63.17A20,20,0,0,0,146,409.61a20,20,0,0,1-19.1-14.72m769.41,4.72h0m-375,0h0m-225,0h0m-.23,0h0m600,0h0m-375,0h0m-224.8,0h0m600,0h0m-375,0h0m374.83,0h0m-375,0h0m-225,0h0m600.14,0h0m-375,0h0m-225,0h0m599.88,0h0m-375,0h0m-225,0h0m600.09,0h0m-375,0h0m-225,0h0m-225.07,5h0m675,0h0m.09,0h0m-675,0h0m962.28.46a20,20,0,0,0,3.69,2.39h0a20.15,20.15,0,0,1-3.69-2.4m-887.13,4.54h0m-.39,0h0m.35,0h0m-.32,0h0m.29,0h0m-.25,0h0m.22,0h0m-.19,0h0m.16,0h0m-.13,0h0m.1,0h0m674.89,5h0m-225,0h0m225.15,0h0m-225,0h0m224.89,0h0m-225,0h0m225-52.5a27.54,27.54,0,0,0-27.38,25H763.51a17.48,17.48,0,0,0-34.6,0H623.59a27.49,27.49,0,0,0-54.76,0H533.46a12.5,12.5,0,0,0-24.49,0H308.46a12.5,12.5,0,0,0-24.49,0H168.57a22.49,22.49,0,0,0-44.71,0H88.51a17.48,17.48,0,0,0-34.6,0H13.51A17.53,17.53,0,0,0,1.25,372.86v5.32a12.5,12.5,0,0,1,7.46,11.43A12.5,12.5,0,0,1,1.25,401v5.32A17.57,17.57,0,0,0,13.52,392.1H53.91a17.48,17.48,0,0,0,34.61,0h35.34a22.49,22.49,0,0,0,44.71,0H284a12.5,12.5,0,0,0,24.5,0H509a12.5,12.5,0,0,0,24.5,0h35.37a27.5,27.5,0,0,0,54.77,0H728.91a17.48,17.48,0,0,0,34.61,0h30.31a27.5,27.5,0,0,0,54.77,0H884a12.5,12.5,0,0,0,24.5,0h115.4a22.55,22.55,0,0,0,15.87,19v-5.3a17.48,17.48,0,0,1,0-32.49v-5.29a22.54,22.54,0,0,0-15.87,19H908.46a12.5,12.5,0,0,0-24.49,0H848.59a27.53,27.53,0,0,0-27.38-25Zm0,50a22.5,22.5,0,1,1,22.5-22.5,22.53,22.53,0,0,1-22.5,22.5Zm-225,0a22.5,22.5,0,1,1,22.5-22.5,22.53,22.53,0,0,1-22.5,22.5Zm-450-5a17.5,17.5,0,1,1,17.5-17.5,17.52,17.52,0,0,1-17.5,17.5Zm600-5a12.5,12.5,0,1,1,12.5-12.5,12.52,12.52,0,0,1-12.5,12.5Zm-675,0a12.5,12.5,0,1,1,12.5-12.5,12.52,12.52,0,0,1-12.5,12.5Zm825-5a7.5,7.5,0,1,1,7.5-7.5,7.52,7.52,0,0,1-7.5,7.5Zm-375,0a7.5,7.5,0,1,1,7.5-7.5,7.52,7.52,0,0,1-7.5,7.5Zm-225,0a7.5,7.5,0,1,1,7.5-7.5,7.52,7.52,0,0,1-7.5,7.5Z" transform="translate(-1.25)"/><path class="cls-2" d="M933.71,350.45a26.42,26.42,0,0,1-26.13-23.86l-.11-1.14H794.94l-.2,1a11.25,11.25,0,0,1-22,0l-.2-1H730l-.12,1.11a21.25,21.25,0,0,1-42.23,0l-.12-1.11H644.94l-.2,1a11.25,11.25,0,0,1-22,0l-.2-1H435l-.1,1.14a26.24,26.24,0,0,1-52.27,0l-.11-1.14H349.93l-.15,1.07a16.23,16.23,0,0,1-32.13,0l-.15-1.07H194.94l-.2,1a11.25,11.25,0,0,1-22.05,0l-.2-1H44.94l-.2,1a11.25,11.25,0,0,1-22,0l-.2-1H2.5V323h20l.2-1a11.25,11.25,0,0,1,22.05,0l.2,1H172.49l.2-1a11.25,11.25,0,0,1,22.05,0l.2,1H317.5l.15-1.07a16.23,16.23,0,0,1,32.13,0l.15,1.07h32.54l.11-1.14a26.24,26.24,0,0,1,52.27,0L435,323H622.49l.2-1a11.25,11.25,0,0,1,22,0l.2,1h42.54l.12-1.11a21.25,21.25,0,0,1,42.23,0L730,323h42.54l.2-1a11.25,11.25,0,0,1,22,0l.2,1H907.47l.11-1.14a26.24,26.24,0,0,1,52.27,0L960,323H992.5l.15-1.07a16.23,16.23,0,0,1,32.13,0l.15,1.07h13.55v2.5h-13.55l-.15,1.07a16.23,16.23,0,0,1-32.13,0l-.15-1.07H960l-.1,1.14A26.43,26.43,0,0,1,933.71,350.45Zm0-50a23.75,23.75,0,1,0,23.75,23.75A23.78,23.78,0,0,0,933.71,300.45Zm-525,0a23.75,23.75,0,1,0,23.75,23.75A23.78,23.78,0,0,0,408.71,300.45Zm300,5a18.75,18.75,0,1,0,18.75,18.75A18.78,18.78,0,0,0,708.71,305.45Zm300,5a13.75,13.75,0,1,0,13.75,13.75A13.77,13.77,0,0,0,1008.71,310.45Zm-675,0a13.75,13.75,0,1,0,13.75,13.75A13.77,13.77,0,0,0,333.71,310.45Zm450,5a8.75,8.75,0,1,0,8.75,8.75A8.77,8.77,0,0,0,783.71,315.45Zm-150,0a8.75,8.75,0,1,0,8.75,8.75A8.77,8.77,0,0,0,633.71,315.45Zm-450,0a8.75,8.75,0,1,0,8.75,8.75A8.77,8.77,0,0,0,183.71,315.45Zm-150,0a8.75,8.75,0,1,0,8.75,8.75A8.77,8.77,0,0,0,33.71,315.45Z" transform="translate(-1.25)"/><path class="cls-2" d="M933.71,299.2h0m0,0h0m-525,0h0m0,0h0m524.94,0h0m-525,0h0m525.13,0h0m-525,0h0m299.93,5h0m0,0h0m0,0h0m-.07,0h0m.1,0h0m-.14,0h0m.18,0h0m-.21,0h0m.24,0h0m-.27,0h0m.3,0h0m-.33,0h0m.36,0A20,20,0,0,1,728,319a20,20,0,0,0-19.11-14.78m-.39,0A20,20,0,0,0,689.41,319a20,20,0,0,1,19.11-14.76m-374.85,5h0m675,0h0m.09,0h0m-675,0h0m450,5h0m0,0h0m-150,0h0m0,0h0m-450,0h0m0,0h0m-150,0h0m0,0h0m750.05,0h0m-150,0h0m-450,0h0m-150,0h0m749.91,0h0m-150,0h0m-450,0h0m-150,0h0m150.12,0h0m-150,0h0m750,0h0m-150,0h0m149.85,0h0m-150,0h0m-450,0h0m-150,0h0m750.18,0h0m-150,0h0m-450,0h0m-150,0h0m149.78,0h0m-150,0h0m750,0h0m-150,0h0m-459.7,8.09a9.7,9.7,0,0,0,0,3.82l-.39-1.91.39-1.91m-150,0a9.7,9.7,0,0,0,0,3.82l-.39-1.91.39-1.91m750,0a9.7,9.7,0,0,0,0,3.82l-.39-1.91.39-1.91m-150,0a9.7,9.7,0,0,0,0,3.82l-.39-1.91.39-1.91m169.63,0,.39,1.9-.39,1.9a10.12,10.12,0,0,0,0-3.8m-150,0,.39,1.9-.39,1.9a10.12,10.12,0,0,0,0-3.8m-450,0,.39,1.9-.39,1.9a10.12,10.12,0,0,0,0-3.8m-150,0,.39,1.9-.39,1.9a10.12,10.12,0,0,0,0-3.8m645.27.06c-.06.61-.09,1.22-.09,1.84s0,1.23.09,1.84l-.21-1.84.21-1.84m39.83,0,.2,1.83-.2,1.83c.06-.6.08-1.21.08-1.83s0-1.23-.08-1.83m-344.86.09q-.06.87-.06,1.74t.06,1.74l-.15-1.74.15-1.74m525,0q-.06.87-.06,1.74t.06,1.74l-.15-1.74.15-1.74m49.88,0,.16,1.73h34.77l.19-1.36c0,.45-.06.9-.06,1.36s0,.91.06,1.36l-.19-1.36H958.81l-.16,1.73c0-.57.06-1.15.06-1.73s0-1.16-.06-1.73m-525,0,.16,1.73-.16,1.73c0-.57.06-1.15.06-1.73s0-1.16-.06-1.73m-114.88.37c0,.45-.06.9-.06,1.36s0,.91.06,1.36l-.19-1.36.19-1.36m704.88,0,.2,1.36h0l-.2,1.36c0-.45.06-.9.06-1.36s0-.91-.06-1.36m-675,0,.2,1.36-.2,1.36c0-.45.06-.9.06-1.36s0-.91-.06-1.36m340.74,6.53a20,20,0,0,0,19.13,14.83,20,20,0,0,1-19.13-14.83m38.63.05a20,20,0,0,1-19.11,14.78A20,20,0,0,0,728,329.42m55.81,4.78h0m-150,0h0m-450,0h0m-150,0h0m149.77,0h0m-150,0h0m750,0h0m-150,0h0m-449.8,0h0m-150,0h0m750,0h0m-150,0h0m149.83,0h0m-150,0h0m-450,0h0m-150,0h0m150.14,0h0m-150,0h0m750,0h0m-150,0h0m149.89,0h0m-150,0h0m-450,0h0m-150,0h0m150.08,0h0m-150,0h0m750,0h0m-150,0h0m-300.07,5h0m675,0h0m.09,0h0m-675,0h0m374.76,5h0m.39,0h0m0,0h0m-.32,0h0m0,0h0m.25,0h0m-.22,0h0m.19,0h0m-.16,0h0m.13,0h0m-.1,0h0m225,5h0m-525,0h0m.15,0h0m525,0h0m-.11,0h0m-524.93,0h0m525-52.5a27.53,27.53,0,0,0-27.38,25H796a12.5,12.5,0,0,0-24.49,0h-40.4a22.49,22.49,0,0,0-44.71,0H646a12.5,12.5,0,0,0-24.49,0H436.1a27.5,27.5,0,0,0-54.77,0H351a17.48,17.48,0,0,0-34.6,0H196a12.5,12.5,0,0,0-24.49,0H46a12.5,12.5,0,0,0-24.49,0H1.25v5H21.47a12.5,12.5,0,0,0,24.49,0H171.47a12.5,12.5,0,0,0,24.49,0H316.41a17.48,17.48,0,0,0,34.6,0h30.32a27.5,27.5,0,0,0,54.77,0H621.47a12.5,12.5,0,0,0,24.49,0h40.4a22.49,22.49,0,0,0,44.71,0h40.4a12.5,12.5,0,0,0,24.49,0H906.33a27.5,27.5,0,0,0,54.77,0h30.31a17.48,17.48,0,0,0,34.6,0h13.72v-5H1026a17.48,17.48,0,0,0-34.6,0H961.1a27.54,27.54,0,0,0-27.39-25Zm0,50a22.5,22.5,0,1,1,22.5-22.5,22.53,22.53,0,0,1-22.5,22.5Zm-525,0a22.5,22.5,0,1,1,22.5-22.5,22.53,22.53,0,0,1-22.5,22.5Zm300-5a17.5,17.5,0,1,1,17.5-17.5,17.52,17.52,0,0,1-17.5,17.5Zm300-5a12.5,12.5,0,1,1,12.5-12.5,12.52,12.52,0,0,1-12.5,12.5Zm-675,0a12.5,12.5,0,1,1,12.5-12.5,12.52,12.52,0,0,1-12.5,12.5Zm450-5a7.5,7.5,0,1,1,7.5-7.5,7.51,7.51,0,0,1-7.5,7.5Zm-150,0a7.5,7.5,0,1,1,7.5-7.5,7.51,7.51,0,0,1-7.5,7.5Zm-450,0a7.5,7.5,0,1,1,7.5-7.5,7.51,7.51,0,0,1-7.5,7.5Zm-150,0a7.5,7.5,0,1,1,7.5-7.5,7.51,7.51,0,0,1-7.5,7.5Z" transform="translate(-1.25)"/><path class="cls-2" d="M821.21,285.59a26.42,26.42,0,0,1-26.13-23.87l-.11-1.13H612.43l-.15,1.07a16.23,16.23,0,0,1-32.13,0l-.15-1.07H537.43l-.15,1.07a16.23,16.23,0,0,1-32.13,0l-.15-1.07H457.44l-.2,1a11.25,11.25,0,0,1-22.05,0l-.2-1H392.45l-.12,1.11a21.25,21.25,0,0,1-42.23,0l-.12-1.11H307.44l-.2,1a11.25,11.25,0,0,1-22.05,0l-.2-1H247.45l-.1,1.13a26.24,26.24,0,0,1-52.27,0l-.11-1.13H87.43l-.15,1.07a16.23,16.23,0,0,1-32.13,0L55,260.59H17.45l-.12,1.11A21.27,21.27,0,0,1,2.5,279.62V277A18.89,18.89,0,0,0,15,259.34,18.89,18.89,0,0,0,2.5,241.68v-2.62A21.25,21.25,0,0,1,17.33,257l.12,1.11H55l.15-1.07a16.23,16.23,0,0,1,32.13,0l.15,1.07H195l.11-1.14a26.24,26.24,0,0,1,52.27,0l.1,1.14H285l.2-1a11.25,11.25,0,0,1,22.05,0l.2,1H350l.12-1.11a21.25,21.25,0,0,1,42.23,0l.12,1.11H435l.2-1a11.25,11.25,0,0,1,22.05,0l.2,1H505l.15-1.07a16.23,16.23,0,0,1,32.13,0l.15,1.07H580l.15-1.07a16.23,16.23,0,0,1,32.13,0l.15,1.07H795l.11-1.14a26.24,26.24,0,0,1,52.27,0l.1,1.14H880l.15-1.07a16.23,16.23,0,0,1,32.13,0l.15,1.07H960l.2-1a11.25,11.25,0,0,1,22,0l.2,1H1035l.2-1a11.32,11.32,0,0,1,3.29-5.91v4.07a8.69,8.69,0,0,0,0,8.17v4.07a11.29,11.29,0,0,1-3.29-5.9l-.2-1H982.44l-.2,1a11.25,11.25,0,0,1-22,0l-.2-1H912.43l-.15,1.07a16.23,16.23,0,0,1-32.13,0l-.15-1.07H847.45l-.1,1.13A26.43,26.43,0,0,1,821.21,285.59Zm0-50A23.75,23.75,0,1,0,845,259.34,23.78,23.78,0,0,0,821.21,235.59Zm-600,0A23.75,23.75,0,1,0,245,259.34,23.78,23.78,0,0,0,221.21,235.59Zm150,5A18.75,18.75,0,1,0,390,259.34,18.78,18.78,0,0,0,371.21,240.59Zm525,5A13.75,13.75,0,1,0,910,259.34,13.77,13.77,0,0,0,896.21,245.59Zm-300,0A13.75,13.75,0,1,0,610,259.34,13.77,13.77,0,0,0,596.21,245.59Zm-75,0A13.75,13.75,0,1,0,535,259.34,13.77,13.77,0,0,0,521.21,245.59Zm-450,0A13.75,13.75,0,1,0,85,259.34,13.77,13.77,0,0,0,71.21,245.59Zm900,5a8.75,8.75,0,1,0,8.75,8.75A8.76,8.76,0,0,0,971.21,250.59Zm-525,0a8.75,8.75,0,1,0,8.75,8.75A8.76,8.76,0,0,0,446.21,250.59Zm-150,0a8.75,8.75,0,1,0,8.75,8.75A8.76,8.76,0,0,0,296.21,250.59Z" transform="translate(-1.25)"/><path class="cls-2" d="M821.21,234.34h0m0,0h0m-600,0h0m0,0h0m599.94,0h0m-600,0h0m600.13,0h0m-600,0h0m149.93,5h0m0,0h0m0,0h0m-.07,0h0m.1,0h0m-.14,0h0m.18,0h0m-.21,0h0m.24,0h0m-.27,0h0m.3,0h0m-.33,0h0m.36,0a20,20,0,0,1,19.11,14.78,20,20,0,0,0-19.11-14.78m-.39,0a20,20,0,0,0-19.11,14.76A20,20,0,0,1,371,239.34M6.83,242.41A20,20,0,0,1,16.08,257a20.19,20.19,0,0,0-9.25-14.63m64.34,1.93h0m825,0h0m-300,0h0m-75,0h0m375.09,0h0m-300,0h0m-75,0h0m-450,0h0m900,5h0m0,0h0m-525,0h0m0,0h0m-150,0h0m0,0h0m675.05,0h0m-525,0h0m-150,0h0m674.91,0h0m-525,0h0m-150,0h0m150.12,0h0m-150,0h0m675,0h0m-.15,0h0m-525,0h0m-150,0h0m675.18,0h0m-525,0h0m-150,0h0m149.78,0h0m-150,0h0m675,0h0m66.13,5.61h0a9.91,9.91,0,0,0,0,8.76h0a9.63,9.63,0,0,1-.81-2.39l-.41-2H981.42l-.39,1.9a10.12,10.12,0,0,0,0-3.8l.39,1.9H1036l.41-2a9.36,9.36,0,0,1,.81-2.39M16.11,257.28l.22,2.06-.22,2.06a20.15,20.15,0,0,0,.1-2.06,20.15,20.15,0,0,0-.1-2.06m420.29.15a9.9,9.9,0,0,0-.19,1.91,10.06,10.06,0,0,0,.19,1.91l-.39-1.91.39-1.91m-150,0a9.9,9.9,0,0,0-.19,1.91,10.06,10.06,0,0,0,.19,1.91l-.39-1.91.39-1.91m675,0a9.9,9.9,0,0,0-.19,1.91,10.06,10.06,0,0,0,.19,1.91l-.39-1.91H911.35l-.2,1.36c0-.45.06-.91.06-1.36s0-.91-.06-1.36l.2,1.36H961l.39-1.91m-505.37,0,.39,1.9-.39,1.9a10.12,10.12,0,0,0,0-3.8m-150,0,.39,1.9-.39,1.9a10.12,10.12,0,0,0,0-3.8m45.27.06c-.06.61-.09,1.22-.09,1.84s0,1.23.09,1.83l-.21-1.83.21-1.84m39.83,0,.2,1.83-.2,1.83c.06-.61.08-1.22.08-1.83s0-1.23-.08-1.83m-194.86.09q-.06.86-.06,1.74c0,.58,0,1.16.06,1.73l-.15-1.73.15-1.74m600,0q-.06.86-.06,1.74c0,.58,0,1.16.06,1.73l-.15-1.73.15-1.74m49.88,0,.16,1.73h34.77l.19-1.36c0,.45-.06.9-.06,1.36s0,.91.06,1.36l-.19-1.36H846.31l-.16,1.73c0-.57.06-1.15.06-1.73s0-1.16-.06-1.73m-600,0,.16,1.73-.16,1.73c0-.57.06-1.15.06-1.73s0-1.16-.06-1.73m260.12.37c0,.45-.06.9-.06,1.36s0,.91.06,1.36l-.19-1.36.19-1.36m-450,0c0,.45-.06.9-.06,1.36s0,.91.06,1.36l-.19-1.36.19-1.36m525,0c0,.45-.06.9-.06,1.36s0,.91.06,1.36l-.19-1.36.19-1.36m29.88,0,.2,1.36-.2,1.36c0-.45.06-.91.06-1.36s0-.91-.06-1.36m-75,0,.2,1.36-.2,1.36c0-.45.06-.91.06-1.36s0-.91-.06-1.36m-450,0,.2,1.36-.2,1.35c0-.44.06-.9.06-1.35s0-.91-.06-1.36m-70.07,3.65a20,20,0,0,1-9.25,14.64,20.23,20.23,0,0,0,9.25-14.64m374.44,2.92a20,20,0,0,1-19.11,14.79,20,20,0,0,0,19.11-14.79m-38.61,0A20,20,0,0,0,371,279.34a20,20,0,0,1-19.11-14.77m619.42,4.77h0m-525,0h0m-150,0h0m149.77,0h0m-150,0h0m675,0h0m-524.8,0h0m-150,0h0m675,0h0m-.17,0h0m-525,0h0m-150,0h0m150.14,0h0m-150,0h0m675,0h0m-.11,0h0m-525,0h0m-150,0h0m150.08,0h0m-150,0h0m675,0h0m-900.07,5h0m825,0h0m-300,0h0m-75,0h0m375.09,0h0m-300,0h0m-75,0h0m-450,0h0m300.15,5h0m-.39,0h0m.35,0h0m-.32,0h0m.29,0h0m-.25,0h0m.22,0h0m-.19,0h0m.16,0h0m-.13,0h0m.1,0h0m449.89,5h0m-600,0h0m.15,0h0m600,0h0m-.11,0h0m-599.93,0h0m600-52.5a27.53,27.53,0,0,0-27.38,25H613.51a17.48,17.48,0,0,0-34.6,0h-40.4a17.48,17.48,0,0,0-34.6,0H458.46a12.5,12.5,0,0,0-24.49,0h-40.4a22.49,22.49,0,0,0-44.71,0h-40.4a12.5,12.5,0,0,0-24.49,0H248.6a27.5,27.5,0,0,0-54.77,0H88.51a17.48,17.48,0,0,0-34.6,0H18.57A22.54,22.54,0,0,0,1.25,237.43v5.15a17.53,17.53,0,0,1,12.46,16.76A17.52,17.52,0,0,1,1.25,276.09v5.16a22.55,22.55,0,0,0,17.32-19.41H53.91a17.48,17.48,0,0,0,34.6,0H193.83a27.5,27.5,0,0,0,54.77,0H284a12.5,12.5,0,0,0,24.49,0h40.4a22.49,22.49,0,0,0,44.71,0H434a12.5,12.5,0,0,0,24.49,0h45.45a17.48,17.48,0,0,0,34.6,0h40.4a17.48,17.48,0,0,0,34.6,0H793.83a27.5,27.5,0,0,0,54.77,0h30.31a17.48,17.48,0,0,0,34.6,0H959a12.5,12.5,0,0,0,24.49,0H1034a12.49,12.49,0,0,0,5.76,8.17V263.1a7.44,7.44,0,0,1,0-7.52v-6.92a12.51,12.51,0,0,0-5.76,8.18H983.46a12.5,12.5,0,0,0-24.49,0H913.51a17.48,17.48,0,0,0-34.6,0H848.6a27.54,27.54,0,0,0-27.39-25Zm0,50a22.5,22.5,0,1,1,22.5-22.5,22.53,22.53,0,0,1-22.5,22.5Zm-600,0a22.5,22.5,0,1,1,22.5-22.5,22.53,22.53,0,0,1-22.5,22.5Zm150-5a17.5,17.5,0,1,1,17.5-17.5,17.52,17.52,0,0,1-17.5,17.5Zm525-5a12.5,12.5,0,1,1,12.5-12.5,12.52,12.52,0,0,1-12.5,12.5Zm-300,0a12.5,12.5,0,1,1,12.5-12.5,12.52,12.52,0,0,1-12.5,12.5Zm-75,0a12.5,12.5,0,1,1,12.5-12.5,12.52,12.52,0,0,1-12.5,12.5Zm-450,0a12.5,12.5,0,1,1,12.5-12.5,12.52,12.52,0,0,1-12.5,12.5Zm900-5a7.5,7.5,0,1,1,7.5-7.5,7.52,7.52,0,0,1-7.5,7.5Zm-525,0a7.5,7.5,0,1,1,7.5-7.5,7.52,7.52,0,0,1-7.5,7.5Zm-150,0a7.5,7.5,0,1,1,7.5-7.5,7.52,7.52,0,0,1-7.5,7.5Z" transform="translate(-1.25)"/><path class="cls-2" d="M896.21,156a26.42,26.42,0,0,1-26.13-23.86L870,131H837.43l-.15,1.07a16.23,16.23,0,0,1-32.13,0L805,131H692.45l-.12,1.12a21.25,21.25,0,0,1-42.23,0L650,131H607.44l-.2,1a11.25,11.25,0,0,1-22,0l-.2-1H462.43l-.15,1.07a16.23,16.23,0,0,1-32.13,0L430,131H382.44l-.2,1a11.25,11.25,0,0,1-22.05,0l-.2-1H237.43l-.15,1.07a16.23,16.23,0,0,1-32.13,0L205,131H172.45l-.1,1.14a26.24,26.24,0,0,1-52.27,0L120,131H82.44l-.2,1a11.25,11.25,0,0,1-22,0l-.2-1H2.5v-2.5H60l.2-1a11.25,11.25,0,0,1,22,0l.2,1H120l.11-1.13a26.24,26.24,0,0,1,52.27,0l.1,1.13H205l.15-1.07a16.23,16.23,0,0,1,32.13,0l.15,1.07H360l.2-1a11.25,11.25,0,0,1,22.05,0l.2,1H430l.15-1.07a16.23,16.23,0,0,1,32.13,0l.15,1.07H585l.2-1a11.25,11.25,0,0,1,22,0l.2,1H650l.12-1.11a21.25,21.25,0,0,1,42.23,0l.12,1.11H805l.15-1.07a16.23,16.23,0,0,1,32.13,0l.15,1.07H870l.11-1.13a26.24,26.24,0,0,1,52.27,0l.1,1.13H960l.2-1a11.25,11.25,0,0,1,22,0l.2,1H1020l.11-1.13a26.24,26.24,0,0,1,18.4-22.71v2.64a23.75,23.75,0,0,0,0,44.91v2.63a26.21,26.21,0,0,1-18.4-22.7L1020,131H982.44l-.2,1a11.25,11.25,0,0,1-22,0l-.2-1H922.45l-.1,1.14A26.43,26.43,0,0,1,896.21,156Zm0-50A23.75,23.75,0,1,0,920,129.79,23.78,23.78,0,0,0,896.21,106Zm-750,0A23.75,23.75,0,1,0,170,129.79,23.78,23.78,0,0,0,146.21,106Zm525,5A18.75,18.75,0,1,0,690,129.79,18.78,18.78,0,0,0,671.21,111Zm150,5A13.75,13.75,0,1,0,835,129.79,13.77,13.77,0,0,0,821.21,116Zm-375,0A13.75,13.75,0,1,0,460,129.79,13.77,13.77,0,0,0,446.21,116Zm-225,0A13.75,13.75,0,1,0,235,129.79,13.77,13.77,0,0,0,221.21,116Zm750,5a8.75,8.75,0,1,0,8.75,8.75A8.77,8.77,0,0,0,971.21,121Zm-375,0a8.75,8.75,0,1,0,8.75,8.75A8.77,8.77,0,0,0,596.21,121Zm-225,0a8.75,8.75,0,1,0,8.75,8.75A8.77,8.77,0,0,0,371.21,121Zm-300,0A8.75,8.75,0,1,0,80,129.79,8.77,8.77,0,0,0,71.21,121Z" transform="translate(-1.25)"/><path class="cls-2" d="M896.21,104.79h0m0,0h0m-750,0h0m0,0h0m749.94,0h0m-750,0h0m750.13,0h0m-750,0h0m891,1.67h0a25.25,25.25,0,0,0-15.82,20.22,25,25,0,0,1,15.82-20.23m-366,3.33h0m0,0h0m0,0h0m-.07,0h0m.1,0h0m-.14,0h0m.18,0h0m-.21,0h0m.24,0h0m-.27,0h0m.3,0h0m-.33,0h0m.36,0a20,20,0,0,1,19.11,14.79,20,20,0,0,0-19.11-14.79m-.39,0a20,20,0,0,0-19.11,14.77A20,20,0,0,1,671,109.79m-224.85,5h0m-225,0h0m600,0h0m.09,0h0m-375,0h0m-225,0h0m750,5h0m0,0h0m-375,0h0m0,0h0m-225,0h0m0,0h0m-300,0h0m0,0h0m900.05,0h0m-375,0h0m-225,0h0m-300,0h0m899.91,0h0m-375,0h0m-225,0h0m-300,0h0m300.12,0h0m-300,0h0m900,0h0m-375,0h0m374.85,0h0m-375,0h0m-225,0h0m-300,0h0m900.18,0h0m-375,0h0m-225,0h0m-300,0h0m299.78,0h0m-300,0h0m900,0h0m-375,0h0m-234.7,8.09a9.75,9.75,0,0,0,0,3.83l-.39-1.92.39-1.91m-300,0a9.75,9.75,0,0,0,0,3.83L61,129.79l.39-1.91m900,0a9.75,9.75,0,0,0,0,3.83l-.39-1.92h-39.7l-.16,1.73c0-.57.06-1.14.06-1.73s0-1.16-.06-1.73l.16,1.73H961l.39-1.91m-375,0a9.75,9.75,0,0,0,0,3.83l-.39-1.92.39-1.91m394.63,0,.39,1.9h39.7l.16-1.85c0,.61-.07,1.23-.07,1.85s0,1.25.07,1.86l-.16-1.86h-39.7l-.39,1.9a10.12,10.12,0,0,0,0-3.8m-375,0,.39,1.9-.39,1.9a10.12,10.12,0,0,0,0-3.8m-225,0,.39,1.9-.39,1.9a10.12,10.12,0,0,0,0-3.8m-300,0,.39,1.9-.39,1.9a10.12,10.12,0,0,0,0-3.8M651.3,128q-.09.9-.09,1.83c0,.62,0,1.23.09,1.84l-.21-1.84.21-1.83m39.83,0,.2,1.83-.2,1.83c.06-.6.08-1.21.08-1.83s0-1.22-.08-1.83m-569.86.1c0,.57-.06,1.15-.06,1.73s0,1.17.06,1.74l-.15-1.74.15-1.73m750,0c0,.57-.06,1.15-.06,1.73s0,1.17.06,1.74l-.15-1.74.15-1.73m-700.12,0,.16,1.73-.16,1.73c0-.57.06-1.15.06-1.73s0-1.16-.06-1.73m260.12.37c0,.45-.06.9-.06,1.36s0,.91.06,1.36l-.19-1.36.19-1.36m-225,0c0,.45-.06.9-.06,1.36s0,.91.06,1.36l-.19-1.36.19-1.36m600,0c0,.45-.06.9-.06,1.36s0,.91.06,1.36l-.19-1.36.19-1.36m29.88,0,.2,1.35-.2,1.36c0-.45.06-.9.06-1.36s0-.91-.06-1.35m-375,0,.2,1.35-.2,1.36c0-.45.06-.9.06-1.36s0-.91-.06-1.35m-225,0,.2,1.35-.2,1.36c0-.45.06-.9.06-1.36s0-.91-.06-1.35m785.26,4.46a25.25,25.25,0,0,0,15.82,20.22h0a25,25,0,0,1-15.82-20.23M690.52,135a20,20,0,0,1-19.11,14.78A20,20,0,0,0,690.52,135m-38.61,0A20,20,0,0,0,671,149.79,20,20,0,0,1,651.91,135m319.42,4.76h0m-375,0h0m-225,0h0m-300,0h0m299.77,0h0m-300,0h0m900,0h0m-375,0h0m-224.8,0h0m-300,0h0m900,0h0m-375,0h0m374.83,0h0m-375,0h0m-225,0h0m-300,0h0m300.14,0h0m-300,0h0m900,0h0m-375,0h0m374.89,0h0m-375,0h0m-225,0h0m-300,0h0m300.08,0h0m-300,0h0m900,0h0m-375,0h0m-150.07,5h0m-225,0h0m600,0h0m.09,0h0m-375,0h0m-225,0h0m450.15,5h0m-.39,0h0m.35,0h0m-.32,0h0m.29,0h0m-.25,0h0m.22,0h0m-.19,0h0m.16,0h0m-.13,0h0m.1,0h0m224.89,5h0m-750,0h0m.15,0h0m750,0h0m-.11,0h0m-749.93,0h0m750-52.5a27.54,27.54,0,0,0-27.38,25H838.51a17.48,17.48,0,0,0-34.6,0H693.57a22.49,22.49,0,0,0-44.71,0h-40.4a12.5,12.5,0,0,0-24.49,0H463.51a17.48,17.48,0,0,0-34.6,0H383.46a12.5,12.5,0,0,0-24.49,0H238.51a17.48,17.48,0,0,0-34.6,0H173.6a27.5,27.5,0,0,0-54.77,0H83.46a12.5,12.5,0,0,0-24.49,0H1.25v5H59a12.5,12.5,0,0,0,24.49,0h35.37a27.5,27.5,0,0,0,54.77,0h30.31a17.48,17.48,0,0,0,34.6,0H359a12.5,12.5,0,0,0,24.49,0h45.45a17.48,17.48,0,0,0,34.6,0H584a12.5,12.5,0,0,0,24.49,0h40.4a22.49,22.49,0,0,0,44.71,0H803.91a17.48,17.48,0,0,0,34.6,0h30.32a27.5,27.5,0,0,0,54.77,0H959a12.5,12.5,0,0,0,24.49,0h35.37a27.56,27.56,0,0,0,20.9,24.23v-5.18a22.5,22.5,0,0,1,0-43.09v-5.19a27.58,27.58,0,0,0-20.9,24.23H983.46a12.5,12.5,0,0,0-24.49,0H923.6a27.55,27.55,0,0,0-27.39-25Zm0,50a22.5,22.5,0,1,1,22.5-22.5,22.53,22.53,0,0,1-22.5,22.5Zm-750,0a22.5,22.5,0,1,1,22.5-22.5,22.53,22.53,0,0,1-22.5,22.5Zm525-5a17.5,17.5,0,1,1,17.5-17.5,17.52,17.52,0,0,1-17.5,17.5Zm150-5a12.5,12.5,0,1,1,12.5-12.5,12.51,12.51,0,0,1-12.5,12.5Zm-375,0a12.5,12.5,0,1,1,12.5-12.5,12.51,12.51,0,0,1-12.5,12.5Zm-225,0a12.5,12.5,0,1,1,12.5-12.5,12.51,12.51,0,0,1-12.5,12.5Zm750-5a7.5,7.5,0,1,1,7.5-7.5,7.51,7.51,0,0,1-7.5,7.5Zm-375,0a7.5,7.5,0,1,1,7.5-7.5,7.51,7.51,0,0,1-7.5,7.5Zm-225,0a7.5,7.5,0,1,1,7.5-7.5,7.51,7.51,0,0,1-7.5,7.5Zm-300,0a7.5,7.5,0,1,1,7.5-7.5,7.51,7.51,0,0,1-7.5,7.5Z" transform="translate(-1.25)"/><path class="cls-2" d="M633.71,91.09a26.42,26.42,0,0,1-26.13-23.86l-.11-1.14H505l-.12,1.11a21.25,21.25,0,0,1-42.23,0l-.12-1.11H360l-.1,1.14a26.24,26.24,0,0,1-52.27,0l-.11-1.14H130l-.12,1.11a21.25,21.25,0,0,1-42.23,0l-.12-1.11H49.93l-.15,1.07a16.23,16.23,0,0,1-32.13,0l-.15-1.07H2.5v-2.5h15l.15-1.07a16.23,16.23,0,0,1,32.13,0l.15,1.07H87.48l.12-1.11a21.25,21.25,0,0,1,42.23,0l.12,1.11H307.47l.11-1.14a26.24,26.24,0,0,1,52.27,0l.1,1.14H462.48l.12-1.11a21.25,21.25,0,0,1,42.23,0l.12,1.11H607.47l.11-1.14a26.24,26.24,0,0,1,52.27,0l.1,1.14h37.54l.2-1a11.25,11.25,0,0,1,22,0l.2,1h52.55l.2-1a11.25,11.25,0,0,1,22,0l.2,1H917.5l.15-1.07a16.23,16.23,0,0,1,32.13,0l.15,1.07H992.5l.15-1.07a16.23,16.23,0,0,1,32.13,0l.15,1.07h13.55v2.5h-13.55l-.15,1.07a16.23,16.23,0,0,1-32.13,0l-.15-1.07H949.93l-.15,1.07a16.23,16.23,0,0,1-32.13,0l-.15-1.07H794.94l-.2,1a11.25,11.25,0,0,1-22,0l-.2-1H719.94l-.2,1a11.25,11.25,0,0,1-22,0l-.2-1H660l-.1,1.14A26.43,26.43,0,0,1,633.71,91.09Zm0-50a23.75,23.75,0,1,0,23.75,23.75A23.78,23.78,0,0,0,633.71,41.09Zm-300,0a23.75,23.75,0,1,0,23.75,23.75A23.78,23.78,0,0,0,333.71,41.09Zm150,5a18.75,18.75,0,1,0,18.75,18.75A18.78,18.78,0,0,0,483.71,46.09Zm-375,0a18.75,18.75,0,1,0,18.75,18.75A18.78,18.78,0,0,0,108.71,46.09Zm900,5a13.75,13.75,0,1,0,13.75,13.75A13.77,13.77,0,0,0,1008.71,51.09Zm-75,0a13.75,13.75,0,1,0,13.75,13.75A13.77,13.77,0,0,0,933.71,51.09Zm-900,0A13.75,13.75,0,1,0,47.46,64.84,13.77,13.77,0,0,0,33.71,51.09Zm750,5a8.75,8.75,0,1,0,8.75,8.75A8.77,8.77,0,0,0,783.71,56.09Zm-75,0a8.75,8.75,0,1,0,8.75,8.75A8.77,8.77,0,0,0,708.71,56.09Z" transform="translate(-1.25)"/><path class="cls-2" d="M633.71,39.84h0m0,0h0m-300,0h0m0,0h0m299.94,0h0m-300,0h0m300.13,0h0m-300,0h0m149.93,5h0m0,0h0m-375,0h0m0,0h0m375,0h0m-375,0h0m374.93,0h0m-375,0h0m375.1,0h0m-375,0h0m374.86,0h0m-375,0h0m375.18,0h0m-375,0h0m374.79,0h0m-375,0h0m375.24,0h0m-375,0h0m374.73,0h0m-375,0h0m375.3,0h0m-375,0h0m374.67,0h0m-375,0h0m375.36,0A20,20,0,0,1,503,59.63a20,20,0,0,0-19.11-14.79m-375,0A20,20,0,0,1,128,59.63a20,20,0,0,0-19.11-14.79m374.61,0A20,20,0,0,0,464.41,59.6a20,20,0,0,1,19.11-14.76m-375,0A20,20,0,0,0,89.41,59.6a20,20,0,0,1,19.11-14.76m-74.85,5h0m975,0h0m-75,0h0m75.09,0h0m-75,0h0m-900,0h0m750,5h0m0,0h0m-75,0h0m0,0h0m75,0h0m-75,0h0m74.91,0h0m-75,0h0m75.12,0h0m-75,0h0m74.85,0h0m-75,0h0m75.18,0h0m-75,0h0m74.78,0h0m-75,0h0m65.3,8.09a9.7,9.7,0,0,0,0,3.82l-.39-1.91H718.92l-.39,1.9a10.12,10.12,0,0,0,0-3.8l.39,1.9h54.59l.39-1.91m-75,0a9.7,9.7,0,0,0,0,3.82l-.39-1.91h-39.7l-.16,1.73c0-.57.06-1.15.06-1.73s0-1.16-.06-1.73l.16,1.73h39.7l.39-1.91m94.63,0,.39,1.9H918.58l.19-1.36c0,.45-.06.9-.06,1.36s0,.91.06,1.36l-.19-1.36H793.92l-.39,1.9a10.12,10.12,0,0,0,0-3.8M463.8,63q-.09.9-.09,1.83c0,.62,0,1.23.09,1.84l-.21-1.84L463.8,63m-375,0q-.09.9-.09,1.83c0,.62,0,1.23.09,1.84l-.21-1.84L88.8,63m414.83,0,.2,1.83-.2,1.83c.06-.6.08-1.21.08-1.83s0-1.22-.08-1.83m-375,0,.2,1.83-.2,1.83c.06-.6.08-1.21.08-1.83s0-1.22-.08-1.83m180.14.09q-.06.87-.06,1.74c0,.59,0,1.16.06,1.74l-.15-1.74.15-1.74m300,0q-.06.87-.06,1.74c0,.59,0,1.16.06,1.74l-.15-1.74.15-1.74m-250.12,0,.16,1.73-.16,1.73c0-.57.06-1.15.06-1.73s0-1.16-.06-1.73m-339.88.37c0,.45-.06.9-.06,1.36s0,.91.06,1.36l-.19-1.36.19-1.36m975,0c0,.45-.06.9-.06,1.36s0,.91.06,1.36l-.19-1.36H948.85l-.2,1.36c0-.45.06-.9.06-1.36s0-.91-.06-1.36l.2,1.36h44.73l.19-1.36m29.88,0,.2,1.36h0l-.2,1.36c0-.45.06-.9.06-1.36s0-.91-.06-1.36m-975,0,.2,1.36-.2,1.36c0-.45.06-.9.06-1.36s0-.91-.06-1.36M503,70.06a20,20,0,0,1-19.11,14.78A20,20,0,0,0,503,70.06m-375,0a20,20,0,0,1-19.11,14.78A20,20,0,0,0,128,70.06m336.39,0a20,20,0,0,0,19.11,14.76,20,20,0,0,1-19.11-14.76m-375,0a20,20,0,0,0,19.11,14.76A20,20,0,0,1,89.41,70.08m694.42,4.76h0m-75,0h0m74.77,0h0m-75,0h0m75.2,0h0m-75,0h0m74.83,0h0m-75,0h0m75.14,0h0m-75,0h0m74.89,0h0m-75,0h0m75.08,0h0m-75,0h0m-675.07,5h0m975,0h0m-75,0h0m75.09,0h0m-75,0h0m-900,0h0m450.15,5h0m-375,0h0m374.61,0h0m-375,0h0m375.35,0h0m-375,0h0m374.68,0h0m-375,0h0m375.29,0h0m-375,0h0m374.75,0h0m-375,0h0m375.22,0h0m-375,0h0m374.81,0h0m-375,0h0m375.16,0h0m-375,0h0m374.87,0h0m-375,0h0m375.1,0h0m-375,0h0m524.89,5h0m-300,0h0m.15,0h0m300,0h0m-.11,0h0m-299.93,0h0m300-52.5a27.54,27.54,0,0,0-27.38,25H506.07a22.49,22.49,0,0,0-44.71,0H361.1a27.5,27.5,0,0,0-54.77,0H131.07a22.49,22.49,0,0,0-44.71,0H51a17.48,17.48,0,0,0-34.6,0H1.25v5H16.41a17.48,17.48,0,0,0,34.6,0H86.36a22.49,22.49,0,0,0,44.71,0H306.33a27.5,27.5,0,0,0,54.77,0H461.36a22.49,22.49,0,0,0,44.71,0H606.33a27.5,27.5,0,0,0,54.77,0h35.37a12.5,12.5,0,0,0,24.49,0h50.51a12.5,12.5,0,0,0,24.49,0H916.41a17.48,17.48,0,0,0,34.6,0h40.4a17.48,17.48,0,0,0,34.6,0h13.72v-5H1026a17.48,17.48,0,0,0-34.6,0H951a17.48,17.48,0,0,0-34.6,0H796a12.5,12.5,0,0,0-24.49,0H721a12.5,12.5,0,0,0-24.49,0H661.1a27.55,27.55,0,0,0-27.39-25Zm0,50a22.5,22.5,0,1,1,22.5-22.5,22.53,22.53,0,0,1-22.5,22.5Zm-300,0a22.5,22.5,0,1,1,22.5-22.5,22.53,22.53,0,0,1-22.5,22.5Zm150-5a17.5,17.5,0,1,1,17.5-17.5,17.52,17.52,0,0,1-17.5,17.5Zm-375,0a17.5,17.5,0,1,1,17.5-17.5,17.52,17.52,0,0,1-17.5,17.5Zm900-5a12.5,12.5,0,1,1,12.5-12.5,12.52,12.52,0,0,1-12.5,12.5Zm-75,0a12.5,12.5,0,1,1,12.5-12.5,12.52,12.52,0,0,1-12.5,12.5Zm-900,0a12.5,12.5,0,1,1,12.5-12.5,12.52,12.52,0,0,1-12.5,12.5Zm750-5a7.5,7.5,0,1,1,7.5-7.5,7.51,7.51,0,0,1-7.5,7.5Zm-75,0a7.5,7.5,0,1,1,7.5-7.5,7.51,7.51,0,0,1-7.5,7.5Z" transform="translate(-1.25)"/><path class="cls-2" d="M783.71,610.71a26.42,26.42,0,0,1-26.13-23.87l-.11-1.13H644.94l-.2,1a11.25,11.25,0,0,1-22,0l-.2-1H510l-.1,1.13a26.24,26.24,0,0,1-52.27,0l-.11-1.13H424.93l-.15,1.07a16.23,16.23,0,0,1-32.13,0l-.15-1.07H344.94l-.2,1a11.25,11.25,0,0,1-22.05,0l-.2-1H285l-.1,1.13a26.24,26.24,0,0,1-52.27,0l-.11-1.13H60l-.1,1.13a26.24,26.24,0,0,1-52.27,0l-.11-1.13h-5v-2.5h5l.11-1.14a26.42,26.42,0,0,1,26.13-23.86,26.44,26.44,0,0,1,26.14,23.86l.1,1.14H232.47l.11-1.14a26.24,26.24,0,0,1,52.27,0l.1,1.14h37.54l.2-1a11.25,11.25,0,0,1,22.05,0l.2,1H392.5l.15-1.07a16.23,16.23,0,0,1,32.13,0l.15,1.07h32.54l.11-1.14a26.24,26.24,0,0,1,52.27,0l.1,1.14H622.49l.2-1a11.25,11.25,0,0,1,22,0l.2,1H757.47l.11-1.14a26.24,26.24,0,0,1,52.27,0l.1,1.14H922.49l.2-1a11.25,11.25,0,0,1,22,0l.2,1h93.54v2.5H944.94l-.2,1a11.25,11.25,0,0,1-22,0l-.2-1H810l-.1,1.13A26.43,26.43,0,0,1,783.71,610.71Zm0-50a23.75,23.75,0,1,0,23.75,23.75A23.78,23.78,0,0,0,783.71,560.71Zm-300,0a23.75,23.75,0,1,0,23.75,23.75A23.78,23.78,0,0,0,483.71,560.71Zm-225,0a23.75,23.75,0,1,0,23.75,23.75A23.78,23.78,0,0,0,258.71,560.71Zm-225,0a23.75,23.75,0,1,0,23.75,23.75A23.78,23.78,0,0,0,33.71,560.71Zm375,10a13.75,13.75,0,1,0,13.75,13.75A13.77,13.77,0,0,0,408.71,570.71Zm525,5a8.75,8.75,0,1,0,8.75,8.75A8.77,8.77,0,0,0,933.71,575.71Zm-300,0a8.75,8.75,0,1,0,8.75,8.75A8.77,8.77,0,0,0,633.71,575.71Zm-300,0a8.75,8.75,0,1,0,8.75,8.75A8.77,8.77,0,0,0,333.71,575.71Z" transform="translate(-1.25)"/><path class="cls-2" d="M783.71,559.46h0m0,0h0m-300,0h0m0,0h0m-225,0h0m0,0h0m-225,0h0m0,0h0m750.07,0h0m-.13,0h0m-299.87,0h0m-.13,0h0m-224.87,0h0m-.13,0h0m-224.87,0h0m-.13,0h0m375.11,10h0m-.09,0h0m525,5h0m0,0h0m-300,0h0m0,0h0m-300,0h0m0,0h0m600.05,0h0m-300,0h0m-300,0h0m599.91,0h0m-300,0h0m-300,0h0m.12,0h0m600,0h0m-300,0h0m299.85,0h0m-300,0h0m-300,0h0m600.18,0h0m-300,0h0m-300,0h0m-.22,0h0m600,0h0m-300,0h0m309,5.39h0m-300,0h0m-300,0h0m0,0a9.29,9.29,0,0,1,.66,1.6,9.29,9.29,0,0,0-.66-1.6m600,0a9,9,0,0,1,.66,1.6,9.29,9.29,0,0,0-.66-1.6m-300,0a9,9,0,0,1,.66,1.6,9.29,9.29,0,0,0-.66-1.6m282.16.18h0m-300,0h0m-300,0h0m600,0a10.12,10.12,0,0,0-.6,1.53,10.12,10.12,0,0,1,.6-1.53m-300,0a10.12,10.12,0,0,0-.6,1.53,10.12,10.12,0,0,1,.6-1.53m-300,0a10.12,10.12,0,0,0-.6,1.53,10.12,10.12,0,0,1,.6-1.53m18.51,1.41v0m600,0v0m-300,0v0m-300,0h0m600,0h0m-300,0h0m-319.14.09h0m600,0h0m-300,0h0m-300.23.91a10.48,10.48,0,0,0-.19,2,9.74,9.74,0,0,0,.18,1.88l-.38-1.88h0l.39-2m600,0a10.48,10.48,0,0,0-.19,2,9.74,9.74,0,0,0,.18,1.88l-.38-1.88H808.81l-.15,1.72c0-.57.05-1.14.05-1.72s0-1.16-.06-1.74l.16,1.74h114.7l.39-2m-300,0a10.48,10.48,0,0,0-.19,2,9.74,9.74,0,0,0,.18,1.88l-.38-1.88h0l.39-2m319.63,0,.39,1.93h0l-.38,1.87a10.49,10.49,0,0,0,.17-1.87,10.19,10.19,0,0,0-.18-1.93m-300,0,.39,1.93h0l-.38,1.87a10.49,10.49,0,0,0,.17-1.87,10.19,10.19,0,0,0-.18-1.93m-300,0,.39,1.93h0l-.38,1.87a10.49,10.49,0,0,0,.17-1.87,10.19,10.19,0,0,0-.18-1.93m115.24.18c0,.58-.06,1.17-.06,1.75s0,1.16.06,1.73l-.15-1.73h0l.15-1.75m-225,0c0,.58-.06,1.17-.06,1.75s0,1.16.06,1.73l-.15-1.73h0l.15-1.75m-225,0c0,.58-.06,1.17-.06,1.75s0,1.16.06,1.73l-.15-1.73h0l.15-1.75m750,0c0,.58-.06,1.17-.06,1.75s0,1.16.06,1.73l-.15-1.73h0l.15-1.75m-250.12,0,.16,1.74h0l-.15,1.72c0-.57,0-1.14,0-1.72s0-1.16-.06-1.74m-225,0,.16,1.74h0l-.15,1.72c0-.57,0-1.14,0-1.72s0-1.16-.06-1.74m-225,0,.16,1.74h0l-.15,1.72c0-.57.05-1.14.05-1.72s0-1.16-.06-1.74m335.13.38a12.26,12.26,0,0,0-.07,1.36c0,.46,0,.91.06,1.36l-.19-1.36h0l.2-1.36m29.87,0,.2,1.36h0l-.2,1.35q.06-.66.06-1.35c0-.45,0-.91-.06-1.36m135.09,1.36h0m375.09,10h0m-300,0h0m-300,0h0m-.23,0h0m600,0h0m-300,0h0m-299.8,0h0m600,0h0m-300,0h0m299.83,0h0m-300,0h0m-300,0h0m600.14,0h0m-300,0h0m-300,0h0m599.88,0h0m-300,0h0m-300,0h0m600.09,0h0m-300,0h0m-300,0h0m74.93,5h0m.09,0h0m374.88,10h0m-300,0h0m-225,0h0m-225,0h0m450.15,0h0m-225,0h0m-225,0h0m750,0h0m-.11,0h0m-300,0h0m-225,0h0m-225,0h0m750-52.5a27.54,27.54,0,0,0-27.38,25H646a12.5,12.5,0,0,0-24.49,0H511.09a27.49,27.49,0,0,0-54.76,0H426a17.48,17.48,0,0,0-34.6,0H346a12.5,12.5,0,0,0-24.49,0H286.09a27.49,27.49,0,0,0-54.76,0H61.09a27.49,27.49,0,0,0-54.76,0H1.25v5H6.33a27.5,27.5,0,0,0,54.77,0H231.33a27.5,27.5,0,0,0,54.77,0h35.36a12.5,12.5,0,0,0,24.5,0h45.45A17.48,17.48,0,0,0,426,587h30.31a27.5,27.5,0,0,0,54.77,0H621.46a12.5,12.5,0,0,0,24.5,0H756.33a27.5,27.5,0,0,0,54.77,0H921.46a12.5,12.5,0,0,0,24.5,0h93.77v-5H946a12.5,12.5,0,0,0-24.49,0H811.09a27.53,27.53,0,0,0-27.38-25Zm0,50a22.5,22.5,0,1,1,22.5-22.5,22.53,22.53,0,0,1-22.5,22.5Zm-300,0a22.5,22.5,0,1,1,22.5-22.5,22.53,22.53,0,0,1-22.5,22.5Zm-225,0a22.5,22.5,0,1,1,22.5-22.5,22.53,22.53,0,0,1-22.5,22.5Zm-225,0a22.5,22.5,0,1,1,22.5-22.5A22.53,22.53,0,0,1,33.71,607Zm375-10a12.5,12.5,0,1,1,12.5-12.5,12.51,12.51,0,0,1-12.5,12.5Zm525-5a7.5,7.5,0,1,1,7.5-7.5,7.51,7.51,0,0,1-7.5,7.5Zm-300,0a7.5,7.5,0,1,1,7.5-7.5,7.51,7.51,0,0,1-7.5,7.5Zm-300,0a7.5,7.5,0,1,1,7.5-7.5,7.51,7.51,0,0,1-7.5,7.5Z" transform="translate(-1.25)"/><path class="cls-2" d="M633.71,221a26.43,26.43,0,0,1-26.13-23.87l-.11-1.13H494.94l-.2,1a11.25,11.25,0,0,1-22.05,0l-.2-1H360l-.1,1.13a26.24,26.24,0,0,1-52.27,0l-.11-1.13H274.93l-.15,1.07a16.23,16.23,0,0,1-32.13,0L242.5,196H119.94l-.2,1a11.25,11.25,0,0,1-22,0l-.2-1H60l-.1,1.13A26.43,26.43,0,0,1,33.71,221,26.43,26.43,0,0,1,7.58,197.13L7.47,196h-5v-2.5h5l.11-1.14a26.24,26.24,0,0,1,52.27,0l.1,1.14H97.49l.2-1a11.26,11.26,0,0,1,22,0l.2,1H242.5l.15-1.08a16.23,16.23,0,0,1,32.13,0l.15,1.08h32.54l.11-1.14a26.24,26.24,0,0,1,52.27,0l.1,1.14H472.49l.2-1a11.26,11.26,0,0,1,22.05,0l.2,1H607.47l.11-1.14a26.24,26.24,0,0,1,52.27,0l.1,1.14H762.48l.12-1.12a21.25,21.25,0,0,1,42.23,0l.12,1.12h42.54l.2-1a11.26,11.26,0,0,1,22,0l.2,1h42.54l.12-1.12a21.25,21.25,0,0,1,42.23,0l.12,1.12h83.53V196H955l-.12,1.11a21.25,21.25,0,0,1-42.23,0l-.12-1.11H869.94l-.2,1a11.25,11.25,0,0,1-22,0l-.2-1H805l-.12,1.11a21.25,21.25,0,0,1-42.23,0l-.12-1.11H660l-.1,1.13A26.43,26.43,0,0,1,633.71,221Zm0-50a23.75,23.75,0,1,0,23.75,23.75A23.78,23.78,0,0,0,633.71,171Zm-300,0a23.75,23.75,0,1,0,23.75,23.75A23.78,23.78,0,0,0,333.71,171Zm-300,0a23.75,23.75,0,1,0,23.75,23.75A23.78,23.78,0,0,0,33.71,171Zm900,5a18.75,18.75,0,1,0,18.75,18.75A18.78,18.78,0,0,0,933.71,176Zm-150,0a18.75,18.75,0,1,0,18.75,18.75A18.78,18.78,0,0,0,783.71,176Zm-525,5a13.75,13.75,0,1,0,13.75,13.75A13.76,13.76,0,0,0,258.71,181Zm600,5a8.75,8.75,0,1,0,8.75,8.75A8.76,8.76,0,0,0,858.71,186Zm-375,0a8.75,8.75,0,1,0,8.75,8.75A8.76,8.76,0,0,0,483.71,186Zm-375,0a8.75,8.75,0,1,0,8.75,8.75A8.76,8.76,0,0,0,108.71,186Z" transform="translate(-1.25)"/><path class="cls-2" d="M633.71,169.75h0m0,0h0m-300,0h0m0,0h0m-300,0h0m0,0h0m599.94,0h0m-300,0h0m-300,0h0m600.13,0h0m-300,0h0m-300,0h0m899.93,5h0m0,0h0m-150,0h0m0,0h0m150,0h0m-150,0h0m149.93,0h0m-150,0h0m150.1,0h0m-150,0h0m149.86,0h0m-150,0h0m150.18,0h0m-150,0h0m149.79,0h0m-150,0h0m150.24,0h0m-150,0h0m149.73,0h0m-150,0h0m150.3,0h0m-150,0h0m149.67,0h0m-150,0h0m150.36,0A20,20,0,0,1,953,189.53a20,20,0,0,0-19.11-14.78m-150,0A20,20,0,0,1,803,189.53a20,20,0,0,0-19.11-14.78m149.61,0a20,20,0,0,0-19.11,14.76,20,20,0,0,1,19.11-14.76m-150,0a20,20,0,0,0-19.11,14.76,20,20,0,0,1,19.11-14.76m-524.85,5h0m.09,0h0m600,5h0m0,0h0m-375,0h0m0,0h0m-375,0h0m0,0h0m750.05,0h0m-375,0h0m-375,0h0m749.91,0h0m-375,0h0m-375,0h0m375.12,0h0m-375,0h0m750,0h0m-.15,0h0m-375,0h0m-375,0h0m750.18,0h0m-375,0h0m-375,0h0m374.78,0h0m-375,0h0m750,0h0m-384.7,8.08a9.75,9.75,0,0,0,0,3.83l-.39-1.91.39-1.92m-375,0a9.75,9.75,0,0,0,0,3.83l-.39-1.91.39-1.92m750,0a9.75,9.75,0,0,0,0,3.83l-.39-1.91H803.83l-.2,1.82c.06-.6.08-1.21.08-1.82s0-1.23-.08-1.83l.2,1.83h44.68l.39-1.92m19.63,0,.39,1.91h44.67l.21-1.84c-.06.6-.09,1.22-.09,1.84s0,1.23.09,1.83l-.21-1.83H868.92l-.39,1.9a10,10,0,0,0,.18-1.9,10.05,10.05,0,0,0-.18-1.91m-375,0,.39,1.91-.39,1.9a10,10,0,0,0,.18-1.9,10.05,10.05,0,0,0-.18-1.91m-375,0,.39,1.91-.39,1.9a10,10,0,0,0,.18-1.9,10.05,10.05,0,0,0-.18-1.91m645.27.07c-.06.6-.09,1.22-.09,1.84s0,1.23.09,1.83l-.21-1.83H658.81l-.16,1.73c0-.58.06-1.15.06-1.73s0-1.16-.06-1.74l.16,1.74H763.59l.21-1.84m189.83,0,.2,1.83h0l-.2,1.82c.06-.6.08-1.21.08-1.82s0-1.23-.08-1.83M308.77,193q-.06.86-.06,1.74c0,.58,0,1.16.06,1.73l-.15-1.73.15-1.74m-300,0q-.06.86-.06,1.74c0,.58,0,1.16.06,1.73l-.15-1.73L8.77,193m600,0q-.06.86-.06,1.74c0,.58,0,1.16.06,1.73l-.15-1.73.15-1.74m-250.12,0,.16,1.74-.16,1.73c0-.58.06-1.15.06-1.73s0-1.16-.06-1.74m-300,0,.16,1.74-.16,1.73c0-.58.06-1.15.06-1.73s0-1.16-.06-1.74m185.12.38c0,.44-.06.9-.06,1.36s0,.91.06,1.35l-.19-1.35.19-1.36m29.88,0,.2,1.36-.2,1.35c0-.44.06-.9.06-1.35s0-.92-.06-1.36M953,200a20,20,0,0,1-19.11,14.78A20,20,0,0,0,953,200m-150,0a20,20,0,0,1-19.11,14.78A20,20,0,0,0,803,200m111.39,0a20,20,0,0,0,19.11,14.76A20,20,0,0,1,914.41,200m-150,0a20,20,0,0,0,19.11,14.76A20,20,0,0,1,764.41,200m94.42,4.76h0m-375,0h0m-375,0h0m374.77,0h0m-375,0h0m750,0h0m-374.8,0h0m-375,0h0m750,0h0m-.17,0h0m-375,0h0m-375,0h0m375.14,0h0m-375,0h0m750,0h0m-.11,0h0m-375,0h0m-375,0h0m375.08,0h0m-375,0h0m750,0h0m-600.07,5h0m.09,0h0m675.15,5h0m-150,0h0m149.61,0h0m-150,0h0m150.35,0h0m-150,0h0m149.68,0h0m-150,0h0m150.29,0h0m-150,0h0m149.75,0h0m-150,0h0m150.22,0h0m-150,0h0m149.81,0h0m-150,0h0m150.16,0h0m-150,0h0m149.87,0h0m-150,0h0m150.1,0h0m-150,0h0m-150.11,5h0m-300,0h0m-300,0h0m300.15,0h0m-300,0h0m600,0h0m-.11,0h0m-299.93,0h0m-300,0h0m600-52.5a27.53,27.53,0,0,0-27.38,25H496a12.5,12.5,0,0,0-24.49,0H361.1a27.5,27.5,0,0,0-54.77,0H276a17.48,17.48,0,0,0-34.6,0H121a12.5,12.5,0,0,0-24.49,0H61.1a27.5,27.5,0,0,0-54.77,0H1.25v5H6.33a27.5,27.5,0,0,0,54.77,0H96.47a12.5,12.5,0,0,0,24.49,0H241.41a17.48,17.48,0,0,0,34.6,0h30.32a27.5,27.5,0,0,0,54.77,0H471.47a12.5,12.5,0,0,0,24.49,0H606.33a27.5,27.5,0,0,0,54.77,0H761.36a22.49,22.49,0,0,0,44.71,0h40.4a12.5,12.5,0,0,0,24.49,0h40.4a22.49,22.49,0,0,0,44.71,0h83.66v-5H956.07a22.49,22.49,0,0,0-44.71,0H871a12.5,12.5,0,0,0-24.49,0h-40.4a22.49,22.49,0,0,0-44.71,0H661.1a27.54,27.54,0,0,0-27.39-25Zm0,50a22.5,22.5,0,1,1,22.5-22.5,22.53,22.53,0,0,1-22.5,22.5Zm-300,0a22.5,22.5,0,1,1,22.5-22.5,22.53,22.53,0,0,1-22.5,22.5Zm-300,0a22.5,22.5,0,1,1,22.5-22.5,22.53,22.53,0,0,1-22.5,22.5Zm900-5a17.5,17.5,0,1,1,17.5-17.5,17.53,17.53,0,0,1-17.5,17.5Zm-150,0a17.5,17.5,0,1,1,17.5-17.5,17.53,17.53,0,0,1-17.5,17.5Zm-525-5a12.5,12.5,0,1,1,12.5-12.5,12.52,12.52,0,0,1-12.5,12.5Zm600-5a7.5,7.5,0,1,1,7.5-7.5,7.52,7.52,0,0,1-7.5,7.5Zm-375,0a7.5,7.5,0,1,1,7.5-7.5,7.52,7.52,0,0,1-7.5,7.5Zm-375,0a7.5,7.5,0,1,1,7.5-7.5,7.52,7.52,0,0,1-7.5,7.5Z" transform="translate(-1.25)"/><path class="cls-2" d="M446.21,26.14A26.42,26.42,0,0,1,420.08,2.28l-.09-1h2.51a23.81,23.81,0,0,0,23.71,22.39A23.8,23.8,0,0,0,469.92,1.25h2.52l-.09,1A26.43,26.43,0,0,1,446.21,26.14ZM2.5,22.79A23.63,23.63,0,0,0,19.92,1.25h2.52l-.09,1A26.34,26.34,0,0,1,2.5,25.38Zm968.71-1.65A21.21,21.21,0,0,1,950.1,2.25l-.11-1h2.53a18.79,18.79,0,0,0,18.69,17.39,18.79,18.79,0,0,0,18.7-17.39h2.53l-.11,1A21.22,21.22,0,0,1,971.21,21.14Zm-75,0A21.21,21.21,0,0,1,875.1,2.25l-.11-1h2.53a18.79,18.79,0,0,0,18.69,17.39,18.79,18.79,0,0,0,18.7-17.39h2.53l-.11,1A21.22,21.22,0,0,1,896.21,21.14Zm-750,0A21.21,21.21,0,0,1,125.1,2.25l-.11-1h2.53a18.79,18.79,0,0,0,18.69,17.39,18.79,18.79,0,0,0,18.7-17.39h2.53l-.11,1A21.22,21.22,0,0,1,146.21,21.14Zm525-5A16.32,16.32,0,0,1,655.15,2.21l-.14-1h2.53a13.78,13.78,0,0,0,13.67,12.39A13.79,13.79,0,0,0,684.89,1.25h2.53l-.14,1A16.33,16.33,0,0,1,671.21,16.14Zm-150-5a11.28,11.28,0,0,1-11-9L510,1.25h2.57a8.78,8.78,0,0,0,8.63,7.39,8.79,8.79,0,0,0,8.64-7.39h2.57l-.18.89A11.28,11.28,0,0,1,521.21,11.14Zm-300,0a11.28,11.28,0,0,1-11-9L210,1.25h2.57a8.78,8.78,0,0,0,8.63,7.39,8.79,8.79,0,0,0,8.64-7.39h2.57l-.18.89A11.28,11.28,0,0,1,221.21,11.14Z" transform="translate(-1.25)"/><path class="cls-2" d="M991,2.5a20,20,0,0,1-19.73,17.39A20.06,20.06,0,0,0,991,2.5h0m-39.65,0a20.05,20.05,0,0,0,19.73,17.39A20,20,0,0,1,951.39,2.5h0M916,2.5a20,20,0,0,1-19.73,17.39A20.06,20.06,0,0,0,916,2.5h0m-39.65,0a20.05,20.05,0,0,0,19.73,17.39A20,20,0,0,1,876.39,2.5h0m-345.52,0a10,10,0,0,1-8.31,7.3,10.07,10.07,0,0,0,8.3-7.3h0m-19.3,0a10.07,10.07,0,0,0,8.36,7.31,10,10,0,0,1-8.37-7.31h0m-280.7,0a10,10,0,0,1-8.31,7.3,10.07,10.07,0,0,0,8.3-7.3h0m-19.3,0a10.07,10.07,0,0,0,8.36,7.31,10,10,0,0,1-8.37-7.31h0M166,2.5a20,20,0,0,1-19.73,17.39A20.06,20.06,0,0,0,166,2.5h0m-39.65,0a20.05,20.05,0,0,0,19.73,17.39A20,20,0,0,1,126.39,2.5h0M522.56,9.8h0m-300,0h0m300,0h0m-300,0h0m297.41,0h0m-300,0h0m302.53,0h0m-300,0h0M520,9.81h0m-300,0h0m302.47,0h0m-300,0h0M520,9.82h0m-300,0h0m300,0h0m-300,0h0m.81.07h0m300,0h0m-299.28,0h0m300,0h0m-300.69,0h0m300,0h0m.67,0h0m-300,0h0m299.36,0h0m-300,0h0m.61,0h0m300,0h0m-.58,0h0m-300,0h0m.55,0h0m300,0h0m-.53,0h0m-299.5,0h0m-.5,0h0m300.5,0h0m-.45,0h0m-300,0h0m300.41,0h0m-300,0h0M521,9.89h0m-300,0h0m300.35,0h0m-300,0h0m299.67,0h0m-300,0h0m.3,0h0m300,0h0m-.27,0h0m-300,0h0m.24,0h0m300,0h0m-.21,0h0m.18,0h0m-300.18,0h0m.18,0h0m299.85,0h0m-300,0h0m.12,0h0m300,0h0m-.09,0h0m-300,0h0m300.06,0h0m-300,0h0m449.89,5h0m.17,0h0m-.13,0h0m.09,0h0m-525.14,5h0m825,0h0m-75,0h0m75.19,0h0m-75,0h0m-750,0h0m824.84,0h0m-75,0h0m-750,0h0m.13,0h0m825,0h0m-75,0h0m74.9,0h0m-75,0h0m-750,0h0m.07,0h0m825,0h0m-75,0h0M4,23.64l-.27.09h0L4,23.64m442.27,1.25h0m-.15,0h0m.11,0h0m-.07,0h0M1039.73,0h-51a17.52,17.52,0,0,1-17.5,17.39A17.51,17.51,0,0,1,953.72,0h-40a17.52,17.52,0,0,1-17.5,17.39A17.51,17.51,0,0,1,878.72,0h-195a12.51,12.51,0,0,1-12.5,12.39A12.51,12.51,0,0,1,658.72,0h-130a7.51,7.51,0,0,1-7.5,7.39A7.5,7.5,0,0,1,513.72,0h-45a22.52,22.52,0,0,1-22.5,22.39A22.52,22.52,0,0,1,423.72,0h-195a7.51,7.51,0,0,1-7.5,7.39A7.5,7.5,0,0,1,213.72,0h-50a17.52,17.52,0,0,1-17.5,17.39A17.51,17.51,0,0,1,128.72,0h-110A22.53,22.53,0,0,1,1.25,21.82v5.11A27.59,27.59,0,0,0,23.6,2.39H123.86a22.52,22.52,0,0,0,22.35,20,22.52,22.52,0,0,0,22.36-20H209a12.51,12.51,0,0,0,12.24,10,12.52,12.52,0,0,0,12.25-10H418.83a27.53,27.53,0,0,0,27.38,25,27.54,27.54,0,0,0,27.39-25H509a12.51,12.51,0,0,0,12.24,10,12.52,12.52,0,0,0,12.25-10H653.91a17.51,17.51,0,0,0,17.3,15,17.5,17.5,0,0,0,17.3-15H873.86a22.52,22.52,0,0,0,22.35,20,22.52,22.52,0,0,0,22.36-20h30.29a22.52,22.52,0,0,0,22.35,20,22.52,22.52,0,0,0,22.36-20h46.16V0Z" transform="translate(-1.25)"/></g></g></svg>