<svg xmlns="http://www.w3.org/2000/svg" viewBox="0 0 1038.48 778.86"><defs><style>.cls-1{fill:none;}.cls-2{fill:lime;}</style></defs><title>Element 39</title><g id="Ebene_2" data-name="Ebene 2"><g id="Ebene_1-2" data-name="Ebene 1"><rect class="cls-1" x="362.82" y="196.71" width="163.21" height="33.3"/><rect class="cls-1" x="276.21" y="271.71" width="163.21" height="33.3"/><rect class="cls-1" x="189.61" y="96.71" width="163.21" height="33.3"/><rect class="cls-1" x="319.51" y="146.71" width="76.6" height="33.3"/><rect class="cls-1" x="362.82" y="496.71" width="206.51" height="33.3"/><rect class="cls-1" x="103.01" y="221.71" width="206.51" height="33.3"/><rect class="cls-1" x="362.82" y="621.74" width="163.21" height="33.3"/><rect class="cls-1" x="492.72" y="671.74" width="76.6" height="33.3"/><rect class="cls-1" x="276.21" y="571.74" width="119.9" height="33.3"/><rect class="cls-1" x="276.21" y="696.71" width="76.6" height="33.3"/><rect class="cls-1" x="276.21" y="446.71" width="119.9" height="33.3"/><rect class="cls-1" x="709.23" y="221.71" width="163.21" height="33.3"/><rect class="cls-1" x="536.02" y="546.71" width="76.6" height="33.3"/><rect class="cls-1" x="579.32" y="596.71" width="173.98" height="33.3"/><rect class="cls-1" x="579.32" y="421.71" width="163.21" height="33.3"/><rect class="cls-1" x="406.12" y="321.71" width="76.6" height="33.3"/><rect class="cls-1" x="665.92" y="471.71" width="119.9" height="33.3"/><rect class="cls-1" x="665.92" y="346.71" width="206.51" height="33.3"/><rect class="cls-1" x="536.02" y="721.74" width="163.21" height="33.3"/><rect class="cls-1" x="579.32" y="296.71" width="119.9" height="33.3"/><rect class="cls-1" x="665.92" y="171.71" width="76.6" height="33.3"/><rect class="cls-1" x="492.72" y="246.71" width="163.21" height="33.3"/><rect class="cls-1" x="925.73" y="571.71" width="76.6" height="33.3"/><rect class="cls-1" x="59.71" y="346.71" width="163.21" height="33.3"/><rect class="cls-1" x="16.4" y="296.71" width="76.6" height="33.3"/><rect class="cls-1" x="276.21" y="21.71" width="206.51" height="33.3"/><rect class="cls-1" x="16.4" y="171.71" width="119.9" height="33.3"/><rect class="cls-1" x="189.61" y="396.71" width="163.2" height="33.3"/><rect class="cls-1" x="103.01" y="46.71" width="119.9" height="33.3"/><path class="cls-1" d="M54.71,766.74h216.5v12.12h43.3V741.71H487.72v37.15h173.2V766.74H834.13v12.12h86.6V741.71h117.75V660H964V616.71h74.45V485H877.43v-43.3h161.05V410h-31.15V366.71h31.15V360H920.73V316.71h117.75V235H920.73v-43.3h117.75V110H920.73V66.71h117.75V60H877.43V16.71h161.05V0H920.73V10H790.83V0h-43.3V35H531V0H314.51V10H184.61V0h-43.3V35H0v81.69H98V160H0v81.69H54.71V285H0V416.71H54.71V460H0v6.69H184.61V510H0v31.69H98V585H0v81.72H54.71V710H0v68.82H54.71ZM98,685V641.71h216.5V685ZM444.42,366.71h173.2V410H444.42ZM401.12,360V316.71h86.6V360Zm173.2,56.69H747.53V460H574.32Zm43.3,125V585H531V541.71Zm-43.3,50h184V635h-184Zm86.6-125H790.83V510H660.92Zm0-81.69V341.71H877.43V385Zm86.61-175H660.92V166.71h86.61Zm129.9,6.69V260H704.23V216.71Zm-173.2,75V335H574.32V291.71ZM660.92,285H487.72V241.71h173.2ZM531,235H357.82V191.71H531Zm-129.9-50H314.51V141.71h86.61Zm-43.3-50H184.61V91.71H357.82Zm-43.31,81.69V260H98V216.71Zm-43.3,50H444.42V310H271.21Zm86.61,225h216.5V535H357.82ZM271.21,485V441.71H401.12V485Zm129.91,81.72V610H271.21v-43.3ZM357.82,735H271.21V691.71h86.61Zm0-75v-43.3H531V660Zm129.9,6.7h86.6V710h-86.6ZM704.23,760H531v-43.3H704.23Zm-43.31-75V641.71H877.43V685Zm346.41,6.69V735H834.13V691.71Zm0-81.69h-86.6V566.71h86.6ZM964,516.71V560H747.53V516.71ZM920.73,435h-86.6V391.71h86.6Zm86.6-168.31V310H834.13V266.71Zm-43.3-125V185H790.83V141.71Zm-86.6-50V135H747.53V91.71Zm-173.2-50h86.6V85h-86.6Zm0,118.31H531V116.71H704.23ZM574.32,66.71V110H444.42V66.71Zm-303.11-50H487.72V60H271.21ZM98,41.71h129.9V85H98ZM11.4,210v-43.3H141.31V210Zm0,125V291.71H98V335Zm43.31,6.69h173.2V385H54.71ZM184.61,435V391.71h173.2V435Zm-43.3,81.72h173.2V560H141.31ZM11.41,635V591.71h129.9V635Zm0,81.72H98V760H11.41Z"/><rect class="cls-1" x="16.41" y="721.74" width="76.6" height="33.3"/><rect class="cls-1" x="16.41" y="596.71" width="119.9" height="33.3"/><rect class="cls-1" x="146.31" y="521.74" width="163.21" height="33.3"/><rect class="cls-1" x="536.02" y="121.71" width="163.21" height="33.3"/><rect class="cls-1" x="752.53" y="521.71" width="206.51" height="33.3"/><rect class="cls-1" x="839.13" y="396.71" width="76.6" height="33.3"/><rect class="cls-1" x="449.42" y="71.71" width="119.9" height="33.3"/><rect class="cls-1" x="839.13" y="696.71" width="163.21" height="33.3"/><rect class="cls-1" x="59.71" y="771.74" width="206.5" height="7.13"/><rect class="cls-1" x="839.13" y="271.71" width="163.2" height="33.3"/><rect class="cls-1" x="665.92" y="646.71" width="206.51" height="33.3"/><rect class="cls-1" x="795.83" y="146.71" width="163.21" height="33.3"/><rect class="cls-1" x="709.23" y="46.71" width="76.6" height="33.3"/><rect class="cls-1" x="752.53" y="96.71" width="119.9" height="33.3"/><rect class="cls-1" x="319.51" y="746.71" width="163.21" height="32.15"/><rect class="cls-1" x="969.03" y="621.71" width="69.45" height="33.3"/><rect class="cls-1" y="121.71" width="93.01" height="33.3"/><rect class="cls-1" x="795.83" width="119.9" height="5.02"/><rect class="cls-1" x="536.02" width="206.51" height="30.02"/><rect class="cls-1" x="925.73" y="746.71" width="112.75" height="32.15"/><rect class="cls-1" width="136.31" height="30.02"/><rect class="cls-1" x="189.61" width="119.9" height="5.01"/><rect class="cls-1" x="925.73" y="321.71" width="112.75" height="33.3"/><rect class="cls-1" x="882.43" y="446.71" width="156.05" height="33.3"/><rect class="cls-1" x="882.43" y="21.71" width="156.05" height="33.3"/><rect class="cls-1" x="1012.33" y="371.71" width="26.15" height="33.3"/><rect class="cls-1" x="925.73" y="196.72" width="112.75" height="33.3"/><rect class="cls-1" x="925.73" y="71.71" width="112.75" height="33.3"/><rect class="cls-1" y="546.71" width="93.01" height="33.3"/><rect class="cls-1" y="471.71" width="179.61" height="33.3"/><rect class="cls-1" x="103.01" y="646.71" width="206.51" height="33.3"/><rect class="cls-1" x="449.42" y="371.71" width="163.21" height="33.3"/><rect class="cls-1" y="246.71" width="49.71" height="33.3"/><rect class="cls-1" x="665.92" y="771.74" width="163.21" height="7.12"/><rect class="cls-1" y="421.71" width="49.71" height="33.3"/><rect class="cls-1" y="671.74" width="49.71" height="33.3"/><path class="cls-2" d="M227.91,41.71H98V85h129.9Zm-5,38.31H103V46.71h119.9Z"/><path class="cls-2" d="M574.32,335H704.23V291.71H574.32Zm5-38.31H699.23V330H579.32Z"/><path class="cls-2" d="M790.83,185H964V141.71H790.83Zm5-38.31H959V180H795.83Z"/><path class="cls-2" d="M184.61,135H357.82V91.71H184.61Zm5-38.31H352.82V130H189.61Z"/><path class="cls-2" d="M357.82,235H531V191.71H357.82Zm5-38.31H526V230H362.82Z"/><path class="cls-2" d="M487.72,285h173.2V241.71H487.72Zm5-38.31h163.2V280H492.72Z"/><path class="cls-2" d="M877.43,341.71H660.92V385H877.43Zm-5,38.31H665.92V346.71H872.43Z"/><path class="cls-2" d="M314.51,185h86.61V141.71H314.51Zm5-38.31h76.61V180H319.51Z"/><path class="cls-2" d="M790.83,466.71H660.92V510H790.83Zm-5,38.31H665.92V471.71H785.83Z"/><path class="cls-2" d="M444.42,266.71H271.21V310H444.42Zm-5,38.31H276.21V271.71H439.42Z"/><path class="cls-2" d="M617.62,366.71H444.42V410h173.2Zm-5,38.31H449.42V371.71h163.2Z"/><path class="cls-2" d="M747.53,416.71H574.32V460H747.53Zm-5,38.31H579.32V421.71H742.53Z"/><path class="cls-2" d="M747.53,560H964V516.71H747.53Zm5-38.31H959V555H752.53Z"/><path class="cls-2" d="M487.72,316.71h-86.6V360h86.6Zm-5,38.31h-76.6V321.71h76.6Z"/><path class="cls-2" d="M834.13,435h86.6V391.71h-86.6Zm5-38.31h76.6V430h-76.6Z"/><polygon class="cls-2" points="877.43 485.01 1038.48 485.01 1038.48 480.01 882.43 480.01 882.43 446.71 1038.48 446.71 1038.48 441.71 877.43 441.71 877.43 485.01"/><path class="cls-2" d="M574.32,491.71H357.82V535h216.5Zm-5,38.31H362.82V496.71h206.5Z"/><path class="cls-2" d="M531,585h86.6V541.71H531Zm5-38.31h76.6V580H536Z"/><path class="cls-2" d="M758.3,591.71h-184V635h184Zm-5,38.31h-174V596.71h174Z"/><path class="cls-2" d="M877.43,641.71H660.92V685H877.43Zm-5,38.31H665.92V646.71H872.43Z"/><path class="cls-2" d="M834.13,735h173.2V691.71H834.13Zm5-38.31h163.2V730H839.13Z"/><polygon class="cls-2" points="920.73 778.86 925.73 778.86 925.73 746.71 1038.48 746.71 1038.48 741.71 920.73 741.71 920.73 778.86"/><polygon class="cls-2" points="141.31 0 136.31 0 136.31 30.02 0 30.02 0 35.02 141.31 35.02 141.31 0"/><path class="cls-2" d="M271.21,610H401.12v-43.3H271.21Zm5-38.3H396.12V605H276.21Z"/><path class="cls-2" d="M531,616.74H357.82V660H531ZM526,655H362.82v-33.3H526Z"/><path class="cls-2" d="M531,760H704.23v-43.3H531Zm5-38.3H699.23V755H536Z"/><polygon class="cls-2" points="660.92 766.74 660.92 778.86 665.92 778.86 665.92 771.74 829.13 771.74 829.13 778.86 834.13 778.86 834.13 766.74 660.92 766.74"/><polygon class="cls-2" points="54.71 666.74 0 666.74 0 671.74 49.71 671.74 49.71 705.04 0 705.04 0 710.04 54.71 710.04 54.71 666.74"/><path class="cls-2" d="M574.32,666.74h-86.6V710h86.6Zm-5,38.3h-76.6v-33.3h76.6Z"/><path class="cls-2" d="M98,716.74H11.41V760H98ZM93,755H16.41v-33.3H93Z"/><polygon class="cls-2" points="54.71 766.74 54.71 778.86 59.71 778.86 59.71 771.74 266.21 771.74 266.21 778.86 271.21 778.86 271.21 766.74 54.71 766.74"/><path class="cls-2" d="M141.31,591.71H11.41V635h129.9Zm-5,38.31H16.41V596.71h119.9Z"/><polygon class="cls-2" points="98.01 541.71 0 541.71 0 546.71 93.01 546.71 93.01 580.02 0 580.02 0 585.02 98.01 585.02 98.01 541.71"/><polygon class="cls-2" points="54.7 416.71 0 416.71 0 421.71 49.7 421.71 49.7 455.01 0 455.01 0 460.01 54.7 460.01 54.7 416.71"/><path class="cls-2" d="M314.51,641.71H98V685h216.5Zm-5,38.31H103V646.71h206.5Z"/><polygon class="cls-2" points="184.61 466.71 0 466.71 0 471.71 179.61 471.71 179.61 505.02 0 505.02 0 510.02 184.61 510.02 184.61 466.71"/><path class="cls-2" d="M271.21,735h86.61V691.71H271.21Zm5-38.31h76.61V730H276.21Z"/><polygon class="cls-2" points="314.51 741.71 314.51 778.86 319.51 778.86 319.51 746.71 482.72 746.71 482.72 778.86 487.72 778.86 487.72 741.71 314.51 741.71"/><path class="cls-2" d="M314.51,516.74H141.31V560h173.2Zm-5,38.3H146.31v-33.3h163.2Z"/><path class="cls-2" d="M444.42,110h129.9V66.71H444.42Zm5-38.31h119.9V105H449.42Z"/><polygon class="cls-2" points="920.73 360.01 1038.48 360.01 1038.48 355.01 925.73 355.01 925.73 321.71 1038.48 321.71 1038.48 316.71 920.73 316.71 920.73 360.01"/><polygon class="cls-2" points="314.51 10.02 314.51 0 309.51 0 309.51 5.01 189.61 5.01 189.61 0 184.61 0 184.61 10.02 314.51 10.02"/><path class="cls-2" d="M531,160H704.23V116.71H531Zm5-38.31H699.23V155H536Z"/><path class="cls-2" d="M704.23,260h173.2V216.71H704.23Zm5-38.31h163.2V255H709.23Z"/><path class="cls-2" d="M834.13,310h173.2V266.71H834.13Zm5-38.31h163.2V305H839.13Z"/><polygon class="cls-2" points="1007.33 410.02 1038.48 410.02 1038.48 405.02 1012.33 405.02 1012.33 371.71 1038.48 371.71 1038.48 366.71 1007.33 366.71 1007.33 410.02"/><path class="cls-2" d="M141.31,166.71H11.4V210H141.31Zm-5,38.3H16.4v-33.3H136.31Z"/><polygon class="cls-2" points="98.01 116.71 0 116.71 0 121.71 93.01 121.71 93.01 155.02 0 155.02 0 160.02 98.01 160.02 98.01 116.71"/><path class="cls-2" d="M98,260h216.5V216.71H98Zm5-38.31h206.5V255H103Z"/><path class="cls-2" d="M660.92,210h86.61V166.71H660.92Zm5-38.31h76.61V205H665.92Z"/><path class="cls-2" d="M401.12,441.71H271.21V485H401.12Zm-5,38.31H276.21V446.71H396.12Z"/><polygon class="cls-2" points="54.7 241.71 0 241.71 0 246.71 49.7 246.71 49.7 280.02 0 280.02 0 285.02 54.7 285.02 54.7 241.71"/><path class="cls-2" d="M227.91,341.71H54.71V385h173.2Zm-5,38.31H59.71V346.71h163.2Z"/><path class="cls-2" d="M357.81,391.71H184.61V435h173.2Zm-5,38.31H189.61V396.71h163.2Z"/><path class="cls-2" d="M98,291.71H11.4V335H98ZM93,330H16.4V296.71H93Z"/><polygon class="cls-2" points="920.73 10.02 920.73 0 915.73 0 915.73 5.01 795.83 5.01 795.83 0 790.83 0 790.83 10.02 920.73 10.02"/><polygon class="cls-2" points="877.43 60.02 1038.48 60.02 1038.48 55.02 882.43 55.02 882.43 21.71 1038.48 21.71 1038.48 16.71 877.43 16.71 877.43 60.02"/><polygon class="cls-2" points="920.73 110.02 1038.48 110.02 1038.48 105.02 925.73 105.02 925.73 71.71 1038.48 71.71 1038.48 66.71 920.73 66.71 920.73 110.02"/><path class="cls-2" d="M920.73,610h86.6V566.71h-86.6Zm5-38.31h76.6V605h-76.6Z"/><polygon class="cls-2" points="964.03 660.01 1038.48 660.01 1038.48 655.01 969.03 655.01 969.03 621.71 1038.48 621.71 1038.48 616.71 964.03 616.71 964.03 660.01"/><polygon class="cls-2" points="747.53 35.02 747.53 0 742.53 0 742.53 30.02 536.02 30.02 536.02 0 531.02 0 531.02 35.02 747.53 35.02"/><polygon class="cls-2" points="920.73 235.02 1038.48 235.02 1038.48 230.02 925.73 230.02 925.73 196.72 1038.48 196.72 1038.48 191.72 920.73 191.72 920.73 235.02"/><path class="cls-2" d="M790.83,41.71h-86.6V85h86.6Zm-5,38.31h-76.6V46.71h76.6Z"/><path class="cls-2" d="M747.53,135h129.9V91.71H747.53Zm5-38.31h119.9V130H752.53Z"/><path class="cls-2" d="M487.72,16.71H271.21V60H487.72Zm-5,38.31H276.21V21.71H482.72Z"/></g></g></svg>