<svg xmlns="http://www.w3.org/2000/svg" viewBox="0 0 1038.48 778.86"><defs><style>.cls-1{fill:lime;}</style></defs><title>Element 25</title><g id="Ebene_2" data-name="Ebene 2"><g id="Ebene_1-2" data-name="Ebene 1"><path class="cls-1" d="M0,24.15A25,25,0,0,0,18.52,0H0Z"/><path class="cls-1" d="M68.52,25a25,25,0,0,0,25-25h-50A25,25,0,0,0,68.52,25Z"/><path class="cls-1" d="M143.52,25a25,25,0,0,0,25-25h-50A25,25,0,0,0,143.52,25Z"/><path class="cls-1" d="M218.52,25a25,25,0,0,0,25-25h-50A25,25,0,0,0,218.52,25Z"/><path class="cls-1" d="M293.52,25a25,25,0,0,0,25-25h-50A25,25,0,0,0,293.52,25Z"/><path class="cls-1" d="M368.52,25a25,25,0,0,0,25-25h-50A25,25,0,0,0,368.52,25Z"/><path class="cls-1" d="M443.52,25a25,25,0,0,0,25-25h-50A25,25,0,0,0,443.52,25Z"/><path class="cls-1" d="M518.52,25a25,25,0,0,0,25-25h-50A25,25,0,0,0,518.52,25Z"/><path class="cls-1" d="M593.52,25a25,25,0,0,0,25-25h-50A25,25,0,0,0,593.52,25Z"/><path class="cls-1" d="M668.52,25a25,25,0,0,0,25-25h-50A25,25,0,0,0,668.52,25Z"/><path class="cls-1" d="M743.52,25a25,25,0,0,0,25-25h-50A25,25,0,0,0,743.52,25Z"/><path class="cls-1" d="M818.52,25a25,25,0,0,0,25-25h-50A25,25,0,0,0,818.52,25Z"/><path class="cls-1" d="M893.52,25a25,25,0,0,0,25-25h-50A25,25,0,0,0,893.52,25Z"/><path class="cls-1" d="M968.52,25a25,25,0,0,0,25-25h-50A25,25,0,0,0,968.52,25Z"/><path class="cls-1" d="M1038.48,24V0h-20A25,25,0,0,0,1038.48,24Z"/><circle class="cls-1" cx="31.02" cy="64.95" r="25"/><circle class="cls-1" cx="106.02" cy="64.95" r="25"/><circle class="cls-1" cx="181.02" cy="64.95" r="25"/><circle class="cls-1" cx="256.02" cy="64.95" r="25"/><circle class="cls-1" cx="331.02" cy="64.95" r="25"/><circle class="cls-1" cx="406.02" cy="64.95" r="25"/><circle class="cls-1" cx="481.02" cy="64.95" r="25"/><circle class="cls-1" cx="556.02" cy="64.95" r="25"/><circle class="cls-1" cx="631.02" cy="64.95" r="25"/><circle class="cls-1" cx="706.02" cy="64.95" r="25"/><circle class="cls-1" cx="781.02" cy="64.95" r="25"/><circle class="cls-1" cx="856.02" cy="64.95" r="25"/><circle class="cls-1" cx="931.02" cy="64.95" r="25"/><circle class="cls-1" cx="1006.02" cy="64.95" r="25"/><path class="cls-1" d="M0,154.05A25,25,0,0,0,18.52,129.9,25,25,0,0,0,0,105.76Z"/><circle class="cls-1" cx="68.52" cy="129.9" r="25"/><circle class="cls-1" cx="143.52" cy="129.9" r="25"/><circle class="cls-1" cx="218.52" cy="129.9" r="25"/><circle class="cls-1" cx="293.52" cy="129.9" r="25"/><circle class="cls-1" cx="368.52" cy="129.9" r="25"/><circle class="cls-1" cx="443.52" cy="129.9" r="25"/><circle class="cls-1" cx="518.52" cy="129.9" r="25"/><circle class="cls-1" cx="593.52" cy="129.9" r="25"/><circle class="cls-1" cx="668.52" cy="129.9" r="25"/><circle class="cls-1" cx="743.52" cy="129.9" r="25"/><circle class="cls-1" cx="818.52" cy="129.9" r="25"/><circle class="cls-1" cx="893.52" cy="129.9" r="25"/><circle class="cls-1" cx="968.52" cy="129.9" r="25"/><path class="cls-1" d="M1018.52,129.45a25,25,0,0,0,20,24.5V105A25,25,0,0,0,1018.52,129.45Z"/><circle class="cls-1" cx="31.02" cy="194.86" r="25"/><circle class="cls-1" cx="106.02" cy="194.86" r="25"/><circle class="cls-1" cx="181.02" cy="194.86" r="25"/><circle class="cls-1" cx="256.02" cy="194.86" r="25"/><circle class="cls-1" cx="331.02" cy="194.86" r="25"/><circle class="cls-1" cx="406.02" cy="194.86" r="25"/><circle class="cls-1" cx="481.02" cy="194.86" r="25"/><circle class="cls-1" cx="556.02" cy="194.86" r="25"/><circle class="cls-1" cx="631.02" cy="194.86" r="25"/><circle class="cls-1" cx="706.02" cy="194.86" r="25"/><circle class="cls-1" cx="781.02" cy="194.86" r="25"/><circle class="cls-1" cx="856.02" cy="194.86" r="25"/><circle class="cls-1" cx="931.02" cy="194.86" r="25"/><circle class="cls-1" cx="1006.02" cy="194.86" r="25"/><path class="cls-1" d="M0,284a25,25,0,0,0,18.52-24.14A25,25,0,0,0,0,235.66Z"/><circle class="cls-1" cx="68.52" cy="259.81" r="25"/><circle class="cls-1" cx="143.52" cy="259.81" r="25"/><circle class="cls-1" cx="218.52" cy="259.81" r="25"/><circle class="cls-1" cx="293.52" cy="259.81" r="25"/><circle class="cls-1" cx="368.52" cy="259.81" r="25"/><circle class="cls-1" cx="443.52" cy="259.81" r="25"/><circle class="cls-1" cx="518.52" cy="259.81" r="25"/><circle class="cls-1" cx="593.52" cy="259.81" r="25"/><circle class="cls-1" cx="668.52" cy="259.81" r="25"/><circle class="cls-1" cx="743.52" cy="259.81" r="25"/><circle class="cls-1" cx="818.52" cy="259.81" r="25"/><circle class="cls-1" cx="893.52" cy="259.81" r="25"/><circle class="cls-1" cx="968.52" cy="259.81" r="25"/><path class="cls-1" d="M1018.52,259.36a25,25,0,0,0,20,24.49v-49A25,25,0,0,0,1018.52,259.36Z"/><circle class="cls-1" cx="31.02" cy="324.76" r="25"/><circle class="cls-1" cx="106.02" cy="324.76" r="25"/><circle class="cls-1" cx="181.02" cy="324.76" r="25"/><circle class="cls-1" cx="256.02" cy="324.76" r="25"/><circle class="cls-1" cx="331.02" cy="324.76" r="25"/><circle class="cls-1" cx="406.02" cy="324.76" r="25"/><circle class="cls-1" cx="481.02" cy="324.76" r="25"/><circle class="cls-1" cx="556.02" cy="324.76" r="25"/><circle class="cls-1" cx="631.02" cy="324.76" r="25"/><circle class="cls-1" cx="706.02" cy="324.76" r="25"/><circle class="cls-1" cx="781.02" cy="324.76" r="25"/><circle class="cls-1" cx="856.02" cy="324.76" r="25"/><circle class="cls-1" cx="931.02" cy="324.76" r="25"/><circle class="cls-1" cx="1006.02" cy="324.76" r="25"/><path class="cls-1" d="M18.52,389.71A25,25,0,0,0,0,365.56v48.3A25,25,0,0,0,18.52,389.71Z"/><circle class="cls-1" cx="68.52" cy="389.71" r="25"/><circle class="cls-1" cx="143.52" cy="389.71" r="25"/><circle class="cls-1" cx="218.52" cy="389.71" r="25"/><circle class="cls-1" cx="293.52" cy="389.71" r="25"/><circle class="cls-1" cx="368.52" cy="389.71" r="25"/><circle class="cls-1" cx="443.52" cy="389.71" r="25"/><circle class="cls-1" cx="518.52" cy="389.71" r="25"/><circle class="cls-1" cx="593.52" cy="389.71" r="25"/><circle class="cls-1" cx="668.52" cy="389.71" r="25"/><circle class="cls-1" cx="743.52" cy="389.71" r="25"/><circle class="cls-1" cx="818.52" cy="389.71" r="25"/><circle class="cls-1" cx="893.52" cy="389.71" r="25"/><circle class="cls-1" cx="968.52" cy="389.71" r="25"/><path class="cls-1" d="M1018.52,389.26a25,25,0,0,0,20,24.49v-49A25,25,0,0,0,1018.52,389.26Z"/><circle class="cls-1" cx="31.02" cy="454.66" r="25"/><circle class="cls-1" cx="106.02" cy="454.66" r="25"/><circle class="cls-1" cx="181.02" cy="454.66" r="25"/><circle class="cls-1" cx="256.02" cy="454.66" r="25"/><circle class="cls-1" cx="331.02" cy="454.66" r="25"/><circle class="cls-1" cx="406.02" cy="454.66" r="25"/><circle class="cls-1" cx="481.02" cy="454.66" r="25"/><circle class="cls-1" cx="556.02" cy="454.66" r="25"/><circle class="cls-1" cx="631.02" cy="454.66" r="25"/><circle class="cls-1" cx="706.02" cy="454.66" r="25"/><circle class="cls-1" cx="781.02" cy="454.66" r="25"/><circle class="cls-1" cx="856.02" cy="454.66" r="25"/><circle class="cls-1" cx="931.02" cy="454.66" r="25"/><circle class="cls-1" cx="1006.02" cy="454.66" r="25"/><path class="cls-1" d="M18.52,519.62A25,25,0,0,0,0,495.47v48.29A25,25,0,0,0,18.52,519.62Z"/><circle class="cls-1" cx="68.52" cy="519.62" r="25"/><circle class="cls-1" cx="143.52" cy="519.62" r="25"/><circle class="cls-1" cx="218.52" cy="519.62" r="25"/><circle class="cls-1" cx="293.52" cy="519.62" r="25"/><circle class="cls-1" cx="368.52" cy="519.62" r="25"/><circle class="cls-1" cx="443.52" cy="519.62" r="25"/><circle class="cls-1" cx="518.52" cy="519.62" r="25"/><circle class="cls-1" cx="593.52" cy="519.62" r="25"/><circle class="cls-1" cx="668.52" cy="519.62" r="25"/><circle class="cls-1" cx="743.52" cy="519.62" r="25"/><circle class="cls-1" cx="818.52" cy="519.62" r="25"/><circle class="cls-1" cx="893.52" cy="519.62" r="25"/><circle class="cls-1" cx="968.52" cy="519.62" r="25"/><path class="cls-1" d="M1038.48,494.67a25,25,0,0,0,0,49Z"/><circle class="cls-1" cx="31.02" cy="584.57" r="25"/><circle class="cls-1" cx="106.02" cy="584.57" r="25"/><circle class="cls-1" cx="181.02" cy="584.57" r="25"/><circle class="cls-1" cx="256.02" cy="584.57" r="25"/><circle class="cls-1" cx="331.02" cy="584.57" r="25"/><circle class="cls-1" cx="406.02" cy="584.57" r="25"/><circle class="cls-1" cx="481.02" cy="584.57" r="25"/><circle class="cls-1" cx="556.02" cy="584.57" r="25"/><circle class="cls-1" cx="631.02" cy="584.57" r="25"/><circle class="cls-1" cx="706.02" cy="584.57" r="25"/><circle class="cls-1" cx="781.02" cy="584.57" r="25"/><circle class="cls-1" cx="856.02" cy="584.57" r="25"/><circle class="cls-1" cx="931.02" cy="584.57" r="25"/><circle class="cls-1" cx="1006.02" cy="584.57" r="25"/><path class="cls-1" d="M18.52,649.52A25,25,0,0,0,0,625.37v48.3A25,25,0,0,0,18.52,649.52Z"/><circle class="cls-1" cx="68.52" cy="649.52" r="25"/><circle class="cls-1" cx="143.52" cy="649.52" r="25"/><circle class="cls-1" cx="218.52" cy="649.52" r="25"/><circle class="cls-1" cx="293.52" cy="649.52" r="25"/><circle class="cls-1" cx="368.52" cy="649.52" r="25"/><circle class="cls-1" cx="443.52" cy="649.52" r="25"/><circle class="cls-1" cx="518.52" cy="649.52" r="25"/><circle class="cls-1" cx="593.52" cy="649.52" r="25"/><circle class="cls-1" cx="668.52" cy="649.52" r="25"/><circle class="cls-1" cx="743.52" cy="649.52" r="25"/><circle class="cls-1" cx="818.52" cy="649.52" r="25"/><circle class="cls-1" cx="893.52" cy="649.52" r="25"/><circle class="cls-1" cx="968.52" cy="649.52" r="25"/><path class="cls-1" d="M1038.48,624.58a25,25,0,0,0,0,49Z"/><circle class="cls-1" cx="31.02" cy="714.47" r="25"/><circle class="cls-1" cx="106.02" cy="714.47" r="25"/><circle class="cls-1" cx="181.02" cy="714.47" r="25"/><circle class="cls-1" cx="256.02" cy="714.47" r="25"/><circle class="cls-1" cx="331.02" cy="714.47" r="25"/><circle class="cls-1" cx="406.02" cy="714.47" r="25"/><circle class="cls-1" cx="481.02" cy="714.47" r="25"/><circle class="cls-1" cx="556.02" cy="714.47" r="25"/><circle class="cls-1" cx="631.02" cy="714.47" r="25"/><circle class="cls-1" cx="706.02" cy="714.47" r="25"/><circle class="cls-1" cx="781.02" cy="714.47" r="25"/><circle class="cls-1" cx="856.02" cy="714.47" r="25"/><circle class="cls-1" cx="931.02" cy="714.47" r="25"/><circle class="cls-1" cx="1006.02" cy="714.47" r="25"/><path class="cls-1" d="M0,755.28v23.58H18.51A25,25,0,0,0,0,755.28Z"/><path class="cls-1" d="M68.52,754.42a25,25,0,0,0-25,24.44h50A25,25,0,0,0,68.52,754.42Z"/><path class="cls-1" d="M143.52,754.42a25,25,0,0,0-25,24.44h50A25,25,0,0,0,143.52,754.42Z"/><path class="cls-1" d="M218.52,754.42a25,25,0,0,0-25,24.44h50A25,25,0,0,0,218.52,754.42Z"/><path class="cls-1" d="M293.52,754.42a25,25,0,0,0-25,24.44h50A25,25,0,0,0,293.52,754.42Z"/><path class="cls-1" d="M368.52,754.42a25,25,0,0,0-25,24.44h50A25,25,0,0,0,368.52,754.42Z"/><path class="cls-1" d="M443.52,754.42a25,25,0,0,0-25,24.44h50A25,25,0,0,0,443.52,754.42Z"/><path class="cls-1" d="M518.52,754.42a25,25,0,0,0-25,24.44h50A25,25,0,0,0,518.52,754.42Z"/><path class="cls-1" d="M593.52,754.42a25,25,0,0,0-25,24.44h50A25,25,0,0,0,593.52,754.42Z"/><path class="cls-1" d="M668.52,754.42a25,25,0,0,0-25,24.44h50A25,25,0,0,0,668.52,754.42Z"/><path class="cls-1" d="M743.52,754.42a25,25,0,0,0-25,24.44h50A25,25,0,0,0,743.52,754.42Z"/><path class="cls-1" d="M818.52,754.42a25,25,0,0,0-25,24.44h50A25,25,0,0,0,818.52,754.42Z"/><path class="cls-1" d="M893.52,754.42a25,25,0,0,0-25,24.44h50A25,25,0,0,0,893.52,754.42Z"/><path class="cls-1" d="M968.52,754.42a25,25,0,0,0-25,24.44h50A25,25,0,0,0,968.52,754.42Z"/><path class="cls-1" d="M1038.48,754.48a25,25,0,0,0-20,24.38h20Z"/></g></g></svg>