<svg xmlns="http://www.w3.org/2000/svg" viewBox="0 0 1038.48 778.86"><defs><style>.cls-1{fill:none;}.cls-2{fill:lime;}</style></defs><title>Element 24</title><g id="Ebene_2" data-name="Ebene 2"><g id="Ebene_1-2" data-name="Ebene 1"><circle class="cls-1" cx="706.02" cy="454.66" r="25"/><circle class="cls-1" cx="781.02" cy="324.76" r="25"/><circle class="cls-1" cx="743.52" cy="389.71" r="25"/><circle class="cls-1" cx="781.02" cy="454.66" r="25"/><circle class="cls-1" cx="818.52" cy="389.71" r="25"/><circle class="cls-1" cx="706.02" cy="324.76" r="25"/><circle class="cls-1" cx="631.02" cy="454.66" r="25"/><circle class="cls-1" cx="631.02" cy="324.76" r="25"/><circle class="cls-1" cx="668.52" cy="389.71" r="25"/><circle class="cls-1" cx="31.02" cy="194.86" r="25"/><circle class="cls-1" cx="31.02" cy="64.95" r="25"/><circle class="cls-1" cx="593.52" cy="389.71" r="25"/><circle class="cls-1" cx="781.02" cy="714.47" r="25"/><circle class="cls-1" cx="856.02" cy="324.76" r="25"/><circle class="cls-1" cx="931.02" cy="324.76" r="25"/><circle class="cls-1" cx="893.52" cy="389.71" r="25"/><circle class="cls-1" cx="856.02" cy="454.66" r="25"/><circle class="cls-1" cx="931.02" cy="454.66" r="25"/><circle class="cls-1" cx="256.02" cy="324.76" r="25"/><circle class="cls-1" cx="293.52" cy="389.71" r="25"/><circle class="cls-1" cx="256.02" cy="454.66" r="25"/><circle class="cls-1" cx="331.02" cy="324.76" r="25"/><circle class="cls-1" cx="143.52" cy="389.71" r="25"/><circle class="cls-1" cx="331.02" cy="454.66" r="25"/><circle class="cls-1" cx="181.02" cy="324.76" r="25"/><circle class="cls-1" cx="218.52" cy="389.71" r="25"/><circle class="cls-1" cx="181.02" cy="454.66" r="25"/><circle class="cls-1" cx="556.02" cy="454.66" r="25"/><circle class="cls-1" cx="481.02" cy="324.76" r="25"/><circle class="cls-1" cx="518.52" cy="389.71" r="25"/><circle class="cls-1" cx="481.02" cy="454.66" r="25"/><circle class="cls-1" cx="556.02" cy="324.76" r="25"/><circle class="cls-1" cx="406.02" cy="324.76" r="25"/><circle class="cls-1" cx="368.52" cy="389.71" r="25"/><circle class="cls-1" cx="443.52" cy="389.71" r="25"/><circle class="cls-1" cx="406.02" cy="454.66" r="25"/><circle class="cls-1" cx="1006.02" cy="584.57" r="25"/><circle class="cls-1" cx="518.52" cy="129.9" r="25"/><circle class="cls-1" cx="593.52" cy="129.9" r="25"/><circle class="cls-1" cx="556.02" cy="64.95" r="25"/><circle class="cls-1" cx="443.52" cy="129.9" r="25"/><circle class="cls-1" cx="481.02" cy="64.95" r="25"/><circle class="cls-1" cx="743.52" cy="129.9" r="25"/><circle class="cls-1" cx="631.02" cy="64.95" r="25"/><circle class="cls-1" cx="706.02" cy="64.95" r="25"/><circle class="cls-1" cx="818.52" cy="649.52" r="25"/><circle class="cls-1" cx="743.52" cy="649.52" r="25"/><circle class="cls-1" cx="406.02" cy="64.95" r="25"/><circle class="cls-1" cx="256.02" cy="64.95" r="25"/><circle class="cls-1" cx="218.52" cy="129.9" r="25"/><circle class="cls-1" cx="781.02" cy="64.95" r="25"/><circle class="cls-1" cx="181.02" cy="64.95" r="25"/><circle class="cls-1" cx="368.52" cy="129.9" r="25"/><circle class="cls-1" cx="293.52" cy="129.9" r="25"/><circle class="cls-1" cx="331.02" cy="64.95" r="25"/><circle class="cls-1" cx="668.52" cy="129.9" r="25"/><circle class="cls-1" cx="931.02" cy="714.47" r="25"/><circle class="cls-1" cx="968.52" cy="649.52" r="25"/><circle class="cls-1" cx="1006.02" cy="714.47" r="25"/><circle class="cls-1" cx="143.52" cy="129.9" r="25"/><circle class="cls-1" cx="106.02" cy="64.95" r="25"/><circle class="cls-1" cx="893.52" cy="649.52" r="25"/><circle class="cls-1" cx="856.02" cy="714.47" r="25"/><circle class="cls-1" cx="68.52" cy="129.9" r="25"/><circle class="cls-1" cx="106.02" cy="454.66" r="25"/><circle class="cls-1" cx="931.02" cy="64.95" r="25"/><circle class="cls-1" cx="893.52" cy="129.9" r="25"/><circle class="cls-1" cx="818.52" cy="129.9" r="25"/><circle class="cls-1" cx="856.02" cy="64.95" r="25"/><circle class="cls-1" cx="968.52" cy="129.9" r="25"/><circle class="cls-1" cx="1006.02" cy="454.66" r="25"/><circle class="cls-1" cx="1006.02" cy="324.76" r="25"/><circle class="cls-1" cx="1006.02" cy="194.86" r="25"/><circle class="cls-1" cx="1006.02" cy="64.95" r="25"/><circle class="cls-1" cx="106.02" cy="324.76" r="25"/><circle class="cls-1" cx="631.02" cy="194.86" r="25"/><circle class="cls-1" cx="181.02" cy="194.86" r="25"/><circle class="cls-1" cx="256.02" cy="194.86" r="25"/><circle class="cls-1" cx="143.52" cy="259.81" r="25"/><circle class="cls-1" cx="31.02" cy="324.76" r="25"/><circle class="cls-1" cx="31.02" cy="454.66" r="25"/><circle class="cls-1" cx="293.52" cy="259.81" r="25"/><circle class="cls-1" cx="68.52" cy="259.81" r="25"/><circle class="cls-1" cx="31.02" cy="584.57" r="25"/><circle class="cls-1" cx="106.02" cy="194.86" r="25"/><circle class="cls-1" cx="481.02" cy="194.86" r="25"/><circle class="cls-1" cx="331.02" cy="194.86" r="25"/><circle class="cls-1" cx="518.52" cy="259.81" r="25"/><circle class="cls-1" cx="593.52" cy="259.81" r="25"/><circle class="cls-1" cx="556.02" cy="194.86" r="25"/><circle class="cls-1" cx="368.52" cy="259.81" r="25"/><circle class="cls-1" cx="406.02" cy="194.86" r="25"/><circle class="cls-1" cx="443.52" cy="259.81" r="25"/><circle class="cls-1" cx="218.52" cy="259.81" r="25"/><circle class="cls-1" cx="518.52" cy="649.52" r="25"/><circle class="cls-1" cx="481.02" cy="714.47" r="25"/><circle class="cls-1" cx="443.52" cy="649.52" r="25"/><circle class="cls-1" cx="556.02" cy="714.47" r="25"/><circle class="cls-1" cx="631.02" cy="714.47" r="25"/><circle class="cls-1" cx="593.52" cy="649.52" r="25"/><circle class="cls-1" cx="668.52" cy="649.52" r="25"/><circle class="cls-1" cx="706.02" cy="714.47" r="25"/><circle class="cls-1" cx="406.02" cy="714.47" r="25"/><circle class="cls-1" cx="368.52" cy="649.52" r="25"/><circle class="cls-1" cx="31.02" cy="714.47" r="25"/><circle class="cls-1" cx="181.02" cy="714.47" r="25"/><circle class="cls-1" cx="106.02" cy="714.47" r="25"/><circle class="cls-1" cx="68.52" cy="649.52" r="25"/><circle class="cls-1" cx="218.52" cy="649.52" r="25"/><circle class="cls-1" cx="331.02" cy="714.47" r="25"/><circle class="cls-1" cx="256.02" cy="714.47" r="25"/><circle class="cls-1" cx="293.52" cy="649.52" r="25"/><circle class="cls-1" cx="143.52" cy="649.52" r="25"/><circle class="cls-1" cx="631.02" cy="584.57" r="25"/><circle class="cls-1" cx="556.02" cy="584.57" r="25"/><circle class="cls-1" cx="143.52" cy="519.62" r="25"/><circle class="cls-1" cx="856.02" cy="584.57" r="25"/><circle class="cls-1" cx="593.52" cy="519.62" r="25"/><circle class="cls-1" cx="781.02" cy="584.57" r="25"/><circle class="cls-1" cx="818.52" cy="519.62" r="25"/><circle class="cls-1" cx="743.52" cy="519.62" r="25"/><circle class="cls-1" cx="706.02" cy="584.57" r="25"/><circle class="cls-1" cx="668.52" cy="519.62" r="25"/><circle class="cls-1" cx="293.52" cy="519.62" r="25"/><circle class="cls-1" cx="668.52" cy="259.81" r="25"/><circle class="cls-1" cx="256.02" cy="584.57" r="25"/><circle class="cls-1" cx="481.02" cy="584.57" r="25"/><circle class="cls-1" cx="518.52" cy="519.62" r="25"/><circle class="cls-1" cx="443.52" cy="519.62" r="25"/><circle class="cls-1" cx="68.52" cy="389.71" r="25"/><circle class="cls-1" cx="181.02" cy="584.57" r="25"/><circle class="cls-1" cx="218.52" cy="519.62" r="25"/><circle class="cls-1" cx="931.02" cy="194.86" r="25"/><circle class="cls-1" cx="893.52" cy="259.81" r="25"/><circle class="cls-1" cx="818.52" cy="259.81" r="25"/><circle class="cls-1" cx="406.02" cy="584.57" r="25"/><circle class="cls-1" cx="856.02" cy="194.86" r="25"/><circle class="cls-1" cx="706.02" cy="194.86" r="25"/><circle class="cls-1" cx="781.02" cy="194.86" r="25"/><circle class="cls-1" cx="743.52" cy="259.81" r="25"/><circle class="cls-1" cx="968.52" cy="389.71" r="25"/><circle class="cls-1" cx="106.02" cy="584.57" r="25"/><circle class="cls-1" cx="331.02" cy="584.57" r="25"/><circle class="cls-1" cx="968.52" cy="519.62" r="25"/><circle class="cls-1" cx="931.02" cy="584.57" r="25"/><circle class="cls-1" cx="968.52" cy="259.81" r="25"/><circle class="cls-1" cx="368.52" cy="519.62" r="25"/><circle class="cls-1" cx="893.52" cy="519.62" r="25"/><circle class="cls-1" cx="68.52" cy="519.62" r="25"/><path class="cls-2" d="M0,24.15v81.61A25,25,0,0,1,18.52,129.9,25,25,0,0,1,0,154.05v81.61a25,25,0,0,1,18.52,24.15A25,25,0,0,1,0,284v81.61a25,25,0,0,1,18.52,24.15A25,25,0,0,1,0,413.86v81.61a25,25,0,0,1,18.52,24.15A25,25,0,0,1,0,543.76v81.61a25,25,0,0,1,18.52,24.15A25,25,0,0,1,0,673.67v81.61a25,25,0,0,1,18.51,23.58h25a25,25,0,0,1,50,0h25a25,25,0,0,1,50,0h25a25,25,0,0,1,50,0h25a25,25,0,0,1,50,0h25a25,25,0,0,1,50,0h25a25,25,0,0,1,50,0h25a25,25,0,0,1,50,0h25a25,25,0,0,1,50,0h25a25,25,0,0,1,50,0h25a25,25,0,0,1,50,0h25a25,25,0,0,1,50,0h25a25,25,0,0,1,50,0h25a25,25,0,0,1,50,0h25a25,25,0,0,1,20-24.38V673.56a25,25,0,0,1,0-49V543.66a25,25,0,0,1,0-49V413.75a25,25,0,0,1,0-49V283.85a25,25,0,0,1,0-49V154a25,25,0,0,1,0-49V24a25,25,0,0,1-20-24h-25a25,25,0,0,1-50,0h-25a25,25,0,0,1-50,0h-25a25,25,0,0,1-50,0h-25a25,25,0,0,1-50,0h-25a25,25,0,0,1-50,0h-25a25,25,0,0,1-50,0h-25a25,25,0,0,1-50,0h-25a25,25,0,0,1-50,0h-25a25,25,0,0,1-50,0h-25a25,25,0,0,1-50,0h-25a25,25,0,0,1-50,0h-25a25,25,0,1,1-50,0h-25a25,25,0,0,1-50,0h-25A25,25,0,0,1,0,24.15ZM6,194.86a25,25,0,1,1,25,25A25,25,0,0,1,6,194.86Zm900,129.9a25,25,0,1,1,25,25A25,25,0,0,1,906,324.76Zm50,129.9a25,25,0,1,1-25-25A25,25,0,0,1,956,454.66Zm-37.5-65a25,25,0,1,1-25-25A25,25,0,0,1,918.52,389.71Zm-37.5,65a25,25,0,1,1-25-25A25,25,0,0,1,881,454.66Zm-25-104.9a25,25,0,1,1,25-25A25,25,0,0,1,856,349.76Zm-12.5,39.95a25,25,0,1,1-25-25A25,25,0,0,1,843.52,389.71Zm-37.5,65a25,25,0,1,1-25-25A25,25,0,0,1,806,454.66Zm-25-104.9a25,25,0,1,1,25-25A25,25,0,0,1,781,349.76Zm-12.5,39.95a25,25,0,1,1-25-25A25,25,0,0,1,768.52,389.71Zm-37.5,65a25,25,0,1,1-25-25A25,25,0,0,1,731,454.66Zm-25-104.9a25,25,0,1,1,25-25A25,25,0,0,1,706,349.76Zm-12.5,39.95a25,25,0,1,1-25-25A25,25,0,0,1,693.52,389.71Zm-37.5,65a25,25,0,1,1-25-25A25,25,0,0,1,656,454.66Zm-25-104.9a25,25,0,1,1,25-25A25,25,0,0,1,631,349.76Zm-12.5,39.95a25,25,0,1,1-25-25A25,25,0,0,1,618.52,389.71Zm-37.5,65a25,25,0,1,1-25-25A25,25,0,0,1,581,454.66Zm-25-104.9a25,25,0,1,1,25-25A25,25,0,0,1,556,349.76Zm-12.5,39.95a25,25,0,1,1-25-25A25,25,0,0,1,543.52,389.71Zm-37.5,65a25,25,0,1,1-25-25A25,25,0,0,1,506,454.66Zm-25-104.9a25,25,0,1,1,25-25A25,25,0,0,1,481,349.76Zm-12.5,39.95a25,25,0,1,1-25-25A25,25,0,0,1,468.52,389.71Zm-37.5,65a25,25,0,1,1-25-25A25,25,0,0,1,431,454.66Zm-25-104.9a25,25,0,1,1,25-25A25,25,0,0,1,406,349.76Zm-12.5,39.95a25,25,0,1,1-25-25A25,25,0,0,1,393.52,389.71Zm-37.5,65a25,25,0,1,1-25-25A25,25,0,0,1,356,454.66Zm-25-104.9a25,25,0,1,1,25-25A25,25,0,0,1,331,349.76Zm-12.5,39.95a25,25,0,1,1-25-25A25,25,0,0,1,318.52,389.71Zm-37.5,65a25,25,0,1,1-25-25A25,25,0,0,1,281,454.66Zm-25-104.9a25,25,0,1,1,25-25A25,25,0,0,1,256,349.76Zm-12.5,39.95a25,25,0,1,1-25-25A25,25,0,0,1,243.52,389.71Zm-37.5,65a25,25,0,1,1-25-25A25,25,0,0,1,206,454.66Zm-25-104.9a25,25,0,1,1,25-25A25,25,0,0,1,181,349.76Zm-12.5,39.95a25,25,0,1,1-25-25A25,25,0,0,1,168.52,389.71Zm-37.5,65a25,25,0,1,1-25-25A25,25,0,0,1,131,454.66Zm-25-104.9a25,25,0,1,1,25-25A25,25,0,0,1,106,349.76Zm-12.5,39.95a25,25,0,1,1-25-25A25,25,0,0,1,93.52,389.71Zm0,129.91a25,25,0,1,1-25-25A25,25,0,0,1,93.52,519.62Zm12.5,40a25,25,0,1,1-25,25A25,25,0,0,1,106,559.57Zm12.5-40a25,25,0,1,1,25,25A25,25,0,0,1,118.52,519.62Zm62.5,40a25,25,0,1,1-25,25A25,25,0,0,1,181,559.57Zm12.5-40a25,25,0,1,1,25,25A25,25,0,0,1,193.52,519.62Zm62.5,40a25,25,0,1,1-25,25A25,25,0,0,1,256,559.57Zm12.5-40a25,25,0,1,1,25,25A25,25,0,0,1,268.52,519.62Zm62.5,40a25,25,0,1,1-25,25A25,25,0,0,1,331,559.57Zm12.5-40a25,25,0,1,1,25,25A25,25,0,0,1,343.52,519.62Zm62.5,40a25,25,0,1,1-25,25A25,25,0,0,1,406,559.57Zm12.5-40a25,25,0,1,1,25,25A25,25,0,0,1,418.52,519.62Zm62.5,40a25,25,0,1,1-25,25A25,25,0,0,1,481,559.57Zm12.5-40a25,25,0,1,1,25,25A25,25,0,0,1,493.52,519.62Zm62.5,40a25,25,0,1,1-25,25A25,25,0,0,1,556,559.57Zm12.5-40a25,25,0,1,1,25,25A25,25,0,0,1,568.52,519.62Zm62.5,40a25,25,0,1,1-25,25A25,25,0,0,1,631,559.57Zm12.5-40a25,25,0,1,1,25,25A25,25,0,0,1,643.52,519.62Zm62.5,40a25,25,0,1,1-25,25A25,25,0,0,1,706,559.57Zm12.5-40a25,25,0,1,1,25,25A25,25,0,0,1,718.52,519.62Zm62.5,40a25,25,0,1,1-25,25A25,25,0,0,1,781,559.57Zm12.5-40a25,25,0,1,1,25,25A25,25,0,0,1,793.52,519.62Zm62.5,40a25,25,0,1,1-25,25A25,25,0,0,1,856,559.57Zm12.5-40a25,25,0,1,1,25,25A25,25,0,0,1,868.52,519.62Zm62.5,40a25,25,0,1,1-25,25A25,25,0,0,1,931,559.57Zm12.5-40a25,25,0,1,1,25,25A25,25,0,0,1,943.52,519.62Zm0-129.91a25,25,0,1,1,25,25A25,25,0,0,1,943.52,389.71Zm0-129.9a25,25,0,1,1,25,25A25,25,0,0,1,943.52,259.81ZM931,219.86a25,25,0,1,1,25-25A25,25,0,0,1,931,219.86Zm-12.5,39.95a25,25,0,1,1-25-25A25,25,0,0,1,918.52,259.81ZM856,219.86a25,25,0,1,1,25-25A25,25,0,0,1,856,219.86Zm-12.5,39.95a25,25,0,1,1-25-25A25,25,0,0,1,843.52,259.81ZM781,219.86a25,25,0,1,1,25-25A25,25,0,0,1,781,219.86Zm-12.5,39.95a25,25,0,1,1-25-25A25,25,0,0,1,768.52,259.81ZM706,219.86a25,25,0,1,1,25-25A25,25,0,0,1,706,219.86Zm-12.5,39.95a25,25,0,1,1-25-25A25,25,0,0,1,693.52,259.81ZM631,219.86a25,25,0,1,1,25-25A25,25,0,0,1,631,219.86Zm-12.5,39.95a25,25,0,1,1-25-25A25,25,0,0,1,618.52,259.81ZM556,219.86a25,25,0,1,1,25-25A25,25,0,0,1,556,219.86Zm-12.5,39.95a25,25,0,1,1-25-25A25,25,0,0,1,543.52,259.81ZM481,219.86a25,25,0,1,1,25-25A25,25,0,0,1,481,219.86Zm-12.5,39.95a25,25,0,1,1-25-25A25,25,0,0,1,468.52,259.81ZM406,219.86a25,25,0,1,1,25-25A25,25,0,0,1,406,219.86Zm-12.5,39.95a25,25,0,1,1-25-25A25,25,0,0,1,393.52,259.81ZM331,219.86a25,25,0,1,1,25-25A25,25,0,0,1,331,219.86Zm-12.5,39.95a25,25,0,1,1-25-25A25,25,0,0,1,318.52,259.81ZM256,219.86a25,25,0,1,1,25-25A25,25,0,0,1,256,219.86Zm-12.5,39.95a25,25,0,1,1-25-25A25,25,0,0,1,243.52,259.81ZM181,219.86a25,25,0,1,1,25-25A25,25,0,0,1,181,219.86Zm-12.5,39.95a25,25,0,1,1-25-25A25,25,0,0,1,168.52,259.81ZM106,219.86a25,25,0,1,1,25-25A25,25,0,0,1,106,219.86Zm-12.5,39.95a25,25,0,1,1-25-25A25,25,0,0,1,93.52,259.81ZM6,324.76a25,25,0,1,1,25,25A25,25,0,0,1,6,324.76Zm0,129.9a25,25,0,1,1,25,25A25,25,0,0,1,6,454.66ZM6,584.57a25,25,0,1,1,25,25A25,25,0,0,1,6,584.57Zm25,154.9a25,25,0,1,1,25-25A25,25,0,0,1,31,739.47Zm12.5-90a25,25,0,1,1,25,25A25,25,0,0,1,43.52,649.52Zm62.5,90a25,25,0,1,1,25-25A25,25,0,0,1,106,739.47Zm12.5-90a25,25,0,1,1,25,25A25,25,0,0,1,118.52,649.52Zm62.5,90a25,25,0,1,1,25-25A25,25,0,0,1,181,739.47Zm12.5-90a25,25,0,1,1,25,25A25,25,0,0,1,193.52,649.52Zm62.5,90a25,25,0,1,1,25-25A25,25,0,0,1,256,739.47Zm12.5-90a25,25,0,1,1,25,25A25,25,0,0,1,268.52,649.52Zm62.5,90a25,25,0,1,1,25-25A25,25,0,0,1,331,739.47Zm12.5-90a25,25,0,1,1,25,25A25,25,0,0,1,343.52,649.52Zm62.5,90a25,25,0,1,1,25-25A25,25,0,0,1,406,739.47Zm12.5-90a25,25,0,1,1,25,25A25,25,0,0,1,418.52,649.52Zm62.5,90a25,25,0,1,1,25-25A25,25,0,0,1,481,739.47Zm12.5-90a25,25,0,1,1,25,25A25,25,0,0,1,493.52,649.52Zm62.5,90a25,25,0,1,1,25-25A25,25,0,0,1,556,739.47Zm12.5-90a25,25,0,1,1,25,25A25,25,0,0,1,568.52,649.52Zm62.5,90a25,25,0,1,1,25-25A25,25,0,0,1,631,739.47Zm12.5-90a25,25,0,1,1,25,25A25,25,0,0,1,643.52,649.52Zm62.5,90a25,25,0,1,1,25-25A25,25,0,0,1,706,739.47Zm12.5-90a25,25,0,1,1,25,25A25,25,0,0,1,718.52,649.52Zm62.5,90a25,25,0,1,1,25-25A25,25,0,0,1,781,739.47Zm12.5-90a25,25,0,1,1,25,25A25,25,0,0,1,793.52,649.52Zm62.5,90a25,25,0,1,1,25-25A25,25,0,0,1,856,739.47Zm12.5-90a25,25,0,1,1,25,25A25,25,0,0,1,868.52,649.52Zm62.5,90a25,25,0,1,1,25-25A25,25,0,0,1,931,739.47Zm12.5-90a25,25,0,1,1,25,25A25,25,0,0,1,943.52,649.52Zm87.5,65a25,25,0,1,1-25-25A25,25,0,0,1,1031,714.47Zm0-129.9a25,25,0,1,1-25-25A25,25,0,0,1,1031,584.57Zm0-129.91a25,25,0,1,1-25-25A25,25,0,0,1,1031,454.66Zm0-129.9a25,25,0,1,1-25-25A25,25,0,0,1,1031,324.76Zm0-129.9a25,25,0,1,1-25-25A25,25,0,0,1,1031,194.86ZM1006,40a25,25,0,1,1-25,25A25,25,0,0,1,1006,40Zm-12.5,90a25,25,0,1,1-25-25A25,25,0,0,1,993.52,129.9ZM931,40a25,25,0,1,1-25,25A25,25,0,0,1,931,40Zm-12.5,90a25,25,0,1,1-25-25A25,25,0,0,1,918.52,129.9ZM856,40a25,25,0,1,1-25,25A25,25,0,0,1,856,40Zm-12.5,90a25,25,0,1,1-25-25A25,25,0,0,1,843.52,129.9ZM781,40a25,25,0,1,1-25,25A25,25,0,0,1,781,40Zm-12.5,90a25,25,0,1,1-25-25A25,25,0,0,1,768.52,129.9ZM706,40a25,25,0,1,1-25,25A25,25,0,0,1,706,40Zm-12.5,90a25,25,0,1,1-25-25A25,25,0,0,1,693.52,129.9ZM631,40a25,25,0,1,1-25,25A25,25,0,0,1,631,40Zm-12.5,90a25,25,0,1,1-25-25A25,25,0,0,1,618.52,129.9ZM556,40a25,25,0,1,1-25,25A25,25,0,0,1,556,40Zm-12.5,90a25,25,0,1,1-25-25A25,25,0,0,1,543.52,129.9ZM481,40a25,25,0,1,1-25,25A25,25,0,0,1,481,40Zm-12.5,90a25,25,0,1,1-25-25A25,25,0,0,1,468.52,129.9ZM406,40a25,25,0,1,1-25,25A25,25,0,0,1,406,40Zm-12.5,90a25,25,0,1,1-25-25A25,25,0,0,1,393.52,129.9ZM331,40a25,25,0,1,1-25,25A25,25,0,0,1,331,40Zm-12.5,90a25,25,0,1,1-25-25A25,25,0,0,1,318.52,129.9ZM256,40a25,25,0,1,1-25,25A25,25,0,0,1,256,40Zm-12.5,90a25,25,0,1,1-25-25A25,25,0,0,1,243.52,129.9ZM181,40a25,25,0,1,1-25,25A25,25,0,0,1,181,40Zm-12.5,90a25,25,0,1,1-25-25A25,25,0,0,1,168.52,129.9ZM106,40A25,25,0,1,1,81,65,25,25,0,0,1,106,40Zm-12.5,90a25,25,0,1,1-25-25A25,25,0,0,1,93.52,129.9ZM56,65A25,25,0,1,1,31,40,25,25,0,0,1,56,65Z"/></g></g></svg>