<svg xmlns="http://www.w3.org/2000/svg" viewBox="0 0 1038.48 778.86"><defs><style>.cls-1{fill:none;}.cls-2{fill:lime;}</style></defs><title>Element 23</title><g id="Ebene_2" data-name="Ebene 2"><g id="Ebene_1-2" data-name="Ebene 1"><circle class="cls-1" cx="218.52" cy="519.62" r="22.5"/><circle class="cls-1" cx="256.02" cy="454.66" r="22.5"/><circle class="cls-1" cx="181.02" cy="454.66" r="22.5"/><circle class="cls-1" cx="668.52" cy="649.52" r="22.5"/><circle class="cls-1" cx="406.02" cy="64.95" r="22.5"/><circle class="cls-1" cx="631.02" cy="584.57" r="22.5"/><circle class="cls-1" cx="443.52" cy="519.62" r="22.5"/><circle class="cls-1" cx="481.02" cy="454.66" r="22.5"/><circle class="cls-1" cx="406.02" cy="454.66" r="22.5"/><circle class="cls-1" cx="293.52" cy="519.62" r="22.5"/><circle class="cls-1" cx="331.02" cy="64.95" r="22.5"/><circle class="cls-1" cx="368.52" cy="519.62" r="22.5"/><circle class="cls-1" cx="368.52" cy="129.9" r="22.5"/><circle class="cls-1" cx="631.02" cy="714.47" r="22.5"/><circle class="cls-1" cx="331.02" cy="454.66" r="22.5"/><circle class="cls-1" cx="893.52" cy="389.71" r="22.5"/><circle class="cls-1" cx="743.52" cy="649.52" r="22.5"/><circle class="cls-1" cx="518.52" cy="519.62" r="22.5"/><circle class="cls-1" cx="856.02" cy="324.76" r="22.5"/><circle class="cls-1" cx="968.52" cy="389.71" r="22.5"/><circle class="cls-1" cx="518.52" cy="129.9" r="22.5"/><circle class="cls-1" cx="931.02" cy="324.76" r="22.5"/><circle class="cls-1" cx="743.52" cy="389.71" r="22.5"/><circle class="cls-1" cx="556.02" cy="64.95" r="22.5"/><circle class="cls-1" cx="781.02" cy="324.76" r="22.5"/><circle class="cls-1" cx="818.52" cy="389.71" r="22.5"/><circle class="cls-1" cx="706.02" cy="714.47" r="22.5"/><circle class="cls-1" cx="68.52" cy="649.52" r="22.5"/><circle class="cls-1" cx="143.52" cy="519.62" r="22.5"/><circle class="cls-1" cx="68.52" cy="519.62" r="22.5"/><circle class="cls-1" cx="106.02" cy="454.66" r="22.5"/><circle class="cls-1" cx="706.02" cy="584.57" r="22.5"/><circle class="cls-1" cx="1006.02" cy="324.76" r="22.5"/><circle class="cls-1" cx="481.02" cy="64.95" r="22.5"/><circle class="cls-1" cx="106.02" cy="714.47" r="22.5"/><circle class="cls-1" cx="443.52" cy="129.9" r="22.5"/><circle class="cls-1" cx="406.02" cy="584.57" r="22.5"/><circle class="cls-1" cx="181.02" cy="584.57" r="22.5"/><circle class="cls-1" cx="181.02" cy="714.47" r="22.5"/><circle class="cls-1" cx="106.02" cy="64.95" r="22.5"/><circle class="cls-1" cx="218.52" cy="649.52" r="22.5"/><circle class="cls-1" cx="481.02" cy="584.57" r="22.5"/><circle class="cls-1" cx="256.02" cy="584.57" r="22.5"/><circle class="cls-1" cx="1006.02" cy="454.66" r="22.5"/><circle class="cls-1" cx="1006.02" cy="714.47" r="22.5"/><circle class="cls-1" cx="1006.02" cy="584.57" r="22.5"/><circle class="cls-1" cx="143.52" cy="129.9" r="22.5"/><circle class="cls-1" cx="368.52" cy="649.52" r="22.5"/><circle class="cls-1" cx="331.02" cy="714.47" r="22.5"/><circle class="cls-1" cx="706.02" cy="324.76" r="22.5"/><circle class="cls-1" cx="68.52" cy="129.9" r="22.5"/><circle class="cls-1" cx="406.02" cy="714.47" r="22.5"/><circle class="cls-1" cx="256.02" cy="714.47" r="22.5"/><circle class="cls-1" cx="331.02" cy="584.57" r="22.5"/><circle class="cls-1" cx="293.52" cy="649.52" r="22.5"/><circle class="cls-1" cx="31.02" cy="64.95" r="22.5"/><circle class="cls-1" cx="556.02" cy="454.66" r="22.5"/><circle class="cls-1" cx="556.02" cy="714.47" r="22.5"/><circle class="cls-1" cx="668.52" cy="519.62" r="22.5"/><circle class="cls-1" cx="706.02" cy="454.66" r="22.5"/><circle class="cls-1" cx="256.02" cy="64.95" r="22.5"/><circle class="cls-1" cx="743.52" cy="519.62" r="22.5"/><circle class="cls-1" cx="293.52" cy="129.9" r="22.5"/><circle class="cls-1" cx="218.52" cy="129.9" r="22.5"/><circle class="cls-1" cx="593.52" cy="649.52" r="22.5"/><circle class="cls-1" cx="631.02" cy="454.66" r="22.5"/><circle class="cls-1" cx="593.52" cy="519.62" r="22.5"/><circle class="cls-1" cx="856.02" cy="454.66" r="22.5"/><circle class="cls-1" cx="781.02" cy="454.66" r="22.5"/><circle class="cls-1" cx="931.02" cy="454.66" r="22.5"/><circle class="cls-1" cx="893.52" cy="519.62" r="22.5"/><circle class="cls-1" cx="481.02" cy="714.47" r="22.5"/><circle class="cls-1" cx="181.02" cy="64.95" r="22.5"/><circle class="cls-1" cx="818.52" cy="519.62" r="22.5"/><circle class="cls-1" cx="968.52" cy="519.62" r="22.5"/><circle class="cls-1" cx="556.02" cy="584.57" r="22.5"/><circle class="cls-1" cx="518.52" cy="649.52" r="22.5"/><circle class="cls-1" cx="143.52" cy="259.81" r="22.5"/><circle class="cls-1" cx="331.02" cy="194.86" r="22.5"/><circle class="cls-1" cx="406.02" cy="194.86" r="22.5"/><circle class="cls-1" cx="968.52" cy="129.9" r="22.5"/><circle class="cls-1" cx="518.52" cy="259.81" r="22.5"/><circle class="cls-1" cx="818.52" cy="129.9" r="22.5"/><circle class="cls-1" cx="893.52" cy="259.81" r="22.5"/><circle class="cls-1" cx="931.02" cy="194.86" r="22.5"/><circle class="cls-1" cx="968.52" cy="649.52" r="22.5"/><circle class="cls-1" cx="968.52" cy="259.81" r="22.5"/><circle class="cls-1" cx="1006.02" cy="194.86" r="22.5"/><circle class="cls-1" cx="106.02" cy="584.57" r="22.5"/><circle class="cls-1" cx="31.02" cy="324.76" r="22.5"/><circle class="cls-1" cx="31.02" cy="454.66" r="22.5"/><circle class="cls-1" cx="856.02" cy="714.47" r="22.5"/><circle class="cls-1" cx="743.52" cy="129.9" r="22.5"/><circle class="cls-1" cx="31.02" cy="714.47" r="22.5"/><circle class="cls-1" cx="781.02" cy="64.95" r="22.5"/><circle class="cls-1" cx="31.02" cy="584.57" r="22.5"/><circle class="cls-1" cx="931.02" cy="714.47" r="22.5"/><circle class="cls-1" cx="631.02" cy="194.86" r="22.5"/><circle class="cls-1" cx="593.52" cy="259.81" r="22.5"/><circle class="cls-1" cx="668.52" cy="259.81" r="22.5"/><circle class="cls-1" cx="481.02" cy="194.86" r="22.5"/><circle class="cls-1" cx="893.52" cy="649.52" r="22.5"/><circle class="cls-1" cx="931.02" cy="584.57" r="22.5"/><circle class="cls-1" cx="931.02" cy="64.95" r="22.5"/><circle class="cls-1" cx="556.02" cy="194.86" r="22.5"/><circle class="cls-1" cx="443.52" cy="259.81" r="22.5"/><circle class="cls-1" cx="893.52" cy="129.9" r="22.5"/><circle class="cls-1" cx="856.02" cy="194.86" r="22.5"/><circle class="cls-1" cx="818.52" cy="259.81" r="22.5"/><circle class="cls-1" cx="856.02" cy="64.95" r="22.5"/><circle class="cls-1" cx="781.02" cy="194.86" r="22.5"/><circle class="cls-1" cx="706.02" cy="194.86" r="22.5"/><circle class="cls-1" cx="743.52" cy="259.81" r="22.5"/><circle class="cls-1" cx="68.52" cy="389.71" r="22.5"/><circle class="cls-1" cx="368.52" cy="259.81" r="22.5"/><circle class="cls-1" cx="481.02" cy="324.76" r="22.5"/><circle class="cls-1" cx="443.52" cy="389.71" r="22.5"/><circle class="cls-1" cx="818.52" cy="649.52" r="22.5"/><circle class="cls-1" cx="518.52" cy="389.71" r="22.5"/><circle class="cls-1" cx="31.02" cy="194.86" r="22.5"/><circle class="cls-1" cx="181.02" cy="194.86" r="22.5"/><circle class="cls-1" cx="781.02" cy="714.47" r="22.5"/><circle class="cls-1" cx="443.52" cy="649.52" r="22.5"/><circle class="cls-1" cx="406.02" cy="324.76" r="22.5"/><circle class="cls-1" cx="631.02" cy="64.95" r="22.5"/><circle class="cls-1" cx="593.52" cy="129.9" r="22.5"/><circle class="cls-1" cx="631.02" cy="324.76" r="22.5"/><circle class="cls-1" cx="668.52" cy="389.71" r="22.5"/><circle class="cls-1" cx="781.02" cy="584.57" r="22.5"/><circle class="cls-1" cx="556.02" cy="324.76" r="22.5"/><circle class="cls-1" cx="106.02" cy="194.86" r="22.5"/><circle class="cls-1" cx="593.52" cy="389.71" r="22.5"/><circle class="cls-1" cx="68.52" cy="259.81" r="22.5"/><circle class="cls-1" cx="368.52" cy="389.71" r="22.5"/><circle class="cls-1" cx="181.02" cy="324.76" r="22.5"/><circle class="cls-1" cx="706.02" cy="64.95" r="22.5"/><circle class="cls-1" cx="256.02" cy="194.86" r="22.5"/><circle class="cls-1" cx="218.52" cy="389.71" r="22.5"/><circle class="cls-1" cx="143.52" cy="389.71" r="22.5"/><circle class="cls-1" cx="106.02" cy="324.76" r="22.5"/><circle class="cls-1" cx="256.02" cy="324.76" r="22.5"/><circle class="cls-1" cx="293.52" cy="259.81" r="22.5"/><circle class="cls-1" cx="856.02" cy="584.57" r="22.5"/><circle class="cls-1" cx="293.52" cy="389.71" r="22.5"/><circle class="cls-1" cx="668.52" cy="129.9" r="22.5"/><circle class="cls-1" cx="1006.02" cy="64.95" r="22.5"/><circle class="cls-1" cx="218.52" cy="259.81" r="22.5"/><circle class="cls-1" cx="143.52" cy="649.52" r="22.5"/><circle class="cls-1" cx="331.02" cy="324.76" r="22.5"/><path class="cls-2" d="M0,21.54v5.18A27.54,27.54,0,0,0,21,0H16A22.52,22.52,0,0,1,0,21.54Z"/><path class="cls-2" d="M68.52,27.5A27.54,27.54,0,0,0,96,0H91a22.52,22.52,0,0,1-22.5,22.5A22.52,22.52,0,0,1,46,0H41A27.54,27.54,0,0,0,68.52,27.5Z"/><path class="cls-2" d="M143.52,27.5A27.54,27.54,0,0,0,171,0h-5a22.52,22.52,0,0,1-22.5,22.5A22.52,22.52,0,0,1,121,0h-5A27.54,27.54,0,0,0,143.52,27.5Z"/><path class="cls-2" d="M218.52,27.5A27.54,27.54,0,0,0,246,0h-5a22.52,22.52,0,0,1-22.5,22.5A22.52,22.52,0,0,1,196,0h-5A27.54,27.54,0,0,0,218.52,27.5Z"/><path class="cls-2" d="M293.52,27.5A27.54,27.54,0,0,0,321,0h-5a22.52,22.52,0,0,1-22.5,22.5A22.52,22.52,0,0,1,271,0h-5A27.54,27.54,0,0,0,293.52,27.5Z"/><path class="cls-2" d="M368.52,27.5A27.54,27.54,0,0,0,396,0h-5a22.52,22.52,0,0,1-22.5,22.5A22.52,22.52,0,0,1,346,0h-5A27.54,27.54,0,0,0,368.52,27.5Z"/><path class="cls-2" d="M443.52,27.5A27.54,27.54,0,0,0,471,0h-5a22.52,22.52,0,0,1-22.5,22.5A22.52,22.52,0,0,1,421,0h-5A27.54,27.54,0,0,0,443.52,27.5Z"/><path class="cls-2" d="M518.52,27.5A27.54,27.54,0,0,0,546,0h-5a22.52,22.52,0,0,1-22.5,22.5A22.52,22.52,0,0,1,496,0h-5A27.54,27.54,0,0,0,518.52,27.5Z"/><path class="cls-2" d="M593.52,27.5A27.54,27.54,0,0,0,621,0h-5a22.52,22.52,0,0,1-22.5,22.5A22.52,22.52,0,0,1,571,0h-5A27.54,27.54,0,0,0,593.52,27.5Z"/><path class="cls-2" d="M668.52,27.5A27.54,27.54,0,0,0,696,0h-5a22.52,22.52,0,0,1-22.5,22.5A22.52,22.52,0,0,1,646,0h-5A27.54,27.54,0,0,0,668.52,27.5Z"/><path class="cls-2" d="M743.52,27.5A27.54,27.54,0,0,0,771,0h-5a22.52,22.52,0,0,1-22.5,22.5A22.52,22.52,0,0,1,721,0h-5A27.54,27.54,0,0,0,743.52,27.5Z"/><path class="cls-2" d="M818.52,27.5A27.54,27.54,0,0,0,846,0h-5a22.52,22.52,0,0,1-22.5,22.5A22.52,22.52,0,0,1,796,0h-5A27.54,27.54,0,0,0,818.52,27.5Z"/><path class="cls-2" d="M893.52,27.5A27.54,27.54,0,0,0,921,0h-5a22.52,22.52,0,0,1-22.5,22.5A22.52,22.52,0,0,1,871,0h-5A27.54,27.54,0,0,0,893.52,27.5Z"/><path class="cls-2" d="M968.52,27.5A27.54,27.54,0,0,0,996,0h-5a22.52,22.52,0,0,1-22.5,22.5A22.52,22.52,0,0,1,946,0h-5A27.54,27.54,0,0,0,968.52,27.5Z"/><path class="cls-2" d="M1038.48,26.58v-5.1A22.55,22.55,0,0,1,1021,0h-5A27.55,27.55,0,0,0,1038.48,26.58Z"/><path class="cls-2" d="M31,37.45A27.5,27.5,0,1,0,58.52,65,27.54,27.54,0,0,0,31,37.45Zm0,50A22.5,22.5,0,1,1,53.52,65,22.52,22.52,0,0,1,31,87.45Z"/><path class="cls-2" d="M106,37.45A27.5,27.5,0,1,0,133.52,65,27.54,27.54,0,0,0,106,37.45Zm0,50A22.5,22.5,0,1,1,128.52,65,22.52,22.52,0,0,1,106,87.45Z"/><path class="cls-2" d="M181,37.45A27.5,27.5,0,1,0,208.52,65,27.54,27.54,0,0,0,181,37.45Zm0,50A22.5,22.5,0,1,1,203.52,65,22.52,22.52,0,0,1,181,87.45Z"/><path class="cls-2" d="M256,37.45A27.5,27.5,0,1,0,283.52,65,27.54,27.54,0,0,0,256,37.45Zm0,50A22.5,22.5,0,1,1,278.52,65,22.52,22.52,0,0,1,256,87.45Z"/><path class="cls-2" d="M331,37.45A27.5,27.5,0,1,0,358.52,65,27.54,27.54,0,0,0,331,37.45Zm0,50A22.5,22.5,0,1,1,353.52,65,22.52,22.52,0,0,1,331,87.45Z"/><path class="cls-2" d="M406,37.45A27.5,27.5,0,1,0,433.52,65,27.54,27.54,0,0,0,406,37.45Zm0,50A22.5,22.5,0,1,1,428.52,65,22.52,22.52,0,0,1,406,87.45Z"/><path class="cls-2" d="M481,37.45A27.5,27.5,0,1,0,508.52,65,27.54,27.54,0,0,0,481,37.45Zm0,50A22.5,22.5,0,1,1,503.52,65,22.52,22.52,0,0,1,481,87.45Z"/><path class="cls-2" d="M556,37.45A27.5,27.5,0,1,0,583.52,65,27.54,27.54,0,0,0,556,37.45Zm0,50A22.5,22.5,0,1,1,578.52,65,22.52,22.52,0,0,1,556,87.45Z"/><path class="cls-2" d="M631,37.45A27.5,27.5,0,1,0,658.52,65,27.54,27.54,0,0,0,631,37.45Zm0,50A22.5,22.5,0,1,1,653.52,65,22.52,22.52,0,0,1,631,87.45Z"/><path class="cls-2" d="M706,37.45A27.5,27.5,0,1,0,733.52,65,27.54,27.54,0,0,0,706,37.45Zm0,50A22.5,22.5,0,1,1,728.52,65,22.52,22.52,0,0,1,706,87.45Z"/><path class="cls-2" d="M781,37.45A27.5,27.5,0,1,0,808.52,65,27.54,27.54,0,0,0,781,37.45Zm0,50A22.5,22.5,0,1,1,803.52,65,22.52,22.52,0,0,1,781,87.45Z"/><path class="cls-2" d="M856,37.45A27.5,27.5,0,1,0,883.52,65,27.54,27.54,0,0,0,856,37.45Zm0,50A22.5,22.5,0,1,1,878.52,65,22.52,22.52,0,0,1,856,87.45Z"/><path class="cls-2" d="M931,37.45A27.5,27.5,0,1,0,958.52,65,27.54,27.54,0,0,0,931,37.45Zm0,50A22.5,22.5,0,1,1,953.52,65,22.52,22.52,0,0,1,931,87.45Z"/><path class="cls-2" d="M1006,37.45a27.5,27.5,0,1,0,27.5,27.5A27.54,27.54,0,0,0,1006,37.45Zm0,50a22.5,22.5,0,1,1,22.5-22.5A22.52,22.52,0,0,1,1006,87.45Z"/><path class="cls-2" d="M0,108.36A22.53,22.53,0,0,1,16,129.9,22.54,22.54,0,0,1,0,151.45v5.18A27.55,27.55,0,0,0,21,129.9,27.54,27.54,0,0,0,0,103.18Z"/><path class="cls-2" d="M41,129.9a27.5,27.5,0,1,0,27.5-27.5A27.53,27.53,0,0,0,41,129.9Zm50,0a22.5,22.5,0,1,1-22.5-22.5A22.52,22.52,0,0,1,91,129.9Z"/><path class="cls-2" d="M116,129.9a27.5,27.5,0,1,0,27.5-27.5A27.53,27.53,0,0,0,116,129.9Zm50,0a22.5,22.5,0,1,1-22.5-22.5A22.52,22.52,0,0,1,166,129.9Z"/><path class="cls-2" d="M191,129.9a27.5,27.5,0,1,0,27.5-27.5A27.53,27.53,0,0,0,191,129.9Zm50,0a22.5,22.5,0,1,1-22.5-22.5A22.52,22.52,0,0,1,241,129.9Z"/><path class="cls-2" d="M266,129.9a27.5,27.5,0,1,0,27.5-27.5A27.53,27.53,0,0,0,266,129.9Zm50,0a22.5,22.5,0,1,1-22.5-22.5A22.52,22.52,0,0,1,316,129.9Z"/><path class="cls-2" d="M341,129.9a27.5,27.5,0,1,0,27.5-27.5A27.53,27.53,0,0,0,341,129.9Zm50,0a22.5,22.5,0,1,1-22.5-22.5A22.52,22.52,0,0,1,391,129.9Z"/><path class="cls-2" d="M416,129.9a27.5,27.5,0,1,0,27.5-27.5A27.53,27.53,0,0,0,416,129.9Zm50,0a22.5,22.5,0,1,1-22.5-22.5A22.52,22.52,0,0,1,466,129.9Z"/><path class="cls-2" d="M491,129.9a27.5,27.5,0,1,0,27.5-27.5A27.53,27.53,0,0,0,491,129.9Zm50,0a22.5,22.5,0,1,1-22.5-22.5A22.52,22.52,0,0,1,541,129.9Z"/><path class="cls-2" d="M566,129.9a27.5,27.5,0,1,0,27.5-27.5A27.53,27.53,0,0,0,566,129.9Zm50,0a22.5,22.5,0,1,1-22.5-22.5A22.52,22.52,0,0,1,616,129.9Z"/><path class="cls-2" d="M641,129.9a27.5,27.5,0,1,0,27.5-27.5A27.53,27.53,0,0,0,641,129.9Zm50,0a22.5,22.5,0,1,1-22.5-22.5A22.52,22.52,0,0,1,691,129.9Z"/><path class="cls-2" d="M716,129.9a27.5,27.5,0,1,0,27.5-27.5A27.53,27.53,0,0,0,716,129.9Zm50,0a22.5,22.5,0,1,1-22.5-22.5A22.52,22.52,0,0,1,766,129.9Z"/><path class="cls-2" d="M791,129.9a27.5,27.5,0,1,0,27.5-27.5A27.53,27.53,0,0,0,791,129.9Zm50,0a22.5,22.5,0,1,1-22.5-22.5A22.52,22.52,0,0,1,841,129.9Z"/><path class="cls-2" d="M866,129.9a27.5,27.5,0,1,0,27.5-27.5A27.53,27.53,0,0,0,866,129.9Zm50,0a22.5,22.5,0,1,1-22.5-22.5A22.52,22.52,0,0,1,916,129.9Z"/><path class="cls-2" d="M941,129.9a27.5,27.5,0,1,0,27.5-27.5A27.53,27.53,0,0,0,941,129.9Zm50,0a22.5,22.5,0,1,1-22.5-22.5A22.52,22.52,0,0,1,991,129.9Z"/><path class="cls-2" d="M1016,129.46a27.53,27.53,0,0,0,22.46,27v-5.1a22.5,22.5,0,0,1,0-43.85v-5.1A27.53,27.53,0,0,0,1016,129.46Z"/><path class="cls-2" d="M31,167.36a27.5,27.5,0,1,0,27.5,27.5A27.53,27.53,0,0,0,31,167.36Zm0,50a22.5,22.5,0,1,1,22.5-22.5A22.53,22.53,0,0,1,31,217.36Z"/><path class="cls-2" d="M106,167.36a27.5,27.5,0,1,0,27.5,27.5A27.53,27.53,0,0,0,106,167.36Zm0,50a22.5,22.5,0,1,1,22.5-22.5A22.53,22.53,0,0,1,106,217.36Z"/><path class="cls-2" d="M181,167.36a27.5,27.5,0,1,0,27.5,27.5A27.53,27.53,0,0,0,181,167.36Zm0,50a22.5,22.5,0,1,1,22.5-22.5A22.53,22.53,0,0,1,181,217.36Z"/><path class="cls-2" d="M256,167.36a27.5,27.5,0,1,0,27.5,27.5A27.53,27.53,0,0,0,256,167.36Zm0,50a22.5,22.5,0,1,1,22.5-22.5A22.53,22.53,0,0,1,256,217.36Z"/><path class="cls-2" d="M331,167.36a27.5,27.5,0,1,0,27.5,27.5A27.53,27.53,0,0,0,331,167.36Zm0,50a22.5,22.5,0,1,1,22.5-22.5A22.53,22.53,0,0,1,331,217.36Z"/><path class="cls-2" d="M406,167.36a27.5,27.5,0,1,0,27.5,27.5A27.53,27.53,0,0,0,406,167.36Zm0,50a22.5,22.5,0,1,1,22.5-22.5A22.53,22.53,0,0,1,406,217.36Z"/><path class="cls-2" d="M481,167.36a27.5,27.5,0,1,0,27.5,27.5A27.53,27.53,0,0,0,481,167.36Zm0,50a22.5,22.5,0,1,1,22.5-22.5A22.53,22.53,0,0,1,481,217.36Z"/><path class="cls-2" d="M556,167.36a27.5,27.5,0,1,0,27.5,27.5A27.53,27.53,0,0,0,556,167.36Zm0,50a22.5,22.5,0,1,1,22.5-22.5A22.53,22.53,0,0,1,556,217.36Z"/><path class="cls-2" d="M631,167.36a27.5,27.5,0,1,0,27.5,27.5A27.53,27.53,0,0,0,631,167.36Zm0,50a22.5,22.5,0,1,1,22.5-22.5A22.53,22.53,0,0,1,631,217.36Z"/><path class="cls-2" d="M706,167.36a27.5,27.5,0,1,0,27.5,27.5A27.53,27.53,0,0,0,706,167.36Zm0,50a22.5,22.5,0,1,1,22.5-22.5A22.53,22.53,0,0,1,706,217.36Z"/><path class="cls-2" d="M781,167.36a27.5,27.5,0,1,0,27.5,27.5A27.53,27.53,0,0,0,781,167.36Zm0,50a22.5,22.5,0,1,1,22.5-22.5A22.53,22.53,0,0,1,781,217.36Z"/><path class="cls-2" d="M856,167.36a27.5,27.5,0,1,0,27.5,27.5A27.53,27.53,0,0,0,856,167.36Zm0,50a22.5,22.5,0,1,1,22.5-22.5A22.53,22.53,0,0,1,856,217.36Z"/><path class="cls-2" d="M931,167.36a27.5,27.5,0,1,0,27.5,27.5A27.53,27.53,0,0,0,931,167.36Zm0,50a22.5,22.5,0,1,1,22.5-22.5A22.53,22.53,0,0,1,931,217.36Z"/><path class="cls-2" d="M1006,167.36a27.5,27.5,0,1,0,27.5,27.5A27.53,27.53,0,0,0,1006,167.36Zm0,50a22.5,22.5,0,1,1,22.5-22.5A22.53,22.53,0,0,1,1006,217.36Z"/><path class="cls-2" d="M21,259.81A27.54,27.54,0,0,0,0,233.09v5.17a22.54,22.54,0,0,1,16,21.55A22.53,22.53,0,0,1,0,281.35v5.18A27.54,27.54,0,0,0,21,259.81Z"/><path class="cls-2" d="M41,259.81a27.5,27.5,0,1,0,27.5-27.5A27.54,27.54,0,0,0,41,259.81Zm50,0a22.5,22.5,0,1,1-22.5-22.5A22.53,22.53,0,0,1,91,259.81Z"/><path class="cls-2" d="M116,259.81a27.5,27.5,0,1,0,27.5-27.5A27.54,27.54,0,0,0,116,259.81Zm50,0a22.5,22.5,0,1,1-22.5-22.5A22.53,22.53,0,0,1,166,259.81Z"/><path class="cls-2" d="M191,259.81a27.5,27.5,0,1,0,27.5-27.5A27.54,27.54,0,0,0,191,259.81Zm50,0a22.5,22.5,0,1,1-22.5-22.5A22.53,22.53,0,0,1,241,259.81Z"/><path class="cls-2" d="M266,259.81a27.5,27.5,0,1,0,27.5-27.5A27.54,27.54,0,0,0,266,259.81Zm50,0a22.5,22.5,0,1,1-22.5-22.5A22.53,22.53,0,0,1,316,259.81Z"/><path class="cls-2" d="M341,259.81a27.5,27.5,0,1,0,27.5-27.5A27.54,27.54,0,0,0,341,259.81Zm50,0a22.5,22.5,0,1,1-22.5-22.5A22.53,22.53,0,0,1,391,259.81Z"/><path class="cls-2" d="M416,259.81a27.5,27.5,0,1,0,27.5-27.5A27.54,27.54,0,0,0,416,259.81Zm50,0a22.5,22.5,0,1,1-22.5-22.5A22.53,22.53,0,0,1,466,259.81Z"/><path class="cls-2" d="M491,259.81a27.5,27.5,0,1,0,27.5-27.5A27.54,27.54,0,0,0,491,259.81Zm50,0a22.5,22.5,0,1,1-22.5-22.5A22.53,22.53,0,0,1,541,259.81Z"/><path class="cls-2" d="M566,259.81a27.5,27.5,0,1,0,27.5-27.5A27.54,27.54,0,0,0,566,259.81Zm50,0a22.5,22.5,0,1,1-22.5-22.5A22.53,22.53,0,0,1,616,259.81Z"/><path class="cls-2" d="M641,259.81a27.5,27.5,0,1,0,27.5-27.5A27.54,27.54,0,0,0,641,259.81Zm50,0a22.5,22.5,0,1,1-22.5-22.5A22.53,22.53,0,0,1,691,259.81Z"/><path class="cls-2" d="M716,259.81a27.5,27.5,0,1,0,27.5-27.5A27.54,27.54,0,0,0,716,259.81Zm50,0a22.5,22.5,0,1,1-22.5-22.5A22.53,22.53,0,0,1,766,259.81Z"/><path class="cls-2" d="M791,259.81a27.5,27.5,0,1,0,27.5-27.5A27.54,27.54,0,0,0,791,259.81Zm50,0a22.5,22.5,0,1,1-22.5-22.5A22.53,22.53,0,0,1,841,259.81Z"/><path class="cls-2" d="M866,259.81a27.5,27.5,0,1,0,27.5-27.5A27.54,27.54,0,0,0,866,259.81Zm50,0a22.5,22.5,0,1,1-22.5-22.5A22.53,22.53,0,0,1,916,259.81Z"/><path class="cls-2" d="M941,259.81a27.5,27.5,0,1,0,27.5-27.5A27.54,27.54,0,0,0,941,259.81Zm50,0a22.5,22.5,0,1,1-22.5-22.5A22.53,22.53,0,0,1,991,259.81Z"/><path class="cls-2" d="M1016,259.36a27.55,27.55,0,0,0,22.46,27v-5.11a22.5,22.5,0,0,1,0-43.85v-5.1A27.54,27.54,0,0,0,1016,259.36Z"/><path class="cls-2" d="M31,297.26a27.5,27.5,0,1,0,27.5,27.5A27.54,27.54,0,0,0,31,297.26Zm0,50a22.5,22.5,0,1,1,22.5-22.5A22.52,22.52,0,0,1,31,347.26Z"/><path class="cls-2" d="M106,297.26a27.5,27.5,0,1,0,27.5,27.5A27.54,27.54,0,0,0,106,297.26Zm0,50a22.5,22.5,0,1,1,22.5-22.5A22.52,22.52,0,0,1,106,347.26Z"/><path class="cls-2" d="M181,297.26a27.5,27.5,0,1,0,27.5,27.5A27.54,27.54,0,0,0,181,297.26Zm0,50a22.5,22.5,0,1,1,22.5-22.5A22.52,22.52,0,0,1,181,347.26Z"/><path class="cls-2" d="M256,297.26a27.5,27.5,0,1,0,27.5,27.5A27.54,27.54,0,0,0,256,297.26Zm0,50a22.5,22.5,0,1,1,22.5-22.5A22.52,22.52,0,0,1,256,347.26Z"/><path class="cls-2" d="M331,297.26a27.5,27.5,0,1,0,27.5,27.5A27.54,27.54,0,0,0,331,297.26Zm0,50a22.5,22.5,0,1,1,22.5-22.5A22.52,22.52,0,0,1,331,347.26Z"/><path class="cls-2" d="M406,297.26a27.5,27.5,0,1,0,27.5,27.5A27.54,27.54,0,0,0,406,297.26Zm0,50a22.5,22.5,0,1,1,22.5-22.5A22.52,22.52,0,0,1,406,347.26Z"/><path class="cls-2" d="M481,297.26a27.5,27.5,0,1,0,27.5,27.5A27.54,27.54,0,0,0,481,297.26Zm0,50a22.5,22.5,0,1,1,22.5-22.5A22.52,22.52,0,0,1,481,347.26Z"/><path class="cls-2" d="M556,297.26a27.5,27.5,0,1,0,27.5,27.5A27.54,27.54,0,0,0,556,297.26Zm0,50a22.5,22.5,0,1,1,22.5-22.5A22.52,22.52,0,0,1,556,347.26Z"/><path class="cls-2" d="M631,297.26a27.5,27.5,0,1,0,27.5,27.5A27.54,27.54,0,0,0,631,297.26Zm0,50a22.5,22.5,0,1,1,22.5-22.5A22.52,22.52,0,0,1,631,347.26Z"/><path class="cls-2" d="M706,297.26a27.5,27.5,0,1,0,27.5,27.5A27.54,27.54,0,0,0,706,297.26Zm0,50a22.5,22.5,0,1,1,22.5-22.5A22.52,22.52,0,0,1,706,347.26Z"/><path class="cls-2" d="M781,297.26a27.5,27.5,0,1,0,27.5,27.5A27.54,27.54,0,0,0,781,297.26Zm0,50a22.5,22.5,0,1,1,22.5-22.5A22.52,22.52,0,0,1,781,347.26Z"/><path class="cls-2" d="M856,297.26a27.5,27.5,0,1,0,27.5,27.5A27.54,27.54,0,0,0,856,297.26Zm0,50a22.5,22.5,0,1,1,22.5-22.5A22.52,22.52,0,0,1,856,347.26Z"/><path class="cls-2" d="M931,297.26a27.5,27.5,0,1,0,27.5,27.5A27.54,27.54,0,0,0,931,297.26Zm0,50a22.5,22.5,0,1,1,22.5-22.5A22.52,22.52,0,0,1,931,347.26Z"/><path class="cls-2" d="M1006,297.26a27.5,27.5,0,1,0,27.5,27.5A27.54,27.54,0,0,0,1006,297.26Zm0,50a22.5,22.5,0,1,1,22.5-22.5A22.52,22.52,0,0,1,1006,347.26Z"/><path class="cls-2" d="M21,389.71A27.54,27.54,0,0,0,0,363v5.18a22.53,22.53,0,0,1,16,21.54A22.54,22.54,0,0,1,0,411.26v5.17A27.54,27.54,0,0,0,21,389.71Z"/><path class="cls-2" d="M41,389.71a27.5,27.5,0,1,0,27.5-27.5A27.53,27.53,0,0,0,41,389.71Zm50,0a22.5,22.5,0,1,1-22.5-22.5A22.52,22.52,0,0,1,91,389.71Z"/><path class="cls-2" d="M116,389.71a27.5,27.5,0,1,0,27.5-27.5A27.53,27.53,0,0,0,116,389.71Zm50,0a22.5,22.5,0,1,1-22.5-22.5A22.52,22.52,0,0,1,166,389.71Z"/><path class="cls-2" d="M191,389.71a27.5,27.5,0,1,0,27.5-27.5A27.53,27.53,0,0,0,191,389.71Zm50,0a22.5,22.5,0,1,1-22.5-22.5A22.52,22.52,0,0,1,241,389.71Z"/><path class="cls-2" d="M266,389.71a27.5,27.5,0,1,0,27.5-27.5A27.53,27.53,0,0,0,266,389.71Zm50,0a22.5,22.5,0,1,1-22.5-22.5A22.52,22.52,0,0,1,316,389.71Z"/><path class="cls-2" d="M341,389.71a27.5,27.5,0,1,0,27.5-27.5A27.53,27.53,0,0,0,341,389.71Zm50,0a22.5,22.5,0,1,1-22.5-22.5A22.52,22.52,0,0,1,391,389.71Z"/><path class="cls-2" d="M416,389.71a27.5,27.5,0,1,0,27.5-27.5A27.53,27.53,0,0,0,416,389.71Zm50,0a22.5,22.5,0,1,1-22.5-22.5A22.52,22.52,0,0,1,466,389.71Z"/><path class="cls-2" d="M491,389.71a27.5,27.5,0,1,0,27.5-27.5A27.53,27.53,0,0,0,491,389.71Zm50,0a22.5,22.5,0,1,1-22.5-22.5A22.52,22.52,0,0,1,541,389.71Z"/><path class="cls-2" d="M566,389.71a27.5,27.5,0,1,0,27.5-27.5A27.53,27.53,0,0,0,566,389.71Zm50,0a22.5,22.5,0,1,1-22.5-22.5A22.52,22.52,0,0,1,616,389.71Z"/><path class="cls-2" d="M641,389.71a27.5,27.5,0,1,0,27.5-27.5A27.53,27.53,0,0,0,641,389.71Zm50,0a22.5,22.5,0,1,1-22.5-22.5A22.52,22.52,0,0,1,691,389.71Z"/><path class="cls-2" d="M716,389.71a27.5,27.5,0,1,0,27.5-27.5A27.53,27.53,0,0,0,716,389.71Zm50,0a22.5,22.5,0,1,1-22.5-22.5A22.52,22.52,0,0,1,766,389.71Z"/><path class="cls-2" d="M791,389.71a27.5,27.5,0,1,0,27.5-27.5A27.53,27.53,0,0,0,791,389.71Zm50,0a22.5,22.5,0,1,1-22.5-22.5A22.52,22.52,0,0,1,841,389.71Z"/><path class="cls-2" d="M866,389.71a27.5,27.5,0,1,0,27.5-27.5A27.53,27.53,0,0,0,866,389.71Zm50,0a22.5,22.5,0,1,1-22.5-22.5A22.52,22.52,0,0,1,916,389.71Z"/><path class="cls-2" d="M941,389.71a27.5,27.5,0,1,0,27.5-27.5A27.53,27.53,0,0,0,941,389.71Zm50,0a22.5,22.5,0,1,1-22.5-22.5A22.52,22.52,0,0,1,991,389.71Z"/><path class="cls-2" d="M1016,389.26a27.53,27.53,0,0,0,22.46,27v-5.1a22.5,22.5,0,0,1,0-43.85v-5.11A27.55,27.55,0,0,0,1016,389.26Z"/><path class="cls-2" d="M3.52,454.66A27.5,27.5,0,1,0,31,427.16,27.53,27.53,0,0,0,3.52,454.66ZM31,432.16a22.5,22.5,0,1,1-22.5,22.5A22.53,22.53,0,0,1,31,432.16Z"/><path class="cls-2" d="M106,427.16a27.5,27.5,0,1,0,27.5,27.5A27.54,27.54,0,0,0,106,427.16Zm0,50a22.5,22.5,0,1,1,22.5-22.5A22.52,22.52,0,0,1,106,477.16Z"/><path class="cls-2" d="M181,427.16a27.5,27.5,0,1,0,27.5,27.5A27.54,27.54,0,0,0,181,427.16Zm0,50a22.5,22.5,0,1,1,22.5-22.5A22.52,22.52,0,0,1,181,477.16Z"/><path class="cls-2" d="M256,427.16a27.5,27.5,0,1,0,27.5,27.5A27.54,27.54,0,0,0,256,427.16Zm0,50a22.5,22.5,0,1,1,22.5-22.5A22.52,22.52,0,0,1,256,477.16Z"/><path class="cls-2" d="M331,427.16a27.5,27.5,0,1,0,27.5,27.5A27.54,27.54,0,0,0,331,427.16Zm0,50a22.5,22.5,0,1,1,22.5-22.5A22.52,22.52,0,0,1,331,477.16Z"/><path class="cls-2" d="M406,427.16a27.5,27.5,0,1,0,27.5,27.5A27.54,27.54,0,0,0,406,427.16Zm0,50a22.5,22.5,0,1,1,22.5-22.5A22.52,22.52,0,0,1,406,477.16Z"/><path class="cls-2" d="M481,427.16a27.5,27.5,0,1,0,27.5,27.5A27.54,27.54,0,0,0,481,427.16Zm0,50a22.5,22.5,0,1,1,22.5-22.5A22.52,22.52,0,0,1,481,477.16Z"/><path class="cls-2" d="M556,427.16a27.5,27.5,0,1,0,27.5,27.5A27.54,27.54,0,0,0,556,427.16Zm0,50a22.5,22.5,0,1,1,22.5-22.5A22.52,22.52,0,0,1,556,477.16Z"/><path class="cls-2" d="M631,427.16a27.5,27.5,0,1,0,27.5,27.5A27.54,27.54,0,0,0,631,427.16Zm0,50a22.5,22.5,0,1,1,22.5-22.5A22.52,22.52,0,0,1,631,477.16Z"/><path class="cls-2" d="M706,427.16a27.5,27.5,0,1,0,27.5,27.5A27.54,27.54,0,0,0,706,427.16Zm0,50a22.5,22.5,0,1,1,22.5-22.5A22.52,22.52,0,0,1,706,477.16Z"/><path class="cls-2" d="M781,427.16a27.5,27.5,0,1,0,27.5,27.5A27.54,27.54,0,0,0,781,427.16Zm0,50a22.5,22.5,0,1,1,22.5-22.5A22.52,22.52,0,0,1,781,477.16Z"/><path class="cls-2" d="M856,427.16a27.5,27.5,0,1,0,27.5,27.5A27.54,27.54,0,0,0,856,427.16Zm0,50a22.5,22.5,0,1,1,22.5-22.5A22.52,22.52,0,0,1,856,477.16Z"/><path class="cls-2" d="M931,427.16a27.5,27.5,0,1,0,27.5,27.5A27.54,27.54,0,0,0,931,427.16Zm0,50a22.5,22.5,0,1,1,22.5-22.5A22.52,22.52,0,0,1,931,477.16Z"/><path class="cls-2" d="M1033.52,454.66a27.5,27.5,0,1,0-27.5,27.5A27.54,27.54,0,0,0,1033.52,454.66Zm-27.5,22.5a22.5,22.5,0,1,1,22.5-22.5A22.52,22.52,0,0,1,1006,477.16Z"/><path class="cls-2" d="M21,519.62A27.55,27.55,0,0,0,0,492.89v5.18a22.54,22.54,0,0,1,16,21.55A22.53,22.53,0,0,1,0,541.16v5.18A27.54,27.54,0,0,0,21,519.62Z"/><path class="cls-2" d="M41,519.62a27.5,27.5,0,1,0,27.5-27.5A27.54,27.54,0,0,0,41,519.62Zm50,0a22.5,22.5,0,1,1-22.5-22.5A22.53,22.53,0,0,1,91,519.62Z"/><path class="cls-2" d="M116,519.62a27.5,27.5,0,1,0,27.5-27.5A27.54,27.54,0,0,0,116,519.62Zm50,0a22.5,22.5,0,1,1-22.5-22.5A22.53,22.53,0,0,1,166,519.62Z"/><path class="cls-2" d="M191,519.62a27.5,27.5,0,1,0,27.5-27.5A27.54,27.54,0,0,0,191,519.62Zm50,0a22.5,22.5,0,1,1-22.5-22.5A22.53,22.53,0,0,1,241,519.62Z"/><path class="cls-2" d="M266,519.62a27.5,27.5,0,1,0,27.5-27.5A27.54,27.54,0,0,0,266,519.62Zm50,0a22.5,22.5,0,1,1-22.5-22.5A22.53,22.53,0,0,1,316,519.62Z"/><path class="cls-2" d="M341,519.62a27.5,27.5,0,1,0,27.5-27.5A27.54,27.54,0,0,0,341,519.62Zm50,0a22.5,22.5,0,1,1-22.5-22.5A22.53,22.53,0,0,1,391,519.62Z"/><path class="cls-2" d="M416,519.62a27.5,27.5,0,1,0,27.5-27.5A27.54,27.54,0,0,0,416,519.62Zm50,0a22.5,22.5,0,1,1-22.5-22.5A22.53,22.53,0,0,1,466,519.62Z"/><path class="cls-2" d="M491,519.62a27.5,27.5,0,1,0,27.5-27.5A27.54,27.54,0,0,0,491,519.62Zm50,0a22.5,22.5,0,1,1-22.5-22.5A22.53,22.53,0,0,1,541,519.62Z"/><path class="cls-2" d="M566,519.62a27.5,27.5,0,1,0,27.5-27.5A27.54,27.54,0,0,0,566,519.62Zm50,0a22.5,22.5,0,1,1-22.5-22.5A22.53,22.53,0,0,1,616,519.62Z"/><path class="cls-2" d="M641,519.62a27.5,27.5,0,1,0,27.5-27.5A27.54,27.54,0,0,0,641,519.62Zm50,0a22.5,22.5,0,1,1-22.5-22.5A22.53,22.53,0,0,1,691,519.62Z"/><path class="cls-2" d="M716,519.62a27.5,27.5,0,1,0,27.5-27.5A27.54,27.54,0,0,0,716,519.62Zm50,0a22.5,22.5,0,1,1-22.5-22.5A22.53,22.53,0,0,1,766,519.62Z"/><path class="cls-2" d="M791,519.62a27.5,27.5,0,1,0,27.5-27.5A27.54,27.54,0,0,0,791,519.62Zm50,0a22.5,22.5,0,1,1-22.5-22.5A22.53,22.53,0,0,1,841,519.62Z"/><path class="cls-2" d="M866,519.62a27.5,27.5,0,1,0,27.5-27.5A27.54,27.54,0,0,0,866,519.62Zm50,0a22.5,22.5,0,1,1-22.5-22.5A22.53,22.53,0,0,1,916,519.62Z"/><path class="cls-2" d="M941,519.62a27.5,27.5,0,1,0,27.5-27.5A27.54,27.54,0,0,0,941,519.62Zm50,0a22.5,22.5,0,1,1-22.5-22.5A22.53,22.53,0,0,1,991,519.62Z"/><path class="cls-2" d="M1016,519.17a27.55,27.55,0,0,0,22.46,27v-5.11a22.5,22.5,0,0,1,0-43.85v-5.1A27.53,27.53,0,0,0,1016,519.17Z"/><path class="cls-2" d="M3.52,584.57A27.5,27.5,0,1,0,31,557.07,27.54,27.54,0,0,0,3.52,584.57ZM31,562.07a22.5,22.5,0,1,1-22.5,22.5A22.52,22.52,0,0,1,31,562.07Z"/><path class="cls-2" d="M133.52,584.57a27.5,27.5,0,1,0-27.5,27.5A27.53,27.53,0,0,0,133.52,584.57ZM106,607.07a22.5,22.5,0,1,1,22.5-22.5A22.53,22.53,0,0,1,106,607.07Z"/><path class="cls-2" d="M181,557.07a27.5,27.5,0,1,0,27.5,27.5A27.53,27.53,0,0,0,181,557.07Zm0,50a22.5,22.5,0,1,1,22.5-22.5A22.53,22.53,0,0,1,181,607.07Z"/><path class="cls-2" d="M256,557.07a27.5,27.5,0,1,0,27.5,27.5A27.53,27.53,0,0,0,256,557.07Zm0,50a22.5,22.5,0,1,1,22.5-22.5A22.53,22.53,0,0,1,256,607.07Z"/><path class="cls-2" d="M331,557.07a27.5,27.5,0,1,0,27.5,27.5A27.53,27.53,0,0,0,331,557.07Zm0,50a22.5,22.5,0,1,1,22.5-22.5A22.53,22.53,0,0,1,331,607.07Z"/><path class="cls-2" d="M406,557.07a27.5,27.5,0,1,0,27.5,27.5A27.53,27.53,0,0,0,406,557.07Zm0,50a22.5,22.5,0,1,1,22.5-22.5A22.53,22.53,0,0,1,406,607.07Z"/><path class="cls-2" d="M481,557.07a27.5,27.5,0,1,0,27.5,27.5A27.53,27.53,0,0,0,481,557.07Zm0,50a22.5,22.5,0,1,1,22.5-22.5A22.53,22.53,0,0,1,481,607.07Z"/><path class="cls-2" d="M556,557.07a27.5,27.5,0,1,0,27.5,27.5A27.53,27.53,0,0,0,556,557.07Zm0,50a22.5,22.5,0,1,1,22.5-22.5A22.53,22.53,0,0,1,556,607.07Z"/><path class="cls-2" d="M631,557.07a27.5,27.5,0,1,0,27.5,27.5A27.53,27.53,0,0,0,631,557.07Zm0,50a22.5,22.5,0,1,1,22.5-22.5A22.53,22.53,0,0,1,631,607.07Z"/><path class="cls-2" d="M706,557.07a27.5,27.5,0,1,0,27.5,27.5A27.53,27.53,0,0,0,706,557.07Zm0,50a22.5,22.5,0,1,1,22.5-22.5A22.53,22.53,0,0,1,706,607.07Z"/><path class="cls-2" d="M781,557.07a27.5,27.5,0,1,0,27.5,27.5A27.53,27.53,0,0,0,781,557.07Zm0,50a22.5,22.5,0,1,1,22.5-22.5A22.53,22.53,0,0,1,781,607.07Z"/><path class="cls-2" d="M856,557.07a27.5,27.5,0,1,0,27.5,27.5A27.53,27.53,0,0,0,856,557.07Zm0,50a22.5,22.5,0,1,1,22.5-22.5A22.53,22.53,0,0,1,856,607.07Z"/><path class="cls-2" d="M931,557.07a27.5,27.5,0,1,0,27.5,27.5A27.53,27.53,0,0,0,931,557.07Zm0,50a22.5,22.5,0,1,1,22.5-22.5A22.53,22.53,0,0,1,931,607.07Z"/><path class="cls-2" d="M1033.52,584.57a27.5,27.5,0,1,0-27.5,27.5A27.53,27.53,0,0,0,1033.52,584.57Zm-27.5,22.5a22.5,22.5,0,1,1,22.5-22.5A22.53,22.53,0,0,1,1006,607.07Z"/><path class="cls-2" d="M21,649.52A27.54,27.54,0,0,0,0,622.8V628a22.54,22.54,0,0,1,16,21.55A22.53,22.53,0,0,1,0,671.06v5.18A27.54,27.54,0,0,0,21,649.52Z"/><path class="cls-2" d="M41,649.52A27.5,27.5,0,1,0,68.52,622,27.54,27.54,0,0,0,41,649.52ZM68.52,627A22.5,22.5,0,1,1,46,649.52,22.52,22.52,0,0,1,68.52,627Z"/><path class="cls-2" d="M143.52,677a27.5,27.5,0,1,0-27.5-27.5A27.54,27.54,0,0,0,143.52,677Zm0-50a22.5,22.5,0,1,1-22.5,22.5A22.52,22.52,0,0,1,143.52,627Z"/><path class="cls-2" d="M191,649.52a27.5,27.5,0,1,0,27.5-27.5A27.54,27.54,0,0,0,191,649.52Zm50,0a22.5,22.5,0,1,1-22.5-22.5A22.52,22.52,0,0,1,241,649.52Z"/><path class="cls-2" d="M266,649.52a27.5,27.5,0,1,0,27.5-27.5A27.54,27.54,0,0,0,266,649.52Zm50,0a22.5,22.5,0,1,1-22.5-22.5A22.52,22.52,0,0,1,316,649.52Z"/><path class="cls-2" d="M341,649.52a27.5,27.5,0,1,0,27.5-27.5A27.54,27.54,0,0,0,341,649.52Zm50,0a22.5,22.5,0,1,1-22.5-22.5A22.52,22.52,0,0,1,391,649.52Z"/><path class="cls-2" d="M416,649.52a27.5,27.5,0,1,0,27.5-27.5A27.54,27.54,0,0,0,416,649.52Zm50,0a22.5,22.5,0,1,1-22.5-22.5A22.52,22.52,0,0,1,466,649.52Z"/><path class="cls-2" d="M491,649.52a27.5,27.5,0,1,0,27.5-27.5A27.54,27.54,0,0,0,491,649.52Zm50,0a22.5,22.5,0,1,1-22.5-22.5A22.52,22.52,0,0,1,541,649.52Z"/><path class="cls-2" d="M566,649.52a27.5,27.5,0,1,0,27.5-27.5A27.54,27.54,0,0,0,566,649.52Zm50,0a22.5,22.5,0,1,1-22.5-22.5A22.52,22.52,0,0,1,616,649.52Z"/><path class="cls-2" d="M641,649.52a27.5,27.5,0,1,0,27.5-27.5A27.54,27.54,0,0,0,641,649.52Zm50,0a22.5,22.5,0,1,1-22.5-22.5A22.52,22.52,0,0,1,691,649.52Z"/><path class="cls-2" d="M716,649.52a27.5,27.5,0,1,0,27.5-27.5A27.54,27.54,0,0,0,716,649.52Zm50,0a22.5,22.5,0,1,1-22.5-22.5A22.52,22.52,0,0,1,766,649.52Z"/><path class="cls-2" d="M791,649.52a27.5,27.5,0,1,0,27.5-27.5A27.54,27.54,0,0,0,791,649.52Zm50,0a22.5,22.5,0,1,1-22.5-22.5A22.52,22.52,0,0,1,841,649.52Z"/><path class="cls-2" d="M866,649.52a27.5,27.5,0,1,0,27.5-27.5A27.54,27.54,0,0,0,866,649.52Zm50,0a22.5,22.5,0,1,1-22.5-22.5A22.52,22.52,0,0,1,916,649.52Z"/><path class="cls-2" d="M996,649.52a27.5,27.5,0,1,0-27.5,27.5A27.54,27.54,0,0,0,996,649.52Zm-50,0a22.5,22.5,0,1,1,22.5,22.5A22.52,22.52,0,0,1,946,649.52Z"/><path class="cls-2" d="M1016,649.07a27.54,27.54,0,0,0,22.46,27V671a22.5,22.5,0,0,1,0-43.85V622A27.54,27.54,0,0,0,1016,649.07Z"/><path class="cls-2" d="M3.52,714.47A27.5,27.5,0,1,0,31,687,27.54,27.54,0,0,0,3.52,714.47ZM31,692a22.5,22.5,0,1,1-22.5,22.5A22.52,22.52,0,0,1,31,692Z"/><path class="cls-2" d="M106,742a27.5,27.5,0,1,0-27.5-27.5A27.54,27.54,0,0,0,106,742Zm0-50a22.5,22.5,0,1,1-22.5,22.5A22.52,22.52,0,0,1,106,692Z"/><path class="cls-2" d="M181,742a27.5,27.5,0,1,0-27.5-27.5A27.54,27.54,0,0,0,181,742Zm0-50a22.5,22.5,0,1,1-22.5,22.5A22.52,22.52,0,0,1,181,692Z"/><path class="cls-2" d="M228.52,714.47A27.5,27.5,0,1,0,256,687,27.54,27.54,0,0,0,228.52,714.47Zm50,0A22.5,22.5,0,1,1,256,692,22.52,22.52,0,0,1,278.52,714.47Z"/><path class="cls-2" d="M303.52,714.47A27.5,27.5,0,1,0,331,687,27.54,27.54,0,0,0,303.52,714.47Zm50,0A22.5,22.5,0,1,1,331,692,22.52,22.52,0,0,1,353.52,714.47Z"/><path class="cls-2" d="M378.52,714.47A27.5,27.5,0,1,0,406,687,27.54,27.54,0,0,0,378.52,714.47Zm50,0A22.5,22.5,0,1,1,406,692,22.52,22.52,0,0,1,428.52,714.47Z"/><path class="cls-2" d="M453.52,714.47A27.5,27.5,0,1,0,481,687,27.54,27.54,0,0,0,453.52,714.47Zm50,0A22.5,22.5,0,1,1,481,692,22.52,22.52,0,0,1,503.52,714.47Z"/><path class="cls-2" d="M528.52,714.47A27.5,27.5,0,1,0,556,687,27.54,27.54,0,0,0,528.52,714.47Zm50,0A22.5,22.5,0,1,1,556,692,22.52,22.52,0,0,1,578.52,714.47Z"/><path class="cls-2" d="M603.52,714.47A27.5,27.5,0,1,0,631,687,27.54,27.54,0,0,0,603.52,714.47Zm50,0A22.5,22.5,0,1,1,631,692,22.52,22.52,0,0,1,653.52,714.47Z"/><path class="cls-2" d="M678.52,714.47A27.5,27.5,0,1,0,706,687,27.54,27.54,0,0,0,678.52,714.47Zm50,0A22.5,22.5,0,1,1,706,692,22.52,22.52,0,0,1,728.52,714.47Z"/><path class="cls-2" d="M753.52,714.47A27.5,27.5,0,1,0,781,687,27.54,27.54,0,0,0,753.52,714.47Zm50,0A22.5,22.5,0,1,1,781,692,22.52,22.52,0,0,1,803.52,714.47Z"/><path class="cls-2" d="M828.52,714.47A27.5,27.5,0,1,0,856,687,27.54,27.54,0,0,0,828.52,714.47Zm50,0A22.5,22.5,0,1,1,856,692,22.52,22.52,0,0,1,878.52,714.47Z"/><path class="cls-2" d="M903.52,714.47A27.5,27.5,0,1,0,931,687,27.54,27.54,0,0,0,903.52,714.47Zm50,0A22.5,22.5,0,1,1,931,692,22.52,22.52,0,0,1,953.52,714.47Z"/><path class="cls-2" d="M1033.52,714.47A27.5,27.5,0,1,0,1006,742,27.54,27.54,0,0,0,1033.52,714.47ZM1006,737a22.5,22.5,0,1,1,22.5-22.5A22.52,22.52,0,0,1,1006,737Z"/><path class="cls-2" d="M16,778.86h5A27.55,27.55,0,0,0,0,752.7v5.18A22.54,22.54,0,0,1,16,778.86Z"/><path class="cls-2" d="M68.52,756.92A22.53,22.53,0,0,1,91,778.86h5a27.5,27.5,0,0,0-55,0h5A22.53,22.53,0,0,1,68.52,756.92Z"/><path class="cls-2" d="M143.52,756.92A22.53,22.53,0,0,1,166,778.86h5a27.5,27.5,0,0,0-55,0h5A22.53,22.53,0,0,1,143.52,756.92Z"/><path class="cls-2" d="M218.52,751.92A27.53,27.53,0,0,0,191,778.86h5a22.5,22.5,0,0,1,45,0h5A27.53,27.53,0,0,0,218.52,751.92Z"/><path class="cls-2" d="M293.52,751.92A27.53,27.53,0,0,0,266,778.86h5a22.5,22.5,0,0,1,45,0h5A27.53,27.53,0,0,0,293.52,751.92Z"/><path class="cls-2" d="M368.52,751.92A27.53,27.53,0,0,0,341,778.86h5a22.5,22.5,0,0,1,45,0h5A27.53,27.53,0,0,0,368.52,751.92Z"/><path class="cls-2" d="M443.52,751.92A27.53,27.53,0,0,0,416,778.86h5a22.5,22.5,0,0,1,45,0h5A27.53,27.53,0,0,0,443.52,751.92Z"/><path class="cls-2" d="M518.52,751.92A27.53,27.53,0,0,0,491,778.86h5a22.5,22.5,0,0,1,45,0h5A27.53,27.53,0,0,0,518.52,751.92Z"/><path class="cls-2" d="M593.52,751.92A27.53,27.53,0,0,0,566,778.86h5a22.5,22.5,0,0,1,45,0h5A27.53,27.53,0,0,0,593.52,751.92Z"/><path class="cls-2" d="M668.52,751.92A27.53,27.53,0,0,0,641,778.86h5a22.5,22.5,0,0,1,45,0h5A27.53,27.53,0,0,0,668.52,751.92Z"/><path class="cls-2" d="M743.52,751.92A27.53,27.53,0,0,0,716,778.86h5a22.5,22.5,0,0,1,45,0h5A27.53,27.53,0,0,0,743.52,751.92Z"/><path class="cls-2" d="M818.52,751.92A27.53,27.53,0,0,0,791,778.86h5a22.5,22.5,0,0,1,45,0h5A27.53,27.53,0,0,0,818.52,751.92Z"/><path class="cls-2" d="M893.52,751.92A27.53,27.53,0,0,0,866,778.86h5a22.5,22.5,0,0,1,45,0h5A27.53,27.53,0,0,0,893.52,751.92Z"/><path class="cls-2" d="M968.52,751.92A27.53,27.53,0,0,0,941,778.86h5a22.5,22.5,0,0,1,45,0h5A27.53,27.53,0,0,0,968.52,751.92Z"/><path class="cls-2" d="M1016,778.86h5a22.53,22.53,0,0,1,17.46-21.81v-5.11A27.55,27.55,0,0,0,1016,778.86Z"/></g></g></svg>