<svg xmlns="http://www.w3.org/2000/svg" viewBox="0 0 1038.48 778.86"><defs><style>.cls-1{fill:none;}.cls-2{fill:lime;}</style></defs><title>Element 56</title><g id="Ebene_2" data-name="Ebene 2"><g id="Ebene_1-2" data-name="Ebene 1"><path class="cls-1" d="M54.71,763.37h50v15.49H190.1l44.51-77.1,21.65,12.5-28.35,49.1-26.84,15.5h46.77l23.38-40.49v40.49h43.34L307.82,775l50-86.61,50,86.61-6.75,3.89h78.48l15.64-27.1,21.66,12.5-8.43,14.6h65.9v-15.5h25v15.5h18.3v-90.5h25v75h43.3v15.49H940.65L964,738.37l23.38,40.49h46.76l-26.84-15.49,12.5-21.66,18.64,10.77V700h-31.15V613.36h31.15v-100H964v-25h18.3a25,25,0,1,1,50,0h6.15v-143l-31.14,18-43.3-75,43.3-25,9.15,15.84a24.94,24.94,0,0,1,22-1.46v-16.9l-2.8,1.62-16-27.79a25,25,0,0,1-24.61,0l-16,27.79L957.33,250l50-86.61,31.15,54v-79h-31.15v-25h18.31a25,25,0,0,1,12.84-21.84V38.36H964v-25h74.45V0h-110l-7.72,13.36-43.3,25L899.58,0H857.27L834.13,13.36,841.85,0H815.34a25,25,0,0,1-24.51,20.06v18.3h-50V0H578l46.36,26.76-50,86.61-21.65-12.5,37.5-65-37.5-21.65L560.91,0H480l14.42,25-21.65,12.5-16-27.79a24.85,24.85,0,0,1-12.3,3.24,25,25,0,0,1-12.31-3.24l-16,27.79L394.42,25,408.83,0H380L357.81,38.36l-43.3,25L351.1,0H322.23l-7.72,13.36-43.3,25L293.36,0H205.74a24.91,24.91,0,0,1,3.88,13.37h18.3v25H141.31v-25h18.31A24.9,24.9,0,0,1,163.49,0H54.71V63.37L0,31.78V228.07a24.85,24.85,0,0,1,11.41,10.3,25,25,0,0,1-9.15,34.15l9.15,15.85L0,295V658.12l11.41-19.75,50,86.6-21.66,12.5-16-27.79A24.93,24.93,0,0,1,0,710.15v68.71H54.71ZM989,88.37v56.69l-25,43.31v-100Zm-804.43,650H98v-25h86.6Zm0-50H98v-25h86.6Zm0-100L98,538.37l12.5-21.66,27.8,16a24.94,24.94,0,0,1,21.31-12.3V488.37h25ZM302.91,470.06a25,25,0,0,1-25,25v18.3h-50v-86.6h50v18.3A25,25,0,0,1,302.91,470.06ZM272.12,360l-12.5,21.65-75-43.3,12.5-21.66L213,325.87a25,25,0,0,1,43.3,25Zm-.9-21.65,50-86.61,21.65,12.5-28.35,49.11Zm43.29-100h-86.6v-25h86.6Zm-86.6,25v25h-86.6v-25ZM97.12,460l75-43.3,12.5,21.65-75,43.3Zm44.19-96.65,12.5-21.65,75,43.3-12.5,21.65Zm173.2,300h-86.6v-25h18.3a25,25,0,0,1,50,0h18.3Zm0-100h-86.6v-25h86.6ZM351.12,600l-21.65-12.5,37.5-65-37.5-21.65L342,479.22l59.15,34.15Zm44-376.17a24.87,24.87,0,0,1,9,9l27.79-16,12.5,21.66-86.6,50v-100h25v32.09A24.93,24.93,0,0,1,395.1,223.8Zm-.68,114.57a25,25,0,0,1,34.15,9.15l15.85-9.15L456.92,360l-75,43.3-12.5-21.65,15.85-9.15A25,25,0,0,1,394.42,338.37Zm6.7,100h18.3a25,25,0,0,1,50,0h18.3v25h-86.6Zm86.6-125h-86.6v-25h86.6Zm-86.61,300-43.29,25,50-86.6,21.65,12.5Zm43.31-125,75,43.3-12.5,21.65-75-43.3Zm284.81-325v25H660.92v-100h25v75Zm73.21,131.69,75,43.31L864.94,360l-75-43.3Zm-11.61-6.7,50-86.6,21.65,12.5-28.35,49.1Zm-154.9,175v-25h68.3v100h-25v-75Zm111.6,100v25h-86.6v-25Zm-3.35-119.2-15.85,9.15-12.5-21.65,75-43.3L803.33,410l-15.85,9.15a25,25,0,1,1-43.3,25Zm90,19.2L846.63,485l-49.1,28.34h-50Zm-43.3,150h86.6v25h-86.6Zm43.3,50h86.6v25h-86.6Zm43.3-75h-86.6v-25h18.3a25,25,0,0,1,50,0h18.3ZM821.63,385l12.5-21.65,75,43.3-12.5,21.65Zm-30.8-46.65-86.6,50-12.5-21.66,49.1-28.34Zm-129.91-50v-25h86.61v25Zm86.61-50H660.92v-25h86.61Zm-86.6,75v100l-86.6-50,12.5-21.66,27.79,16.05a24.94,24.94,0,0,1,21.31-12.3V313.37Zm-43.3,175a25,25,0,0,1-34.15,9.15l-9.15,15.85-43.3-25,43.3-75,43.3,25-9.15,15.85A25,25,0,0,1,617.63,488.37Zm0-200-43.3,25,50-86.6L646,239.26Zm-43.3-25-43.29,25,50-86.61,21.65,12.5Zm.9,121.65-12.5,21.65-75-43.3,12.5-21.65ZM531,713.36h-86.6v-25H531Zm-14.95-50.89-16-27.79a25,25,0,0,1-24.61,0l-16,27.79L437.72,650l50-86.6,50,86.6Zm58.26.9-50-86.61L546,564.26l37.5,65L621,607.57l12.5,21.65Zm36.6-63.4-21.65-12.5,28.35-49.1,43.3-25Zm100,95.09v18.31h-50V626.76h50v18.3a25,25,0,0,1,0,50ZM735,741.71l49.11-28.34h50l-86.6,50Zm185.7,21.65h-86.6v-25h18.3a25,25,0,0,1,50,0h18.3Zm43.3-75-43.3,25,50-86.6,21.65,12.5Zm15.86-109.15,15.84-9.15,12.51,21.66-75,43.3-12.51-21.65,15.85-9.16a25,25,0,0,1,43.31-25ZM964,538.37l-43.31,25-9.15-15.85a25,25,0,0,1-25-43.31l-9.15-15.84,43.3-25Zm0-200,50,86.6-21.66,12.5-16-27.79a25,25,0,0,1-24.61,0l-16,27.79L914,425Zm-18.31-175v56.7l-25,43.3v-100Zm-25,150L908.23,335l-75-43.3,12.5-21.66,15.85,9.15a25,25,0,0,1,43.31,25Zm-86.6-250h50v18.3a25,25,0,1,1,0,50V150h-50Zm-18.3,75v56.69l-25,43.31v-100Zm-25-50v25h-86.6v-25Zm-99.1-71.65,12.5,21.65-75,43.3L616.73,60ZM574.32,138.37a25,25,0,0,1,25,25h18.3v25H531v-25h18.3A25,25,0,0,1,574.32,138.37ZM537.72,26.76l21.65,12.5L531,88.36l-43.3,25Zm-93.3,136.61h68.31v100h-25v-75h-43.3Zm-86.6-99.11h86.6v25h-86.6Zm0,49.11h86.6v25h-86.6Zm0,300v25h-68.3v-100h25v75Zm-36.6-311.61,21.65,12.5-28.35,49.1-43.3,25Zm-93.3-38.39,9.15,15.85a25,25,0,1,1,25,43.3l9.15,15.85-43.3,25-43.3-75Zm-43.3,175h-25V206.28A25,25,0,0,1,138.3,194L110.51,210,98,188.37l86.61-50ZM98,38.37l43.3,25-9.15,15.85a25,25,0,0,1-25,43.3L98,138.37l-43.3-25Zm-18.3,125v56.7l-25,43.3v-100Zm-68.3,25v-100h25v56.7Zm86.6,100v100H73V356.28A25,25,0,0,1,51.7,344L23.91,360l-12.5-21.65Zm-86.6,150h50v18.3a25,25,0,1,1,0,50V525h-50Zm0,125H98v25H11.41Zm43.3,100-12.5-21.65,49.11-28.35h50Z"/><path class="cls-1" d="M357.82,762.92a24.86,24.86,0,0,1-12.31-3.24l-11.08,19.18H381.2l-11.08-19.18A24.85,24.85,0,0,1,357.82,762.92Z"/><path class="cls-1" d="M15.58,0H0V2.91L8.4,7.76A24.89,24.89,0,0,1,15.58,0Z"/><rect class="cls-2" x="357.82" y="64.26" width="86.6" height="25"/><polygon class="cls-2" points="487.73 263.37 512.73 263.37 512.73 163.37 444.42 163.37 444.42 188.37 487.73 188.37 487.73 263.37"/><polygon class="cls-2" points="704.23 538.37 704.23 438.37 635.93 438.37 635.93 463.37 679.23 463.37 679.23 538.37 704.23 538.37"/><rect class="cls-2" x="834.13" y="663.37" width="86.6" height="25"/><polygon class="cls-2" points="617.63 538.37 589.28 587.47 610.93 599.97 660.93 513.37 617.63 538.37"/><path class="cls-2" d="M895.73,270.06a25,25,0,0,0-34.15,9.15l-15.85-9.15-12.5,21.66,75,43.3,12.5-21.65-15.84-9.16A25,25,0,0,0,895.73,270.06Z"/><path class="cls-2" d="M247.12,316.72A25,25,0,0,0,213,325.87l-15.85-9.16-12.5,21.66,75,43.3L272.12,360l-15.85-9.15A25,25,0,0,0,247.12,316.72Z"/><rect class="cls-2" x="518.97" y="330.89" width="25" height="86.6" transform="translate(-58.32 647.37) rotate(-60)"/><path class="cls-2" d="M107.16,122.52a25,25,0,0,0,25-43.3l9.15-15.85L98,38.37l-43.3,75,43.3,25Z"/><path class="cls-2" d="M574.33,413.37l-43.3,75,43.3,25,9.15-15.85a25,25,0,0,0,25-43.3l9.15-15.85Z"/><path class="cls-2" d="M110.51,210,138.3,194a25,25,0,0,0,21.31,12.31v32.09h25v-100L98,188.37Z"/><path class="cls-2" d="M51.7,344A25,25,0,0,0,73,356.28v32.09H98v-100l-86.6,50L23.91,360Z"/><polygon class="cls-2" points="846.63 485.02 834.13 463.37 747.53 513.37 797.53 513.36 846.63 485.02"/><polygon class="cls-2" points="590.18 35.91 552.67 100.87 574.33 113.37 624.33 26.76 577.97 0 560.91 0 552.68 14.26 590.18 35.91"/><polygon class="cls-2" points="341.97 479.22 329.47 500.87 366.97 522.52 329.47 587.47 351.12 599.97 401.12 513.37 341.97 479.22"/><rect class="cls-2" x="852.88" y="352.54" width="25" height="86.6" transform="translate(89.88 947.37) rotate(-60)"/><rect class="cls-2" x="821.19" y="284.24" width="25" height="86.6" transform="translate(133.18 885.76) rotate(-60)"/><polygon class="cls-2" points="1007.34 763.37 1034.18 778.86 1038.48 778.86 1038.48 752.48 1019.84 741.72 1007.34 763.37"/><rect class="cls-2" x="172.56" y="330.89" width="25" height="86.6" transform="translate(-231.53 347.37) rotate(-60)"/><rect class="cls-2" x="463.17" y="477.54" width="25" height="86.6" transform="matrix(0.5, -0.87, 0.87, 0.5, -213.23, 672.36)"/><path class="cls-2" d="M357.82,188.37v100l86.6-50-12.5-21.66-27.79,16a24.94,24.94,0,0,0-21.31-12.3V188.37Z"/><polygon class="cls-2" points="784.14 713.37 735.03 741.72 747.53 763.37 834.13 713.37 784.14 713.37"/><polygon class="cls-2" points="691.73 366.71 704.23 388.37 790.83 338.37 740.83 338.37 691.73 366.71"/><polygon class="cls-2" points="91.32 613.37 42.21 641.72 54.71 663.37 141.31 613.37 91.32 613.37"/><path class="cls-2" d="M381.92,403.32l75-43.3-12.5-21.65-15.85,9.15a25,25,0,0,0-43.3,25l-15.85,9.15Z"/><path class="cls-2" d="M945.73,570.06a25,25,0,0,0-9.15,34.15l-15.85,9.16L933.24,635l75-43.3-12.51-21.66-15.84,9.15A25,25,0,0,0,945.73,570.06Z"/><polygon class="cls-2" points="583.48 629.22 545.98 564.26 524.33 576.76 574.33 663.37 633.48 629.22 620.98 607.57 583.48 629.22"/><rect class="cls-2" x="617.18" y="36.69" width="86.6" height="25" transform="translate(63.89 336.83) rotate(-30)"/><path class="cls-2" d="M2.26,272.52a25,25,0,0,0,9.15-34.15A24.85,24.85,0,0,0,0,228.07V295l11.41-6.58Z"/><path class="cls-2" d="M1016.49,279.21l-9.15-15.84-43.3,25,43.3,75,31.14-18V277.75A24.94,24.94,0,0,0,1016.49,279.21Z"/><path class="cls-2" d="M271.22,138.37l-9.15-15.85a25,25,0,1,0-25-43.3l-9.15-15.85-43.3,25,43.3,75Z"/><polygon class="cls-2" points="790.83 238.37 815.83 195.06 815.83 138.37 790.83 138.37 790.83 238.37"/><polygon class="cls-2" points="989.03 145.06 989.04 88.37 964.04 88.37 964.04 188.37 989.03 145.06"/><polygon class="cls-2" points="945.73 220.07 945.73 163.37 920.73 163.37 920.73 263.37 945.73 220.07"/><polygon class="cls-2" points="79.71 220.07 79.71 163.37 54.71 163.37 54.71 263.37 79.71 220.07"/><polygon class="cls-2" points="36.41 88.37 11.41 88.37 11.41 188.37 36.41 145.06 36.41 88.37"/><path class="cls-2" d="M778.33,453.32a25,25,0,0,0,9.15-34.15L803.33,410l-12.5-21.65-75,43.3,12.5,21.65,15.85-9.15A25,25,0,0,0,778.33,453.32Z"/><rect class="cls-2" x="97.56" y="436.69" width="86.6" height="25" transform="translate(-205.73 130.61) rotate(-30)"/><path class="cls-2" d="M877.43,488.37l9.15,15.84a25,25,0,0,0,25,43.31l9.15,15.85,43.31-25-43.31-75Z"/><path class="cls-2" d="M54.71,0H15.58A24.89,24.89,0,0,0,8.4,7.76L0,2.91V31.78L54.71,63.37Z"/><path class="cls-2" d="M159.62,520.46a24.94,24.94,0,0,0-21.31,12.3l-27.8-16L98,538.37l86.61,50v-100h-25Z"/><path class="cls-2" d="M635.93,345.46a24.94,24.94,0,0,0-21.31,12.3l-27.79-16.05-12.5,21.66,86.6,50v-100h-25Z"/><polygon class="cls-2" points="247.84 778.86 271.22 778.86 271.22 738.37 247.84 778.86"/><path class="cls-2" d="M271.21,613.36a25,25,0,0,0-25,25h-18.3v25h86.6v-25h-18.3A25,25,0,0,0,271.21,613.36Z"/><path class="cls-2" d="M487.72,438.37h-18.3a25,25,0,0,0-50,0h-18.3v25h86.6Z"/><path class="cls-2" d="M531,163.37v25h86.6v-25h-18.3a25,25,0,0,0-50,0Z"/><path class="cls-2" d="M141.31,13.37v25h86.61v-25h-18.3A24.91,24.91,0,0,0,205.74,0H163.49a24.9,24.9,0,0,0-3.87,13.37Z"/><path class="cls-2" d="M834.13,538.36a25,25,0,0,0-25,25h-18.3v25h86.6v-25h-18.3A25,25,0,0,0,834.13,538.36Z"/><path class="cls-2" d="M877.43,713.36a25,25,0,0,0-25,25h-18.3v25h86.6v-25h-18.3A25,25,0,0,0,877.43,713.36Z"/><path class="cls-2" d="M1025.64,113.36h-18.31v25h31.15V91.52A25,25,0,0,0,1025.64,113.36Z"/><path class="cls-2" d="M1007.33,463.36a25,25,0,0,0-25,25H964v25h74.45v-25h-6.15A25,25,0,0,0,1007.33,463.36Z"/><polygon class="cls-2" points="314.52 338.37 289.52 338.37 289.52 438.37 357.82 438.37 357.82 413.37 314.52 413.37 314.52 338.37"/><polygon class="cls-2" points="660.92 88.37 660.92 188.37 729.23 188.37 729.23 163.37 685.93 163.37 685.93 88.37 660.92 88.37"/><polygon class="cls-2" points="642.63 763.37 642.63 688.36 617.62 688.36 617.62 778.86 685.92 778.86 685.92 763.37 642.63 763.37"/><rect class="cls-2" x="574.32" y="763.36" width="25" height="15.5"/><rect class="cls-2" x="141.31" y="263.36" width="86.6" height="25"/><rect class="cls-2" x="98.01" y="663.36" width="86.6" height="25"/><rect class="cls-2" x="11.41" y="563.37" width="86.6" height="25"/><rect class="cls-2" x="227.91" y="538.36" width="86.6" height="25"/><rect class="cls-2" x="98.01" y="713.36" width="86.6" height="25"/><rect class="cls-2" x="660.92" y="213.37" width="86.6" height="25"/><rect class="cls-2" x="704.23" y="88.37" width="86.6" height="25"/><rect class="cls-2" x="660.92" y="263.37" width="86.6" height="25"/><rect class="cls-2" x="964.03" y="13.36" width="74.45" height="25"/><rect class="cls-2" x="790.83" y="613.36" width="86.6" height="25"/><rect class="cls-2" x="660.93" y="563.37" width="86.6" height="25"/><rect class="cls-2" x="444.42" y="688.36" width="86.6" height="25"/><rect class="cls-2" x="357.82" y="113.37" width="86.6" height="25"/><rect class="cls-2" x="401.12" y="288.36" width="86.6" height="25"/><rect class="cls-2" x="227.91" y="213.36" width="86.6" height="25"/><path class="cls-2" d="M227.91,426.76v86.6h50v-18.3a25,25,0,0,0,0-50v-18.3Z"/><path class="cls-2" d="M61.41,506.67a25,25,0,1,0,0-50v-18.3h-50V525h50Z"/><path class="cls-2" d="M884.13,131.67a25,25,0,1,0,0-50V63.37h-50V150h50Z"/><path class="cls-2" d="M710.93,645.06v-18.3h-50v86.61h50V695.06a25,25,0,0,0,0-50Z"/><rect class="cls-2" x="54.71" y="763.37" width="50" height="15.5"/><rect class="cls-2" x="1007.33" y="613.36" width="31.15" height="86.6"/><path class="cls-2" d="M790.83,38.36V20.06A25,25,0,0,0,815.34,0H740.83V38.36Z"/><polygon class="cls-2" points="940.65 778.86 987.42 778.86 964.04 738.37 940.65 778.86"/><path class="cls-2" d="M23.71,709.68l16,27.79L61.41,725l-50-86.6L0,658.12v52a24.93,24.93,0,0,0,23.71-.47Z"/><path class="cls-2" d="M935.69,437.47l16-27.79a25,25,0,0,0,24.61,0l16,27.79L1014,425l-50-86.6L914,425Z"/><path class="cls-2" d="M437.72,650l21.66,12.5,16-27.79a25,25,0,0,0,24.61,0l16,27.79L537.72,650l-50-86.6Z"/><path class="cls-2" d="M957.33,250,979,262.47l16-27.79a25,25,0,0,0,24.61,0l16,27.79,2.8-1.62V217.32l-31.15-54Z"/><path class="cls-2" d="M416.07,37.47l16-27.79a25,25,0,0,0,12.31,3.24,24.85,24.85,0,0,0,12.3-3.24l16,27.79L494.42,25,480,0H408.83L394.42,25Z"/><path class="cls-2" d="M357.82,688.36l-50,86.61,6.74,3.89h19.87l11.08-19.18a25,25,0,0,0,24.61,0l11.08,19.18h19.87l6.75-3.89Z"/><polygon class="cls-2" points="531.03 288.37 574.33 263.37 602.68 214.26 581.02 201.76 531.03 288.37"/><polygon class="cls-2" points="574.32 313.37 617.62 288.36 645.97 239.26 624.32 226.76 574.32 313.37"/><polygon class="cls-2" points="256.26 714.26 234.61 701.76 190.1 778.86 201.07 778.86 227.91 763.36 256.26 714.26"/><polygon class="cls-2" points="495.19 751.76 479.55 778.86 508.42 778.86 516.85 764.26 495.19 751.76"/><polygon class="cls-2" points="559.37 39.26 537.72 26.76 487.72 113.37 531.02 88.36 559.37 39.26"/><polygon class="cls-2" points="920.73 713.36 964.03 688.36 992.38 639.26 970.73 626.76 920.73 713.36"/><polygon class="cls-2" points="357.82 638.37 401.12 613.36 429.47 564.26 407.81 551.76 357.82 638.37"/><polygon class="cls-2" points="357.81 38.36 379.97 0 351.1 0 314.51 63.37 357.81 38.36"/><polygon class="cls-2" points="314.51 13.36 322.23 0 293.36 0 271.21 38.37 314.51 13.36"/><polygon class="cls-2" points="862.48 214.26 840.83 201.76 790.83 288.36 834.13 263.36 862.48 214.26"/><polygon class="cls-2" points="920.73 13.36 928.45 0 899.58 0 877.43 38.37 920.73 13.36"/><polygon class="cls-2" points="857.27 0 841.85 0 834.13 13.36 857.27 0"/><polygon class="cls-2" points="342.87 264.26 321.22 251.76 271.22 338.37 314.52 313.37 342.87 264.26"/><polygon class="cls-2" points="314.52 163.36 342.87 114.26 321.22 101.76 271.22 188.37 314.52 163.36"/></g></g></svg>