<svg xmlns="http://www.w3.org/2000/svg" viewBox="0 0 1038.48 778.86"><defs><style>.cls-1{fill:none;}.cls-2{fill:lime;}</style></defs><title>Element 55</title><g id="Ebene_2" data-name="Ebene 2"><g id="Ebene_1-2" data-name="Ebene 1"><polygon class="cls-1" points="918.9 11.53 925.56 0 902.47 0 884.26 31.54 918.9 11.53"/><path class="cls-1" d="M11.56,0H0V0L7.6,4.41A27.67,27.67,0,0,1,11.56,0Z"/><polygon class="cls-1" points="593.59 35 556.09 99.95 573.41 109.95 620.91 27.68 572.97 0 563.8 0 556.09 13.35 593.59 35"/><path class="cls-1" d="M52.21,0H20.59a21.19,21.19,0,0,0-1.9,1A22.44,22.44,0,0,0,10.56,9L9.3,11.17,0,5.8V28.89L52.21,59Z"/><polygon class="cls-1" points="0 273.6 0 292.07 8 287.45 0 273.6"/><path class="cls-1" d="M162.12,15.87H143.81v20h81.61v-20h-18.3v-2.5A22.39,22.39,0,0,0,202.7,0H166.53a22.38,22.38,0,0,0-4.41,13.37Z"/><polygon class="cls-1" points="312.68 11.53 319.34 0 296.25 0 278.04 31.53 312.68 11.53"/><path class="cls-1" d="M788.33,35.86V17.56h2.5A22.54,22.54,0,0,0,812.78,0H743.33V35.86Z"/><rect class="cls-1" x="966.53" y="15.86" width="71.95" height="20"/><path class="cls-1" d="M9.25,239.62A22.34,22.34,0,0,0,0,230.84v40.1l1-.59A22.53,22.53,0,0,0,9.25,239.62Z"/><polygon class="cls-1" points="852.27 0 844.73 0 840.96 6.53 852.27 0"/><polygon class="cls-1" points="355.98 36.53 377.08 0 353.99 0 321.35 56.53 355.98 36.53"/><path class="cls-1" d="M415.15,34.05l16-27.77,2.16,1.22a22.44,22.44,0,0,0,11.07,2.92A22.47,22.47,0,0,0,455.49,7.5l2.16-1.22,16,27.77,17.32-10L477.12,0h-65.4L397.83,24.05Z"/><rect class="cls-1" x="576.82" y="765.86" width="20" height="13"/><path class="cls-1" d="M357.82,693.36l-46.59,80.69,8.33,4.81h12l13-22.58,2.15,1.22a22.46,22.46,0,0,0,22.15,0l2.15-1.22,13,22.58h12l8.33-4.81Z"/><path class="cls-1" d="M346.49,763l-9.17,15.88h41L369.14,763A27.92,27.92,0,0,1,346.49,763Z"/><polygon class="cls-1" points="496.11 755.18 482.44 778.86 505.53 778.86 513.43 765.18 496.11 755.18"/><polygon class="cls-1" points="250.73 778.86 268.72 778.86 268.72 747.7 250.73 778.86"/><path class="cls-1" d="M11.41,710.42a22.5,22.5,0,0,0,11.07-2.92l2.15-1.22,16,27.77,17.32-10L11.41,643.37,0,663.12v44.19l.33.19A22.51,22.51,0,0,0,11.41,710.42Z"/><rect class="cls-1" x="57.21" y="765.87" width="45" height="13"/><polygon class="cls-1" points="252.85 715.18 235.53 705.18 192.98 778.86 196.07 778.86 226.08 761.53 252.85 715.18"/><path class="cls-1" d="M1029.83,488.36a22.5,22.5,0,0,0-45,0v2.5h-18.3v20h72v-20h-8.65Z"/><path class="cls-1" d="M1017.74,281.38l-2.17,1.25-9.15-15.85-39,22.5,40.8,70.67,30.23-17.45V322.31l-.41-.71.41-.24V280.48a22.63,22.63,0,0,0-3.67-1.35A22.39,22.39,0,0,0,1017.74,281.38Z"/><path class="cls-1" d="M1028.14,113.36v2.5h-18.31v20h28.65V94.44A22.51,22.51,0,0,0,1028.14,113.36Z"/><path class="cls-1" d="M960.75,249.05l17.32,10,16-27.77,2.16,1.22a22.44,22.44,0,0,0,22.14,0l2.16-1.22,16,27.77,1.88-1.09V222.32l-31.15-54Z"/><polygon class="cls-1" points="640.13 765.87 640.13 690.86 620.12 690.86 620.12 778.86 683.42 778.86 683.42 765.87 640.13 765.87"/><rect class="cls-1" x="1009.83" y="615.86" width="28.65" height="81.6"/><polygon class="cls-1" points="943.54 778.86 984.53 778.86 964.04 743.37 943.54 778.86"/><polygon class="cls-1" points="1010.75 762.45 1038.48 778.46 1038.48 755.37 1020.75 745.13 1010.75 762.45"/><path class="cls-1" d="M934.77,434.05l16-27.77L953,407.5a22.46,22.46,0,0,0,22.15,0l2.15-1.22,16,27.77,17.32-10L964,343.37l-46.59,80.68Z"/><polygon class="cls-1" points="312.69 311.54 339.45 265.18 322.13 255.18 278.05 331.54 312.69 311.54"/><rect class="cls-1" x="230.41" y="540.86" width="81.6" height="20"/><rect class="cls-1" x="175.06" y="333.39" width="20" height="81.6" transform="translate(-231.53 347.37) rotate(-60)"/><path class="cls-1" d="M293.71,638.36a22.5,22.5,0,0,0-45,0v2.5h-18.3v20H312v-20h-18.3Z"/><rect class="cls-1" x="143.81" y="265.86" width="81.6" height="20"/><polygon class="cls-1" points="784.81 715.87 738.45 742.63 748.45 759.95 824.8 715.87 784.81 715.87"/><polygon class="cls-1" points="350.21 596.55 397.71 514.28 342.89 482.63 332.89 499.95 370.38 521.6 332.88 586.55 350.21 596.55"/><polygon class="cls-1" points="619.46 540.2 592.69 586.55 610.01 596.55 654.1 520.2 619.46 540.2"/><polygon class="cls-1" points="582.56 632.63 545.06 567.68 527.74 577.68 575.24 659.95 630.06 628.3 620.06 610.98 582.56 632.63"/><polygon class="cls-1" points="399.29 611.53 426.05 565.18 408.73 555.18 364.65 631.53 399.29 611.53"/><path class="cls-1" d="M710.93,647.56h-2.5v-18.3h-45v81.61h45V692.56h2.5a22.5,22.5,0,0,0,0-45Z"/><path class="cls-1" d="M441.14,649.05l17.32,10,16-27.77,2.16,1.22a22.46,22.46,0,0,0,22.15,0l2.15-1.22,16,27.78,17.32-10-46.59-80.68Z"/><rect class="cls-1" x="446.92" y="690.86" width="81.6" height="20"/><rect class="cls-1" x="230.41" y="215.86" width="81.6" height="20"/><polygon class="cls-1" points="572.5 261.54 599.26 215.18 581.94 205.18 537.86 281.54 572.5 261.54"/><path class="cls-1" d="M382.84,399.9l70.67-40.8-10-17.32-15.85,9.15-1.25-2.16a22.5,22.5,0,1,0-39,22.5l1.25,2.16-15.85,9.15Z"/><polygon class="cls-1" points="615.79 286.53 642.56 240.18 625.24 230.18 581.15 306.53 615.79 286.53"/><rect class="cls-1" x="521.47" y="333.39" width="20" height="81.6" transform="translate(-58.32 647.37) rotate(-60)"/><rect class="cls-1" x="663.42" y="265.87" width="81.6" height="20"/><path class="cls-1" d="M575.24,416.78l-40.8,70.67,39,22.5,9.15-15.85,2.17,1.25a22.5,22.5,0,0,0,22.5-39l-2.17-1.25,9.15-15.85Z"/><path class="cls-1" d="M275.41,492.56h2.5a22.5,22.5,0,0,0,0-45h-2.5v-18.3h-45v81.6h45Z"/><path class="cls-1" d="M466.92,438.37a22.5,22.5,0,0,0-45,0v2.5h-18.3v20h81.6v-20h-18.3Z"/><path class="cls-1" d="M254.1,349.62a22.5,22.5,0,1,0-39-22.5l-1.25,2.16L198,320.13l-10,17.32,70.67,40.8,10-17.32-15.85-9.15Z"/><polygon class="cls-1" points="312.02 340.87 292.02 340.87 292.02 435.87 355.32 435.87 355.32 415.87 312.02 415.87 312.02 340.87"/><rect class="cls-1" x="403.62" y="290.86" width="81.6" height="20"/><rect class="cls-1" x="465.67" y="480.04" width="20" height="81.6" transform="translate(-213.22 672.37) rotate(-60)"/><path class="cls-1" d="M624.9,351a22.51,22.51,0,0,0-8.13,8.06l-1.25,2.13-27.78-16-10,17.32L658.43,409V315.87h-20v32.07L636,348A22.49,22.49,0,0,0,624.9,351Z"/><path class="cls-1" d="M267.8,137.45l-9.15-15.85,2.17-1.25a22.5,22.5,0,1,0-22.5-39l-2.17,1.25L227,66.78l-39,22.5L228.83,160Z"/><path class="cls-1" d="M108.41,120.35a22.5,22.5,0,1,0,22.5-39l-2.16-1.25,9.15-15.85-39-22.5-40.8,70.67,39,22.5,9.15-15.85Z"/><polygon class="cls-1" points="77.21 165.87 57.21 165.87 57.21 254.04 77.21 219.4 77.21 165.87"/><rect class="cls-1" x="360.32" y="115.87" width="81.6" height="20"/><polygon class="cls-1" points="312.69 161.53 339.45 115.18 322.13 105.18 278.05 181.53 312.69 161.53"/><polygon class="cls-1" points="13.91 179.04 33.91 144.4 33.91 90.87 13.91 90.87 13.91 179.04"/><rect class="cls-1" x="13.91" y="565.87" width="81.6" height="20"/><path class="cls-1" d="M52.6,340.57l1.26,2.13A22.46,22.46,0,0,0,73,353.78l2.48,0v32.07h20V292.7L14.83,339.28l10,17.32Z"/><polygon class="cls-1" points="91.99 615.87 45.63 642.63 55.63 659.95 131.98 615.87 91.99 615.87"/><path class="cls-1" d="M52.21,760.87h55v18h80l46.49-80.51,26,15-29.94,51.84-23.67,13.67H245L273.72,729v49.82h35.84l-5.16-3,53.42-92.52,53.41,92.52-5.16,3h70.59l17.62-30.51,26,15-9,15.51h60.52v-18h30v18h13.3v-93h30v75h43.3v18H937.77L964,733.37l26.26,45.49h38.88l-25.26-14.58,15-26,19.56,11.29V702.47h-33.65V610.86h33.65v-95h-77v-30H980a27.5,27.5,0,0,1,54.77,0h3.76V348.27l-32.06,18.51-45.8-79.33,47.63-27.5,9.21,15.95a27.27,27.27,0,0,1,18.64-1.6c.81.22,1.61.48,2.38.76V263.74l-3.71,2.14L1018.66,238A27.92,27.92,0,0,1,996,238l-16.11,27.9-26-15,53.41-92.52,31.15,54V140.86h-33.65v-30h18.42a27.57,27.57,0,0,1,15.23-22.16V40.86h-77v-30h77V0H931.34l-8.78,15.19-52,30L896.7,0H862.27l-35,20.2L839,0H817.89a27.57,27.57,0,0,1-24.56,22.45V40.86h-55V0H583l44.77,25.85-52.5,90.93-26-15,37.5-64.95-37.5-21.65L558,0H482.89l14.94,25.88-26,15L455.74,13a27.92,27.92,0,0,1-22.65,0L417,40.88l-26-15L406,0h-23.1L359.64,40.19l-51.95,30L348.21,0H325.12l-8.78,15.19-52,30L290.48,0H208.64A27.17,27.17,0,0,1,212,10.87h18.42v30H138.81v-30h18.42A27.17,27.17,0,0,1,160.59,0H57.21V67.7L0,34.67V225.35a27.27,27.27,0,0,1,13.58,11.77,27.53,27.53,0,0,1-8,36.21l9.21,15.95L0,297.84V653.12l11.41-19.75,53.41,92.51-26,15L22.73,713A27.92,27.92,0,0,1,.08,713l-.08.14v65.74H52.21Zm909.33-675h30v59.86l-30,52Zm-774.43,655H95.51v-30h91.6Zm0-50H95.51v-30h91.6Zm0-98.16L94.6,539.28l15-26,27.91,16.11a27.49,27.49,0,0,1,19.61-11.32V485.87h30ZM108.7,485.08l-15-26L173,413.3l15,26ZM396.35,221.64a27.51,27.51,0,0,1,8.58,7.77l27.91-16.11,15,26L355.32,292.7V185.87h30v32.22A27.42,27.42,0,0,1,396.35,221.64Zm335.38-60.77v30H658.42v-105h30v75Zm18.3,50v30H658.42v-30ZM924.15,312.45l-15,26-79.33-45.8,15-26,15.95,9.21a27.5,27.5,0,0,1,47.43,27.38ZM633.43,465.87v-30h73.3v105h-30v-75Zm116.6,95v30h-91.6v-30Zm29.55-105.39a27.26,27.26,0,0,1-13.7,3.68,27.54,27.54,0,0,1-22.51-11.63l-16,9.2-15-26L791.75,385l15,26-16,9.21A27.53,27.53,0,0,1,779.58,455.48ZM738.2,515.87,835.05,460l15,26L798.2,515.86Zm50.13,95h91.6v30h-91.6Zm43.3,50h91.6v30h-91.6Zm48.3-70h-91.6v-30h18.41a27.5,27.5,0,0,1,54.78,0h18.41ZM818.22,385.93l15-26,79.33,45.8-15,26Zm62.63-48.48-15,26-79.33-45.8,15-26Zm-80.69-1.58-96.84,55.91-15-26,51.84-29.93Zm-50.13-75v30H658.42v-30Zm-86.6,50V417.7l-92.52-53.42,15-26,27.91,16.11a27.49,27.49,0,0,1,19.61-11.32V310.87ZM619.79,489.62a27.5,27.5,0,0,1-35.34,11.22l-9.21,15.94-47.63-27.5L573.41,410,621,437.45l-9.2,15.95A27.54,27.54,0,0,1,619.79,489.62Zm-.34-199.43-52,30,55.92-96.85,26,15Zm-43.3-25-52,30,55.92-96.85,26,15Zm2.49,118.9-15,26-79.33-45.8,15-26ZM380.36,352.9a27.5,27.5,0,0,1,49-8.74L445.34,335l15,26L381,406.73l-15-26,15.94-9.2A27.35,27.35,0,0,1,380.36,352.9Zm18.26,83H417a27.5,27.5,0,0,1,54.77,0h18.41v30h-91.6ZM443.51,485l79.33,45.8-15,26-79.33-45.8Zm46.71-169.09h-91.6v-30h91.6Zm-129.9,95v30H287v-105h30v75ZM275.53,359.1l-15,26-79.33-45.8,15-26,16,9.21a27.5,27.5,0,0,1,47.43,27.38Zm4.88,65.16v18.42a27.5,27.5,0,0,1,0,54.77v18.41h-55v-91.6ZM316.35,315.2l-52,30,55.91-96.85,26,15Zm.66-74.34h-91.6v-30H317Zm-86.6,20v30h-91.6v-30Zm-43.29-20h-30V208.64a27.45,27.45,0,0,1-19.61-11.32l-27.9,16.11-15-26L187.12,134ZM137.9,364.28l15-26,79.33,45.8-15,26ZM317,665.86h-91.6v-30h18.42a27.5,27.5,0,0,1,54.77,0H317Zm0-100h-91.6v-30H317Zm9.05-64.08,15-26,63.48,36.65L352,603.38l-26-15,37.5-65Zm76.88,113.41-52,30,55.92-96.85,26,15ZM533.52,715.86h-91.6v-30h91.6Zm-18.36-50L499.05,638a27.92,27.92,0,0,1-22.65,0l-16.11,27.9-26-15,53.41-92.51,53.42,92.51Zm58.25.89-52.5-90.93,26-15,37.5,64.95,37.5-21.65,15,26Zm38.44-63.4-26-15,29.94-51.84,52-30Zm101.58,94.07v18.42h-55V624.26h55v18.42a27.5,27.5,0,0,1,0,54.77Zm18.19,43.35,51.85-29.93h60l-96.85,55.91Zm191.61,25.06h-91.6v-30H850a27.5,27.5,0,0,1,54.78,0h18.41Zm42.63-75.67-52,30,55.91-96.84,26,15ZM980.7,575.86l15.95-9.21,15,26-79.33,45.8-15-26,15.95-9.21a27.5,27.5,0,0,1,47.43-27.38Zm-13.25-36.58-47.63,27.5-9.21-15.95a27.5,27.5,0,0,1-27.38-47.43L874,487.45,921.65,460ZM964,333.37l53.41,92.51-26,15L975.36,413a27.92,27.92,0,0,1-22.65,0l-16.11,27.9-26-15Zm-15.81-172.5v59.87l-30,52V160.87Zm-116.6-100h55V79.28a27.5,27.5,0,0,1,0,54.77v18.42h-55Zm8.28,137.48,26,15L836,265.19l-52,30Zm-21.58-62.48v59.86l-30,52V135.87Zm-25-50v30h-91.6v-30ZM692.65,13.3l15,26-79.33,45.8-15-26ZM574.32,135.87a27.54,27.54,0,0,1,27.39,25h18.41v30h-91.6v-30h18.42A27.52,27.52,0,0,1,574.32,135.87ZM536.81,23.35l26,15L532.85,90.19l-52,30ZM515.23,160.87v105h-30v-75h-43.3v-30ZM355.32,61.76h91.6v30h-91.6Zm0,49.11h91.6v30h-91.6Zm-35-12.52,26,15-29.93,51.84-52,30ZM228.83,60l9.21,16a27.5,27.5,0,0,1,27.39,47.43l9.2,16L227,166.78,181.2,87.45ZM97.1,35l47.63,27.5-9.21,16a27.5,27.5,0,0,1-27.38,47.43l-9.21,16L51.3,114.28ZM82.21,160.87v59.87l-30,52V160.87ZM8.91,197.7V85.87h30v59.87ZM100.51,284V390.87h-30V358.64A27.45,27.45,0,0,1,50.9,347.32L23,363.43l-15-26ZM8.91,435.87h55v18.41a27.5,27.5,0,0,1,0,54.77v18.42h-55Zm0,155v-30h91.6v30ZM53.8,666.78l-15-26,51.85-29.93h60Z"/><path class="cls-1" d="M899.93,738.36a22.5,22.5,0,0,0-45,0v2.5h-18.3v20h81.6v-20h-18.3Z"/><path class="cls-1" d="M83.91,481.67a22.53,22.53,0,0,0-22.5-22.5h-2.5v-18.3h-45v81.6h45v-18.3h2.5A22.53,22.53,0,0,0,83.91,481.67Z"/><rect class="cls-1" x="360.32" y="66.76" width="81.6" height="20"/><polygon class="cls-1" points="943.23 219.4 943.23 165.87 923.23 165.87 923.23 254.04 943.23 219.4"/><path class="cls-1" d="M906.63,106.67a22.52,22.52,0,0,0-22.5-22.5h-2.5V65.87h-45v81.6h45v-18.3h2.5A22.53,22.53,0,0,0,906.63,106.67Z"/><polygon class="cls-1" points="832.3 261.53 859.07 215.18 841.74 205.18 797.66 281.53 832.3 261.53"/><polygon class="cls-1" points="490.22 260.87 510.23 260.87 510.23 165.87 446.92 165.87 446.92 185.87 490.22 185.87 490.22 260.87"/><path class="cls-1" d="M938.75,603l1.25,2.16-15.85,9.15,10,17.32,70.67-40.8-10-17.32L979,582.63l-1.25-2.17a22.5,22.5,0,0,0-39,22.51Z"/><polygon class="cls-1" points="962.2 686.53 988.97 640.18 971.64 630.18 927.56 706.53 962.2 686.53"/><path class="cls-1" d="M880.85,489.28,890,505.13l-2.17,1.25a22.5,22.5,0,0,0,22.5,39l2.17-1.25L921.65,560l39-22.5-40.8-70.67Z"/><polygon class="cls-1" points="813.33 194.4 813.33 140.87 793.33 140.87 793.33 229.03 813.33 194.4"/><polygon class="cls-1" points="538.64 30.18 494.55 106.53 529.19 86.53 555.96 40.18 538.64 30.18"/><path class="cls-1" d="M533.52,185.87h81.6v-20h-18.3v-2.5a22.5,22.5,0,0,0-45,0v2.5h-18.3Z"/><rect class="cls-1" x="619.68" y="39.19" width="81.6" height="20" transform="translate(63.89 336.83) rotate(-30)"/><rect class="cls-1" x="706.73" y="90.87" width="81.6" height="20"/><path class="cls-1" d="M111.43,206.6l27.77-16,1.26,2.13a22.46,22.46,0,0,0,19.18,11.08l2.47,0v32.07h20V142.7l-80.69,46.58Z"/><rect class="cls-1" x="793.33" y="615.86" width="81.6" height="20"/><path class="cls-1" d="M902.72,303a22.5,22.5,0,0,0-39-22.49l-1.25,2.16-15.85-9.15-10,17.32,70.67,40.8,10-17.32-15.85-9.15Z"/><rect class="cls-1" x="663.42" y="215.87" width="81.6" height="20"/><rect class="cls-1" x="100.51" y="665.86" width="81.6" height="20"/><polygon class="cls-1" points="833.22 466.78 756.86 510.87 796.86 510.86 843.22 484.1 833.22 466.78"/><path class="cls-1" d="M856.63,563.36a22.5,22.5,0,0,0-45,0v2.5h-18.3v20h81.6v-20h-18.3Z"/><rect class="cls-1" x="100.06" y="439.19" width="81.6" height="20" transform="translate(-205.73 130.61) rotate(-30)"/><rect class="cls-1" x="836.63" y="665.87" width="81.6" height="20"/><path class="cls-1" d="M380.32,222.94V190.87h-20V284L441,237.45l-10-17.32-27.77,16L402,234A22.48,22.48,0,0,0,382.8,223Z"/><polygon class="cls-1" points="683.43 90.87 663.42 90.87 663.42 185.87 726.73 185.87 726.73 165.87 683.43 165.87 683.43 90.87"/><polygon class="cls-1" points="681.73 535.87 701.73 535.87 701.73 440.87 638.43 440.87 638.43 460.87 681.73 460.87 681.73 535.87"/><polygon class="cls-1" points="966.54 179.03 986.53 144.4 986.54 90.87 966.54 90.87 966.54 179.03"/><rect class="cls-1" x="663.43" y="565.87" width="81.6" height="20"/><rect class="cls-1" x="823.69" y="286.74" width="20" height="81.6" transform="translate(133.18 885.76) rotate(-60)"/><rect class="cls-1" x="855.38" y="355.04" width="20" height="81.6" transform="translate(89.89 947.37) rotate(-60)"/><polygon class="cls-1" points="705.15 384.95 781.5 340.87 741.5 340.87 695.15 367.63 705.15 384.95"/><rect class="cls-1" x="100.51" y="715.86" width="81.6" height="20"/><path class="cls-1" d="M148.59,526a22.44,22.44,0,0,0-8.13,8.06l-1.26,2.14-27.77-16-10,17.32L182.12,584V490.87h-20v32.07l-2.48,0A22.49,22.49,0,0,0,148.59,526Z"/><path class="cls-1" d="M789.92,391.78l-70.67,40.8,10,17.32,15.85-9.15,1.25,2.17a22.5,22.5,0,0,0,39-22.5l-1.25-2.17,15.85-9.15Z"/><path class="cls-2" d="M446.92,61.76h-91.6v30h91.6Zm-5,25h-81.6v-20h81.6Z"/><path class="cls-2" d="M441.92,190.87h43.3v75h30v-105H441.92Zm5-25h63.31v95h-20v-75h-43.3Z"/><path class="cls-2" d="M706.73,540.87v-105h-73.3v30h43.3v75Zm-68.3-80v-20h63.3v95h-20v-75Z"/><path class="cls-2" d="M923.23,660.87h-91.6v30h91.6Zm-5,25h-81.6v-20h81.6Z"/><path class="cls-2" d="M615.8,536.54l-29.94,51.84,26,15,55.91-96.84Zm-5.78,60-17.33-10,26.77-46.35,34.64-20Z"/><path class="cls-2" d="M897,267.9a27.53,27.53,0,0,0-36.21,8l-15.95-9.21-15,26,79.33,45.8,15-26-15.95-9.21A27.53,27.53,0,0,0,897,267.9Zm20.34,46.38-10,17.32-70.67-40.8,10-17.32,15.85,9.15,1.25-2.16a22.5,22.5,0,0,1,39,22.49l-1.25,2.17Z"/><path class="cls-2" d="M248.37,314.55a27.54,27.54,0,0,0-36.22,8l-16-9.21-15,26,79.33,45.8,15-26-15.95-9.21A27.52,27.52,0,0,0,248.37,314.55Zm20.33,46.38-10,17.32L188,337.45l10-17.32,15.85,9.15,1.25-2.16a22.5,22.5,0,1,1,39,22.5l-1.25,2.16Z"/><path class="cls-2" d="M484.31,364.28l79.33,45.8,15-26-79.33-45.8Zm87.5,21.65-10,17.32-70.67-40.8,10-17.32Z"/><path class="cls-2" d="M108.14,125.83A27.5,27.5,0,0,0,135.52,78.4l9.21-16L97.1,35,51.3,114.28l47.63,27.5Zm-50-13.38,40.8-70.67,39,22.5-9.15,15.85,2.16,1.25a22.5,22.5,0,1,1-22.5,39l-2.16-1.25L97.1,135Z"/><path class="cls-2" d="M573.41,410l-45.8,79.33,47.63,27.5,9.21-15.94a27.5,27.5,0,0,0,27.39-47.44l9.2-15.95Zm33.82,46.43a22.5,22.5,0,1,1-22.5,39l-2.17-1.25L573.41,510l-39-22.5,40.8-70.67,39,22.5-9.15,15.85Z"/><path class="cls-2" d="M109.6,213.43l27.9-16.11a27.45,27.45,0,0,0,19.61,11.32v32.23h30V134L94.6,187.45Zm72.52,22.44h-20V203.8l-2.47,0a22.46,22.46,0,0,1-19.18-11.08l-1.26-2.13-27.77,16-10-17.32,80.69-46.58Z"/><path class="cls-2" d="M50.9,347.32a27.45,27.45,0,0,0,19.61,11.32v32.23h30V284L8,337.45l15,26ZM95.51,292.7v93.17h-20V353.8l-2.48,0A22.46,22.46,0,0,1,53.86,342.7l-1.26-2.13-27.77,16-10-17.32Z"/><path class="cls-2" d="M850.05,485.93l-15-26L738.2,515.87h60Zm-93.19,24.94,76.36-44.09,10,17.32-46.36,26.76Z"/><polygon class="cls-2" points="586.76 36.83 549.26 101.78 575.24 116.78 627.74 25.85 582.97 0 572.97 0 620.91 27.68 573.41 109.95 556.09 99.95 593.59 35 556.09 13.35 563.8 0 558.02 0 549.26 15.18 586.76 36.83"/><path class="cls-2" d="M352,603.38l52.5-90.93L341.06,475.8l-15,26,37.5,21.65-37.5,65ZM332.89,500l10-17.32,54.82,31.65-47.5,82.27-17.32-10,37.5-64.95Z"/><path class="cls-2" d="M912.55,405.75,833.22,360l-15,26,79.33,45.8Zm-87.5-21.65,10-17.32,70.67,40.8-10,17.32Z"/><path class="cls-2" d="M786.52,317.63l79.33,45.8,15-26-79.33-45.8ZM874,339.28,864,356.6l-70.67-40.8,10-17.32Z"/><polygon class="cls-2" points="1003.92 764.28 1029.18 778.86 1038.48 778.86 1038.48 778.46 1010.75 762.45 1020.75 745.13 1038.48 755.37 1038.48 749.59 1018.92 738.3 1003.92 764.28"/><path class="cls-2" d="M152.9,338.3l-15,26,79.33,45.8,15-26Zm62.5,64.95-70.67-40.8,10-17.32,70.67,40.8Z"/><path class="cls-2" d="M522.84,530.75,443.51,485l-15,26,79.33,45.8Zm-87.5-21.65,10-17.32L516,532.58,506,549.9Z"/><path class="cls-2" d="M355.32,185.87V292.7l92.52-53.42-15-26-27.91,16.11a27.49,27.49,0,0,0-19.61-11.32V185.87ZM393.85,226A22.44,22.44,0,0,1,402,234l1.26,2.14,27.77-16,10,17.32L360.32,284V190.87h20v32.07l2.48,0A22.49,22.49,0,0,1,393.85,226Z"/><path class="cls-2" d="M783.47,710.87,731.62,740.8l15,26,96.85-55.91Zm-45,31.76,46.36-26.76h40L748.45,760Z"/><path class="cls-2" d="M688.32,365.8l15,26,96.84-55.91h-60Zm93.18-24.93L705.15,385l-10-17.32,46.35-26.76Z"/><path class="cls-2" d="M90.65,610.87,38.8,640.8l15,26,96.85-55.91Zm-45,31.76L92,615.87h40L55.63,660Z"/><path class="cls-2" d="M381,406.73l79.33-45.8-15-26-15.95,9.21A27.5,27.5,0,0,0,382,371.55L366,380.75Zm6.43-35.46a22.5,22.5,0,1,1,39-22.5l1.25,2.16,15.85-9.15,10,17.32-70.67,40.8-10-17.32,15.85-9.15Z"/><path class="cls-2" d="M944.48,567.9a27.53,27.53,0,0,0-11.21,35.34l-15.95,9.21,15,26,79.33-45.8-15-26-15.95,9.21A27.54,27.54,0,0,0,944.48,567.9Zm33.24,12.56,1.25,2.17,15.85-9.15,10,17.32-70.67,40.8-10-17.32L940,605.13,938.75,603a22.5,22.5,0,0,1,39-22.51Z"/><path class="cls-2" d="M584.39,625.8l-37.5-64.95-26,15,52.5,90.93,63.48-36.65-15-26ZM575.24,660l-47.5-82.27,17.32-10,37.5,65L620.06,611l10,17.32Z"/><path class="cls-2" d="M707.65,39.28l-15-26L613.32,59.1l15,26ZM690.82,20.13l10,17.32-70.67,40.8-10-17.32Z"/><path class="cls-2" d="M5.62,273.33a27.53,27.53,0,0,0,8-36.21A27.27,27.27,0,0,0,0,225.35v5.49a22.34,22.34,0,0,1,9.25,8.78A22.53,22.53,0,0,1,1,270.35l-1,.59v2.66l8,13.85-8,4.62v5.77l14.83-8.56Z"/><polygon class="cls-2" points="1038.48 322.31 1038.48 321.36 1038.07 321.6 1038.48 322.31"/><path class="cls-2" d="M1017.46,275.9,1008.25,260l-47.63,27.5,45.8,79.33,32.06-18.51V342.5L1008.25,360l-40.8-70.67,39-22.5,9.15,15.85,2.17-1.25a22.39,22.39,0,0,1,17.07-2.25,22.63,22.63,0,0,1,3.67,1.35v-5.42c-.77-.28-1.57-.54-2.38-.76A27.27,27.27,0,0,0,1017.46,275.9Z"/><path class="cls-2" d="M274.63,139.28l-9.2-16A27.5,27.5,0,0,0,238,75.9l-9.21-16L181.2,87.45,227,166.78ZM227,66.78l9.15,15.85,2.17-1.25a22.5,22.5,0,0,1,22.5,39l-2.17,1.25,9.15,15.85-39,22.5L188,89.28Z"/><path class="cls-2" d="M788.33,247.7l30-52V135.87h-30Zm25-106.83V194.4l-20,34.64V140.87Z"/><path class="cls-2" d="M991.54,85.87h-30V197.7l30-52Zm-5,58.52-20,34.64V90.87h20Z"/><path class="cls-2" d="M948.23,220.74V160.87h-30V272.7Zm-5-54.87V219.4l-20,34.64V165.87Z"/><path class="cls-2" d="M82.21,220.74V160.87h-30V272.7Zm-25-54.87h20V219.4L57.21,254Z"/><path class="cls-2" d="M38.91,85.87h-30V197.7l30-52Zm-5,58.53L13.91,179V90.87h20Z"/><path class="cls-2" d="M791.75,385l-79.33,45.8,15,26,16-9.2a27.54,27.54,0,0,0,22.51,11.63,27.49,27.49,0,0,0,24.92-39l16-9.21Zm-6.43,35.47a22.5,22.5,0,0,1-39,22.5l-1.25-2.17-15.85,9.15-10-17.32,70.67-40.8,10,17.32-15.85,9.15Z"/><path class="cls-2" d="M93.7,459.1l15,26L188,439.28l-15-26Zm16.83,19.15-10-17.32,70.67-40.8,10,17.32Z"/><path class="cls-2" d="M874,487.45l9.21,15.95a27.5,27.5,0,0,0,27.38,47.43l9.21,15.95,47.63-27.5L921.65,460ZM921.65,560,912.5,544.1l-2.17,1.25a22.5,22.5,0,0,1-22.5-39l2.17-1.25-9.15-15.85,39-22.5,40.8,70.67Z"/><path class="cls-2" d="M10.56,9A22.44,22.44,0,0,1,18.69,1a21.19,21.19,0,0,1,1.9-1h-9a27.67,27.67,0,0,0-4,4.41L0,0V5.8l9.3,5.37Z"/><polygon class="cls-2" points="57.21 0 52.21 0 52.21 59.04 0 28.89 0 34.67 57.21 67.7 57.21 0"/><path class="cls-2" d="M157.12,518.09a27.49,27.49,0,0,0-19.61,11.32L109.6,513.3l-15,26,92.52,53.42V485.87h-30Zm5-27.22h20V584l-80.69-46.59,10-17.32,27.77,16,1.26-2.14A22.48,22.48,0,0,1,159.64,523l2.48,0Z"/><path class="cls-2" d="M633.43,343.09a27.49,27.49,0,0,0-19.61,11.32L585.91,338.3l-15,26,92.52,53.42V310.87h-30Zm5-27.22h20V409l-80.69-46.59,10-17.32,27.78,16,1.25-2.13A22.48,22.48,0,0,1,636,348l2.48,0Z"/><polygon class="cls-2" points="244.95 778.86 250.73 778.86 268.72 747.7 268.72 778.86 273.72 778.86 273.72 729.04 244.95 778.86"/><path class="cls-2" d="M271.21,610.86a27.53,27.53,0,0,0-27.38,25H225.41v30H317v-30H298.6A27.55,27.55,0,0,0,271.21,610.86Zm40.8,50h-81.6v-20h18.3v-2.5a22.5,22.5,0,0,1,45,0v2.5H312Z"/><path class="cls-2" d="M490.22,435.87H471.81a27.5,27.5,0,0,0-54.77,0H398.62v30h91.6Zm-5,25h-81.6v-20h18.3v-2.5a22.5,22.5,0,0,1,45,0v2.5h18.3Z"/><path class="cls-2" d="M528.52,160.87v30h91.6v-30H601.71a27.5,27.5,0,0,0-54.77,0Zm23.3,2.5a22.5,22.5,0,0,1,45,0v2.5h18.3v20h-81.6v-20h18.3Z"/><path class="cls-2" d="M138.81,10.87v30h91.61v-30H212A27.17,27.17,0,0,0,208.64,0H202.7a22.39,22.39,0,0,1,4.42,13.37v2.5h18.3v20H143.81v-20h18.31v-2.5A22.38,22.38,0,0,1,166.53,0h-5.94a27.17,27.17,0,0,0-3.36,10.87Z"/><path class="cls-2" d="M834.13,535.86a27.55,27.55,0,0,0-27.39,25H788.33v30h91.6v-30H861.52A27.55,27.55,0,0,0,834.13,535.86Zm40.8,50h-81.6v-20h18.3v-2.5a22.5,22.5,0,0,1,45,0v2.5h18.3Z"/><path class="cls-2" d="M877.43,710.86a27.55,27.55,0,0,0-27.39,25H831.63v30h91.6v-30H904.82A27.55,27.55,0,0,0,877.43,710.86Zm40.8,50h-81.6v-20h18.3v-2.5a22.5,22.5,0,0,1,45,0v2.5h18.3Z"/><path class="cls-2" d="M1023.25,110.86h-18.42v30h33.65v-5h-28.65v-20h18.31v-2.5a22.51,22.51,0,0,1,10.34-18.92V88.7A27.57,27.57,0,0,0,1023.25,110.86Z"/><path class="cls-2" d="M1007.33,460.87a27.52,27.52,0,0,0-27.38,25H961.53v30h77v-5h-72v-20h18.3v-2.5a22.5,22.5,0,0,1,45,0v2.5h8.65v-5h-3.76A27.53,27.53,0,0,0,1007.33,460.87Z"/><path class="cls-2" d="M317,335.87H287v105h73.3v-30H317Zm38.3,80v20H292v-95h20v75Z"/><path class="cls-2" d="M658.42,85.87v105h73.31v-30h-43.3v-75Zm68.31,80v20H663.42v-95h20v75Z"/><polygon class="cls-2" points="645.13 760.87 645.13 685.86 615.12 685.86 615.12 778.86 620.12 778.86 620.12 690.86 640.13 690.86 640.13 765.87 683.42 765.87 683.42 778.86 688.42 778.86 688.42 760.87 645.13 760.87"/><polygon class="cls-2" points="571.82 760.86 571.82 778.86 576.82 778.86 576.82 765.86 596.82 765.86 596.82 778.86 601.82 778.86 601.82 760.86 571.82 760.86"/><path class="cls-2" d="M138.81,290.86h91.6v-30h-91.6Zm5-25h81.6v20h-81.6Z"/><path class="cls-2" d="M95.51,690.86h91.6v-30H95.51Zm5-25h81.6v20h-81.6Z"/><path class="cls-2" d="M100.51,560.87H8.91v30h91.6Zm-5,25H13.91v-20h81.6Z"/><path class="cls-2" d="M225.41,565.86H317v-30h-91.6Zm5-25H312v20h-81.6Z"/><path class="cls-2" d="M95.51,740.86h91.6v-30H95.51Zm5-25h81.6v20h-81.6Z"/><path class="cls-2" d="M658.42,240.87H750v-30H658.42Zm5-25H745v20H663.42Z"/><path class="cls-2" d="M701.73,115.87h91.6v-30h-91.6Zm5-25h81.6v20h-81.6Z"/><path class="cls-2" d="M658.42,290.87H750v-30H658.42Zm5-25H745v20H663.42Z"/><polygon class="cls-2" points="961.53 40.86 1038.48 40.86 1038.48 35.86 966.53 35.86 966.53 15.86 1038.48 15.86 1038.48 10.86 961.53 10.86 961.53 40.86"/><path class="cls-2" d="M879.93,610.86h-91.6v30h91.6Zm-5,25h-81.6v-20h81.6Z"/><path class="cls-2" d="M658.43,590.87H750v-30h-91.6Zm5-25H745v20h-81.6Z"/><path class="cls-2" d="M441.92,715.86h91.6v-30h-91.6Zm5-25h81.6v20h-81.6Z"/><path class="cls-2" d="M446.92,110.87h-91.6v30h91.6Zm-5,25h-81.6v-20h81.6Z"/><path class="cls-2" d="M398.62,315.86h91.6v-30h-91.6Zm5-25h81.6v20h-81.6Z"/><path class="cls-2" d="M225.41,240.86H317v-30h-91.6Zm5-25H312v20h-81.6Z"/><path class="cls-2" d="M225.41,515.86h55V497.45a27.5,27.5,0,0,0,0-54.77V424.26h-55Zm5-86.6h45v18.3h2.5a22.5,22.5,0,0,1,0,45h-2.5v18.3h-45Z"/><path class="cls-2" d="M63.91,509.05a27.5,27.5,0,0,0,0-54.77V435.87h-55v91.6h55Zm-5-4.88v18.3h-45v-81.6h45v18.3h2.5a22.5,22.5,0,1,1,0,45Z"/><path class="cls-2" d="M886.63,134.05a27.5,27.5,0,0,0,0-54.77V60.87h-55v91.6h55Zm-5-4.88v18.3h-45V65.87h45v18.3h2.5a22.5,22.5,0,1,1,0,45Z"/><path class="cls-2" d="M713.43,642.68V624.26h-55v91.61h55V697.45a27.5,27.5,0,0,0,0-54.77Zm-2.5,49.88h-2.5v18.31h-45V629.26h45v18.3h2.5a22.5,22.5,0,0,1,0,45Z"/><polygon class="cls-2" points="52.21 760.87 52.21 778.86 57.21 778.86 57.21 765.87 102.21 765.87 102.21 778.86 107.21 778.86 107.21 760.87 52.21 760.87"/><polygon class="cls-2" points="1004.83 702.47 1038.48 702.47 1038.48 697.47 1009.83 697.47 1009.83 615.86 1038.48 615.86 1038.48 610.86 1004.83 610.86 1004.83 702.47"/><path class="cls-2" d="M793.33,40.86V22.45A27.57,27.57,0,0,0,817.89,0h-5.11a22.54,22.54,0,0,1-21.95,17.56h-2.5v18.3h-45V0h-5V40.86Z"/><polygon class="cls-2" points="937.77 778.86 943.54 778.86 964.04 743.37 984.53 778.86 990.3 778.86 964.04 733.37 937.77 778.86"/><path class="cls-2" d="M22.73,713l16.11,27.9,26-15L11.41,633.37,0,653.12v10l11.41-19.75L58,724.05l-17.32,10-16-27.77-2.15,1.22a22.46,22.46,0,0,1-22.15,0L0,707.31v5.81L.08,713A27.92,27.92,0,0,0,22.73,713Z"/><path class="cls-2" d="M936.6,440.88,952.71,413a27.92,27.92,0,0,0,22.65,0l16.11,27.9,26-15L964,333.37l-53.42,92.51Zm74-16.83-17.32,10-16-27.77-2.15,1.22a22.46,22.46,0,0,1-22.15,0l-2.15-1.22-16,27.77-17.32-10L964,343.37Z"/><path class="cls-2" d="M434.31,650.88l26,15L476.4,638a27.92,27.92,0,0,0,22.65,0l16.11,27.91,26-15-53.42-92.51ZM517,659.06l-16-27.78-2.15,1.22a22.46,22.46,0,0,1-22.15,0l-2.16-1.22-16,27.77-17.32-10,46.58-80.68,46.59,80.68Z"/><path class="cls-2" d="M953.92,250.88l26,15L996,238a27.92,27.92,0,0,0,22.65,0l16.11,27.9,3.71-2.14V258l-1.88,1.09-16-27.77-2.16,1.22a22.44,22.44,0,0,1-22.14,0l-2.16-1.22-16,27.77-17.32-10,46.58-80.69,31.15,54v-10l-31.15-54Z"/><path class="cls-2" d="M417,40.88,433.09,13a27.92,27.92,0,0,0,22.65,0l16.11,27.9,26-15L482.89,0h-5.77L491,24.05l-17.32,10-16-27.77L455.49,7.5a22.47,22.47,0,0,1-11.07,2.92A22.44,22.44,0,0,1,433.35,7.5l-2.16-1.22-16,27.77-17.32-10L411.72,0H406L391,25.88Z"/><polygon class="cls-2" points="357.82 683.37 304.4 775.88 309.56 778.86 319.56 778.86 311.23 774.05 357.82 693.37 404.4 774.05 396.07 778.86 406.07 778.86 411.23 775.88 357.82 683.37"/><path class="cls-2" d="M368.89,757.5a22.46,22.46,0,0,1-22.15,0l-2.15-1.22-13,22.58h5.77L346.49,763a27.92,27.92,0,0,0,22.65,0l9.17,15.88h5.77l-13-22.58Z"/><path class="cls-2" d="M524.19,295.2l52-30,29.94-51.85-26-15Zm75.07-80-26.77,46.36-34.63,20,44.08-76.36Z"/><path class="cls-2" d="M567.49,320.2l52-30,29.94-51.84-26-15Zm75.07-80-26.77,46.35-34.64,20,44.09-76.35Z"/><polygon class="cls-2" points="259.68 713.35 233.7 698.35 187.21 778.86 192.98 778.86 235.53 705.18 252.85 715.18 226.08 761.53 196.07 778.86 206.07 778.86 229.74 765.19 259.68 713.35"/><polygon class="cls-2" points="494.28 748.35 476.66 778.86 482.44 778.86 496.11 755.18 513.43 765.18 505.53 778.86 511.3 778.86 520.26 763.35 494.28 748.35"/><path class="cls-2" d="M562.79,38.35l-26-15L480.89,120.2l52-30Zm-68.24,68.19,44.09-76.36,17.32,10L529.19,86.53Z"/><path class="cls-2" d="M913.9,720.19l52-30,29.94-51.84-26-15Zm75.07-80L962.2,686.53l-34.64,20,44.08-76.35Z"/><path class="cls-2" d="M351,645.2l52-30,29.94-51.84-26-15Zm75.07-80-26.77,46.35-34.63,20,44.08-76.35Z"/><polygon class="cls-2" points="359.64 40.19 382.85 0 377.08 0 355.98 36.53 321.35 56.53 353.99 0 348.21 0 307.69 70.2 359.64 40.19"/><polygon class="cls-2" points="316.34 15.19 325.12 0 319.34 0 312.68 11.53 278.04 31.53 296.25 0 290.48 0 264.38 45.2 316.34 15.19"/><path class="cls-2" d="M836,265.19l29.94-51.84-26-15L784,295.19Zm5.78-60,17.32,10L832.3,261.53l-34.64,20Z"/><polygon class="cls-2" points="922.56 15.19 931.34 0 925.56 0 918.9 11.53 884.26 31.54 902.47 0 896.7 0 870.6 45.2 922.56 15.19"/><polygon class="cls-2" points="862.27 0 852.27 0 840.96 6.53 844.73 0 838.96 0 827.3 20.2 862.27 0"/><path class="cls-2" d="M264.39,345.2l52-30,29.93-51.85-26-15Zm75.06-80-26.76,46.36-34.64,20,44.08-76.36Z"/><path class="cls-2" d="M316.35,165.19l29.93-51.84-26-15L264.39,195.2Zm5.78-60,17.32,10-26.76,46.35-34.64,20Z"/></g></g></svg>